<?xml version="1.0" encoding="UTF-8"?>
<!DOCTYPE svg PUBLIC "-//W3C//DTD SVG 1.1//EN" "http://www.w3.org/Graphics/SVG/1.1/DTD/svg11.dtd">
<!-- Creator: CorelDRAW 2018 (64 Bit Versão de avaliação) -->
<svg xmlns="http://www.w3.org/2000/svg" xml:space="preserve" width="400px" height="93px" version="1.1" shape-rendering="geometricPrecision" text-rendering="geometricPrecision" image-rendering="optimizeQuality" fill-rule="evenodd" clip-rule="evenodd"
viewBox="0 0 400 92.69"
 xmlns:xlink="http://www.w3.org/1999/xlink">
 <defs>
   <linearGradient id="id0" gradientUnits="userSpaceOnUse" x1="398.51" y1="24.72" x2="321.46" y2="43.96">
    <stop offset="0" stop-opacity="1" stop-color="#7CDBEA"/>
    <stop offset="0.243137" stop-opacity="1" stop-color="#64BEF0"/>
    <stop offset="0.541176" stop-opacity="1" stop-color="#72CFED"/>
    <stop offset="1" stop-opacity="1" stop-color="#4BA0F7"/>
   </linearGradient>
   <linearGradient id="id1" gradientUnits="userSpaceOnUse" x1="344.56" y1="30.75" x2="375.41" y2="90.82">
    <stop offset="0" stop-opacity="1" stop-color="#0B28B8"/>
    <stop offset="0.219608" stop-opacity="1" stop-color="#4B72D7"/>
    <stop offset="0.380392" stop-opacity="1" stop-color="#365CCB"/>
    <stop offset="0.509804" stop-opacity="1" stop-color="#3A70D0"/>
    <stop offset="1" stop-opacity="1" stop-color="#8BBDF7"/>
   </linearGradient>
 </defs>
 <g id="Camada_x0020_1">
  <metadata id="CorelCorpID_0Corel-Layer"/>
  <path fill="#373435" fill-rule="nonzero" d="M20.14 66.15c-3.86,0 -7.32,-0.87 -10.38,-2.6 -3.06,-1.74 -5.45,-4.13 -7.18,-7.19 -1.72,-3.05 -2.58,-6.49 -2.58,-10.31 0,-3.62 0.84,-6.99 2.51,-10.09 1.67,-3.1 4,-5.57 6.98,-7.41 2.98,-1.83 6.38,-2.75 10.18,-2.75 3.96,0 7.4,0.84 10.3,2.53 2.91,1.69 5.12,4 6.64,6.93 1.51,2.92 2.27,6.22 2.27,9.9 0,0.69 -0.07,1.56 -0.23,2.6l-30.16 0c0.3,3.53 1.6,6.24 3.89,8.16 2.29,1.91 4.95,2.86 7.99,2.86 2.41,0 4.51,-0.53 6.28,-1.6 1.78,-1.07 3.21,-2.52 4.29,-4.35l7.17 3.27c-1.85,3.13 -4.27,5.59 -7.25,7.37 -2.98,1.79 -6.56,2.68 -10.72,2.68zm10.1 -24.64c-0.1,-1.34 -0.54,-2.67 -1.31,-3.98 -0.77,-1.32 -1.94,-2.42 -3.51,-3.32 -1.57,-0.89 -3.48,-1.34 -5.75,-1.34 -2.72,0 -5.02,0.78 -6.9,2.35 -1.88,1.56 -3.18,3.66 -3.9,6.29l21.37 0z"/>
  <path id="1" fill="#373435" fill-rule="nonzero" d="M57.97 66.15c-4.78,0 -8.42,-1.37 -10.92,-4.13 -2.49,-2.75 -3.74,-6.59 -3.74,-11.5l0 -23.53 8.49 0 0 22.41c0,3.08 0.76,5.39 2.27,6.93 1.52,1.53 3.51,2.3 5.98,2.3 2.01,0 3.78,-0.51 5.33,-1.52 1.54,-1.02 2.72,-2.37 3.54,-4.06 0.83,-1.69 1.24,-3.5 1.24,-5.44l0 -20.62 8.49 0 0 37.97 -8.03 0 0 -4.91 -0.46 0c-1.08,1.79 -2.75,3.25 -5.02,4.39 -2.26,1.14 -4.65,1.71 -7.17,1.71z"/>
  <path id="2" fill="#373435" fill-rule="nonzero" d="M85.54 26.99l8.1 0 0 5.58 0.39 0c0.87,-1.93 2.39,-3.53 4.55,-4.8 2.16,-1.26 4.45,-1.9 6.87,-1.9 1.9,0 3.49,0.25 4.78,0.75l0 8.49c-2.26,-0.8 -4.29,-1.2 -6.09,-1.2 -1.96,0 -3.69,0.5 -5.21,1.49 -1.52,1 -2.71,2.32 -3.59,3.99 -0.87,1.66 -1.31,3.48 -1.31,5.47l0 20.1 -8.49 0 0 -37.97z"/>
  <path id="3" fill="#373435" fill-rule="nonzero" d="M129.86 66.15c-3.96,0 -7.51,-0.88 -10.65,-2.64 -3.14,-1.76 -5.58,-4.18 -7.33,-7.26 -1.75,-3.08 -2.62,-6.5 -2.62,-10.27 0,-3.78 0.87,-7.2 2.62,-10.28 1.75,-3.08 4.19,-5.5 7.33,-7.26 3.14,-1.76 6.69,-2.64 10.65,-2.64 3.96,0 7.51,0.89 10.64,2.68 3.14,1.79 5.58,4.22 7.33,7.3 1.75,3.07 2.63,6.47 2.63,10.2 0,3.77 -0.88,7.19 -2.63,10.27 -1.75,3.08 -4.19,5.5 -7.33,7.26 -3.13,1.76 -6.68,2.64 -10.64,2.64zm0 -7.52c2.16,0 4.16,-0.51 6.01,-1.52 1.86,-1.02 3.34,-2.48 4.44,-4.4 1.11,-1.91 1.66,-4.15 1.66,-6.73 0,-2.58 -0.55,-4.82 -1.66,-6.7 -1.1,-1.89 -2.58,-3.34 -4.44,-4.36 -1.85,-1.02 -3.85,-1.53 -6.01,-1.53 -2.16,0 -4.17,0.51 -6.02,1.53 -1.85,1.02 -3.33,2.47 -4.44,4.36 -1.1,1.88 -1.65,4.12 -1.65,6.7 0,2.58 0.55,4.82 1.65,6.73 1.11,1.92 2.59,3.38 4.44,4.4 1.85,1.01 3.86,1.52 6.02,1.52z"/>
  <path id="4" fill="#373435" fill-rule="nonzero" d="M154.58 26.99l8.1 0 0 4.99 0.38 0c1.13,-1.74 2.81,-3.2 5.02,-4.39 2.21,-1.19 4.7,-1.79 7.48,-1.79 3.55,0 6.76,0.87 9.64,2.61 2.88,1.73 5.16,4.13 6.83,7.18 1.67,3.05 2.51,6.51 2.51,10.39 0,3.87 -0.84,7.33 -2.51,10.38 -1.67,3.06 -3.95,5.45 -6.83,7.19 -2.88,1.73 -6.09,2.6 -9.64,2.6 -2.78,0 -5.27,-0.59 -7.48,-1.78 -2.21,-1.19 -3.89,-2.63 -5.02,-4.32l-0.38 0 0.38 5.28 0 15.71 -8.48 0 0 -54.05zm19.75 31.64c2.05,0 3.98,-0.52 5.78,-1.56 1.8,-1.04 3.24,-2.53 4.32,-4.47 1.08,-1.93 1.62,-4.14 1.62,-6.62 0,-2.49 -0.54,-4.68 -1.62,-6.59 -1.08,-1.91 -2.52,-3.39 -4.32,-4.43 -1.8,-1.05 -3.73,-1.57 -5.78,-1.57 -2.06,0 -3.98,0.52 -5.75,1.57 -1.78,1.04 -3.2,2.52 -4.28,4.43 -1.08,1.91 -1.62,4.1 -1.62,6.59 0,2.48 0.54,4.69 1.62,6.62 1.08,1.94 2.5,3.43 4.28,4.47 1.77,1.04 3.69,1.56 5.75,1.56z"/>
  <polygon id="5" fill="#373435" fill-rule="nonzero" points="198.5,11.65 206.99,11.65 206.99,64.96 198.5,64.96 "/>
  <path id="6" fill="#373435" fill-rule="nonzero" d="M228.31 66.15c-4.78,0 -8.42,-1.37 -10.91,-4.13 -2.5,-2.75 -3.74,-6.59 -3.74,-11.5l0 -23.53 8.48 0 0 22.41c0,3.08 0.76,5.39 2.28,6.93 1.52,1.53 3.51,2.3 5.98,2.3 2,0 3.78,-0.51 5.32,-1.52 1.54,-1.02 2.73,-2.37 3.55,-4.06 0.82,-1.69 1.23,-3.5 1.23,-5.44l0 -20.62 8.49 0 0 37.97 -8.02 0 0 -4.91 -0.47 0c-1.08,1.79 -2.75,3.25 -5.01,4.39 -2.26,1.14 -4.65,1.71 -7.18,1.71z"/>
  <path id="7" fill="#373435" fill-rule="nonzero" d="M269.85 66.15c-4.52,0 -8.23,-0.95 -11.11,-2.86 -2.88,-1.91 -4.91,-4.36 -6.09,-7.34l7.56 -3.2c0.92,1.99 2.22,3.5 3.89,4.54 1.68,1.05 3.59,1.57 5.75,1.57 2.11,0 3.89,-0.36 5.33,-1.08 1.44,-0.72 2.16,-1.8 2.16,-3.24 0,-1.39 -0.62,-2.48 -1.86,-3.28 -1.23,-0.79 -3.13,-1.49 -5.71,-2.08l-4.7 -1.12c-3.14,-0.74 -5.74,-2.06 -7.79,-3.94 -2.06,-1.89 -3.09,-4.27 -3.09,-7.15 0,-2.24 0.68,-4.2 2.05,-5.88 1.36,-1.69 3.2,-3 5.51,-3.91 2.32,-0.92 4.84,-1.38 7.56,-1.38 3.65,0 6.87,0.71 9.65,2.12 2.77,1.42 4.78,3.46 6.01,6.14l-7.4 3.13c-1.49,-2.93 -4.22,-4.39 -8.18,-4.39 -1.9,0 -3.5,0.37 -4.78,1.11 -1.29,0.75 -1.93,1.72 -1.93,2.91 0,1.14 0.49,2.07 1.46,2.79 0.98,0.72 2.42,1.33 4.32,1.82l5.79 1.42c3.86,0.94 6.78,2.37 8.76,4.28 1.98,1.91 2.97,4.26 2.97,7.04 0,2.38 -0.71,4.48 -2.13,6.29 -1.41,1.81 -3.35,3.21 -5.82,4.2 -2.47,1 -5.2,1.49 -8.18,1.49z"/>
  <path fill="url(#id0)" d="M400 46.35l-80.03 -46.35 0 21.37c0.16,9.6 4.49,16.17 10.32,19.61l8.72 4.68c8.62,4.62 23.78,16.42 22.42,23.02l38.57 -22.33z"/>
  <path fill="url(#id1)" fill-opacity="0.768627" d="M400 46.35l-80.03 46.34 0 -22.8c0.49,-9.97 5.3,-16.43 12.71,-20.79l37.16 -20.22 30.16 17.47z"/>
 </g>
</svg>
