<?xml version="1.0" encoding="UTF-8"?>
<!DOCTYPE svg PUBLIC "-//W3C//DTD SVG 1.0//EN" "http://www.w3.org/TR/2001/REC-SVG-20010904/DTD/svg10.dtd">
<!-- Creator: CorelDRAW 2018 (64 Bit Versão de avaliação) -->
<svg xmlns="http://www.w3.org/2000/svg" xml:space="preserve" width="41px" height="41px" version="1.0" shape-rendering="geometricPrecision" text-rendering="geometricPrecision" image-rendering="optimizeQuality" fill-rule="evenodd" clip-rule="evenodd"
viewBox="0 0 1.55 1.57"
 xmlns:xlink="http://www.w3.org/1999/xlink">
 <g id="Camada_x0020_1">
  <metadata id="CorelCorpID_0Corel-Layer"/>
  <path fill="black" d="M0.5 0.69c0,0.06 0.06,0.06 0.08,0.04 0.02,-0.02 0,-0.08 0.06,-0.08 0.02,0 0.04,0.02 0.04,0.05 0.01,0.02 0,0.05 -0.02,0.06 0,0.01 -0.02,0.02 -0.02,0.02 -0.03,0.02 -0.06,0.03 -0.08,0.06 -0.07,0.06 -0.08,0.18 -0.02,0.18l0.2 0c0.03,0 0.05,-0.06 0.02,-0.08 -0.02,-0.02 -0.13,-0.01 -0.16,-0.01 0.02,-0.05 0.18,-0.07 0.18,-0.22 0,-0.04 -0.01,-0.07 -0.04,-0.11 -0.1,-0.09 -0.24,-0.02 -0.24,0.09zm0.51 -0.38c0,0.04 0.04,0.05 0.06,0.04 0.02,0 0.03,-0.03 0.05,-0.06 0.01,-0.02 0.07,-0.11 0.07,-0.14 0,-0.03 -0.01,-0.05 -0.04,-0.05 -0.04,0 -0.06,0.05 -0.08,0.09 -0.02,0.03 -0.06,0.09 -0.06,0.12zm-0.18 -0.07c0,0.06 0.08,0.07 0.09,0.01l0.02 -0.13c0.01,-0.02 0.01,-0.04 0.01,-0.07 0,-0.04 -0.07,-0.06 -0.09,-0.01 0,0.02 -0.01,0.05 -0.01,0.07l-0.02 0.13zm-0.23 -0.2c0,0.04 0.02,0.1 0.02,0.15 0.01,0.02 0.01,0.04 0.01,0.06 0.02,0.06 0.1,0.05 0.1,-0.01l-0.04 -0.2c0,-0.03 -0.02,-0.04 -0.04,-0.04l-0.01 0c-0.02,0 -0.04,0.02 -0.04,0.04zm0.56 0.39c0,0.04 0.03,0.06 0.06,0.05 0.01,0 0.02,-0.01 0.03,-0.02 0.01,-0.01 0.02,-0.02 0.03,-0.03 0.01,-0.01 0.02,-0.02 0.03,-0.02 0.02,-0.02 0.08,-0.06 0.08,-0.09 0,-0.05 -0.04,-0.08 -0.09,-0.03l-0.06 0.05c-0.02,0.02 -0.08,0.06 -0.08,0.09zm0.09 0.17c0,0.03 0.03,0.05 0.05,0.05 0.01,0 0.2,-0.07 0.21,-0.08 0.02,-0.02 0.02,-0.08 -0.04,-0.08 -0.01,0 -0.19,0.06 -0.2,0.08 -0.01,0 -0.02,0.01 -0.02,0.03zm-1.01 -0.11c0.02,0 0.02,0.01 0.03,0.02l0.04 0.03c0,0.01 0.01,0.02 0.01,0.02 0.01,0 0.03,0 0.03,0 0.01,-0.01 0.02,-0.03 0.02,-0.04 0.02,-0.07 0.03,-0.14 0.04,-0.21 0.01,-0.02 0.02,-0.1 0.02,-0.11 0,-0.02 -0.01,-0.03 -0.03,-0.03 -0.02,0 -0.04,0.01 -0.06,0.01 -0.08,0.02 -0.17,0.03 -0.26,0.05 -0.02,0.01 -0.03,0.01 -0.04,0.03 0,0.02 0.01,0.03 0.02,0.04l0.05 0.05c0.02,0.02 0.02,0.02 0,0.06 -0.02,0.02 -0.03,0.05 -0.05,0.08 -0.05,0.13 -0.07,0.28 -0.05,0.43 0.01,0.08 0.03,0.13 0.06,0.19 0.03,0.08 0.07,0.12 0.11,0.18 0.02,0.03 0.06,0.05 0.08,0.08 0.02,0.02 0.07,0.06 0.1,0.08 0.03,0.02 0.06,0.03 0.09,0.04 0.05,0.03 0.12,0.05 0.19,0.07 0.14,0.02 0.3,0 0.43,-0.05 0.1,-0.04 0.19,-0.1 0.26,-0.18 0.03,-0.03 0.04,-0.03 0.06,-0.07 0.06,-0.07 0.12,-0.2 0.14,-0.29 0.02,-0.06 0.02,-0.12 0.02,-0.18 0,-0.01 -0.01,-0.03 -0.03,-0.03 -0.02,0 -0.04,0 -0.06,0 -0.05,0 -0.06,-0.01 -0.07,0.06 0,0.13 -0.05,0.26 -0.13,0.36 -0.01,0.01 -0.01,0.02 -0.02,0.02 -0.01,0.02 -0.03,0.03 -0.05,0.05 0,0 0,0 -0.01,0.01l-0.02 0.02c-0.02,0.02 -0.05,0.03 -0.08,0.05 -0.12,0.07 -0.24,0.1 -0.4,0.07 -0.08,-0.01 -0.14,-0.03 -0.19,-0.06 -0.06,-0.03 -0.1,-0.06 -0.15,-0.11 -0.01,-0.01 -0.02,-0.02 -0.03,-0.03 0,0 -0.01,-0.01 -0.01,-0.02 -0.07,-0.08 -0.11,-0.17 -0.13,-0.28 -0.02,-0.11 -0.01,-0.22 0.03,-0.32 0,-0.02 0.01,-0.03 0.02,-0.05 0,-0.01 0.01,-0.03 0.02,-0.04zm0.54 0.39c0,0.03 0.02,0.05 0.04,0.05l0.14 0 0 0.05c0,0.06 0.09,0.06 0.09,0l0 -0.05 0.06 0c0.05,0 0.05,-0.09 0,-0.09l-0.06 0 0 -0.15c0,-0.05 -0.09,-0.05 -0.09,0l0 0.15 -0.07 0c0.01,-0.03 0.07,-0.22 0.07,-0.23 0,-0.06 -0.06,-0.06 -0.08,-0.03 -0.02,0.02 -0.1,0.29 -0.1,0.3z"/>
 </g>
</svg>
