<?xml version="1.0" encoding="UTF-8"?>
<!DOCTYPE svg PUBLIC "-//W3C//DTD SVG 1.0//EN" "http://www.w3.org/TR/2001/REC-SVG-20010904/DTD/svg10.dtd">
<!-- Creator: CorelDRAW 2018 (64 Bit Versão de avaliação) -->
<svg xmlns="http://www.w3.org/2000/svg" xml:space="preserve" width="45px" height="41px" version="1.0" shape-rendering="geometricPrecision" text-rendering="geometricPrecision" image-rendering="optimizeQuality" fill-rule="evenodd" clip-rule="evenodd"
viewBox="0 0 0.91 0.83"
 xmlns:xlink="http://www.w3.org/1999/xlink">
 <g id="Camada_x0020_1">
  <metadata id="CorelCorpID_0Corel-Layer"/>
  <g id="_2317742079312">
   <path fill="#373435" d="M0.71 0.51l0 0.11 -0.11 0c-0.04,0.01 -0.04,0.06 0,0.07 0.02,0.01 0.08,0 0.11,0 0,0.02 -0.01,0.11 0,0.12 0.01,0.02 0.05,0.02 0.06,0 0.01,-0.01 0,-0.02 0,-0.04 0,-0.02 0,-0.05 0,-0.08 0.03,0 0.06,0 0.09,0 0.03,0 0.05,0 0.05,-0.03 0,-0.04 -0.03,-0.04 -0.05,-0.04 -0.03,0 -0.06,0 -0.08,0 -0.01,-0.03 0,-0.08 -0.01,-0.11 0,-0.03 -0.06,-0.03 -0.06,0z"/>
   <path fill="#373435" d="M0.32 0.06c0.04,0 0.07,0.01 0.11,0.02l0.02 0.01c0.03,0.02 0.02,0.02 0.05,0.04 0.03,0.02 0.05,0.05 0.07,0.09 0,0 0.01,0.01 0.01,0.02 0.01,0.02 0.02,0.06 0.02,0.08 0,0.04 -0.01,0.06 -0.02,0.1 -0.01,0.02 -0.02,0.05 -0.04,0.07 0,0 0,0 0,0.01 -0.01,0 -0.01,0 -0.01,0 -0.02,0.02 -0.02,0.03 -0.05,0.05 -0.03,0.02 -0.05,0.03 -0.09,0.04 -0.01,0 -0.05,0.01 -0.06,0.01 0,0 -0.01,-0.01 -0.01,-0.01 0,0 -0.01,0 -0.01,0 -0.05,0 -0.08,-0.01 -0.12,-0.03 -0.02,-0.01 -0.02,-0.01 -0.04,0l-0.07 0.02c0,-0.01 0.01,-0.04 0.02,-0.04 0,-0.02 0,-0.03 0.01,-0.04 0,-0.03 -0.01,-0.03 -0.02,-0.06 -0.01,-0.02 -0.02,-0.03 -0.02,-0.06 0,-0.01 0,-0.01 0,-0.02 0,-0.01 0,-0.02 -0.01,-0.03 0,-0.01 0.01,-0.03 0.01,-0.04 0,-0.03 0.01,-0.06 0.03,-0.09l0.01 -0.02c0.01,-0.01 0.02,-0.02 0.03,-0.03 0.04,-0.04 0.08,-0.07 0.13,-0.08 0.02,0 0.03,-0.01 0.05,-0.01zm0.14 0.31c0.04,0 0.05,-0.06 0.01,-0.08 -0.01,0 -0.02,0 -0.03,0 0,0.01 0,0.01 -0.01,0.01l0 0c-0.03,0.03 -0.01,0.07 0.03,0.07zm-0.29 -0.04c0,0.01 0,0.02 0.01,0.03 0.01,0.01 0.03,0.01 0.05,0 0.02,-0.01 0.02,-0.05 -0.01,-0.07 0,0 -0.01,0 -0.02,0 -0.02,0 -0.03,0.02 -0.03,0.04zm0.12 0c0,0.04 0.05,0.05 0.07,0.03 0.03,-0.04 -0.02,-0.09 -0.06,-0.06 0,0.01 -0.01,0.02 -0.01,0.03zm0.03 -0.33l0.02 0c0.03,0 0.04,0 0.08,0.01 0.01,0 0.03,0.01 0.04,0.02l0.02 0.01c0,0 0.01,0 0.01,0 0,0 0.01,0 0.01,0.01 0.03,0.01 0.06,0.04 0.09,0.07 0.02,0.03 0.02,0.04 0.04,0.07 0.01,0.02 0.02,0.04 0.02,0.06 0.01,0.04 0.01,0.06 0.01,0.09l0 0.01c0,0.04 -0.01,0.09 -0.03,0.13 -0.02,0.02 -0.03,0.05 -0.05,0.07 -0.03,0.03 -0.05,0.05 -0.09,0.07 0,0 -0.01,0 -0.01,0.01 -0.02,0.01 -0.05,0.02 -0.07,0.02 -0.04,0.01 -0.06,0.01 -0.09,0.01l-0.01 0c-0.04,0 -0.09,-0.02 -0.12,-0.03l-0.02 -0.01c0,0 -0.03,0.01 -0.03,0.01 -0.02,0 -0.1,0.03 -0.11,0.03 -0.02,0 -0.03,-0.01 -0.03,-0.03 0,-0.01 0.01,-0.03 0.01,-0.04 0,-0.01 0.01,-0.02 0.01,-0.03 0,-0.02 0.01,-0.03 0.01,-0.04 0,-0.01 0.01,-0.01 0.01,-0.02 0,-0.01 0,-0.01 0,-0.01 -0.01,-0.02 -0.02,-0.05 -0.03,-0.07 -0.01,-0.03 -0.01,-0.06 -0.01,-0.1l0 0 0 0 0 -0.01c0,-0.02 0.01,-0.05 0.01,-0.07 0,0 0,-0.01 0.01,-0.01 0,-0.02 0.01,-0.04 0.02,-0.06 0,-0.01 0.02,-0.02 0.02,-0.03 0.01,-0.02 0.02,-0.03 0.04,-0.04 0,-0.01 0,-0.01 0,-0.01 0,0 0.01,0 0.01,0 0.02,-0.02 0.03,-0.03 0.05,-0.05l0.04 -0.02c0.04,-0.01 0.08,-0.02 0.12,-0.02l0 0z"/>
  </g>
 </g>
</svg>
