<?xml version="1.0" encoding="UTF-8"?>
<!DOCTYPE svg PUBLIC "-//W3C//DTD SVG 1.0//EN" "http://www.w3.org/TR/2001/REC-SVG-20010904/DTD/svg10.dtd">
<!-- Creator: CorelDRAW 2018 (64 Bit Versão de avaliação) -->
<svg xmlns="http://www.w3.org/2000/svg" xml:space="preserve" width="33px" height="33px" version="1.0" shape-rendering="geometricPrecision" text-rendering="geometricPrecision" image-rendering="optimizeQuality" fill-rule="evenodd" clip-rule="evenodd"
viewBox="0 0 0.85 0.85"
 xmlns:xlink="http://www.w3.org/1999/xlink">
 <g id="Camada_x0020_1">
  <metadata id="CorelCorpID_0Corel-Layer"/>
  <path fill="black" d="M0.19 0.42c0,0 0.01,-0.02 0.01,-0.02 0.01,-0.01 0.02,-0.01 0.03,-0.01l0.16 0 0 -0.16c0,-0.04 0.04,-0.05 0.06,-0.03 0.01,0.01 0.01,0.02 0.01,0.03l0 0.16 0.16 0c0.05,0 0.05,0.07 0,0.07l-0.16 0 0 0.16c0,0.01 0,0.02 -0.01,0.02 -0.02,0.03 -0.06,0.01 -0.06,-0.02l0 -0.16 -0.16 0c-0.02,0 -0.04,-0.02 -0.04,-0.04zm-0.19 0c0,0.09 0.03,0.18 0.08,0.25 0.01,0.02 0.02,0.03 0.03,0.04 0.01,0.01 0.02,0.02 0.04,0.03 0.02,0.03 0.06,0.05 0.1,0.07 0.1,0.05 0.25,0.05 0.35,0 0.06,-0.03 0.06,-0.03 0.1,-0.06 0,0 0.01,-0.01 0.01,-0.01 0.01,-0.01 0.01,-0.01 0.02,-0.02 0.03,-0.03 0.06,-0.08 0.08,-0.12 0.03,-0.05 0.04,-0.12 0.04,-0.18 0,-0.09 -0.04,-0.2 -0.1,-0.27l-0.02 -0.03 -0.06 -0.04c-0.1,-0.07 -0.22,-0.09 -0.34,-0.07 -0.02,0.01 -0.06,0.02 -0.08,0.03 -0.04,0.02 -0.06,0.03 -0.1,0.06 0,0 0,0.01 -0.01,0.01 -0.03,0.02 -0.03,0.03 -0.05,0.05 -0.05,0.07 -0.09,0.17 -0.09,0.26z"/>
 </g>
</svg>
