<?xml version="1.0" encoding="UTF-8"?>
<!DOCTYPE svg PUBLIC "-//W3C//DTD SVG 1.0//EN" "http://www.w3.org/TR/2001/REC-SVG-20010904/DTD/svg10.dtd">
<!-- Creator: CorelDRAW 2018 (64 Bit Versão de avaliação) -->
<svg xmlns="http://www.w3.org/2000/svg" xml:space="preserve" width="51px" height="41px" version="1.0" shape-rendering="geometricPrecision" text-rendering="geometricPrecision" image-rendering="optimizeQuality" fill-rule="evenodd" clip-rule="evenodd"
viewBox="0 0 1.59 1.28"
 xmlns:xlink="http://www.w3.org/1999/xlink">
 <g id="Camada_x0020_1">
  <metadata id="CorelCorpID_0Corel-Layer"/>
  <g id="_2069308468736">
   <path fill="#292929" d="M0.49 0.12c0.15,-0.03 0.26,0.08 0.28,0.21 0.03,0.14 -0.08,0.27 -0.2,0.29 -0.09,0.01 -0.16,-0.02 -0.2,-0.06 -0.18,-0.15 -0.09,-0.41 0.12,-0.44zm0.4 0.28c0.02,-0.21 -0.14,-0.38 -0.33,-0.4 -0.21,-0.02 -0.38,0.13 -0.4,0.33 -0.02,0.22 0.14,0.38 0.33,0.4 0.05,0.01 0.12,0 0.16,-0.02 0.05,-0.01 0.08,-0.04 0.11,-0.07 0.08,-0.05 0.12,-0.15 0.13,-0.24z"/>
   <path fill="#292929" d="M0.49 0.85c-0.18,0.02 -0.36,0.08 -0.45,0.23 -0.02,0.04 -0.06,0.12 -0.03,0.17 0.01,0.02 0.05,0.04 0.08,0.02 0.03,-0.02 0.02,-0.04 0.03,-0.08 0.01,-0.06 0.05,-0.1 0.09,-0.13 0.14,-0.1 0.37,-0.12 0.54,-0.05 0.22,0.09 0.16,0.21 0.2,0.25 0.03,0.04 0.11,0.03 0.1,-0.08 -0.04,-0.21 -0.31,-0.35 -0.56,-0.33z"/>
   <path fill="#292929" d="M1.24 0.51l0 0.19 -0.18 0c-0.06,0 -0.06,0.1 -0.01,0.11 0.04,0.01 0.14,0 0.19,0 0,0.03 0,0.19 0.01,0.21 0.02,0.03 0.07,0.03 0.1,0 0.01,-0.02 0.01,-0.04 0.01,-0.06 0,-0.05 0,-0.1 0,-0.15 0.05,0 0.09,0 0.14,0 0.05,0 0.09,0 0.09,-0.05 0,-0.07 -0.06,-0.06 -0.09,-0.06 -0.05,0 -0.09,0 -0.14,0 -0.01,-0.05 0.01,-0.15 0,-0.19 -0.02,-0.06 -0.11,-0.06 -0.12,0z"/>
  </g>
 </g>
</svg>
