<?xml version="1.0" encoding="UTF-8"?>
<!DOCTYPE svg PUBLIC "-//W3C//DTD SVG 1.0//EN" "http://www.w3.org/TR/2001/REC-SVG-20010904/DTD/svg10.dtd">
<!-- Creator: CorelDRAW 2018 (64 Bit Versão de avaliação) -->
<svg xmlns="http://www.w3.org/2000/svg" xml:space="preserve" width="46px" height="41px" version="1.0" shape-rendering="geometricPrecision" text-rendering="geometricPrecision" image-rendering="optimizeQuality" fill-rule="evenodd" clip-rule="evenodd"
viewBox="0 0 2.4 2.17"
 xmlns:xlink="http://www.w3.org/1999/xlink">
 <g id="Camada_x0020_1">
  <metadata id="CorelCorpID_0Corel-Layer"/>
  <path fill="black" d="M0.56 1.35c0,-0.05 0.04,-0.09 0.09,-0.09l0.2 0 0 -0.22c0,-0.07 0.1,-0.09 0.15,-0.05 0.01,0.01 0.02,0.04 0.02,0.06l0 0.21 0.22 0c0.1,0 0.1,0.17 0,0.17l-0.22 0 0 0.21c0,0.11 -0.17,0.12 -0.17,-0.01 0,-0.03 0.01,-0.18 0,-0.19 -0.02,-0.04 -0.23,0.04 -0.28,-0.05 0,-0.01 -0.01,-0.04 -0.01,-0.04zm-0.13 -1.03c0,0.01 0,0.01 0,0.03 0.02,0 0.03,0.01 0.05,0.01l1.02 0c0.19,0 0.25,-0.02 0.4,0.11 0.02,0.01 0.03,0.02 0.04,0.03 0.01,0.02 0.02,0.02 0.03,0.04 0.07,0.1 0.08,0.17 0.08,0.31l0 0.93c0,0.04 -0.01,0.1 0.03,0.1 0.04,0 0.1,-0.07 0.11,-0.1 0.07,-0.09 0.07,-0.21 0.09,-0.33 0.01,-0.07 0.01,-0.12 0.02,-0.19 0.03,-0.2 0.06,-0.44 0.09,-0.64 0.02,-0.08 0.02,-0.13 0,-0.21 -0.07,-0.21 -0.24,-0.22 -0.42,-0.25l-0.94 -0.13c-0.04,0 -0.08,-0.01 -0.12,-0.01 -0.09,-0.02 -0.07,-0.02 -0.17,-0.02 -0.17,0 -0.31,0.16 -0.31,0.32zm-0.43 0.47l0 1.11c0,0.13 0.11,0.24 0.22,0.26 0.06,0.01 0.09,0 0.15,0l1.14 0c0.07,0 0.1,0.02 0.17,0 0.08,-0.03 0.16,-0.1 0.19,-0.19 0.02,-0.07 0,-0.09 0,-0.17l0 -0.91c0,-0.06 0.01,-0.08 0,-0.14 -0.02,-0.12 -0.13,-0.22 -0.24,-0.22l-1.38 0c-0.07,0 -0.13,0.04 -0.17,0.08 -0.03,0.03 -0.04,0.04 -0.05,0.07 -0.02,0.03 -0.03,0.07 -0.03,0.11z"/>
 </g>
</svg>
