<?xml version="1.0" encoding="UTF-8"?>
<!DOCTYPE svg PUBLIC "-//W3C//DTD SVG 1.0//EN" "http://www.w3.org/TR/2001/REC-SVG-20010904/DTD/svg10.dtd">
<!-- Creator: CorelDRAW 2018 (64 Bit Versão de avaliação) -->
<svg xmlns="http://www.w3.org/2000/svg" xml:space="preserve" width="41px" height="41px" version="1.0" shape-rendering="geometricPrecision" text-rendering="geometricPrecision" image-rendering="optimizeQuality" fill-rule="evenodd" clip-rule="evenodd"
viewBox="0 0 2.49 2.49"
 xmlns:xlink="http://www.w3.org/1999/xlink">
 <g id="Camada_x0020_1">
  <metadata id="CorelCorpID_0Corel-Layer"/>
  <g id="_2038686139904">
   <path fill="#282828" d="M1.14 0.21c0.61,-0.05 1.08,0.39 1.13,0.93 0.04,0.32 -0.09,0.63 -0.3,0.85 -0.03,0.02 -0.04,0.03 -0.07,0.06 -0.28,0.22 -0.65,0.29 -1,0.17 -0.15,-0.05 -0.25,-0.12 -0.36,-0.22 -0.07,-0.06 -0.04,-0.04 -0.1,-0.1 -0.11,-0.12 -0.21,-0.37 -0.23,-0.55 -0.03,-0.3 0.07,-0.56 0.25,-0.78 0.03,-0.05 0.08,-0.09 0.13,-0.13 0.14,-0.12 0.35,-0.21 0.55,-0.23zm-1.14 1.13c0.01,0.23 0.12,0.49 0.26,0.67 0.14,0.17 0.33,0.32 0.54,0.4 0.32,0.12 0.72,0.1 1.03,-0.07 0.26,-0.14 0.47,-0.36 0.58,-0.65 0.17,-0.47 0.07,-0.94 -0.26,-1.3 -0.07,-0.07 -0.17,-0.15 -0.25,-0.21 -0.25,-0.15 -0.45,-0.19 -0.75,-0.18 -0.25,0.01 -0.5,0.13 -0.67,0.26 -0.05,0.04 -0.06,0.05 -0.09,0.08 -0.03,0.02 -0.05,0.04 -0.07,0.07 -0.05,0.07 -0.09,0.12 -0.13,0.18 -0.04,0.06 -0.08,0.14 -0.11,0.21 -0.07,0.18 -0.09,0.32 -0.08,0.54z"/>
   <path fill="#282828" d="M1.91 1.14c-0.09,0 -0.19,0 -0.29,0 -0.07,0 -0.23,0.01 -0.29,0 0,-0.03 0,-0.51 0,-0.56 0,-0.06 -0.07,-0.12 -0.14,-0.1 -0.07,0.02 -0.08,0.07 -0.08,0.16 0,0.17 0,0.33 0,0.49 -0.12,0 -0.25,0 -0.37,0 -0.09,0 -0.27,-0.02 -0.26,0.11 0,0.06 0.03,0.1 0.08,0.11 0.04,0.01 0.49,0.01 0.55,0.01 0,0.07 0,0.52 0.01,0.57 0.03,0.11 0.19,0.1 0.21,-0.01 0.01,-0.04 0,-0.5 0,-0.56 0.17,0 0.34,0 0.5,0 0.04,0 0.09,0 0.12,-0.02 0.11,-0.04 0.07,-0.21 -0.04,-0.2z"/>
  </g>
 </g>
</svg>
