<?xml version="1.0" encoding="UTF-8"?>
<!DOCTYPE svg PUBLIC "-//W3C//DTD SVG 1.0//EN" "http://www.w3.org/TR/2001/REC-SVG-20010904/DTD/svg10.dtd">
<!-- Creator: CorelDRAW 2018 (64 Bit Versão de avaliação) -->
<svg xmlns="http://www.w3.org/2000/svg" xml:space="preserve" width="40px" height="41px" version="1.0" shape-rendering="geometricPrecision" text-rendering="geometricPrecision" image-rendering="optimizeQuality" fill-rule="evenodd" clip-rule="evenodd"
viewBox="0 0 5.55 5.66"
 xmlns:xlink="http://www.w3.org/1999/xlink">
 <g id="Camada_x0020_1">
  <metadata id="CorelCorpID_0Corel-Layer"/>
  <path fill="#292929" d="M2.46 2.54l-2.06 0c-0.15,0 -0.28,0 -0.36,0.15 -0.08,0.14 -0.03,0.3 0.07,0.38 0.09,0.07 0.14,0.07 0.28,0.07l2.07 0 0 2.11c0,0.15 0.01,0.29 0.16,0.37 0.13,0.08 0.3,0.04 0.38,-0.07 0.07,-0.1 0.07,-0.15 0.07,-0.29l0 -2.12 2.08 0c0.13,0 0.19,0 0.28,-0.07 0.06,-0.04 0.12,-0.12 0.12,-0.23 0,-0.11 -0.05,-0.19 -0.11,-0.24 -0.07,-0.06 -0.16,-0.06 -0.28,-0.06l-2.09 0 0 -2.13c0,-0.13 0,-0.2 -0.06,-0.29 -0.13,-0.16 -0.37,-0.15 -0.48,-0.01 -0.06,0.09 -0.07,0.17 -0.07,0.3l0 2.13z"/>
 </g>
</svg>
