<?xml version="1.0" encoding="UTF-8"?>
<!DOCTYPE svg PUBLIC "-//W3C//DTD SVG 1.0//EN" "http://www.w3.org/TR/2001/REC-SVG-20010904/DTD/svg10.dtd">
<!-- Creator: CorelDRAW 2018 (64 Bit Versão de avaliação) -->
<svg xmlns="http://www.w3.org/2000/svg" xml:space="preserve" width="46px" height="41px" version="1.0" shape-rendering="geometricPrecision" text-rendering="geometricPrecision" image-rendering="optimizeQuality" fill-rule="evenodd" clip-rule="evenodd"
viewBox="0 0 0.93 0.84"
 xmlns:xlink="http://www.w3.org/1999/xlink">
 <g id="Camada_x0020_1">
  <metadata id="CorelCorpID_0Corel-Layer"/>
  <g id="_2751267154080">
   <g>
    <path fill="#292929" d="M0 0.35l0 0.31c0,0.04 0.03,0.1 0.07,0.13 0,0 0,0 0,0 0.04,0.03 0.08,0.05 0.13,0.05l0.22 0c0.06,0 0.06,-0.07 0.02,-0.08 -0.01,-0.01 -0.19,0 -0.21,0 -0.05,0 -0.07,0 -0.11,-0.03 -0.02,-0.02 -0.04,-0.05 -0.04,-0.09l0 -0.27c0,-0.07 0.05,-0.1 0.1,-0.14l0.19 -0.13c0.04,-0.03 0.09,-0.03 0.14,0l0.19 0.15c0,0 0.01,0 0.01,0.01 0.02,0.01 0.04,0.02 0.05,0.02 0.04,0 0.05,-0.04 0.03,-0.07l-0.15 -0.11c-0.01,0 -0.02,-0.01 -0.03,-0.01 0,-0.01 -0.01,-0.02 -0.02,-0.02 -0.04,-0.03 -0.1,-0.07 -0.15,-0.07 -0.07,0 -0.1,0.02 -0.15,0.06 -0.03,0.02 -0.06,0.04 -0.09,0.06l-0.11 0.08c-0.03,0.03 -0.05,0.04 -0.07,0.08 -0.01,0.01 -0.02,0.05 -0.02,0.07z"/>
    <path fill="#292929" d="M0.5 0.58c0,-0.02 0,-0.03 0.01,-0.04 0.01,-0.05 0.05,-0.1 0.1,-0.12 0.06,-0.03 0.12,-0.02 0.17,0.02 0.07,0.04 0.1,0.14 0.06,0.21 -0.01,0.02 -0.02,0.04 -0.04,0.05 -0.01,0.02 -0.03,0.03 -0.05,0.04 -0.01,0 -0.01,0.01 -0.03,0.01 -0.12,0.03 -0.22,-0.06 -0.22,-0.17zm0.43 -0.02l0 0.03c0,0.04 -0.01,0.07 -0.02,0.1 -0.03,0.05 -0.07,0.1 -0.13,0.12 -0.09,0.05 -0.2,0.03 -0.28,-0.05 -0.01,-0.01 -0.02,-0.02 -0.03,-0.03 -0.04,-0.06 -0.05,-0.09 -0.05,-0.17 0,-0.03 0.02,-0.07 0.03,-0.09 0.01,-0.02 0.01,-0.03 0.02,-0.04 0.03,-0.03 0.05,-0.05 0.08,-0.07 0.07,-0.04 0.17,-0.05 0.24,-0.01 0.07,0.03 0.11,0.09 0.14,0.16 0,0.02 0,0.03 0,0.05z"/>
    <path fill="#292929" d="M0.64 0.5l0 0.05c-0.02,0 -0.05,-0.01 -0.07,0 -0.03,0.02 -0.04,0.08 0.04,0.08l0.03 0 0 0.05c0,0.02 0.02,0.03 0.04,0.03 0.02,0.01 0.04,-0.01 0.04,-0.03l0 -0.05c0.03,0 0.08,0 0.09,-0.03 0,-0.03 -0.02,-0.05 -0.04,-0.05l-0.05 0c0,-0.03 0.01,-0.09 -0.04,-0.09 -0.02,0 -0.04,0.02 -0.04,0.04z"/>
   </g>
  </g>
 </g>
</svg>
