<?xml version="1.0" encoding="UTF-8"?>
<!DOCTYPE svg PUBLIC "-//W3C//DTD SVG 1.0//EN" "http://www.w3.org/TR/2001/REC-SVG-20010904/DTD/svg10.dtd">
<!-- Creator: CorelDRAW 2018 (64 Bit Versão de avaliação) -->
<svg xmlns="http://www.w3.org/2000/svg" xml:space="preserve" width="41px" height="41px" version="1.0" shape-rendering="geometricPrecision" text-rendering="geometricPrecision" image-rendering="optimizeQuality" fill-rule="evenodd" clip-rule="evenodd"
viewBox="0 0 25.57 25.57"
 xmlns:xlink="http://www.w3.org/1999/xlink">
 <g id="Camada_x0020_1">
  <metadata id="CorelCorpID_0Corel-Layer"/>
  <g id="_2787233091424">
   <g>
    <path fill="black" d="M8.94 3.8c-0.41,0 -0.38,-0.4 -1.18,-0.87 -0.91,-0.54 -2.11,-0.6 -3.03,-0.04 -0.55,0.33 -1.51,1.29 -1.84,1.84 -0.67,1.11 -0.42,2.68 0.44,3.57 0.45,0.47 0.54,0.35 0.42,0.89 -0.25,0.11 -0.35,0.1 -0.7,0.1 -1.75,-0.02 -3.05,1.42 -3.05,2.75l0 1.41c0.04,0.54 0.16,1.05 0.55,1.58 0.48,0.67 1.06,1.01 1.85,1.2 0.32,0.08 0.62,0.03 1,0.05 0.64,0.02 0.31,0.85 1.39,0.85 0.78,0 1.48,-1.03 0.39,-2.14 -1.01,-1.03 -1.86,-0.55 -2.51,-0.78 -0.79,-0.27 -0.67,-1.13 -0.67,-1.83 0,-1.1 0.92,-1.1 1.55,-1.09 0.74,0 1.38,-0.36 1.79,-0.9 0.67,-0.87 0.68,-2.2 -0.01,-2.94 -0.43,-0.46 -0.79,-0.6 -0.79,-1.31 0,-0.57 1.15,-1.65 1.65,-1.65 1.04,0 0.89,1.35 2.9,1.35 0.48,0 0.97,-0.25 1.27,-0.47 1.21,-0.92 0.79,-1.98 0.97,-2.63 0.25,-0.87 1.12,-0.74 1.85,-0.74 1.11,0 1.11,0.92 1.1,1.55 0,0.36 0.03,0.49 0.14,0.76 0.67,1.74 2.8,1.9 3.72,1 0.83,-0.81 1.19,-1.24 2.22,-0.2 0.42,0.41 0.66,0.55 0.66,1.18 0,0.7 -0.79,0.9 -1.12,1.72 -0.64,1.58 0.54,3.28 2.07,3.28 1.59,0 1.6,0.39 1.6,1.89 0,1.44 -1.56,1 -2.13,1.17 -0.79,0.24 -1.61,0.99 -1.61,1.83 0,0.84 1.16,1.34 1.78,0.59 0.22,-0.27 0.14,-0.48 0.56,-0.49 0.35,-0.02 0.68,0.03 0.96,-0.04 0.81,-0.19 1.4,-0.53 1.89,-1.21 0.39,-0.54 0.51,-1.04 0.55,-1.58l0 -1.41c0,-1.32 -1.32,-2.77 -3,-2.75 -0.37,0 -0.49,0.02 -0.75,-0.1 -0.18,-0.79 0.26,-0.43 0.82,-1.43 0.53,-0.96 0.6,-2.02 0.05,-2.99 -0.34,-0.6 -1.25,-1.49 -1.82,-1.86 -1.08,-0.71 -2.68,-0.47 -3.6,0.42 -0.28,0.27 -0.33,0.47 -0.64,0.47 -0.88,0 0.47,-1.89 -1.78,-3.37 -0.44,-0.3 -0.92,-0.4 -1.43,-0.43l-1.38 0c-0.84,0 -1.74,0.6 -2.2,1.25 -1.02,1.4 -0.14,2.55 -0.9,2.55z"/>
    <path fill="black" d="M9.84 12.78c0,-0.84 0.45,-1.67 0.88,-2.11 1.91,-1.91 5.11,-0.46 5.11,2.11 0,0.85 -0.45,1.68 -0.88,2.12 -1.17,1.16 -3.06,1.16 -4.23,0 -0.43,-0.44 -0.88,-1.27 -0.88,-2.12zm-2 -0.3c0,1.08 0.04,1.58 0.53,2.57 0.15,0.29 0.3,0.51 0.48,0.77 0.11,0.14 0.18,0.23 0.3,0.35 0.12,0.12 0.24,0.18 0.29,0.36 -0.65,0.15 -1.72,0.91 -2.26,1.34l-0.73 0.71c-0.47,0.59 -0.76,0.78 -1.24,1.66 -0.31,0.57 -0.46,0.84 -0.68,1.51 -0.38,1.13 -0.52,2.16 0.43,3.11 0.31,0.32 0.92,0.71 1.53,0.71l12.69 0c1.09,0 2.24,-1.16 2.24,-2.25 0,-0.4 0.03,-0.86 -0.23,-1.16 -0.68,-0.78 -1.81,-0.31 -1.81,0.61 0,0.08 0.19,0.8 -0.45,0.8l-12.19 0c-1.02,0 -0.07,-1.75 0.1,-2.1 0.38,-0.76 1.12,-1.68 1.81,-2.19 0.16,-0.12 0.28,-0.21 0.46,-0.33 0.18,-0.12 0.31,-0.19 0.5,-0.3 0.83,-0.5 2.23,-0.82 3.22,-0.82 1.68,0 3.31,0.64 4.54,1.76 0.98,0.89 2.53,-0.46 1.3,-1.55 -0.15,-0.13 -0.18,-0.18 -0.35,-0.3 -0.44,-0.33 -1.61,-1.17 -2.09,-1.21 0.05,-0.17 0.15,-0.22 0.26,-0.34 1.77,-1.71 1.84,-4.98 -0.1,-6.91 -0.79,-0.79 -2.02,-1.49 -3.26,-1.49 -0.95,0 -1.58,0.04 -2.46,0.48 -1.57,0.79 -2.83,2.47 -2.83,4.21z"/>
   </g>
  </g>
 </g>
</svg>
