<?xml version="1.0" encoding="UTF-8"?>
<!DOCTYPE svg PUBLIC "-//W3C//DTD SVG 1.0//EN" "http://www.w3.org/TR/2001/REC-SVG-20010904/DTD/svg10.dtd">
<!-- Creator: CorelDRAW 2018 (64 Bit Versão de avaliação) -->
<svg xmlns="http://www.w3.org/2000/svg" xml:space="preserve" width="44px" height="41px" version="1.0" shape-rendering="geometricPrecision" text-rendering="geometricPrecision" image-rendering="optimizeQuality" fill-rule="evenodd" clip-rule="evenodd"
viewBox="0 0 6.53 6.16"
 xmlns:xlink="http://www.w3.org/1999/xlink">
 <g id="Camada_x0020_1">
  <metadata id="CorelCorpID_0Corel-Layer"/>
  <path fill="black" d="M5.22 2.96c0.04,0.07 0.14,0.48 0.18,0.59 0.07,0.24 0.15,0.38 0.05,0.62 -0.13,0.33 -0.35,0.7 -0.6,0.93 -0.54,0.48 -1.37,0.83 -2.34,0.5 -0.32,-0.11 -0.72,-0.36 -0.94,-0.61 -0.19,-0.21 -0.5,-0.7 -0.54,-0.99 -0.02,-0.13 0.18,-0.72 0.23,-0.92 0.05,-0.15 0.03,-0.17 0.18,-0.21 0.3,-0.09 0.77,-0.42 0.84,-0.69 0.1,0.04 0.19,0.14 0.28,0.2 0.72,0.45 1.82,0.57 2.66,0.58zm-3.04 0.47c0.17,-0.04 0.19,0.21 0.04,0.23 -0.15,0.01 -0.21,-0.18 -0.04,-0.23zm-0.04 -0.29c-0.19,0.04 -0.39,0.21 -0.35,0.44 0.02,0.13 0.07,0.2 0.14,0.27 0.24,0.23 0.73,0.05 0.68,-0.37 -0.03,-0.21 -0.22,-0.39 -0.47,-0.34zm2.28 0.5c-0.19,0.05 -0.26,-0.05 -0.15,-0.2 0.09,-0.01 0.09,-0.01 0.16,0.01 0.02,0.1 0.03,0.11 -0.01,0.19zm-0.17 -0.5c-0.54,0.1 -0.37,0.92 0.15,0.81 0.55,-0.12 0.37,-0.91 -0.15,-0.81zm-2.32 1.39c0.02,0.04 0.23,0.07 0.27,0.1 0.11,0.08 0.22,0.12 0.4,0.1 0.15,-0.02 0.39,-0.14 0.53,-0.21 0.06,-0.03 0.1,-0.07 0.16,-0.09 0.16,0.06 0.42,0.33 0.69,0.34 0.24,0 0.59,-0.13 0.64,-0.24 -0.18,-0.14 -0.45,-0.1 -0.64,-0.24 -0.1,-0.07 -0.18,-0.15 -0.29,-0.2 -0.23,-0.13 -0.25,-0.01 -0.41,-0.01 -0.16,0 -0.16,-0.11 -0.39,0 -0.11,0.05 -0.2,0.14 -0.29,0.21 -0.19,0.14 -0.47,0.1 -0.67,0.24zm-1.33 -0.72c-0.09,-0.02 -0.16,-0.1 -0.17,-0.2 -0.02,-0.14 0.02,-0.2 0.06,-0.29 0.12,0.02 0.21,0.14 0.23,0.21 0.04,0.11 -0.07,0.24 -0.12,0.28zm5.19 -0.33c0.09,-0.05 0.13,-0.13 0.23,-0.18 0.1,0.19 0.14,0.4 -0.06,0.5 -0.08,-0.06 -0.14,-0.2 -0.17,-0.32zm-4.93 -0.75c-0.02,-0.32 -0.08,-0.81 0.03,-1.1 0.1,-0.26 0.33,-0.48 0.6,-0.58 0.18,-0.06 0.33,-0.05 0.5,-0.1 0.17,-0.05 0.49,-0.5 1.24,-0.52 0.88,-0.02 2.06,0.4 2.39,1.17 0.14,0.33 0.06,0.72 0.06,1.09 -0.19,-0.04 -0.07,-0.14 -0.3,-0.15 -0.15,-0.01 -0.3,-0.01 -0.45,-0.02 -0.72,-0.05 -1.6,-0.13 -2.19,-0.54 -0.43,-0.3 -0.26,-0.39 -0.44,-0.47 -0.12,-0.06 -0.25,0.01 -0.28,0.11 -0.05,0.13 -0.04,0.23 -0.1,0.36 -0.08,0.19 -0.27,0.33 -0.49,0.42 -0.11,0.06 -0.21,0.09 -0.32,0.14 -0.16,0.06 -0.15,0.12 -0.25,0.19zm-0.42 0.13c-0.57,0.21 -0.59,1.1 -0.02,1.36 0.07,0.03 0.18,0.04 0.25,0.07 0.13,0.31 0.19,0.48 0.37,0.73l0.19 0.23c0.03,0.03 0.04,0.03 0.07,0.06 0.05,0.05 0.03,0.05 0.14,0.14 0.05,0.04 0.1,0.09 0.15,0.13 0.44,0.34 0.96,0.55 1.67,0.58 0.65,0.02 1.29,-0.28 1.67,-0.57 0.21,-0.16 0.39,-0.34 0.55,-0.56 0.1,-0.14 0.35,-0.54 0.37,-0.75 0.34,0 0.61,-0.3 0.67,-0.6 0.07,-0.38 -0.17,-0.74 -0.44,-0.81 0.01,-0.86 0.27,-1.37 -0.63,-2.15 -0.44,-0.39 -1.38,-0.73 -2.19,-0.72 -0.48,0.01 -0.99,0.21 -1.33,0.47 -0.22,0.17 -0.29,0.01 -0.8,0.28 -0.29,0.15 -0.54,0.43 -0.66,0.78 -0.14,0.41 -0.05,0.89 -0.03,1.33z"/>
 </g>
</svg>
