<?xml version="1.0" encoding="UTF-8"?>
<!DOCTYPE svg PUBLIC "-//W3C//DTD SVG 1.0//EN" "http://www.w3.org/TR/2001/REC-SVG-20010904/DTD/svg10.dtd">
<!-- Creator: CorelDRAW 2018 (64 Bit Versão de avaliação) -->
<svg xmlns="http://www.w3.org/2000/svg" xml:space="preserve" width="41px" height="41px" version="1.0" shape-rendering="geometricPrecision" text-rendering="geometricPrecision" image-rendering="optimizeQuality" fill-rule="evenodd" clip-rule="evenodd"
viewBox="0 0 1.9 1.9"
 xmlns:xlink="http://www.w3.org/1999/xlink">
 <g id="Camada_x0020_1">
  <metadata id="CorelCorpID_0Corel-Layer"/>
  <path fill="#292929" d="M0.14 1.41c0,-0.1 0.02,-0.16 0.09,-0.22 0.11,-0.09 0.29,-0.04 0.34,0.09 0.02,0.04 0.01,0.09 0.01,0.14 0,0.08 -0.12,0 -0.12,0.15l0 0.19 -0.2 0 0 -0.24c0,-0.03 -0.03,-0.05 -0.06,-0.05 -0.04,-0.01 -0.06,-0.01 -0.06,-0.06zm1.37 -1.41l0.05 0c0.05,0.01 0.1,0.03 0.14,0.07 0.06,0.06 0.07,0.13 0.05,0.22 -0.01,0.02 -0.02,0.03 -0.03,0.05 0.09,0.05 0.18,0.18 0.18,0.29l0 0.46c0,0.06 -0.07,0.15 -0.11,0.16l0 0.54c0,0.04 0,0.11 -0.07,0.11l-0.36 0c-0.03,0 -0.04,-0.01 -0.06,-0.02 -0.01,-0.02 -0.01,-0.04 -0.01,-0.06l0 -0.47c0,0.01 -0.01,0.01 -0.01,0.01 -0.03,0.03 -0.04,0.04 -0.08,0.06 0,0.05 0.01,0.38 0,0.41 0,0.03 -0.02,0.07 -0.06,0.07l-0.38 0c-0.03,0 -0.05,-0.03 -0.05,-0.05 -0.01,-0.03 -0.01,-0.28 -0.01,-0.32 -0.03,0.03 -0.01,0.03 -0.08,0.07 0,0.06 0,0.12 0,0.18 0,0.04 0,0.06 -0.01,0.08 -0.01,0.03 -0.03,0.04 -0.05,0.04l-0.38 0c-0.03,0 -0.05,-0.02 -0.06,-0.03 -0.01,-0.04 0,-0.23 0,-0.27 -0.04,-0.02 -0.06,-0.03 -0.08,-0.06 -0.03,-0.03 -0.04,-0.07 -0.04,-0.11l0 -0.1c0,-0.12 0.09,-0.22 0.18,-0.28 -0.01,-0.03 -0.07,-0.1 -0.01,-0.23 0.01,-0.02 0.04,-0.05 0.06,-0.07 0.07,-0.05 0.16,-0.07 0.25,-0.02 0.04,0.03 0.07,0.06 0.09,0.11 0.02,0.03 0.02,0.07 0.01,0.11 0,0.04 -0.01,0.07 -0.03,0.1l0.03 0.02c0,-0.1 0.01,-0.15 0.05,-0.24 0.02,-0.04 0.1,-0.12 0.14,-0.13 -0.01,-0.02 -0.02,-0.03 -0.03,-0.05 -0.03,-0.08 0,-0.18 0.05,-0.23 0.17,-0.16 0.38,-0.02 0.38,0.14 0,0.1 -0.03,0.11 -0.03,0.14 0.02,0 0.02,0.01 0.03,0.01 0,-0.08 0,-0.16 0.05,-0.23 0.02,-0.04 0.09,-0.13 0.14,-0.14 -0.02,-0.03 -0.04,-0.07 -0.04,-0.12 0,-0.07 0.05,-0.16 0.11,-0.2 0.03,-0.01 0.06,-0.02 0.08,-0.02zm-0.78 1.24l0 -0.22c0,-0.11 0.07,-0.2 0.17,-0.22 0.15,-0.03 0.27,0.07 0.27,0.22l0 0.22c0,0.07 -0.05,0.03 -0.09,0.07 -0.01,0.01 -0.02,0.02 -0.02,0.04l0 0.41 -0.21 0 0 -0.41c0,-0.03 -0.03,-0.05 -0.06,-0.06 -0.01,0 -0.06,0 -0.06,-0.05zm0.91 -0.07l0 0.59 -0.2 0 0 -0.54c0,-0.16 -0.12,-0.06 -0.12,-0.16l0 -0.4c0,-0.2 0.24,-0.3 0.39,-0.15 0.01,0.02 0.03,0.06 0.04,0.08 0.01,0.03 0.01,0.07 0.01,0.11l0 0.36c0,0.04 -0.03,0.05 -0.06,0.06 -0.03,0 -0.06,0.02 -0.06,0.05zm-1.34 -0.24c0,-0.02 0,-0.04 0.01,-0.06 0.03,-0.03 0.13,-0.03 0.13,0.06 0,0.09 -0.14,0.08 -0.14,0zm0.58 -0.36c0,-0.1 0.14,-0.09 0.14,0 0,0.04 -0.03,0.07 -0.06,0.07 -0.02,0 -0.04,0 -0.06,-0.02 -0.01,-0.01 -0.02,-0.03 -0.02,-0.05zm0.59 -0.34c0,-0.03 0,-0.06 0.03,-0.08 0.03,-0.01 0.07,0 0.09,0.01 0.03,0.04 0.03,0.13 -0.04,0.13 -0.04,0 -0.08,-0.01 -0.08,-0.06z"/>
 </g>
</svg>
