<?xml version="1.0" encoding="UTF-8"?>
<!DOCTYPE svg PUBLIC "-//W3C//DTD SVG 1.0//EN" "http://www.w3.org/TR/2001/REC-SVG-20010904/DTD/svg10.dtd">
<!-- Creator: CorelDRAW 2018 (64 Bit Versão de avaliação) -->
<svg xmlns="http://www.w3.org/2000/svg" xml:space="preserve" width="41px" height="41px" version="1.0" shape-rendering="geometricPrecision" text-rendering="geometricPrecision" image-rendering="optimizeQuality" fill-rule="evenodd" clip-rule="evenodd"
viewBox="0 0 1.92 1.9"
 xmlns:xlink="http://www.w3.org/1999/xlink">
 <g id="Camada_x0020_1">
  <metadata id="CorelCorpID_0Corel-Layer"/>
  <path fill="#292929" d="M1.05 1.79l0 0zm-0.21 -0.03c-0.03,0 -0.06,-0.03 -0.06,-0.06 0,-0.05 0.01,-0.05 0.03,-0.07 0.01,-0.02 0,0 0.01,-0.02 0.04,-0.03 0.07,-0.07 0.12,-0.07 0.03,0 0.06,0.03 0.06,0.05 0,0.05 -0.05,0.09 -0.08,0.12 -0.03,0.03 -0.04,0.05 -0.08,0.05zm-0.23 -0.18c-0.02,0 -0.06,-0.03 -0.06,-0.06 0,-0.05 0.01,-0.04 0.04,-0.07 0.01,-0.02 0.03,-0.03 0.04,-0.05 0.04,-0.03 0.07,-0.07 0.12,-0.07 0.03,0 0.05,0.03 0.05,0.05 0,0.05 -0.04,0.09 -0.07,0.12 -0.03,0.03 -0.08,0.08 -0.12,0.08zm-0.2 -0.2c-0.02,0 -0.06,-0.03 -0.06,-0.06 0,-0.05 0.01,-0.04 0.04,-0.07 0.01,-0.02 0.03,-0.03 0.04,-0.05 0.04,-0.04 0.07,-0.07 0.12,-0.07 0.03,0 0.05,0.03 0.05,0.05 0,0.05 -0.04,0.09 -0.07,0.12 -0.03,0.03 -0.08,0.08 -0.12,0.08zm-0.2 -0.2c-0.03,0 -0.06,-0.03 -0.06,-0.06 0,-0.05 0.01,-0.05 0.03,-0.07 0.02,-0.02 0.03,-0.04 0.05,-0.05 0.04,-0.04 0.06,-0.08 0.12,-0.08 0.02,0 0.05,0.03 0.05,0.06 0,0.05 -0.04,0.09 -0.08,0.12 -0.03,0.03 -0.07,0.08 -0.11,0.08zm1.15 -1.18l0.01 0c0.04,0 0.08,0.05 0.11,0.09 0.06,0.05 0.11,0.1 0.17,0.16l0.21 0.21c0.02,0.03 0.06,0.05 0.06,0.09l0 0.01c0,0.02 -0.01,0.04 -0.03,0.05 -0.01,0.02 -0.04,0.02 -0.06,0.02 -0.02,-0.01 -0.04,-0.02 -0.05,-0.04l-0.25 -0.25c-0.03,-0.02 -0.06,-0.05 -0.08,-0.08 -0.02,-0.02 -0.03,-0.03 -0.05,-0.04 -0.08,-0.02 -0.22,-0.01 -0.3,0.01 -0.03,0.01 -0.08,0.03 -0.11,0.05 -0.02,0.01 -0.04,0.02 -0.05,0.03 -0.04,0.02 -0.07,0.05 -0.1,0.07 -0.02,0.03 -0.05,0.07 -0.08,0.09 -0.02,0.01 -0.03,0.02 -0.04,0.04 -0.02,0.02 -0.07,0.07 -0.08,0.08 -0.01,0.02 -0.02,0.05 -0.01,0.07 0.01,0.01 0.01,0.02 0.02,0.03 0.06,0.04 0.13,0 0.17,-0.04l0.12 -0.13c0.01,0 0.01,0 0.01,-0.01 0.05,-0.05 0.11,-0.08 0.18,-0.09 0.04,-0.01 0.12,0 0.15,0.01 0.06,0.02 0.1,0.04 0.13,0.08l0.31 0.31c0.01,-0.03 0.01,-0.04 0.01,-0.07 0.01,-0.03 0.01,-0.05 0.02,-0.07 0.02,-0.04 0.07,-0.06 0.11,-0.03 0.04,0.03 0.03,0.08 0.02,0.14 -0.03,0.17 -0.06,0.12 -0.01,0.18 0.07,0.1 0.06,0.23 -0.03,0.3 -0.04,0.04 -0.07,0.04 -0.12,0.05 0,0.04 -0.01,0.07 -0.02,0.09 0,0.02 -0.01,0.03 -0.02,0.04 -0.04,0.06 -0.11,0.08 -0.18,0.09 -0.01,0.11 -0.11,0.23 -0.22,0.2 0,0.03 -0.03,0.07 -0.04,0.08 -0.02,0.03 -0.04,0.04 -0.07,0.06 -0.03,0.02 -0.06,0.02 -0.09,0 -0.01,-0.01 -0.02,-0.02 -0.03,-0.04 0,-0.01 0,-0.01 0,-0.03 0,-0.01 0,-0.01 0,-0.02 -0.01,0.01 -0.03,0.03 -0.04,0.04 -0.04,0.04 -0.09,0.07 -0.15,0.07l-0.04 0c-0.01,0 -0.01,0 -0.01,0 -0.09,-0.01 -0.17,-0.09 -0.18,-0.17 -0.05,0.01 -0.1,-0.02 -0.14,-0.05 -0.01,0 -0.01,0 -0.02,-0.01 0,-0.01 0,0 -0.01,-0.01 -0.03,-0.04 -0.06,-0.07 -0.06,-0.13 -0.01,-0.01 -0.03,-0.01 -0.04,-0.01 -0.02,-0.01 -0.05,-0.02 -0.07,-0.04l-0.05 -0.05c-0.01,-0.01 -0.01,-0.02 -0.02,-0.03 -0.01,-0.01 -0.02,-0.05 -0.02,-0.08 -0.02,0 -0.06,-0.01 -0.07,-0.01 -0.08,-0.04 -0.12,-0.11 -0.13,-0.19l0 -0.02c0,-0.03 0.01,-0.05 0.02,-0.07 0.01,-0.03 0.02,-0.04 0.03,-0.06 0.03,-0.03 0.03,-0.02 0.02,-0.05 -0.01,-0.02 -0.01,-0.05 -0.02,-0.07 0,-0.02 -0.01,-0.05 -0.01,-0.07 -0.01,-0.06 -0.02,-0.11 0.02,-0.13 0.04,-0.03 0.09,-0.01 0.11,0.03 0,0 0.03,0.13 0.03,0.14 0.01,0 0.02,-0.01 0.02,-0.01 0.07,-0.04 0.14,-0.05 0.21,-0.02 0.07,0.04 0.11,0.1 0.12,0.18 0.05,0 0.12,0.04 0.14,0.07 0.03,0.04 0.06,0.07 0.06,0.14 0.09,0 0.16,0.06 0.19,0.13 0.02,0.05 0.01,0.06 0.02,0.09 0.09,0 0.18,0.1 0.18,0.22l0 0c0,-0.01 0.01,-0.02 0.02,-0.03 0.02,-0.03 0.06,-0.03 0.1,-0.01 0.02,0.01 0.05,0.02 0.07,0 0.08,-0.06 -0.06,-0.18 -0.1,-0.23 -0.03,-0.02 -0.08,-0.06 -0.09,-0.1 -0.01,-0.07 0.04,-0.1 0.09,-0.08 0.03,0 0.04,0.02 0.06,0.04l0.12 0.12c0,0 0.01,0.01 0.02,0.02 0.01,0.01 0.02,0.01 0.02,0.02 0.08,0.06 0.17,-0.03 0.1,-0.1 -0.01,-0.01 -0.01,-0.02 -0.02,-0.03 -0.01,0 -0.01,-0.01 -0.01,-0.01 -0.04,-0.05 -0.09,-0.09 -0.13,-0.13 -0.02,-0.02 -0.03,-0.03 -0.04,-0.06 -0.02,-0.07 0.07,-0.12 0.12,-0.06l0.03 0.02c0.03,0.03 0.06,0.06 0.09,0.09 0.03,0.03 0.06,0.08 0.11,0.08 0.03,0.01 0.05,-0.01 0.06,-0.02 0.02,-0.03 0,-0.07 -0.01,-0.09 -0.06,-0.06 -0.12,-0.12 -0.18,-0.18l-0.24 -0.24c-0.05,-0.05 -0.08,-0.09 -0.19,-0.07 -0.06,0.02 -0.08,0.05 -0.11,0.08 -0.05,0.05 -0.14,0.15 -0.21,0.18 -0.21,0.1 -0.43,-0.1 -0.3,-0.32 0.03,-0.05 0.16,-0.17 0.2,-0.21l0.03 -0.03c0.02,-0.02 0.04,-0.03 0.05,-0.04 -0.01,0 -0.03,-0.01 -0.03,-0.01 -0.07,-0.02 -0.12,-0.01 -0.19,-0.01 -0.06,0 -0.07,0.01 -0.11,0.05l-0.28 0.28c-0.04,0.04 -0.08,0.11 -0.14,0.08 -0.05,-0.01 -0.06,-0.06 -0.04,-0.1 0.01,-0.02 0.02,-0.03 0.04,-0.04 0.02,-0.02 0.05,-0.06 0.08,-0.08 0.05,-0.06 0.1,-0.11 0.15,-0.16 0.03,-0.03 0.19,-0.18 0.2,-0.2l0.03 -0.02c0.02,-0.02 0.06,-0.02 0.09,-0.01 0.01,0.01 0.02,0.03 0.03,0.05 0.03,0 0.06,0 0.09,0 0.06,0.01 0.11,0.02 0.17,0.04 0.1,0.03 0.03,0.03 0.14,0 0.04,-0.02 0.08,-0.03 0.12,-0.03 0.05,-0.01 0.09,-0.01 0.14,-0.01 0.01,-0.02 0.02,-0.04 0.04,-0.05 0.01,-0.01 0.02,-0.01 0.03,-0.01zm-0.22 1.62c0,0.05 0.01,0.1 -0.03,0.12 -0.01,0.01 -0.03,0.02 -0.03,0.02l0.02 -0.03c0.02,-0.03 0.03,-0.05 0.04,-0.09 0,0 0,-0.01 0,-0.02z"/>
 </g>
</svg>
