<?xml version="1.0" encoding="UTF-8"?>
<!DOCTYPE svg PUBLIC "-//W3C//DTD SVG 1.0//EN" "http://www.w3.org/TR/2001/REC-SVG-20010904/DTD/svg10.dtd">
<!-- Creator: CorelDRAW 2018 (64 Bit Versão de avaliação) -->
<svg xmlns="http://www.w3.org/2000/svg" xml:space="preserve" width="41px" height="41px" version="1.0" shape-rendering="geometricPrecision" text-rendering="geometricPrecision" image-rendering="optimizeQuality" fill-rule="evenodd" clip-rule="evenodd"
viewBox="0 0 1.15 1.15"
 xmlns:xlink="http://www.w3.org/1999/xlink">
 <g id="Camada_x0020_1">
  <metadata id="CorelCorpID_0Corel-Layer"/>
  <g id="_2038527148976">
   <g>
    <path fill="black" d="M0.53 0.2c0,0.05 0.09,0.05 0.09,0 0.04,0 0.08,0.01 0.11,0.03l0.04 0.02c0.05,0.03 0.09,0.07 0.12,0.11 0,0.01 0.01,0.01 0.01,0.01 0.03,0.04 0.05,0.11 0.05,0.16 -0.06,0 -0.06,0.09 0,0.09 0,0.02 -0.01,0.05 -0.01,0.07 0,0.01 -0.01,0.02 -0.01,0.03l-0.03 0.05c-0.05,0.08 -0.1,0.12 -0.18,0.16l-0.03 0.01c-0.02,0 -0.05,0.01 -0.07,0.01 0,-0.06 -0.09,-0.06 -0.09,0 -0.03,0 -0.1,-0.02 -0.13,-0.04 -0.09,-0.05 -0.11,-0.07 -0.17,-0.16l-0.01 -0.03c-0.01,-0.03 -0.02,-0.07 -0.02,-0.1 0.05,0 0.05,-0.09 0,-0.09 0,-0.02 0,-0.05 0.01,-0.07 0,-0.01 0.01,-0.02 0.01,-0.03 0,-0.01 0,-0.01 0.01,-0.01 0,-0.01 0,-0.01 0,-0.02 0.04,-0.07 0.08,-0.11 0.14,-0.15l0.04 -0.02c0.04,-0.02 0.07,-0.03 0.12,-0.03zm0 -0.14l0 0.04c-0.04,0 -0.1,0.02 -0.13,0.03 -0.01,0 -0.01,0 -0.02,0.01 -0.01,0 -0.01,0 -0.01,0 -0.01,0 -0.01,0 -0.01,0.01 -0.03,0.01 -0.04,0.02 -0.07,0.04 -0.05,0.04 -0.09,0.08 -0.12,0.14 -0.02,0.01 -0.03,0.04 -0.04,0.07 0,0.01 -0.01,0.02 -0.01,0.03 -0.01,0.03 -0.02,0.07 -0.02,0.1 -0.05,0 -0.1,-0.01 -0.1,0.05 0,0.01 0.01,0.03 0.02,0.03 0.02,0.02 0.05,0.01 0.08,0.01 0,0.06 0.02,0.13 0.05,0.17 0.02,0.05 0.05,0.08 0.09,0.12 0.04,0.04 0.07,0.07 0.12,0.09 0.04,0.02 0.11,0.05 0.17,0.05 0,0.05 -0.01,0.1 0.05,0.1 0.05,0 0.04,-0.07 0.04,-0.1 0.07,0 0.18,-0.05 0.24,-0.09 0,0 0.01,0 0.01,-0.01 0.01,0 0.01,-0.01 0.02,-0.01l0.05 -0.05c0.04,-0.06 0.07,-0.1 0.09,-0.18 0.01,-0.02 0.02,-0.06 0.02,-0.09 0.05,0 0.1,0.01 0.1,-0.05 0,-0.05 -0.07,-0.04 -0.1,-0.04 0,-0.03 -0.01,-0.07 -0.02,-0.09 -0.02,-0.08 -0.06,-0.15 -0.12,-0.2 -0.04,-0.05 -0.07,-0.06 -0.12,-0.09 -0.03,-0.02 -0.11,-0.05 -0.17,-0.05 0,-0.05 0.01,-0.1 -0.05,-0.1 -0.03,0 -0.04,0.03 -0.04,0.06z"/>
    <path fill="black" d="M0.33 0.57c0,0.14 0.11,0.24 0.25,0.24 0.18,0 0.31,-0.2 0.19,-0.37 0,-0.01 0,-0.01 -0.01,-0.02 -0.02,-0.02 -0.02,-0.02 -0.05,-0.04 -0.01,-0.01 -0.02,-0.02 -0.04,-0.02 -0.14,-0.08 -0.34,0.03 -0.34,0.21z"/>
   </g>
  </g>
 </g>
</svg>
