<?xml version="1.0" encoding="UTF-8"?>
<!DOCTYPE svg PUBLIC "-//W3C//DTD SVG 1.0//EN" "http://www.w3.org/TR/2001/REC-SVG-20010904/DTD/svg10.dtd">
<!-- Creator: CorelDRAW 2018 (64 Bit Versão de avaliação) -->
<svg xmlns="http://www.w3.org/2000/svg" xml:space="preserve" width="41px" height="41px" version="1.0" shape-rendering="geometricPrecision" text-rendering="geometricPrecision" image-rendering="optimizeQuality" fill-rule="evenodd" clip-rule="evenodd"
viewBox="0 0 1.9 1.9"
 xmlns:xlink="http://www.w3.org/1999/xlink">
 <g id="Camada_x0020_1">
  <metadata id="CorelCorpID_0Corel-Layer"/>
  <g id="_1299551446992">
   <g>
    <path fill="#292929" d="M1.02 1.63l0.08 0 0 0.13 -0.08 0 0 -0.13zm-0.22 0l0.08 0 0 0.13 -0.08 0 0 -0.13zm-0.48 -0.19c0.03,-0.02 0.1,-0.05 0.13,-0.06 0.05,-0.02 0.1,-0.03 0.15,-0.04 0.27,-0.07 0.58,-0.06 0.85,0.05l0.1 0.04c0.01,0 0.02,0.01 0.03,0.01l-0.07 0.31c0,0.01 0,0.01 -0.01,0.01l-0.26 0 0 -0.17c0,-0.05 -0.01,-0.1 -0.07,-0.1l-0.45 0c-0.03,0 -0.06,0.04 -0.06,0.08l0 0.19 -0.26 0c0,-0.02 -0.06,-0.24 -0.07,-0.28 0,-0.01 -0.01,-0.04 -0.01,-0.04zm1.01 -0.67l0.27 0 0 0.53c-0.06,-0.03 -0.23,-0.09 -0.27,-0.1l0 -0.43zm-0.11 -0.26l0.49 0 -0.04 0.06c-0.01,0.01 -0.03,0.04 -0.04,0.06l-0.34 0 -0.07 -0.12zm-0.06 -0.22l0.61 0 0 0.08 -0.61 0 0 -0.08zm0.42 -0.23l0 0.09 -0.49 0c-0.05,0 -0.07,0.04 -0.07,0.08l0 0.2c0,0.05 0.07,0.15 0.11,0.2l0.04 0.07c0.03,0.04 0.01,0.03 0.02,0.08 0,0.08 0,0.13 0,0.2l0 0.19c-0.02,0 -0.04,0 -0.06,0l-0.08 -0.01c-0.15,-0.01 -0.29,-0.01 -0.43,0.03 -0.09,0.02 -0.15,0.03 -0.24,0.07 -0.05,0.02 -0.11,0.05 -0.16,0.07 -0.02,0.01 -0.03,0.02 -0.05,0.03 -0.03,0.02 -0.07,0.04 -0.1,0.06 -0.05,0.03 -0.07,0.04 -0.07,0.1 0,0.03 0.04,0.06 0.07,0.06 0.03,0 0.08,-0.05 0.13,-0.07 0,0.01 0.06,0.3 0.07,0.33 0.01,0.03 0.03,0.06 0.07,0.06l1.23 0c0.06,0 0.07,-0.07 0.08,-0.11l0.04 -0.16c0.01,-0.04 0.01,-0.07 0.02,-0.11 0.02,0.01 0.04,0.02 0.06,0.04 0.02,0.01 0.03,0.03 0.07,0.03 0.06,0 0.08,-0.09 0.04,-0.13 -0.01,-0.01 -0.13,-0.09 -0.14,-0.09l0 -0.6c0,-0.03 0,-0.04 0.01,-0.06l0.05 -0.09c0.02,-0.03 0.1,-0.15 0.1,-0.17l0 -0.24c0,-0.01 -0.01,-0.03 -0.02,-0.04 -0.01,-0.01 -0.02,-0.02 -0.04,-0.02l-0.12 0c0,-0.01 0,0 0,-0.01 0,-0.06 0.02,-0.14 -0.08,-0.14 -0.03,0 -0.06,0.03 -0.06,0.06z"/>
    <path fill="#292929" d="M0.49 0.89l-0.17 -0.06c-0.02,-0.01 -0.03,-0.01 -0.04,-0.02 -0.09,-0.03 -0.14,0.1 -0.05,0.14 0.02,0 0.07,0.02 0.08,0.02 0,0.01 -0.13,0.08 -0.13,0.08 -0.03,0 -0.08,-0.03 -0.11,-0.03 -0.04,0 -0.07,0.03 -0.07,0.08 0,0.04 0.04,0.06 0.07,0.07 0.02,0 0.1,0.03 0.11,0.03 0.03,0 0.07,-0.03 0.09,-0.04 0.03,-0.01 0.05,-0.03 0.08,-0.04 0.03,-0.02 0.06,-0.03 0.09,-0.05l0.25 -0.13c0.03,-0.02 0.09,-0.04 0.12,-0.07 0.05,-0.04 0.02,-0.12 -0.04,-0.12 -0.04,0 -0.28,0.14 -0.28,0.14z"/>
   </g>
  </g>
 </g>
</svg>
