<?xml version="1.0" encoding="UTF-8"?>
<!DOCTYPE svg PUBLIC "-//W3C//DTD SVG 1.0//EN" "http://www.w3.org/TR/2001/REC-SVG-20010904/DTD/svg10.dtd">
<!-- Creator: CorelDRAW 2018 (64 Bit Versão de avaliação) -->
<svg xmlns="http://www.w3.org/2000/svg" xml:space="preserve" width="45px" height="41px" version="1.0" shape-rendering="geometricPrecision" text-rendering="geometricPrecision" image-rendering="optimizeQuality" fill-rule="evenodd" clip-rule="evenodd"
viewBox="0 0 1.1 1"
 xmlns:xlink="http://www.w3.org/1999/xlink">
 <g id="Camada_x0020_1">
  <metadata id="CorelCorpID_0Corel-Layer"/>
  <g id="_2289991993872">
   <g>
    <path fill="#292929" d="M0.57 0.86c-0.07,0 -0.11,0 -0.16,-0.03 -0.06,-0.03 -0.1,-0.06 -0.13,-0.12 -0.11,-0.16 -0.06,-0.38 0.12,-0.47 0.12,-0.06 0.28,-0.04 0.38,0.07 0.08,0.07 0.11,0.18 0.09,0.29 -0.01,0.06 -0.04,0.12 -0.08,0.16 -0.06,0.05 -0.14,0.1 -0.22,0.1zm0.34 0.14l-0.02 0c-0.01,0 -0.02,-0.01 -0.03,-0.02l-0.08 -0.09c-0.06,0.03 -0.14,0.07 -0.23,0.07 -0.13,0 -0.2,-0.06 -0.23,-0.07 -0.04,0.03 -0.08,0.11 -0.12,0.11 -0.04,0 -0.07,-0.04 -0.03,-0.08l0.08 -0.09c-0.03,-0.04 -0.06,-0.05 -0.09,-0.13 -0.02,-0.04 -0.03,-0.1 -0.03,-0.17 0,-0.06 0.02,-0.13 0.04,-0.17 0.12,-0.25 0.42,-0.32 0.62,-0.17 0.06,0.04 0.11,0.09 0.14,0.17 0.06,0.11 0.05,0.23 0,0.34 -0.01,0.03 -0.02,0.05 -0.03,0.07 -0.01,0.01 -0.02,0.02 -0.03,0.03 0,0.01 -0.02,0.02 -0.02,0.03l0.05 0.06c0.01,0.01 0.05,0.04 0.05,0.06 0,0.02 -0.02,0.05 -0.04,0.05z"/>
    <path fill="#292929" d="M0.87 0.1c0.01,0 0.01,-0.01 0.03,-0.01 0.07,0 0.12,0.06 0.1,0.14l-0.13 -0.13zm0.23 0.12l0 -0.04c0,-0.09 -0.09,-0.18 -0.19,-0.18 -0.05,0 -0.09,0.01 -0.13,0.04 -0.02,0.02 -0.04,0.02 -0.03,0.06 0,0.03 0.09,0.1 0.11,0.13 0.09,0.09 0.14,0.17 0.2,0.08 0.02,-0.02 0.04,-0.06 0.04,-0.09z"/>
    <path fill="#292929" d="M0.1 0.23c0,-0.03 -0.02,-0.06 0.02,-0.1 0.05,-0.05 0.08,-0.04 0.11,-0.03 -0.01,0.01 -0.12,0.12 -0.13,0.13zm-0.1 -0.04c0,0.06 0.02,0.11 0.06,0.15 0.04,0.04 0.08,-0.02 0.11,-0.05l0.15 -0.14c0.01,-0.02 0.03,-0.03 0.03,-0.06 0,-0.03 -0.03,-0.05 -0.05,-0.06 -0.08,-0.05 -0.18,-0.03 -0.24,0.03 -0.03,0.02 -0.06,0.08 -0.06,0.13z"/>
    <path fill="#292929" d="M0.48 0.39l0 0.16c0,0.08 0.07,0.06 0.17,0.06 0.08,0 0.08,-0.1 0.01,-0.1l-0.09 0 0 -0.14c0,-0.05 -0.09,-0.06 -0.09,0.02z"/>
   </g>
  </g>
 </g>
</svg>
