<?xml version="1.0" encoding="UTF-8"?>
<!DOCTYPE svg PUBLIC "-//W3C//DTD SVG 1.0//EN" "http://www.w3.org/TR/2001/REC-SVG-20010904/DTD/svg10.dtd">
<!-- Creator: CorelDRAW 2018 (64 Bit Versão de avaliação) -->
<svg xmlns="http://www.w3.org/2000/svg" xml:space="preserve" width="34px" height="41px" version="1.0" shape-rendering="geometricPrecision" text-rendering="geometricPrecision" image-rendering="optimizeQuality" fill-rule="evenodd" clip-rule="evenodd"
viewBox="0 0 0.92 1.11"
 xmlns:xlink="http://www.w3.org/1999/xlink">
 <g id="Camada_x0020_1">
  <metadata id="CorelCorpID_0Corel-Layer"/>
  <path fill="black" d="M0.5 0.11c0.02,0 0.05,0 0.07,0.01 0.02,0.01 0.01,0.03 0.03,0.05 0.01,0.01 0.04,0.01 0.06,0.01 0.05,-0.01 0.04,-0.08 0.02,-0.11 -0.01,-0.01 -0.02,-0.03 -0.03,-0.03 -0.04,-0.03 -0.08,-0.04 -0.14,-0.04 -0.11,0 -0.21,0 -0.32,0 -0.05,0 -0.1,0 -0.13,0.03 -0.07,0.04 -0.06,0.1 -0.06,0.18l0 0.71c0,0.06 0,0.09 0.03,0.13 0.02,0.03 0.06,0.05 0.11,0.05 0.05,0.01 0.1,0 0.15,0 0.06,0 0.11,0 0.16,0 0.05,0 0.11,0.01 0.15,-0.01 0.12,-0.03 0.13,-0.21 0.02,-0.18 -0.03,0.01 -0.02,0.02 -0.03,0.05 -0.02,0.04 -0.05,0.03 -0.09,0.03l-0.31 0c-0.03,0 -0.06,0.01 -0.07,-0.01 -0.01,-0.01 -0.01,-0.01 -0.01,-0.03 0,-0.03 0,-0.09 0,-0.12 0,-0.05 0,-0.1 0,-0.15l0 -0.48c0,-0.02 -0.01,-0.06 0,-0.07 0.02,-0.02 0.04,-0.02 0.07,-0.02 0.1,0 0.21,0 0.32,0zm0.13 0.23c0.02,0 0.04,0.01 0.06,0.01 0,0.01 0.01,0.01 0.02,0.01 0.05,0.04 0.05,0.09 0.06,0.15 0,0.06 0,0.07 0.03,0.12 0,0 0.01,0.01 0.01,0.02l-0.35 0c0.01,-0.02 0.01,-0.03 0.02,-0.05 0.01,-0.03 0.02,-0.04 0.03,-0.09l0 -0.05c0.01,-0.05 0.02,-0.09 0.07,-0.11 0.01,0 0.03,-0.01 0.05,-0.01zm0 -0.09l0.01 0c0.03,0.01 0.05,0.01 0.08,0.02 0.02,0.01 0.04,0.02 0.05,0.03 0.06,0.05 0.08,0.11 0.08,0.19 0,0.08 0.04,0.11 0.06,0.16 0,0.01 0.01,0.02 0.01,0.03l0 0.01c0,0.01 -0.01,0.03 -0.02,0.03 -0.02,0.01 -0.03,0.01 -0.05,0.01l-0.11 0.01c-0.07,0 -0.14,0 -0.22,0 -0.04,0 -0.09,0 -0.13,-0.01 -0.01,0 -0.02,-0.01 -0.03,-0.02 0,0 -0.01,-0.02 -0.01,-0.03 0,-0.02 0.02,-0.05 0.02,-0.06 0.03,-0.04 0.04,-0.06 0.04,-0.1 0.01,-0.01 0.01,-0.02 0.01,-0.03 0,-0.03 0.01,-0.06 0.01,-0.08 0.02,-0.07 0.06,-0.11 0.13,-0.14 0.02,-0.01 0.04,-0.01 0.07,-0.02zm-0.12 0.55c0,0.03 0.02,0.05 0.05,0.05l0.15 0c0.02,0 0.03,-0.01 0.04,-0.01 0.03,-0.04 0,-0.08 -0.02,-0.08l-0.18 0c-0.02,0 -0.04,0.02 -0.04,0.04zm-0.28 0.09c0,0.01 0.01,0.02 0.02,0.03 0,0.01 0.01,0.02 0.02,0.02l0.14 0c0.02,0 0.02,-0.01 0.03,-0.01 0.02,-0.02 0.02,-0.05 0,-0.07 -0.01,-0.01 -0.02,-0.01 -0.04,-0.01l-0.11 0c-0.02,0 -0.03,0 -0.04,0.01 -0.01,0.01 -0.02,0.02 -0.02,0.03z"/>
 </g>
</svg>
