<?xml version="1.0" encoding="UTF-8"?>
<!DOCTYPE svg PUBLIC "-//W3C//DTD SVG 1.0//EN" "http://www.w3.org/TR/2001/REC-SVG-20010904/DTD/svg10.dtd">
<!-- Creator: CorelDRAW 2018 (64 Bit Versão de avaliação) -->
<svg xmlns="http://www.w3.org/2000/svg" xml:space="preserve" width="39px" height="34px" version="1.0" shape-rendering="geometricPrecision" text-rendering="geometricPrecision" image-rendering="optimizeQuality" fill-rule="evenodd" clip-rule="evenodd"
viewBox="0 0 3.12 2.72"
 xmlns:xlink="http://www.w3.org/1999/xlink">
 <g id="Camada_x0020_1">
  <metadata id="CorelCorpID_0Corel-Layer"/>
  <g id="_2039061699376">
   <path fill="black" d="M2.97 0c0.11,0.02 0.19,0.16 0.13,0.27 -0.02,0.04 -0.07,0.08 -0.13,0.09 -0.04,0.01 -0.15,0.01 -0.21,0.01 -0.8,0 -1.6,0 -2.4,0 -0.05,0 -0.16,0 -0.21,-0.01 -0.12,-0.02 -0.18,-0.16 -0.13,-0.26 0.07,-0.13 0.2,-0.1 0.34,-0.1l2.39 0c0.06,0 0.17,0 0.22,0z"/>
   <path fill="black" d="M0 1.78c-0.01,-0.06 0.01,-0.12 0.06,-0.16 0.01,-0.01 0.01,-0.01 0.03,-0.02 0.04,-0.03 0.08,-0.03 0.13,-0.03l2.61 0c0.08,0 0.14,-0.01 0.2,0.02 0.07,0.05 0.11,0.15 0.07,0.23l-0.03 0.05 -0.04 0.04c-0.01,0 -0.02,0.01 -0.04,0.02 -0.03,0.01 -0.06,0 -0.1,0l-2.61 0c-0.1,0 -0.18,0.02 -0.25,-0.07 -0.01,-0.02 -0.02,-0.05 -0.03,-0.08z"/>
   <path fill="black" d="M0.25 1c-0.02,-0.11 0.06,-0.21 0.16,-0.21 0.05,-0.01 0.13,0 0.18,0l2.06 0c0.07,0 0.1,0 0.15,0.03 0.03,0.02 0.07,0.07 0.07,0.12 0.02,0.1 -0.06,0.2 -0.16,0.21 -0.05,0.01 -0.13,0 -0.18,0l-2.06 0c-0.07,0 -0.11,0 -0.15,-0.03 -0.03,-0.03 -0.06,-0.07 -0.07,-0.12z"/>
   <path fill="black" d="M2.48 2.56c-0.01,0.07 -0.06,0.13 -0.12,0.15 -0.04,0.01 -0.21,0.01 -0.27,0.01l-1.24 0c-0.05,0 -0.08,0 -0.12,-0.03 -0.14,-0.08 -0.11,-0.28 0.03,-0.33 0.05,-0.02 0.21,-0.01 0.27,-0.01l1.1 0c0.09,0 0.19,-0.01 0.25,0.03 0.07,0.03 0.1,0.09 0.1,0.18z"/>
  </g>
 </g>
</svg>
