<?xml version="1.0" encoding="UTF-8"?>
<!DOCTYPE svg PUBLIC "-//W3C//DTD SVG 1.0//EN" "http://www.w3.org/TR/2001/REC-SVG-20010904/DTD/svg10.dtd">
<!-- Creator: CorelDRAW 2018 (64 Bit Versão de avaliação) -->
<svg xmlns="http://www.w3.org/2000/svg" xml:space="preserve" width="39px" height="34px" version="1.0" shape-rendering="geometricPrecision" text-rendering="geometricPrecision" image-rendering="optimizeQuality" fill-rule="evenodd" clip-rule="evenodd"
viewBox="0 0 1.74 1.51"
 xmlns:xlink="http://www.w3.org/1999/xlink">
 <g id="Camada_x0020_1">
  <metadata id="CorelCorpID_0Corel-Layer"/>
  <path fill="black" d="M1.65 0c0.07,0.01 0.11,0.09 0.08,0.15 -0.02,0.02 -0.04,0.05 -0.07,0.05 -0.03,0.01 -0.09,0.01 -0.12,0.01 -0.45,0 -0.89,0 -1.34,0 -0.03,0 -0.09,0 -0.12,-0.01 -0.07,-0.01 -0.1,-0.09 -0.07,-0.14 0.04,-0.07 0.11,-0.06 0.19,-0.06l1.33 0c0.03,0 0.1,0 0.12,0zm0 1.31c0.07,0.01 0.11,0.09 0.08,0.15 -0.02,0.02 -0.04,0.04 -0.07,0.05 -0.03,0.01 -0.09,0 -0.12,0 -0.45,0 -0.89,0 -1.34,0 -0.03,0 -0.09,0.01 -0.12,0 -0.07,-0.01 -0.1,-0.09 -0.07,-0.15 0.04,-0.07 0.11,-0.05 0.19,-0.05l1.33 0c0.03,0 0.1,0 0.12,0zm0 -0.43c0.07,0.01 0.11,0.08 0.08,0.14 -0.02,0.03 -0.04,0.05 -0.07,0.05 -0.03,0.01 -0.09,0.01 -0.12,0.01 -0.45,0 -0.89,0 -1.34,0 -0.03,0 -0.09,0 -0.12,0 -0.07,-0.02 -0.1,-0.09 -0.07,-0.15 0.04,-0.07 0.11,-0.06 0.19,-0.06l1.33 0c0.03,0 0.1,0 0.12,0.01zm0 -0.44c0.07,0.01 0.11,0.08 0.08,0.15 -0.02,0.02 -0.04,0.04 -0.07,0.05 -0.03,0 -0.09,0 -0.12,0 -0.45,0 -0.89,0 -1.34,0 -0.03,0 -0.09,0 -0.12,0 -0.07,-0.01 -0.1,-0.09 -0.07,-0.15 0.04,-0.07 0.11,-0.05 0.19,-0.05l1.33 0c0.03,0 0.1,-0.01 0.12,0z"/>
 </g>
</svg>
