<?xml version="1.0" encoding="UTF-8"?>
<!DOCTYPE svg PUBLIC "-//W3C//DTD SVG 1.0//EN" "http://www.w3.org/TR/2001/REC-SVG-20010904/DTD/svg10.dtd">
<!-- Creator: CorelDRAW 2018 (64 Bit Versão de avaliação) -->
<svg xmlns="http://www.w3.org/2000/svg" xml:space="preserve" width="39px" height="34px" version="1.0" shape-rendering="geometricPrecision" text-rendering="geometricPrecision" image-rendering="optimizeQuality" fill-rule="evenodd" clip-rule="evenodd"
viewBox="0 0 5.28 4.6"
 xmlns:xlink="http://www.w3.org/1999/xlink">
 <g id="Camada_x0020_1">
  <metadata id="CorelCorpID_0Corel-Layer"/>
  <g id="_2039060104400">
   <path fill="black" d="M0.25 0.01c-0.19,0.03 -0.31,0.25 -0.21,0.45 0.03,0.07 0.12,0.14 0.2,0.16 0.09,0.01 0.27,0 0.37,0 1.35,0 2.7,0 4.05,0 0.09,0 0.28,0.01 0.36,0 0.21,-0.05 0.31,-0.27 0.22,-0.45 -0.12,-0.22 -0.34,-0.16 -0.57,-0.16l-4.05 0c-0.1,0 -0.28,-0.02 -0.37,0z"/>
   <path fill="black" d="M5.27 3.01c0.02,-0.1 -0.02,-0.2 -0.09,-0.27 -0.02,-0.02 -0.03,-0.02 -0.05,-0.04 -0.08,-0.05 -0.14,-0.05 -0.23,-0.05l-4.42 0c-0.12,0 -0.23,-0.01 -0.33,0.05 -0.13,0.08 -0.19,0.24 -0.13,0.38l0.06 0.08 0.07 0.07c0.02,0.01 0.04,0.02 0.06,0.03 0.05,0.02 0.11,0.01 0.17,0.01l4.42 0c0.17,0 0.3,0.03 0.42,-0.13 0.02,-0.03 0.04,-0.08 0.05,-0.13z"/>
   <path fill="black" d="M4.44 1.69c0.04,-0.18 -0.11,-0.35 -0.26,-0.36 -0.1,-0.01 -0.22,0 -0.32,0l-3.48 0c-0.12,0 -0.16,0 -0.25,0.06 -0.05,0.04 -0.11,0.11 -0.12,0.19 -0.03,0.19 0.1,0.35 0.26,0.37 0.1,0 0.22,0 0.32,0l3.48 0c0.11,0 0.18,0 0.26,-0.06 0.05,-0.04 0.1,-0.11 0.11,-0.2z"/>
   <path fill="black" d="M0.01 4.32c0.01,0.12 0.09,0.22 0.2,0.26 0.06,0.03 0.35,0.02 0.45,0.02l2.1 0c0.09,0 0.13,0 0.19,-0.04 0.24,-0.15 0.19,-0.48 -0.05,-0.57 -0.08,-0.02 -0.34,-0.01 -0.45,-0.01l-1.86 0c-0.15,0 -0.32,-0.02 -0.43,0.04 -0.11,0.06 -0.17,0.17 -0.15,0.3z"/>
  </g>
 </g>
</svg>
