<?xml version="1.0" encoding="UTF-8"?>
<!DOCTYPE svg PUBLIC "-//W3C//DTD SVG 1.0//EN" "http://www.w3.org/TR/2001/REC-SVG-20010904/DTD/svg10.dtd">
<!-- Creator: CorelDRAW 2018 (64 Bit Versão de avaliação) -->
<svg xmlns="http://www.w3.org/2000/svg" xml:space="preserve" width="39px" height="34px" version="1.0" shape-rendering="geometricPrecision" text-rendering="geometricPrecision" image-rendering="optimizeQuality" fill-rule="evenodd" clip-rule="evenodd"
viewBox="0 0 15.26 13.3"
 xmlns:xlink="http://www.w3.org/1999/xlink">
 <g id="Camada_x0020_1">
  <metadata id="CorelCorpID_0Corel-Layer"/>
  <g id="_2039071343552">
   <path fill="black" d="M14.52 0.02c0.56,0.1 0.92,0.74 0.64,1.3 -0.11,0.21 -0.35,0.4 -0.6,0.46 -0.24,0.05 -0.78,0.02 -1.05,0.02 -3.91,0 -7.82,0 -11.73,0 -0.27,0 -0.81,0.03 -1.05,-0.02 -0.6,-0.12 -0.9,-0.78 -0.63,-1.29 0.34,-0.62 0.98,-0.48 1.65,-0.48l11.73 0c0.27,0 0.81,-0.02 1.04,0.01z"/>
   <path fill="black" d="M0.02 8.71c-0.05,-0.3 0.06,-0.58 0.26,-0.78 0.06,-0.06 0.07,-0.07 0.15,-0.13 0.23,-0.14 0.4,-0.12 0.66,-0.12l12.79 0c0.35,0 0.66,-0.05 0.94,0.12 0.37,0.24 0.55,0.7 0.38,1.1l-0.17 0.25 -0.21 0.19c-0.05,0.03 -0.1,0.06 -0.17,0.09 -0.15,0.05 -0.32,0.03 -0.48,0.03l-12.79 0c-0.49,0 -0.88,0.07 -1.21,-0.38 -0.07,-0.09 -0.13,-0.23 -0.15,-0.37z"/>
   <path fill="black" d="M2.4 4.89c-0.11,-0.54 0.33,-1.01 0.78,-1.04 0.28,-0.02 0.63,0 0.92,0l10.05 0c0.37,0 0.48,-0.01 0.74,0.18 0.13,0.09 0.32,0.32 0.35,0.55 0.08,0.53 -0.29,1.01 -0.77,1.05 -0.27,0.02 -0.64,0 -0.92,0l-10.05 0c-0.34,0 -0.52,0 -0.76,-0.17 -0.15,-0.11 -0.28,-0.32 -0.34,-0.57z"/>
   <path fill="black" d="M15.24 12.5c-0.03,0.35 -0.28,0.64 -0.58,0.76 -0.19,0.07 -1.03,0.04 -1.31,0.04l-6.07 0c-0.25,0 -0.39,0 -0.56,-0.11 -0.7,-0.43 -0.55,-1.4 0.15,-1.63 0.25,-0.09 0.98,-0.05 1.3,-0.05l5.4 0c0.41,0 0.9,-0.06 1.22,0.12 0.33,0.19 0.49,0.48 0.45,0.87z"/>
  </g>
 </g>
</svg>
