<?xml version="1.0" encoding="UTF-8"?>
<!DOCTYPE svg PUBLIC "-//W3C//DTD SVG 1.0//EN" "http://www.w3.org/TR/2001/REC-SVG-20010904/DTD/svg10.dtd">
<!-- Creator: CorelDRAW 2018 (64 Bit Versão de avaliação) -->
<svg xmlns="http://www.w3.org/2000/svg" xml:space="preserve" width="35px" height="41px" version="1.0" shape-rendering="geometricPrecision" text-rendering="geometricPrecision" image-rendering="optimizeQuality" fill-rule="evenodd" clip-rule="evenodd"
viewBox="0 0 0.67 0.78"
 xmlns:xlink="http://www.w3.org/1999/xlink">
 <g id="Camada_x0020_1">
  <metadata id="CorelCorpID_0Corel-Layer"/>
  <path fill="black" d="M0.67 0.57c-0.02,0.04 -0.03,0.06 -0.05,0.09 -0.04,0.05 -0.08,0.12 -0.14,0.12 -0.05,0 -0.06,-0.04 -0.13,-0.04 -0.07,0 -0.09,0.04 -0.14,0.04 -0.05,0 -0.1,-0.06 -0.13,-0.11 -0.09,-0.14 -0.1,-0.3 -0.04,-0.39 0.04,-0.06 0.1,-0.1 0.16,-0.1 0.06,0 0.1,0.04 0.15,0.04 0.05,0 0.08,-0.04 0.15,-0.04 0.05,0 0.1,0.03 0.14,0.08 -0.13,0.07 -0.1,0.26 0.03,0.31zm-0.23 -0.44c0.03,-0.04 0.05,-0.08 0.04,-0.13 -0.04,0 -0.09,0.03 -0.12,0.06 -0.02,0.04 -0.05,0.08 -0.04,0.13 0.05,0 0.1,-0.03 0.12,-0.06z"/>
 </g>
</svg>
