<?xml version="1.0" encoding="UTF-8"?>
<!DOCTYPE svg PUBLIC "-//W3C//DTD SVG 1.0//EN" "http://www.w3.org/TR/2001/REC-SVG-20010904/DTD/svg10.dtd">
<!-- Creator: CorelDRAW 2018 (64 Bit Versão de avaliação) -->
<svg xmlns="http://www.w3.org/2000/svg" xml:space="preserve" width="41px" height="41px" version="1.0" shape-rendering="geometricPrecision" text-rendering="geometricPrecision" image-rendering="optimizeQuality" fill-rule="evenodd" clip-rule="evenodd"
viewBox="0 0 1.01 1.01"
 xmlns:xlink="http://www.w3.org/1999/xlink">
 <g id="Camada_x0020_1">
  <metadata id="CorelCorpID_0Corel-Layer"/>
  <g id="_2751268942096">
   <g>
    <path fill="#292929" d="M0.88 0.38l-0.22 0c-0.02,0 -0.03,-0.01 -0.03,-0.03l0 -0.22c0,-0.02 0.01,-0.03 0.03,-0.03l0.22 0c0.02,0 0.03,0.01 0.03,0.03l0 0.22c0,0.02 -0.01,0.03 -0.03,0.03zm-0.35 -0.26l0 0.24c0,0.06 0.06,0.12 0.12,0.12l0.24 0c0.03,0 0.05,-0.01 0.07,-0.03 0.02,-0.01 0.02,-0.02 0.04,-0.04 0,-0.01 0.01,-0.03 0.01,-0.04l0 -0.26c0,-0.02 -0.01,-0.03 -0.01,-0.04 -0.01,-0.02 -0.02,-0.02 -0.03,-0.03 -0.02,-0.02 -0.04,-0.04 -0.07,-0.04l-0.26 0c-0.02,0 -0.03,0.01 -0.04,0.01 -0.01,0.01 -0.03,0.02 -0.04,0.03 0,0.01 -0.01,0.02 -0.02,0.03 0,0.01 -0.01,0.03 -0.01,0.05z"/>
    <path fill="#292929" d="M0.1 0.35l0 -0.22c0,-0.02 0.01,-0.03 0.03,-0.03l0.22 0c0.02,0 0.03,0.01 0.03,0.02l0 0.23c0,0.02 -0.01,0.03 -0.03,0.03l-0.22 0c-0.02,0 -0.03,-0.01 -0.03,-0.03zm-0.1 -0.24l0 0.25c0,0.03 0.02,0.06 0.04,0.08 0.01,0.02 0.05,0.04 0.08,0.04l0.24 0c0.03,0 0.06,-0.02 0.08,-0.04 0.02,-0.02 0.04,-0.05 0.04,-0.08l0 -0.24c0,-0.03 -0.01,-0.05 -0.03,-0.07 -0.01,-0.02 -0.02,-0.03 -0.04,-0.04 -0.01,0 -0.03,-0.01 -0.04,-0.01l-0.26 0c-0.02,0 -0.06,0.02 -0.07,0.04 -0.02,0.01 -0.04,0.05 -0.04,0.07z"/>
    <path fill="#292929" d="M0.1 0.88l0 -0.22c0,-0.02 0.01,-0.03 0.03,-0.03l0.22 0c0.02,0 0.03,0.01 0.03,0.03l0 0.22c0,0.01 -0.01,0.02 -0.01,0.02 -0.01,0.01 -0.01,0.01 -0.02,0.01l-0.22 0c-0.02,0 -0.03,-0.01 -0.03,-0.03zm-0.1 -0.24l0 0.26c0,0.01 0.01,0.03 0.01,0.04 0.01,0.01 0.02,0.02 0.03,0.03 0.01,0.02 0.05,0.04 0.07,0.04l0.25 0c0.03,0 0.06,-0.02 0.08,-0.04 0.02,-0.02 0.04,-0.05 0.04,-0.08l0 -0.24c0,-0.04 -0.02,-0.07 -0.05,-0.1 -0.01,0 -0.02,0 -0.02,-0.01 -0.02,0 -0.03,-0.01 -0.05,-0.01l-0.24 0c-0.02,0 -0.05,0.01 -0.06,0.02 -0.01,0 -0.01,0.01 -0.01,0.01 0,0 -0.01,0 -0.01,0 -0.01,0.01 -0.02,0.02 -0.03,0.04 0,0.01 -0.01,0.02 -0.01,0.04z"/>
    <path fill="#292929" d="M0.63 0.78c0,-0.03 0,-0.05 0.01,-0.07 0.02,-0.03 0.01,-0.02 0.03,-0.04 0.01,-0.01 0.03,-0.02 0.04,-0.03 0.02,-0.01 0.04,-0.01 0.07,-0.01 0.02,0 0.03,0.01 0.05,0.01 0,0 0.01,0.01 0.01,0.01 0.02,0.01 0.04,0.03 0.05,0.05 0.02,0.04 0.03,0.09 0.01,0.13 -0.04,0.07 -0.12,0.1 -0.19,0.07 -0.01,-0.01 -0.02,-0.01 -0.03,-0.02 0,0 0,0 0,-0.01 -0.01,0 -0.01,0 -0.01,0 -0.01,-0.01 -0.02,-0.03 -0.03,-0.04 0,-0.01 -0.01,-0.04 -0.01,-0.05zm-0.1 -0.02c0,0.08 0.02,0.12 0.06,0.17 0.01,0.01 0.03,0.03 0.03,0.03 0.04,0.02 0.09,0.05 0.13,0.05 0.05,0 0.08,0 0.12,-0.02 0.01,-0.01 0.03,-0.02 0.04,-0.02 0.03,-0.03 0.06,-0.06 0.08,-0.1 0.02,-0.04 0.02,-0.08 0.02,-0.12 0,-0.02 -0.01,-0.05 -0.02,-0.07 0,-0.01 0,-0.01 -0.01,-0.02l-0.02 -0.03c-0.04,-0.06 -0.11,-0.1 -0.18,-0.1 -0.01,0 -0.05,0 -0.07,0.01 -0.01,0 -0.03,0.01 -0.04,0.01 -0.02,0.01 -0.04,0.03 -0.06,0.04 0,0.01 0,0.01 -0.01,0.01 0,0 -0.01,0.01 -0.01,0.01 -0.02,0.03 -0.04,0.07 -0.05,0.1 -0.01,0.01 -0.01,0.04 -0.01,0.05z"/>
   </g>
  </g>
 </g>
</svg>
