<?xml version="1.0" encoding="UTF-8"?>
<!DOCTYPE svg PUBLIC "-//W3C//DTD SVG 1.0//EN" "http://www.w3.org/TR/2001/REC-SVG-20010904/DTD/svg10.dtd">
<!-- Creator: CorelDRAW 2018 (64 Bit Versão de avaliação) -->
<svg xmlns="http://www.w3.org/2000/svg" xml:space="preserve" width="47px" height="41px" version="1.0" shape-rendering="geometricPrecision" text-rendering="geometricPrecision" image-rendering="optimizeQuality" fill-rule="evenodd" clip-rule="evenodd"
viewBox="0 0 2.03 1.8"
 xmlns:xlink="http://www.w3.org/1999/xlink">
 <g id="Camada_x0020_1">
  <metadata id="CorelCorpID_0Corel-Layer"/>
  <path fill="black" d="M0.29 0.18c0,0 0.02,0.01 0.02,0.01 0.01,0 0.01,0 0.02,0 0,0.01 0,0.01 0,0.01 0.02,0.09 0.05,0.17 0.07,0.26 0.02,0.07 0.04,0.08 0.11,0.1l0.31 0.09c0.07,0.03 0.15,0.05 0.22,0.07l0.22 0.07c0.02,0 0.04,0.01 0.05,0.01 0.02,0.01 0.04,0.01 0.06,0.02 0.02,0.01 0.04,0.01 0.06,0.02l0.05 0.01c0.02,0.01 0.04,0.02 0.05,0.02 0.02,0.01 0.04,0.02 0.06,0.02 0,0.01 0.01,0.01 0.02,0.02 0.01,0 0.01,0 0.02,0.01 0.01,0 0.02,0.01 0.03,0.01 0,0 0.01,0.01 0.02,0.01 0.02,0.02 0.07,0.05 0.07,0.08 0,0.06 -0.16,0.04 -0.19,0.04 -0.06,-0.01 -0.2,-0.05 -0.26,-0.07 -0.02,-0.01 -0.04,-0.01 -0.06,-0.02l-0.1 -0.03c-0.06,-0.01 -0.06,0 -0.13,0.02 -0.04,0.01 -0.1,0.03 -0.15,0.04l-0.2 0.07c-0.05,0.01 -0.03,0.01 -0.07,-0.01l-0.03 -0.01c0,-0.01 0.01,-0.02 0.02,-0.03l0.06 -0.05c0,0 0.01,-0.01 0.01,-0.01l0.07 -0.06c0,-0.01 0.01,-0.01 0.01,-0.02 0.01,0 0.01,-0.01 0.01,-0.01 0.03,-0.04 0.02,-0.08 -0.02,-0.1 -0.01,-0.01 -0.01,-0.02 -0.02,-0.02 -0.01,0 -0.01,-0.01 -0.02,-0.01 0,0 -0.01,0 -0.01,-0.01 -0.01,0 -0.01,0 -0.02,0 -0.04,-0.02 -0.1,-0.05 -0.14,-0.07 -0.01,0 -0.02,-0.01 -0.03,-0.01 -0.03,-0.01 -0.07,-0.03 -0.1,-0.04l-0.08 -0.04c0,0 -0.01,-0.01 -0.01,-0.01l0 -0.34c0,-0.02 0,-0.02 0,-0.04zm-0.29 1.53c0,0.03 0,0.04 0.02,0.06 0.01,0.01 0.03,0.03 0.05,0.03l1.89 0c0.01,0 0.02,-0.01 0.03,-0.01 0.01,0 0.02,-0.01 0.02,-0.01 0.01,-0.02 0.02,-0.03 0.02,-0.05l0 -0.02c0,-0.02 -0.01,-0.04 -0.02,-0.05 -0.02,-0.01 -0.04,-0.02 -0.06,-0.02l-1.87 0c-0.04,0 -0.08,0.03 -0.08,0.07zm0.54 -0.86c-0.01,0 -0.03,0.03 -0.04,0.04l-0.04 0.04c-0.02,0.01 -0.1,0.09 -0.11,0.1 -0.03,0.04 -0.01,0.1 0.03,0.11 0.05,0.02 0.11,0.05 0.16,0.07 0.07,0.03 0.08,0.03 0.16,0.01l0.12 -0.04c0.08,-0.02 0.16,-0.05 0.24,-0.07l0.05 -0.01c0,0 0.15,0.04 0.17,0.05 0.01,0 0.02,0 0.03,0l0.12 0.04c0.02,0 0.04,0.01 0.06,0.01 0.03,0.01 0.12,0.02 0.15,0.02 0.08,0 0.15,-0.02 0.2,-0.06 0.02,-0.01 0.03,-0.02 0.04,-0.04 0.01,-0.02 0.01,-0.03 0.02,-0.04 0.01,-0.05 0,-0.11 -0.02,-0.15 -0.01,-0.03 -0.02,-0.04 -0.04,-0.05 -0.01,-0.02 -0.03,-0.03 -0.04,-0.04 -0.02,-0.02 -0.03,-0.03 -0.05,-0.04l-0.04 -0.02c-0.01,0 -0.01,-0.01 -0.02,-0.01 -0.06,-0.03 -0.15,-0.06 -0.21,-0.08 -0.02,-0.01 -0.04,-0.01 -0.07,-0.02l-0.06 -0.02c-0.02,-0.01 -0.05,-0.01 -0.07,-0.02 -0.08,-0.03 -0.17,-0.05 -0.26,-0.08l-0.16 -0.05c-0.01,0 -0.02,0 -0.03,-0.01l-0.27 -0.08c-0.02,0 -0.01,0 -0.02,-0.05 -0.01,-0.04 -0.07,-0.25 -0.08,-0.27 -0.02,-0.03 -0.07,-0.04 -0.11,-0.05 -0.02,-0.01 -0.12,-0.04 -0.14,-0.04 -0.04,0 -0.05,0.01 -0.07,0.04 -0.01,0.01 -0.01,0.03 -0.01,0.05 0,0.06 0,0.11 0,0.17 0,0.01 0,0.02 0,0.04l0 0.25c0,0.01 0,0.02 0,0.04 0,0.08 0.02,0.09 0.09,0.11l0.2 0.1c0.03,0.01 0.08,0.03 0.1,0.04 0.01,0 0.01,0.01 0.02,0.01z"/>
 </g>
</svg>
