<?xml version="1.0" encoding="UTF-8"?>
<!DOCTYPE svg PUBLIC "-//W3C//DTD SVG 1.0//EN" "http://www.w3.org/TR/2001/REC-SVG-20010904/DTD/svg10.dtd">
<!-- Creator: CorelDRAW 2018 (64 Bit Versão de avaliação) -->
<svg xmlns="http://www.w3.org/2000/svg" xml:space="preserve" width="26px" height="31px" version="1.0" shape-rendering="geometricPrecision" text-rendering="geometricPrecision" image-rendering="optimizeQuality" fill-rule="evenodd" clip-rule="evenodd"
viewBox="0 0 0.32 0.39"
 xmlns:xlink="http://www.w3.org/1999/xlink">
 <g id="Camada_x0020_1">
  <metadata id="CorelCorpID_0Corel-Layer"/>
  <path fill="black" d="M0 0.16c0,0.01 0,0.01 0.01,0.02 0.01,0 0.02,0.01 0.03,0 0,0 0.03,-0.03 0.03,-0.04 0.02,-0.01 0.03,-0.03 0.05,-0.04 0,0 0,-0.01 0.01,-0.01 0.01,0 0.01,0.02 0.01,0.03l0 0.23c0,0.02 -0.01,0.03 0.01,0.04 0,0 0,0 0.01,0l0 0c0.01,0 0.02,0 0.02,-0.01 0.01,-0.01 0,-0.02 0,-0.03l0 -0.23c0,-0.01 0,-0.01 0,-0.02 0,0 0.01,-0.01 0.01,-0.01 0.01,0 0.01,0.01 0.02,0.02 0.01,0 0.01,0.01 0.02,0.01 0,0.01 0,0.01 0,0.01l0.05 0.04c0,0.01 0.01,0.02 0.03,0.01 0,0 0,0 0,0 0.01,-0.01 0.01,-0.01 0.01,-0.02 0,-0.01 -0.01,-0.02 -0.01,-0.02l-0.13 -0.13c-0.01,-0.01 -0.01,-0.01 -0.01,-0.01l-0.02 0c0,0 -0.03,0.03 -0.04,0.04l-0.07 0.08c-0.01,0 -0.02,0.01 -0.02,0.02 -0.01,0 -0.02,0.01 -0.02,0.02z"/>
 </g>
</svg>
