<?xml version="1.0" encoding="UTF-8"?>
<!DOCTYPE svg PUBLIC "-//W3C//DTD SVG 1.0//EN" "http://www.w3.org/TR/2001/REC-SVG-20010904/DTD/svg10.dtd">
<!-- Creator: CorelDRAW 2018 (64 Bit Versão de avaliação) -->
<svg xmlns="http://www.w3.org/2000/svg" xml:space="preserve" width="41px" height="41px" version="1.0" shape-rendering="geometricPrecision" text-rendering="geometricPrecision" image-rendering="optimizeQuality" fill-rule="evenodd" clip-rule="evenodd"
viewBox="0 0 1.57 1.56"
 xmlns:xlink="http://www.w3.org/1999/xlink">
 <g id="Camada_x0020_1">
  <metadata id="CorelCorpID_0Corel-Layer"/>
  <g id="_2039315566576">
   <g>
    <path fill="black" d="M0 0.22c0,0.14 -0.02,0.21 0.07,0.3 0.04,0.04 0.1,0.07 0.17,0.07l0.15 0c0.09,0 0.09,-0.13 0,-0.13 -0.04,0 -0.09,0 -0.13,0 -0.05,0 -0.07,0 -0.1,-0.03 -0.04,-0.03 -0.03,-0.11 -0.03,-0.18 0,-0.04 0,-0.06 0.02,-0.08 0.01,-0.02 0.04,-0.04 0.07,-0.04l1.13 0c0.03,0 0.06,0.02 0.07,0.03 0.03,0.05 0.02,0.12 0.02,0.18 0,0.04 -0.01,0.07 -0.03,0.09 -0.03,0.03 -0.05,0.03 -0.1,0.03 -0.04,0 -0.08,0 -0.13,0 -0.09,0 -0.08,0.13 0,0.13l0.15 0c0.13,0 0.24,-0.11 0.24,-0.22 0,-0.12 0.02,-0.22 -0.07,-0.3 -0.01,-0.01 -0.01,-0.02 -0.03,-0.03 -0.04,-0.02 -0.08,-0.04 -0.13,-0.04l-1.11 0c-0.12,0 -0.23,0.1 -0.23,0.22z"/>
    <path fill="black" d="M0.33 0.72l0 0.7c0,0.07 0.07,0.14 0.16,0.14l0.6 0c0.06,0 0.1,-0.03 0.13,-0.08 0.01,-0.01 0.02,-0.04 0.02,-0.06l0 -0.7c0,-0.06 -0.11,-0.08 -0.13,0 0,0.01 0,0.55 0,0.63 0,0.04 0.01,0.08 -0.02,0.08l-0.6 0c-0.04,0 -0.03,-0.04 -0.03,-0.07 0,-0.08 0,-0.62 0,-0.64 -0.02,-0.08 -0.13,-0.06 -0.13,0z"/>
    <path fill="black" d="M0.79 0.83c-0.01,0 -0.01,0 -0.02,0.01 0.01,0.02 0.03,0.01 0.06,0.03 0.05,0.03 0.04,0.09 0,0.12 -0.02,0.01 -0.01,0 -0.02,0.02 -0.01,0.03 -0.06,0.03 -0.06,-0.01 -0.06,0 -0.05,-0.05 -0.02,-0.06 0.01,-0.01 0.04,0.01 0.07,0 -0.01,-0.04 -0.09,-0.02 -0.09,-0.1 0,-0.03 0.01,-0.04 0.03,-0.05 0.02,-0.02 0,-0.01 0.02,-0.03 0.01,-0.03 0.05,-0.02 0.06,0.01 0.05,0.01 0.03,0.05 0.01,0.06 -0.01,0.01 -0.02,0 -0.04,0zm0 0.27c0.02,0 0.06,-0.01 0.08,-0.02 0.05,-0.02 0.08,-0.06 0.1,-0.11 0.04,-0.08 0.02,-0.18 -0.04,-0.23 -0.06,-0.06 -0.14,-0.08 -0.23,-0.04 -0.02,0.01 -0.04,0.02 -0.06,0.04l-0.02 0.03c-0.04,0.05 -0.05,0.1 -0.04,0.16 0.01,0.04 0.02,0.06 0.05,0.09 0.02,0.02 0.04,0.04 0.07,0.06 0.02,0.01 0.06,0.02 0.09,0.02z"/>
    <path fill="black" d="M1.13 0.29c0,0.08 0.08,0.07 0.14,0.07 0.03,0 0.06,-0.04 0.06,-0.07 0,-0.03 -0.03,-0.06 -0.06,-0.06 -0.06,0 -0.1,-0.01 -0.13,0.02 -0.01,0.01 -0.01,0.02 -0.01,0.04z"/>
    <path fill="black" d="M0.24 0.29c0,0.03 0.03,0.07 0.06,0.07l0.09 0c0.05,0 0.07,-0.07 0.04,-0.11 -0.03,-0.03 -0.07,-0.02 -0.13,-0.02 -0.03,0 -0.06,0.03 -0.06,0.06z"/>
    <path fill="black" d="M0.59 0.36c0.05,0 0.1,0 0.13,-0.02 0.04,-0.04 0.01,-0.11 -0.03,-0.11l-0.1 0c-0.03,0 -0.05,0.03 -0.05,0.06 0,0.04 0.03,0.07 0.05,0.07z"/>
    <path fill="black" d="M0.83 0.28c0,0.03 0,0.04 0.02,0.06 0.03,0.02 0.08,0.02 0.13,0.02 0.02,0 0.05,-0.03 0.05,-0.07 0,-0.03 -0.02,-0.06 -0.05,-0.06l-0.09 0c-0.03,0 -0.06,0.03 -0.06,0.05z"/>
    <path fill="black" d="M0.9 1.24c0,0.04 0.03,0.07 0.05,0.07l0.02 0c0.07,0 0.08,-0.13 0,-0.13 -0.04,0 -0.07,0.03 -0.07,0.06z"/>
    <path fill="black" d="M0.54 1.24c0,0.04 0.03,0.07 0.06,0.07 0.02,0 0.03,0 0.06,-0.02 0.04,-0.04 0,-0.11 -0.05,-0.11 -0.04,0 -0.07,0.03 -0.07,0.06z"/>
   </g>
  </g>
 </g>
</svg>
