<?xml version="1.0" encoding="UTF-8"?>
<!DOCTYPE svg PUBLIC "-//W3C//DTD SVG 1.0//EN" "http://www.w3.org/TR/2001/REC-SVG-20010904/DTD/svg10.dtd">
<!-- Creator: CorelDRAW 2018 (64 Bit Versão de avaliação) -->
<svg xmlns="http://www.w3.org/2000/svg" xml:space="preserve" width="37px" height="41px" version="1.0" shape-rendering="geometricPrecision" text-rendering="geometricPrecision" image-rendering="optimizeQuality" fill-rule="evenodd" clip-rule="evenodd"
viewBox="0 0 0.94 1.04"
 xmlns:xlink="http://www.w3.org/1999/xlink">
 <g id="Camada_x0020_1">
  <metadata id="CorelCorpID_0Corel-Layer"/>
  <path fill="black" d="M0.54 0.1c0.05,-0.01 0.1,0.01 0.12,0.04 0.01,0 0.02,0.01 0.03,0.02l0 0.01c0.02,0.02 0.03,0.04 0.03,0.07 0.01,0.04 0,0.07 -0.01,0.1 -0.01,0.02 -0.06,0.08 -0.07,0.1l-0.2 0.23c0,0.01 0,0.01 0,0.01 -0.01,0.01 -0.02,0.02 -0.02,0.03 0,0 -0.01,0 -0.01,0 0,0.01 -0.01,0.01 -0.02,0.01 -0.02,0.01 -0.04,0.01 -0.06,-0.01 0,0 -0.01,-0.01 -0.01,-0.02 -0.01,-0.01 -0.01,-0.02 -0.01,-0.03 0.01,-0.03 0.05,-0.08 0.07,-0.1l0.01 -0.01c0.01,-0.01 0.04,-0.04 0.05,-0.06 0.01,-0.01 0.02,-0.03 0.03,-0.04l0.01 -0.01c0.01,-0.01 0.02,-0.03 0.03,-0.04l0.06 -0.08c0.02,-0.01 0.04,-0.04 0.04,-0.06 0,-0.01 -0.01,-0.02 -0.02,-0.03 -0.01,-0.01 -0.03,-0.02 -0.05,-0.01 -0.01,0.01 -0.02,0.01 -0.02,0.02l-0.02 0.02c-0.01,0.01 -0.01,0.01 -0.01,0.02l-0.08 0.1c-0.01,0 -0.01,0 -0.01,0.01l-0.03 0.03c-0.02,0.02 -0.04,0.05 -0.05,0.07 -0.01,0 -0.01,0.01 -0.01,0.01l-0.03 0.04c-0.01,0.01 -0.02,0.02 -0.04,0.04 -0.02,0.04 -0.03,0.09 -0.02,0.13 0.02,0.06 0.07,0.11 0.13,0.11 0.02,0.01 0.06,0 0.07,0 0.03,-0.01 0.04,-0.02 0.05,-0.03 0.01,-0.01 0.02,-0.02 0.02,-0.02l0.26 -0.32c0,-0.01 0.01,-0.02 0.02,-0.02 0,-0.01 0,-0.01 0.01,-0.01 0,-0.01 0,-0.01 0,-0.02 0.03,-0.04 0.05,-0.1 0.04,-0.16 0,-0.03 -0.01,-0.07 -0.02,-0.1 -0.02,-0.02 -0.04,-0.05 -0.06,-0.06 0,-0.01 0,-0.01 0,-0.01 -0.01,0 -0.01,-0.01 -0.02,-0.01 0,-0.01 -0.01,-0.01 -0.01,-0.01 0,-0.01 -0.01,-0.01 -0.01,-0.01 -0.02,-0.01 -0.04,-0.02 -0.06,-0.03 -0.06,-0.02 -0.14,-0.01 -0.2,0.02 -0.02,0.01 -0.04,0.02 -0.05,0.03 -0.01,0.01 -0.03,0.03 -0.04,0.04 -0.01,0.01 -0.03,0.04 -0.04,0.05 -0.03,0.04 -0.07,0.09 -0.11,0.13 -0.01,0.02 -0.02,0.03 -0.03,0.05 -0.01,0.01 -0.01,0.01 -0.02,0.02 0,0 0,0 -0.01,0.01l-0.03 0.03c-0.02,0.03 -0.03,0.05 -0.05,0.08 -0.02,0.03 -0.04,0.06 -0.05,0.11 -0.01,0.02 -0.01,0.05 -0.01,0.07 0,0.03 0,0.05 0,0.08 0.01,0.06 0.04,0.12 0.08,0.17 0.01,0.01 0.02,0.02 0.03,0.03l0.01 0.01c0.01,0.01 0.03,0.02 0.04,0.04 0.02,0.01 0.04,0.02 0.05,0.03 0.07,0.03 0.14,0.04 0.21,0.03 0.05,-0.01 0.08,-0.02 0.12,-0.04 0.02,-0.01 0.04,-0.02 0.05,-0.03 0.01,-0.01 0.02,-0.01 0.02,-0.02l0.02 -0.01c0,0 0,0 0,-0.01 0,0 0,0 0.01,0 0.01,-0.01 0.02,-0.02 0.03,-0.03 0,0 0,-0.01 0,-0.01 0,0 0,0 0.01,0 0.01,-0.02 0.02,-0.03 0.03,-0.05l0.11 -0.13c0.01,-0.01 0.01,-0.02 0.02,-0.03 0.01,-0.01 0.01,-0.01 0.02,-0.02 0.02,-0.02 0.04,-0.05 0.05,-0.07 0.02,-0.02 0.05,-0.05 0.03,-0.08 -0.02,-0.02 -0.04,-0.03 -0.06,-0.02 -0.02,0.01 -0.04,0.03 -0.05,0.05 -0.01,0.01 -0.02,0.01 -0.02,0.02l-0.06 0.08c-0.01,0.01 -0.02,0.02 -0.02,0.02l-0.04 0.05c0,0 0,0.01 -0.01,0.01 0,0 0,0.01 -0.01,0.01 0,0 0,0.01 -0.01,0.01 0,0.01 0,0.01 -0.01,0.01l-0.03 0.05c-0.02,0.02 -0.04,0.04 -0.06,0.06 -0.01,0.01 -0.01,0.02 -0.02,0.02 -0.01,0.02 -0.03,0.03 -0.05,0.04 -0.06,0.03 -0.14,0.03 -0.2,0.01 -0.02,-0.01 -0.04,-0.01 -0.06,-0.02 -0.01,-0.01 -0.04,-0.03 -0.04,-0.04l-0.02 -0.02c-0.02,-0.02 -0.04,-0.05 -0.05,-0.08 -0.02,-0.04 -0.03,-0.09 -0.02,-0.14 0,-0.02 0.01,-0.04 0.02,-0.06 0.01,-0.04 0.03,-0.07 0.06,-0.1l0.18 -0.23c0.01,0 0.01,-0.01 0.02,-0.02l0.04 -0.04c0,-0.01 0,-0.01 0.01,-0.02 0.01,-0.01 0.03,-0.03 0.05,-0.04 0.02,-0.01 0.04,-0.02 0.06,-0.02z"/>
 </g>
</svg>
