<?xml version="1.0" encoding="UTF-8"?>
<!DOCTYPE svg PUBLIC "-//W3C//DTD SVG 1.0//EN" "http://www.w3.org/TR/2001/REC-SVG-20010904/DTD/svg10.dtd">
<!-- Creator: CorelDRAW 2018 (64 Bit Versão de avaliação) -->
<svg xmlns="http://www.w3.org/2000/svg" xml:space="preserve" width="36px" height="41px" version="1.0" shape-rendering="geometricPrecision" text-rendering="geometricPrecision" image-rendering="optimizeQuality" fill-rule="evenodd" clip-rule="evenodd"
viewBox="0 0 1.47 1.68"
 xmlns:xlink="http://www.w3.org/1999/xlink">
 <g id="Camada_x0020_1">
  <metadata id="CorelCorpID_0Corel-Layer"/>
  <path fill="black" d="M0.75 0.66c-0.07,0 -0.06,-0.06 -0.04,-0.08 0.05,-0.06 0.18,-0.08 0.26,-0.05 0.09,0.05 0.16,0.13 0.16,0.24 0,0.1 -0.01,0.14 -0.08,0.21 -0.05,0.04 -0.26,0.27 -0.3,0.29 -0.19,0.13 -0.41,-0.02 -0.41,-0.2 0,-0.12 0.04,-0.16 0.11,-0.23 0.02,-0.03 0.1,-0.1 0.12,-0.12 0.1,-0.05 0.23,0.03 0.23,0.12 0,0.09 -0.02,0.11 -0.08,0.17l-0.08 0.08c-0.05,0.04 -0.09,-0.01 -0.09,-0.02 0,-0.05 0.02,-0.06 0.07,-0.11 0.02,-0.02 0.08,-0.07 0.08,-0.09 0,-0.04 -0.02,-0.06 -0.05,-0.06 -0.03,0 -0.05,0.02 -0.07,0.04 -0.05,0.05 -0.12,0.1 -0.13,0.16 -0.04,0.12 0.07,0.23 0.19,0.2 0.05,-0.02 0.08,-0.05 0.11,-0.09 0.04,-0.03 0.24,-0.23 0.26,-0.26 0.07,-0.13 -0.06,-0.29 -0.21,-0.22 -0.02,0.01 -0.02,0.02 -0.05,0.02zm-0.75 -0.36l0 1.08c0,0.15 0.15,0.3 0.3,0.3l0.87 0c0.08,0 0.15,-0.04 0.21,-0.09 0.02,-0.02 0.01,-0.02 0.03,-0.04 0.03,-0.05 0.06,-0.11 0.06,-0.17l0 -0.76c0,-0.08 -0.04,-0.15 -0.09,-0.2 -0.04,-0.06 -0.09,-0.11 -0.13,-0.17 -0.06,-0.08 -0.12,-0.17 -0.22,-0.22 -0.03,-0.01 -0.07,-0.03 -0.12,-0.03l-0.61 0c-0.15,0 -0.3,0.15 -0.3,0.3z"/>
 </g>
</svg>
