<?xml version="1.0" encoding="UTF-8"?>
<!DOCTYPE svg PUBLIC "-//W3C//DTD SVG 1.0//EN" "http://www.w3.org/TR/2001/REC-SVG-20010904/DTD/svg10.dtd">
<!-- Creator: CorelDRAW 2018 (64 Bit Versão de avaliação) -->
<svg xmlns="http://www.w3.org/2000/svg" xml:space="preserve" width="32px" height="41px" version="1.0" shape-rendering="geometricPrecision" text-rendering="geometricPrecision" image-rendering="optimizeQuality" fill-rule="evenodd" clip-rule="evenodd"
viewBox="0 0 0.46 0.59"
 xmlns:xlink="http://www.w3.org/1999/xlink">
 <g id="Camada_x0020_1">
  <metadata id="CorelCorpID_0Corel-Layer"/>
  <path fill="black" d="M0.15 0.53l0 -0.07c0,-0.01 0,-0.01 0.01,-0.01l0.14 0c0.01,0 0.02,0 0.02,0.01l0 0.07c0,0 -0.01,0.01 -0.02,0.01l-0.14 0c-0.01,0 -0.01,-0.01 -0.01,-0.01zm-0.06 -0.08l0 0.05c-0.02,0 -0.03,-0.02 -0.04,-0.04 0,-0.03 0,-0.06 0.01,-0.08 0,-0.01 0,-0.01 0,-0.02 0.01,0 0.01,0 0.02,0l0.3 0c0.01,0 0.01,0 0.02,0 0,0.01 0.01,0.05 0.01,0.08 0,0.02 0,0.02 -0.01,0.04 0,0.01 -0.02,0.02 -0.03,0.02 0,-0.03 0.01,-0.06 0,-0.1 0,0 0,-0.01 0,-0.01l-0.27 0c-0.01,0.01 -0.01,0.02 -0.01,0.06zm0.08 -0.3c0.01,0 0.01,-0.01 0.02,-0.01l0.08 0c0.01,0 0.01,0.01 0.02,0.01 -0.03,0.05 -0.09,0.05 -0.12,0zm0 -0.07c0,0 0,-0.01 0.01,-0.02l0.01 -0.01c0.02,-0.02 0.06,-0.02 0.08,0l0.01 0.01c0.01,0.01 0.01,0.01 0.01,0.02l-0.03 -0.01c-0.03,0 -0.04,0 -0.08,0.01 0,0 -0.01,0 -0.01,0zm-0.17 0.24l0 0.16c0,0.01 0.01,0.03 0.01,0.05 0.02,0.02 0.04,0.04 0.07,0.05 0.02,0.01 0.03,0.01 0.06,0.01l0.18 0c0.05,0 0.08,-0.01 0.1,-0.03 0.01,0 0.01,-0.01 0.02,-0.01 0.01,-0.02 0.02,-0.05 0.02,-0.08l0 -0.15c0,-0.03 -0.02,-0.06 -0.04,-0.08 -0.02,0 -0.01,0 -0.02,-0.03 -0.01,-0.03 -0.01,-0.06 -0.03,-0.08 -0.01,-0.01 -0.02,-0.02 -0.03,-0.03 -0.01,0 0,-0.01 -0.01,-0.03 -0.02,-0.05 -0.06,-0.08 -0.11,-0.07 -0.02,0 -0.03,0.01 -0.04,0.01 -0.03,0.02 -0.05,0.04 -0.05,0.07 0,0.01 -0.01,0.01 -0.01,0.02 0,0 0,0 0,0 -0.03,0.03 -0.04,0.03 -0.05,0.08 -0.01,0.02 -0.01,0.04 -0.02,0.05 0,0.01 0,0.01 -0.01,0.02 -0.02,0.02 -0.04,0.04 -0.04,0.07z"/>
 </g>
</svg>
