<?xml version="1.0" encoding="UTF-8"?>
<!DOCTYPE svg PUBLIC "-//W3C//DTD SVG 1.0//EN" "http://www.w3.org/TR/2001/REC-SVG-20010904/DTD/svg10.dtd">
<!-- Creator: CorelDRAW 2018 (64 Bit Versão de avaliação) -->
<svg xmlns="http://www.w3.org/2000/svg" xml:space="preserve" width="33px" height="41px" version="1.0" shape-rendering="geometricPrecision" text-rendering="geometricPrecision" image-rendering="optimizeQuality" fill-rule="evenodd" clip-rule="evenodd"
viewBox="0 0 3.81 4.77"
 xmlns:xlink="http://www.w3.org/1999/xlink">
 <g id="Camada_x0020_1">
  <metadata id="CorelCorpID_0Corel-Layer"/>
  <g id="_2038834666704">
   <g>
    <path fill="black" d="M3.28 4.4l-2.76 0c-0.18,0 -0.14,-0.2 -0.13,-0.34l0.02 -0.46c0,-0.04 0,-0.05 0,-0.09 0,-0.07 0.01,-0.13 0.01,-0.18l0.04 -0.74c0,-0.03 0.01,-0.28 0.02,-0.36l0.01 -0.28c0,-0.04 0,-0.05 0.01,-0.09 0,-0.08 0,-0.29 0.03,-0.35 0.02,-0.05 0.05,-0.08 0.12,-0.08l2.54 0c0.15,0 0.11,0.24 0.12,0.36 0,0.03 0,0.06 0.01,0.08 0,0.03 0,0.07 0,0.09l0.01 0.28c0,0.06 0,0.12 0.01,0.18 0,0.03 0.01,0.06 0.01,0.09 0,0.03 0,0.06 0,0.09 0,0.12 0.01,0.22 0.01,0.37 0,0.07 0.01,0.11 0.01,0.18l0.01 0.17c0.01,0.04 0.01,0.06 0.01,0.09l0.01 0.28c0,0.04 0,0.06 0.01,0.09 0,0.03 -0.01,0.06 0,0.1 0,0.03 0,0.04 0,0.08 0,0.17 0.09,0.44 -0.13,0.44zm-1.98 -3.38c0,-0.17 0.05,-0.33 0.16,-0.45 0.08,-0.09 0.25,-0.19 0.42,-0.19 0.13,0 0.19,0.01 0.3,0.06 0.14,0.07 0.24,0.2 0.29,0.34 0.03,0.07 0.03,0.18 0.03,0.28l-1.2 0 0 -0.04zm-0.37 -0.12l0 0.16 -0.37 0c-0.23,0 -0.44,0.27 -0.44,0.53 0,0.03 0.01,0.02 0.01,0.04l-0.01 0.12c-0.01,0.06 -0.01,0.11 -0.01,0.17l-0.03 0.59c0,0.04 0,0.06 0,0.09l-0.02 0.43c0,0.04 -0.01,0.05 -0.01,0.08 0,0.07 0,0.11 0,0.18l-0.03 0.34c0,0.03 0.01,0.04 0.01,0.08l-0.01 0.25c-0.01,0.12 -0.02,0.23 -0.02,0.35 0,0.08 0.04,0.18 0.09,0.25 0.07,0.09 0.22,0.21 0.36,0.21l2.9 0c0.13,0 0.24,-0.08 0.32,-0.15 0.15,-0.16 0.14,-0.32 0.13,-0.52l-0.02 -0.33c0,-0.12 0.01,-0.08 -0.01,-0.22 0,-0.02 0,-0.04 0,-0.06l-0.02 -0.49c-0.01,-0.07 0,-0.17 -0.01,-0.23 -0.01,-0.09 -0.01,-0.24 -0.01,-0.33l-0.02 -0.22c0,-0.02 0.01,-0.04 0,-0.06 0,-0.02 0,-0.02 0,-0.05 0,-0.02 0,-0.04 0,-0.06 0,-0.03 -0.01,-0.03 -0.01,-0.05 0,-0.07 0,-0.16 -0.01,-0.23 -0.02,-0.17 0.05,-0.31 -0.14,-0.55 -0.06,-0.07 -0.19,-0.16 -0.31,-0.16l-0.36 0c0,-0.19 -0.01,-0.3 -0.08,-0.48 -0.07,-0.17 -0.22,-0.34 -0.38,-0.43 -0.12,-0.08 -0.29,-0.15 -0.44,-0.15 -0.2,0 -0.39,0.02 -0.55,0.12 -0.08,0.05 -0.12,0.07 -0.2,0.15 -0.15,0.14 -0.11,0.12 -0.2,0.26 -0.04,0.08 -0.1,0.25 -0.1,0.37z"/>
    <path fill="black" d="M0.94 1.89c0,0.13 0.09,0.27 0.14,0.35 0.12,0.22 0.31,0.35 0.55,0.43 0.13,0.04 0.3,0.04 0.45,0.02 0.16,-0.02 0.33,-0.11 0.46,-0.21 0.01,-0.01 0.01,-0.02 0.03,-0.03 0.15,-0.11 0.37,-0.49 0.28,-0.66 -0.07,-0.11 -0.3,-0.15 -0.36,0.06 -0.01,0.05 -0.02,0.08 -0.04,0.13 -0.08,0.18 -0.29,0.35 -0.48,0.35 -0.16,0 -0.23,0 -0.37,-0.09 -0.3,-0.18 -0.22,-0.45 -0.39,-0.53 -0.12,-0.05 -0.27,0.05 -0.27,0.18z"/>
   </g>
  </g>
 </g>
</svg>
