<?xml version="1.0" encoding="UTF-8"?>
<!DOCTYPE svg PUBLIC "-//W3C//DTD SVG 1.0//EN" "http://www.w3.org/TR/2001/REC-SVG-20010904/DTD/svg10.dtd">
<!-- Creator: CorelDRAW 2018 (64 Bit Versão de avaliação) -->
<svg xmlns="http://www.w3.org/2000/svg" xml:space="preserve" width="22px" height="41px" version="1.0" shape-rendering="geometricPrecision" text-rendering="geometricPrecision" image-rendering="optimizeQuality" fill-rule="evenodd" clip-rule="evenodd"
viewBox="0 0 0.33 0.63"
 xmlns:xlink="http://www.w3.org/1999/xlink">
 <g id="Camada_x0020_1">
  <metadata id="CorelCorpID_0Corel-Layer"/>
  <path fill="black" d="M0.24 0.26l-0.14 0c-0.03,0 -0.03,0.04 0,0.04l0.01 0 0 0.01c0,0.03 0.04,0.03 0.04,0l0 -0.01 0.09 0c0.02,0 0.02,-0.04 0,-0.04zm-0.19 0.37l0.01 0c0.01,0 0.01,-0.01 0.01,-0.02l0 -0.02 0.19 0 0 0.02c0,0.01 0.01,0.02 0.01,0.02 0.03,0 0.02,-0.02 0.02,-0.04 0.02,0 0.04,-0.03 0.04,-0.05l0 -0.3c0,-0.02 -0.01,-0.04 -0.03,-0.05 -0.01,-0.01 -0.03,0 -0.04,0l0 -0.15c0.02,0 0.03,0 0.03,-0.02 0,-0.01 0,-0.02 -0.01,-0.02l-0.23 0c-0.02,0 -0.02,0.04 0,0.04l0.02 0 0 0.15 -0.02 0c-0.03,0 -0.05,0.02 -0.05,0.05l0 0.3c0,0.02 0.02,0.05 0.04,0.05 0,0 0,0.02 0,0.03 0,0 0.01,0.01 0.01,0.01zm0.17 -0.59l-0.11 0 0 0.15 0.11 0 0 -0.15z"/>
 </g>
</svg>
