<?xml version="1.0" encoding="UTF-8"?>
<!DOCTYPE svg PUBLIC "-//W3C//DTD SVG 1.0//EN" "http://www.w3.org/TR/2001/REC-SVG-20010904/DTD/svg10.dtd">
<!-- Creator: CorelDRAW 2018 (64 Bit Versão de avaliação) -->
<svg xmlns="http://www.w3.org/2000/svg" xml:space="preserve" width="47px" height="41px" version="1.0" shape-rendering="geometricPrecision" text-rendering="geometricPrecision" image-rendering="optimizeQuality" fill-rule="evenodd" clip-rule="evenodd"
viewBox="0 0 1.74 1.53"
 xmlns:xlink="http://www.w3.org/1999/xlink">
 <g id="Camada_x0020_1">
  <metadata id="CorelCorpID_0Corel-Layer"/>
  <path fill="#292929" d="M0.67 1.33l0.4 0c0.04,0 0.09,0.03 0.11,0.05 0.01,0.01 0.02,0.02 0.02,0.04l-0.66 0c0,-0.04 0.07,-0.09 0.13,-0.09zm0.2 -0.2c0.06,0 0.11,0.04 0.13,0.09l-0.26 0c0.01,-0.03 0,-0.02 0.02,-0.04l0.03 -0.02c0.02,-0.02 0.05,-0.03 0.08,-0.03zm-0.74 -0.31l0.36 0c0,0.03 -0.03,0.05 -0.05,0.07 -0.05,0.03 -0.11,0.02 -0.17,0.02 -0.05,0 -0.09,-0.02 -0.12,-0.05 0,-0.01 -0.01,-0.01 -0.01,-0.02l-0.01 -0.02zm1.12 0l0.36 0c-0.01,0.03 0,0.01 -0.02,0.04 -0.05,0.06 -0.14,0.05 -0.2,0.05 -0.04,0 -0.09,-0.02 -0.12,-0.05 -0.02,-0.02 -0.01,-0.01 -0.02,-0.04zm0.18 -0.51c0,0.02 0.01,0.04 0.02,0.05 0.04,0.1 0.08,0.19 0.12,0.3l0.02 0.05 -0.33 0c0.02,-0.03 0.11,-0.27 0.13,-0.3l0.03 -0.07c0,0 0,-0.01 0,-0.01l0.01 -0.02zm-1.12 0c0,0.01 0.15,0.36 0.16,0.4l-0.32 0c0.02,-0.05 0.05,-0.15 0.08,-0.2l0.07 -0.17c0,-0.01 0.01,-0.02 0.01,-0.03zm0.52 -0.15c0,-0.06 0.08,-0.06 0.08,0 0,0.01 0,0.02 -0.01,0.03 -0.03,0.03 -0.07,0 -0.07,-0.03zm-0.05 -0.14c-0.06,0.04 -0.05,0.08 -0.07,0.08l-0.61 0c0,0.12 -0.01,0.12 0.02,0.12l0.1 0 -0.06 0.13c-0.04,0.11 -0.09,0.23 -0.13,0.34 -0.02,0.03 -0.03,0.05 -0.03,0.08 0,0.08 0.04,0.15 0.08,0.19 0.08,0.07 0.18,0.07 0.29,0.07 0.07,0 0.13,-0.04 0.18,-0.08 0.05,-0.05 0.07,-0.12 0.07,-0.19 0,-0.02 -0.09,-0.24 -0.11,-0.27l-0.1 -0.24c0,-0.01 -0.01,-0.02 -0.01,-0.03l0.32 0c0,0 0.01,0.02 0.02,0.03 0.02,0.03 0.04,0.04 0.07,0.06l0 0.71c-0.04,0 -0.11,0.05 -0.13,0.08 -0.03,0.03 -0.05,0.06 -0.06,0.1 -0.01,0.02 0,0.02 -0.01,0.02 -0.01,0 -0.02,0.01 -0.02,0.01 -0.06,0.02 -0.1,0.05 -0.13,0.09 -0.06,0.07 -0.05,0.12 -0.05,0.21l0.92 0c0,-0.09 0,-0.14 -0.05,-0.21 -0.02,-0.03 -0.03,-0.04 -0.06,-0.06 -0.03,-0.02 -0.06,-0.03 -0.09,-0.04 -0.01,0 0,-0.01 -0.02,-0.05 -0.02,-0.03 -0.03,-0.05 -0.04,-0.07 -0.02,-0.02 -0.05,-0.04 -0.06,-0.05 -0.03,-0.02 -0.05,-0.02 -0.08,-0.03l0 -0.71c0.03,-0.02 0.08,-0.05 0.09,-0.09l0.32 0c-0.01,0.01 -0.01,0.02 -0.01,0.03 -0.04,0.07 -0.07,0.16 -0.1,0.24 -0.02,0.03 -0.11,0.26 -0.11,0.27 0,0.06 0.02,0.12 0.05,0.16 0.05,0.07 0.13,0.11 0.22,0.11 0.09,0 0.12,0 0.2,-0.03 0.03,-0.01 0.08,-0.05 0.1,-0.08 0.04,-0.05 0.05,-0.1 0.05,-0.16 0,-0.02 -0.1,-0.25 -0.11,-0.27l-0.11 -0.27 0.09 0c0.04,0 0.03,0.01 0.03,-0.12l-0.61 0c-0.01,0 -0.02,-0.02 -0.03,-0.03 -0.01,-0.02 -0.02,-0.03 -0.04,-0.05 -0.06,-0.03 -0.13,-0.03 -0.18,0z"/>
 </g>
</svg>
