<?xml version="1.0" encoding="UTF-8"?>
<!DOCTYPE svg PUBLIC "-//W3C//DTD SVG 1.0//EN" "http://www.w3.org/TR/2001/REC-SVG-20010904/DTD/svg10.dtd">
<!-- Creator: CorelDRAW 2018 (64 Bit Versão de avaliação) -->
<svg xmlns="http://www.w3.org/2000/svg" xml:space="preserve" width="41px" height="41px" version="1.0" shape-rendering="geometricPrecision" text-rendering="geometricPrecision" image-rendering="optimizeQuality" fill-rule="evenodd" clip-rule="evenodd"
viewBox="0 0 1.01 1.01"
 xmlns:xlink="http://www.w3.org/1999/xlink">
 <g id="Camada_x0020_1">
  <metadata id="CorelCorpID_0Corel-Layer"/>
  <path fill="#292929" d="M0.79 0.64l0.06 0 0 0.28 -0.06 0 0 -0.28zm-0.16 0l0.07 0 0 0.28 -0.07 0 0 -0.28zm-0.15 0l0.06 0 0 0.28 -0.06 0 0 -0.28zm-0.16 0l0.06 0 0 0.28 -0.06 0 0 -0.28zm-0.16 0l0.07 0 0 0.28 -0.07 0 0 -0.28zm0.16 -0.31l0.38 0 0 0.22 -0.38 0 0 -0.22zm0.23 -0.23c0.04,0 0.07,0.03 0.09,0.05 0.02,0.01 0.04,0.05 0.05,0.08l-0.14 0 0 -0.13zm-0.09 0l0 0.13 -0.14 0c0.02,-0.02 0.01,-0.04 0.05,-0.08 0.02,-0.02 0.05,-0.05 0.09,-0.05zm-0.23 0.15l0 0.3 -0.19 0c-0.06,0 -0.05,0.09 -0.01,0.09l0.04 0 0 0.28 -0.04 0c-0.04,0 -0.05,0.09 0.01,0.09l0.93 0c0.06,0 0.06,-0.09 0,-0.09l-0.03 0 0 -0.28c0.03,0 0.07,0 0.07,-0.05 0,-0.02 -0.02,-0.04 -0.04,-0.04l-0.18 0 0 -0.27c0,-0.08 -0.04,-0.15 -0.08,-0.2 -0.02,-0.02 -0.06,-0.04 -0.08,-0.05 -0.1,-0.05 -0.24,-0.03 -0.31,0.04 -0.05,0.04 -0.09,0.12 -0.09,0.18z"/>
 </g>
</svg>
