<?xml version="1.0" encoding="UTF-8"?>
<!DOCTYPE svg PUBLIC "-//W3C//DTD SVG 1.0//EN" "http://www.w3.org/TR/2001/REC-SVG-20010904/DTD/svg10.dtd">
<!-- Creator: CorelDRAW 2018 (64 Bit Versão de avaliação) -->
<svg xmlns="http://www.w3.org/2000/svg" xml:space="preserve" width="41px" height="41px" version="1.0" shape-rendering="geometricPrecision" text-rendering="geometricPrecision" image-rendering="optimizeQuality" fill-rule="evenodd" clip-rule="evenodd"
viewBox="0 0 0.82 0.82"
 xmlns:xlink="http://www.w3.org/1999/xlink">
 <g id="Camada_x0020_1">
  <metadata id="CorelCorpID_0Corel-Layer"/>
  <g id="_2751335898080">
   <g>
    <path fill="black" d="M0.38 0.31l0.06 0 0 0.32 -0.06 0 0 -0.32zm-0.13 0l0.06 0 0 0.32 -0.06 0 0 -0.32zm-0.13 0l0.07 0 0 0.32 -0.07 0 0 -0.32zm-0.06 -0.12c0,-0.01 0.01,-0.01 0.01,-0.01l0.34 -0.11 0.33 0.1c0.03,0.01 0.02,0 0.02,0.08l-0.7 0 0 -0.06zm-0.06 -0.03l0 0.12c0,0.02 0.02,0.03 0.03,0.03l0.03 0 0 0.32 -0.03 0c-0.01,0 -0.03,0.02 -0.03,0.03l0 0.14c0,0.01 0.02,0.02 0.03,0.02l0.52 0c0.04,0 0.04,-0.06 0,-0.06l-0.49 0 0 -0.06 0.42 0c0.01,0 0.03,-0.02 0.03,-0.03l0 -0.36 0.16 0 0 0.06c-0.01,0 -0.03,0.01 -0.03,0.02 -0.09,0.05 -0.06,0.19 0.04,0.21 0.02,0 0.04,0 0.06,0.01 0.01,0.02 0.02,0.03 0.01,0.06 0,0.03 -0.05,0.05 -0.08,0.02 -0.02,-0.02 -0.01,-0.03 -0.05,-0.03 -0.01,0 -0.04,0.01 -0.01,0.06 0.01,0.01 0.04,0.04 0.06,0.04 0,0.03 0,0.06 0.04,0.06 0.03,0 0.03,-0.04 0.03,-0.06 0.02,0 0.04,-0.02 0.06,-0.03 0.04,-0.05 0.03,-0.13 -0.03,-0.17 -0.04,-0.04 -0.08,-0.01 -0.1,-0.04 -0.03,-0.03 -0.02,-0.07 0.02,-0.09 0.02,0 0.05,0.01 0.06,0.03 0.01,0.01 0.01,0.02 0.03,0.02 0.03,0 0.05,-0.02 0.02,-0.06 0,-0.01 -0.01,-0.01 -0.01,-0.02 -0.01,-0.01 -0.04,-0.03 -0.05,-0.03l0 -0.06 0.06 0c0.01,0 0.02,-0.01 0.02,-0.03l0 -0.12c0,-0.03 -0.01,-0.03 -0.03,-0.04l-0.32 -0.1c-0.07,-0.03 -0.05,-0.02 -0.11,0 -0.02,0 -0.04,0.01 -0.06,0.01l-0.21 0.07c-0.02,0.01 -0.04,0.02 -0.05,0.02 -0.02,0.01 -0.04,0.01 -0.04,0.04z"/>
    <path fill="black" d="M0.38 0.17c0,0.02 0.01,0.03 0.04,0.03 0.01,0 0.02,-0.02 0.02,-0.03l0 -0.01c0,-0.01 -0.01,-0.02 -0.03,-0.02 -0.02,0 -0.03,0.01 -0.03,0.03z"/>
   </g>
  </g>
 </g>
</svg>
