<?xml version="1.0" encoding="UTF-8"?>
<!DOCTYPE svg PUBLIC "-//W3C//DTD SVG 1.0//EN" "http://www.w3.org/TR/2001/REC-SVG-20010904/DTD/svg10.dtd">
<!-- Creator: CorelDRAW 2018 (64 Bit Versão de avaliação) -->
<svg xmlns="http://www.w3.org/2000/svg" xml:space="preserve" width="40px" height="34px" version="1.0" shape-rendering="geometricPrecision" text-rendering="geometricPrecision" image-rendering="optimizeQuality" fill-rule="evenodd" clip-rule="evenodd"
viewBox="0 0 5.49 4.62"
 xmlns:xlink="http://www.w3.org/1999/xlink">
 <g id="Camada_x0020_1">
  <metadata id="CorelCorpID_0Corel-Layer"/>
  <g id="_2171598502464">
   <path fill="black" d="M0.28 4.02c-0.24,0.02 -0.34,0.27 -0.24,0.44 0.04,0.07 0.12,0.14 0.23,0.15 0.1,0.02 0.26,0.01 0.38,0.01l4.18 0c0.12,0 0.27,0 0.38,0 0.21,-0.02 0.35,-0.25 0.24,-0.45 -0.1,-0.18 -0.26,-0.16 -0.42,-0.16 -1.52,0 -3.04,0 -4.56,0 -0.06,0 -0.13,0 -0.19,0.01z"/>
   <path fill="black" d="M0.01 0.36c0.02,0.1 0.08,0.18 0.16,0.21 0.09,0.05 0.23,0.03 0.35,0.03l4.56 0c0.15,0 0.21,0.01 0.3,-0.07 0.16,-0.12 0.15,-0.39 -0.06,-0.5 -0.09,-0.04 -0.23,-0.03 -0.35,-0.03l-4.56 0c-0.15,0 -0.21,0 -0.31,0.08 -0.05,0.05 -0.12,0.16 -0.09,0.28z"/>
   <path fill="black" d="M0.26 2.01c-0.23,0.04 -0.32,0.29 -0.21,0.46 0.04,0.07 0.13,0.14 0.24,0.14 0.12,0 0.25,0 0.38,0l4.37 0c0.06,0 0.14,0.01 0.19,0 0.2,-0.03 0.34,-0.26 0.21,-0.46 -0.04,-0.07 -0.13,-0.14 -0.24,-0.14 -0.12,0 -0.25,0 -0.38,0 -1.46,0 -2.92,0 -4.37,0 -0.06,0 -0.14,-0.01 -0.19,0z"/>
  </g>
 </g>
</svg>
