<?xml version="1.0" encoding="UTF-8"?>
<!DOCTYPE svg PUBLIC "-//W3C//DTD SVG 1.0//EN" "http://www.w3.org/TR/2001/REC-SVG-20010904/DTD/svg10.dtd">
<!-- Creator: CorelDRAW 2018 (64 Bit Versão de avaliação) -->
<svg xmlns="http://www.w3.org/2000/svg" xml:space="preserve" width="40px" height="41px" version="1.0" shape-rendering="geometricPrecision" text-rendering="geometricPrecision" image-rendering="optimizeQuality" fill-rule="evenodd" clip-rule="evenodd"
viewBox="0 0 1.82 1.86"
 xmlns:xlink="http://www.w3.org/1999/xlink">
 <g id="Camada_x0020_1">
  <metadata id="CorelCorpID_0Corel-Layer"/>
  <path fill="black" d="M0.88 1.06c-0.01,0 -0.02,0 -0.03,-0.01 -0.03,-0.03 0.02,-0.06 0.03,-0.07l0.51 -0.52c0.02,-0.01 0.03,-0.02 0.04,-0.04 0.03,-0.02 0.02,-0.03 0.06,-0.03 0.03,0 0.03,0.02 0.03,0.04 0,0.01 -0.02,0.03 -0.04,0.04l-0.53 0.54c-0.01,0 -0.01,0.01 -0.01,0.01 -0.02,0.01 -0.04,0.04 -0.06,0.04zm0.79 0.22c0,0.12 0.15,0.11 0.15,0.01l0 0c0,-0.02 0,-0.04 -0.02,-0.06 -0.03,-0.02 -0.08,-0.02 -0.11,0 -0.01,0.01 -0.02,0.04 -0.02,0.05zm-0.48 -0.17c0,0.03 0,0.05 0.02,0.07l0 0.01c0,0 0,0 0,0 0.05,0.04 0.13,0.01 0.13,-0.07 0,-0.04 -0.06,-0.1 -0.13,-0.05 -0.01,0.01 -0.02,0.02 -0.02,0.04zm0.24 0.09c0,0.05 0.02,0.08 0.07,0.09 0.02,0 0.06,-0.02 0.07,-0.04 0.03,-0.05 0,-0.12 -0.07,-0.12 -0.02,0 -0.04,0.01 -0.05,0.02 -0.01,0.01 -0.02,0.03 -0.02,0.05zm0.08 0.24c0,0.03 0,0.04 0.02,0.07 0.05,0.05 0.13,0 0.13,-0.05 0,-0.02 0,-0.05 -0.02,-0.07 -0.03,-0.02 -0.08,-0.03 -0.11,0 -0.01,0.01 -0.02,0.04 -0.02,0.05zm-0.1 0.25l0.02 0c0.04,0 0.07,-0.04 0.07,-0.08 0,-0.06 -0.07,-0.1 -0.13,-0.05 -0.05,0.04 -0.01,0.13 0.04,0.13zm-0.15 -0.32c0,0.02 0.01,0.04 0.03,0.05 0.03,0.04 0.09,0.03 0.11,0 0.07,-0.09 -0.05,-0.17 -0.11,-0.1 -0.01,0.01 -0.03,0.03 -0.03,0.05zm0.16 -0.33c0.03,0 0.05,-0.01 0.06,-0.02 0.05,-0.05 0.01,-0.13 -0.06,-0.13 -0.07,0 -0.1,0.09 -0.05,0.13 0.01,0.01 0.03,0.02 0.05,0.02zm0.17 0.01c0,0.04 0.03,0.07 0.07,0.08 0.05,0 0.08,-0.04 0.08,-0.08 0,-0.04 -0.03,-0.08 -0.08,-0.08 -0.04,0 -0.07,0.04 -0.07,0.08zm-0.08 -0.24c0,0.04 0.04,0.07 0.07,0.07 0.07,0 0.11,-0.07 0.06,-0.13 -0.04,-0.05 -0.13,-0.02 -0.13,0.06zm-0.71 0.02c-0.01,-0.03 -0.02,-0.05 -0.03,-0.08 -0.03,-0.09 -0.03,-0.17 0.01,-0.25 0.02,-0.03 0.03,-0.06 0.05,-0.08 0.02,-0.02 0.01,-0.01 0.03,-0.03 0.03,-0.02 0.04,-0.04 0.09,-0.06 0.08,-0.04 0.17,-0.04 0.26,-0.02 0.02,0.01 0.06,0.03 0.07,0.04 -0.01,0.01 -0.4,0.4 -0.45,0.45 -0.01,0.01 -0.02,0.03 -0.03,0.03zm-0.57 -0.52l0 1.4 -0.08 0 0 -1.51c0,-0.03 0.02,-0.05 0.05,-0.05l0.43 0c0.04,0 0.06,0.03 0.08,0.05 0.01,0.01 0.06,0.05 0.06,0.06 -0.01,0.01 -0.03,0.03 -0.04,0.04 0,0 -0.01,0.01 -0.01,0.01 -0.01,0 -0.02,-0.02 -0.03,-0.02 -0.02,-0.03 -0.05,-0.06 -0.1,-0.06l-0.28 0c-0.05,0 -0.08,0.03 -0.08,0.08zm-0.23 -0.15l0 1.64c0,0.03 0.04,0.06 0.06,0.06l0.26 0c0.02,0 0.06,-0.03 0.06,-0.07l0 -1.41 0.18 0c0.02,0 0.06,0.06 0.07,0.07l-0.01 0.04c-0.02,0.06 -0.02,0.12 -0.02,0.18 0,0.08 0.03,0.16 0.06,0.23 0.01,0.01 0.01,0.01 0.02,0.03l0.02 0.02c-0.01,0.03 -0.01,0.06 -0.01,0.09 0,0.12 0.13,0.22 0.26,0.17 0.02,-0.01 0.05,-0.03 0.06,-0.04l0.6 -0.6c0.02,-0.02 0.03,-0.04 0.04,-0.06 0.03,-0.05 0.03,-0.12 0.01,-0.17 -0.01,-0.02 -0.03,-0.04 -0.04,-0.05 -0.06,-0.06 -0.15,-0.08 -0.21,-0.05 -0.03,-0.02 -0.03,-0.02 -0.08,-0.04 0,-0.01 -0.01,-0.01 -0.01,-0.01 -0.01,-0.01 -0.02,-0.01 -0.04,-0.02 -0.11,-0.04 -0.27,-0.04 -0.38,0.01 -0.01,-0.02 -0.03,-0.04 -0.05,-0.05 0,-0.01 0,-0.01 -0.01,-0.02l-0.04 -0.04c0,0 -0.01,0 -0.01,-0.01 -0.03,-0.03 -0.08,-0.06 -0.13,-0.06l-0.5 0c-0.05,0 -0.11,0.05 -0.14,0.1 -0.01,0.02 -0.02,0.04 -0.02,0.06z"/>
 </g>
</svg>
