<?xml version="1.0" encoding="UTF-8"?>
<!DOCTYPE svg PUBLIC "-//W3C//DTD SVG 1.0//EN" "http://www.w3.org/TR/2001/REC-SVG-20010904/DTD/svg10.dtd">
<!-- Creator: CorelDRAW 2018 (64 Bit Versão de avaliação) -->
<svg xmlns="http://www.w3.org/2000/svg" xml:space="preserve" width="38px" height="41px" version="1.0" shape-rendering="geometricPrecision" text-rendering="geometricPrecision" image-rendering="optimizeQuality" fill-rule="evenodd" clip-rule="evenodd"
viewBox="0 0 1.34 1.46"
 xmlns:xlink="http://www.w3.org/1999/xlink">
 <g id="Camada_x0020_1">
  <metadata id="CorelCorpID_0Corel-Layer"/>
  <g id="_2290010184832">
   <g>
    <path fill="#292929" d="M0.65 1.36l0.07 -0.16 0.43 0c0,0.03 0.01,0.08 0.01,0.14 0,0.03 -0.08,0.02 -0.11,0.02l-0.4 0zm-0.26 0c-0.04,0 -0.08,0 -0.11,0 -0.11,0 -0.11,0.02 -0.09,-0.11 0.01,-0.06 -0.01,-0.05 0.06,-0.05 0.07,0 0.13,0 0.2,0 0,0.01 -0.02,0.07 -0.03,0.08 -0.01,0.01 -0.01,0.03 -0.02,0.04 0,0.01 -0.01,0.03 -0.01,0.04zm0.15 0l-0.04 0c0,-0.01 0.01,-0.02 0.01,-0.04l0.06 -0.12 0.04 0c-0.02,0.03 -0.06,0.13 -0.07,0.16zm-0.41 -0.31l1.08 0 0 0.05 -1.08 0 0 -0.05zm-0.03 -0.55c0,-0.09 0.08,-0.13 0.15,-0.17l0.27 0.62 -0.34 0c0,-0.02 0,-0.04 -0.01,-0.06l-0.03 -0.16c-0.01,-0.04 -0.01,-0.08 -0.02,-0.11l-0.02 -0.12zm0.23 -0.24c0,-0.03 0.02,-0.04 0.02,-0.07 0.01,0.01 0.01,0.03 0.02,0.04 0.01,0.02 0.01,0.03 0.02,0.04l0.07 0.17c0.01,0.03 0.03,0.06 0.04,0.09l0.11 0.25c0.01,0.02 0.01,0.03 0.01,0.04 -0.01,0.02 -0.02,0.03 -0.02,0.05l-0.14 -0.31c-0.01,-0.02 -0.02,-0.05 -0.03,-0.07 -0.01,-0.03 -0.02,-0.05 -0.03,-0.08 -0.01,-0.02 -0.07,-0.14 -0.07,-0.15zm0.57 0.28c0,0.03 0.05,0.07 0.09,0.03 0.01,-0.02 0.01,-0.02 0.01,-0.03 0.02,-0.03 0.09,-0.19 0.09,-0.21 0.01,0 0.02,0.01 0.03,0.01 0.04,0.03 0.12,0.06 0.12,0.15 0,0.03 0,0.07 -0.01,0.1 -0.02,0.11 -0.05,0.23 -0.06,0.34 -0.01,0.03 -0.01,0.02 -0.12,0.02 -0.07,0 -0.15,0 -0.22,0 0.01,-0.04 0.08,-0.17 0.07,-0.2 0,-0.04 -0.07,-0.07 -0.1,0l-0.08 0.2 -0.04 0c0,-0.03 0.31,-0.73 0.31,-0.75 0.01,0 0.03,0.05 0.03,0.05 0,0.02 -0.03,0.06 -0.03,0.07 -0.02,0.04 -0.09,0.2 -0.09,0.22zm-0.41 -0.29l0.36 0c0,0.03 -0.17,0.41 -0.17,0.43l-0.01 0c0,-0.02 -0.07,-0.18 -0.09,-0.21l-0.04 -0.11c-0.01,-0.02 -0.04,-0.09 -0.05,-0.11zm-0.06 -0.14c0.04,-0.02 0.19,0 0.25,-0.01l0.05 0c0.06,0 0.14,0 0.19,0.01 -0.01,0.01 -0.01,0.03 -0.02,0.04l-0.45 0 -0.02 -0.04zm-0.43 0.36c0,0.1 0.02,0.17 0.04,0.26 0.01,0.04 0.01,0.08 0.02,0.12l0.02 0.11c-0.06,0.04 -0.05,0.07 -0.05,0.14 0,0.05 0.03,0.09 0.07,0.1 -0.01,0.01 -0.02,0.12 -0.02,0.14 0,0.07 0.06,0.12 0.12,0.12l0.94 0c0.09,0 0.14,-0.07 0.12,-0.17 0,-0.03 -0.01,-0.07 -0.01,-0.09 0.03,-0.01 0.06,-0.05 0.06,-0.09 0,-0.07 0.01,-0.12 -0.05,-0.15 0.02,-0.08 0.05,-0.23 0.06,-0.32 0.03,-0.13 0.06,-0.23 -0.08,-0.34 -0.02,-0.01 -0.04,-0.02 -0.06,-0.04 -0.09,-0.05 -0.06,-0.03 -0.09,-0.1 -0.03,-0.09 -0.11,-0.16 -0.22,-0.16l-0.4 0c-0.08,0 -0.12,0.03 -0.16,0.07 -0.06,0.07 -0.06,0.13 -0.08,0.16 -0.01,0 -0.12,0.06 -0.15,0.09 -0.03,0.02 -0.08,0.1 -0.08,0.15z"/>
    <path fill="#292929" d="M0.85 0.64c0,0.08 0.1,0.08 0.1,0.01 0,-0.07 -0.1,-0.07 -0.1,-0.01z"/>
   </g>
  </g>
 </g>
</svg>
