<?xml version="1.0" encoding="UTF-8"?>
<!DOCTYPE svg PUBLIC "-//W3C//DTD SVG 1.0//EN" "http://www.w3.org/TR/2001/REC-SVG-20010904/DTD/svg10.dtd">
<!-- Creator: CorelDRAW 2018 (64 Bit Versão de avaliação) -->
<svg xmlns="http://www.w3.org/2000/svg" xml:space="preserve" width="35px" height="31px" version="1.0" shape-rendering="geometricPrecision" text-rendering="geometricPrecision" image-rendering="optimizeQuality" fill-rule="evenodd" clip-rule="evenodd"
viewBox="0 0 1.4 1.23"
 xmlns:xlink="http://www.w3.org/1999/xlink">
 <g id="Camada_x0020_1">
  <metadata id="CorelCorpID_0Corel-Layer"/>
  <g id="_2707565019184">
   <g>
    <path fill="black" d="M0.08 0.59c0.01,0 0.06,-0.04 0.12,-0.07 0.02,0 0.04,-0.01 0.05,-0.02 0,-0.06 -0.01,-0.13 0.05,-0.16 0.01,-0.01 0.03,-0.02 0.05,-0.02l0.2 0c0.07,0 0.11,0.05 0.11,0.11l0 0.06 0.08 0c0,-0.04 0,-0.08 0.01,-0.11 0.01,-0.02 0.03,-0.04 0.05,-0.05 0.03,-0.01 0.19,-0.01 0.24,-0.01 0.04,0 0.06,0.01 0.08,0.04 0.04,0.03 0.03,0.09 0.03,0.15 0.04,0 0.13,0.06 0.16,0.08l0 -0.43c0,-0.06 0.01,-0.07 -0.06,-0.09 -0.16,-0.04 -0.33,-0.07 -0.5,-0.07 -0.18,0 -0.32,0.01 -0.5,0.04 -0.03,0.01 -0.14,0.03 -0.16,0.05 -0.01,0.02 -0.01,0.04 -0.01,0.07l0 0.43z"/>
    <path fill="black" d="M0 0.9l1.39 0c0,-0.05 -0.02,-0.1 -0.04,-0.13 -0.01,-0.03 -0.05,-0.08 -0.07,-0.1 -0.02,-0.02 -0.04,-0.03 -0.07,-0.05 -0.01,-0.01 -0.02,-0.01 -0.03,-0.02 -0.03,-0.01 -0.09,-0.03 -0.14,-0.03l-0.69 0c-0.08,0 -0.15,0.04 -0.21,0.08 -0.04,0.03 -0.08,0.08 -0.1,0.12 -0.01,0.03 -0.04,0.08 -0.04,0.13z"/>
    <path fill="black" d="M0 1.19c0,0.05 0.08,0.05 0.08,0l0 -0.05 1.23 0 0 0.05c0,0.05 0.09,0.05 0.09,0l0 -0.21 -1.4 0 0 0.21z"/>
    <path fill="black" d="M0.82 0.42l0 0.07 0.2 0c0.02,0 0.03,0 0.05,0l0 -0.07c0,-0.01 -0.01,-0.01 -0.01,-0.01l-0.23 0c0,0 -0.01,0 -0.01,0.01z"/>
    <path fill="black" d="M0.33 0.42l0 0.07c0.02,0 0.03,0 0.05,0l0.2 0 0 -0.07c0,-0.01 -0.01,-0.01 -0.02,-0.01l-0.22 0c-0.01,0 -0.01,0 -0.01,0.01z"/>
   </g>
  </g>
 </g>
</svg>
