<?xml version="1.0" encoding="UTF-8"?>
<!DOCTYPE svg PUBLIC "-//W3C//DTD SVG 1.0//EN" "http://www.w3.org/TR/2001/REC-SVG-20010904/DTD/svg10.dtd">
<!-- Creator: CorelDRAW 2018 (64 Bit Versão de avaliação) -->
<svg xmlns="http://www.w3.org/2000/svg" xml:space="preserve" width="41px" height="41px" version="1.0" shape-rendering="geometricPrecision" text-rendering="geometricPrecision" image-rendering="optimizeQuality" fill-rule="evenodd" clip-rule="evenodd"
viewBox="0 0 1.01 1.01"
 xmlns:xlink="http://www.w3.org/1999/xlink">
 <g id="Camada_x0020_1">
  <metadata id="CorelCorpID_0Corel-Layer"/>
  <g id="_2751445109920">
   <g>
    <path fill="#292929" d="M0.68 0.65l0 -0.01 0.08 -0.04c0.01,-0.01 0.01,0 0.02,0l-0.1 0.05zm-0.17 -0.65l0.01 0c0.01,0 0.02,0.01 0.04,0.03l0.19 0.19c0.02,0.02 0.07,0.06 0.07,0.08 0,0.06 -0.08,0.04 -0.14,0.04l0 0.21 0.04 -0.02c0.07,-0.04 0.14,0.01 0.14,0.05 0.05,0 0.08,0.03 0.09,0.08 0,0.02 0,0.01 0.01,0.02 0.03,0.02 0.05,0.04 0.05,0.08l0 0.01c0,0.03 -0.02,0.06 -0.05,0.08 -0.01,0.01 -0.02,0.01 -0.02,0.02l-0.06 0.03c-0.08,0.04 -0.21,0.11 -0.31,0.11 -0.16,0 -0.2,-0.05 -0.31,-0.06 -0.01,0 -0.04,-0.01 -0.05,-0.01 -0.04,-0.02 -0.02,-0.08 0.01,-0.08 0.04,0 0.06,0.01 0.09,0.02 0.09,0.02 0.16,0.05 0.24,0.05 0.09,0 0.23,-0.06 0.3,-0.11 0.03,-0.01 0.08,-0.03 0.08,-0.05 0,-0.02 -0.01,-0.03 -0.02,-0.03 -0.02,0 -0.06,0.03 -0.08,0.04l-0.08 0.03c-0.17,0.08 -0.2,0.05 -0.36,-0.01 -0.02,0 -0.09,-0.02 -0.1,-0.03 -0.02,-0.01 -0.02,-0.04 0,-0.06 0.02,-0.02 0.06,0 0.08,0.01l0.11 0.03c0.02,0.01 0.03,-0.01 0.03,-0.02 0,-0.02 -0.01,-0.02 -0.02,-0.03l-0.08 -0.03c-0.05,-0.02 -0.08,-0.03 -0.13,-0.04l-0.1 -0.01 0 0.3c0,0.01 -0.01,0.04 -0.03,0.04l-0.12 0c-0.01,0 -0.03,-0.02 -0.03,-0.04 0,-0.05 0.04,-0.04 0.1,-0.04l0 -0.3 -0.02 0 0 0.24c0,0.07 -0.08,0.05 -0.08,0.01l0 -0.3c0,-0.01 0.02,-0.03 0.03,-0.03l0.12 0c0.02,0 0.03,0.02 0.03,0.04 0.09,0 0.15,0.02 0.16,0.02l0 -0.22 -0.08 0c-0.02,0 -0.05,-0.01 -0.05,-0.04 0,-0.02 0.02,-0.03 0.03,-0.04l0.23 -0.23c0.01,-0.02 0.03,-0.03 0.04,-0.03zm0.1 0.3l0 0.42c0,0.02 0.01,0.03 0.04,0.03 0.03,0 0.17,-0.09 0.21,-0.09 0.01,0 0,0 0.01,0 0,0.01 0,0.01 -0.01,0.01 -0.08,0.03 -0.2,0.11 -0.28,0.11 0.02,-0.03 0.02,-0.08 -0.01,-0.12 -0.02,-0.02 -0.13,-0.07 -0.15,-0.07 0,-0.03 0,-0.28 0,-0.3 -0.01,-0.03 -0.04,-0.03 -0.07,-0.03 0.02,-0.03 0.15,-0.15 0.16,-0.17l0.17 0.17c-0.02,0 -0.07,0 -0.07,0.04z"/>
    <path fill="#292929" d="M0.11 0.11l0 0.01c-0.09,0 -0.07,0.08 -0.02,0.08l0.02 0c0,0.04 0,0.06 0.04,0.06 0.03,0 0.04,-0.03 0.04,-0.06 0.03,0 0.05,0 0.05,-0.04 0,-0.03 -0.02,-0.04 -0.05,-0.04 0,-0.08 -0.08,-0.07 -0.08,-0.01z"/>
    <path fill="#292929" d="M0.84 0.36l0 0.02c-0.02,0 -0.05,0 -0.05,0.03 -0.01,0.02 0.01,0.05 0.03,0.05l0.02 0c0,0.03 0.01,0.05 0.05,0.05 0.03,0 0.03,-0.03 0.03,-0.05l0.03 0c0.04,0 0.05,-0.08 -0.01,-0.08l-0.02 0c0,-0.04 0,-0.06 -0.04,-0.06 -0.02,0 -0.04,0.02 -0.04,0.04z"/>
   </g>
  </g>
 </g>
</svg>
