<?xml version="1.0" encoding="UTF-8"?>
<!DOCTYPE svg PUBLIC "-//W3C//DTD SVG 1.0//EN" "http://www.w3.org/TR/2001/REC-SVG-20010904/DTD/svg10.dtd">
<!-- Creator: CorelDRAW 2018 (64 Bit Versão de avaliação) -->
<svg xmlns="http://www.w3.org/2000/svg" xml:space="preserve" width="39px" height="41px" version="1.0" shape-rendering="geometricPrecision" text-rendering="geometricPrecision" image-rendering="optimizeQuality" fill-rule="evenodd" clip-rule="evenodd"
viewBox="0 0 15.41 16.08"
 xmlns:xlink="http://www.w3.org/1999/xlink">
 <g id="Camada_x0020_1">
  <metadata id="CorelCorpID_0Corel-Layer"/>
  <path fill="#292929" d="M5.18 13.95l0 0.83 -3.26 0 0 -7.6 11.57 0c0,1.15 -0.58,2.02 -1.24,2.52 -1.84,1.37 -3.49,-0.18 -5.61,1.41 -0.78,0.58 -1.46,1.58 -1.46,2.84zm-5.18 -8.26l0 -0.11c0.01,-0.2 0.06,-0.41 0.15,-0.58 0.44,-0.81 1.03,-0.82 1.81,-0.82l0 -0.92c0,-0.62 0.47,-1.09 1.09,-1.09l0 -0.83c0,-0.77 0.47,-1.34 1.04,-1.34l4.14 0c0.56,0 0.8,1.02 0.13,1.26 -0.2,0.07 -0.65,0.02 -0.93,0.03 -0.28,0.02 -0.6,0.08 -0.95,0.03 -0.35,-0.04 -1.65,-0.03 -2.1,-0.03l0 0.92c0.48,0.04 0.86,0.36 1.12,0.64 0.31,0.33 0.43,0.86 0.43,1.33l8.1 0c0.34,0 0.76,0.22 0.93,0.4 0.41,0.46 0.45,0.66 0.45,1.18 0,0.38 -0.29,1.01 -0.59,1.09 0,0.39 -0.03,0.89 -0.09,1.24 -0.28,1.61 -1.62,3.02 -3.26,3.43 -1.71,0.42 -3.05,-0.33 -4.22,0.79 -0.8,0.76 -0.74,1.5 -0.74,2.47 0.82,0.02 0.67,1.3 0.05,1.3l-6.02 0c-0.64,0 -0.83,-1.3 0.09,-1.3l0 -7.81c0,-0.11 -0.15,-0.2 -0.22,-0.28 -0.25,-0.25 -0.4,-0.62 -0.41,-1zm1.34 -0.01c0,-0.1 0.07,-0.17 0.16,-0.17l12.45 0c0.18,0 0.18,0.34 0,0.34l-12.45 0c-0.09,0 -0.16,-0.07 -0.16,-0.17zm1.96 -2.17l0.79 0c0.25,0 0.5,0.25 0.5,0.5l0 0.17 -1.29 0 0 -0.67z"/>
 </g>
</svg>
