<?xml version="1.0" encoding="UTF-8"?>
<!DOCTYPE svg PUBLIC "-//W3C//DTD SVG 1.0//EN" "http://www.w3.org/TR/2001/REC-SVG-20010904/DTD/svg10.dtd">
<!-- Creator: CorelDRAW 2018 (64 Bit Versão de avaliação) -->
<svg xmlns="http://www.w3.org/2000/svg" xml:space="preserve" width="53px" height="34px" version="1.0" shape-rendering="geometricPrecision" text-rendering="geometricPrecision" image-rendering="optimizeQuality" fill-rule="evenodd" clip-rule="evenodd"
viewBox="0 0 5.87 3.76"
 xmlns:xlink="http://www.w3.org/1999/xlink">
 <g id="Camada_x0020_1">
  <metadata id="CorelCorpID_0Corel-Layer"/>
  <path fill="black" d="M4.16 1.98c0.03,0.06 0.23,0.38 0.23,0.44l-0.49 0c0.03,-0.14 0.16,-0.41 0.26,-0.44zm1.71 0.56l0 0.1c-0.01,0.34 -0.17,0.67 -0.5,0.91 -0.44,0.32 -1.07,0.27 -1.46,-0.09 -0.08,-0.08 -0.18,-0.2 -0.23,-0.3 -0.06,-0.11 -0.14,-0.27 -0.14,-0.4l-0.59 0c-0.11,0 -0.14,-0.06 -0.19,-0.12l-0.5 -0.72c-0.05,-0.07 -0.33,-0.49 -0.38,-0.52 -0.02,0.08 -0.06,0.13 -0.08,0.2 0.12,0.07 0.2,0.17 0.29,0.27 0.03,0.03 0.04,0.06 0.07,0.1 0.14,0.2 0.18,0.41 0.18,0.67 0,0.39 -0.24,0.72 -0.5,0.91 -0.33,0.24 -0.81,0.28 -1.18,0.1 -0.27,-0.14 -0.42,-0.3 -0.55,-0.57 -0.07,-0.13 -0.1,-0.28 -0.11,-0.43l0 -0.1c0.01,-0.23 0.08,-0.46 0.21,-0.64 0.21,-0.28 0.54,-0.49 0.9,-0.49 0.29,0 0.21,0.02 0.37,0.04l0.48 -1.1c-0.08,0 -0.17,0 -0.25,0 -0.34,-0.02 -0.24,-0.36 -0.07,-0.36l0.6 0c0.1,0 0.17,0.09 0.17,0.16 0,0.08 -0.1,0.29 -0.14,0.37 -0.05,0.1 -0.09,0.23 -0.15,0.33l1.54 0 0 -0.18 -0.27 0c-0.2,0 -0.19,-0.35 0,-0.35l0.7 0c0.15,0 0.22,0.24 0.06,0.33 -0.06,0.03 -0.15,-0.01 -0.15,0.05l0 0.24c0,0.05 0.18,0.35 0.21,0.41 0.03,0.05 0.05,0.09 0.08,0.13 0.05,-0.01 0.1,-0.03 0.17,-0.05 0.23,-0.05 0.54,-0.01 0.75,0.09 0.41,0.2 0.64,0.6 0.66,1.01zm-1.41 -0.74c0.07,0 0.19,-0.05 0.38,-0.02 0.12,0.02 0.23,0.07 0.31,0.13 0.43,0.28 0.49,0.87 0.14,1.25 -0.12,0.13 -0.34,0.24 -0.53,0.24 -0.23,0 -0.43,-0.03 -0.61,-0.2 -0.14,-0.14 -0.2,-0.22 -0.25,-0.44l0.83 0c0.11,-0.02 0.14,-0.1 0.14,-0.19 0,-0.06 -0.34,-0.64 -0.41,-0.77zm-3.46 0.77c0,0.12 0.04,0.19 0.19,0.19 0.09,0 0.14,-0.09 0.17,-0.15l0.29 -0.68c0.34,0.22 0.46,0.75 0.2,1.12 -0.13,0.19 -0.37,0.35 -0.62,0.35 -0.22,0 -0.36,-0.01 -0.53,-0.14 -0.18,-0.13 -0.29,-0.29 -0.33,-0.51 -0.02,-0.08 -0.02,-0.16 -0.01,-0.25 0.01,-0.15 0.08,-0.32 0.16,-0.41 0.13,-0.16 0.32,-0.29 0.54,-0.31 0.05,-0.01 0.21,-0.02 0.25,0 0.03,0.02 0.02,0 0.01,0.04 -0.05,0.13 -0.32,0.68 -0.32,0.75zm2.54 -0.15l-0.28 0c0.01,-0.08 0.43,-0.77 0.5,-0.9 0.02,-0.04 0.05,-0.1 0.08,-0.12 0.02,0.07 0.12,0.2 0.14,0.27 -0.19,0.11 -0.43,0.52 -0.44,0.75zm-1.34 -1.2l1.32 0c-0.01,0.04 -0.56,0.98 -0.59,1.04 -0.02,-0.02 -0.23,-0.32 -0.27,-0.38l-0.44 -0.63c-0.02,-0.03 -0.01,-0.01 -0.02,-0.03z"/>
 </g>
</svg>
