<?xml version="1.0" encoding="UTF-8"?>
<!DOCTYPE svg PUBLIC "-//W3C//DTD SVG 1.0//EN" "http://www.w3.org/TR/2001/REC-SVG-20010904/DTD/svg10.dtd">
<!-- Creator: CorelDRAW 2018 (64 Bit Versão de avaliação) -->
<svg xmlns="http://www.w3.org/2000/svg" xml:space="preserve" width="29px" height="41px" version="1.0" shape-rendering="geometricPrecision" text-rendering="geometricPrecision" image-rendering="optimizeQuality" fill-rule="evenodd" clip-rule="evenodd"
viewBox="0 0 0.37 0.54"
 xmlns:xlink="http://www.w3.org/1999/xlink">
 <g id="Camada_x0020_1">
  <metadata id="CorelCorpID_0Corel-Layer"/>
  <path fill="black" d="M0.22 0.48l-0.16 0 0 -0.18 0.17 0c0.04,0 0.07,0.03 0.08,0.07 0.01,0.05 -0.03,0.11 -0.09,0.11zm-0.03 -0.24l-0.13 0 0 -0.18 0.13 0c0.04,0 0.06,0.02 0.08,0.05 0.01,0.03 0.01,0.06 -0.01,0.09 0,0 0,0.01 -0.01,0.01 0,0 0,0 0,0 -0.02,0.02 -0.04,0.03 -0.06,0.03zm-0.19 -0.21l0 0.48c0,0 0,0.01 0.01,0.02 0,0 0.01,0.01 0.02,0.01l0.2 0c0.04,0 0.07,-0.02 0.1,-0.05 0.05,-0.05 0.06,-0.13 0.02,-0.19 -0.01,-0.01 -0.04,-0.04 -0.06,-0.04 0,-0.01 0.01,-0.01 0.01,-0.01 0,-0.01 0.01,-0.01 0.01,-0.01 0.02,-0.04 0.03,-0.08 0.02,-0.13 0,-0.01 -0.01,-0.02 -0.01,-0.04 -0.01,-0.01 -0.03,-0.03 -0.05,-0.04 -0.02,-0.02 -0.05,-0.03 -0.08,-0.03l-0.16 0c-0.02,0 -0.03,0.01 -0.03,0.03z"/>
 </g>
</svg>
