<?xml version="1.0" encoding="UTF-8"?>
<!DOCTYPE svg PUBLIC "-//W3C//DTD SVG 1.0//EN" "http://www.w3.org/TR/2001/REC-SVG-20010904/DTD/svg10.dtd">
<!-- Creator: CorelDRAW 2018 (64 Bit Versão de avaliação) -->
<svg xmlns="http://www.w3.org/2000/svg" xml:space="preserve" width="26px" height="41px" version="1.0" shape-rendering="geometricPrecision" text-rendering="geometricPrecision" image-rendering="optimizeQuality" fill-rule="evenodd" clip-rule="evenodd"
viewBox="0 0 5.84 9.41"
 xmlns:xlink="http://www.w3.org/1999/xlink">
 <g id="Camada_x0020_1">
  <metadata id="CorelCorpID_0Corel-Layer"/>
  <g id="_2889408632784">
   <g>
    <path fill="black" d="M1.12 4.76l0 -0.2c0,-0.52 0.28,-0.96 0.55,-1.22 0.15,-0.15 0.34,-0.27 0.53,-0.35 0.88,-0.4 1.9,-0.02 2.34,0.85 0.25,0.49 0.25,1.09 0.01,1.59 -0.09,0.2 -0.22,0.35 -0.36,0.5 -0.89,0.89 -2.37,0.58 -2.89,-0.48 -0.08,-0.16 -0.18,-0.46 -0.18,-0.69zm0.2 -3.14l3.2 0 0 0.55 -3.2 0 0 -0.55zm-1.32 -0.57l0 6.52 5.84 0 0 -6.52c0,-0.32 -0.12,-0.56 -0.29,-0.72 -0.18,-0.19 -0.4,-0.33 -0.7,-0.33l-3.86 0c-0.15,0 -0.29,0.05 -0.4,0.1 -0.32,0.15 -0.59,0.51 -0.59,0.95z"/>
    <path fill="black" d="M0 8.36c0,0.43 0.26,0.79 0.58,0.95 0.11,0.05 0.26,0.1 0.41,0.1l3.86 0c0.29,0 0.51,-0.14 0.7,-0.32 0.29,-0.3 0.29,-0.56 0.29,-0.97l-5.84 0 0 0.24z"/>
    <path fill="black" d="M2.78 5.44l-0.74 -0.73 0.38 -0.38 0.35 0.34 0.64 -0.63 0.4 0.38 -1.03 1.02zm-1.13 -0.83c0,0.35 0.14,0.72 0.38,0.94 0.03,0.03 0.04,0.03 0.08,0.06 0.38,0.33 0.85,0.39 1.32,0.19 0.11,-0.04 0.2,-0.1 0.29,-0.17 0.03,-0.03 0.06,-0.04 0.09,-0.08 0.61,-0.58 0.47,-1.64 -0.32,-2.04 -0.8,-0.41 -1.84,0.18 -1.84,1.1z"/>
   </g>
  </g>
 </g>
</svg>
