<?xml version="1.0" encoding="UTF-8"?>
<!DOCTYPE svg PUBLIC "-//W3C//DTD SVG 1.0//EN" "http://www.w3.org/TR/2001/REC-SVG-20010904/DTD/svg10.dtd">
<!-- Creator: CorelDRAW 2018 (64 Bit Versão de avaliação) -->
<svg xmlns="http://www.w3.org/2000/svg" xml:space="preserve" width="31px" height="41px" version="1.0" shape-rendering="geometricPrecision" text-rendering="geometricPrecision" image-rendering="optimizeQuality" fill-rule="evenodd" clip-rule="evenodd"
viewBox="0 0 0.74 1"
 xmlns:xlink="http://www.w3.org/1999/xlink">
 <g id="Camada_x0020_1">
  <metadata id="CorelCorpID_0Corel-Layer"/>
  <g id="_2131382301872">
   <g>
    <path fill="black" d="M0.37 0.37c0.06,0 0.05,0.08 0.1,0.1 0.03,0.01 0.07,0 0.09,0.03 0.02,0.05 -0.02,0.07 -0.04,0.08 -0.04,0.05 -0.01,0.07 -0.01,0.12 0,0.02 -0.02,0.04 -0.05,0.04 -0.02,0 -0.03,-0.01 -0.04,-0.01 -0.05,-0.03 -0.05,-0.03 -0.09,0 -0.01,0 -0.02,0 -0.02,0.01 -0.04,0.02 -0.08,0 -0.08,-0.04 0,-0.03 0.01,-0.05 0.01,-0.07 0,-0.04 -0.04,-0.05 -0.05,-0.07 -0.03,-0.04 -0.01,-0.07 0.03,-0.08 0.02,-0.01 0.05,0 0.07,-0.02 0.03,-0.03 0.03,-0.09 0.08,-0.09zm-0.37 -0.08l0 0.45c0,0.05 0.04,0.06 0.07,0.08l0.25 0.16c0.01,0.01 0.01,0.01 0.01,0.01 0.02,0.01 0.03,0.01 0.04,0.01l0.01 0 0 0c0.02,0 0.05,-0.03 0.07,-0.04l0.15 -0.09c0,0 0,0 0.01,-0.01 0.02,-0.01 0.09,-0.06 0.11,-0.07 0.01,-0.01 0.02,-0.03 0.02,-0.05l0 -0.45c0,-0.04 -0.04,-0.08 -0.07,-0.08l-0.6 0c-0.03,0 -0.07,0.04 -0.07,0.08z"/>
    <path fill="black" d="M0 0.07l0 0.01c0,0.04 0.04,0.08 0.07,0.08l0.6 0c0.03,0 0.07,-0.04 0.07,-0.08l0 -0.01c0,-0.03 -0.04,-0.07 -0.07,-0.07l-0.6 0c-0.03,0 -0.07,0.04 -0.07,0.07z"/>
   </g>
  </g>
 </g>
</svg>
