<?xml version="1.0" encoding="UTF-8"?>
<!DOCTYPE svg PUBLIC "-//W3C//DTD SVG 1.0//EN" "http://www.w3.org/TR/2001/REC-SVG-20010904/DTD/svg10.dtd">
<!-- Creator: CorelDRAW 2018 (64 Bit Versão de avaliação) -->
<svg xmlns="http://www.w3.org/2000/svg" xml:space="preserve" width="47px" height="41px" version="1.0" shape-rendering="geometricPrecision" text-rendering="geometricPrecision" image-rendering="optimizeQuality" fill-rule="evenodd" clip-rule="evenodd"
viewBox="0 0 2.56 2.22"
 xmlns:xlink="http://www.w3.org/1999/xlink">
 <g id="Camada_x0020_1">
  <metadata id="CorelCorpID_0Corel-Layer"/>
  <path fill="#292929" d="M1.71 2.02l0.38 -0.19c0.08,-0.04 0.13,-0.12 0.13,-0.22l0 -1.08c0.05,0 0.14,0 0.14,0.07l0 1.35c0,0.09 -0.13,0.08 -0.2,0.07 -0.03,0 -0.4,0 -0.45,0zm-1.51 -0.07l0 -1.35c0,-0.07 0.08,-0.07 0.13,-0.07l0 1.08c0,0.19 0.16,0.23 0.29,0.29l0.15 0.08c0.02,0.01 0.06,0.03 0.08,0.04l-0.54 0c-0.03,0 -0.05,0.01 -0.08,-0.01 -0.02,-0.01 -0.03,-0.02 -0.03,-0.06zm1.18 0.01l0 -1.46c0.1,-0.06 0.2,-0.1 0.3,-0.16 0.04,-0.02 0.28,-0.14 0.31,-0.14 0.02,0 0.04,0.02 0.04,0.05l0 1.35c0,0.06 -0.09,0.08 -0.15,0.11 -0.06,0.03 -0.47,0.24 -0.5,0.25zm-0.85 -0.36l0 -1.35c0,-0.1 0.1,-0.03 0.19,0.02 0.06,0.02 0.11,0.05 0.16,0.07 0.05,0.03 0.1,0.05 0.15,0.08 0.02,0.01 0.04,0.02 0.07,0.04 0.03,0.01 0.05,0.02 0.08,0.04l0 1.46c-0.02,-0.01 -0.06,-0.03 -0.09,-0.04l-0.5 -0.25c-0.03,-0.02 -0.06,-0.02 -0.06,-0.07zm-0.2 -1.36l0 0.09c-0.13,0 -0.22,0.01 -0.3,0.14 -0.01,0.03 -0.03,0.07 -0.03,0.1l0 1.4c0,0.13 0.13,0.25 0.23,0.25l2.09 0c0.11,0 0.24,-0.13 0.24,-0.23l0 -1.42c0,-0.11 -0.12,-0.24 -0.27,-0.24l-0.07 0c0,-0.09 0.01,-0.18 -0.06,-0.25 -0.06,-0.07 -0.11,-0.08 -0.19,-0.08l0 0c-0.07,0 -0.28,0.12 -0.35,0.15 -0.03,0.02 -0.33,0.17 -0.34,0.17l-0.51 -0.25c-0.1,-0.05 -0.11,-0.07 -0.23,-0.07 -0.06,0 -0.12,0.05 -0.14,0.08 -0.04,0.03 -0.07,0.09 -0.07,0.16z"/>
 </g>
</svg>
