<?xml version="1.0" encoding="UTF-8"?>
<!DOCTYPE svg PUBLIC "-//W3C//DTD SVG 1.0//EN" "http://www.w3.org/TR/2001/REC-SVG-20010904/DTD/svg10.dtd">
<!-- Creator: CorelDRAW 2018 (64 Bit Versão de avaliação) -->
<svg xmlns="http://www.w3.org/2000/svg" xml:space="preserve" width="35px" height="33px" version="1.0" shape-rendering="geometricPrecision" text-rendering="geometricPrecision" image-rendering="optimizeQuality" fill-rule="evenodd" clip-rule="evenodd"
viewBox="0 0 0.55 0.52"
 xmlns:xlink="http://www.w3.org/1999/xlink">
 <g id="Camada_x0020_1">
  <metadata id="CorelCorpID_0Corel-Layer"/>
  <g id="_1447707311792">
   <g>
    <path fill="black" d="M0.17 0.29l0 -0.04c0,-0.01 0.01,-0.02 0.02,-0.02l0.16 0c0.01,0 0.02,0.01 0.02,0.02l0 0.04c0,0.02 0,0.02 -0.02,0.02l-0.16 0c-0.01,0 -0.02,-0.01 -0.02,-0.02zm-0.14 0.21c0,0.01 0.01,0.02 0.01,0.02l0.46 0c0.01,0 0.02,-0.01 0.02,-0.02l0 -0.33 -0.49 0 0 0.33z"/>
    <path fill="black" d="M0 0.02l0 0.12 0.55 0 0 -0.12c0,-0.01 -0.02,-0.02 -0.02,-0.02l-0.51 0c-0.01,0 -0.02,0.01 -0.02,0.02z"/>
   </g>
  </g>
 </g>
</svg>
