<?xml version="1.0" encoding="UTF-8"?>
<!DOCTYPE svg PUBLIC "-//W3C//DTD SVG 1.0//EN" "http://www.w3.org/TR/2001/REC-SVG-20010904/DTD/svg10.dtd">
<!-- Creator: CorelDRAW 2018 (64 Bit Versão de avaliação) -->
<svg xmlns="http://www.w3.org/2000/svg" xml:space="preserve" width="41px" height="41px" version="1.0" shape-rendering="geometricPrecision" text-rendering="geometricPrecision" image-rendering="optimizeQuality" fill-rule="evenodd" clip-rule="evenodd"
viewBox="0 0 1.57 1.58"
 xmlns:xlink="http://www.w3.org/1999/xlink">
 <g id="Camada_x0020_1">
  <metadata id="CorelCorpID_0Corel-Layer"/>
  <path fill="#292929" d="M0.35 0.95c0,-0.12 0.03,-0.22 0.09,-0.32 0.01,-0.02 0.03,-0.05 0.06,-0.05l0.22 0 0 0.85c0,0 -0.06,-0.01 -0.12,-0.04 -0.06,-0.04 -0.09,-0.06 -0.14,-0.12 -0.06,-0.09 -0.11,-0.21 -0.11,-0.32zm0.5 0.48l0 -0.85 0.22 0c0.04,0 0.05,0.03 0.07,0.05 0.04,0.09 0.08,0.2 0.08,0.3 0,0.03 -0.01,0.07 -0.01,0.1 -0.01,0.03 -0.01,0.06 -0.02,0.08 -0.03,0.08 -0.07,0.15 -0.12,0.21l-0.05 0.04c-0.03,0.02 -0.12,0.07 -0.17,0.07zm-0.06 -1.19c0.06,0 0.11,0.03 0.14,0.07 0.03,0.03 0.07,0.08 0.07,0.13l-0.42 0c0,-0.02 0,-0.04 0.02,-0.08 0.02,-0.04 0.06,-0.08 0.1,-0.1 0.02,0 0.06,-0.02 0.09,-0.02zm-0.24 -0.04c0,0.01 -0.02,0.03 -0.03,0.03 -0.03,0.04 -0.06,0.09 -0.07,0.14 -0.01,0.06 0,0.08 -0.02,0.09 -0.04,0.01 -0.07,0.04 -0.09,0.08 -0.01,-0.01 -0.01,-0.01 -0.02,-0.02 -0.01,0 -0.01,0 -0.02,-0.01 -0.04,-0.02 -0.08,-0.07 -0.13,-0.07 -0.04,0 -0.06,0.04 -0.06,0.08 0,0.02 0.02,0.04 0.03,0.05 0.04,0.03 0.09,0.06 0.13,0.09 0,0 0,0.02 0,0.02 -0.02,0.03 -0.03,0.06 -0.03,0.08 -0.01,0.04 -0.02,0.09 -0.02,0.13l-0.16 0c-0.03,0 -0.06,0.03 -0.06,0.06 0,0.02 0,0.04 0.02,0.05 0.01,0.02 0.03,0.02 0.05,0.02l0.16 0c0,0.03 0.01,0.08 0.01,0.1 0.01,0.01 0.03,0.07 0.03,0.08 0,0.01 -0.08,0.08 -0.08,0.09l-0.05 0.05c-0.02,0.02 -0.03,0.04 -0.03,0.07 0,0.04 0.06,0.08 0.12,0.03 0.02,-0.02 0.05,-0.05 0.07,-0.07l0.03 -0.03c0.01,-0.01 0.01,-0.01 0.01,-0.01 0.01,0.02 0.07,0.08 0.08,0.09 0.08,0.08 0.18,0.13 0.29,0.15l0.08 0.01c0.01,0 0,-0.01 0.02,-0.01 0.04,0 0.08,-0.01 0.12,-0.02 0.03,-0.01 0.05,-0.01 0.07,-0.02 0.01,-0.01 0.02,-0.01 0.03,-0.02 0.05,-0.03 0.08,-0.04 0.12,-0.09 0.02,-0.01 0.03,-0.02 0.04,-0.04 0.01,-0.01 0.03,-0.04 0.04,-0.05 0.02,0.01 0.09,0.09 0.12,0.11 0.06,0.06 0.15,-0.01 0.1,-0.08 -0.02,-0.04 -0.05,-0.05 -0.07,-0.08 -0.02,-0.01 -0.07,-0.07 -0.08,-0.07 0,-0.01 0.02,-0.08 0.03,-0.09 0.01,-0.03 0.02,-0.06 0.02,-0.1 0.03,0 0.17,0.01 0.19,-0.01 0.06,-0.04 0.03,-0.12 -0.02,-0.12l-0.17 0c0,-0.07 -0.03,-0.18 -0.05,-0.23 0.04,-0.03 0.09,-0.06 0.13,-0.09 0.02,-0.02 0.04,-0.05 0.03,-0.08 -0.01,-0.03 -0.04,-0.05 -0.07,-0.05 -0.02,0 -0.06,0.03 -0.08,0.05 -0.03,0.01 -0.05,0.03 -0.08,0.05 0,-0.01 -0.01,-0.02 -0.02,-0.03 0,-0.01 0,-0.01 -0.01,-0.01 0,-0.01 0,-0.01 -0.01,-0.01 -0.01,-0.02 -0.04,-0.03 -0.06,-0.04 0,-0.05 -0.01,-0.1 -0.03,-0.14 -0.03,-0.05 -0.03,-0.05 -0.06,-0.09 -0.01,-0.01 -0.01,-0.01 -0.02,-0.02 0,-0.01 0.01,-0.02 0.01,-0.03 0.03,-0.04 0.08,-0.13 0.01,-0.16 -0.08,-0.04 -0.11,0.06 -0.14,0.12 -0.02,0 -0.05,-0.02 -0.07,-0.02 -0.04,0 -0.08,0 -0.12,0.01 -0.01,0 -0.02,0.01 -0.04,0.01 -0.02,-0.04 -0.05,-0.13 -0.1,-0.13 -0.05,0 -0.08,0.04 -0.07,0.09 0.01,0.03 0.05,0.09 0.05,0.11z"/>
 </g>
</svg>
