<?xml version="1.0" encoding="UTF-8"?>
<!DOCTYPE svg PUBLIC "-//W3C//DTD SVG 1.0//EN" "http://www.w3.org/TR/2001/REC-SVG-20010904/DTD/svg10.dtd">
<!-- Creator: CorelDRAW 2018 (64 Bit Versão de avaliação) -->
<svg xmlns="http://www.w3.org/2000/svg" xml:space="preserve" width="34px" height="41px" version="1.0" shape-rendering="geometricPrecision" text-rendering="geometricPrecision" image-rendering="optimizeQuality" fill-rule="evenodd" clip-rule="evenodd"
viewBox="0 0 0.91 1.1"
 xmlns:xlink="http://www.w3.org/1999/xlink">
 <g id="Camada_x0020_1">
  <metadata id="CorelCorpID_0Corel-Layer"/>
  <g id="_1606926421488">
   <g>
    <path fill="black" d="M0.24 0.69l0.12 0c0.07,0 0.07,0.09 0,0.09l-0.12 0c-0.07,0 -0.08,-0.09 0,-0.09zm0 -0.19l0.12 0c0.07,0 0.07,0.09 0,0.09l-0.12 0c-0.07,0 -0.08,-0.09 0,-0.09zm0 -0.18l0.12 0c0.07,0 0.07,0.09 0,0.09l-0.12 0c-0.07,0 -0.08,-0.09 0,-0.09zm-0.24 -0.03l0 0.77c0,0.02 0.02,0.04 0.04,0.04l0.51 0c0.02,0 0.04,-0.02 0.04,-0.04l0 -1.02c0,-0.02 -0.01,-0.04 -0.04,-0.04 -0.02,0 -0.03,0.01 -0.04,0.01l-0.38 0.14c-0.06,0.02 -0.13,0.05 -0.13,0.14z"/>
    <path fill="black" d="M0.68 1.1c0.02,0 0.19,0 0.2,0 0.02,-0.01 0.03,-0.03 0.03,-0.04l0 -0.5c0,-0.03 -0.01,-0.06 -0.02,-0.08 -0.04,-0.04 -0.08,-0.05 -0.13,-0.08l-0.07 -0.03 0 0.64c0,0.04 -0.01,0.06 -0.01,0.09z"/>
   </g>
  </g>
 </g>
</svg>
