<?xml version="1.0" encoding="UTF-8"?>
<!DOCTYPE svg PUBLIC "-//W3C//DTD SVG 1.0//EN" "http://www.w3.org/TR/2001/REC-SVG-20010904/DTD/svg10.dtd">
<!-- Creator: CorelDRAW 2018 (64 Bit Versão de avaliação) -->
<svg xmlns="http://www.w3.org/2000/svg" xml:space="preserve" width="41px" height="41px" version="1.0" shape-rendering="geometricPrecision" text-rendering="geometricPrecision" image-rendering="optimizeQuality" fill-rule="evenodd" clip-rule="evenodd"
viewBox="0 0 1.15 1.15"
 xmlns:xlink="http://www.w3.org/1999/xlink">
 <g id="Camada_x0020_1">
  <metadata id="CorelCorpID_0Corel-Layer"/>
  <g id="_2039306080736">
   <g>
    <path fill="black" d="M0.82 1.02l0.24 0 0 0.04 -0.24 0 0 -0.04zm0.11 -0.09l-0.07 0 0 -0.05 0.07 0 0 0.05c0,0 0,0 0,0zm-0.79 -0.85l0.87 0c0.02,0 0.03,0.01 0.04,0.02 0.02,0.02 0.01,0.02 0.01,0.03l-0.97 0c0,-0.03 0.02,-0.05 0.05,-0.05zm-0.14 0.04l0 0.05c0,0.02 0.01,0.05 0.03,0.05l1.03 0 0 0.71 -0.04 0 0 -0.25c0,-0.03 -0.05,-0.04 -0.07,-0.03 -0.01,0.01 -0.02,0.02 -0.02,0.03l0 0.12 -0.11 0c-0.02,0 -0.04,0.02 -0.04,0.04l0 0.09c-0.01,0 -0.02,0 -0.03,0.01 -0.01,0 -0.02,0.02 -0.02,0.03l0 0.14c0,0.02 0.02,0.04 0.04,0.04l0.34 0c0.02,0 0.04,-0.02 0.04,-0.04l0 -0.99c0,-0.01 0,-0.02 0,-0.03 -0.01,0 -0.01,-0.01 -0.01,-0.02 -0.02,-0.03 -0.04,-0.05 -0.07,-0.06 -0.01,0 -0.01,0 -0.01,-0.01 -0.01,0 -0.02,0 -0.03,0l-0.91 0c-0.03,0 -0.06,0.02 -0.08,0.04 -0.01,0.01 -0.02,0.02 -0.03,0.03 0,0.01 0,0.02 -0.01,0.02 0,0.01 0,0.02 0,0.03z"/>
    <path fill="black" d="M0.57 1.06c0,0 0,0 0,0 -0.01,0 -0.03,0.01 -0.04,0 0,0 0,-0.03 0,-0.04l0.04 0c0,0.01 0.01,0.03 0,0.04zm-0.39 0.09l-0.05 0c-0.01,0 -0.03,0 -0.04,-0.01 -0.06,-0.03 -0.05,-0.08 -0.05,-0.13 0,-0.01 -0.02,-0.02 -0.03,-0.03 0,-0.01 -0.01,-0.03 -0.01,-0.04l0 -0.53c0,-0.02 0.01,-0.04 0.03,-0.06 0.01,-0.01 0.01,-0.02 0.03,-0.02 0,0 0,-0.01 0,-0.01 0.01,0 0.03,-0.01 0.04,-0.01l0.5 0c0.01,0 0.03,0.01 0.04,0.01 0.01,0.01 0.03,0.02 0.03,0.03 0.02,0.02 0.03,0.04 0.03,0.08l0 0.49c0,0.05 -0.01,0.07 -0.04,0.09 0,0 0,0.05 0,0.07 -0.01,0.02 -0.02,0.04 -0.04,0.06 -0.01,0 -0.03,0.01 -0.05,0.01l-0.05 0c-0.01,0 -0.02,-0.01 -0.03,-0.01 -0.01,0 -0.02,-0.01 -0.02,-0.02 -0.02,-0.01 -0.03,-0.03 -0.03,-0.05l0 -0.05 -0.18 0c0,0.02 0,0.05 0,0.07 -0.02,0.03 -0.05,0.06 -0.08,0.06zm0 -0.09c-0.01,0 -0.01,0 -0.01,0 -0.01,0 -0.03,0.01 -0.04,0 0,0 0,0 0,0l0 -0.04 0.05 0c0,0.01 0,0.03 0,0.04zm-0.1 -0.13l0 -0.18 0.54 0 0 0.18c0,0 0,0 0,0 -0.01,0 -0.01,0 -0.01,0l-0.52 0c0,0 0,0 0,0 -0.01,0 -0.01,0 -0.01,0zm0 -0.4l0.54 0 0 0.14 -0.54 0 0 -0.14zm0 -0.1c0,-0.02 0.01,-0.03 0.03,-0.03l0.48 0c0.03,0 0.03,0.03 0.03,0.05l-0.54 0 0 -0.02z"/>
    <path fill="black" d="M0.26 0.84c0,0.01 0.01,0.02 0.01,0.03 0.01,0.01 0.02,0.01 0.04,0.01l0.09 0c0.05,0 0.05,-0.08 0,-0.08l-0.09 0c-0.02,0 -0.03,0 -0.03,0.01 0,0 -0.01,0.01 -0.01,0.01 0,0.01 -0.01,0.01 -0.01,0.02z"/>
    <path fill="black" d="M0.13 0.84c0,0.07 0.09,0.05 0.09,0.01 0,-0.02 -0.01,-0.03 -0.02,-0.04 -0.02,-0.02 -0.07,-0.01 -0.07,0.03z"/>
    <path fill="black" d="M0.49 0.83l0 0.01c0,0.04 0.04,0.06 0.07,0.03l0 0c0.03,-0.03 0,-0.08 -0.05,-0.07 0,0.01 -0.01,0.01 -0.02,0.02 0,0 0,0.01 0,0.01z"/>
   </g>
  </g>
 </g>
</svg>
