<?xml version="1.0" encoding="UTF-8"?>
<!DOCTYPE svg PUBLIC "-//W3C//DTD SVG 1.0//EN" "http://www.w3.org/TR/2001/REC-SVG-20010904/DTD/svg10.dtd">
<!-- Creator: CorelDRAW 2018 (64 Bit Versão de avaliação) -->
<svg xmlns="http://www.w3.org/2000/svg" xml:space="preserve" width="44px" height="41px" version="1.0" shape-rendering="geometricPrecision" text-rendering="geometricPrecision" image-rendering="optimizeQuality" fill-rule="evenodd" clip-rule="evenodd"
viewBox="0 0 2.22 2.06"
 xmlns:xlink="http://www.w3.org/1999/xlink">
 <g id="Camada_x0020_1">
  <metadata id="CorelCorpID_0Corel-Layer"/>
  <path fill="black" d="M1.1 1.41c0.01,-0.01 0.02,-0.01 0.03,-0.02l0.08 -0.04c0.01,-0.01 0.02,-0.01 0.03,-0.02l0.02 -0.02c0.01,0 0.02,-0.01 0.02,-0.01l0.08 -0.06c0,0 0,0 0,0 0.01,0 0.01,-0.01 0.01,-0.01 0.05,-0.04 0.07,-0.05 0.13,-0.02 0,0 0,0 0.01,0l0.14 0.1c0.01,0.01 0.04,0.03 0.04,0.04 0.01,0.01 0.01,0.01 0.01,0.02 0.01,0.02 0.01,0.02 0.01,0.04 0,0.03 -0.02,0.09 -0.03,0.11 -0.03,0.05 -0.04,0.11 -0.05,0.16 -0.01,0.02 -0.01,0.04 -0.01,0.06 -0.01,0.04 -0.01,0.06 -0.02,0.1 0,0.01 0,0.02 0,0.03 0,0 -0.06,-0.02 -0.07,-0.03 0,-0.02 0.02,-0.07 0.02,-0.09 0.01,-0.03 0.01,-0.06 0,-0.09 -0.01,-0.01 -0.02,-0.02 -0.03,-0.03 -0.02,-0.01 -0.02,-0.01 -0.04,-0.01 -0.02,0 -0.05,0.02 -0.07,0.03l-0.03 0.03c0,0 0,0 0,0l-0.06 0.05c0,0 -0.06,-0.05 -0.07,-0.05 0,0 0,0 -0.01,-0.01 0,0 -0.01,0 -0.01,-0.01 0,0 -0.01,0 -0.01,0 0.01,-0.03 0.06,-0.05 0.08,-0.1 0.03,-0.04 0.02,-0.09 -0.02,-0.11 -0.03,-0.01 -0.06,-0.01 -0.08,0 -0.01,0 -0.02,0 -0.03,0 -0.01,0 -0.03,0.01 -0.04,0.01 -0.02,0 -0.03,0 -0.05,0.01l-0.05 0c0,-0.01 -0.01,-0.01 -0.01,-0.02l0.08 -0.04zm-0.29 -0.03c-0.04,0 -0.08,0 -0.13,0 -0.01,0 -0.02,0 -0.03,0 -0.06,0 -0.14,-0.01 -0.2,-0.02 -0.02,0 -0.04,-0.01 -0.05,-0.01 -0.01,0 -0.02,0 -0.03,-0.01l-0.05 -0.01c-0.04,-0.01 -0.09,-0.04 -0.12,-0.06 -0.01,0 -0.02,-0.01 -0.03,-0.02 0,0 -0.01,-0.01 -0.01,-0.01 -0.01,-0.02 -0.01,-0.08 -0.01,-0.09 0,-0.05 0,-0.09 0,-0.13 0.01,0 0.01,0 0.01,0l0.02 0.01c0.03,0.02 0.03,0.02 0.06,0.03 0.01,0.01 0.02,0.01 0.03,0.01 0.05,0.02 0.08,0.03 0.14,0.04 0.04,0.01 0.13,0.03 0.18,0.03 0.01,0 0.01,0 0.02,0 0.06,0 0.09,0.01 0.14,0 0.02,0 0.03,0 0.04,0 0.01,0 0.02,0 0.02,0 0.01,0 0.02,0 0.02,0 0.02,0 0.03,0 0.04,0 0.09,-0.01 0.14,-0.02 0.22,-0.05 0.02,0 0.04,-0.01 0.06,-0.02 0.01,0 0.02,0 0.03,-0.01 0.03,-0.01 0.04,-0.01 0.06,-0.03l0.02 0c0,-0.01 0.01,-0.01 0.01,-0.01l0 0.05c0,0.02 0.01,0.04 -0.01,0.05l-0.07 0.05c-0.05,0.04 -0.07,0.05 -0.13,0.08 -0.05,0.03 -0.11,0.06 -0.16,0.07 -0.04,0.02 -0.07,0.02 -0.09,0.06zm0.46 -0.75c0,0.02 0,0.05 0,0.07 0,0 0,0.02 0,0.02 0,0.01 0,0.03 0,0.04 0,0.01 0,0.04 0,0.05 -0.02,0.04 -0.06,0.07 -0.1,0.09 0,0 0,0 0,0l-0.02 0.01c-0.01,0 -0.01,0 -0.02,0.01 -0.06,0.02 -0.19,0.05 -0.25,0.06 -0.02,0 -0.04,0 -0.06,0 -0.01,0 -0.02,0 -0.03,0 -0.02,0 -0.06,0.01 -0.08,0.01 -0.05,0 -0.12,-0.01 -0.17,-0.01 -0.02,-0.01 -0.04,-0.01 -0.06,-0.01 -0.04,-0.01 -0.1,-0.02 -0.14,-0.04 -0.01,0 -0.02,0 -0.03,-0.01 0,0 -0.01,0 -0.02,-0.01 -0.03,-0.01 -0.07,-0.03 -0.09,-0.04 -0.02,-0.02 -0.04,-0.04 -0.04,-0.06 -0.01,-0.04 -0.01,-0.06 -0.01,-0.09 0,-0.01 0,-0.02 0,-0.03l0 -0.03c0,-0.01 0,-0.02 0,-0.03l0 -0.06c0.01,0.01 0.01,0.01 0.02,0.01 0,0 0.01,0.01 0.01,0.01l0.06 0.03c0.02,0 0.04,0.01 0.06,0.02l0.03 0.01c0.03,0.01 0.05,0.01 0.07,0.02 0.05,0.01 0.1,0.01 0.15,0.02 0.06,0.01 0.18,0.01 0.25,0.01 0.01,0 0.02,0 0.04,0 0.01,-0.01 0.02,-0.01 0.04,-0.01 0.02,0 0.05,0 0.07,-0.01 0.06,-0.01 0.09,-0.01 0.14,-0.03 0.02,-0.01 0.04,-0.01 0.06,-0.02 0.03,-0.01 0.04,-0.01 0.06,-0.02l0.05 -0.03c0,0 0.01,0 0.01,-0.01l0 0.06zm0.69 0.04c0.01,-0.01 0.03,-0.05 0.05,-0.05 0.02,0 0.02,0 0.03,0.01 0.02,0.01 0.03,0.03 0.03,0.04 0,0.01 -0.01,0.03 -0.02,0.04 -0.01,0.02 -0.01,0.03 -0.03,0.05l-0.02 0.03c-0.01,0.01 -0.02,0.02 -0.02,0.03l-0.26 0.35c0,0 0,0 -0.01,-0.01 0,0 0,0 -0.01,0l-0.04 -0.03c0,0 -0.02,-0.01 -0.02,-0.02l0.32 -0.44zm-1.8 -0.32c0,-0.02 0.01,-0.04 0.02,-0.05 0,0 0.01,0 0.01,-0.01 0.01,-0.01 0.03,-0.02 0.04,-0.03 0.02,-0.01 0.06,-0.03 0.08,-0.04 0.02,0 0.04,-0.01 0.05,-0.02 0.06,-0.01 0.12,-0.03 0.18,-0.03 0.02,-0.01 0.06,-0.01 0.08,-0.01 0.01,0 0.01,0 0.02,0 0.02,0 0.12,0 0.14,0 0.01,0 0.02,0 0.03,0 0.02,0 0.04,0 0.06,0.01 0.1,0.01 0.2,0.03 0.28,0.07 0.03,0.01 0.07,0.03 0.09,0.05 0.02,0.03 0.05,0.05 0.02,0.1 -0.02,0.02 -0.05,0.04 -0.08,0.06 -0.06,0.03 -0.14,0.06 -0.21,0.07 -0.02,0 -0.04,0.01 -0.06,0.01 -0.02,0 -0.05,0.01 -0.07,0.01 -0.03,0 -0.06,0 -0.09,0 -0.04,0 -0.03,0.01 -0.06,0 -0.01,0 -0.02,0 -0.02,0 -0.02,0 -0.03,0 -0.05,0 -0.03,0 -0.05,0 -0.08,-0.01 -0.06,0 -0.11,-0.01 -0.16,-0.03 -0.06,-0.02 -0.16,-0.06 -0.21,-0.11 -0.01,-0.01 -0.01,-0.02 -0.01,-0.04zm-0.16 -0.01l0 0.92c0,0 0,0.01 0.01,0.03 0,0.01 0.01,0.02 0.02,0.03 0,0.01 0,0.01 0.01,0.02 0.01,0.01 0.02,0.03 0.03,0.03 0,0 0,0 0,0l0.03 0.03c0,0 0.01,0 0.01,0 0,0.01 0.01,0.01 0.01,0.01 0,0 0.01,0.01 0.01,0.01 0.03,0.01 0.05,0.02 0.08,0.03 0.03,0.02 0.1,0.04 0.14,0.05 0.03,0.01 0.08,0.02 0.12,0.02 0.04,0.01 0.1,0.02 0.13,0.02 0.01,0 0.03,0 0.04,0l0.07 0c0.01,0 0.02,0 0.03,0 0.04,0 0.08,0 0.11,0 0.04,-0.01 0.03,-0.01 0.04,0 0,0 0,0.01 0.01,0.01 0,0.01 0.01,0.01 0.01,0.02l0.01 0c0,0.01 0,0.01 0,0.01 0.01,0.01 0.02,0.02 0.02,0.02 0,0.01 0,0.01 0.01,0.01 0,0 0,0 0,0.01 0.03,0.02 0.05,0.01 0.08,0.01 0,0.01 -0.02,0.06 0.04,0.11l0.11 0.08c0.02,0.02 0.06,0.05 0.08,0.06 0.02,0.01 0.04,0.03 0.07,0.03 0.02,0 0.02,-0.01 0.03,-0.01 0.01,0.03 0.03,0.05 0.06,0.06l0.1 0.05c0.01,0 0.01,0 0.02,0.01l0.05 0.02c0.02,0 0.04,0.01 0.06,0.01 0,0.01 0.02,0.01 0.03,0.01l0.02 0c0,0 0.04,-0.01 0.06,-0.06 0,-0.02 0,-0.05 0,-0.06 -0.01,-0.02 0,-0.04 0,-0.06 0,-0.02 0,-0.06 0,-0.08 0.02,-0.1 0.05,-0.18 0.08,-0.27 0,0 0,0 0,-0.01 0.03,-0.06 0.04,-0.13 0.02,-0.19 -0.01,-0.01 -0.01,-0.01 -0.01,-0.02 0,0 0,0 -0.01,-0.01 -0.01,-0.02 0,-0.02 0.02,-0.05 0,0 0,-0.01 0.01,-0.01l0.14 -0.19c0,-0.01 0,-0.01 0,-0.01 0.01,-0.01 0.01,-0.02 0.02,-0.02l0.03 -0.05c0.01,-0.01 0.01,-0.02 0.02,-0.02 0,-0.01 0.02,-0.03 0.03,-0.05 0.01,-0.01 0.03,-0.05 0.04,-0.06 0.01,0 0.01,-0.01 0.02,-0.02 0.02,-0.03 0.04,-0.05 0.05,-0.1 0,0 0,-0.02 0,-0.02l0 -0.05 0 -0.01c0,-0.02 -0.01,-0.04 -0.02,-0.06 -0.01,-0.03 -0.03,-0.06 -0.06,-0.08 -0.07,-0.04 -0.15,-0.05 -0.22,-0.01 -0.03,0.02 -0.07,0.06 -0.09,0.09l-0.02 0.03c-0.02,0.02 -0.04,0.06 -0.06,0.08l-0.24 0.34c0,0 -0.01,0.01 -0.01,0.01 -0.02,0 -0.04,0 -0.07,0 0,-0.07 0,-0.14 0,-0.21 0,-0.08 0,-0.15 0,-0.22 0,-0.03 0,-0.07 0,-0.1 0,-0.02 0,-0.04 0,-0.06 0,-0.01 0,-0.03 0,-0.05 0,-0.02 0,-0.03 0,-0.05 0,-0.05 -0.02,-0.09 -0.04,-0.12 -0.01,-0.01 -0.01,-0.01 -0.01,-0.02 -0.03,-0.03 -0.07,-0.06 -0.1,-0.08 -0.03,-0.02 -0.05,-0.03 -0.07,-0.04 -0.02,-0.01 -0.03,-0.01 -0.04,-0.02 -0.08,-0.03 -0.18,-0.05 -0.26,-0.06 -0.04,0 -0.07,0 -0.1,-0.01 -0.01,0 -0.05,0 -0.05,0l-0.1 0c-0.01,0 -0.01,0 -0.01,0 -0.03,0 -0.09,0.01 -0.11,0.01 -0.11,0.01 -0.24,0.04 -0.34,0.09l-0.07 0.04c-0.01,0 -0.01,0 -0.01,0.01 -0.01,0 -0.02,0.01 -0.03,0.02 -0.01,0.01 -0.01,0.01 -0.02,0.02 -0.01,0.01 0,0.01 -0.01,0.01 -0.02,0.03 -0.05,0.07 -0.06,0.11 0,0 0,0.03 0,0.03z"/>
 </g>
</svg>
