<?xml version="1.0" encoding="UTF-8"?>
<!DOCTYPE svg PUBLIC "-//W3C//DTD SVG 1.0//EN" "http://www.w3.org/TR/2001/REC-SVG-20010904/DTD/svg10.dtd">
<!-- Creator: CorelDRAW 2018 (64 Bit Versão de avaliação) -->
<svg xmlns="http://www.w3.org/2000/svg" xml:space="preserve" width="41px" height="41px" version="1.0" shape-rendering="geometricPrecision" text-rendering="geometricPrecision" image-rendering="optimizeQuality" fill-rule="evenodd" clip-rule="evenodd"
viewBox="0 0 1.92 1.92"
 xmlns:xlink="http://www.w3.org/1999/xlink">
 <g id="Camada_x0020_1">
  <metadata id="CorelCorpID_0Corel-Layer"/>
  <g id="_2751331885072">
   <g>
    <path fill="#292929" d="M0.39 0.09l0 0.06c-0.14,0 -0.19,0 -0.28,0.07 -0.05,0.04 -0.11,0.14 -0.11,0.21l0 1.21c0,0.07 0.04,0.14 0.09,0.19 0.05,0.05 0.12,0.09 0.2,0.09l0.6 0c0.04,0 0.08,-0.04 0.08,-0.08 0,-0.03 -0.01,-0.06 -0.03,-0.08 -0.02,-0.01 -0.04,-0.02 -0.07,-0.02 -0.05,0 -0.38,0 -0.4,0 -0.04,0.01 -0.16,0 -0.2,-0.01 -0.05,-0.02 -0.09,-0.07 -0.09,-0.13l0 -1.13c0,-0.02 0.01,-0.05 0.02,-0.06 0.03,-0.08 0.1,-0.08 0.19,-0.08 0,0.04 -0.01,0.08 0.02,0.12 0.03,0.03 0.12,0.05 0.15,-0.02 0.01,-0.02 0.01,-0.06 0.01,-0.08 0,-0.01 -0.01,-0.02 0.01,-0.02l0.29 0 0 0.05c0,0.12 0.12,0.12 0.16,0.07 0.02,-0.04 0.02,-0.08 0.02,-0.12l0.3 0c0,0.04 -0.01,0.08 0.02,0.12 0.04,0.04 0.16,0.05 0.16,-0.06 0,-0.02 0,-0.02 0,-0.03 0,-0.01 0,-0.02 0,-0.03 0.06,0 0.13,0 0.16,0.03 0.02,0.02 0.03,0.03 0.04,0.05 0.02,0.04 0.01,0.18 0.01,0.23l0 0.22c0,0.03 0,0.06 0.02,0.08 0.04,0.05 0.13,0.04 0.15,-0.02 0.01,-0.01 0.01,-0.02 0.01,-0.03l0 -0.46c0,-0.06 -0.04,-0.13 -0.08,-0.18 -0.06,-0.07 -0.13,-0.1 -0.23,-0.1l-0.08 0c0,-0.02 0,-0.02 0,-0.03 0.01,-0.02 0,-0.06 -0.01,-0.08 -0.01,-0.02 -0.04,-0.04 -0.07,-0.04l-0.02 0c-0.03,0 -0.05,0.01 -0.06,0.03 -0.02,0.04 -0.02,0.08 -0.02,0.12l-0.3 0c0,-0.04 0,-0.09 -0.02,-0.12 -0.03,-0.03 -0.05,-0.03 -0.08,-0.03l0 0c-0.03,0 -0.05,0.01 -0.06,0.03 -0.03,0.03 -0.02,0.08 -0.02,0.12l-0.3 0c0,-0.02 0,-0.01 0,-0.03 0,-0.06 -0.01,-0.12 -0.09,-0.12 -0.03,0 -0.05,0 -0.07,0.03 -0.01,0.01 -0.02,0.03 -0.02,0.06z"/>
    <path fill="#292929" d="M1.16 1.46c0,-0.03 0.02,-0.09 0.03,-0.12 0.01,-0.02 0.03,-0.05 0.04,-0.07 0,0 0.01,0 0.01,-0.01 0,0 0,-0.01 0.01,-0.01 0,-0.01 0.01,-0.01 0.02,-0.02 0.1,-0.09 0.29,-0.09 0.4,0.02l0.03 0.04c0.01,0 0.01,0.01 0.01,0.02 0.05,0.09 0.06,0.18 0.02,0.28 -0.02,0.04 -0.05,0.07 -0.08,0.1 -0.02,0.01 -0.05,0.03 -0.07,0.04 -0.1,0.04 -0.2,0.03 -0.29,-0.03 -0.07,-0.04 -0.11,-0.12 -0.13,-0.21 0,0 0,-0.02 0,-0.03zm-0.15 -0.02c0,0.12 0.03,0.21 0.1,0.3 0.04,0.05 0.09,0.09 0.16,0.12 0.02,0.02 0.04,0.02 0.08,0.03 0.15,0.04 0.31,0 0.43,-0.11 0.07,-0.08 0.13,-0.19 0.13,-0.31 0,-0.08 -0.01,-0.13 -0.04,-0.2 -0.01,-0.01 -0.02,-0.02 -0.02,-0.03 -0.02,-0.03 -0.05,-0.08 -0.07,-0.1 -0.02,-0.02 -0.04,-0.03 -0.06,-0.05 -0.08,-0.05 -0.16,-0.08 -0.27,-0.08 -0.11,0 -0.2,0.04 -0.27,0.1 -0.03,0.03 -0.03,0.02 -0.05,0.04l-0.02 0.03c-0.05,0.07 -0.1,0.16 -0.1,0.26z"/>
    <path fill="#292929" d="M1.38 1.32l0 0.13c0,0.05 0.03,0.08 0.08,0.08l0.1 0c0.03,0 0.04,0 0.06,-0.01 0.03,-0.03 0.03,-0.09 0,-0.12 -0.02,-0.02 -0.05,-0.02 -0.09,-0.02 0,-0.06 0.02,-0.15 -0.07,-0.15 -0.05,0 -0.08,0.04 -0.08,0.09z"/>
    <path fill="#292929" d="M1.37 0.78c0,0.02 0,0.04 0.02,0.07 0.04,0.04 0.13,0.02 0.13,-0.06 0,-0.1 -0.15,-0.09 -0.15,-0.01z"/>
    <path fill="#292929" d="M0.4 0.78c0,0.02 0,0.04 0.03,0.07 0.04,0.04 0.12,0.01 0.12,-0.06 0,-0.1 -0.15,-0.09 -0.15,-0.01z"/>
    <path fill="#292929" d="M0.72 1.11c0,0.11 0.15,0.1 0.15,0.01 0,-0.03 0,-0.04 -0.02,-0.06 -0.04,-0.04 -0.13,-0.02 -0.13,0.05z"/>
    <path fill="#292929" d="M0.4 1.42l0 0.02c0,0.09 0.15,0.1 0.15,-0.01 0,-0.04 -0.03,-0.07 -0.06,-0.07l-0.02 0c-0.03,0 -0.07,0.03 -0.07,0.06z"/>
    <path fill="#292929" d="M1.04 0.79c0,0.04 0.03,0.08 0.08,0.08 0.04,0 0.07,-0.03 0.07,-0.08 0,-0.1 -0.15,-0.1 -0.15,0z"/>
    <path fill="#292929" d="M0.4 1.1c0,0.03 0,0.05 0.03,0.07 0.01,0.01 0.03,0.02 0.05,0.02 0.02,0 0.02,-0.01 0.03,-0.01 0.07,-0.03 0.05,-0.14 -0.03,-0.14 -0.04,0 -0.08,0.03 -0.08,0.06z"/>
    <path fill="#292929" d="M0.72 1.43c0,0.11 0.15,0.1 0.15,0.01 0,-0.03 0,-0.04 -0.01,-0.06 -0.05,-0.04 -0.14,-0.02 -0.14,0.05z"/>
    <path fill="#292929" d="M0.72 0.79c0,0.07 0.07,0.09 0.11,0.07 0.06,-0.03 0.06,-0.14 -0.03,-0.14 -0.04,0 -0.08,0.03 -0.08,0.07z"/>
   </g>
  </g>
 </g>
</svg>
