<?xml version="1.0" encoding="UTF-8"?>
<!DOCTYPE svg PUBLIC "-//W3C//DTD SVG 1.0//EN" "http://www.w3.org/TR/2001/REC-SVG-20010904/DTD/svg10.dtd">
<!-- Creator: CorelDRAW 2018 (64 Bit Versão de avaliação) -->
<svg xmlns="http://www.w3.org/2000/svg" xml:space="preserve" width="37px" height="41px" version="1.0" shape-rendering="geometricPrecision" text-rendering="geometricPrecision" image-rendering="optimizeQuality" fill-rule="evenodd" clip-rule="evenodd"
viewBox="0 0 13.34 14.85"
 xmlns:xlink="http://www.w3.org/1999/xlink">
 <g id="Camada_x0020_1">
  <metadata id="CorelCorpID_0Corel-Layer"/>
  <path fill="black" d="M1.38 7.37l10.55 0 0 4.23c0,0.49 -0.07,0.8 -0.25,1.17 -0.18,0.24 -0.43,0.49 -0.8,0.61 -0.3,0.06 -1.04,0.06 -1.41,0.06 -1.84,0 -3.74,0 -5.64,0 -0.37,0 -1.04,0 -1.35,-0.06 -0.37,-0.12 -0.67,-0.37 -0.8,-0.61 -0.24,-0.37 -0.3,-0.62 -0.3,-1.17l0 -4.23 0 0 0 0zm3 -3.62c-0.06,-0.12 -0.06,-0.74 0,-0.86 0.31,0 0.8,0 1.17,0 0.49,0 3.31,0 3.37,0l0.06 0.98c0,0.37 0.61,0.74 1.04,0.43 0.43,-0.31 0.31,-0.8 0.31,-1.41 0.37,0.06 0.68,0.12 0.92,0.31 0.86,0.61 0.68,1.59 0.68,2.76l-10.55 0c0,-0.37 0,-0.8 0,-1.17 0,-0.43 0,-0.67 0.18,-0.98 0.18,-0.49 0.74,-0.86 1.41,-0.92 0,0.61 -0.12,1.1 0.31,1.41 0.49,0.31 1.1,-0.06 1.1,-0.55l0 0 0 0zm-1.41 -2.27c-0.98,0.06 -1.53,0.31 -2.08,0.86 -0.37,0.37 -0.86,1.1 -0.86,1.9 -0.06,0.98 0,1.96 0,2.88l0 4.36c0,0.49 -0.06,0.79 0.06,1.29 0.24,0.73 0.73,1.28 1.29,1.65 0.73,0.43 1.41,0.43 2.39,0.43l5.76 0c0.98,0 1.66,0 2.4,-0.43 0.55,-0.37 1.04,-0.86 1.28,-1.65 0.13,-0.43 0.13,-0.8 0.13,-1.29l0 -7.18c0,-0.43 -0.19,-0.86 -0.31,-1.16 -0.19,-0.37 -0.37,-0.62 -0.61,-0.8 -0.68,-0.55 -1.17,-0.86 -2.09,-0.86 0,-0.31 0.06,-0.74 -0.06,-1.04 -0.18,-0.62 -1.04,-0.55 -1.29,0 -0.06,0.18 -0.06,0.8 -0.06,1.04l-4.54 0c0,-0.24 0,-0.86 -0.06,-1.04 -0.06,-0.19 -0.31,-0.43 -0.67,-0.43 -0.31,0 -0.56,0.24 -0.62,0.43 -0.12,0.24 -0.06,0.8 -0.06,1.04l0 0 0 0z"/>
 </g>
</svg>
