<?xml version="1.0" encoding="UTF-8"?>
<!DOCTYPE svg PUBLIC "-//W3C//DTD SVG 1.0//EN" "http://www.w3.org/TR/2001/REC-SVG-20010904/DTD/svg10.dtd">
<!-- Creator: CorelDRAW 2018 (64 Bit Versão de avaliação) -->
<svg xmlns="http://www.w3.org/2000/svg" xml:space="preserve" width="43px" height="41px" version="1.0" shape-rendering="geometricPrecision" text-rendering="geometricPrecision" image-rendering="optimizeQuality" fill-rule="evenodd" clip-rule="evenodd"
viewBox="0 0 1.74 1.65"
 xmlns:xlink="http://www.w3.org/1999/xlink">
 <g id="Camada_x0020_1">
  <metadata id="CorelCorpID_0Corel-Layer"/>
  <g id="_2889414589056">
   <g>
    <path fill="black" d="M0.84 1.12c-0.05,0 -0.05,-0.02 -0.09,-0.05l-0.15 -0.16c-0.05,-0.06 0.01,-0.11 0.04,-0.11 0.05,0 0.14,0.12 0.19,0.16l0.17 -0.17c0.02,-0.02 0.06,-0.07 0.09,-0.07 0.04,-0.02 0.09,0.02 0.08,0.07 0,0.04 -0.12,0.14 -0.15,0.17 -0.03,0.03 -0.14,0.16 -0.18,0.16zm-0.84 0.15c0,0.04 0.02,0.06 0.07,0.06l1.26 0c0.1,0 0.14,-0.03 0.17,-0.11 0.08,-0.18 0.13,-0.33 0.16,-0.53 0.01,-0.04 0.02,-0.09 0.02,-0.13 0,0 -0.01,-0.01 -0.02,-0.01l-1.44 0c-0.02,0 -0.01,0.02 -0.02,0.04 0,0.02 0,0.04 0,0.05 -0.04,0.2 -0.09,0.37 -0.17,0.55 0,0.01 -0.03,0.07 -0.03,0.08z"/>
    <path fill="black" d="M0.09 0.51c0,0 0,-0.01 0,-0.01l0.02 -0.02c0.02,-0.04 0.06,-0.06 0.1,-0.06l1.46 0c0.03,0 0.04,0.01 0.07,0.02 0,-0.14 0.01,-0.29 -0.12,-0.38 -0.03,-0.02 -0.05,-0.03 -0.09,-0.05 -0.1,-0.03 -0.06,0 -0.07,0.15 0,0.08 -0.13,0.08 -0.13,-0.01l0 -0.15 -0.83 0 0 0.15c0,0.06 -0.08,0.09 -0.12,0.04 -0.03,-0.04 0.01,-0.19 -0.02,-0.19 -0.11,0 -0.19,0.06 -0.24,0.15 -0.03,0.05 -0.03,0.1 -0.03,0.16 0,0.07 0,0.13 0,0.2z"/>
    <path fill="black" d="M0.1 1.46c0.02,0.05 0.06,0.1 0.09,0.13 0.04,0.03 0.1,0.06 0.16,0.06l1.12 0c0.07,0 0.12,-0.03 0.17,-0.07 0.04,-0.03 0.07,-0.09 0.09,-0.15 0.01,-0.06 0.01,-0.37 0.01,-0.46 -0.01,0.01 -0.03,0.08 -0.04,0.09 -0.01,0.04 -0.02,0.07 -0.04,0.1l-0.03 0.09c-0.02,0.04 -0.04,0.08 -0.06,0.11 -0.04,0.05 -0.08,0.07 -0.14,0.09 -0.07,0.02 -0.18,0.01 -0.26,0.01 -0.36,0 -0.71,0 -1.07,0z"/>
   </g>
  </g>
 </g>
</svg>
