<?xml version="1.0" encoding="UTF-8"?>
<!DOCTYPE svg PUBLIC "-//W3C//DTD SVG 1.0//EN" "http://www.w3.org/TR/2001/REC-SVG-20010904/DTD/svg10.dtd">
<!-- Creator: CorelDRAW 2018 (64 Bit Versão de avaliação) -->
<svg xmlns="http://www.w3.org/2000/svg" xml:space="preserve" width="46px" height="41px" version="1.0" shape-rendering="geometricPrecision" text-rendering="geometricPrecision" image-rendering="optimizeQuality" fill-rule="evenodd" clip-rule="evenodd"
viewBox="0 0 4.33 3.92"
 xmlns:xlink="http://www.w3.org/1999/xlink">
 <g id="Camada_x0020_1">
  <metadata id="CorelCorpID_0Corel-Layer"/>
  <g id="_2268470021712">
   <g>
    <path fill="black" d="M1.11 2.16c0,-0.14 0.04,-0.32 0.09,-0.42 0.11,-0.23 0.26,-0.4 0.49,-0.52 0.48,-0.24 1.05,-0.08 1.35,0.35 0.07,0.11 0.12,0.23 0.15,0.36 0.07,0.29 0,0.59 -0.16,0.82 -0.45,0.67 -1.48,0.6 -1.83,-0.16 -0.05,-0.12 -0.09,-0.29 -0.09,-0.43zm-1.11 -0.77l0 1.92c0,0.35 0.24,0.61 0.53,0.61l3.27 0c0.09,0 0.17,-0.03 0.23,-0.06 0.19,-0.1 0.3,-0.3 0.3,-0.55l0 -1.92c0,-0.33 -0.22,-0.56 -0.51,-0.59 -0.3,-0.03 -0.32,0.08 -0.48,-0.26 -0.05,-0.08 -0.08,-0.16 -0.13,-0.24 -0.03,-0.08 -0.1,-0.15 -0.17,-0.2 -0.06,-0.04 -0.17,-0.1 -0.27,-0.1l-1.21 0c-0.09,0 -0.2,0.06 -0.27,0.1 -0.15,0.1 -0.21,0.27 -0.29,0.44 -0.17,0.33 -0.18,0.24 -0.48,0.26 -0.29,0.02 -0.52,0.26 -0.52,0.59z"/>
    <path fill="black" d="M1.41 2.12c0,0.26 0.06,0.4 0.23,0.58 0.34,0.35 0.95,0.27 1.2,-0.2 0.1,-0.19 0.11,-0.47 0.01,-0.67 -0.03,-0.05 -0.04,-0.07 -0.07,-0.11 -0.26,-0.34 -0.69,-0.42 -1.04,-0.19 -0.05,0.04 -0.11,0.08 -0.14,0.13 -0.02,0.02 -0.03,0.03 -0.05,0.05 -0.07,0.11 -0.14,0.26 -0.14,0.41z"/>
   </g>
  </g>
 </g>
</svg>
