<?xml version="1.0" encoding="UTF-8"?>
<!DOCTYPE svg PUBLIC "-//W3C//DTD SVG 1.0//EN" "http://www.w3.org/TR/2001/REC-SVG-20010904/DTD/svg10.dtd">
<!-- Creator: CorelDRAW 2018 (64 Bit Versão de avaliação) -->
<svg xmlns="http://www.w3.org/2000/svg" xml:space="preserve" width="41px" height="34px" version="1.0" shape-rendering="geometricPrecision" text-rendering="geometricPrecision" image-rendering="optimizeQuality" fill-rule="evenodd" clip-rule="evenodd"
viewBox="0 0 3.46 2.82"
 xmlns:xlink="http://www.w3.org/1999/xlink">
 <g id="Camada_x0020_1">
  <metadata id="CorelCorpID_0Corel-Layer"/>
  <g id="_1447791496096">
   <g>
    <path fill="black" d="M0.25 2.46l0 -1.68c0,-0.08 0.05,-0.1 0.13,-0.1 0.03,0 0.08,0 0.11,0 0.02,0 0.2,0 0.24,0 0.12,-0.02 0.18,-0.08 0.25,-0.16l0.21 -0.2c0.02,-0.03 0.05,-0.06 0.08,-0.06l0.91 0c0.04,0 0.07,0.03 0.08,0.05l0.26 0.26c0.02,0.02 0.04,0.04 0.07,0.06 0.11,0.07 0.31,0.05 0.46,0.05 0.09,0 0.15,0.01 0.15,0.1l0 1.68c0,0.05 -0.03,0.1 -0.08,0.1l-2.79 0c-0.05,0 -0.08,-0.05 -0.08,-0.1zm0.38 -2.03c-0.18,0 -0.38,-0.04 -0.52,0.08 -0.05,0.05 -0.11,0.15 -0.11,0.22l0 1.78c0,0.08 0.06,0.18 0.13,0.23 0.03,0.02 0.04,0.03 0.08,0.05 0.03,0.01 0.08,0.03 0.13,0.03l2.78 0c0.06,0 0.13,-0.03 0.18,-0.06 0.08,-0.05 0.16,-0.15 0.16,-0.25l0 -1.78c0,-0.06 -0.04,-0.13 -0.07,-0.17 -0.04,-0.05 -0.08,-0.08 -0.13,-0.11 -0.1,-0.04 -0.23,-0.02 -0.33,-0.02 -0.09,0 -0.17,0.01 -0.22,-0.04 -0.04,-0.04 -0.23,-0.24 -0.26,-0.26 -0.01,-0.01 -0.02,-0.02 -0.03,-0.03 -0.01,-0.01 -0.03,-0.02 -0.04,-0.03 -0.05,-0.04 -0.12,-0.07 -0.2,-0.07l-0.91 0c-0.12,0 -0.19,0.06 -0.27,0.13l-0.13 0.14c-0.02,0.02 -0.04,0.04 -0.06,0.07l-0.08 0.06c-0.02,0.02 -0.06,0.03 -0.1,0.03z"/>
    <path fill="black" d="M1.74 2.02c-0.21,0 -0.38,-0.11 -0.47,-0.29 -0.12,-0.24 -0.02,-0.55 0.23,-0.67 0.16,-0.09 0.37,-0.07 0.52,0.04 0.06,0.04 0.11,0.09 0.15,0.16 0.08,0.13 0.09,0.32 0.02,0.46 -0.04,0.09 -0.09,0.16 -0.16,0.21 -0.08,0.06 -0.18,0.09 -0.29,0.09zm-0.05 0.26c0.13,0 0.24,-0.01 0.33,-0.05 0.05,-0.03 0.08,-0.04 0.12,-0.07 0.17,-0.11 0.28,-0.26 0.33,-0.45 0.05,-0.16 0.03,-0.37 -0.04,-0.52 -0.04,-0.07 -0.06,-0.1 -0.11,-0.17 -0.03,-0.03 -0.07,-0.07 -0.1,-0.1 -0.13,-0.11 -0.31,-0.18 -0.5,-0.18 -0.19,0 -0.4,0.1 -0.53,0.23 -0.02,0.01 -0.03,0.03 -0.05,0.05l-0.04 0.05c-0.07,0.1 -0.12,0.22 -0.14,0.34 0,0.03 0,0.06 0,0.09 -0.01,0.09 0.03,0.23 0.06,0.31 0.02,0.05 0.04,0.09 0.07,0.13 0.03,0.05 0.05,0.06 0.08,0.1 0.04,0.06 0.16,0.14 0.22,0.16 0.07,0.04 0.19,0.08 0.3,0.08z"/>
   </g>
  </g>
 </g>
</svg>
