<?xml version="1.0" encoding="UTF-8"?>
<!DOCTYPE svg PUBLIC "-//W3C//DTD SVG 1.0//EN" "http://www.w3.org/TR/2001/REC-SVG-20010904/DTD/svg10.dtd">
<!-- Creator: CorelDRAW 2018 (64 Bit Versão de avaliação) -->
<svg xmlns="http://www.w3.org/2000/svg" xml:space="preserve" width="41px" height="41px" version="1.0" shape-rendering="geometricPrecision" text-rendering="geometricPrecision" image-rendering="optimizeQuality" fill-rule="evenodd" clip-rule="evenodd"
viewBox="0 0 5.79 5.79"
 xmlns:xlink="http://www.w3.org/1999/xlink">
 <g id="Camada_x0020_1">
  <metadata id="CorelCorpID_0Corel-Layer"/>
  <g id="_1888433694128">
   <g>
    <path fill="#292929" d="M4.01 1.33c-0.06,-0.09 -0.04,-0.18 -0.04,-0.33 0.07,0.05 0.14,0.14 0.2,0.18 -0.02,0.04 -0.11,0.13 -0.16,0.15zm1.47 -1.33l0.04 0c0.07,0 0.13,0.03 0.18,0.08 0.05,0.06 0.08,0.12 0.09,0.17l0 0.07c-0.03,0.21 -0.29,0.4 -0.37,0.48l-4.36 4.36c-0.11,0.12 -0.21,0.23 -0.33,0.35l-0.19 0.16c-0.06,0.05 -0.12,0.12 -0.22,0.12 -0.24,0 -0.32,-0.13 -0.32,-0.35 0,-0.09 0.11,-0.2 0.17,-0.25 0.15,-0.12 0.13,-0.14 0.13,-0.27l0 -4.02c0,-0.19 0,-0.36 0.1,-0.5 0.13,-0.2 0.34,-0.4 0.61,-0.4l2.68 0c0.13,0 0.19,0.1 0.27,0.16 0.1,0.08 0.59,0.54 0.66,0.59 0.05,-0.08 0.13,-0.13 0.19,-0.2 0.1,-0.11 0.42,-0.44 0.51,-0.5 0.05,-0.03 0.11,-0.05 0.16,-0.05zm-2.14 0.7c0,0.31 -0.03,0.86 0.26,1.06l-1.03 1.03c-0.08,-0.26 -0.44,-0.2 -0.65,-0.2 -0.47,0 -0.45,0.46 -0.2,0.58 0.1,0.05 0.29,0.03 0.43,0.03 -0.07,0.11 -0.48,0.46 -0.62,0.63 -0.08,0.1 -0.22,0.23 -0.31,0.32 -0.08,0.08 -0.25,0.26 -0.32,0.31l0 -3.54c0,-0.15 0,-0.24 0.1,-0.29 0.11,-0.06 0.6,-0.03 0.77,-0.03 0.53,0 1.06,0 1.59,0 -0.01,0.04 -0.02,0.05 -0.02,0.1z"/>
    <path fill="#292929" d="M4.89 1.7l0 2.59c0,1.05 0.11,0.89 -0.81,0.89l-2.64 0c-0.43,0 -0.4,0.61 -0.04,0.61l3.39 0c0.31,0 0.7,-0.37 0.7,-0.74l0 -3.38c0,-0.14 -0.13,-0.28 -0.27,-0.28 -0.1,0 -0.18,0.01 -0.26,0.09 -0.04,0.05 -0.07,0.14 -0.07,0.22z"/>
    <path fill="#292929" d="M1.54 1.82c0,0.17 0.11,0.32 0.26,0.32l1.14 0c0.15,0 0.25,-0.15 0.25,-0.32 0,-0.14 -0.14,-0.28 -0.29,-0.28l-1.06 0c-0.15,0 -0.3,0.14 -0.3,0.28z"/>
    <path fill="#292929" d="M2.67 3.93c0,0.16 0.12,0.32 0.28,0.32l0.98 0c0.43,0 0.39,-0.61 0.04,-0.61l-1.04 0c-0.09,0 -0.14,0.04 -0.18,0.09 -0.04,0.04 -0.08,0.13 -0.08,0.2z"/>
   </g>
  </g>
 </g>
</svg>
