<?xml version="1.0" encoding="UTF-8"?>
<!DOCTYPE svg PUBLIC "-//W3C//DTD SVG 1.0//EN" "http://www.w3.org/TR/2001/REC-SVG-20010904/DTD/svg10.dtd">
<!-- Creator: CorelDRAW 2018 (64 Bit Versão de avaliação) -->
<svg xmlns="http://www.w3.org/2000/svg" xml:space="preserve" width="41px" height="41px" version="1.0" shape-rendering="geometricPrecision" text-rendering="geometricPrecision" image-rendering="optimizeQuality" fill-rule="evenodd" clip-rule="evenodd"
viewBox="0 0 3.44 3.46"
 xmlns:xlink="http://www.w3.org/1999/xlink">
 <g id="Camada_x0020_1">
  <metadata id="CorelCorpID_0Corel-Layer"/>
  <g id="_2889412639072">
   <g>
    <path fill="black" d="M1.4 1.23l1.45 0c0.16,0 0.16,0.2 0,0.2l-1.45 0c-0.16,0 -0.16,-0.2 0,-0.2zm1.77 2.23l-1.62 0c0.01,-0.01 0.14,-0.11 0.21,-0.2l0.1 -0.14c0.04,-0.05 0.08,-0.14 0.1,-0.21 0.03,-0.07 0.06,-0.19 0.06,-0.26l0.83 0c0.16,0 0.16,-0.21 0,-0.21l-0.83 0c0,-0.09 -0.04,-0.23 -0.08,-0.31 -0.01,-0.03 -0.03,-0.06 -0.04,-0.09l0.94 0c0.18,0 0.17,-0.2 0,-0.2l-1.08 0c-0.01,-0.04 -0.14,-0.15 -0.17,-0.17 -0.09,-0.07 -0.11,-0.08 -0.21,-0.13 -0.08,-0.04 -0.17,-0.07 -0.26,-0.09 -0.09,-0.02 -0.09,-0.01 -0.15,-0.01 -0.13,-0.02 -0.08,0 -0.16,0l0 -1.15c0,-0.16 0.15,-0.29 0.28,-0.29l1.48 0 0 0.76c0,0.08 0.04,0.12 0.12,0.12l0.75 0 0 2.29c0,0.04 -0.01,0.09 -0.02,0.12 -0.02,0.03 -0.04,0.05 -0.06,0.07 -0.05,0.05 -0.1,0.09 -0.18,0.1 0,0 -0.01,0 -0.01,0z"/>
    <path fill="black" d="M0.91 2.4c0.06,-0.03 0.22,-0.22 0.25,-0.24 0.09,-0.05 0.19,0.04 0.14,0.13 -0.01,0.03 -0.21,0.2 -0.25,0.26 0.1,0.14 0.35,0.25 0.24,0.37 -0.03,0.03 -0.08,0.04 -0.12,0.02 -0.02,-0.01 -0.07,-0.06 -0.09,-0.08 -0.04,-0.05 -0.13,-0.15 -0.17,-0.17 -0.04,0.02 -0.13,0.12 -0.17,0.16 -0.01,0.02 -0.06,0.07 -0.08,0.09 -0.04,0.02 -0.09,0.01 -0.12,-0.02 -0.03,-0.03 -0.04,-0.08 -0.02,-0.12 0.02,-0.03 0.21,-0.2 0.25,-0.25 -0.1,-0.15 -0.35,-0.26 -0.23,-0.38 0.03,-0.03 0.07,-0.04 0.12,-0.02 0.03,0.02 0.19,0.22 0.25,0.25zm0.07 1.06l-0.13 0c-0.16,-0.01 -0.32,-0.07 -0.47,-0.17 -0.04,-0.03 -0.11,-0.08 -0.14,-0.13 -0.01,-0.01 -0.01,-0.01 -0.03,-0.02 -0.01,-0.02 -0.03,-0.05 -0.04,-0.07l-0.08 -0.13c-0.08,-0.15 -0.09,-0.27 -0.09,-0.44 0,-0.14 0.06,-0.32 0.12,-0.42 0.07,-0.11 0.16,-0.21 0.26,-0.28 0.28,-0.18 0.63,-0.23 0.92,-0.08 0.03,0.01 0.05,0.02 0.07,0.04 0.03,0.01 0.05,0.03 0.07,0.04 0.09,0.06 0.1,0.09 0.17,0.16l0.09 0.12c0.15,0.25 0.17,0.6 0.04,0.86l-0.08 0.13c-0.02,0.03 -0.03,0.05 -0.05,0.07 -0.06,0.06 -0.09,0.09 -0.17,0.15 -0.15,0.1 -0.31,0.16 -0.46,0.17z"/>
    <polygon fill="black" points="2.77,0.68 3.38,0.68 2.77,0.06 "/>
   </g>
  </g>
 </g>
</svg>
