<?xml version="1.0" encoding="UTF-8"?>
<!DOCTYPE svg PUBLIC "-//W3C//DTD SVG 1.0//EN" "http://www.w3.org/TR/2001/REC-SVG-20010904/DTD/svg10.dtd">
<!-- Creator: CorelDRAW 2018 (64 Bit Versão de avaliação) -->
<svg xmlns="http://www.w3.org/2000/svg" xml:space="preserve" width="43px" height="32px" version="1.0" shape-rendering="geometricPrecision" text-rendering="geometricPrecision" image-rendering="optimizeQuality" fill-rule="evenodd" clip-rule="evenodd"
viewBox="0 0 3.78 2.81"
 xmlns:xlink="http://www.w3.org/1999/xlink">
 <g id="Camada_x0020_1">
  <metadata id="CorelCorpID_0Corel-Layer"/>
  <path fill="black" d="M1.01 2.08c0,-0.07 0.1,-0.12 0.15,-0.14 0.07,-0.03 0.14,-0.05 0.22,-0.06 0.41,-0.07 0.59,-0.08 1.01,0 0.08,0.01 0.25,0.05 0.32,0.1 0.15,0.12 -0.02,0.25 -0.13,0.26 -0.06,0 -0.11,0 -0.16,0 -0.04,0.01 -1.08,0.01 -1.22,0 -0.08,-0.01 -0.19,-0.07 -0.19,-0.16zm-0.76 -0.72c0,-0.11 0.06,-0.1 0.14,-0.1 0.07,0 0.21,0.05 0.27,0.08 0.04,0.01 0.22,0.09 0.22,0.13 0,0.02 0,0.02 -0.01,0.04 -0.06,0.02 -0.21,0.02 -0.28,0.03 -0.12,0 -0.34,0.06 -0.34,-0.18zm2.64 0.12c0,-0.1 0.43,-0.22 0.51,-0.22 0.06,0 0.05,0 0.11,0.01 0.01,0.08 0.03,0.2 -0.05,0.24 -0.1,0.06 -0.37,0.03 -0.49,0.01 -0.04,0 -0.08,0.01 -0.08,-0.04zm-2.14 -0.61c0,-0.06 0.11,-0.26 0.13,-0.3 0.07,-0.1 0.14,-0.15 0.26,-0.19 0.4,-0.13 1.12,-0.13 1.49,0 0.11,0.04 0.18,0.07 0.25,0.18 0.04,0.05 0.26,0.4 0.07,0.38l-0.58 -0.03c-0.27,0 -0.55,-0.02 -0.81,0 -0.05,0.01 -0.11,0 -0.15,0 -0.06,0 -0.09,0.01 -0.14,0.01l-0.44 0.02c-0.05,0 -0.08,-0.02 -0.08,-0.07zm-0.22 -0.17c-0.05,0 -0.15,0 -0.19,0.01 -0.06,0.02 -0.09,0.08 -0.09,0.15 0,0.08 0.09,0.1 0.01,0.14l-0.12 0.09c-0.14,0.13 -0.14,0.68 -0.14,0.9 0,0.13 0.02,0.28 0.04,0.39 0.02,0.11 0.04,0.28 0.15,0.29 0,0.08 0.06,0.14 0.11,0.14l0.47 0c0.05,0 0.11,-0.06 0.11,-0.14 0.15,0 0.29,-0.08 0.5,-0.08 0.14,0 0.33,-0.03 0.51,-0.03 0.09,0 0.16,0.01 0.26,0.01 0.08,0 0.4,0.03 0.49,0.05 0.1,0.02 0.14,0.05 0.25,0.05 0,0.05 0.01,0.07 0.04,0.09 0.01,0.02 0.04,0.05 0.07,0.05l0.48 0c0.04,0 0.11,-0.06 0.11,-0.14 0.1,-0.01 0.12,-0.16 0.14,-0.27 0.06,-0.34 0.07,-0.78 -0.01,-1.11 -0.03,-0.15 -0.06,-0.19 -0.16,-0.26 -0.05,-0.03 -0.08,-0.04 -0.08,-0.06 0,-0.04 0.04,-0.03 0.04,-0.14 0,-0.05 -0.05,-0.11 -0.08,-0.12 -0.05,-0.02 -0.14,-0.01 -0.19,-0.01 -0.07,-0.14 -0.06,-0.17 -0.18,-0.33 -0.06,-0.1 -0.16,-0.18 -0.27,-0.23 -0.46,-0.19 -1.36,-0.18 -1.82,0 -0.27,0.11 -0.35,0.34 -0.45,0.56z"/>
 </g>
</svg>
