<?xml version="1.0" encoding="UTF-8"?>
<!DOCTYPE svg PUBLIC "-//W3C//DTD SVG 1.0//EN" "http://www.w3.org/TR/2001/REC-SVG-20010904/DTD/svg10.dtd">
<!-- Creator: CorelDRAW 2018 (64 Bit Versão de avaliação) -->
<svg xmlns="http://www.w3.org/2000/svg" xml:space="preserve" width="70px" height="29px" version="1.0" shape-rendering="geometricPrecision" text-rendering="geometricPrecision" image-rendering="optimizeQuality" fill-rule="evenodd" clip-rule="evenodd"
viewBox="0 0 6.87 2.83"
 xmlns:xlink="http://www.w3.org/1999/xlink">
 <g id="Camada_x0020_1">
  <metadata id="CorelCorpID_0Corel-Layer"/>
  <g id="_1888204314672">
   <g>
    <path fill="#292929" d="M1.18 2.49c-0.11,0 -0.2,-0.05 -0.27,-0.1 -0.13,-0.1 -0.13,-0.19 -0.13,-0.32 0,-0.11 0.04,-0.18 0.1,-0.25 0.24,-0.26 0.68,-0.05 0.68,0.2 0,0.17 0.01,0.23 -0.12,0.36 -0.06,0.06 -0.15,0.11 -0.26,0.11zm0.03 0.34l-0.08 0c-0.14,-0.01 -0.27,-0.06 -0.39,-0.15 -0.09,-0.07 -0.21,-0.19 -0.24,-0.3 -0.13,0 -0.5,0.05 -0.5,-0.13l0 -0.83c0,-0.08 0.06,-0.19 0.1,-0.23 0.06,-0.07 0.1,-0.11 0.18,-0.15 0.15,-0.1 0.28,-0.14 0.45,-0.21 0.13,-0.05 0.37,-0.11 0.52,-0.13 0.1,-0.01 0.27,0 0.3,-0.02 0.07,-0.02 0.16,-0.07 0.22,-0.1 0.18,-0.09 0.29,-0.17 0.49,-0.25 0.33,-0.14 0.57,-0.21 0.95,-0.28 0.31,-0.05 0.47,-0.05 0.77,-0.05l0.03 0c0.41,0 0.83,0.08 1.19,0.2l0.16 0.06c0.14,0.06 0.41,0.19 0.54,0.27 0.03,0.02 0.05,0.03 0.08,0.04 0.1,0.03 0.48,0.07 0.61,0.08 0.07,0.02 0.12,0.02 0.18,0.05 0.05,0.02 0.1,0.06 0.1,0.13l0 0.99c0,0.09 -0.03,0.17 -0.07,0.22 -0.05,0.06 -0.1,0.1 -0.16,0.14 -0.06,0.04 -0.36,0.16 -0.42,0.18 -0.08,0.02 -0.07,0 -0.1,0.05 -0.1,0.23 -0.35,0.42 -0.62,0.42 -0.18,0 -0.34,-0.06 -0.45,-0.14 -0.1,-0.07 -0.22,-0.19 -0.25,-0.31l-2.96 0c-0.05,0.12 -0.08,0.18 -0.2,0.27 -0.13,0.11 -0.28,0.17 -0.43,0.18zm3.86 -0.73c0,-0.19 0.16,-0.4 0.35,-0.4 0.13,0 0.24,0.02 0.32,0.1 0.3,0.3 0,0.73 -0.27,0.69 -0.1,-0.02 -0.18,-0.01 -0.28,-0.12 -0.07,-0.07 -0.12,-0.15 -0.12,-0.27zm-4.63 -0.09l0 0.02 -0.13 0 0 -0.38c0,-0.31 0.15,-0.36 0.42,-0.46 0.22,-0.08 0.38,-0.13 0.61,-0.15l0.31 -0.02c0.09,0 0.14,-0.01 0.22,-0.01 0.13,0 0.32,0.01 0.44,0 0.06,-0.01 0.37,-0.01 0.43,0 0.08,0.01 0.73,0 0.87,0l0 1.02 -1.71 0c-0.02,-0.11 0,-0.11 -0.08,-0.27 -0.11,-0.24 -0.38,-0.4 -0.65,-0.4 -0.16,0 -0.32,0.06 -0.44,0.15 -0.08,0.06 -0.16,0.14 -0.21,0.23 -0.02,0.05 -0.03,0.08 -0.05,0.13 -0.01,0.04 -0.03,0.1 -0.03,0.14zm5.76 -0.65l0.35 0 0 0.37c0,0.16 -0.12,0.18 -0.24,0.23 -0.03,0.01 -0.09,0.04 -0.11,0.04 -0.01,-0.08 -0.05,-0.19 -0.09,-0.26 -0.1,-0.19 -0.29,-0.32 -0.5,-0.37 -0.02,0 -0.05,-0.01 -0.08,-0.01l-0.15 0c-0.12,0.01 -0.29,0.09 -0.37,0.16 -0.06,0.06 -0.08,0.07 -0.13,0.14 -0.05,0.07 -0.09,0.14 -0.12,0.23 -0.01,0.05 -0.02,0.09 -0.03,0.14l-0.78 0 0 -1.02 1.22 0c0.08,0 0.27,-0.26 0.35,-0.3 0.04,0.01 0.07,0.03 0.1,0.05 0.08,0.04 0.14,0.08 0.22,0.11 0.12,0.05 0.41,0.08 0.56,0.11 0.04,0 0.11,0.02 0.15,0.02l0 0.02 -0.35 0 0 0.34zm-2.68 -1.01l0.09 0 0 0.33 -1.33 0 0.28 -0.11c0.22,-0.09 0.72,-0.22 0.96,-0.22zm1.52 0.33l-1.09 0 0 -0.34c0.42,0 0.72,0.05 1.1,0.18l0.13 0.04c-0.01,0.02 -0.11,0.12 -0.14,0.12z"/>
    <polygon fill="#292929" points="2.81,1.36 3.38,1.36 3.38,1.02 2.81,1.02 "/>
   </g>
  </g>
 </g>
</svg>
