<?xml version="1.0" encoding="UTF-8"?>
<!DOCTYPE svg PUBLIC "-//W3C//DTD SVG 1.0//EN" "http://www.w3.org/TR/2001/REC-SVG-20010904/DTD/svg10.dtd">
<!-- Creator: CorelDRAW 2018 (64 Bit Versão de avaliação) -->
<svg xmlns="http://www.w3.org/2000/svg" xml:space="preserve" width="50px" height="41px" version="1.0" shape-rendering="geometricPrecision" text-rendering="geometricPrecision" image-rendering="optimizeQuality" fill-rule="evenodd" clip-rule="evenodd"
viewBox="0 0 3.64 2.96"
 xmlns:xlink="http://www.w3.org/1999/xlink">
 <g id="Camada_x0020_1">
  <metadata id="CorelCorpID_0Corel-Layer"/>
  <g id="_2039389363904">
   <path fill="#292929" d="M0.76 1.23c0.19,-0.02 0.37,-0.01 0.56,-0.01 0.37,0 1.46,-0.03 1.68,0.03 0.38,0.1 0.36,0.39 0.35,0.79 0,0.06 0,0.23 -0.02,0.27 -0.01,0.04 0.01,0.03 -0.04,0.04 -0.09,0.01 -0.71,0.01 -0.76,0 -0.13,-0.01 -0.12,-0.03 -0.17,-0.12 -0.04,-0.07 -0.07,-0.11 -0.12,-0.16 -0.07,-0.08 -0.07,-0.07 -0.21,-0.07 -0.1,0 -0.19,0 -0.29,0 -0.23,0 -0.28,-0.05 -0.42,0.15 -0.14,0.2 -0.03,0.21 -0.37,0.2 -0.18,0 -0.39,0.02 -0.57,0 -0.06,0 -0.07,0 -0.09,-0.06 -0.01,-0.08 -0.01,-0.32 -0.01,-0.41 0.01,-0.41 0.07,-0.61 0.48,-0.65zm-0.03 -0.3c0.03,-0.23 0.16,-0.46 0.32,-0.54 0.22,-0.12 1.31,-0.12 1.54,0 0.14,0.07 0.3,0.32 0.32,0.54l-2.18 0zm0.13 1.71l1.91 0c0.03,0.38 0.03,0.32 0.41,0.32 0.57,0 0.44,0.14 0.45,-1.03 0.01,-0.61 -0.02,-0.45 -0.25,-0.87 -0.04,-0.08 -0.09,-0.15 -0.13,-0.24 -0.22,-0.39 -0.3,-0.66 -0.74,-0.76 -0.38,-0.08 -1.33,-0.11 -1.65,0.1 -0.23,0.14 -0.31,0.39 -0.47,0.65 -0.04,0.08 -0.09,0.16 -0.13,0.24 -0.21,0.4 -0.27,0.27 -0.26,0.86 0,0.25 0,0.5 0,0.75 0,0.35 0.03,0.3 0.44,0.3 0.39,-0.01 0.4,0.08 0.42,-0.32z"/>
   <path fill="#292929" d="M0.81 1.56c-0.33,0.07 -0.22,0.53 0.1,0.47 0.29,-0.06 0.2,-0.53 -0.1,-0.47z"/>
   <path fill="#292929" d="M2.54 1.86c0.03,0.1 0.15,0.21 0.3,0.16 0.29,-0.08 0.17,-0.54 -0.13,-0.45 -0.11,0.03 -0.21,0.14 -0.17,0.29z"/>
  </g>
 </g>
</svg>
