<?xml version="1.0" encoding="UTF-8"?>
<!DOCTYPE svg PUBLIC "-//W3C//DTD SVG 1.0//EN" "http://www.w3.org/TR/2001/REC-SVG-20010904/DTD/svg10.dtd">
<!-- Creator: CorelDRAW 2018 (64 Bit Versão de avaliação) -->
<svg xmlns="http://www.w3.org/2000/svg" xml:space="preserve" width="31px" height="41px" version="1.0" shape-rendering="geometricPrecision" text-rendering="geometricPrecision" image-rendering="optimizeQuality" fill-rule="evenodd" clip-rule="evenodd"
viewBox="0 0 3.46 4.5"
 xmlns:xlink="http://www.w3.org/1999/xlink">
 <g id="Camada_x0020_1">
  <metadata id="CorelCorpID_0Corel-Layer"/>
  <g id="_2039397446208">
   <path fill="black" d="M0.39 4.04c0,0 0.01,-0.03 0.01,-0.04 0.01,-0.03 0.01,-0.05 0.03,-0.09 0.02,-0.07 0.07,-0.16 0.11,-0.22l0.03 -0.05c0.02,-0.03 0.05,-0.07 0.07,-0.1 0.01,-0.01 0.02,-0.03 0.04,-0.04 0,-0.01 0.01,-0.02 0.02,-0.02 0,-0.01 0,-0.01 0.01,-0.01 0.02,-0.03 0.05,-0.05 0.07,-0.07 0.02,-0.03 0.11,-0.09 0.14,-0.11 0,-0.01 0.01,-0.01 0.02,-0.02 0,0 0,0 0,0.01 0.01,0 0.01,0 0.01,0l0.02 0.05c0.03,0.05 0.04,0.08 0.07,0.12 0.02,0.03 0.06,0.07 0.09,0.09l0.05 0.04c0,0.01 0.01,0.01 0.01,0.01 0.06,0.05 0.08,0.06 0.15,0.1l0.12 0.07c0.01,0 0.05,0.02 0.06,0.03 0.02,0.02 0.01,0.12 0.01,0.16 0,0.02 0,0.04 0,0.05 0,0.02 0,0.03 0,0.04 0,0.02 0,0.04 0,0.05 0,0.02 0,0.03 -0.02,0.03l-1.04 0c-0.02,0 -0.05,-0.01 -0.05,-0.02 -0.01,0 -0.03,-0.03 -0.03,-0.04l0 -0.02zm-0.39 -0.02l0 0.07c0,0.01 0.01,0.04 0.01,0.05 0.01,0.04 0.02,0.07 0.04,0.11 0.02,0.05 0.04,0.07 0.07,0.11 0,0 0.01,0 0.01,0.01 0.05,0.04 0.09,0.08 0.15,0.1 0.03,0.01 0.05,0.02 0.08,0.03l0.04 0c0,0 0,0 0,0l1.17 0 0.06 -0.01c0.06,-0.01 0.12,-0.06 0.16,-0.1 0.05,-0.04 0.06,-0.06 0.09,-0.12 0.01,-0.02 0.02,-0.06 0.03,-0.1 0.01,-0.04 0.01,-0.08 0.01,-0.12 0.01,-0.05 0,-0.24 0,-0.27 0.09,-0.03 0.28,-0.14 0.35,-0.2l0.07 -0.06c0.05,-0.05 0.08,-0.08 0.12,-0.15 0.01,-0.03 0.04,-0.08 0.04,-0.1 0.04,0.01 0.15,0.11 0.18,0.14 0.01,0 0.01,0.01 0.01,0.01 0.01,0 0.01,0.01 0.02,0.01 0,0.01 0.01,0.01 0.01,0.02 0.01,0.01 0.02,0.02 0.03,0.03l0.04 0.05c0.01,0.01 0.02,0.02 0.03,0.03 0.01,0.02 0.02,0.03 0.03,0.04 0.02,0.03 0.05,0.08 0.07,0.11 0.05,0.11 0.07,0.14 0.1,0.27 0.01,0.04 0.03,0.16 0.04,0.2 0,0.02 0,0.04 0,0.06 0.01,0.05 0,0.11 0.03,0.16 0.01,0.02 0.03,0.05 0.05,0.07 0.01,0 0.02,0.01 0.04,0.02 0.02,0.01 0.04,0.01 0.05,0.01l0.06 0c0,0 0,0 0,0l0.01 0c0.01,0 0.01,0 0.02,-0.01 0.02,0 0.04,-0.01 0.06,-0.02 0.01,-0.01 0.03,-0.03 0.04,-0.04 0.01,-0.02 0.02,-0.04 0.03,-0.06l0.01 -0.03 0 -0.1c-0.01,-0.01 -0.01,-0.02 -0.01,-0.03l0 -0.08c-0.01,-0.06 -0.02,-0.13 -0.04,-0.2 -0.01,-0.08 -0.05,-0.17 -0.08,-0.25l-0.02 -0.04c0,-0.01 -0.01,-0.01 -0.01,-0.02 -0.01,-0.03 -0.03,-0.07 -0.05,-0.09 -0.02,-0.05 -0.05,-0.09 -0.07,-0.13l-0.04 -0.05c0,-0.01 0,-0.01 -0.01,-0.02l-0.1 -0.12c-0.01,-0.01 -0.01,-0.01 -0.02,-0.02 0,-0.01 -0.02,-0.02 -0.02,-0.03 -0.01,0 -0.01,0 -0.01,0l-0.07 -0.07c-0.03,-0.02 -0.07,-0.06 -0.11,-0.08 -0.07,-0.06 -0.16,-0.12 -0.25,-0.15 -0.12,-0.05 -0.24,-0.06 -0.34,0.05 -0.04,0.05 -0.05,0.09 -0.07,0.16 -0.01,0.05 0,0.09 -0.04,0.13 0,0.01 -0.01,0.01 -0.01,0.02 -0.03,0.03 -0.07,0.06 -0.1,0.08 0,0 0,0.01 -0.01,0.01 0,0 0,0 0,0l-0.07 0.04c-0.01,0.01 -0.02,0.02 -0.04,0.02 -0.02,0.02 -0.06,0.03 -0.07,0.04 -0.01,0.01 -0.07,0.04 -0.08,0.04 -0.01,0 -0.07,-0.03 -0.08,-0.04 -0.09,-0.04 -0.2,-0.11 -0.27,-0.18 -0.06,-0.06 -0.06,-0.09 -0.07,-0.16 -0.01,-0.09 -0.06,-0.17 -0.13,-0.21 -0.01,-0.01 -0.03,-0.01 -0.04,-0.02 -0.08,-0.03 -0.17,-0.01 -0.24,0.02 -0.02,0 -0.03,0.01 -0.04,0.02l-0.04 0.02c-0.02,0.01 -0.04,0.02 -0.07,0.04 -0.02,0.01 -0.05,0.03 -0.07,0.04 -0.04,0.03 -0.09,0.07 -0.13,0.11 -0.06,0.06 -0.12,0.11 -0.18,0.18 -0.04,0.04 -0.05,0.07 -0.09,0.11 -0.02,0.03 -0.07,0.11 -0.09,0.14 0,0.01 -0.01,0.03 -0.02,0.04l-0.09 0.19c-0.03,0.07 -0.06,0.18 -0.07,0.26l0 0.01c0,0 0,0 0,0z"/>
   <path fill="black" d="M0.9 0.87c0,-0.09 0,-0.19 0,-0.28 0,-0.05 -0.01,-0.09 0.01,-0.12 0.02,-0.03 0.05,-0.06 0.08,-0.07 0.04,-0.02 0.07,-0.02 0.12,-0.02 0.38,0 0.75,0 1.12,0 0.07,0 0.15,-0.01 0.21,0.04 0.04,0.02 0.07,0.06 0.07,0.11l-0.01 0.34 -1.6 0zm1.52 -0.87l-1.44 0c0,0 -0.03,0.01 -0.04,0.01 -0.03,0 -0.07,0.01 -0.1,0.03 -0.06,0.02 -0.09,0.04 -0.13,0.08 -0.04,0.03 -0.09,0.08 -0.12,0.13 0,0.01 -0.01,0.02 -0.01,0.03 -0.03,0.06 -0.06,0.11 -0.07,0.17 0,0.06 -0.01,0.11 -0.01,0.17l0 0.14c0,0.01 0,0.03 0,0.04 0,0.03 0,0.06 0.01,0.09 0.01,0.09 0.03,0.19 0.1,0.26 0.03,0.02 0.03,0.02 0.05,0.04 0.04,0.02 0.09,0.05 0.13,0.06 0.05,0.01 0.12,0.01 0.17,0.01l1.47 0c0.12,0 0.21,0.01 0.31,-0.07 0.09,-0.06 0.16,-0.18 0.16,-0.3 0,-0.03 0,-0.06 0,-0.09 0,-0.03 0,-0.06 0,-0.09 0.01,-0.06 0,-0.2 -0.01,-0.26 -0.01,-0.04 -0.03,-0.1 -0.04,-0.14 -0.05,-0.1 -0.12,-0.18 -0.22,-0.24 -0.05,-0.02 -0.08,-0.04 -0.13,-0.05 -0.04,-0.02 -0.05,-0.01 -0.08,-0.02 0,0 0,0 0,0 0,0 0,0 0,0 0,0 0,0 0,0z"/>
   <path fill="black" d="M1.74 2.67c0.01,0 0.01,0 0.02,0 0.03,0 0.07,-0.01 0.11,-0.01 0.13,-0.02 0.19,-0.04 0.31,-0.09 0.01,0 0.02,-0.01 0.03,-0.01 0.04,-0.02 0.09,-0.05 0.13,-0.07l0.06 -0.04c0.01,-0.01 0.01,-0.01 0.02,-0.02l0.05 -0.04c0.01,-0.01 0.02,-0.01 0.02,-0.02l0.02 -0.01c0.01,-0.02 0.02,-0.03 0.03,-0.04 0.06,-0.05 0.11,-0.12 0.16,-0.19 0.02,-0.04 0.05,-0.08 0.07,-0.12 0.01,-0.02 0.02,-0.03 0.02,-0.05 0.01,-0.01 0.02,-0.03 0.02,-0.05 0.03,-0.07 0.06,-0.15 0.07,-0.23l0 -0.04c0,-0.06 -0.03,-0.11 -0.08,-0.15 -0.01,-0.01 -0.02,-0.01 -0.03,-0.02 -0.05,-0.01 -0.09,-0.02 -0.14,-0.01 -0.06,0.02 -0.1,0.06 -0.12,0.12 -0.02,0.04 -0.03,0.1 -0.04,0.15 -0.03,0.06 -0.06,0.13 -0.1,0.19 0,0.01 -0.01,0.02 -0.01,0.03 -0.02,0.02 -0.04,0.05 -0.06,0.06 0,0.01 0,0.01 -0.01,0.02l-0.03 0.03c-0.03,0.03 -0.1,0.08 -0.13,0.09 -0.06,0.04 -0.12,0.07 -0.19,0.1 -0.21,0.07 -0.43,0.04 -0.63,-0.06l-0.06 -0.04c-0.05,-0.04 -0.1,-0.08 -0.15,-0.13 -0.01,0 -0.01,-0.01 -0.01,-0.01 -0.05,-0.05 -0.1,-0.13 -0.13,-0.19 0,-0.01 -0.01,-0.02 -0.01,-0.03 -0.01,-0.02 -0.02,-0.05 -0.03,-0.07 0,-0.03 -0.01,-0.05 -0.01,-0.08 -0.02,-0.07 -0.05,-0.14 -0.12,-0.17 -0.03,-0.01 -0.09,-0.02 -0.13,-0.01 -0.01,0 -0.02,0.01 -0.03,0.01 -0.03,0.01 -0.04,0.03 -0.06,0.04 -0.04,0.04 -0.06,0.08 -0.06,0.14 0,0.05 0.02,0.11 0.03,0.16 0.02,0.05 0.03,0.09 0.06,0.14l0.03 0.06c0.03,0.06 0.06,0.13 0.11,0.18 0,0.01 0.01,0.02 0.02,0.03 0,0 0,0.01 0.01,0.01l0.03 0.04c0.01,0.01 0.02,0.01 0.02,0.02 0.02,0.02 0.09,0.08 0.11,0.1 0,0 0,0 0.01,0.01 0.05,0.04 0.09,0.07 0.15,0.11 0.06,0.03 0.12,0.06 0.19,0.09 0.08,0.03 0.17,0.05 0.27,0.07 0.06,0 0.13,0 0.19,0z"/>
   <path fill="black" d="M2.32 4.5l0.32 0c0.01,0 0.06,0 0.1,-0.05 0,0 0,0 0,0 0.01,-0.01 0.02,-0.02 0.03,-0.03 0.05,-0.1 0.03,-0.25 -0.09,-0.29 -0.04,-0.02 -0.14,-0.01 -0.2,-0.01 -0.09,0 -0.17,-0.01 -0.23,0.03 -0.04,0.03 -0.03,0.02 -0.04,0.04 -0.01,0.02 -0.03,0.04 -0.03,0.06 -0.04,0.08 0,0.18 0.07,0.22 0.01,0.01 0.02,0.02 0.03,0.02l0.04 0.01z"/>
  </g>
 </g>
</svg>
