<?xml version="1.0" encoding="UTF-8"?>
<!DOCTYPE svg PUBLIC "-//W3C//DTD SVG 1.0//EN" "http://www.w3.org/TR/2001/REC-SVG-20010904/DTD/svg10.dtd">
<!-- Creator: CorelDRAW 2018 (64 Bit Versão de avaliação) -->
<svg xmlns="http://www.w3.org/2000/svg" xml:space="preserve" width="44px" height="41px" version="1.0" shape-rendering="geometricPrecision" text-rendering="geometricPrecision" image-rendering="optimizeQuality" fill-rule="evenodd" clip-rule="evenodd"
viewBox="0 0 1.04 0.98"
 xmlns:xlink="http://www.w3.org/1999/xlink">
 <g id="Camada_x0020_1">
  <metadata id="CorelCorpID_0Corel-Layer"/>
  <path fill="black" d="M0.56 0.49c0.01,0 0.01,0 0.02,0 0.01,-0.01 0.03,-0.02 0.04,-0.04 0.05,-0.06 0.01,-0.14 -0.05,-0.16 -0.03,-0.01 -0.07,0.01 -0.09,-0.02 0,-0.01 0,-0.02 0.02,-0.03 0.01,0 0.08,0 0.1,0 0.04,0 0.05,-0.03 0.04,-0.06 -0.02,-0.03 -0.05,-0.02 -0.08,-0.02 0,-0.02 -0.02,-0.03 -0.04,-0.03 -0.02,0 -0.04,0.01 -0.04,0.03 -0.02,0 -0.03,0.01 -0.04,0.02 -0.01,0.01 -0.01,0.01 -0.02,0.02 -0.03,0.05 -0.02,0.11 0.02,0.15 0.06,0.04 0.11,0 0.12,0.03 0,0.02 0,0.03 -0.02,0.03 -0.01,0.01 -0.08,0.01 -0.1,0.01 -0.03,0 -0.05,0.02 -0.04,0.05 0.02,0.03 0.05,0.03 0.08,0.03 0,0 0,0 0,0 0.01,0.02 0.02,0.03 0.04,0.03 0.02,0 0.04,-0.01 0.04,-0.04zm0.21 0.05c0.01,-0.01 0.03,-0.03 0.03,-0.04 0.01,0 0.02,0.02 0.01,0.03 0,0.01 -0.02,0.02 -0.04,0.01zm-0.51 0c-0.01,0 -0.03,0 -0.03,-0.01 -0.01,-0.01 -0.01,-0.02 0.01,-0.03 0.01,0.01 0.03,0.04 0.03,0.04l-0.01 0zm0.59 -0.17c0.02,0 0.04,0 0.06,0 0.03,0 0.05,0 0.05,0.02 0,0.01 0,0.11 0,0.13l0 0.34c0,0.03 -0.01,0.04 -0.03,0.04 -0.05,0 -0.09,0 -0.14,0 -0.18,0 -0.36,0 -0.54,0 -0.04,0 -0.09,0 -0.14,0 -0.02,0 -0.03,-0.01 -0.03,-0.04 0,-0.02 0,-0.04 0,-0.06l0 -0.34c0,-0.02 0,-0.05 0,-0.07 0.01,-0.02 0.02,-0.02 0.05,-0.02 0.02,0 0.04,0 0.07,0 0,0.02 0,0.04 0.01,0.06 -0.01,0 -0.01,0 -0.03,0.01 -0.02,0.02 -0.04,0.04 -0.03,0.08 0,0.03 0,0.05 0.02,0.06 0.01,0.02 0.02,0.03 0.04,0.04 0.02,0.01 0.04,0 0.07,0l0.48 0c0.02,0 0.05,0.01 0.07,0 0.04,-0.02 0.07,-0.05 0.07,-0.1 0,-0.02 -0.01,-0.04 -0.02,-0.06 -0.01,-0.01 -0.03,-0.03 -0.04,-0.03 0,-0.02 0.01,-0.04 0.01,-0.06zm-0.34 -0.29c0.03,0 0.07,0.01 0.1,0.02 0.02,0.01 0.04,0.02 0.06,0.03 0,0 0.01,0.01 0.01,0.01 0.01,0.01 0.01,0.01 0.01,0.01 0,0 0.01,0 0.01,0.01 0.01,0.01 0.03,0.03 0.04,0.05 0.03,0.06 0.04,0.13 0.02,0.2 -0.02,0.04 -0.05,0.08 -0.08,0.1 0,0.01 -0.02,0.02 -0.03,0.03 -0.01,0 -0.01,0 -0.02,0l-0.21 0c-0.02,0 -0.02,0 -0.03,0 -0.02,-0.01 -0.05,-0.04 -0.06,-0.06 -0.02,-0.02 -0.03,-0.03 -0.04,-0.05 -0.01,-0.03 -0.02,-0.07 -0.02,-0.1 0,-0.04 0.01,-0.07 0.02,-0.1 0.01,-0.02 0.02,-0.03 0.02,-0.04 0.05,-0.06 0.12,-0.1 0.2,-0.11zm-0.51 0.8c0,0.05 0.05,0.1 0.1,0.1l0.81 0c0.03,0 0.04,0 0.06,-0.01 0.02,-0.01 0.03,-0.02 0.04,-0.02 0.03,-0.03 0.03,-0.05 0.03,-0.1l0 -0.38c0,-0.05 0.01,-0.12 -0.03,-0.15 -0.01,-0.01 -0.03,-0.02 -0.04,-0.03 -0.02,0 -0.04,0 -0.06,0 -0.07,0 -0.06,0.01 -0.07,-0.03 0,-0.02 -0.01,-0.05 -0.02,-0.07 -0.01,-0.02 -0.02,-0.04 -0.04,-0.06 0,-0.01 -0.01,-0.01 -0.01,-0.02 -0.01,0 -0.02,-0.02 -0.03,-0.03 -0.01,0 -0.01,-0.01 -0.02,-0.01 -0.03,-0.03 -0.06,-0.04 -0.1,-0.06 -0.07,-0.02 -0.16,-0.01 -0.22,0.01 -0.03,0.01 -0.06,0.03 -0.08,0.05l-0.02 0.01c-0.01,0.02 -0.03,0.03 -0.04,0.05 -0.02,0.02 -0.04,0.05 -0.05,0.08 0,0.02 -0.01,0.04 -0.01,0.05 0,0.01 0,0.02 -0.01,0.03 0,0 -0.08,0 -0.09,0 -0.03,0 -0.06,0.02 -0.08,0.04 -0.01,0.02 -0.02,0.03 -0.02,0.05 0,0.02 0,0.04 0,0.06l0 0.32c0,0.03 0,0.1 0,0.12z"/>
 </g>
</svg>
