<?xml version="1.0" encoding="UTF-8"?>
<!DOCTYPE svg PUBLIC "-//W3C//DTD SVG 1.0//EN" "http://www.w3.org/TR/2001/REC-SVG-20010904/DTD/svg10.dtd">
<!-- Creator: CorelDRAW 2018 (64 Bit Versão de avaliação) -->
<svg xmlns="http://www.w3.org/2000/svg" xml:space="preserve" width="41px" height="41px" version="1.0" shape-rendering="geometricPrecision" text-rendering="geometricPrecision" image-rendering="optimizeQuality" fill-rule="evenodd" clip-rule="evenodd"
viewBox="0 0 1.58 1.58"
 xmlns:xlink="http://www.w3.org/1999/xlink">
 <g id="Camada_x0020_1">
  <metadata id="CorelCorpID_0Corel-Layer"/>
  <path fill="#292929" d="M0.63 1.32l0 -0.55c0,-0.06 0.04,-0.13 0.1,-0.13l0.61 0c0.02,0 0.05,0.02 0.07,0.04 0.02,0.02 0.03,0.04 0.03,0.07l0 0.58c0,0.04 -0.02,0.06 -0.04,0.08 -0.02,0.02 -0.05,0.03 -0.09,0.03l-0.56 0c-0.07,0 -0.12,-0.05 -0.12,-0.12zm-0.13 -0.58l0 0.44c-0.03,0 -0.06,-0.02 -0.08,-0.04 -0.02,-0.01 -0.03,-0.04 -0.03,-0.06l0 -0.59c0,-0.05 0.06,-0.11 0.11,-0.11l0.6 0c0.03,0 0.06,0.03 0.08,0.04 0.02,0.02 0.03,0.06 0.03,0.09l-0.44 0c-0.06,0 -0.11,0.01 -0.15,0.03 -0.03,0.02 -0.05,0.04 -0.07,0.06 -0.03,0.04 -0.05,0.09 -0.05,0.14zm-0.24 -0.26l0 0.45c-0.05,0 -0.09,-0.02 -0.11,-0.06 -0.01,-0.01 -0.02,-0.02 -0.02,-0.04l0 -0.59c0,-0.05 0.06,-0.11 0.12,-0.11l0.58 0c0.03,0 0.06,0.02 0.08,0.04 0.02,0.02 0.04,0.04 0.04,0.08l-0.44 0c-0.09,0 -0.18,0.06 -0.22,0.14 -0.01,0.02 -0.03,0.06 -0.03,0.09zm-0.26 -0.25l0 0.61c0,0.03 0.01,0.07 0.03,0.09 0.01,0.03 0.03,0.05 0.05,0.07l0.04 0.03c0.04,0.03 0.09,0.04 0.14,0.04 0,0.04 0.01,0.07 0.02,0.1 0.01,0.01 0.01,0.03 0.02,0.04 0.02,0.02 0.04,0.04 0.06,0.06 0.04,0.02 0.1,0.04 0.14,0.05 0,0.06 0.01,0.1 0.04,0.15 0.01,0 0.01,0.01 0.01,0.01l0.03 0.03c0.01,0.01 0.01,0.01 0.02,0.02 0.03,0.02 0.08,0.05 0.13,0.05l0.61 0c0.03,0 0.07,-0.02 0.09,-0.03 0.05,-0.02 0.1,-0.07 0.12,-0.12 0.01,-0.02 0.03,-0.06 0.03,-0.09l0 -0.6c0,-0.04 -0.02,-0.07 -0.03,-0.09 -0.03,-0.06 -0.07,-0.09 -0.12,-0.12 -0.02,-0.01 -0.06,-0.02 -0.09,-0.02 0,-0.02 0,-0.04 -0.01,-0.06 -0.01,-0.05 -0.03,-0.09 -0.06,-0.13 -0.05,-0.04 -0.1,-0.06 -0.16,-0.07 -0.01,0 -0.02,0 -0.03,0 0,-0.05 -0.02,-0.1 -0.04,-0.14 -0.01,-0.01 -0.03,-0.04 -0.05,-0.05 -0.04,-0.03 -0.08,-0.06 -0.14,-0.06l-0.62 0c-0.05,0 -0.12,0.04 -0.15,0.07 -0.02,0.01 -0.02,0.02 -0.03,0.03 -0.01,0.02 -0.02,0.03 -0.02,0.04l-0.02 0.04c-0.01,0.01 -0.01,0.03 -0.01,0.05z"/>
 </g>
</svg>
