<?xml version="1.0" encoding="UTF-8"?>
<!DOCTYPE svg PUBLIC "-//W3C//DTD SVG 1.0//EN" "http://www.w3.org/TR/2001/REC-SVG-20010904/DTD/svg10.dtd">
<!-- Creator: CorelDRAW 2018 (64 Bit Versão de avaliação) -->
<svg xmlns="http://www.w3.org/2000/svg" xml:space="preserve" width="25px" height="41px" version="1.0" shape-rendering="geometricPrecision" text-rendering="geometricPrecision" image-rendering="optimizeQuality" fill-rule="evenodd" clip-rule="evenodd"
viewBox="0 0 5.56 9.03"
 xmlns:xlink="http://www.w3.org/1999/xlink">
 <g id="Camada_x0020_1">
  <metadata id="CorelCorpID_0Corel-Layer"/>
  <path fill="#292929" d="M0.84 7.96l0 -6.89c0,-0.1 0.04,-0.17 0.12,-0.2 0.09,-0.04 0.2,-0.03 0.32,-0.03 0.01,0.14 0.19,0.32 0.37,0.32l2.26 0c0.16,0 0.31,-0.14 0.37,-0.26 0.02,-0.07 -0.01,-0.06 0.18,-0.06 0.16,0 0.26,0.07 0.26,0.23l0 6.89c0,0.14 -0.09,0.23 -0.23,0.23l-3.42 0c-0.14,0 -0.23,-0.09 -0.23,-0.23zm-0.84 -7.02l0 7.15c0,0.45 0.5,0.94 0.94,0.94l3.7 0c0.22,0 0.51,-0.18 0.63,-0.3 0.11,-0.11 0.29,-0.4 0.29,-0.63l0 -7.16c0,-0.24 -0.14,-0.48 -0.3,-0.64 -0.08,-0.08 -0.16,-0.14 -0.26,-0.19 -0.11,-0.06 -0.22,-0.11 -0.37,-0.11l-3.69 0c-0.16,0 -0.39,0.1 -0.51,0.19 -0.1,0.07 -0.11,0.09 -0.19,0.17 -0.12,0.14 -0.24,0.39 -0.24,0.58z"/>
 </g>
</svg>
