<?xml version="1.0" encoding="UTF-8"?>
<!DOCTYPE svg PUBLIC "-//W3C//DTD SVG 1.0//EN" "http://www.w3.org/TR/2001/REC-SVG-20010904/DTD/svg10.dtd">
<!-- Creator: CorelDRAW 2018 (64 Bit Versão de avaliação) -->
<svg xmlns="http://www.w3.org/2000/svg" xml:space="preserve" width="41px" height="41px" version="1.0" shape-rendering="geometricPrecision" text-rendering="geometricPrecision" image-rendering="optimizeQuality" fill-rule="evenodd" clip-rule="evenodd"
viewBox="0 0 1.33 1.33"
 xmlns:xlink="http://www.w3.org/1999/xlink">
 <g id="Camada_x0020_1">
  <metadata id="CorelCorpID_0Corel-Layer"/>
  <g id="_2069374434256">
   <g>
    <path fill="black" d="M0.78 0.8l-0.02 0c-0.08,0 -0.08,-0.13 0.01,-0.13 0.05,0 0.08,0.06 0.05,0.1 -0.01,0.01 -0.03,0.03 -0.04,0.03zm-0.31 -0.07c0,-0.08 0.13,-0.09 0.13,0 0,0.09 -0.13,0.09 -0.13,0zm-0.16 0.07c-0.05,0 -0.07,-0.02 -0.07,-0.08 0,-0.03 0.06,-0.08 0.11,-0.03 0.04,0.04 0,0.11 -0.04,0.11zm-0.31 -0.19c0,0.12 -0.01,0.34 0.04,0.44 0.05,0.1 0.15,0.12 0.26,0.12 0.06,0 0.07,-0.01 0.1,0.03 0.03,0.05 0.08,0.13 0.13,0.13 0.04,0 0.05,-0.01 0.08,-0.05 0.08,-0.11 0.07,-0.11 0.14,-0.11 0.21,0 0.32,-0.11 0.32,-0.32l0 -0.27c0,-0.14 -0.05,-0.24 -0.17,-0.29 -0.03,-0.01 -0.08,-0.02 -0.13,-0.02l-0.47 0c-0.08,0 -0.15,0.02 -0.21,0.07 0,0 -0.01,0.01 -0.02,0.02 -0.05,0.05 -0.07,0.14 -0.07,0.25z"/>
    <path fill="black" d="M0.31 0.14c0,0.05 0.1,0.03 0.15,0.03l0.27 0c0.16,0 0.31,0.04 0.38,0.19 0.06,0.12 0.05,0.23 0.05,0.38 0,0.07 -0.01,0.19 0.09,0.08 0.02,-0.02 0.03,-0.04 0.04,-0.06 0.02,-0.03 0.04,-0.1 0.04,-0.16l0 -0.3c0,-0.1 -0.04,-0.18 -0.09,-0.23 -0.06,-0.05 -0.14,-0.07 -0.25,-0.07l-0.38 0c-0.1,0 -0.19,0.01 -0.25,0.07 -0.01,0.01 -0.05,0.05 -0.05,0.07z"/>
   </g>
  </g>
 </g>
</svg>
