<?xml version="1.0" encoding="UTF-8"?>
<!DOCTYPE svg PUBLIC "-//W3C//DTD SVG 1.0//EN" "http://www.w3.org/TR/2001/REC-SVG-20010904/DTD/svg10.dtd">
<!-- Creator: CorelDRAW 2018 (64 Bit Versão de avaliação) -->
<svg xmlns="http://www.w3.org/2000/svg" xml:space="preserve" width="35px" height="41px" version="1.0" shape-rendering="geometricPrecision" text-rendering="geometricPrecision" image-rendering="optimizeQuality" fill-rule="evenodd" clip-rule="evenodd"
viewBox="0 0 1.81 2.12"
 xmlns:xlink="http://www.w3.org/1999/xlink">
 <g id="Camada_x0020_1">
  <metadata id="CorelCorpID_0Corel-Layer"/>
  <g id="_2039361983184">
   <g>
    <path fill="black" d="M0.56 0.53c0,-0.11 0.02,-0.19 0.1,-0.27 0.03,-0.03 0.05,-0.05 0.1,-0.07 0.12,-0.06 0.28,-0.04 0.38,0.06 0.01,0.01 0.01,0.01 0.02,0.02 0.11,0.1 0.12,0.3 0.05,0.41 -0.03,0.05 -0.06,0.08 -0.1,0.11l-0.15 0.16c-0.01,0.01 -0.02,0.01 -0.03,0.03 -0.01,0 -0.01,0.01 -0.03,0.02 -0.03,-0.05 -0.24,-0.23 -0.29,-0.31 -0.02,-0.04 -0.05,-0.11 -0.05,-0.16zm0.34 0.73c0.1,0 0.07,-0.09 0.1,-0.13 0.02,-0.03 0.14,-0.15 0.17,-0.18 0.1,-0.09 0.19,-0.17 0.23,-0.32 0.01,-0.07 0.02,-0.17 0,-0.25 -0.03,-0.12 -0.07,-0.16 -0.14,-0.24 -0.03,-0.02 -0.02,-0.02 -0.06,-0.05 -0.05,-0.04 -0.16,-0.09 -0.25,-0.09l-0.01 0c-0.11,0 -0.18,0 -0.28,0.06 -0.02,0.01 -0.1,0.07 -0.12,0.09 -0.05,0.07 -0.1,0.13 -0.12,0.23 -0.03,0.11 -0.02,0.24 0.03,0.35 0.06,0.1 0.24,0.27 0.33,0.36 0.04,0.04 0.04,0.04 0.05,0.09 0.01,0.05 0.02,0.08 0.07,0.08z"/>
    <path fill="black" d="M1.2 1.32c0,-0.1 0.07,-0.17 0.17,-0.17 0.09,0 0.16,0.08 0.16,0.17 0,0.08 -0.07,0.16 -0.15,0.16l-0.03 0c-0.07,0 -0.15,-0.08 -0.15,-0.16zm-0.16 -0.02c0,0.11 0.04,0.19 0.09,0.24 0.07,0.06 0.11,0.1 0.22,0.1 0.12,0 0.18,-0.03 0.24,-0.09 0.08,-0.08 0.1,-0.14 0.1,-0.25 0,-0.12 -0.08,-0.23 -0.18,-0.28 -0.12,-0.06 -0.28,-0.03 -0.37,0.06 -0.05,0.05 -0.1,0.13 -0.1,0.22z"/>
    <path fill="black" d="M0.61 1.32c0,0.08 -0.07,0.16 -0.15,0.16 -0.08,0 -0.14,-0.03 -0.17,-0.1 -0.01,-0.03 -0.01,-0.07 0,-0.1 0.02,-0.12 0.2,-0.19 0.29,-0.06 0.01,0.01 0.02,0.03 0.02,0.04 0,0.01 0.01,0.05 0.01,0.06zm-0.49 -0.03c0,0.07 0,0.1 0.03,0.17 0.03,0.05 0.1,0.12 0.15,0.15 0.08,0.04 0.2,0.04 0.27,0.01 0.07,-0.03 0.15,-0.11 0.17,-0.17 0.06,-0.12 0.04,-0.26 -0.06,-0.36 -0.07,-0.07 -0.13,-0.1 -0.23,-0.1 -0.04,0 -0.1,0.01 -0.13,0.03 -0.03,0.01 -0.07,0.03 -0.1,0.06 -0.02,0.03 -0.05,0.05 -0.06,0.09 -0.02,0.02 -0.04,0.08 -0.04,0.12z"/>
    <path fill="black" d="M0.78 0.51c0,-0.18 0.25,-0.17 0.25,0 0,0.08 -0.12,0.16 -0.21,0.08 -0.01,-0.01 -0.04,-0.05 -0.04,-0.08zm-0.16 -0.01c0,0.04 0.02,0.08 0.03,0.11 0.01,0.03 0.03,0.06 0.05,0.08 0.04,0.05 0.12,0.09 0.18,0.09 0.08,0 0.09,0 0.16,-0.03 0.03,-0.02 0.05,-0.04 0.07,-0.06 0.03,-0.03 0.04,-0.05 0.06,-0.08 0,-0.02 0.01,-0.04 0.01,-0.06 0.03,-0.12 -0.04,-0.25 -0.15,-0.3 -0.11,-0.06 -0.23,-0.03 -0.32,0.05 -0.05,0.05 -0.09,0.13 -0.09,0.2z"/>
    <path fill="black" d="M0.92 2.03c0,0.05 0.03,0.09 0.07,0.09 0.05,0 0.07,-0.01 0.09,-0.08 0,-0.02 0.01,-0.04 0.02,-0.06 0,-0.02 0.01,-0.03 0.03,-0.05 0,-0.01 0.03,-0.02 0.04,-0.03 0.04,-0.02 0.09,-0.02 0.12,-0.03l0.08 0 0.14 0.01c0.19,0.05 0.09,0.24 0.23,0.24 0.06,0 0.07,-0.05 0.07,-0.1 0,-0.03 -0.02,-0.1 -0.04,-0.13 -0.07,-0.12 -0.18,-0.18 -0.34,-0.18 -0.18,0 -0.31,-0.01 -0.44,0.14 -0.03,0.04 -0.07,0.12 -0.07,0.18z"/>
    <path fill="black" d="M0 2.02l0 0 0 0.01c0,0.03 0,0.04 0.02,0.07 0.01,0.01 0.03,0.02 0.05,0.02l0.02 0c0.02,0 0.05,-0.02 0.07,-0.08 0.02,-0.09 0.05,-0.13 0.14,-0.16 0.04,-0.01 0.1,-0.01 0.15,-0.01 0.02,0 0.11,0 0.14,0.01 0.2,0.05 0.09,0.24 0.23,0.24 0.05,0 0.08,-0.04 0.08,-0.09 0,-0.08 -0.07,-0.18 -0.13,-0.23 -0.03,-0.03 -0.07,-0.05 -0.11,-0.07 -0.08,-0.02 -0.21,-0.02 -0.3,-0.02 -0.11,0 -0.17,0.04 -0.24,0.09 -0.03,0.02 -0.06,0.06 -0.08,0.09 -0.01,0.03 -0.04,0.09 -0.04,0.13z"/>
   </g>
  </g>
 </g>
</svg>
