<?xml version="1.0" encoding="UTF-8"?>
<!DOCTYPE svg PUBLIC "-//W3C//DTD SVG 1.0//EN" "http://www.w3.org/TR/2001/REC-SVG-20010904/DTD/svg10.dtd">
<!-- Creator: CorelDRAW 2018 (64 Bit Versão de avaliação) -->
<svg xmlns="http://www.w3.org/2000/svg" xml:space="preserve" width="41px" height="41px" version="1.0" shape-rendering="geometricPrecision" text-rendering="geometricPrecision" image-rendering="optimizeQuality" fill-rule="evenodd" clip-rule="evenodd"
viewBox="0 0 3.46 3.46"
 xmlns:xlink="http://www.w3.org/1999/xlink">
 <g id="Camada_x0020_1">
  <metadata id="CorelCorpID_0Corel-Layer"/>
  <g id="_2038811258736">
   <g>
    <path fill="#292929" d="M0.38 2.6l0 -1.74c0,-0.07 0.02,-0.15 0.05,-0.19 0.07,-0.16 0.25,-0.29 0.43,-0.29l1.74 0c0.12,0 0.25,0.07 0.33,0.15 0.08,0.07 0.15,0.21 0.15,0.33l0 1.74c0,0.12 -0.07,0.25 -0.15,0.33 -0.08,0.08 -0.21,0.15 -0.33,0.15l-1.74 0c-0.24,0 -0.48,-0.24 -0.48,-0.48zm-0.38 -1.79l0 1.85c0,0.11 0.05,0.23 0.09,0.31 0.08,0.16 0.24,0.32 0.4,0.4 0.07,0.04 0.2,0.09 0.31,0.09l1.85 0c0.14,0 0.33,-0.08 0.44,-0.16 0.11,-0.08 0.23,-0.21 0.28,-0.33 0.04,-0.08 0.09,-0.21 0.09,-0.32l0 -1.84c0,-0.14 -0.09,-0.34 -0.17,-0.44 -0.12,-0.17 -0.27,-0.28 -0.47,-0.34 -0.05,-0.01 -0.11,-0.03 -0.17,-0.03l-1.85 0c-0.11,0 -0.23,0.05 -0.31,0.09 -0.18,0.09 -0.31,0.22 -0.4,0.4 -0.04,0.07 -0.09,0.21 -0.09,0.32z"/>
    <path fill="#292929" d="M1.54 1.9c0,-0.01 -0.1,-0.11 -0.12,-0.13 -0.06,-0.05 -0.28,-0.28 -0.33,-0.31 -0.15,-0.09 -0.3,0.04 -0.3,0.16 0,0.13 0.06,0.16 0.15,0.25l0.37 0.38c0.02,0.01 0.03,0.03 0.04,0.04 0.05,0.05 0.12,0.11 0.19,0.11 0.03,0 0.08,-0.02 0.11,-0.03 0.04,-0.03 0.06,-0.05 0.09,-0.08 0.03,-0.04 0.37,-0.38 0.41,-0.41 0.09,-0.09 0.18,-0.19 0.28,-0.28 0.03,-0.04 0.18,-0.18 0.2,-0.21 0.05,-0.07 0.05,-0.15 0.02,-0.22 -0.03,-0.06 -0.11,-0.11 -0.18,-0.11 -0.06,0 -0.11,0.03 -0.15,0.07 -0.09,0.09 -0.73,0.74 -0.78,0.77z"/>
   </g>
  </g>
 </g>
</svg>
