<?xml version="1.0" encoding="UTF-8"?>
<!DOCTYPE svg PUBLIC "-//W3C//DTD SVG 1.0//EN" "http://www.w3.org/TR/2001/REC-SVG-20010904/DTD/svg10.dtd">
<!-- Creator: CorelDRAW 2018 (64 Bit Versão de avaliação) -->
<svg xmlns="http://www.w3.org/2000/svg" xml:space="preserve" width="36px" height="25px" version="1.0" shape-rendering="geometricPrecision" text-rendering="geometricPrecision" image-rendering="optimizeQuality" fill-rule="evenodd" clip-rule="evenodd"
viewBox="0 0 0.9 0.62"
 xmlns:xlink="http://www.w3.org/1999/xlink">
 <g id="Camada_x0020_1">
  <metadata id="CorelCorpID_0Corel-Layer"/>
  <path fill="black" d="M0.34 0.47c0,0 0,0 0,0 0,0 0,-0.01 0,-0.01 0,0 -0.01,0 -0.01,0 0,-0.01 -0.01,-0.01 -0.02,-0.02 0,0 0,0 0,0l-0.05 -0.05c0,0 0,0 0,-0.01 -0.01,-0.01 -0.02,-0.01 -0.03,-0.02 -0.01,-0.02 -0.03,-0.03 -0.04,-0.05l-0.02 -0.01c0,0 0,-0.01 0,-0.01 -0.01,-0.01 -0.02,-0.02 -0.03,-0.03l-0.01 0c0,-0.01 0,-0.01 -0.01,-0.02 0,0 0,0 -0.01,0 0,-0.01 0,-0.01 0,-0.01 -0.02,-0.01 -0.04,-0.02 -0.06,-0.02 -0.04,0.01 -0.06,0.05 -0.04,0.09 0,0.01 0.01,0.01 0.01,0.02 0,0 0,0 0,0l0.04 0.04c0,0 0.01,0.01 0.01,0.01l0.06 0.06c0,0 0,0 0,0 0.01,0 0.01,0.01 0.01,0.01 0.02,0.02 0.05,0.04 0.07,0.07l0.04 0.04c0.01,0 0.01,0.01 0.01,0.01l0.01 0.01c0,0 0.01,0.01 0.01,0.01 0,0 0,0 0.01,0.01 0,0 0,0 0,0 0,0 0.01,0.01 0.02,0.01 0.01,0.01 0.01,0.01 0.02,0.01 0.01,0.01 0.03,0 0.04,0 0.01,-0.01 0.03,-0.02 0.03,-0.02l0.01 -0.02c0.01,0 0.01,-0.01 0.02,-0.02l0.14 -0.13c0.07,-0.08 0.15,-0.15 0.22,-0.23 0.02,-0.01 0.04,-0.03 0.06,-0.05 0.01,-0.02 0.03,-0.03 0.04,-0.04 0.01,-0.02 0.01,-0.05 0,-0.07 0,-0.01 -0.01,-0.01 -0.02,-0.02 -0.02,-0.01 -0.04,-0.01 -0.06,0 0,0 -0.01,0 -0.01,0 0,0 0,0.01 -0.01,0.01 0,0 0,0.01 0,0.01l-0.01 0c0,0.01 -0.01,0.01 -0.01,0.01 0,0.01 -0.01,0.01 -0.01,0.02 0,0 -0.01,0 -0.01,0 0,0 0,0.01 -0.01,0.01 -0.06,0.06 -0.12,0.12 -0.18,0.18 -0.01,0.01 -0.01,0.02 -0.02,0.03 -0.01,0.01 -0.02,0.02 -0.03,0.02l-0.11 0.12c-0.01,0 -0.02,0.01 -0.02,0.02l-0.01 0c0,0.01 0,0.01 -0.01,0.01 0,0 0,0 0,0 0,0.01 -0.02,0.02 -0.02,0.02l0 0z"/>
 </g>
</svg>
