<?xml version="1.0" encoding="UTF-8"?>
<!DOCTYPE svg PUBLIC "-//W3C//DTD SVG 1.0//EN" "http://www.w3.org/TR/2001/REC-SVG-20010904/DTD/svg10.dtd">
<!-- Creator: CorelDRAW 2018 (64 Bit Versão de avaliação) -->
<svg xmlns="http://www.w3.org/2000/svg" xml:space="preserve" width="35px" height="41px" version="1.0" shape-rendering="geometricPrecision" text-rendering="geometricPrecision" image-rendering="optimizeQuality" fill-rule="evenodd" clip-rule="evenodd"
viewBox="0 0 0.6 0.7"
 xmlns:xlink="http://www.w3.org/1999/xlink">
 <g id="Camada_x0020_1">
  <metadata id="CorelCorpID_0Corel-Layer"/>
  <path fill="black" d="M0.22 0.49c0.01,-0.01 0.11,-0.07 0.11,-0.08 0.01,0 0.02,-0.01 0.02,-0.01 0.01,0 0.02,-0.01 0.02,-0.01 0.02,0 0.06,0.02 0.07,0.03 0.01,0 0.01,0.01 0.02,0.01 0.02,0.02 0.04,0.04 0.06,0.07 0.02,0.05 0.03,0.09 0.03,0.15l-0.33 0 0 -0.16zm0.03 0.11c0,0.03 0.05,0.03 0.05,0 0,-0.02 -0.01,-0.03 -0.03,-0.03 -0.01,0 -0.02,0.02 -0.02,0.03zm0 -0.08c0,0.04 0.05,0.04 0.05,0 0,-0.01 -0.01,-0.02 -0.03,-0.02 -0.01,0 -0.02,0.01 -0.02,0.02zm-0.08 -0.05l0 0.18 -0.12 0c0,-0.05 0,-0.08 0.02,-0.12 0.01,-0.02 0.03,-0.05 0.04,-0.07 0.03,-0.04 0.07,-0.06 0.11,-0.07 0.02,-0.01 0.02,0 0.05,0.01l-0.02 0c0,0.01 0,0.01 -0.01,0.01l-0.05 0.04c0,0 -0.02,0.01 -0.02,0.02zm0 -0.25c0,0 0.01,-0.01 0.01,-0.02l0.24 0c0,0.01 0,0.02 0,0.02 0,0.04 -0.01,0.07 -0.03,0.09 -0.03,0.03 -0.08,0.05 -0.12,0.04 -0.05,-0.02 -0.1,-0.07 -0.1,-0.13zm0 -0.15c0.01,0 0.01,0 0.02,0 0.07,-0.02 0.14,-0.02 0.22,-0.01 0,0.01 0.01,0.01 0.01,0.01l0 0.08 -0.25 0 0 -0.08zm-0.05 0l0 0.11c0,0 0.01,0.01 0.01,0.01 0,0.01 -0.01,0.02 -0.01,0.04 0,0.04 0.02,0.07 0.04,0.1 0.01,0.01 0.01,0.02 0.02,0.02 -0.03,0.01 -0.08,0.05 -0.1,0.07 -0.01,0.01 -0.02,0.02 -0.02,0.03 -0.03,0.04 -0.06,0.1 -0.06,0.16l0 0.07c0,0.01 0.01,0.02 0.02,0.02l0.56 0c0.01,0 0.02,-0.01 0.02,-0.02l0 -0.07c0,-0.06 -0.03,-0.12 -0.06,-0.16 -0.01,-0.02 -0.02,-0.03 -0.04,-0.04 -0.01,-0.02 -0.06,-0.05 -0.08,-0.06 0,0 0.01,-0.01 0.02,-0.02 0.03,-0.04 0.03,-0.07 0.03,-0.11 0,-0.01 0,-0.02 0,-0.03 0,-0.01 0,-0.01 0,-0.02l0 -0.1c0,-0.04 -0.03,-0.05 -0.06,-0.06 -0.07,-0.01 -0.15,-0.01 -0.22,0 -0.03,0.01 -0.07,0.02 -0.07,0.06z"/>
 </g>
</svg>
