<?xml version="1.0" encoding="UTF-8"?>
<!DOCTYPE svg PUBLIC "-//W3C//DTD SVG 1.0//EN" "http://www.w3.org/TR/2001/REC-SVG-20010904/DTD/svg10.dtd">
<!-- Creator: CorelDRAW 2018 (64 Bit Versão de avaliação) -->
<svg xmlns="http://www.w3.org/2000/svg" xml:space="preserve" width="44px" height="41px" version="1.0" shape-rendering="geometricPrecision" text-rendering="geometricPrecision" image-rendering="optimizeQuality" fill-rule="evenodd" clip-rule="evenodd"
viewBox="0 0 2.82 2.65"
 xmlns:xlink="http://www.w3.org/1999/xlink">
 <g id="Camada_x0020_1">
  <metadata id="CorelCorpID_0Corel-Layer"/>
  <path fill="black" d="M1.06 2c0.01,0.07 0.3,0.26 0.57,0.11 0.21,-0.12 0.1,-0.2 0.05,-0.19 -0.03,0.01 -0.06,0.04 -0.08,0.06 -0.05,0.03 -0.13,0.06 -0.21,0.06 -0.17,-0.01 -0.21,-0.13 -0.28,-0.12 -0.03,0.01 -0.06,0.04 -0.05,0.08zm-0.07 -1.06c0.12,0.12 0.37,0.21 0.54,0.26 0.22,0.05 0.48,0.07 0.72,0.07 0.02,0.07 0.09,0.3 0.11,0.39 0.02,0.06 0.01,0.08 -0.01,0.13 -0.12,0.33 -0.36,0.56 -0.69,0.64 -0.32,0.08 -0.65,0 -0.9,-0.2 -0.01,-0.01 -0.02,-0.03 -0.04,-0.04 -0.1,-0.08 -0.26,-0.34 -0.28,-0.47 0,-0.05 0.08,-0.31 0.11,-0.39 0.04,-0.15 0.04,-0.02 0.28,-0.21 0.08,-0.06 0.11,-0.09 0.15,-0.17l0.01 -0.01zm1.57 0.7c0,0 0,0 0,0l-0.01 -0.01c-0.04,-0.04 -0.07,-0.07 -0.06,-0.12 0,-0.04 0.08,-0.08 0.11,-0.08 0.02,0.05 0.07,0.16 -0.04,0.21zm-2.3 0c-0.12,-0.03 -0.08,-0.22 -0.01,-0.22 0.03,0.01 0.08,0.07 0.08,0.1 0,0.04 -0.05,0.1 -0.07,0.12zm0.11 -0.46c0,-0.17 -0.04,-0.32 0.02,-0.48 0.05,-0.16 0.21,-0.25 0.37,-0.28 0.03,0 0.09,0 0.11,-0.01 0.08,-0.04 0.22,-0.22 0.55,-0.23 0.3,0 0.6,0.11 0.79,0.25 0.09,0.06 0.18,0.16 0.22,0.29 0.04,0.12 0.02,0.23 0.02,0.35 0,0.06 0,0.07 -0.04,0.09 -0.01,-0.02 -0.02,-0.05 -0.04,-0.06 -0.02,-0.01 -0.39,-0.02 -0.45,-0.03 -0.9,-0.11 -0.85,-0.39 -0.93,-0.43 -0.14,-0.05 -0.12,0.14 -0.16,0.22 -0.11,0.19 -0.36,0.21 -0.41,0.26 -0.02,0.02 -0.03,0.04 -0.05,0.06zm-0.17 0.05c-0.2,0.04 -0.31,0.43 -0.03,0.58 0.04,0.02 0.11,0.03 0.13,0.06 0.05,0.13 0.04,0.13 0.12,0.25 0.47,0.71 1.53,0.7 1.97,0 0.03,-0.04 0.05,-0.08 0.07,-0.12 0.07,-0.14 0.04,-0.15 0.12,-0.16 0.02,-0.01 0.04,-0.02 0.07,-0.03 0.04,-0.02 0.07,-0.06 0.1,-0.09 0.12,-0.15 0.07,-0.4 -0.13,-0.49 -0.01,-0.2 0.11,-0.49 -0.12,-0.77 -0.02,-0.03 -0.05,-0.06 -0.07,-0.08 -0.02,-0.03 -0.06,-0.06 -0.08,-0.08 -0.21,-0.17 -0.59,-0.31 -0.95,-0.3 -0.21,0 -0.41,0.08 -0.57,0.2 -0.07,0.06 -0.17,0.02 -0.35,0.12 -0.35,0.2 -0.34,0.54 -0.28,0.91zm1.65 0.25c0.07,-0.02 0.09,0.08 0.03,0.09 -0.06,0.02 -0.09,-0.07 -0.03,-0.09zm-0.16 0.06c0.02,0.23 0.36,0.2 0.35,-0.02 -0.01,-0.24 -0.37,-0.22 -0.35,0.02zm-0.75 -0.06c0.06,-0.02 0.09,0.08 0.02,0.09 -0.07,0.02 -0.08,-0.08 -0.02,-0.09zm-0.01 -0.13c-0.25,0.05 -0.18,0.37 0.04,0.35 0.09,-0.01 0.17,-0.09 0.15,-0.2 -0.01,-0.09 -0.09,-0.17 -0.19,-0.15z"/>
 </g>
</svg>
