<?xml version="1.0" encoding="UTF-8"?>
<!DOCTYPE svg PUBLIC "-//W3C//DTD SVG 1.0//EN" "http://www.w3.org/TR/2001/REC-SVG-20010904/DTD/svg10.dtd">
<!-- Creator: CorelDRAW 2018 (64 Bit Versão de avaliação) -->
<svg xmlns="http://www.w3.org/2000/svg" xml:space="preserve" width="47px" height="41px" version="1.0" shape-rendering="geometricPrecision" text-rendering="geometricPrecision" image-rendering="optimizeQuality" fill-rule="evenodd" clip-rule="evenodd"
viewBox="0 0 1.19 1.04"
 xmlns:xlink="http://www.w3.org/1999/xlink">
 <g id="Camada_x0020_1">
  <metadata id="CorelCorpID_0Corel-Layer"/>
  <g id="_2289596677376">
   <g>
    <path fill="black" d="M0.47 0.86l0.54 0 0 0.09 -0.54 0 0 -0.09zm-0.38 0l0.28 0 0 0.09 -0.28 0 0 -0.09zm-0.09 -0.02l0 0.11c0,0.03 0.02,0.06 0.03,0.07 0.02,0.02 0.05,0.02 0.08,0.02l0.97 0c0.04,0 0.06,0 0.08,-0.02 0.01,-0.01 0.03,-0.04 0.03,-0.07l0 -0.11c0,-0.03 -0.04,-0.08 -0.09,-0.08l-1 0c-0.06,0 -0.1,0.05 -0.1,0.08z"/>
    <path fill="black" d="M0.34 0.06c-0.02,-0.01 -0.03,-0.02 -0.06,-0.03 -0.07,-0.02 -0.15,-0.01 -0.2,0.04 -0.02,0.02 -0.01,0 -0.03,0.02 -0.03,0.04 -0.05,0.08 -0.05,0.13l0 0.03c0.01,0.08 0.07,0.17 0.17,0.19 0.03,0 0.06,0 0.08,0 0.03,0.06 0.11,0.11 0.18,0.11 0.05,0 0.07,-0.01 0.12,-0.03 0.02,-0.01 0.05,-0.04 0.07,-0.06 0.01,-0.02 0.02,-0.03 0.02,-0.06 0,-0.04 -0.05,-0.06 -0.08,-0.02 -0.01,0.02 -0.02,0.03 -0.03,0.04 -0.02,0.02 -0.06,0.04 -0.1,0.03 -0.04,0 -0.07,-0.02 -0.09,-0.05 -0.02,-0.03 -0.02,-0.07 -0.07,-0.07 -0.01,0 -0.07,0.04 -0.13,0l-0.01 -0.02c-0.01,-0.01 -0.02,-0.02 -0.03,-0.03 -0.03,-0.09 0.04,-0.16 0.1,-0.16 0.09,0 0.09,0.04 0.12,0.05 0.05,0.01 0.05,-0.03 0.11,-0.05 0.11,-0.06 0.24,0 0.28,0.1 0.01,0.02 0.01,0.05 0.05,0.05 0.03,0 0.02,-0.02 0.09,-0.02 0.04,0 0.09,0.05 0.08,0.11 -0.01,0.03 -0.02,0.02 -0.02,0.06 0,0.04 0.05,0.04 0.06,0.04 0.03,0.01 0.05,0.02 0.07,0.04 0.03,0.02 0.05,0.06 0.06,0.09 0,0.03 -0.01,0.04 0.01,0.06 0.03,0.04 0.08,0.01 0.08,-0.02 0,-0.1 -0.05,-0.19 -0.13,-0.24 -0.01,-0.01 -0.03,-0.01 -0.04,-0.01l0 -0.05c0,-0.09 -0.08,-0.18 -0.18,-0.18 -0.02,0 -0.05,0 -0.06,0.01 -0.08,-0.15 -0.26,-0.2 -0.41,-0.12 0,0 -0.01,0 -0.01,0 -0.01,0.01 -0.01,0.01 -0.01,0.01l-0.01 0.01z"/>
    <path fill="black" d="M0.74 0.48c0,0.18 0.17,0.2 0.21,0.18 0.02,-0.02 0.03,-0.05 0.01,-0.07 -0.03,-0.03 -0.07,0 -0.11,-0.04 -0.01,-0.02 -0.02,-0.04 -0.02,-0.07 0,-0.01 0,-0.02 -0.01,-0.03 -0.03,-0.03 -0.08,-0.01 -0.08,0.03z"/>
   </g>
  </g>
 </g>
</svg>
