<?xml version="1.0" encoding="UTF-8"?>
<!DOCTYPE svg PUBLIC "-//W3C//DTD SVG 1.0//EN" "http://www.w3.org/TR/2001/REC-SVG-20010904/DTD/svg10.dtd">
<!-- Creator: CorelDRAW 2018 (64 Bit Versão de avaliação) -->
<svg xmlns="http://www.w3.org/2000/svg" xml:space="preserve" width="41px" height="41px" version="1.0" shape-rendering="geometricPrecision" text-rendering="geometricPrecision" image-rendering="optimizeQuality" fill-rule="evenodd" clip-rule="evenodd"
viewBox="0 0 1.15 1.15"
 xmlns:xlink="http://www.w3.org/1999/xlink">
 <g id="Camada_x0020_1">
  <metadata id="CorelCorpID_0Corel-Layer"/>
  <path fill="black" d="M0.9 0.41c-0.01,-0.01 -0.03,-0.02 -0.04,-0.03 0,0 0,0 0.01,-0.01 0,-0.01 0,-0.03 0,-0.05 0,-0.01 0,-0.01 0,-0.02 0,0 0.02,0.02 0.03,0.03l0.11 0.12c0.02,0.01 0.02,0.01 0.03,0.02 0,0 0,0 0,0.01 0,0 0.01,0.01 0.01,0.02 0.02,0.03 0.02,0.06 0.02,0.09 -0.01,0.03 -0.02,0.05 -0.03,0.07 0,0 0,0 -0.01,0.01 0,0 0,0 0,0l-0.02 0.03c-0.01,0 -0.01,0 -0.01,0 -0.01,0.02 -0.05,0.06 -0.06,0.07l-0.02 0.01c-0.01,0.01 -0.04,0.02 -0.06,0.02 -0.01,0 -0.02,0 -0.03,0 0.01,-0.01 0.05,-0.05 0.05,-0.05 0,0 0.01,-0.01 0.01,-0.01 0.02,-0.02 0.05,-0.04 0.06,-0.06 0.01,-0.03 0.02,-0.06 0.01,-0.09 0,-0.02 -0.01,-0.03 -0.02,-0.04 0,0 0,0 0,0 -0.01,-0.01 -0.01,-0.01 -0.01,-0.01 -0.01,-0.01 -0.02,-0.01 -0.02,-0.02 0,0 0,-0.01 0.01,-0.01 0,-0.01 0,-0.02 0,-0.03 0,-0.02 0,-0.03 -0.01,-0.05 0,0 -0.01,-0.01 -0.01,-0.02zm-0.51 -0.41l-0.22 0c-0.01,0 -0.01,0 -0.02,0 0,0.01 0,0.01 0,0.01 -0.02,0.01 -0.02,0.03 -0.01,0.05 0,0 0.01,0.01 0.01,0.01 0.01,0.01 0.02,0.01 0.03,0.01l0.19 0c0.01,0 0.02,0 0.02,0 0.02,-0.01 0.03,-0.03 0.02,-0.05 0,-0.01 0,-0.01 0,-0.02 -0.01,0 -0.01,0 -0.01,-0.01 -0.01,0 -0.01,0 -0.01,0 0,0 0,0 0,0zm-0.39 0.16l0 0.02c0,0 0,0.01 0.01,0.02 0,0 0,0 0,0.01 0.01,0 0.01,0 0.02,0 0.01,0 0.17,0 0.2,0 0.01,0 0.03,0 0.04,0 0.02,-0.02 0.02,-0.05 0,-0.07 -0.01,-0.01 -0.02,-0.01 -0.03,-0.01l-0.18 0c-0.02,0 -0.04,0 -0.05,0.02 -0.01,0.01 -0.01,0.01 -0.01,0.01zm0.84 0.99l0.01 0c0,0 0,0 0.01,-0.01 0.01,0 0.01,-0.01 0.02,-0.01 0,-0.01 0,-0.01 0,-0.02 0,-0.01 0,-0.02 0,-0.03 0.01,0 0.02,0 0.03,0 0.01,0 0.01,0 0.02,0 0.02,-0.02 0.02,-0.06 0,-0.07 -0.02,-0.01 -0.03,0 -0.05,-0.01 0,0 0,-0.02 0,-0.02 0,-0.01 0,-0.02 0,-0.03 -0.01,0 -0.01,-0.01 -0.02,-0.01 0,0 -0.01,0 -0.02,0 -0.02,0 -0.03,0 -0.03,0.01 -0.01,0.02 -0.01,0.04 -0.01,0.05 -0.01,0 -0.02,0 -0.02,0 -0.02,0 -0.03,0.01 -0.04,0.03 -0.01,0.01 0,0.04 0.01,0.05 0.01,0 0.02,0 0.02,0 0.01,0 0.02,0 0.03,0 0,0.01 0,0.02 0,0.03 0,0.01 0,0.01 0,0.02 0.01,0.01 0.02,0.01 0.03,0.02 0,0 0,0 0.01,0zm0.31 -1.04l0 -0.01c0,0 0,0 0,0 0,-0.02 -0.01,-0.03 -0.02,-0.03 -0.01,0 -0.01,0 -0.02,0 -0.01,0 -0.02,0 -0.03,0 0,-0.01 0,-0.02 0,-0.03 0,-0.01 0,-0.01 0,-0.02 -0.01,-0.02 -0.03,-0.02 -0.03,-0.02l-0.01 0c0,0 -0.01,0 -0.01,0 -0.01,0.01 -0.02,0.01 -0.02,0.02 -0.01,0.01 -0.01,0.01 -0.01,0.02 0,0.01 0,0.02 0,0.03 -0.01,0 -0.01,0 -0.02,0 -0.01,0 -0.02,0 -0.03,0 -0.01,0.01 -0.01,0.02 -0.01,0.04 0,0.01 0,0.03 0.01,0.03 0.02,0.01 0.04,0 0.05,0.01 0,0.01 0,0.03 0.01,0.04 0,0.02 0.02,0.02 0.03,0.02 0.02,0 0.03,0 0.04,-0.02 0,0 0,-0.01 0,-0.02 0,-0.01 0,-0.01 0,-0.02 0.01,0 0.02,0 0.03,0 0,0 0.01,0 0.01,-0.01 0.01,0 0.02,-0.01 0.03,-0.02 0,0 0,-0.01 0,-0.01zm-0.99 0.25c0,0 0.01,0 0.01,0 0.01,0.01 0.01,0.03 0.01,0.04 0,0.01 0,0.02 0,0.04 0,0.01 0,0.02 0,0.04 0,0 0,0 0,0 0.01,0.02 0.01,0.04 0.01,0.05 0,0.01 0,0.01 0,0.02 0,0.01 0,0.03 0,0.05 0.01,0.01 0.01,0.01 0.01,0.02 0.01,0 0.02,0.01 0.03,0.01 0.02,0 0.03,-0.01 0.04,-0.03l0.32 -0.31c0.01,-0.01 0.02,-0.03 0.03,-0.03 0.01,0 0.02,0.01 0.02,0.01 0.01,0.01 0.01,0.02 0.01,0.03 0,0 -0.01,0.01 -0.01,0.01 0,0.01 0,0 -0.01,0.01 -0.03,0.03 -0.06,0.06 -0.08,0.08 -0.02,0.02 -0.04,0.04 -0.06,0.06l-0.03 0.03c-0.01,0.01 -0.01,0.01 -0.01,0.01 -0.01,0.01 -0.01,0.02 -0.01,0.03 0,0.01 0.01,0.03 0.03,0.03 0,0 0,0.01 0.01,0.01 0.02,0 0.03,-0.02 0.05,-0.03l0.11 -0.11c0.02,-0.03 0.05,-0.05 0.07,-0.08 0.01,0 0.03,-0.03 0.04,-0.03 0.02,-0.02 0.04,0 0.04,0.01l0 0.01c0,0.01 -0.02,0.03 -0.03,0.04 0,0 -0.02,0.02 -0.03,0.03 -0.01,0.01 -0.16,0.17 -0.17,0.17 0,0 0,0 -0.01,0 -0.01,0.01 -0.01,0.03 -0.01,0.04 0,0.01 0,0.02 0.01,0.03 0,0 0.01,0.01 0.02,0.01 0.02,0 0.03,-0.01 0.04,-0.02 0.01,-0.01 0.03,-0.02 0.04,-0.03l0.13 -0.13c0,-0.01 0.01,-0.02 0.02,-0.02 0.01,-0.01 0.01,-0.01 0.02,-0.01 0.01,0 0.01,0.01 0.02,0.02 0,0.01 -0.01,0.02 -0.01,0.03 -0.01,0.01 -0.02,0.02 -0.03,0.03 0,0 0,0 0,0l-0.15 0.15c0,0 0,0 -0.01,0 0,0.01 0,0.01 0,0.01 -0.02,0.02 -0.01,0.05 0.01,0.06 0.01,0 0.02,0 0.02,0 0.01,0 0.02,0 0.03,-0.01 0,0 0.01,-0.01 0.01,-0.01 0.01,-0.01 0.02,-0.02 0.04,-0.03l0.08 -0.09c0.01,-0.01 0.02,-0.02 0.03,-0.02 0.02,0 0.03,0.03 0.02,0.04 0,0.01 0,0.01 -0.01,0.01l-0.23 0.23 -0.05 0.06c0,0 0,0 -0.01,0.01 0,0 0,0 0,0l-0.04 0.04c-0.01,0.01 -0.01,0.01 -0.02,0.02 0,0 0,0 -0.01,0l-0.01 0.01c0,0.01 -0.01,0.01 -0.02,0.02l-0.01 0.01c-0.01,0 -0.02,0 -0.02,0.01l-0.02 0.01c-0.01,0 -0.02,0 -0.03,0 -0.01,0.01 -0.04,0.01 -0.05,0.01l-0.03 0c0,0 -0.01,0 -0.01,0 -0.03,-0.01 -0.06,-0.01 -0.08,-0.02 -0.01,-0.01 -0.03,-0.02 -0.04,-0.03 0,0 -0.01,0 -0.01,0 -0.01,-0.01 -0.02,-0.02 -0.02,-0.03 -0.01,-0.01 -0.02,-0.02 -0.03,-0.03l-0.01 -0.01c0,0 0,0 0,-0.01 -0.02,-0.02 -0.03,-0.07 -0.04,-0.1 0,0 0,-0.01 0,-0.01l0 -0.02c0,-0.01 0,-0.02 0,-0.03 0,-0.03 0.01,-0.06 0.01,-0.09l0.01 -0.06c0,-0.02 0,-0.04 0.01,-0.06 0,-0.04 0,-0.07 0.01,-0.11 0,-0.02 0.01,-0.08 0.01,-0.09 0,-0.01 0.01,-0.01 0.02,-0.01l0.01 0zm0.24 0c-0.01,-0.03 -0.01,-0.05 0.01,-0.08 0,0 0,0 0,0l0.03 -0.03c0,-0.01 0.01,-0.01 0.01,-0.02 0,0 0.01,0 0.01,0 0,0 0,0 0,-0.01 0.01,0 0.02,-0.01 0.02,-0.02l0.03 -0.02c0,-0.01 0.01,-0.02 0.02,-0.02 0.02,-0.02 0.04,-0.03 0.06,-0.03 0.01,0 0.02,0 0.04,0 0.02,0 0.04,0 0.06,0.01 0.01,0 0.03,0.02 0.04,0.03l0.07 0.07c0,-0.01 -0.01,-0.01 -0.02,-0.01 -0.04,0 -0.05,0.01 -0.06,0.01 0,0 0,0 0,-0.01 -0.01,0 -0.01,0 -0.01,0 0,0 0,-0.01 -0.01,-0.01 -0.01,-0.01 0,-0.01 -0.02,-0.02 0,0 0,0 0,0 -0.02,-0.01 -0.03,-0.02 -0.04,-0.02 -0.03,0 -0.04,0.01 -0.06,0.01 -0.01,0.01 -0.01,0.01 -0.01,0.01 -0.01,0 -0.01,0 -0.01,0 0,0 0,0.01 0,0.01 0,0 -0.01,0 -0.01,0 0,0 0,0 0,0.01 -0.01,0 -0.02,0.01 -0.02,0.01 0,0.01 0,0 -0.01,0.01l-0.03 0.04c-0.01,0 -0.01,0 -0.01,0 0,0 0,0 0,0l-0.03 0.03c-0.01,0.01 -0.05,0.05 -0.05,0.05zm-0.4 0.43l0 0.04 0 0.01c0,0.02 0.01,0.04 0.01,0.06 0,0.02 0.02,0.05 0.03,0.07l0.01 0.02c0.01,0.01 0.02,0.03 0.03,0.04 0.01,0.01 0.01,0.01 0.02,0.02l0.01 0.01c0.01,0.01 0.02,0.02 0.03,0.03 0,0 0.01,0 0.01,0 0,0.01 0.02,0.02 0.03,0.02 0,0 0,0 0,0l0.02 0.01c0.04,0.02 0.07,0.03 0.11,0.03 0,0 0.01,0 0.01,0l0.05 0 0.02 0c0.03,-0.01 0.06,-0.02 0.1,-0.03 0.02,-0.01 0.05,-0.03 0.06,-0.04 0.01,-0.01 0.01,-0.01 0.02,-0.01l0.02 -0.03c0,0 0,0 0.01,-0.01 0.01,0 0.01,-0.01 0.02,-0.02 0.01,-0.01 0.02,-0.01 0.02,-0.02l0.05 -0.04c0,-0.01 0.04,-0.04 0.04,-0.05 0,0 0.01,-0.01 0.01,-0.01l0.02 -0.02c0.01,0 0.01,-0.01 0.01,-0.01 0.02,0 0.03,0.02 0.07,0.02 0.02,0 0.05,0 0.08,-0.01 0.02,0 0.03,-0.01 0.05,-0.03l0.05 -0.04c0,0 0.02,-0.02 0.03,-0.03 0,0 0,0 0,0l0.03 -0.04c0.01,0 0.02,-0.01 0.02,-0.02 0,0 0,0 0,0 0,0 0,0 0.01,0 0,-0.01 0,-0.01 0,-0.01 0.01,-0.01 0.02,-0.03 0.02,-0.04 0.01,-0.02 0.01,-0.04 0.02,-0.05l0 -0.02 0 -0.04c0,0 0,-0.02 0,-0.03 -0.01,-0.03 -0.02,-0.04 -0.03,-0.07 0,-0.01 -0.02,-0.03 -0.03,-0.04 -0.01,-0.02 -0.05,-0.05 -0.06,-0.07 -0.02,-0.01 -0.04,-0.03 -0.06,-0.05 -0.03,-0.04 -0.07,-0.07 -0.11,-0.11 -0.01,-0.01 -0.07,-0.07 -0.08,-0.08l-0.01 -0.01c0,0 0,0 -0.01,0 -0.02,-0.02 -0.05,-0.04 -0.09,-0.04 -0.02,0 -0.03,-0.01 -0.05,-0.01 -0.04,0 -0.08,0.02 -0.11,0.03 -0.01,0.01 -0.03,0.02 -0.04,0.03 0,0.01 -0.01,0.01 -0.02,0.02 0,0 0,0 0,0 -0.01,0.01 -0.01,0.01 -0.01,0.01l-0.06 0.06c-0.01,0.01 -0.02,0.02 -0.02,0.03 -0.01,0.01 -0.02,0.02 -0.03,0.03 0,0 0,0.01 -0.01,0.02 0,0 0,0.01 0,0.02 -0.01,0.01 -0.01,0.03 -0.01,0.05 0,0 0,0.01 0,0.01 0.01,0.01 0.01,0.02 0.01,0.03 0.01,0.02 0.01,0.03 0.02,0.04 0,0 -0.04,0.04 -0.04,0.04 0,0 0,0.01 -0.01,0.01l-0.02 0.02c0,0 0,0 0,0 0,0 0,0 0,0l0 -0.03c-0.01,-0.01 -0.01,-0.02 -0.01,-0.03 0,0 0,-0.03 0,-0.03 0,-0.01 0,-0.01 0,-0.01 0,0 0,-0.01 0,-0.01 0,-0.01 0,-0.02 -0.01,-0.03 0,-0.01 0,-0.02 0,-0.02 -0.01,-0.01 -0.02,-0.02 -0.02,-0.02 0,0 -0.01,-0.01 -0.02,-0.01l-0.01 -0.01c0,-0.01 -0.02,-0.01 -0.03,-0.01 -0.02,0 -0.05,0 -0.07,0.01 -0.01,0 -0.01,0.01 -0.02,0.02 -0.02,0.01 -0.03,0.03 -0.03,0.05l-0.01 0.1c-0.01,0.03 -0.01,0.07 -0.02,0.11 0,0.04 0,0.07 -0.01,0.11 0,0.03 -0.01,0.06 -0.01,0.09 0,0 0,0.02 0,0.02z"/>
 </g>
</svg>
