<?xml version="1.0" encoding="UTF-8"?>
<!DOCTYPE svg PUBLIC "-//W3C//DTD SVG 1.0//EN" "http://www.w3.org/TR/2001/REC-SVG-20010904/DTD/svg10.dtd">
<!-- Creator: CorelDRAW 2018 (64 Bit Versão de avaliação) -->
<svg xmlns="http://www.w3.org/2000/svg" xml:space="preserve" width="33px" height="41px" version="1.0" shape-rendering="geometricPrecision" text-rendering="geometricPrecision" image-rendering="optimizeQuality" fill-rule="evenodd" clip-rule="evenodd"
viewBox="0 0 0.85 1.06"
 xmlns:xlink="http://www.w3.org/1999/xlink">
 <g id="Camada_x0020_1">
  <metadata id="CorelCorpID_0Corel-Layer"/>
  <g id="_2038818406672">
   <g>
    <path fill="#292929" d="M0.19 0.32l0 0.55c0,0.02 0,0.03 0.01,0.05 0.02,0.04 0.06,0.07 0.11,0.07l0.02 0c0.02,0 0.06,-0.02 0.07,-0.04 0.02,-0.02 0.03,-0.06 0.04,-0.07 0.02,0.03 0.05,0.08 0.06,0.11 0.02,0.02 0.03,0.04 0.04,0.05 0.02,0.01 0.04,0.02 0.07,0.02l0.01 0c0.05,0 0.09,-0.03 0.11,-0.07 0.01,-0.02 0.01,-0.04 0.01,-0.06 0,-0.02 0,-0.04 -0.01,-0.05l-0.07 -0.12c0.06,0 0.1,0.01 0.14,-0.02 0.02,-0.01 0.05,-0.05 0.05,-0.09l0 -0.02c0,-0.04 -0.02,-0.09 -0.05,-0.09l-0.02 0c-0.03,0 -0.03,0.03 -0.03,0.05 0,0.02 0.02,0.02 0.02,0.05 0,0.03 -0.03,0.04 -0.06,0.04l-0.12 0c-0.03,0 -0.04,0.02 -0.04,0.04 0,0.02 0.02,0.04 0.02,0.06l0.06 0.1c0.01,0.02 0.03,0.04 0.03,0.06 0,0.02 -0.02,0.04 -0.04,0.04 -0.02,0 -0.03,0 -0.04,-0.02 -0.01,-0.02 -0.01,-0.03 -0.02,-0.04 0,0 0,-0.01 -0.01,-0.01l-0.07 -0.15c-0.01,-0.01 -0.02,-0.02 -0.04,-0.02 -0.02,0 -0.03,0.02 -0.04,0.03l-0.02 0.05c-0.02,0.02 -0.03,0.05 -0.04,0.07 -0.01,0.03 -0.04,0.02 -0.06,0 0,-0.01 -0.01,-0.03 -0.01,-0.04l0 -0.52c0,-0.03 0.02,-0.04 0.05,-0.04 0.02,0 0.09,0.06 0.12,0.08l0.12 0.09c0.02,0.01 0.06,0.05 0.08,0.05 0.03,0 0.04,-0.02 0.04,-0.05 0,-0.02 -0.05,-0.05 -0.08,-0.07l-0.09 -0.07c-0.02,-0.02 -0.11,-0.08 -0.13,-0.1 -0.04,-0.02 -0.08,-0.02 -0.12,-0.01 -0.02,0.01 -0.03,0.02 -0.04,0.04 0,0 0,0 -0.01,0.01 -0.01,0.02 -0.02,0.03 -0.02,0.06z"/>
    <path fill="#292929" d="M0.13 0.06c0,0.01 0.01,0.03 0.02,0.04 0.01,0.01 0.02,0.05 0.03,0.06 0.02,0.03 0.08,0.02 0.08,-0.02 0,-0.03 0,-0.02 -0.01,-0.05 -0.01,-0.02 -0.03,-0.07 -0.06,-0.07 -0.03,0 -0.06,0.02 -0.06,0.04z"/>
    <path fill="#292929" d="M0 0.21c0,0.03 0.01,0.04 0.04,0.05 0.03,0.02 0.04,0.03 0.08,0.03 0.02,0 0.04,-0.02 0.04,-0.04 0,-0.03 -0.01,-0.04 -0.05,-0.06 -0.03,-0.01 -0.04,-0.02 -0.07,-0.02 -0.02,0 -0.04,0.02 -0.04,0.04z"/>
    <path fill="#292929" d="M0.32 0.11c0,0.05 0.05,0.06 0.08,0.04 0.02,-0.02 0.04,-0.08 0.04,-0.11 0,-0.02 -0.03,-0.04 -0.05,-0.04l0 0c-0.01,0 -0.02,0 -0.03,0.01 -0.01,0.01 -0.02,0.05 -0.03,0.07 0,0.01 -0.01,0.02 -0.01,0.03z"/>
    <path fill="#292929" d="M0.45 0.2c0,0.03 0.02,0.04 0.05,0.04 0.01,0 0.04,-0.02 0.05,-0.03 0.04,-0.02 0.04,-0.03 0.04,-0.06 0,-0.02 -0.02,-0.04 -0.04,-0.04 -0.02,0 -0.05,0.02 -0.06,0.03 -0.02,0.02 -0.04,0.03 -0.04,0.06z"/>
    <path fill="#292929" d="M0 0.42c0,0.04 0.02,0.05 0.06,0.05 0.01,0 0.05,-0.02 0.06,-0.02 0.03,-0.01 0.04,-0.02 0.04,-0.05 0,-0.03 -0.02,-0.04 -0.05,-0.04 -0.01,0 -0.08,0.02 -0.09,0.03 -0.01,0.01 -0.02,0.02 -0.02,0.03z"/>
   </g>
  </g>
 </g>
</svg>
