<?xml version="1.0" encoding="UTF-8"?>
<!DOCTYPE svg PUBLIC "-//W3C//DTD SVG 1.0//EN" "http://www.w3.org/TR/2001/REC-SVG-20010904/DTD/svg10.dtd">
<!-- Creator: CorelDRAW 2018 (64 Bit Versão de avaliação) -->
<svg xmlns="http://www.w3.org/2000/svg" xml:space="preserve" width="41px" height="41px" version="1.0" shape-rendering="geometricPrecision" text-rendering="geometricPrecision" image-rendering="optimizeQuality" fill-rule="evenodd" clip-rule="evenodd"
viewBox="0 0 5.78 5.78"
 xmlns:xlink="http://www.w3.org/1999/xlink">
 <g id="Camada_x0020_1">
  <metadata id="CorelCorpID_0Corel-Layer"/>
  <path fill="black" d="M2.76 0.55c0.56,-0.05 1.14,0.16 1.56,0.49 0.03,0.02 0.06,0.04 0.09,0.06 0.04,0.04 0.1,0.1 0.15,0.14 0.08,0.08 0.26,0.31 0.32,0.41 0.2,0.3 0.32,0.72 0.35,1.12 0.03,0.36 -0.05,0.7 -0.17,1 -0.07,0.18 -0.25,0.5 -0.39,0.64l-0.22 0.22c-0.02,0.02 -0.04,0.05 -0.07,0.07 -0.15,0.12 -0.26,0.19 -0.45,0.28 -0.62,0.31 -1.27,0.34 -1.92,0.08 -0.3,-0.12 -0.41,-0.21 -0.64,-0.39l-0.22 -0.21 -0.13 -0.16c-0.18,-0.24 -0.31,-0.5 -0.39,-0.79 -0.04,-0.16 -0.07,-0.33 -0.08,-0.5 -0.02,-0.33 0.05,-0.73 0.16,-1 0.12,-0.26 0.27,-0.51 0.47,-0.71 0.2,-0.21 0.22,-0.24 0.48,-0.4 0.32,-0.2 0.69,-0.32 1.1,-0.35zm-0.17 1.19l0 1.13c0,0.27 0.06,0.28 0.2,0.42l0.78 0.78c0.06,0.06 0.1,0.11 0.22,0.11 0.12,0 0.24,-0.11 0.24,-0.27 0,-0.12 -0.12,-0.21 -0.18,-0.28l-0.69 -0.69c-0.07,-0.06 -0.06,-0.04 -0.06,-0.17l0 -1.14c-0.02,-0.27 -0.51,-0.36 -0.51,0.11zm0.09 -1.73c-0.29,0.02 -0.62,0.09 -0.88,0.2 -0.18,0.08 -0.31,0.15 -0.47,0.25 -0.08,0.05 -0.15,0.1 -0.21,0.15 -0.04,0.03 -0.07,0.05 -0.1,0.08 -0.09,0.08 -0.1,0.08 -0.19,0.17l-0.09 0.1c-0.21,0.22 -0.43,0.6 -0.55,0.89 -0.14,0.35 -0.21,0.83 -0.18,1.25 0.03,0.51 0.2,0.97 0.45,1.35 0.12,0.18 0.22,0.3 0.36,0.45 0.03,0.04 0.05,0.06 0.09,0.09 0.01,0.01 0.02,0.01 0.03,0.02 0.01,0.01 0.01,0.02 0.02,0.03 0.24,0.22 0.58,0.42 0.89,0.55 0.74,0.29 1.68,0.25 2.38,-0.14 0.19,-0.11 0.26,-0.15 0.43,-0.28l0.15 -0.12c0.05,-0.05 0.09,-0.08 0.14,-0.13 0.03,-0.03 0.06,-0.08 0.09,-0.1 0.02,-0.02 0.05,-0.06 0.08,-0.1 0.03,-0.03 0.05,-0.06 0.08,-0.1 0.14,-0.19 0.3,-0.45 0.39,-0.69 0.13,-0.34 0.22,-0.85 0.18,-1.25 -0.02,-0.3 -0.09,-0.62 -0.2,-0.88 -0.04,-0.08 -0.07,-0.17 -0.12,-0.25 -0.11,-0.2 -0.22,-0.36 -0.36,-0.53 -0.01,-0.02 -0.03,-0.03 -0.04,-0.05l-0.33 -0.31c-0.21,-0.18 -0.52,-0.36 -0.79,-0.47 -0.33,-0.13 -0.86,-0.22 -1.25,-0.18z"/>
 </g>
</svg>
