<?xml version="1.0" encoding="UTF-8"?>
<!DOCTYPE svg PUBLIC "-//W3C//DTD SVG 1.0//EN" "http://www.w3.org/TR/2001/REC-SVG-20010904/DTD/svg10.dtd">
<!-- Creator: CorelDRAW 2018 (64 Bit Versão de avaliação) -->
<svg xmlns="http://www.w3.org/2000/svg" xml:space="preserve" width="41px" height="41px" version="1.0" shape-rendering="geometricPrecision" text-rendering="geometricPrecision" image-rendering="optimizeQuality" fill-rule="evenodd" clip-rule="evenodd"
viewBox="0 0 3.48 3.48"
 xmlns:xlink="http://www.w3.org/1999/xlink">
 <g id="Camada_x0020_1">
  <metadata id="CorelCorpID_0Corel-Layer"/>
  <g id="_2299456187376">
   <path fill="#282828" d="M2.65 0.62c0.66,0.55 0.69,1.45 0.21,2.04 -0.28,0.34 -0.72,0.53 -1.14,0.53 -0.05,0 -0.08,0 -0.13,-0.01 -0.49,-0.05 -0.93,-0.35 -1.16,-0.81 -0.09,-0.2 -0.12,-0.37 -0.14,-0.58 -0.01,-0.12 0,-0.08 0.01,-0.19 0.01,-0.24 0.16,-0.58 0.31,-0.77 0.26,-0.33 0.63,-0.49 1.02,-0.54 0.08,-0.01 0.16,0 0.25,0.01 0.26,0.02 0.56,0.14 0.77,0.32zm-2.23 -0.01c-0.22,0.24 -0.37,0.61 -0.41,0.92 -0.03,0.3 0.01,0.64 0.14,0.92 0.2,0.44 0.61,0.82 1.08,0.95 0.4,0.12 0.82,0.11 1.22,-0.07 0.63,-0.29 1,-0.86 1.03,-1.53 0,-0.15 -0.02,-0.32 -0.05,-0.46 -0.09,-0.39 -0.25,-0.64 -0.56,-0.92 -0.25,-0.24 -0.61,-0.37 -0.92,-0.41 -0.08,-0.01 -0.1,0 -0.16,-0.01 -0.05,0 -0.09,0 -0.15,0.01 -0.1,0.01 -0.2,0.03 -0.3,0.04 -0.1,0.01 -0.21,0.06 -0.31,0.1 -0.25,0.12 -0.4,0.23 -0.61,0.46z"/>
   <path fill="#282828" d="M2.5 2.3c-0.09,-0.09 -0.19,-0.2 -0.28,-0.29 -0.07,-0.07 -0.24,-0.22 -0.29,-0.29 0.02,-0.03 0.49,-0.5 0.55,-0.55 0.07,-0.06 0.05,-0.18 -0.03,-0.23 -0.1,-0.06 -0.16,-0.01 -0.24,0.08 -0.17,0.16 -0.33,0.32 -0.49,0.48 -0.13,-0.12 -0.25,-0.24 -0.37,-0.37 -0.1,-0.09 -0.24,-0.28 -0.37,-0.15 -0.06,0.06 -0.06,0.14 -0.02,0.19 0.03,0.05 0.48,0.49 0.54,0.55 -0.07,0.07 -0.53,0.51 -0.56,0.57 -0.09,0.15 0.09,0.29 0.21,0.21 0.05,-0.03 0.5,-0.5 0.57,-0.56 0.16,0.16 0.33,0.33 0.49,0.49 0.04,0.04 0.08,0.09 0.13,0.11 0.15,0.06 0.27,-0.14 0.16,-0.24z"/>
  </g>
 </g>
</svg>
