<?xml version="1.0" encoding="UTF-8"?>
<!DOCTYPE svg PUBLIC "-//W3C//DTD SVG 1.0//EN" "http://www.w3.org/TR/2001/REC-SVG-20010904/DTD/svg10.dtd">
<!-- Creator: CorelDRAW 2018 (64 Bit Versão de avaliação) -->
<svg xmlns="http://www.w3.org/2000/svg" xml:space="preserve" width="41px" height="41px" version="1.0" shape-rendering="geometricPrecision" text-rendering="geometricPrecision" image-rendering="optimizeQuality" fill-rule="evenodd" clip-rule="evenodd"
viewBox="0 0 3.46 3.47"
 xmlns:xlink="http://www.w3.org/1999/xlink">
 <g id="Camada_x0020_1">
  <metadata id="CorelCorpID_0Corel-Layer"/>
  <path fill="black" d="M1.73 1.46c-0.02,-0.03 -1.19,-1.2 -1.29,-1.3 -0.03,-0.03 -0.07,-0.06 -0.1,-0.1 -0.11,-0.13 -0.35,-0.04 -0.33,0.15 0.01,0.06 0.04,0.1 0.07,0.13 0.07,0.06 0.13,0.13 0.2,0.2l0.79 0.79c0.02,0.02 0.39,0.37 0.4,0.4 -0.03,0.03 -0.07,0.07 -0.1,0.1l-1.1 1.1c-0.05,0.05 -0.22,0.21 -0.25,0.26 -0.07,0.13 0.04,0.29 0.19,0.27 0.07,0 0.1,-0.03 0.13,-0.07l1.2 -1.2c0.03,-0.03 0.18,-0.18 0.2,-0.19 0.03,0.03 0.07,0.07 0.1,0.1l1.29 1.29c0.17,0.17 0.41,-0.02 0.31,-0.21 -0.01,-0.03 -0.02,-0.04 -0.04,-0.06l-1.2 -1.19c-0.06,-0.07 -0.13,-0.14 -0.19,-0.2 0.01,-0.03 1.26,-1.27 1.39,-1.39 0.03,-0.04 0.06,-0.07 0.06,-0.14 0.01,-0.17 -0.19,-0.28 -0.33,-0.13 -0.15,0.14 -1.26,1.25 -1.3,1.29 -0.01,0.02 -0.08,0.09 -0.1,0.1z"/>
 </g>
</svg>
