<?xml version="1.0" encoding="UTF-8"?>
<!DOCTYPE svg PUBLIC "-//W3C//DTD SVG 1.0//EN" "http://www.w3.org/TR/2001/REC-SVG-20010904/DTD/svg10.dtd">
<!-- Creator: CorelDRAW 2018 (64 Bit Versão de avaliação) -->
<svg xmlns="http://www.w3.org/2000/svg" xml:space="preserve" width="37px" height="37px" version="1.0" shape-rendering="geometricPrecision" text-rendering="geometricPrecision" image-rendering="optimizeQuality" fill-rule="evenodd" clip-rule="evenodd"
viewBox="0 0 19.48 19.48"
 xmlns:xlink="http://www.w3.org/1999/xlink">
 <g id="Camada_x0020_1">
  <metadata id="CorelCorpID_0Corel-Layer"/>
  <path fill="#0023C4" d="M8.94 17.89c-2.15,-0.29 -3.87,-1.99 -4.35,-3.91 -0.28,-1.13 -0.18,-2.72 -0.18,-3.94 0,-0.4 -0.06,-1.69 0.07,-1.98 0.27,-0.58 0.95,-0.45 1.65,-0.45l7.83 0c1.23,-0.01 0.95,1.06 0.95,2.21 0,1.93 0.2,4.01 -0.73,5.54 -0.86,1.42 -2.01,2.29 -3.77,2.54 -0.2,0.03 -0.56,0.07 -0.75,0.06 -0.2,-0.01 -0.54,-0.08 -0.72,-0.07zm10.54 -8.09l0 1.35c0,0.95 -0.59,2.02 -1.08,2.5 -0.55,0.55 -1.49,1.21 -2.34,1.23 -0.22,0.91 -0.99,2.1 -1.67,2.78 -0.1,0.11 -0.25,0.21 -0.31,0.3l4.56 0c0.3,-0.01 0.42,0.04 0.58,0.18 0.24,0.2 0.26,0.38 0.26,0.6l0 0.09c0,0.28 -0.37,0.65 -0.65,0.65l-18.18 0c-0.36,0 -0.62,-0.35 -0.65,-0.72l0 -0.14c0.03,-0.34 0.28,-0.67 0.87,-0.66l4.53 0c-0.09,-0.14 -1.02,-0.81 -1.7,-2.07 -0.38,-0.71 -0.81,-1.89 -0.81,-2.95l0 -4.76c0,-0.38 0.21,-0.87 0.44,-1.16 0.14,-0.2 0.17,-0.24 0.37,-0.4 0.35,-0.28 0.78,-0.53 1.28,-0.53l9.33 0c0.75,0 1.57,0.59 1.89,1.23 0.05,0.11 0.07,0.19 0.12,0.29 1.29,0 2.09,-0.06 2.85,1.11 0.2,0.31 0.28,0.68 0.31,1.08zm-3.04 3.36l0 -4.03c0.59,0 1.52,-0.12 1.52,0.84 0,0.91 0.07,1.58 -0.44,2.33 -0.22,0.32 -0.76,0.84 -1.08,0.86z"/>
  <path fill="#CDE0F1" d="M8.94 17.89l-0.04 -0.04c-0.04,-0.03 -0.03,-0.03 -0.07,-0.05 -0.05,-0.04 -0.08,-0.05 -0.14,-0.09 -0.42,-0.25 -1.22,-0.99 -1.51,-1.41 -1.34,-1.95 -1.25,-2.95 -1.25,-5.49 0,-0.51 -0.05,-2.42 0.08,-2.86 0.03,-0.14 0.09,-0.22 0.12,-0.34 -0.7,0 -1.38,-0.13 -1.65,0.45 -0.13,0.29 -0.07,1.58 -0.07,1.98 0,1.22 -0.1,2.81 0.18,3.94 0.48,1.92 2.2,3.62 4.35,3.91z"/>
  <path fill="#FF5CF4" d="M7.46 3.61l0 0.31c0,0.28 0.37,0.65 0.64,0.65 0.34,0 0.67,-0.05 0.84,-0.5 0.14,-0.36 -0.07,-0.46 0.29,-0.81 0.25,-0.23 0.45,-0.22 0.89,-0.22 0.37,0 0.74,0 1.1,0 0.78,0.01 1.17,-0.25 1.61,-0.6 0.34,-0.27 0.71,-1.02 0.71,-1.49l0 -0.3c0,-0.28 -0.36,-0.65 -0.64,-0.65 -0.34,0 -0.67,0.05 -0.84,0.49 -0.14,0.37 0.07,0.47 -0.29,0.82 -0.24,0.23 -0.45,0.21 -0.89,0.21 -1.31,0 -1.79,-0.13 -2.71,0.6 -0.34,0.28 -0.71,1 -0.71,1.49z"/>
 </g>
</svg>
