<?xml version="1.0" encoding="UTF-8"?>
<!DOCTYPE svg PUBLIC "-//W3C//DTD SVG 1.0//EN" "http://www.w3.org/TR/2001/REC-SVG-20010904/DTD/svg10.dtd">
<!-- Creator: CorelDRAW 2018 (64 Bit Versão de avaliação) -->
<svg xmlns="http://www.w3.org/2000/svg" xml:space="preserve" width="41px" height="41px" version="1.0" shape-rendering="geometricPrecision" text-rendering="geometricPrecision" image-rendering="optimizeQuality" fill-rule="evenodd" clip-rule="evenodd"
viewBox="0 0 5.79 5.79"
 xmlns:xlink="http://www.w3.org/1999/xlink">
 <g id="Camada_x0020_1">
  <metadata id="CorelCorpID_0Corel-Layer"/>
  <g id="_2290015998784">
   <g>
    <path fill="#292929" d="M0.49 5.13l4.48 0 0 0.17 -4.48 0 0 -0.17zm5.3 -1.71l0 0.09c-0.01,0.09 -0.03,0.18 -0.07,0.26 -0.11,0.19 -0.34,0.36 -0.6,0.36 -0.01,0.09 -0.05,0.21 -0.08,0.28 -0.06,0.16 -0.05,0.11 -0.11,0.23 0.62,0 0.53,0.03 0.53,0.91 0,0.13 -0.11,0.24 -0.24,0.24l-4.97 0c-0.15,0 -0.25,-0.11 -0.25,-0.25l0 -5.31c0,-0.12 0.11,-0.23 0.23,-0.23l4.39 0c0.42,0 0.84,0.43 0.84,0.85l0 0.1c0,0.42 -0.43,0.85 -0.85,0.85l-0.69 0 0 0.19c0,0.2 -0.18,0.3 -0.36,0.23 -0.15,-0.07 -0.13,-0.27 -0.13,-0.42l-1.63 0 0 2.84 0.63 0c-0.14,-0.22 -0.21,-0.4 -0.21,-0.69l0 -1.24c0,-0.13 0.09,-0.26 0.21,-0.26l2.47 0c0.2,0 0.23,0.18 0.23,0.32 0.19,0 0.32,0.07 0.44,0.19l0.04 0.04c0.06,0.07 0.1,0.11 0.14,0.21 0.02,0.07 0.03,0.14 0.04,0.21zm-3.08 0.58l0 -1.08 1.93 0 0 1.09c0,0.16 -0.08,0.32 -0.15,0.41 -0.05,0.06 -0.08,0.09 -0.15,0.14 -0.05,0.03 -0.13,0.08 -0.21,0.08l-0.9 0c-0.12,0 -0.28,-0.12 -0.36,-0.22 -0.08,-0.09 -0.16,-0.26 -0.16,-0.42zm2.42 -0.35l0 -0.39c0.08,0 0.17,0.08 0.17,0.16l0 0.07c0,0.09 -0.09,0.14 -0.17,0.16zm-3.81 -2.11l0 3.1 -0.83 0 0 -4.16 4.02 0c0.13,0 0.24,0.04 0.32,0.1 0.2,0.16 0.2,0.53 -0.06,0.68 -0.13,0.07 -0.28,0.05 -0.48,0.05l-2.66 0c-0.16,0 -0.31,0.07 -0.31,0.23z"/>
    <path fill="#292929" d="M0.66 3.14c0,0.14 -0.02,0.48 0.05,0.57 0.11,0.16 0.43,0.11 0.43,-0.15l0 -0.43c0,-0.32 -0.48,-0.33 -0.48,0.01z"/>
    <path fill="#292929" d="M4.31 0.88c0,0.36 0.49,0.31 0.49,0.03 0,-0.13 -0.11,-0.25 -0.24,-0.25 -0.12,0 -0.25,0.1 -0.25,0.22z"/>
    <path fill="#292929" d="M3.66 0.86c0,0.41 0.47,0.31 0.47,0.07 0,-0.4 -0.47,-0.29 -0.47,-0.07z"/>
    <path fill="#292929" d="M3 0.87c0,0.09 0,0.14 0.07,0.2 0.2,0.21 0.55,-0.08 0.35,-0.33 -0.14,-0.16 -0.42,-0.07 -0.42,0.13z"/>
   </g>
  </g>
 </g>
</svg>
