<?xml version="1.0" encoding="UTF-8"?>
<!DOCTYPE svg PUBLIC "-//W3C//DTD SVG 1.0//EN" "http://www.w3.org/TR/2001/REC-SVG-20010904/DTD/svg10.dtd">
<!-- Creator: CorelDRAW 2018 (64 Bit Versão de avaliação) -->
<svg xmlns="http://www.w3.org/2000/svg" xml:space="preserve" width="41px" height="41px" version="1.0" shape-rendering="geometricPrecision" text-rendering="geometricPrecision" image-rendering="optimizeQuality" fill-rule="evenodd" clip-rule="evenodd"
viewBox="0 0 3.44 3.44"
 xmlns:xlink="http://www.w3.org/1999/xlink">
 <g id="Camada_x0020_1">
  <metadata id="CorelCorpID_0Corel-Layer"/>
  <g id="_2039398080320">
   <g>
    <path fill="black" d="M0.45 3.05l1.95 0 -0.07 0.05c-0.09,0.04 -0.2,0.06 -0.31,0.06l-1.19 0c-0.12,0 -0.22,-0.02 -0.31,-0.06 -0.02,-0.02 -0.05,-0.03 -0.07,-0.05zm-0.45 -0.14l0 -0.01c0,-0.02 0.01,-0.05 0.02,-0.07 0.04,-0.07 0.09,-0.06 0.16,-0.06 0.05,0 0.09,-0.01 0.15,-0.01 0.05,0 0.1,0 0.15,0 -0.01,0 -0.01,-0.01 -0.02,-0.01 -0.05,-0.08 -0.11,-0.15 -0.16,-0.23l-0.06 -0.11c-0.04,-0.08 -0.07,-0.16 -0.1,-0.25l-0.03 -0.08c-0.01,-0.03 -0.02,-0.06 -0.03,-0.1 -0.06,-0.22 -0.08,-0.43 -0.08,-0.67 0,-0.06 0.07,-0.12 0.12,-0.12l2.6 0c0.06,0 0.13,0.06 0.13,0.12l0 0.07 0.25 0c0.06,0 0.09,0.01 0.13,0.03 0.05,0.02 0.07,0.03 0.1,0.06 0.01,0.01 0.02,0.01 0.02,0.02 0.04,0.06 0.09,0.11 0.09,0.2l0 0c0,0.1 0,0.15 -0.02,0.25 -0.05,0.19 -0.2,0.42 -0.37,0.54 -0.09,0.06 -0.19,0.11 -0.3,0.14 -0.06,0.01 -0.13,0.03 -0.2,0.03 -0.11,0 -0.08,-0.02 -0.12,0.04l-0.06 0.07c0.1,0 0.2,0 0.3,0 0.06,0 0.09,0 0.13,0.03 0.08,0.07 0.06,0.16 0.01,0.23 -0.03,0.05 -0.08,0.12 -0.12,0.16 -0.01,0.01 -0.01,0.01 -0.02,0.02l-0.02 0.02c-0.01,0 -0.01,0.01 -0.02,0.02l-0.04 0.03c-0.11,0.09 -0.32,0.17 -0.46,0.17l-1.41 0c-0.17,0 -0.35,-0.08 -0.48,-0.19l-0.02 -0.01c-0.01,-0.01 -0.01,-0.02 -0.02,-0.02l-0.06 -0.06c0,-0.01 -0.01,-0.01 -0.01,-0.02 -0.02,-0.02 -0.03,-0.03 -0.06,-0.07 -0.03,-0.05 -0.07,-0.1 -0.07,-0.16zm2.63 -0.56c0.01,-0.01 0.01,-0.02 0.02,-0.04 0.03,-0.07 0.05,-0.11 0.08,-0.2 0.01,-0.02 0.02,-0.05 0.02,-0.08 0.03,-0.1 0.05,-0.21 0.07,-0.32 0,-0.01 0.01,-0.03 0.01,-0.05 0.06,0 0.25,0 0.3,0.02 0.07,0.02 -0.01,0.26 -0.03,0.29l-0.02 0.05c-0.01,0.01 -0.01,0.03 -0.02,0.04 -0.06,0.09 -0.12,0.16 -0.22,0.21 -0.01,0.01 -0.03,0.02 -0.04,0.03 -0.04,0.01 -0.13,0.05 -0.17,0.05zm-2.34 -0.88l2.27 0c0,0.11 -0.04,0.3 -0.06,0.41 -0.02,0.06 -0.04,0.12 -0.06,0.18 -0.01,0.05 -0.03,0.08 -0.05,0.13l-0.02 0.04c-0.02,0.05 -0.05,0.1 -0.08,0.15l-0.07 0.11c-0.04,0.06 -0.05,0.08 -0.1,0.13 -0.03,0.03 -0.04,0.05 -0.08,0.08l-0.05 0.04c-0.01,0.01 -0.01,0.02 -0.03,0.02l-1.07 0c-0.02,0 -0.11,-0.08 -0.13,-0.1 -0.09,-0.1 -0.15,-0.2 -0.22,-0.31 -0.06,-0.1 -0.09,-0.17 -0.13,-0.29 -0.02,-0.04 -0.05,-0.13 -0.06,-0.18 -0.02,-0.1 -0.04,-0.2 -0.05,-0.3 -0.01,-0.04 -0.01,-0.07 -0.01,-0.11z"/>
    <path fill="black" d="M0.61 0.33c0,0.02 0,0.05 0.01,0.06 0.01,0.09 0.04,0.16 0.1,0.23 0.05,0.06 0.05,0.06 0.05,0.12 0,0.04 -0.01,0.06 -0.04,0.09 -0.05,0.05 -0.05,0.15 0.01,0.2 0.07,0.06 0.13,0.05 0.19,0 0.05,-0.03 0.1,-0.12 0.11,-0.18 0.04,-0.12 0.02,-0.23 -0.04,-0.34 -0.05,-0.08 -0.16,-0.14 -0.07,-0.27 0.04,-0.05 0.05,-0.03 0.05,-0.12 0,-0.07 -0.08,-0.12 -0.14,-0.12l-0.02 0c-0.07,0 -0.12,0.08 -0.15,0.12 -0.02,0.03 -0.03,0.06 -0.04,0.09 -0.01,0.04 -0.02,0.09 -0.02,0.12z"/>
    <path fill="black" d="M1.79 0.31c0,0.08 0.01,0.14 0.04,0.21 0.01,0.02 0.02,0.04 0.04,0.06 0.03,0.04 0.07,0.08 0.08,0.12 0.02,0.08 -0.03,0.11 -0.05,0.15 -0.02,0.03 -0.03,0.06 -0.03,0.1 0,0.09 0.18,0.22 0.31,0 0.01,-0.03 0.03,-0.06 0.04,-0.1 0.04,-0.12 0.02,-0.23 -0.04,-0.34 -0.05,-0.09 -0.16,-0.14 -0.07,-0.27 0.01,-0.01 0.02,-0.02 0.03,-0.03 0.02,-0.04 0.02,-0.1 0,-0.13 0,-0.01 0,-0.02 -0.01,-0.02 0,-0.01 0,-0.01 -0.01,-0.01 -0.02,-0.03 -0.05,-0.05 -0.08,-0.05l-0.01 0c-0.05,0 -0.07,0 -0.12,0.04 -0.07,0.06 -0.12,0.19 -0.12,0.27z"/>
    <path fill="black" d="M1.2 0.32c0,0.1 0.01,0.15 0.06,0.23 0.02,0.03 0.04,0.05 0.06,0.08 0.04,0.04 0.04,0.06 0.04,0.11 0,0.09 -0.08,0.07 -0.08,0.2 0,0.02 0.01,0.04 0.02,0.05 0.02,0.04 0.07,0.08 0.12,0.08 0.05,0 0.08,-0.02 0.1,-0.04 0.07,-0.06 0.13,-0.2 0.13,-0.3 0,-0.09 -0.03,-0.16 -0.06,-0.22 -0.05,-0.08 -0.16,-0.14 -0.07,-0.27 0.01,-0.01 0.03,-0.02 0.03,-0.04 0.02,-0.02 0.02,-0.05 0.02,-0.08 0,-0.06 -0.07,-0.12 -0.13,-0.12 -0.05,0 -0.07,0 -0.12,0.04 -0.02,0.02 -0.04,0.04 -0.06,0.08 -0.03,0.04 -0.06,0.12 -0.06,0.2z"/>
   </g>
  </g>
 </g>
</svg>
