<?xml version="1.0" encoding="UTF-8"?>
<!DOCTYPE svg PUBLIC "-//W3C//DTD SVG 1.0//EN" "http://www.w3.org/TR/2001/REC-SVG-20010904/DTD/svg10.dtd">
<!-- Creator: CorelDRAW 2018 (64 Bit Versão de avaliação) -->
<svg xmlns="http://www.w3.org/2000/svg" xml:space="preserve" width="41px" height="41px" version="1.0" shape-rendering="geometricPrecision" text-rendering="geometricPrecision" image-rendering="optimizeQuality" fill-rule="evenodd" clip-rule="evenodd"
viewBox="0 0 17.12 17.17"
 xmlns:xlink="http://www.w3.org/1999/xlink">
 <g id="Camada_x0020_1">
  <metadata id="CorelCorpID_0Corel-Layer"/>
  <g id="_1913872295104">
   <g>
    <path fill="black" d="M1.22 14.25l0 -3.44c0,-0.97 1.22,-0.94 1.22,0l0 3.44c0,0.95 -1.22,0.95 -1.22,0zm6.92 -0.88c0,0.4 0.21,0.69 0.53,0.69l2.6 0c0.33,0 1.9,-0.29 2.35,-0.37l2.03 -0.33c0.16,-0.03 0.11,-0.04 0.24,0.05 -0.05,0.24 -0.37,0.28 -0.76,0.42l-2.66 0.97c-0.31,0.11 -0.56,0.21 -0.87,0.31 -0.32,0.11 -0.59,0.23 -0.9,0.33 -0.31,0.1 -0.57,0.23 -0.9,0.32 -0.51,0.15 -1.89,0.18 -2.44,0.07 -0.24,-0.05 -0.3,-0.11 -0.51,-0.18 -0.29,-0.1 -3.01,-0.82 -3.18,-0.83l0 -3.82c1.14,0 2.1,-0.12 3,0.36 0.33,0.17 0.32,0.23 0.53,0.39 0.55,0.43 0.55,0.47 1.36,0.47l1.83 0c0.45,0 1.2,-0.11 0.66,0.44 -0.13,0.13 -0.11,0.17 -0.35,0.18l-2.06 0c-0.23,0.03 -0.5,0.27 -0.5,0.53zm-8.14 -2.75l0 3.86c0,1.2 1.39,2.17 2.61,1.58l0.29 -0.14c0.04,-0.01 0.33,0.07 0.39,0.09l2.95 0.78c0.27,0.08 0.45,0.18 0.71,0.25 0.87,0.22 2.41,0.14 3.25,-0.08l5.41 -1.96c0.43,-0.15 0.67,-0.21 1,-0.45 0.92,-0.68 0.57,-2.48 -0.91,-2.48 -0.29,0 -3.08,0.49 -3.28,0.54 0,-0.65 -0.04,-0.74 -0.33,-1.13 -0.19,-0.25 -0.58,-0.48 -1.01,-0.48 -0.46,0 -2.68,0.08 -2.92,-0.06 -0.2,-0.11 -0.73,-0.8 -1.88,-1.06 -0.81,-0.19 -1.93,-0.1 -2.88,-0.1 -0.11,-0.43 -0.93,-0.92 -1.57,-0.92 -0.95,0 -1.83,0.82 -1.83,1.76z"/>
    <path fill="black" d="M4.89 4.89c0,-0.24 0.05,-0.56 0.1,-0.78 0.11,-0.55 0.39,-1.14 0.75,-1.54 0.38,-0.44 0.73,-0.75 1.29,-1 1.4,-0.63 3.04,-0.34 4.1,0.71 0.49,0.49 0.81,1.08 0.98,1.77 0.26,1.06 0.03,2.04 -0.53,2.9 -0.79,1.2 -2.36,1.84 -3.8,1.51 -0.27,-0.07 -0.46,-0.13 -0.7,-0.22 -0.36,-0.16 -0.82,-0.47 -1.09,-0.74 -0.66,-0.66 -1.1,-1.66 -1.1,-2.61zm-1.22 -0.23c0,1 0.06,1.44 0.46,2.33 0.09,0.21 0.29,0.54 0.42,0.72 0.5,0.67 1.12,1.26 1.91,1.61 1.92,0.85 4.08,0.52 5.56,-0.96 0.79,-0.79 1.43,-2.05 1.43,-3.24 0,-1.01 -0.07,-1.44 -0.46,-2.33 -0.69,-1.55 -2.49,-2.79 -4.2,-2.79 -1.01,0 -1.44,0.06 -2.33,0.46 -1.54,0.68 -2.79,2.48 -2.79,4.2z"/>
    <path fill="black" d="M7.95 2.37c-0.92,0.21 -1.6,1.89 -0.35,2.83 0.52,0.4 0.88,0.22 1.08,0.37 0.45,0.32 -0.03,1 -0.4,0.55 -0.09,-0.1 -0.08,-0.15 -0.13,-0.29 -0.29,-0.7 -1.58,-0.4 -1.11,0.69 0.16,0.38 0.5,0.8 0.91,0.89 0,0.27 -0.03,0.38 0.1,0.55 0.27,0.36 0.77,0.35 1.02,0 0.13,-0.18 0.1,-0.27 0.1,-0.55 0.16,-0.04 0.27,-0.12 0.4,-0.21 0.14,-0.1 0.21,-0.2 0.31,-0.33 0.55,-0.73 0.37,-1.74 -0.34,-2.28 -0.19,-0.14 -0.4,-0.25 -0.69,-0.3 -0.38,-0.06 -0.67,0.04 -0.67,-0.47 0,-0.36 0.56,-0.53 0.74,-0.05 0.07,0.2 0.09,0.3 0.26,0.42 0.58,0.4 1.41,-0.29 0.76,-1.22 -0.17,-0.23 -0.46,-0.53 -0.77,-0.6 0,-0.3 0.02,-0.35 -0.11,-0.55 -0.24,-0.38 -0.81,-0.32 -1.02,0 -0.12,0.18 -0.09,0.28 -0.09,0.55z"/>
   </g>
  </g>
 </g>
</svg>
