<?xml version="1.0" encoding="UTF-8"?>
<!DOCTYPE svg PUBLIC "-//W3C//DTD SVG 1.0//EN" "http://www.w3.org/TR/2001/REC-SVG-20010904/DTD/svg10.dtd">
<!-- Creator: CorelDRAW 2018 (64 Bit Versão de avaliação) -->
<svg xmlns="http://www.w3.org/2000/svg" xml:space="preserve" width="52px" height="41px" version="1.0" shape-rendering="geometricPrecision" text-rendering="geometricPrecision" image-rendering="optimizeQuality" fill-rule="evenodd" clip-rule="evenodd"
viewBox="0 0 1.34 1.05"
 xmlns:xlink="http://www.w3.org/1999/xlink">
 <g id="Camada_x0020_1">
  <metadata id="CorelCorpID_0Corel-Layer"/>
  <path fill="black" d="M0.92 0.84c0,-0.03 0.01,-0.06 0.03,-0.09 0,0 0.01,-0.01 0.01,-0.01l0.02 -0.02c0.01,-0.01 0.02,-0.02 0.04,-0.03 0.1,-0.04 0.24,0.02 0.24,0.18l0 0.1 -0.34 0 0 -0.13zm-0.42 0.01c0,-0.13 0.13,-0.2 0.24,-0.15 0.12,0.05 0.1,0.17 0.1,0.27l-0.34 0 0 -0.12zm-0.42 0.02c0,-0.22 0.25,-0.24 0.32,-0.09 0.03,0.05 0.02,0.12 0.02,0.19l-0.34 0 0 -0.1zm0.92 -0.36c0,-0.06 0.04,-0.09 0.09,-0.1 0.04,0 0.09,0.04 0.09,0.09 0,0.03 0,0.05 -0.03,0.07 -0.05,0.06 -0.15,0.02 -0.15,-0.06zm-0.75 0.09c-0.03,0 -0.05,-0.01 -0.06,-0.03 -0.07,-0.06 -0.02,-0.16 0.06,-0.16 0.12,0.01 0.12,0.19 0,0.19zm0.51 -0.1c0,0.11 -0.14,0.13 -0.17,0.05 -0.02,-0.04 -0.01,-0.08 0.01,-0.11 0.06,-0.05 0.16,-0.02 0.16,0.06zm0.21 0.13c-0.02,0.01 -0.08,0.06 -0.09,0.08l-0.02 -0.02c-0.02,-0.02 -0.04,-0.04 -0.07,-0.06 0.02,-0.03 0.05,-0.05 0.05,-0.11 0,-0.11 -0.05,-0.13 -0.06,-0.15 0.01,0 0.03,-0.01 0.04,-0.01 0.04,-0.02 0.08,-0.02 0.12,-0.01 0.01,0.01 0.03,0.02 0.04,0.02 -0.02,0.02 -0.04,0.03 -0.05,0.09 -0.02,0.05 -0.01,0.12 0.03,0.16 0,0 0.01,0 0.01,0.01zm-0.61 -0.26c0.01,0 0.07,-0.05 0.16,-0.02 0.01,0.01 0.03,0.02 0.04,0.02 -0.01,0.01 -0.01,0.01 -0.02,0.03 -0.01,0.01 -0.02,0.02 -0.02,0.03 -0.03,0.05 -0.03,0.13 0.01,0.18 0.01,0.01 0.01,0.01 0.02,0.02l-0.05 0.04 -0.04 0.04c-0.01,-0.01 -0.03,-0.03 -0.04,-0.04 -0.02,-0.02 -0.03,-0.03 -0.05,-0.04 0,-0.01 0.01,-0.01 0.02,-0.02 0.04,-0.07 0.04,-0.15 -0.01,-0.21 0,-0.01 -0.01,-0.02 -0.02,-0.03zm0.01 -0.2c0,-0.05 0.04,-0.09 0.08,-0.09 0.04,0 0.07,0.01 0.09,0.05 0.03,0.05 0,0.13 -0.09,0.13 -0.04,0 -0.08,-0.04 -0.08,-0.09zm0.51 0.09c-0.05,0 -0.09,-0.04 -0.09,-0.08 0,-0.03 0,-0.05 0.02,-0.07 0.06,-0.06 0.16,-0.02 0.16,0.06 0,0.05 -0.04,0.09 -0.09,0.09zm-0.59 -0.09c0,0.04 0.01,0.07 0.03,0.1 0.01,0.01 0.01,0.02 0.02,0.03 -0.03,0.01 -0.05,0.03 -0.05,0.04 -0.02,0 -0.09,-0.03 -0.16,0.05 -0.06,0.05 -0.07,0.15 -0.02,0.22 0.01,0.01 0.01,0.01 0.02,0.02 -0.04,0.03 -0.06,0.04 -0.09,0.08 -0.02,0.03 -0.04,0.08 -0.04,0.12l0 0.18c0,0.02 0.02,0.04 0.04,0.04l1.26 0c0.02,0 0.04,-0.02 0.04,-0.04l0 -0.17c0,-0.08 -0.04,-0.15 -0.1,-0.19 -0.01,-0.01 -0.02,-0.01 -0.03,-0.02 0.01,-0.02 0.05,-0.04 0.05,-0.13 0,-0.08 -0.08,-0.17 -0.16,-0.17 -0.06,0 -0.03,0.01 -0.06,-0.01 -0.02,-0.01 -0.02,-0.02 -0.04,-0.02 0,-0.01 0.01,-0.01 0.01,-0.02 0.06,-0.07 0.05,-0.19 -0.03,-0.25 -0.1,-0.07 -0.27,-0.01 -0.27,0.15 0,0.07 0.04,0.1 0.05,0.12 -0.01,0 -0.03,0.01 -0.04,0.02 -0.03,0.02 0,0.01 -0.06,0.01 -0.04,0 -0.01,0.02 -0.04,-0.01 -0.01,0 -0.03,-0.02 -0.04,-0.02 0,-0.02 0.05,-0.05 0.05,-0.13 0,-0.16 -0.2,-0.23 -0.3,-0.11 -0.03,0.03 -0.04,0.08 -0.04,0.11z"/>
 </g>
</svg>
