<?xml version="1.0" encoding="UTF-8"?>
<!DOCTYPE svg PUBLIC "-//W3C//DTD SVG 1.0//EN" "http://www.w3.org/TR/2001/REC-SVG-20010904/DTD/svg10.dtd">
<!-- Creator: CorelDRAW 2018 (64 Bit Versão de avaliação) -->
<svg xmlns="http://www.w3.org/2000/svg" xml:space="preserve" width="41px" height="41px" version="1.0" shape-rendering="geometricPrecision" text-rendering="geometricPrecision" image-rendering="optimizeQuality" fill-rule="evenodd" clip-rule="evenodd"
viewBox="0 0 1.93 1.93"
 xmlns:xlink="http://www.w3.org/1999/xlink">
 <g id="Camada_x0020_1">
  <metadata id="CorelCorpID_0Corel-Layer"/>
  <g id="_2751264998736">
   <g>
    <path fill="black" d="M0.79 1.53l0.35 0c0,0.02 0.01,0.04 0.01,0.05 0.01,0.04 0.03,0.16 0.03,0.18l-0.44 0 0.05 -0.23zm-0.63 -0.24l0 -1.05c0,-0.1 0.13,-0.07 0.19,-0.07 0.04,0 0.08,-0.01 0.12,-0.01l1.22 0c0.04,0 0.08,0.04 0.08,0.08l0 1.05c0,0.04 -0.04,0.07 -0.07,0.07l-1.47 0c-0.03,0 -0.07,-0.03 -0.07,-0.07zm-0.16 -1.02l0 0.99c0,0.13 0.06,0.23 0.18,0.26 0.07,0.02 0.34,0.01 0.44,0.01l-0.04 0.19c-0.01,0.05 0.02,0.04 -0.13,0.04 -0.06,0 -0.05,-0.02 -0.05,0.17l1.13 0 0 -0.15c0,-0.01 -0.01,-0.02 -0.01,-0.02l-0.17 0c0,-0.01 -0.04,-0.22 -0.05,-0.23 0.08,0 0.39,0 0.44,-0.01 0.07,-0.02 0.13,-0.06 0.16,-0.12 0.01,-0.02 0.01,-0.03 0.02,-0.04 0.01,-0.03 0.01,-0.07 0.01,-0.1l0 -0.99c0,-0.06 -0.01,-0.11 -0.04,-0.16l-0.03 -0.04c-0.06,-0.05 -0.12,-0.07 -0.2,-0.07l-1.39 0c-0.1,0 -0.15,0.02 -0.21,0.09 -0.01,0.01 -0.01,0.01 -0.02,0.02 -0.03,0.05 -0.04,0.1 -0.04,0.16z"/>
    <path fill="black" d="M0.96 1.13c-0.02,0 -0.02,-0.01 -0.04,0.01 -0.01,0.01 -0.01,0.01 -0.02,0.01 -0.01,0.02 -0.02,0.04 -0.02,0.06 0.01,0.05 0.05,0.08 0.09,0.08 0.04,-0.01 0.08,-0.05 0.07,-0.09 0,-0.05 -0.04,-0.08 -0.08,-0.07z"/>
   </g>
  </g>
 </g>
</svg>
