<?xml version="1.0" encoding="UTF-8"?>
<!DOCTYPE svg PUBLIC "-//W3C//DTD SVG 1.0//EN" "http://www.w3.org/TR/2001/REC-SVG-20010904/DTD/svg10.dtd">
<!-- Creator: CorelDRAW 2018 (64 Bit Versão de avaliação) -->
<svg xmlns="http://www.w3.org/2000/svg" xml:space="preserve" width="37px" height="41px" version="1.0" shape-rendering="geometricPrecision" text-rendering="geometricPrecision" image-rendering="optimizeQuality" fill-rule="evenodd" clip-rule="evenodd"
viewBox="0 0 0.61 0.68"
 xmlns:xlink="http://www.w3.org/1999/xlink">
 <g id="Camada_x0020_1">
  <metadata id="CorelCorpID_0Corel-Layer"/>
  <path fill="black" d="M0 0.03l0 0.62c0,0 0,0.01 0,0.01 0,0 0.01,0 0.01,0l0 0.01c0,0 0,0 0,0 0.01,0.01 0.01,0.01 0.02,0.01 0,0 0.01,0 0.01,0l0.53 0c0,0 0.01,0 0.01,0 0.01,0 0.01,0 0.02,-0.01 0,0 0,0 0.01,-0.01 0,0 0,-0.01 0,-0.01l0 -0.35c0,0 0,0 0,0 0,-0.01 0,-0.01 0,-0.01 0,-0.01 0,0 -0.01,-0.01 0,0 0,0 0,0 -0.01,-0.01 -0.01,-0.01 -0.02,-0.01 0,0 -0.02,0 -0.02,0 -0.04,0 -0.08,0 -0.12,0 -0.01,0 -0.03,0 -0.03,0 0,0 0,-0.02 0,-0.02l0 -0.21c0,-0.01 0,-0.02 -0.01,-0.03 0,0 0,0 -0.01,0 -0.01,-0.01 -0.02,-0.01 -0.02,-0.01l-0.33 0c-0.01,0 -0.01,0 -0.03,0.01 0,0 0,0.01 -0.01,0.01 0,0.01 0,0.01 0,0.01zm0.14 0.15c0,0 0,0.01 0.01,0.01 0.01,0.01 0.02,0.01 0.03,0.01 0.02,0 0.04,0 0.05,0 0.01,0 0.02,0 0.02,0 0.03,-0.01 0.02,-0.05 0,-0.06 -0.01,0 -0.02,0 -0.02,0l-0.05 0c-0.01,0 -0.02,0 -0.02,0 -0.01,0.01 -0.02,0.02 -0.02,0.04zm0.03 0.1c-0.01,0 -0.02,0.01 -0.03,0.02 0,0.01 0,0.02 0.01,0.03 0.01,0.01 0.01,0.01 0.02,0.01l0.05 0c0.01,0 0.01,0 0.02,0 0.03,0 0.04,-0.04 0.02,-0.06 -0.01,0 -0.01,0 -0.02,0 -0.02,0 -0.04,0 -0.06,0 0,0 -0.01,0 -0.01,0zm0.23 0.06c0,0 0,0 0,0 0,0 0.01,0 0.01,0l0.03 0c0.01,0 0.1,0 0.1,0l0 0.27c0,0 -0.01,0 -0.01,0l-0.12 0c0,0 -0.01,0 -0.01,0l0 -0.27zm-0.23 0.27c0,0 0,0 0,0 -0.02,0 -0.05,0 -0.08,0 0,0 -0.02,0 -0.02,0l0 -0.54 0.27 0c0,0 0,0.06 0,0.07l0 0.45c0,0.01 0,0.02 0,0.02l-0.1 0c0,0 0,0 0,-0.01 -0.01,0 0,-0.07 -0.01,-0.08 -0.02,-0.02 -0.06,-0.01 -0.06,0.03 0,0.01 0,0.02 0,0.03 0,0.01 0,0.02 0,0.03z"/>
 </g>
</svg>
