<?xml version="1.0" encoding="UTF-8"?>
<!DOCTYPE svg PUBLIC "-//W3C//DTD SVG 1.0//EN" "http://www.w3.org/TR/2001/REC-SVG-20010904/DTD/svg10.dtd">
<!-- Creator: CorelDRAW 2018 (64 Bit Versão de avaliação) -->
<svg xmlns="http://www.w3.org/2000/svg" xml:space="preserve" width="41px" height="41px" version="1.0" shape-rendering="geometricPrecision" text-rendering="geometricPrecision" image-rendering="optimizeQuality" fill-rule="evenodd" clip-rule="evenodd"
viewBox="0 0 0.75 0.75"
 xmlns:xlink="http://www.w3.org/1999/xlink">
 <g id="Camada_x0020_1">
  <metadata id="CorelCorpID_0Corel-Layer"/>
  <path fill="black" d="M0.07 0.38c0,-0.06 0.01,-0.1 0.04,-0.16 0.01,-0.01 0.03,-0.04 0.04,-0.05l0.03 -0.03c0.08,-0.07 0.2,-0.09 0.3,-0.05 0.04,0.01 0.08,0.04 0.11,0.07 0.03,0.03 0.05,0.05 0.07,0.09 0.03,0.07 0.03,0.15 0.01,0.23 -0.03,0.07 -0.08,0.13 -0.14,0.16 -0.01,0.01 -0.02,0.01 -0.02,0.02 -0.05,0.02 -0.08,0.02 -0.14,0.02 -0.02,0 -0.05,0 -0.07,0 -0.03,-0.01 -0.05,-0.02 -0.08,-0.04 -0.09,-0.05 -0.15,-0.15 -0.15,-0.26zm0.36 0.02l-0.08 -0.07 0.12 -0.04 -0.04 0.11zm-0.23 0.12c0,0.02 0.01,0.04 0.03,0.04 0.01,0 0.05,-0.02 0.06,-0.02l0.04 -0.02c0.04,-0.01 0.1,-0.02 0.13,-0.04 0.02,0 0.02,-0.02 0.03,-0.03 0.01,-0.03 0.07,-0.21 0.07,-0.22 0,-0.03 -0.03,-0.04 -0.06,-0.03l-0.21 0.07c-0.01,0 -0.02,0.01 -0.02,0.02 -0.02,0.05 -0.04,0.12 -0.05,0.17 -0.01,0.01 -0.02,0.05 -0.02,0.06zm-0.2 -0.16c0,0.09 0.01,0.14 0.05,0.21 0.06,0.1 0.19,0.18 0.31,0.18 0.07,0 0.12,0 0.18,-0.03 0.03,-0.02 0.07,-0.05 0.1,-0.08 0.07,-0.06 0.11,-0.16 0.11,-0.25 0,-0.07 0,-0.12 -0.03,-0.17 -0.04,-0.09 -0.1,-0.14 -0.18,-0.18 -0.04,-0.02 -0.1,-0.04 -0.15,-0.04 -0.07,0 -0.12,0.01 -0.17,0.03 -0.07,0.04 -0.11,0.07 -0.15,0.13 -0.04,0.05 -0.07,0.13 -0.07,0.2z"/>
 </g>
</svg>
