<?xml version="1.0" encoding="UTF-8"?>
<!DOCTYPE svg PUBLIC "-//W3C//DTD SVG 1.0//EN" "http://www.w3.org/TR/2001/REC-SVG-20010904/DTD/svg10.dtd">
<!-- Creator: CorelDRAW 2018 (64 Bit Versão de avaliação) -->
<svg xmlns="http://www.w3.org/2000/svg" xml:space="preserve" width="44px" height="41px" version="1.0" shape-rendering="geometricPrecision" text-rendering="geometricPrecision" image-rendering="optimizeQuality" fill-rule="evenodd" clip-rule="evenodd"
viewBox="0 0 19.96 18.9"
 xmlns:xlink="http://www.w3.org/1999/xlink">
 <g id="Camada_x0020_1">
  <metadata id="CorelCorpID_0Corel-Layer"/>
  <g id="_2734029279776">
   <g>
    <path fill="#292929" d="M14.59 5.41c0,1.12 0.63,1.85 1.48,2.16 0.22,0.07 0.41,0.14 0.67,0.17 0.72,0.1 1.45,-0.09 1.45,1.23 0,0.92 0.17,1.9 -0.7,2.08 -0.37,0.08 -0.88,-0.02 -1.48,0.27 -2.59,1.21 -0.82,3.64 -0.82,4.13 0,0.6 -0.98,0.99 -1.63,1.38 -1.13,0.69 -1.13,0.02 -1.61,-0.62 -0.09,-0.12 -0.21,-0.22 -0.31,-0.32 -0.99,-1 -2.34,-1.02 -3.33,-0.02 -0.83,0.82 -0.67,1.71 -1.92,0.97 -0.22,-0.13 -0.4,-0.24 -0.63,-0.37 -0.59,-0.35 -0.98,-0.42 -0.98,-1.13 0,-0.39 1.2,-1.85 0.18,-3.22 -0.52,-0.69 -1.41,-1.02 -2.33,-1.04 -0.48,-0.01 -0.85,-0.37 -0.85,-0.85l0 -1.56c0,-1.17 1.32,-0.69 2.33,-1.18 0.88,-0.43 1.29,-1.26 1.23,-2.23 -0.08,-1.06 -0.56,-1.17 -0.56,-1.89 0,-0.37 0.23,-0.49 0.45,-0.62l1.34 -0.81c0.98,-0.58 0.94,0.25 1.79,1.11 0.17,0.17 0.39,0.35 0.62,0.46 1.26,0.63 2.47,-0.06 3.16,-1.15 0.34,-0.52 0.29,-0.58 0.82,-0.58 0.19,0 1.77,0.91 1.9,1.03 0.85,0.73 -0.27,1.33 -0.27,2.6zm-7.57 -5.41l0.19 0c0.5,0.02 0.99,0.18 1.32,0.47 0.45,0.4 0.45,0.45 0.77,0.94 0.46,0.71 0.92,0.69 1.39,-0.02 0.18,-0.26 0.26,-0.43 0.48,-0.67 0.4,-0.43 1.02,-0.69 1.65,-0.72l0.22 0c0.3,0.01 0.6,0.08 0.86,0.21 0.41,0.19 1.76,1 1.99,1.17 0.78,0.59 1.38,1.6 0.95,2.9 -0.18,0.53 -0.65,1.23 -0.35,1.53 0.29,0.29 1.1,0.17 1.7,0.37 0.89,0.3 1.77,1.24 1.77,2.42l0 1.37c-0.04,1.16 -0.29,2.14 -1.65,2.72 -0.68,0.29 -1.31,0.04 -1.76,0.38 -0.65,0.5 0.92,1.49 0.27,3.28 -0.29,0.8 -0.91,1.18 -1.59,1.59 -0.71,0.42 -1.48,0.89 -2.26,0.96l-0.38 0c-0.46,-0.04 -0.93,-0.25 -1.39,-0.71 -0.3,-0.3 -0.5,-0.65 -0.74,-0.97 -0.06,-0.09 -0.2,-0.25 -0.31,-0.25 -0.88,0 -0.69,0.52 -1.34,1.18 -0.45,0.46 -0.99,0.71 -1.56,0.75l-0.31 0c-0.33,-0.02 -0.68,-0.12 -1.01,-0.3 -0.39,-0.2 -1.72,-0.95 -1.96,-1.16 -0.69,-0.58 -0.92,-1.22 -0.97,-2.1 -0.01,-0.29 0.12,-0.71 0.24,-0.98 0.22,-0.54 0.66,-1.29 -0.14,-1.45 -0.26,-0.05 -0.52,-0.03 -0.78,-0.07 -0.89,-0.14 -1.62,-0.63 -2.01,-1.4 -0.2,-0.39 -0.31,-0.82 -0.31,-1.4l0 -1.13c0.03,-0.94 0.21,-1.79 1.13,-2.4 1.38,-0.92 2.43,-0.09 2.43,-1.1 0,-0.42 -0.23,-0.59 -0.35,-0.91 -0.2,-0.48 -0.14,-0.58 -0.2,-1.03 -0.04,-0.3 0.1,-0.83 0.2,-1.04 0.34,-0.7 0.61,-0.92 1.21,-1.27 0.13,-0.09 0.27,-0.16 0.4,-0.23l1.16 -0.66c0.31,-0.17 0.68,-0.26 1.04,-0.27z"/>
    <path fill="#292929" d="M10.04 7.6c1.91,0 2.48,2.72 0.7,3.52 -0.34,0.15 -0.74,0.21 -1.16,0.12 -1.19,-0.28 -1.76,-1.6 -1.28,-2.57 0.15,-0.31 0.36,-0.56 0.66,-0.75 0.26,-0.16 0.67,-0.32 1.08,-0.32zm-3.67 1.66c0,0.8 0.17,1.54 0.57,2.14 0.17,0.25 0.41,0.55 0.64,0.73 0.1,0.08 0.14,0.13 0.24,0.21 0.17,0.13 0.36,0.25 0.58,0.35 2.89,1.38 6.18,-1.4 4.91,-4.58 -0.28,-0.7 -0.59,-1.06 -1.1,-1.51 -0.71,-0.63 -1.42,-0.74 -2.36,-0.74 -0.48,0 -1.06,0.14 -1.39,0.3 -1.18,0.6 -2.09,1.8 -2.09,3.1z"/>
   </g>
  </g>
 </g>
</svg>
