<?xml version="1.0" encoding="UTF-8"?>
<!DOCTYPE svg PUBLIC "-//W3C//DTD SVG 1.0//EN" "http://www.w3.org/TR/2001/REC-SVG-20010904/DTD/svg10.dtd">
<!-- Creator: CorelDRAW 2018 (64 Bit Versão de avaliação) -->
<svg xmlns="http://www.w3.org/2000/svg" xml:space="preserve" width="36px" height="41px" version="1.0" shape-rendering="geometricPrecision" text-rendering="geometricPrecision" image-rendering="optimizeQuality" fill-rule="evenodd" clip-rule="evenodd"
viewBox="0 0 1.01 1.16"
 xmlns:xlink="http://www.w3.org/1999/xlink">
 <g id="Camada_x0020_1">
  <metadata id="CorelCorpID_0Corel-Layer"/>
  <path fill="#292929" d="M0.92 1.03l0.02 0 0 0.05 -0.02 -0.05zm0.01 -1.03l0.02 0c0.01,0 0.03,0.01 0.04,0.02 0.01,0.01 0.02,0.02 0.02,0.04l0 0.02c0,0 0,0 -0.01,0.01 0,0.01 0,0.01 0.01,0.02l0 0.44 0 0.02c0,0.01 -0.01,0.02 -0.02,0.03 -0.01,0 -0.06,0 -0.07,0 -0.03,-0.01 -0.02,-0.04 -0.03,-0.08 -0.01,-0.01 -0.01,-0.01 -0.01,-0.02l-0.48 0c-0.01,0.01 -0.01,0.01 -0.01,0.02 -0.01,0 -0.01,0.01 -0.01,0.02 -0.01,0.04 0,0.06 -0.05,0.06 -0.03,0 -0.03,0 -0.05,-0.01l0.04 0.05c0.02,0.03 0.03,0.03 0.04,0.06 0.15,0 0.3,0 0.45,0 0.04,0 0.07,0 0.1,0.01 0.03,0 0.06,0.02 0.07,0.04 0.01,0.01 0.02,0.02 0.02,0.03 0.01,0.01 0.01,0.02 0.01,0.05l0 0.23 0 0.07c0,0 0,0.01 -0.01,0.01 0,0.02 -0.01,0.02 -0.03,0.02l-0.03 0 -0.04 0c0,0 -0.01,0 -0.01,0 -0.03,-0.01 -0.01,-0.06 -0.05,-0.12 0,-0.01 0,-0.01 -0.02,-0.01 -0.09,0 -0.63,0 -0.64,0 -0.01,0 -0.01,0.01 -0.02,0.01 0,0.01 0,0.02 -0.01,0.02 0,0.02 -0.01,0.03 -0.01,0.05 0,0.02 0,0.05 -0.03,0.05 0,0 0,0 -0.01,0l-0.07 0 0 0c-0.01,0 -0.03,-0.01 -0.03,-0.02 0,0 0,-0.01 0,-0.01l0 -0.51c0,-0.04 0,-0.08 0,-0.1l0 0c0,-0.03 0.01,-0.03 0.01,-0.04 -0.01,-0.01 -0.01,-0.02 -0.01,-0.03l0 -0.02c0,-0.02 0.01,-0.03 0.02,-0.04 0.02,-0.03 0.04,-0.04 0.08,-0.03 0.05,0 0.09,0.06 0.06,0.12 -0.01,0.02 0.01,0 0.01,0.06 0.05,0 0.07,0.02 0.09,0.04 0,-0.05 0,-0.16 0,-0.2 0,-0.04 0,-0.07 0.02,-0.09 0.01,-0.02 0.03,-0.03 0.06,-0.04 0.05,-0.01 0.14,0 0.2,0 0.06,0 0.13,0 0.2,0 0,-0.02 0.03,-0.04 0.04,-0.06 0.03,-0.03 0.05,-0.06 0.09,-0.06 0,-0.01 0.01,-0.02 0.01,-0.03 0,-0.01 0,-0.01 0,-0.02 -0.01,-0.05 0.02,-0.08 0.05,-0.08zm-0.86 1.08l0 -0.05 0.02 0 -0.02 0.05zm0 -0.26l0.22 0c0,0.03 0,0.06 0.02,0.08 0.01,0.01 0.03,0.03 0.05,0.03l0.58 0 0 0.02 -0.87 0 0 -0.13zm0.3 -0.05l0.48 0c0.03,0 0.09,0.01 0.09,0.05l0 0.03 -0.57 0 0 -0.08zm-0.3 -0.24l0.02 0c0,0.02 0.01,0.03 0.01,0.05l0 0.17 -0.03 0 0 -0.22zm0.1 0.09c0,0 0,-0.01 0,-0.01 0.02,0 0.03,0.01 0.04,0.02l0.06 0.07c0.02,0.02 0.02,0.02 0.02,0.05 -0.03,0 -0.04,-0.01 -0.06,-0.03l-0.04 -0.05c-0.01,-0.02 -0.02,-0.02 -0.02,-0.05zm0.11 -0.03l0 0zm0.04 -0.09l0 0c0,0 0,0 0,0zm-0.25 -0.06c0,-0.01 0.03,-0.02 0.03,0 0,0.02 -0.03,0.02 -0.03,0zm0.25 -0.01l0 -0.01 0.41 0c0.05,0 0.07,-0.02 0.07,-0.07l0.15 0 0 0.09 -0.62 0c-0.01,0 -0.01,0 -0.01,-0.01zm0 -0.08c0,-0.02 0.01,-0.02 0.02,-0.03 0.01,-0.01 0.03,-0.01 0.04,-0.01l0.35 0 0 0.05c-0.01,0 -0.01,0 -0.02,0 -0.03,0 -0.33,0 -0.39,0l0 -0.01zm0.48 -0.07c0,0 -0.01,-0.01 0,-0.02l0.03 -0.03c0.01,-0.01 0.02,-0.03 0.05,-0.03 -0.01,0.01 -0.01,0.02 -0.02,0.03l-0.04 0.04c0,0 0,0 0,0l0 0c-0.01,0.01 -0.01,0.01 -0.02,0.01zm0.14 -0.15l0.01 0 0 0.15 -0.01 0 0 -0.05c0,-0.02 -0.01,-0.04 0,-0.07 0,-0.01 0,0 0,-0.01 0,-0.01 0,-0.01 0,-0.02zm0 -0.06l0 -0.01c0.01,0 0,0 0.01,0 -0.01,0.01 0,0.01 -0.01,0.01z"/>
 </g>
</svg>
