<?xml version="1.0" encoding="UTF-8"?>
<!DOCTYPE svg PUBLIC "-//W3C//DTD SVG 1.0//EN" "http://www.w3.org/TR/2001/REC-SVG-20010904/DTD/svg10.dtd">
<!-- Creator: CorelDRAW 2018 (64 Bit Versão de avaliação) -->
<svg xmlns="http://www.w3.org/2000/svg" xml:space="preserve" width="41px" height="41px" version="1.0" shape-rendering="geometricPrecision" text-rendering="geometricPrecision" image-rendering="optimizeQuality" fill-rule="evenodd" clip-rule="evenodd"
viewBox="0 0 5.79 5.79"
 xmlns:xlink="http://www.w3.org/1999/xlink">
 <g id="Camada_x0020_1">
  <metadata id="CorelCorpID_0Corel-Layer"/>
  <g id="_2890067745344">
   <g>
    <path fill="black" d="M1.79 1.14l-0.08 0 0 0.66c0,0.11 -0.07,0.18 -0.12,0.24 -0.23,0.23 -0.67,0.08 -0.67,-0.29 0,-0.15 0.1,-0.29 0.21,-0.35 0.08,-0.04 0.1,-0.04 0.19,-0.04 0,-0.19 -0.03,-0.46 0.05,-0.55 0.08,-0.08 0.29,-0.06 0.44,-0.06 0.22,0 0.25,0.39 -0.02,0.39zm-1.79 -0.32l0 1.19c0,0.28 0.07,0.45 0.22,0.59l0.02 0.03c0.07,0.06 0.09,0.08 0.18,0.12 0.08,0.04 0.2,0.08 0.31,0.08l1.36 0c0.41,0 0.74,-0.33 0.74,-0.74l0 -1.36c0,-0.19 -0.09,-0.37 -0.21,-0.5 -0.01,0 -0.01,-0.01 -0.01,-0.01l-0.02 -0.02c-0.14,-0.13 -0.3,-0.2 -0.58,-0.2l-1.19 0c-0.5,0 -0.82,0.32 -0.82,0.82z"/>
    <path fill="black" d="M4.93 2.01l-1.11 0c-0.25,0 -0.25,-0.39 0.02,-0.39l1.07 0c0.26,0 0.24,0.39 0.02,0.39zm-0.4 -0.8l-0.71 0c-0.25,0 -0.25,-0.39 0.02,-0.39l0.66 0c0.27,0 0.25,0.39 0.03,0.39zm-1.57 -0.47l0 1.35c0,0.41 0.33,0.74 0.74,0.74l1.36 0c0.14,0 0.31,-0.07 0.42,-0.14l0.09 -0.09c0.14,-0.14 0.22,-0.31 0.22,-0.59l0 -1.17c0,-0.51 -0.3,-0.84 -0.82,-0.84l-1.2 0c-0.35,0 -0.6,0.15 -0.74,0.43 -0.04,0.08 -0.07,0.19 -0.07,0.31z"/>
    <path fill="black" d="M3.98 5.11c-0.1,0 -0.21,-0.08 -0.21,-0.18l0 -1.11c0,-0.11 0.1,-0.18 0.19,-0.18 0.08,0 0.12,0.03 0.17,0.06 0.05,0.03 0.1,0.05 0.15,0.08 0.12,0.08 0.74,0.4 0.8,0.49 0.11,0.19 -0.11,0.29 -0.19,0.34l-0.3 0.17c-0.1,0.06 -0.19,0.11 -0.3,0.17 -0.05,0.03 -0.26,0.16 -0.31,0.16zm-1.02 -1.41l0 1.34c0,0.16 0.06,0.33 0.14,0.44l0.08 0.09c0.15,0.14 0.32,0.22 0.59,0.22l1.2 0c0.52,0 0.82,-0.33 0.82,-0.85l0 -1.17c0,-0.28 -0.09,-0.47 -0.25,-0.62 -0.13,-0.12 -0.3,-0.19 -0.5,-0.19l-1.34 0c-0.41,0 -0.74,0.33 -0.74,0.74z"/>
    <path fill="black" d="M0.43 3.62c0,-0.06 0.06,-0.13 0.09,-0.16 0.05,-0.05 0.11,-0.09 0.2,-0.09l1.41 0c0.11,0 0.21,0.09 0.25,0.17 0.05,0.1 0.04,0.26 0.04,0.4 0,0.29 0,0.58 0,0.87 -0.07,-0.05 -0.2,-0.19 -0.26,-0.25 -0.08,-0.09 -0.16,-0.19 -0.29,-0.22 -0.16,-0.03 -0.26,0.05 -0.36,0.11 -0.07,0.04 -0.26,0.17 -0.33,0.18 -0.01,-0.05 -0.49,-0.64 -0.57,-0.75 -0.03,-0.04 -0.18,-0.22 -0.18,-0.26zm-0.43 0.15l0 1.2c0,0.5 0.32,0.82 0.82,0.82l1.19 0c0.28,0 0.45,-0.08 0.59,-0.22l0.03 -0.02c0.11,-0.13 0.2,-0.31 0.2,-0.49l0 -1.36c0,-0.41 -0.33,-0.74 -0.74,-0.74l-1.35 0c-0.21,0 -0.4,0.09 -0.54,0.24 -0.13,0.14 -0.2,0.3 -0.2,0.57z"/>
    <path fill="black" d="M1.81 4.1c0.29,0 0.28,-0.4 0,-0.4 -0.26,0 -0.26,0.4 0,0.4z"/>
   </g>
  </g>
 </g>
</svg>
