<?xml version="1.0" encoding="UTF-8"?>
<!DOCTYPE svg PUBLIC "-//W3C//DTD SVG 1.0//EN" "http://www.w3.org/TR/2001/REC-SVG-20010904/DTD/svg10.dtd">
<!-- Creator: CorelDRAW 2018 (64 Bit Versão de avaliação) -->
<svg xmlns="http://www.w3.org/2000/svg" xml:space="preserve" width="26px" height="41px" version="1.0" shape-rendering="geometricPrecision" text-rendering="geometricPrecision" image-rendering="optimizeQuality" fill-rule="evenodd" clip-rule="evenodd"
viewBox="0 0 0.65 1.01"
 xmlns:xlink="http://www.w3.org/1999/xlink">
 <g id="Camada_x0020_1">
  <metadata id="CorelCorpID_0Corel-Layer"/>
  <path fill="black" d="M0.1 0.91l0 -0.8c0,-0.02 0.04,-0.02 0.05,-0.02 0,0.04 0,0.08 0.06,0.08l0.23 0c0.06,0 0.05,-0.04 0.05,-0.08 0.02,0 0.06,0 0.06,0.02l0 0.8c0,0.01 -0.02,0.01 -0.03,0.01l-0.39 0c-0.02,0 -0.03,0 -0.03,-0.01zm-0.1 -0.81l0 0.82c0,0.02 0.02,0.05 0.03,0.06 0.01,0.01 0.04,0.03 0.06,0.03l0.47 0c0.03,0 0.09,-0.05 0.09,-0.09l0 -0.83c0,-0.04 -0.06,-0.09 -0.09,-0.09l-0.47 0c-0.04,0 -0.09,0.05 -0.09,0.1z"/>
 </g>
</svg>
