<?xml version="1.0" encoding="UTF-8"?>
<!DOCTYPE svg PUBLIC "-//W3C//DTD SVG 1.0//EN" "http://www.w3.org/TR/2001/REC-SVG-20010904/DTD/svg10.dtd">
<!-- Creator: CorelDRAW 2018 (64 Bit Versão de avaliação) -->
<svg xmlns="http://www.w3.org/2000/svg" xml:space="preserve" width="34px" height="41px" version="1.0" shape-rendering="geometricPrecision" text-rendering="geometricPrecision" image-rendering="optimizeQuality" fill-rule="evenodd" clip-rule="evenodd"
viewBox="0 0 0.7 0.84"
 xmlns:xlink="http://www.w3.org/1999/xlink">
 <g id="Camada_x0020_1">
  <metadata id="CorelCorpID_0Corel-Layer"/>
  <g id="_2069366432992">
   <g>
    <path fill="black" d="M0.23 0.56c0,-0.04 0.01,-0.06 0.03,-0.08 0.02,-0.02 0.05,-0.04 0.08,-0.04l0.09 0c0.06,0 0.11,0.05 0.11,0.11l0 0.04 -0.31 0 0 -0.03zm0.06 -0.25c0,-0.03 0.01,-0.05 0.03,-0.07 0.05,-0.06 0.17,-0.03 0.17,0.07 0,0.08 -0.11,0.13 -0.17,0.07 -0.02,-0.02 -0.03,-0.05 -0.03,-0.07zm-0.25 -0.21l0 0.06 0.06 0c0.03,0 0.05,0.02 0.05,0.05 0,0.02 0,0.03 -0.01,0.05 -0.01,0 -0.02,0.01 -0.04,0.01l-0.06 0 0 0.09c0.02,0 0.06,0 0.08,0.01 0.01,0 0.01,0 0.02,0.01l0 0c0,0 0,0 0,0l0.01 0.01c0.02,0.05 -0.01,0.09 -0.05,0.09l-0.06 0 0 0.09 0.06 0c0.02,0 0.03,0.01 0.04,0.01l0 0.01c0.02,0.02 0.02,0.06 0,0.08 -0.01,0.01 -0.02,0.01 -0.04,0.01l-0.06 0c0,0.06 -0.01,0.09 0.03,0.13 0.01,0.01 0.04,0.03 0.07,0.03l0.46 0c0.03,0 0.07,-0.02 0.08,-0.04 0.01,-0.01 0.01,-0.02 0.01,-0.02 0.01,-0.01 0.01,-0.03 0.01,-0.04l0 -0.63c0,-0.02 0,-0.03 -0.01,-0.05 0,-0.01 -0.02,-0.03 -0.03,-0.04 -0.02,-0.01 -0.04,-0.02 -0.06,-0.02l-0.46 0c-0.03,0 -0.06,0.02 -0.07,0.03 -0.01,0.01 -0.03,0.04 -0.03,0.07z"/>
    <path fill="black" d="M0 0.42c0,0.02 0.02,0.03 0.03,0.03l0.07 0c0.02,0 0.03,-0.01 0.03,-0.02 0,-0.02 0,-0.02 -0.01,-0.03 -0.01,-0.01 -0.01,-0.01 -0.02,-0.01l-0.07 0c-0.01,0 -0.03,0.01 -0.03,0.03z"/>
    <path fill="black" d="M0 0.63c0,0.01 0.01,0.03 0.03,0.03l0.07 0c0.02,0 0.03,-0.02 0.03,-0.03 0,-0.01 0,-0.02 -0.01,-0.03 -0.01,0 -0.01,-0.01 -0.02,-0.01l-0.07 0c-0.01,0 -0.03,0.02 -0.03,0.04z"/>
    <path fill="black" d="M0 0.21c0,0.02 0.02,0.04 0.03,0.04l0.07 0c0.02,0 0.03,-0.02 0.03,-0.03 0,-0.01 0,-0.02 -0.01,-0.03 -0.01,-0.01 -0.01,-0.01 -0.02,-0.01l-0.07 0c-0.01,0 -0.01,0 -0.02,0.01 0,0 -0.01,0.01 -0.01,0.02z"/>
   </g>
  </g>
 </g>
</svg>
