<?xml version="1.0" encoding="UTF-8"?>
<!DOCTYPE svg PUBLIC "-//W3C//DTD SVG 1.0//EN" "http://www.w3.org/TR/2001/REC-SVG-20010904/DTD/svg10.dtd">
<!-- Creator: CorelDRAW 2018 (64 Bit Versão de avaliação) -->
<svg xmlns="http://www.w3.org/2000/svg" xml:space="preserve" width="41px" height="41px" version="1.0" shape-rendering="geometricPrecision" text-rendering="geometricPrecision" image-rendering="optimizeQuality" fill-rule="evenodd" clip-rule="evenodd"
viewBox="0 0 1.56 1.56"
 xmlns:xlink="http://www.w3.org/1999/xlink">
 <g id="Camada_x0020_1">
  <metadata id="CorelCorpID_0Corel-Layer"/>
  <path fill="#292929" d="M0.26 0.46c0.03,-0.01 0.08,0 0.12,0l0.6 0c0.04,0 0.06,0.01 0.08,0.03 0.06,0.05 0.05,0.11 0.05,0.2l0 0.6c0,0.07 -0.05,0.12 -0.12,0.13 -0.03,0 -0.08,0 -0.12,0l-0.6 0c-0.04,0 -0.06,-0.01 -0.09,-0.03 -0.02,-0.02 -0.04,-0.04 -0.04,-0.08 0,-0.08 0,-0.17 0,-0.25l0 -0.48c0,-0.07 0.04,-0.12 0.12,-0.12zm0.2 -0.14c0,-0.06 -0.01,-0.09 0.02,-0.13 0.02,-0.02 0.05,-0.05 0.1,-0.05l0.58 0c0.05,0 0.11,0 0.15,0 0.04,0 0.08,0.04 0.09,0.06 0.03,0.04 0.02,0.08 0.02,0.13l0 0.73c0,0.03 0,0.04 -0.02,0.06 -0.04,0.07 -0.09,0.06 -0.16,0.06 0,-0.14 0,-0.27 0,-0.41 0,-0.07 0.01,-0.14 0,-0.21 0,-0.06 -0.03,-0.11 -0.05,-0.15 -0.1,-0.11 -0.19,-0.09 -0.32,-0.09 -0.04,0 -0.38,0 -0.41,0zm0.78 1c0.1,0 0.16,0 0.23,-0.06 0.01,-0.01 0.01,-0.01 0.02,-0.02 0,0 0,0 0.01,-0.01 0.04,-0.05 0.06,-0.11 0.06,-0.19 0,-0.06 0,-0.13 0,-0.2 0,-0.13 0,-0.26 0,-0.4 0,-0.13 0.02,-0.25 -0.06,-0.34 -0.03,-0.03 -0.06,-0.06 -0.11,-0.08 -0.06,-0.02 -0.12,-0.02 -0.19,-0.02l-0.6 0c-0.12,0 -0.2,0.05 -0.25,0.15 -0.04,0.05 -0.03,0.1 -0.03,0.17 -0.06,0 -0.12,0 -0.17,0.02 -0.17,0.09 -0.15,0.25 -0.15,0.42 0,0.13 0,0.25 0,0.38 0,0.13 -0.01,0.23 0.06,0.32 0.02,0.02 0.01,0.01 0.02,0.02 0.01,0.01 0.02,0.02 0.03,0.03 0.07,0.05 0.14,0.05 0.23,0.05 0.19,0 0.38,0 0.57,0 0.06,0 0.11,0 0.17,-0.02 0.08,-0.03 0.16,-0.13 0.16,-0.22z"/>
 </g>
</svg>
