<?xml version="1.0" encoding="UTF-8"?>
<!DOCTYPE svg PUBLIC "-//W3C//DTD SVG 1.0//EN" "http://www.w3.org/TR/2001/REC-SVG-20010904/DTD/svg10.dtd">
<!-- Creator: CorelDRAW 2018 (64 Bit Versão de avaliação) -->
<svg xmlns="http://www.w3.org/2000/svg" xml:space="preserve" width="41px" height="41px" version="1.0" shape-rendering="geometricPrecision" text-rendering="geometricPrecision" image-rendering="optimizeQuality" fill-rule="evenodd" clip-rule="evenodd"
viewBox="0 0 1.92 1.92"
 xmlns:xlink="http://www.w3.org/1999/xlink">
 <g id="Camada_x0020_1">
  <metadata id="CorelCorpID_0Corel-Layer"/>
  <g id="_2303597169552">
   <g>
    <path fill="black" d="M0.78 0.68l0.8 0c0.09,0 0.09,0.12 0,0.12l-0.8 0c-0.09,0 -0.09,-0.12 0,-0.12zm0.98 1.24l-0.9 0c0.01,0 0.08,-0.05 0.12,-0.11l0.05 -0.07c0.03,-0.04 0.05,-0.08 0.06,-0.12 0.01,-0.04 0.03,-0.11 0.03,-0.15l0.46 0c0.09,0 0.09,-0.11 0,-0.11l-0.46 0c0,-0.05 -0.02,-0.13 -0.04,-0.18 -0.01,-0.01 -0.02,-0.03 -0.02,-0.05l0.52 0c0.1,0 0.09,-0.11 0,-0.11l-0.6 0c-0.01,-0.02 -0.08,-0.08 -0.1,-0.09 -0.04,-0.04 -0.06,-0.05 -0.11,-0.08 -0.04,-0.02 -0.1,-0.03 -0.15,-0.04 -0.05,-0.01 -0.05,-0.01 -0.08,-0.01 -0.07,-0.01 -0.05,0 -0.09,0l0 -0.64c0,-0.09 0.08,-0.16 0.16,-0.16l0.82 0 0 0.42c0,0.04 0.02,0.07 0.06,0.07l0.43 0 0 1.27c0,0.03 -0.01,0.05 -0.02,0.07 -0.01,0.02 -0.02,0.03 -0.03,0.04 -0.03,0.03 -0.06,0.05 -0.1,0.05 0,0 -0.01,0 -0.01,0z"/>
    <path fill="black" d="M0.47 1.36l0.06 0c0.07,0 0.13,0.05 0.13,0.13 0,0.07 0,0.14 -0.1,0.17 0,0.09 -0.07,0.09 -0.1,0.05 -0.01,-0.01 -0.01,-0.03 -0.01,-0.05 -0.03,-0.01 -0.04,-0.02 -0.06,-0.04 -0.04,-0.04 -0.05,-0.13 0.03,-0.13 0.03,0 0.05,0.03 0.05,0.06l0.07 0 0 -0.08 -0.06 0c-0.07,0 -0.12,-0.05 -0.12,-0.13 0,-0.07 0,-0.14 0.09,-0.16 0,-0.1 0.07,-0.09 0.1,-0.06 0.01,0.01 0.01,0.03 0.01,0.06 0.02,0 0.04,0.01 0.05,0.02 0,0 0.01,0.01 0.01,0.01l0.01 0c0.01,0.01 0.01,0.02 0.02,0.04 0.04,0.11 -0.1,0.13 -0.11,0.03l-0.07 0 0 0.08zm0.07 0.56l-0.07 0c-0.06,0 -0.12,-0.02 -0.18,-0.05 -0.04,-0.02 -0.07,-0.03 -0.11,-0.07 -0.05,-0.04 -0.03,-0.02 -0.06,-0.06 -0.03,-0.02 -0.05,-0.07 -0.07,-0.11 -0.04,-0.08 -0.05,-0.14 -0.05,-0.24 0,-0.08 0.04,-0.18 0.07,-0.23 0.04,-0.06 0.08,-0.12 0.14,-0.16 0.16,-0.1 0.35,-0.13 0.51,-0.04 0.02,0 0.03,0.01 0.04,0.02 0.02,0.01 0.03,0.01 0.04,0.02 0.05,0.04 0.06,0.05 0.09,0.09l0.05 0.07c0.1,0.15 0.1,0.36 0,0.51 -0.01,0.03 -0.05,0.08 -0.07,0.11l-0.07 0.05c-0.08,0.05 -0.17,0.09 -0.26,0.09z"/>
    <polygon fill="black" points="1.54,0.38 1.88,0.38 1.54,0.03 "/>
   </g>
  </g>
 </g>
</svg>
