<?xml version="1.0" encoding="UTF-8"?>
<!DOCTYPE svg PUBLIC "-//W3C//DTD SVG 1.0//EN" "http://www.w3.org/TR/2001/REC-SVG-20010904/DTD/svg10.dtd">
<!-- Creator: CorelDRAW 2018 (64 Bit Versão de avaliação) -->
<svg xmlns="http://www.w3.org/2000/svg" xml:space="preserve" width="36px" height="41px" version="1.0" shape-rendering="geometricPrecision" text-rendering="geometricPrecision" image-rendering="optimizeQuality" fill-rule="evenodd" clip-rule="evenodd"
viewBox="0 0 1.93 2.19"
 xmlns:xlink="http://www.w3.org/1999/xlink">
 <g id="Camada_x0020_1">
  <metadata id="CorelCorpID_0Corel-Layer"/>
  <path fill="#292929" d="M0.98 2.01c-0.08,0 -0.12,-0.01 -0.2,-0.01 -0.08,0 -0.13,-0.02 -0.2,-0.02l0 -0.52 0.78 0 0 0.49c0,0.04 -0.14,0.04 -0.17,0.05l-0.21 0.01zm-0.8 -0.85l0 -0.26 1.57 0c0,0.11 0.02,0.29 -0.03,0.34 -0.02,0.01 -0.05,0.04 -0.09,0.04l-1.32 0c-0.07,0 -0.13,-0.05 -0.13,-0.12zm0.58 -0.97l0.02 0 0 0.52 -0.02 0 0 -0.52zm-0.58 0.46c0,-0.23 0.21,-0.44 0.39,-0.45l0 0.51 -0.39 0 0 -0.06zm-0.18 -0.05l0 0.6c0,0.12 0.14,0.26 0.27,0.26l0.12 0 0 0.47c-0.12,-0.01 -0.22,-0.11 -0.29,-0.08 -0.05,0.02 -0.08,0.08 -0.05,0.13 0.09,0.13 0.61,0.21 0.81,0.21 0.35,0 0.65,-0.01 0.96,-0.16 0.06,-0.03 0.06,-0.04 0.06,-0.11 0,-0.04 -0.02,-0.06 -0.05,-0.07 -0.04,-0.01 -0.06,0 -0.1,0.01 -0.04,0.02 -0.14,0.07 -0.19,0.07l0 -0.47c0.12,0 0.2,0.01 0.3,-0.08 0.03,-0.03 0.09,-0.11 0.09,-0.18l0 -0.42c0,-0.03 -0.05,-0.07 -0.08,-0.07l-0.89 0 0 -0.63c0,-0.03 -0.03,-0.08 -0.06,-0.08 -0.28,0 -0.49,-0.03 -0.7,0.19 -0.09,0.08 -0.2,0.25 -0.2,0.41z"/>
 </g>
</svg>
