<?xml version="1.0" encoding="UTF-8"?>
<!DOCTYPE svg PUBLIC "-//W3C//DTD SVG 1.0//EN" "http://www.w3.org/TR/2001/REC-SVG-20010904/DTD/svg10.dtd">
<!-- Creator: CorelDRAW 2018 (64 Bit Versão de avaliação) -->
<svg xmlns="http://www.w3.org/2000/svg" xml:space="preserve" width="34px" height="41px" version="1.0" shape-rendering="geometricPrecision" text-rendering="geometricPrecision" image-rendering="optimizeQuality" fill-rule="evenodd" clip-rule="evenodd"
viewBox="0 0 0.56 0.68"
 xmlns:xlink="http://www.w3.org/1999/xlink">
 <g id="Camada_x0020_1">
  <metadata id="CorelCorpID_0Corel-Layer"/>
  <g id="_2751296201152">
   <g>
    <path fill="#292929" d="M0.05 0.6l0 -0.52c0,-0.02 0.01,-0.03 0.03,-0.03l0.4 0c0.01,0 0.03,0.01 0.03,0.03l0 0.52c0,0.01 -0.01,0.02 -0.02,0.03 0,0 -0.01,0 -0.01,0l-0.4 0c-0.01,0 -0.01,0 -0.01,0 -0.01,0 -0.01,-0.01 -0.01,-0.01 -0.01,0 -0.01,-0.01 -0.01,-0.02zm-0.05 -0.52l0 0.52c0,0.01 0,0.03 0.01,0.03 0.01,0.02 0.02,0.03 0.04,0.04 0,0.01 0.01,0.01 0.03,0.01l0.4 0c0.02,0 0.04,-0.01 0.05,-0.02 0,-0.01 0,-0.01 0.01,-0.01 0,-0.01 0,-0.01 0.01,-0.02 0,0 0.01,-0.02 0.01,-0.03l0 -0.52c0,-0.01 -0.01,-0.03 -0.02,-0.04 -0.01,-0.01 -0.01,-0.01 -0.01,-0.02 0,0 -0.01,0 -0.01,0 0,-0.01 -0.01,-0.01 -0.01,-0.01 0,0 0,0 0,0 -0.01,0 -0.01,0 -0.01,0 0,-0.01 -0.01,-0.01 -0.02,-0.01l-0.4 0c-0.02,0 -0.04,0.01 -0.05,0.02 0,0 0,0 -0.01,0 0,0.01 0,0.01 0,0.01 -0.01,0.01 -0.02,0.03 -0.02,0.05z"/>
    <path fill="#292929" d="M0.36 0.34l-0.18 0c0,-0.01 0.01,-0.01 0.01,-0.01 0.03,-0.05 0.09,-0.06 0.14,-0.03 0.01,0.01 0.02,0.01 0.02,0.02 0.01,0.01 0.01,0.01 0.01,0.02zm-0.13 -0.14c0,-0.02 0.01,-0.03 0.02,-0.03 0.02,-0.03 0.06,-0.01 0.06,0.02 0,0.01 0,0.02 -0.01,0.03 -0.01,0.01 -0.01,0.01 -0.03,0.01 -0.01,0 -0.02,0 -0.02,-0.01 -0.01,0 -0.02,-0.01 -0.02,-0.02zm-0.04 -0.01c0,0.02 0,0.03 0.01,0.05 0,0 0,0 0,0 0,0 0,0.01 0,0.01 0,0 -0.01,0 -0.01,0.01 -0.01,0 -0.02,0.01 -0.03,0.02 -0.02,0.02 -0.05,0.08 -0.03,0.1 0.01,0 0.01,0.01 0.02,0.01l0.25 0c0.01,0 0.01,-0.01 0.02,-0.01 0,-0.01 0,-0.01 0,-0.02 0,-0.01 0,-0.03 -0.01,-0.04 0,-0.01 -0.01,-0.02 -0.01,-0.03 -0.02,-0.01 -0.03,-0.02 -0.04,-0.03 -0.01,-0.01 -0.01,-0.01 -0.02,-0.01 0,-0.01 0.01,-0.01 0.01,-0.01 0,-0.01 0,-0.01 0.01,-0.02 0,-0.02 0,-0.04 -0.01,-0.06 0,-0.01 0,-0.01 0,-0.02 0,0 -0.01,0 -0.01,0 0,0 0,-0.01 0,-0.01 -0.01,0 -0.02,-0.01 -0.02,-0.02 -0.02,-0.01 -0.03,-0.01 -0.05,-0.01 -0.02,0 -0.04,0.01 -0.06,0.03 -0.01,0.01 -0.02,0.04 -0.02,0.06z"/>
    <path fill="#292929" d="M0.08 0.55c0,0.02 0.01,0.03 0.03,0.03l0.34 0c0.03,0 0.03,-0.05 0,-0.05l-0.34 0c-0.01,0 -0.03,0.01 -0.03,0.02z"/>
    <path fill="#292929" d="M0.08 0.47c0,0.02 0.02,0.02 0.04,0.02l0.32 0c0.01,0 0.02,0 0.02,0 0.02,-0.02 0.01,-0.05 -0.01,-0.05l-0.34 0c-0.02,0 -0.03,0.01 -0.03,0.03z"/>
   </g>
  </g>
 </g>
</svg>
