<?xml version="1.0" encoding="UTF-8"?>
<!DOCTYPE svg PUBLIC "-//W3C//DTD SVG 1.0//EN" "http://www.w3.org/TR/2001/REC-SVG-20010904/DTD/svg10.dtd">
<!-- Creator: CorelDRAW 2018 (64 Bit Versão de avaliação) -->
<svg xmlns="http://www.w3.org/2000/svg" xml:space="preserve" width="32px" height="41px" version="1.0" shape-rendering="geometricPrecision" text-rendering="geometricPrecision" image-rendering="optimizeQuality" fill-rule="evenodd" clip-rule="evenodd"
viewBox="0 0 0.51 0.64"
 xmlns:xlink="http://www.w3.org/1999/xlink">
 <g id="Camada_x0020_1">
  <metadata id="CorelCorpID_0Corel-Layer"/>
  <path fill="#292929" d="M0.07 0.22c0.01,0 0.02,0 0.03,-0.01 0.01,0 0.02,0 0.03,-0.01 0.1,-0.03 0.14,0.01 0.24,0.04 0.01,0.01 0.02,0.01 0.03,0.01 0.01,0 0.02,0.01 0.03,0.01 0,0.03 -0.01,0.06 -0.01,0.08l-0.02 0.25 -0.29 0c0,-0.02 0,-0.03 -0.01,-0.05 0,-0.01 0,-0.03 0,-0.04l-0.03 -0.28zm0.12 0.31c0,-0.02 -0.02,-0.24 -0.02,-0.26 -0.01,-0.03 -0.06,-0.02 -0.06,0.01l0.02 0.19c0,0.02 0,0.04 0.01,0.06 0,0.03 0.05,0.03 0.05,0zm-0.13 -0.48l0.39 0c0,0.06 -0.01,0.11 -0.01,0.16l-0.18 -0.07c-0.11,-0.02 -0.15,0.02 -0.19,0.03 0,-0.02 -0.01,-0.04 -0.01,-0.06l0 -0.06zm-0.06 -0.03c0,0.04 0.01,0.12 0.01,0.16 0.01,0.03 0.01,0.06 0.01,0.09l0.03 0.32c0,0.01 0,0.03 0.01,0.04 0.01,0.01 0.02,0.01 0.03,0.01l0.33 0c0.04,0 0.03,-0.03 0.03,-0.05 0.01,-0.07 0.02,-0.18 0.03,-0.24 0,-0.01 0,-0.03 0,-0.04l0.02 -0.16c0,-0.03 0.01,-0.09 0.01,-0.13 0,-0.01 -0.02,-0.02 -0.03,-0.02l-0.45 0c-0.01,0 -0.02,0 -0.02,0.01 0,0 -0.01,0.01 -0.01,0.01z"/>
 </g>
</svg>
