<?xml version="1.0" encoding="UTF-8"?>
<!DOCTYPE svg PUBLIC "-//W3C//DTD SVG 1.0//EN" "http://www.w3.org/TR/2001/REC-SVG-20010904/DTD/svg10.dtd">
<!-- Creator: CorelDRAW 2018 (64 Bit Versão de avaliação) -->
<svg xmlns="http://www.w3.org/2000/svg" xml:space="preserve" width="34px" height="41px" version="1.0" shape-rendering="geometricPrecision" text-rendering="geometricPrecision" image-rendering="optimizeQuality" fill-rule="evenodd" clip-rule="evenodd"
viewBox="0 0 0.51 0.63"
 xmlns:xlink="http://www.w3.org/1999/xlink">
 <g id="Camada_x0020_1">
  <metadata id="CorelCorpID_0Corel-Layer"/>
  <g id="_2289713845152">
   <g>
    <path fill="#292929" d="M0.38 0.58c-0.03,0 -0.02,-0.05 -0.02,-0.09 0,-0.03 0.01,-0.18 0,-0.2 -0.01,-0.02 -0.01,-0.01 -0.03,-0.02 -0.01,0 -0.03,-0.01 -0.03,-0.03l0 -0.19 0.02 0 0 0.15c0,0.02 0.05,0.03 0.05,-0.01l0 -0.14 0.02 0 0 0.14c0,0.04 0.05,0.04 0.05,0l0 -0.14 0.02 0 0 0.18c0,0.05 -0.04,0.03 -0.05,0.05 -0.01,0.02 -0.01,0.18 -0.01,0.21 0,0.04 0.01,0.09 -0.02,0.09zm-0.13 -0.53l0 0.19c0,0.03 0.03,0.07 0.06,0.08 0,0.06 0,0.12 0,0.18 0,0.04 0,0.07 0.01,0.09 0.02,0.04 0.09,0.06 0.12,0 0.02,-0.02 0.01,-0.05 0.01,-0.08 0,-0.07 0,-0.13 0,-0.19 0.03,-0.01 0.06,-0.04 0.06,-0.08l0 -0.2c0,-0.02 -0.03,-0.04 -0.05,-0.04l-0.16 0c-0.02,0 -0.05,0.02 -0.05,0.05z"/>
    <path fill="#292929" d="M0.05 0.17c0,-0.05 0.03,-0.08 0.06,-0.1 0.03,-0.02 0.03,-0.01 0.04,-0.02l0 0.48c0,0.02 0.01,0.05 -0.02,0.05 -0.02,0 -0.02,-0.03 -0.02,-0.06 0,-0.02 0,-0.14 0,-0.15 -0.01,-0.02 -0.04,-0.02 -0.06,-0.02l0 -0.18zm0.11 -0.17l0.01 0c0.02,0 0.03,0.01 0.03,0.04l0 0.49c0,0.03 0,0.05 -0.01,0.07 -0.05,0.06 -0.13,0.01 -0.13,-0.03l0 -0.17c-0.03,0 -0.06,0 -0.06,-0.05l0 -0.15c0,-0.07 0.02,-0.12 0.06,-0.15 0,-0.01 0.01,-0.01 0.01,-0.01 0.01,-0.01 0.06,-0.04 0.09,-0.04z"/>
   </g>
  </g>
 </g>
</svg>
