<?xml version="1.0" encoding="UTF-8"?>
<!DOCTYPE svg PUBLIC "-//W3C//DTD SVG 1.0//EN" "http://www.w3.org/TR/2001/REC-SVG-20010904/DTD/svg10.dtd">
<!-- Creator: CorelDRAW 2018 (64 Bit Versão de avaliação) -->
<svg xmlns="http://www.w3.org/2000/svg" xml:space="preserve" width="35px" height="41px" version="1.0" shape-rendering="geometricPrecision" text-rendering="geometricPrecision" image-rendering="optimizeQuality" fill-rule="evenodd" clip-rule="evenodd"
viewBox="0 0 1.8 2.13"
 xmlns:xlink="http://www.w3.org/1999/xlink">
 <g id="Camada_x0020_1">
  <metadata id="CorelCorpID_0Corel-Layer"/>
  <path fill="#292929" d="M0.16 1.72l0 -0.14c0,-0.02 0.01,-0.04 0.01,-0.06 0.01,0.01 0.02,0.01 0.03,0.02 0.08,0.04 0.21,0.07 0.3,0.09 0.11,0.02 0.23,0.03 0.35,0.03 0.01,0 0.03,0 0.05,0 0.04,0 0.17,0 0.21,-0.01 0.19,-0.02 0.26,-0.03 0.45,-0.1l0.05 -0.02c0.01,0 0.01,-0.01 0.02,-0.01 0,0.03 0,0.04 0,0.07 0,0.05 0.01,0.15 0,0.2 0,0.01 -0.01,0.02 -0.02,0.03 -0.02,0.02 -0.06,0.04 -0.08,0.05 -0.06,0.02 -0.12,0.04 -0.19,0.06 -0.09,0.02 -0.18,0.03 -0.27,0.03l-0.3 0.01c-0.04,0 -0.18,-0.02 -0.22,-0.02 -0.1,-0.02 -0.29,-0.06 -0.36,-0.13 -0.02,-0.01 -0.02,-0.02 -0.02,-0.04 -0.01,-0.02 -0.01,-0.04 -0.01,-0.06zm0.68 -1.72l0.16 0c0.03,0 0.07,0 0.1,0.01 0.05,0 0.08,0 0.14,0.01 0.11,0.02 0.25,0.05 0.34,0.09 0.09,0.04 0.22,0.13 0.22,0.23l0 1.46c0,0.04 -0.03,0.08 -0.05,0.1 -0.06,0.08 -0.19,0.14 -0.29,0.17 -0.21,0.06 -0.43,0.06 -0.65,0.06 -0.05,0 -0.09,0 -0.13,0 -0.1,-0.01 -0.29,-0.05 -0.37,-0.07 -0.06,-0.02 -0.14,-0.05 -0.19,-0.09 -0.05,-0.04 -0.12,-0.1 -0.12,-0.17l0 -1.47c0,-0.03 0.02,-0.07 0.05,-0.1 0.07,-0.09 0.17,-0.12 0.27,-0.16 0.09,-0.02 0.21,-0.05 0.31,-0.06 0.06,0 0.13,-0.01 0.21,-0.01zm-0.68 1.26l0 -0.15c0,-0.03 0.01,-0.04 0.01,-0.06l0.07 0.03c0.07,0.03 0.17,0.05 0.25,0.07 0.03,0.01 0.07,0.01 0.1,0.01 0.12,0.02 0.19,0.02 0.32,0.02 0.13,0 0.27,-0.01 0.4,-0.03 0.08,-0.02 0.2,-0.05 0.28,-0.09l0.04 -0.01c0,0.02 0,0.04 0,0.06 0,0.03 0.01,0.19 0,0.21 -0.01,0.02 -0.06,0.05 -0.08,0.06 -0.11,0.05 -0.18,0.07 -0.3,0.09 -0.03,0 -0.07,0.01 -0.1,0.01 -0.05,0.01 -0.07,0.01 -0.11,0.01 -0.07,0.01 -0.22,0.01 -0.29,0 -0.03,0 -0.06,0 -0.11,-0.01 -0.1,-0.01 -0.19,-0.03 -0.29,-0.06 -0.04,-0.01 -0.15,-0.05 -0.17,-0.09 -0.02,-0.02 -0.02,-0.04 -0.02,-0.07zm0 -0.45l0 -0.18c0,-0.03 0.01,-0.04 0.01,-0.06 0.02,0.01 0.04,0.02 0.07,0.03 0.02,0.01 0.04,0.02 0.07,0.03 0.05,0.02 0.11,0.03 0.17,0.04 0.02,0 0.05,0.01 0.08,0.01 0.03,0.01 0.06,0.01 0.09,0.01 0.04,0.01 0.07,0.01 0.1,0.01 0.03,0.01 0.1,0.01 0.14,0.01 0.2,0 0.4,-0.02 0.58,-0.08 0.02,0 0.14,-0.05 0.16,-0.06l0 0.21c0,0.06 0.02,0.07 -0.08,0.12 -0.04,0.02 -0.07,0.03 -0.11,0.05 -0.07,0.02 -0.15,0.03 -0.23,0.05 -0.21,0.03 -0.55,0.02 -0.76,-0.03 -0.08,-0.02 -0.18,-0.04 -0.24,-0.09 -0.03,-0.02 -0.05,-0.03 -0.05,-0.07zm0.76 -0.27l-0.19 0c-0.02,-0.01 -0.04,-0.01 -0.06,-0.01 -0.06,-0.01 -0.13,-0.01 -0.19,-0.03 -0.08,-0.02 -0.11,-0.03 -0.18,-0.05 -0.04,-0.01 -0.13,-0.06 -0.13,-0.1 0,-0.03 0.1,-0.08 0.13,-0.09 0.06,-0.02 0.11,-0.05 0.18,-0.06 0.06,-0.01 0.13,-0.03 0.2,-0.03l0.08 0c0.01,0 0.02,0 0.03,0 0.01,0 0.01,-0.01 0.02,-0.01 0.01,0 0.02,0 0.03,0 0.02,0 0.04,0 0.06,0 0.04,0 0.07,0.01 0.11,0.01 0.14,0 0.44,0.04 0.56,0.12 0.07,0.04 0.09,0.07 0.01,0.12 -0.03,0.02 -0.04,0.02 -0.08,0.04 -0.08,0.03 -0.22,0.06 -0.31,0.08 -0.02,0 -0.04,0 -0.05,0 -0.04,0.01 -0.07,0.01 -0.11,0.01 -0.01,0 -0.03,0 -0.05,0 -0.02,0 -0.04,0 -0.06,0z"/>
 </g>
</svg>
