<?xml version="1.0" encoding="UTF-8"?>
<!DOCTYPE svg PUBLIC "-//W3C//DTD SVG 1.0//EN" "http://www.w3.org/TR/2001/REC-SVG-20010904/DTD/svg10.dtd">
<!-- Creator: CorelDRAW 2018 (64 Bit Versão de avaliação) -->
<svg xmlns="http://www.w3.org/2000/svg" xml:space="preserve" width="41px" height="41px" version="1.0" shape-rendering="geometricPrecision" text-rendering="geometricPrecision" image-rendering="optimizeQuality" fill-rule="evenodd" clip-rule="evenodd"
viewBox="0 0 0.91 0.91"
 xmlns:xlink="http://www.w3.org/1999/xlink">
 <g id="Camada_x0020_1">
  <metadata id="CorelCorpID_0Corel-Layer"/>
  <g id="_2303609338384">
   <g>
    <path fill="black" d="M0.14 0.04l0 0.05 -0.1 0c-0.02,0 -0.04,0.02 -0.04,0.05l0 0.64c0,0.02 0.02,0.04 0.05,0.04l0.27 0c-0.03,-0.06 -0.05,-0.11 -0.05,-0.19 0,-0.03 0.01,-0.08 0.02,-0.11 0.01,-0.01 0.01,-0.02 0.02,-0.03 0,-0.01 0.01,-0.02 0.01,-0.03l0.02 -0.03c0.01,-0.01 0.01,-0.02 0.02,-0.02 0.01,-0.02 0.03,-0.03 0.04,-0.05 0.01,0 0.01,-0.01 0.02,-0.01 0,0 0,-0.01 0.01,-0.01l0.03 -0.02c0.05,-0.03 0.12,-0.05 0.18,-0.05 0.06,0 0.13,0.02 0.18,0.05 0.01,0.01 0.01,0.01 0.01,0.01 0.02,0.01 0.03,0.02 0.04,0.03 0,-0.03 0,-0.21 0,-0.23 -0.01,-0.01 -0.01,-0.02 -0.02,-0.03 -0.02,-0.01 -0.04,-0.01 -0.08,-0.01 0,-0.03 0.01,-0.06 -0.01,-0.08 -0.01,-0.01 -0.02,-0.01 -0.03,-0.01l0 0c-0.03,0 -0.05,0.02 -0.05,0.04l0 0.05 -0.45 0 0 -0.05c0,-0.03 -0.02,-0.04 -0.04,-0.04l-0.01 0c-0.02,0 -0.04,0.01 -0.04,0.04z"/>
    <path fill="black" d="M0.59 0.64l0 -0.14c0,-0.06 0.09,-0.07 0.09,0.01l0 0.08c0.04,0 0.09,0 0.09,0.05 0,0.03 -0.02,0.04 -0.05,0.04l-0.07 0c-0.02,0 -0.03,0 -0.04,-0.01 -0.01,-0.01 -0.02,-0.02 -0.02,-0.03zm0.32 -0.01l0 0.02c0,0.04 -0.01,0.07 -0.02,0.11 -0.03,0.05 -0.08,0.1 -0.13,0.13 -0.05,0.02 -0.08,0.02 -0.13,0.02 -0.05,0 -0.11,-0.02 -0.15,-0.05 -0.02,-0.01 -0.01,-0.01 -0.03,-0.02 -0.01,-0.01 -0.02,-0.03 -0.04,-0.04 0,-0.02 -0.01,-0.03 -0.02,-0.04 -0.02,-0.05 -0.02,-0.09 -0.02,-0.14 0,-0.03 0.01,-0.07 0.02,-0.1 0.03,-0.06 0.07,-0.1 0.13,-0.13 0.05,-0.02 0.08,-0.02 0.13,-0.02 0.05,0 0.11,0.02 0.15,0.05l0.03 0.03 0.03 0.03c0.03,0.05 0.05,0.09 0.05,0.15z"/>
   </g>
  </g>
 </g>
</svg>
