<?xml version="1.0" encoding="UTF-8"?>
<!DOCTYPE svg PUBLIC "-//W3C//DTD SVG 1.0//EN" "http://www.w3.org/TR/2001/REC-SVG-20010904/DTD/svg10.dtd">
<!-- Creator: CorelDRAW 2018 (64 Bit Versão de avaliação) -->
<svg xmlns="http://www.w3.org/2000/svg" xml:space="preserve" width="32px" height="41px" version="1.0" shape-rendering="geometricPrecision" text-rendering="geometricPrecision" image-rendering="optimizeQuality" fill-rule="evenodd" clip-rule="evenodd"
viewBox="0 0 0.7 0.91"
 xmlns:xlink="http://www.w3.org/1999/xlink">
 <g id="Camada_x0020_1">
  <metadata id="CorelCorpID_0Corel-Layer"/>
  <g id="_2752032851712">
   <g>
    <path fill="#292929" d="M0.07 0.56c0,-0.05 0.02,-0.12 0.04,-0.17 0.01,-0.04 0.02,-0.05 0.03,-0.09 0.01,-0.01 0.03,-0.04 0.03,-0.04 0.01,0.01 0.02,0.02 0.03,0.03 0.01,0.01 0.02,0.02 0.04,0.02 0.03,0 0.05,-0.01 0.07,-0.04 0.02,-0.03 0.05,-0.1 0.06,-0.14 0,0 0.01,-0.01 0.01,-0.02l0 0c0,0.01 0.01,0.02 0.01,0.03 0.01,0.02 0.04,0.06 0.05,0.08l0.05 0.07c0.05,0.06 0.09,0.12 0.12,0.18 0.01,0.05 0.01,0.06 0.01,0.1 0,0.06 -0.02,0.11 -0.05,0.15 -0.03,0.04 -0.06,0.07 -0.11,0.09 -0.07,0.04 -0.17,0.03 -0.24,-0.01 0,0 -0.01,0 -0.01,0 -0.02,-0.01 -0.04,-0.03 -0.06,-0.05 -0.05,-0.04 -0.08,-0.11 -0.08,-0.19zm0.32 -0.56l0.01 0c0.01,0 0.03,0 0.03,0.02 0.02,0.04 -0.01,0.04 0.07,0.15 0.04,0.06 0.09,0.12 0.13,0.18 0.02,0.03 0.04,0.08 0.05,0.11 0.02,0.04 0.02,0.07 0.02,0.11l0 0.01c0,0.07 -0.04,0.15 -0.09,0.21 0,0 -0.01,0.01 -0.02,0.02 -0.02,0.02 -0.06,0.05 -0.09,0.07 -0.07,0.03 -0.1,0.03 -0.16,0.03l-0.02 0 0 0c-0.07,0 -0.15,-0.04 -0.2,-0.09 -0.04,-0.03 -0.05,-0.05 -0.07,-0.09l-0.02 -0.04 -0.02 -0.04c-0.01,-0.02 -0.01,-0.05 -0.01,-0.07l0 -0.04c0,-0.04 0.01,-0.09 0.02,-0.13 0,-0.01 0.01,-0.02 0.01,-0.03 0.03,-0.08 0.07,-0.15 0.12,-0.22 0.02,-0.02 0.04,-0.04 0.07,-0.01 0.01,0 0.01,0.01 0.01,0.03 0,0.02 0,0.05 0.02,0.06 0,-0.01 0,-0.01 0,-0.01 0.02,-0.02 0.04,-0.12 0.07,-0.16 0,-0.01 0,-0.01 0,-0.02 0.01,-0.02 0.04,-0.05 0.07,-0.05l0 0z"/>
    <path fill="#292929" d="M0.35 0.73c-0.06,0 -0.11,-0.03 -0.14,-0.07 -0.05,-0.07 -0.04,-0.16 0.02,-0.22 0.01,-0.02 0.03,-0.03 0.05,-0.04 0.04,-0.02 0.09,-0.02 0.14,0l0.03 0.02c0.02,0.01 0.05,0.05 0.05,0.07 0.02,0.05 0.03,0.09 0,0.15 -0.01,0.02 -0.02,0.03 -0.03,0.04 -0.01,0.02 -0.04,0.03 -0.05,0.04 -0.03,0.01 -0.04,0.01 -0.07,0.01zm-0.25 -0.18c0,0.04 0.01,0.07 0.02,0.1 0.01,0.01 0.01,0.02 0.01,0.02 0.01,0.02 0.02,0.03 0.03,0.04 0,0.01 0.01,0.01 0.01,0.02 0.03,0.03 0.04,0.03 0.07,0.05 0.07,0.04 0.16,0.03 0.23,-0.01 0.03,-0.02 0.05,-0.04 0.08,-0.07 0.06,-0.09 0.05,-0.21 -0.01,-0.3l-0.02 -0.01c-0.04,-0.04 -0.11,-0.08 -0.17,-0.07 -0.05,0 -0.05,-0.01 -0.1,0.01 -0.01,0.01 -0.01,0.01 -0.02,0.01 -0.02,0.01 -0.03,0.03 -0.05,0.04 -0.04,0.04 -0.08,0.1 -0.08,0.17z"/>
    <path fill="#292929" d="M0.31 0.45l0 0.11c0,0.02 0.02,0.04 0.04,0.04l0.11 0c0.01,0 0.03,-0.02 0.03,-0.04 0,-0.01 0,-0.02 -0.01,-0.03 -0.01,0 -0.02,-0.01 -0.03,-0.01l-0.07 0 0 -0.07c0,-0.04 -0.07,-0.04 -0.07,0z"/>
   </g>
  </g>
 </g>
</svg>
