<?xml version="1.0" encoding="UTF-8"?>
<!DOCTYPE svg PUBLIC "-//W3C//DTD SVG 1.0//EN" "http://www.w3.org/TR/2001/REC-SVG-20010904/DTD/svg10.dtd">
<!-- Creator: CorelDRAW 2018 (64 Bit Versão de avaliação) -->
<svg xmlns="http://www.w3.org/2000/svg" xml:space="preserve" width="36px" height="41px" version="1.0" shape-rendering="geometricPrecision" text-rendering="geometricPrecision" image-rendering="optimizeQuality" fill-rule="evenodd" clip-rule="evenodd"
viewBox="0 0 0.7 0.8"
 xmlns:xlink="http://www.w3.org/1999/xlink">
 <g id="Camada_x0020_1">
  <metadata id="CorelCorpID_0Corel-Layer"/>
  <g id="_2751447942288">
   <g>
    <path fill="#292929" d="M0.17 0.56c0,-0.06 0.03,-0.11 0.08,-0.14 0.01,-0.02 0.04,-0.03 0.06,-0.03 0.06,-0.02 0.12,0 0.16,0.04 0.04,0.04 0.06,0.08 0.06,0.13 0,0.03 -0.01,0.05 -0.02,0.07 -0.01,0.02 -0.02,0.03 -0.03,0.04 0,0.01 0,0.01 -0.01,0.01 -0.06,0.06 -0.15,0.07 -0.22,0.02 -0.03,-0.02 -0.05,-0.04 -0.06,-0.07 -0.01,-0.02 -0.02,-0.04 -0.02,-0.07zm0.01 -0.56l0.01 0c0.02,0 0.03,0.01 0.03,0.03l0 0.02 0.25 0 0 -0.02c0,-0.02 0.02,-0.03 0.03,-0.03l0.01 0c0.01,0 0.01,0 0.02,0.01 0.01,0.01 0.01,0.03 0.01,0.04l0.08 0c0.02,0 0.04,0.01 0.05,0.03 0.02,0.01 0.03,0.03 0.03,0.05l0 0.54c0,0.03 -0.02,0.05 -0.03,0.06 -0.03,0.03 -0.09,0.02 -0.13,0.02 -0.04,0 -0.03,-0.01 -0.05,0.01 -0.03,0.02 -0.08,0.04 -0.13,0.04 -0.06,0 -0.1,-0.01 -0.15,-0.04 -0.02,-0.02 -0.02,-0.01 -0.05,-0.01 -0.05,0 -0.1,0.01 -0.13,-0.02 -0.01,-0.01 -0.03,-0.03 -0.03,-0.06l0 -0.54c0,-0.02 0.02,-0.04 0.03,-0.05 0.01,-0.02 0.03,-0.03 0.05,-0.03l0.08 0 0 -0.02c0,-0.01 0,-0.02 0.01,-0.03 0.01,0 0.01,0 0.01,0zm-0.07 0.54c0,0.04 0,0.06 0,0.09 0.01,0.02 0.02,0.04 0.03,0.05 -0.02,0 -0.05,0.01 -0.06,0 -0.01,0 -0.01,-0.01 -0.01,-0.02l0 -0.38 0.56 0 0 0.38c0,0.03 -0.05,0.02 -0.07,0.02 0.03,-0.05 0.03,-0.07 0.03,-0.14 0,-0.05 -0.02,-0.09 -0.04,-0.12 -0.05,-0.07 -0.12,-0.1 -0.2,-0.1 -0.04,0 -0.07,0 -0.11,0.02 -0.01,0 -0.02,0.01 -0.03,0.02 -0.01,0.01 -0.02,0.01 -0.03,0.03 -0.01,0.01 -0.02,0.01 -0.03,0.03 -0.02,0.02 -0.04,0.08 -0.04,0.12zm-0.04 -0.4c0,-0.02 0.01,-0.02 0.02,-0.02l0.07 0 0 0.02c0,0.02 0.01,0.03 0.03,0.03 0.02,0 0.03,-0.01 0.03,-0.03l0 -0.02 0.25 0c0,0.02 0,0.03 0.02,0.04 0.01,0.02 0.03,0.01 0.04,0 0.01,-0.01 0.01,-0.02 0.01,-0.04l0.07 0c0.01,0 0.02,0 0.02,0.02l0 0.07 -0.56 0 0 -0.07z"/>
    <path fill="#292929" d="M0.32 0.45l0 0.11c0,0.02 0.01,0.03 0.02,0.03l0.12 0c0.02,0 0.03,-0.03 0.02,-0.05 0,-0.01 -0.01,-0.01 -0.02,-0.01l-0.08 0 0 -0.08c0,-0.02 -0.02,-0.03 -0.04,-0.03 -0.01,0 -0.02,0.02 -0.02,0.03z"/>
   </g>
  </g>
 </g>
</svg>
