<?xml version="1.0" encoding="UTF-8"?>
<!DOCTYPE svg PUBLIC "-//W3C//DTD SVG 1.0//EN" "http://www.w3.org/TR/2001/REC-SVG-20010904/DTD/svg10.dtd">
<!-- Creator: CorelDRAW 2018 (64 Bit Versão de avaliação) -->
<svg xmlns="http://www.w3.org/2000/svg" xml:space="preserve" width="41px" height="41px" version="1.0" shape-rendering="geometricPrecision" text-rendering="geometricPrecision" image-rendering="optimizeQuality" fill-rule="evenodd" clip-rule="evenodd"
viewBox="0 0 0.75 0.75"
 xmlns:xlink="http://www.w3.org/1999/xlink">
 <g id="Camada_x0020_1">
  <metadata id="CorelCorpID_0Corel-Layer"/>
  <g id="_2751247949296">
   <g>
    <path fill="#292929" d="M0.06 0.66l0 -0.41 0.63 0 0 0.41c0,0.02 -0.01,0.03 -0.03,0.03l-0.57 0c-0.01,0 -0.03,-0.01 -0.03,-0.03zm0.38 -0.66l0.01 0c0,0 0.01,0 0.01,0 0.02,0.01 0.02,0.03 0.02,0.05l0.07 0c0,-0.02 0,-0.03 0.01,-0.04 0,-0.01 0.01,-0.01 0.02,-0.01l0.01 0c0.01,0 0.01,0 0.02,0.01 0.01,0.01 0.01,0.02 0.01,0.04l0.04 0c0.02,0 0.04,0 0.05,0.01 0.01,0 0.01,0 0.01,0.01 0.01,0 0.02,0.01 0.02,0.02 0.01,0.01 0.01,0.02 0.01,0.04l0 0.54c0,0.01 0,0.03 -0.01,0.03 -0.01,0.03 -0.04,0.05 -0.07,0.05l-0.59 0c-0.04,0 -0.08,-0.04 -0.08,-0.08l0 -0.54c0,-0.02 0.01,-0.03 0.01,-0.04 0.01,-0.02 0.03,-0.03 0.05,-0.04 0.02,-0.01 0.05,0 0.08,0l0 -0.02c0,-0.01 0.01,-0.03 0.03,-0.03 0.01,0 0.02,0 0.03,0.01 0,0.01 0,0.02 0,0.04l0.08 0 0 -0.02c0,-0.02 0.01,-0.03 0.02,-0.03 0.02,0 0.03,0 0.03,0.01 0.01,0.01 0.01,0.02 0.01,0.04l0.07 0c0,-0.02 0,-0.03 0.01,-0.04 0,-0.01 0.01,-0.01 0.02,-0.01zm-0.38 0.14c0,-0.02 0.02,-0.03 0.04,-0.03l0.04 0c0,0 0,0 0,0.01 0,0 0.01,0 0.01,0.01 0.01,0.01 0.05,0 0.05,-0.02l0.08 0c0,0.01 0.01,0.02 0.03,0.02 0.01,0 0.01,0 0.02,0 0,-0.01 0.01,-0.01 0.01,-0.02l0.07 0c0.01,0.01 0.02,0.02 0.03,0.02 0.01,0 0.02,0 0.03,0 0,-0.01 0.01,-0.01 0.01,-0.02l0.07 0c0,0.01 0.02,0.02 0.03,0.02 0.01,0 0.02,0 0.02,0 0.02,-0.02 0,-0.02 0.05,-0.02 0.01,0 0.02,0 0.03,0.01 0,0 0.01,0.01 0.01,0.02l0 0.04 -0.63 0 0 -0.04z"/>
    <path fill="#292929" d="M0.44 0.49c0,0.02 0.01,0.03 0.01,0.03l0.03 0.03 -0.02 0.02c-0.01,0.01 -0.03,0.03 -0.02,0.05 0,0.01 0.01,0.02 0.02,0.02 0.02,0 0.03,-0.01 0.04,-0.02 0.01,0 0.02,-0.02 0.03,-0.02l0.02 0.02c0,0 0.02,0.02 0.03,0.02 0.01,0 0.02,0 0.03,-0.01 0.01,-0.01 0.01,-0.03 0,-0.04 0,-0.01 -0.01,-0.01 -0.01,-0.02 0,0 0,0 -0.01,0l-0.02 -0.02c0.01,0 0.02,-0.02 0.02,-0.02 0.01,-0.01 0.03,-0.02 0.03,-0.04 0,-0.02 -0.03,-0.04 -0.05,-0.03 -0.01,0.01 -0.01,0.01 -0.02,0.02 0,0 -0.02,0.02 -0.02,0.02 -0.01,0 -0.03,-0.03 -0.05,-0.04 -0.02,-0.01 -0.04,0.01 -0.04,0.03z"/>
    <path fill="#292929" d="M0.14 0.55c0,0.01 0,0.02 0.01,0.02 0,0.01 0.01,0.01 0.02,0.01 0.02,0 0.03,-0.01 0.03,-0.03 0,-0.01 0,-0.02 -0.02,-0.03 -0.01,-0.01 -0.02,0 -0.03,0.01 -0.01,0 -0.01,0 -0.01,0.01 0,0 0,0 0,0.01z"/>
    <path fill="#292929" d="M0.28 0.55c0,0.01 0,0.02 0,0.02 0.01,0.01 0.02,0.01 0.03,0.01 0.01,0 0.03,-0.01 0.03,-0.03 0,-0.01 0,-0.02 -0.02,-0.03 -0.02,-0.01 -0.04,0 -0.04,0.03z"/>
    <path fill="#292929" d="M0.55 0.36c0,0.01 0,0.02 0.01,0.03 0.01,0.01 0.03,0.01 0.05,0 0.02,-0.02 0.01,-0.06 -0.03,-0.06 -0.01,0 -0.01,0 -0.02,0.01 -0.01,0.01 -0.01,0.02 -0.01,0.02z"/>
    <path fill="#292929" d="M0.14 0.36c0,0.02 0.01,0.04 0.03,0.04 0.01,0 0.02,-0.01 0.03,-0.02 0,-0.01 0,-0.01 0,-0.02 0,-0.03 -0.04,-0.04 -0.06,-0.01 0,0.01 0,0.01 0,0.01z"/>
    <path fill="#292929" d="M0.31 0.4c0.01,0 0.02,-0.01 0.02,-0.01 0.01,-0.01 0.01,-0.04 0,-0.05 -0.01,-0.01 -0.03,-0.01 -0.05,0 -0.01,0.02 0,0.06 0.03,0.06z"/>
    <path fill="#292929" d="M0.41 0.36c0,0.01 0,0.02 0.01,0.03 0.02,0.01 0.05,0.01 0.05,-0.01 0.01,-0.01 0.01,-0.03 0,-0.04 -0.01,-0.01 -0.04,-0.01 -0.05,0 0,0.01 -0.01,0.01 -0.01,0.02z"/>
   </g>
  </g>
 </g>
</svg>
