<?xml version="1.0" encoding="UTF-8"?>
<!DOCTYPE svg PUBLIC "-//W3C//DTD SVG 1.0//EN" "http://www.w3.org/TR/2001/REC-SVG-20010904/DTD/svg10.dtd">
<!-- Creator: CorelDRAW 2018 (64 Bit Versão de avaliação) -->
<svg xmlns="http://www.w3.org/2000/svg" xml:space="preserve" width="47px" height="33px" version="1.0" shape-rendering="geometricPrecision" text-rendering="geometricPrecision" image-rendering="optimizeQuality" fill-rule="evenodd" clip-rule="evenodd"
viewBox="0 0 3.23 2.22"
 xmlns:xlink="http://www.w3.org/1999/xlink">
 <g id="Camada_x0020_1">
  <metadata id="CorelCorpID_0Corel-Layer"/>
  <path fill="black" d="M0.05 2.08c0,0.05 0.01,0.07 0.03,0.1 0.02,0.02 0.05,0.04 0.08,0.04l2.96 0c0.02,0 0.03,-0.01 0.05,-0.01 0.01,-0.01 0.02,-0.01 0.03,-0.02 0.02,-0.02 0.03,-0.05 0.03,-0.08l0 -0.02c0,-0.03 -0.01,-0.06 -0.04,-0.08 -0.02,-0.03 -0.06,-0.04 -0.09,-0.04l-2.92 0c-0.06,0 -0.13,0.05 -0.13,0.11zm0.26 -1.66c0.01,-0.01 0.04,-0.01 0.05,-0.02 0,0 0.01,0 0.02,0 0.01,0 0.01,0 0.02,0.01 0.1,0.09 0.2,0.18 0.3,0.28 0.08,0.07 0.12,0.07 0.23,0.04l0.48 -0.14c0.11,-0.03 0.24,-0.07 0.35,-0.1l0.35 -0.1c0.03,-0.01 0.05,-0.01 0.08,-0.02 0.03,-0.01 0.06,-0.02 0.09,-0.03 0.03,0 0.06,-0.01 0.09,-0.02l0.08 -0.02c0.03,-0.01 0.06,-0.02 0.09,-0.02 0.03,-0.01 0.06,-0.01 0.09,-0.02 0.01,0 0.02,0 0.04,-0.01 0.01,0 0.02,0 0.04,0 0.01,0 0.03,0 0.04,0 0.01,-0.01 0.03,-0.01 0.04,-0.01 0.05,0.01 0.13,0 0.16,0.05 0.04,0.07 -0.17,0.18 -0.22,0.2 -0.09,0.04 -0.3,0.11 -0.4,0.14 -0.03,0 -0.06,0.02 -0.1,0.02l-0.15 0.05c-0.09,0.03 -0.08,0.05 -0.15,0.13 -0.05,0.05 -0.11,0.12 -0.16,0.18l-0.22 0.26c-0.05,0.05 -0.03,0.03 -0.09,0.05l-0.06 0.01c0,-0.02 0.01,-0.04 0.01,-0.06l0.03 -0.11c0,-0.01 0.01,-0.02 0.01,-0.03l0.04 -0.14c0,-0.01 0,-0.02 0,-0.03 0,-0.01 0,-0.01 0,-0.03 0,-0.06 -0.04,-0.11 -0.11,-0.11 -0.01,0 -0.03,0 -0.05,0 -0.01,0 -0.02,0 -0.02,0 -0.01,0 -0.02,0 -0.03,0 -0.01,0.01 -0.02,0.01 -0.03,0.01 -0.06,0 -0.16,0.02 -0.24,0.03 -0.02,0.01 -0.03,0.01 -0.05,0.01 -0.05,0.01 -0.12,0.02 -0.16,0.02l-0.13 0.02c-0.01,0.01 -0.02,0.01 -0.03,0.01l-0.3 -0.45c-0.01,-0.02 -0.02,-0.03 -0.03,-0.05zm0.87 0.67c0.01,0 0.02,-0.01 0.03,-0.01 0,0.01 -0.02,0.07 -0.02,0.09l-0.02 0.08c-0.01,0.04 -0.05,0.21 -0.06,0.23 0,0.08 0.08,0.14 0.14,0.12 0.08,-0.01 0.18,-0.03 0.26,-0.04 0.12,-0.02 0.15,-0.03 0.22,-0.12l0.13 -0.16c0.08,-0.09 0.18,-0.2 0.26,-0.3l0.05 -0.05c0.01,-0.01 0.23,-0.07 0.26,-0.08 0.02,0 0.03,-0.01 0.05,-0.01l0.19 -0.06c0.03,-0.01 0.06,-0.02 0.1,-0.04 0.04,-0.01 0.16,-0.07 0.2,-0.1 0.1,-0.06 0.19,-0.15 0.22,-0.24 0.01,-0.03 0.01,-0.06 0.01,-0.1 0,-0.02 0,-0.04 -0.01,-0.07 -0.02,-0.08 -0.08,-0.14 -0.15,-0.18 -0.04,-0.02 -0.06,-0.02 -0.09,-0.03 -0.02,-0.01 -0.07,-0.02 -0.09,-0.02 -0.04,0 -0.06,0 -0.1,0l-0.07 0.01c-0.01,0 -0.02,0 -0.03,0 -0.1,0.01 -0.25,0.04 -0.35,0.07 -0.03,0.01 -0.07,0.02 -0.1,0.03l-0.1 0.03c-0.04,0.01 -0.07,0.02 -0.11,0.03 -0.13,0.03 -0.27,0.08 -0.41,0.11l-0.25 0.08c-0.02,0 -0.04,0.01 -0.05,0.01l-0.41 0.12c-0.04,0.01 -0.03,0 -0.09,-0.05 -0.05,-0.04 -0.29,-0.27 -0.32,-0.29 -0.06,-0.03 -0.13,0.01 -0.2,0.03 -0.03,0 -0.18,0.05 -0.21,0.06 -0.05,0.04 -0.06,0.06 -0.06,0.11 0,0.03 0.01,0.06 0.03,0.08 0.05,0.07 0.09,0.15 0.14,0.22 0.01,0.02 0.02,0.03 0.04,0.05l0.21 0.33c0.01,0.02 0.02,0.03 0.03,0.05 0.07,0.11 0.11,0.1 0.22,0.08l0.34 -0.05c0.05,0 0.12,-0.02 0.17,-0.02z"/>
 </g>
</svg>
