<?xml version="1.0" encoding="UTF-8"?>
<!DOCTYPE svg PUBLIC "-//W3C//DTD SVG 1.0//EN" "http://www.w3.org/TR/2001/REC-SVG-20010904/DTD/svg10.dtd">
<!-- Creator: CorelDRAW 2018 (64 Bit Versão de avaliação) -->
<svg xmlns="http://www.w3.org/2000/svg" xml:space="preserve" width="53px" height="41px" version="1.0" shape-rendering="geometricPrecision" text-rendering="geometricPrecision" image-rendering="optimizeQuality" fill-rule="evenodd" clip-rule="evenodd"
viewBox="0 0 1.52 1.16"
 xmlns:xlink="http://www.w3.org/1999/xlink">
 <g id="Camada_x0020_1">
  <metadata id="CorelCorpID_0Corel-Layer"/>
  <g id="_2289560556736">
   <g>
    <path fill="#292929" d="M0.86 0.9l0.16 0 0 0.16 -0.16 0 0 -0.16zm-0.75 -0.36l0.25 0 0 0.26c0,0.04 0.03,0.08 0.07,0.09 0,0 0.01,0 0.01,0.01l0 0.16 -0.33 0 0 -0.52zm0.35 -0.44l0.95 0c0,0 0,0 0,0.01l0 0.68 -0.95 0 0 -0.69zm-0.35 0.27l0.25 0 0 0.07 -0.25 0 0 -0.07zm0 -0.18l0.25 0 0 0.07 -0.25 0 0 -0.07zm0.25 -0.1l-0.3 0c-0.04,0 -0.06,0.02 -0.06,0.04l0 0.98c0,0.03 0.02,0.05 0.05,0.05l0.45 0c0.01,0 0.02,-0.01 0.03,-0.01 0,-0.01 0.01,-0.02 0.01,-0.03l0 -0.22 0.21 0 0 0.16 -0.08 0c-0.06,0 -0.07,0.1 0,0.1l0.54 0c0.06,0 0.06,-0.1 0,-0.1l-0.09 0 0 -0.16 0.31 0c0.04,0 0.09,-0.05 0.09,-0.08l0 -0.74c0,-0.03 -0.05,-0.08 -0.08,-0.08l-1 0c-0.04,0 -0.08,0.04 -0.08,0.09z"/>
    <path fill="#292929" d="M0.22 0.95l0 0.02c0,0.07 0.1,0.06 0.1,0.01 0,-0.04 -0.01,-0.07 -0.05,-0.07 -0.02,0 -0.05,0.02 -0.05,0.04z"/>
   </g>
  </g>
 </g>
</svg>
