<?xml version="1.0" encoding="UTF-8"?>
<!DOCTYPE svg PUBLIC "-//W3C//DTD SVG 1.0//EN" "http://www.w3.org/TR/2001/REC-SVG-20010904/DTD/svg10.dtd">
<!-- Creator: CorelDRAW 2018 (64 Bit Versão de avaliação) -->
<svg xmlns="http://www.w3.org/2000/svg" xml:space="preserve" width="42px" height="42px" version="1.0" shape-rendering="geometricPrecision" text-rendering="geometricPrecision" image-rendering="optimizeQuality" fill-rule="evenodd" clip-rule="evenodd"
viewBox="0 0 18.1 18.14"
 xmlns:xlink="http://www.w3.org/1999/xlink">
 <g id="Camada_x0020_1">
  <metadata id="CorelCorpID_0Corel-Layer"/>
  <g id="_2039417260496">
   <g>
    <path fill="#292929" d="M6.49 9.2c0,0.28 0.48,0.18 0.78,0.18 1.49,0 2.26,-0.23 2.26,0.95 0,1.25 -2.76,0.35 -4.09,0.98 -0.58,0.27 -1.05,0.59 -1.42,1.08 -0.61,0.82 -0.74,1.21 -0.74,2.23 0,1.94 1.75,3.46 3.09,3.46l6.43 0 0 -1.37 -5.18 0c-0.83,0 -1.57,-0.07 -2.06,-0.44 -1.65,-1.25 -0.71,-3.65 0.99,-3.79 0.95,-0.08 0.96,0 1.97,0 0.73,0 1.39,-0.25 1.77,-0.61 1.5,-1.42 0.39,-3.92 -1.36,-3.92l-2.44 0 0 1.25z"/>
    <path fill="#292929" d="M3.99 7.6c-0.36,-0.24 -1.17,-1.14 -1.53,-1.51 -0.77,-0.76 -1.03,-1.08 -1.03,-2.31 0,-0.66 0.45,-1.36 0.82,-1.68 2.24,-1.98 5.34,0.73 3.98,3.15 -0.16,0.28 -0.48,0.62 -0.71,0.84 -0.36,0.37 -1.17,1.27 -1.53,1.51zm-3.99 -3.94c0,1.05 -0.02,1.46 0.54,2.38 0.16,0.26 0.26,0.43 0.49,0.65 0.49,0.48 2.65,2.7 2.9,2.87 0.34,-0.08 0.99,-0.84 1.27,-1.12 1.71,-1.71 2.78,-2.31 2.78,-4.72 0,-0.62 -0.21,-1.07 -0.42,-1.48 -0.2,-0.41 -0.47,-0.85 -0.82,-1.15 -0.31,-0.27 -0.76,-0.6 -1.15,-0.75 -3.15,-1.28 -5.59,1.32 -5.59,3.32z"/>
    <path fill="#292929" d="M13.58 14.03c0,-0.86 0.65,-1.55 1.67,-1.55 0.64,0 1.37,0.66 1.37,1.31 0,0.84 -0.01,0.87 -0.64,1.5 -0.26,0.26 -0.65,0.7 -0.91,0.88 -0.37,-0.55 -1.49,-1.26 -1.49,-2.14zm-1.43 -0.18c0,1.22 0.42,1.72 1.12,2.51 0.38,0.44 1.41,1.47 1.86,1.78 0.62,-0.42 1.28,-1.2 1.83,-1.75 2.59,-2.58 0.21,-5.34 -1.54,-5.34 -1.11,0 -1.61,0.09 -2.36,0.85 -0.32,0.31 -0.41,0.4 -0.61,0.82 -0.14,0.27 -0.3,0.71 -0.3,1.13z"/>
    <path fill="#292929" d="M3.99 3.49c0.58,0 0.65,1.01 0,1.01 -0.69,0 -0.63,-1.01 0,-1.01zm-1.91 0.11c0,0.78 -0.06,1.18 0.58,1.81 1.27,1.23 3.24,0.06 3.24,-1.15l0 -0.36c0,-1.75 -2.46,-2.61 -3.56,-0.93 -0.09,0.15 -0.26,0.43 -0.26,0.63z"/>
   </g>
  </g>
 </g>
</svg>
