<?xml version="1.0" encoding="UTF-8"?>
<!DOCTYPE svg PUBLIC "-//W3C//DTD SVG 1.0//EN" "http://www.w3.org/TR/2001/REC-SVG-20010904/DTD/svg10.dtd">
<!-- Creator: CorelDRAW 2018 (64 Bit Versão de avaliação) -->
<svg xmlns="http://www.w3.org/2000/svg" xml:space="preserve" width="41px" height="41px" version="1.0" shape-rendering="geometricPrecision" text-rendering="geometricPrecision" image-rendering="optimizeQuality" fill-rule="evenodd" clip-rule="evenodd"
viewBox="0 0 2.48 2.48"
 xmlns:xlink="http://www.w3.org/1999/xlink">
 <g id="Camada_x0020_1">
  <metadata id="CorelCorpID_0Corel-Layer"/>
  <path fill="black" d="M0.45 0.98c0.11,0.03 0.73,0.26 0.78,0.26 0.07,0 0.33,-0.1 0.41,-0.13l0.29 -0.09c0.03,-0.01 0.07,-0.03 0.1,-0.04l-0.44 0.64c-0.02,0.03 -0.03,0.05 -0.05,0.08l-0.25 0.35c-0.01,0.02 -0.04,0.06 -0.05,0.07 -0.02,-0.01 -0.43,-0.62 -0.5,-0.7l-0.29 -0.44zm0.41 -0.73l0.75 0c0.02,0 0.11,0.09 0.13,0.11 0.01,0.01 0.02,0.02 0.03,0.03l0.34 0.3c-0.12,0.03 -0.84,0.29 -0.87,0.29l-0.76 -0.25c-0.04,-0.01 -0.07,-0.03 -0.11,-0.04l0.36 -0.33c0.01,-0.01 0.02,-0.02 0.03,-0.03 0.03,-0.02 0.09,-0.08 0.1,-0.08zm-0.86 0.49c0,0.06 0.13,0.23 0.17,0.29 0.02,0.02 0.03,0.04 0.04,0.06 0.02,0.02 0.03,0.03 0.04,0.05l0.53 0.77c0.01,0.02 0.02,0.03 0.04,0.05l0.11 0.17c0.01,0.02 0.02,0.03 0.04,0.05l0.11 0.16c0.02,0.02 0.03,0.04 0.04,0.06 0.07,0.11 0.17,0.1 0.23,0.01l0.08 -0.11c0.07,-0.1 0.23,-0.34 0.3,-0.44l0.3 -0.44c0.02,-0.02 0.03,-0.03 0.04,-0.05l0.23 -0.33c0.04,-0.06 0.18,-0.24 0.18,-0.29 0,-0.03 -0.02,-0.06 -0.03,-0.07 -0.01,-0.02 -0.03,-0.04 -0.04,-0.05 -0.02,-0.02 -0.04,-0.03 -0.06,-0.05 0,-0.01 -0.01,-0.01 -0.02,-0.02l-0.23 -0.21c-0.01,-0.01 -0.02,-0.02 -0.03,-0.03 -0.01,-0.01 -0.01,-0.01 -0.03,-0.02l-0.25 -0.23c-0.04,-0.04 -0.06,-0.07 -0.13,-0.07l-0.84 0c-0.06,0 -0.09,0.03 -0.13,0.06l-0.2 0.19c-0.03,0.02 -0.03,0.03 -0.05,0.05l-0.26 0.23c-0.04,0.03 -0.12,0.1 -0.15,0.14 -0.01,0.01 -0.03,0.05 -0.03,0.07z"/>
 </g>
</svg>
