<?xml version="1.0" encoding="UTF-8"?>
<!DOCTYPE svg PUBLIC "-//W3C//DTD SVG 1.0//EN" "http://www.w3.org/TR/2001/REC-SVG-20010904/DTD/svg10.dtd">
<!-- Creator: CorelDRAW 2018 (64 Bit Versão de avaliação) -->
<svg xmlns="http://www.w3.org/2000/svg" xml:space="preserve" width="33px" height="41px" version="1.0" shape-rendering="geometricPrecision" text-rendering="geometricPrecision" image-rendering="optimizeQuality" fill-rule="evenodd" clip-rule="evenodd"
viewBox="0 0 0.66 0.81"
 xmlns:xlink="http://www.w3.org/1999/xlink">
 <g id="Camada_x0020_1">
  <metadata id="CorelCorpID_0Corel-Layer"/>
  <g id="_2290055209120">
   <g>
    <path fill="black" d="M0 0.47c0,0.05 0.01,0.1 0.03,0.15 0.04,0.07 0.08,0.12 0.16,0.16 0.04,0.02 0.08,0.03 0.12,0.03l0.04 0c0.02,0 0.04,-0.01 0.06,-0.01 0.05,-0.01 0.09,-0.04 0.13,-0.07 0.03,-0.03 0.01,-0.06 -0.01,-0.06 -0.02,0 -0.02,0.01 -0.04,0.02 -0.06,0.05 -0.14,0.07 -0.22,0.05 -0.05,-0.01 -0.1,-0.04 -0.13,-0.08 -0.02,-0.02 -0.04,-0.04 -0.05,-0.07 -0.04,-0.08 -0.03,-0.15 0,-0.24 0,-0.02 0.02,-0.06 0.03,-0.08l0.02 -0.02c0.01,-0.02 0.01,-0.03 0.03,-0.04 0.02,-0.03 0.06,-0.07 0.08,-0.09l0.03 -0.03c0,0.04 0.01,0.08 0.03,0.12 0.01,0.02 0.05,0.08 0.07,0.08 0.02,0 0.03,-0.01 0.03,-0.02l0.04 -0.05c0,0 0.01,-0.02 0.02,-0.02 0,0.01 0.01,0.03 0.02,0.04 0,0.01 0.01,0.01 0.01,0.02 0.05,0.07 0.08,0.1 0.09,0.19 0.01,0.06 -0.01,0.09 -0.01,0.12 0,0.01 0.02,0.02 0.03,0.02 0.03,0 0.03,-0.01 0.04,-0.04 0.03,-0.13 -0.01,-0.22 -0.09,-0.32 -0.01,-0.01 -0.02,-0.02 -0.02,-0.04 -0.03,-0.03 -0.02,-0.06 -0.03,-0.07 -0.01,-0.02 -0.03,-0.02 -0.04,-0.01 -0.02,0.01 -0.03,0.03 -0.04,0.04l-0.05 0.05c-0.02,-0.03 -0.03,-0.06 -0.03,-0.1 -0.01,-0.02 -0.01,-0.04 -0.01,-0.06 0,-0.02 0,-0.02 -0.01,-0.03 0,-0.01 -0.01,-0.01 -0.02,-0.01l-0.01 0c-0.02,0 -0.04,0.02 -0.06,0.04l-0.08 0.08c-0.03,0.03 -0.07,0.09 -0.09,0.12 -0.01,0.02 -0.02,0.03 -0.03,0.05 0,0.01 0,0.01 -0.01,0.02 -0.01,0.04 -0.03,0.1 -0.03,0.16z"/>
    <path fill="black" d="M0.19 0.61c0,0.01 0,0.02 0.01,0.03 0.01,0.01 0.02,0.01 0.03,0.01 0.01,0 0.03,-0.02 0.03,-0.03l0.09 -0.11c0.01,-0.01 0.02,-0.02 0.03,-0.03l0.05 -0.06c0.02,-0.03 0.03,-0.04 0.03,-0.06 0,-0.01 -0.01,-0.03 -0.02,-0.03 -0.03,0 -0.03,0.01 -0.05,0.03l-0.17 0.21c-0.01,0.01 -0.03,0.03 -0.03,0.04z"/>
    <path fill="black" d="M0.18 0.37l0 0.01c0,0.02 0.02,0.05 0.04,0.05l0.01 0c0.02,0 0.04,-0.03 0.04,-0.05l0 -0.01c0,-0.02 -0.02,-0.04 -0.04,-0.04l-0.01 0c-0.02,0 -0.04,0.02 -0.04,0.04z"/>
    <path fill="black" d="M0.39 0.6l0 0c0,0.02 0.02,0.05 0.04,0.05l0.01 0c0.02,0 0.04,-0.03 0.04,-0.05l0 0c0,-0.03 -0.02,-0.05 -0.04,-0.05l-0.01 0c-0.02,0 -0.04,0.02 -0.04,0.05z"/>
   </g>
  </g>
 </g>
</svg>
