<?xml version="1.0" encoding="UTF-8"?>
<!DOCTYPE svg PUBLIC "-//W3C//DTD SVG 1.0//EN" "http://www.w3.org/TR/2001/REC-SVG-20010904/DTD/svg10.dtd">
<!-- Creator: CorelDRAW 2018 (64 Bit Versão de avaliação) -->
<svg xmlns="http://www.w3.org/2000/svg" xml:space="preserve" width="41px" height="41px" version="1.0" shape-rendering="geometricPrecision" text-rendering="geometricPrecision" image-rendering="optimizeQuality" fill-rule="evenodd" clip-rule="evenodd"
viewBox="0 0 1.92 1.92"
 xmlns:xlink="http://www.w3.org/1999/xlink">
 <g id="Camada_x0020_1">
  <metadata id="CorelCorpID_0Corel-Layer"/>
  <g id="_2289991991952">
   <g>
    <path fill="#292929" d="M0.16 0.96c0,-0.25 0.14,-0.51 0.34,-0.64 0.04,-0.03 0.07,-0.06 0.12,-0.08 0.15,-0.06 0.2,-0.07 0.38,-0.07 0.18,0 0.36,0.09 0.49,0.21 0.15,0.13 0.26,0.35 0.26,0.55 0,0.15 -0.01,0.24 -0.07,0.38 -0.1,0.18 -0.2,0.28 -0.39,0.37 -0.46,0.24 -1.13,-0.1 -1.13,-0.72zm0.8 -0.96l0.02 0c0.13,0 0.26,0.03 0.38,0.09 0.06,0.03 0.1,0.05 0.15,0.09 0.03,0.01 0.12,0.08 0.14,0.11 0.01,0.02 0.03,0.04 0.05,0.06 0.02,0.03 0.04,0.05 0.05,0.07l0.07 0.12c0.12,0.24 0.14,0.58 0.02,0.82 -0.11,0.21 -0.24,0.36 -0.46,0.47 -0.08,0.04 -0.24,0.09 -0.36,0.09 -0.2,0 -0.31,0 -0.49,-0.09 -0.09,-0.05 -0.19,-0.12 -0.26,-0.2 -0.05,-0.05 -0.11,-0.13 -0.15,-0.19 -0.1,-0.19 -0.12,-0.32 -0.12,-0.54 0,-0.11 0.05,-0.27 0.1,-0.37 0.01,-0.03 0.03,-0.05 0.04,-0.07 0.05,-0.08 0.15,-0.19 0.22,-0.25 0.02,-0.02 0.04,-0.03 0.07,-0.05 0.15,-0.1 0.34,-0.16 0.53,-0.16z"/>
    <path fill="#292929" d="M0.96 1.12c-0.04,0 -0.08,-0.03 -0.1,-0.05 -0.1,-0.08 -0.03,-0.26 0.1,-0.26 0.21,0 0.19,0.31 0,0.31zm-0.32 -0.17c0,0.14 0.06,0.24 0.18,0.3 0.12,0.06 0.27,0.04 0.36,-0.06 0.21,-0.21 0.05,-0.54 -0.2,-0.54 -0.15,0 -0.25,0.05 -0.31,0.18 -0.01,0.03 -0.03,0.07 -0.03,0.12z"/>
    <path fill="#292929" d="M0.32 0.91c0,0.07 -0.01,0.16 0.02,0.22 0.04,0.11 0.17,0.06 0.16,-0.02 0,-0.1 -0.05,-0.18 0.03,-0.35 0.04,-0.07 0.09,-0.14 0.16,-0.19 0.11,-0.08 0.21,-0.06 0.21,-0.14 0,-0.05 -0.04,-0.09 -0.08,-0.09 -0.08,0 -0.22,0.08 -0.27,0.13 -0.03,0.02 -0.05,0.04 -0.07,0.07 -0.07,0.06 -0.16,0.24 -0.16,0.37z"/>
    <path fill="#292929" d="M1.42 0.81c0,0.1 0.04,0.12 0,0.28 -0.03,0.09 -0.05,0.13 -0.1,0.19 -0.02,0.02 -0.04,0.03 -0.06,0.06 -0.02,0.01 -0.04,0.02 -0.05,0.03 -0.04,0.02 -0.07,0.04 -0.11,0.05 -0.03,0.01 -0.04,0.01 -0.06,0.03 -0.06,0.07 0.01,0.14 0.06,0.14 0.06,0 0.16,-0.05 0.2,-0.08 0.02,-0.01 0.02,-0.01 0.04,-0.03 0.06,-0.04 0.06,-0.04 0.11,-0.1 0.08,-0.1 0.15,-0.24 0.15,-0.42 0,-0.06 0,-0.22 -0.09,-0.22 -0.06,0 -0.09,0.03 -0.09,0.07z"/>
   </g>
  </g>
 </g>
</svg>
