<?xml version="1.0" encoding="UTF-8"?>
<!DOCTYPE svg PUBLIC "-//W3C//DTD SVG 1.0//EN" "http://www.w3.org/TR/2001/REC-SVG-20010904/DTD/svg10.dtd">
<!-- Creator: CorelDRAW 2018 (64 Bit Versão de avaliação) -->
<svg xmlns="http://www.w3.org/2000/svg" xml:space="preserve" width="41px" height="41px" version="1.0" shape-rendering="geometricPrecision" text-rendering="geometricPrecision" image-rendering="optimizeQuality" fill-rule="evenodd" clip-rule="evenodd"
viewBox="0 0 1.15 1.15"
 xmlns:xlink="http://www.w3.org/1999/xlink">
 <g id="Camada_x0020_1">
  <metadata id="CorelCorpID_0Corel-Layer"/>
  <g id="_2751231866848">
   <path fill="black" d="M0.85 1.03c0,-0.03 0,-0.06 0,-0.09 0,-0.03 0,-0.05 0.02,-0.07 0.02,-0.02 0.04,-0.02 0.07,-0.02 0.03,0 0.06,0 0.09,0 0,0.01 -0.01,0.02 -0.01,0.03 -0.01,0.01 -0.01,0.01 -0.02,0.03l-0.03 0.02c0,0.01 -0.01,0.01 -0.02,0.02 -0.02,0.02 -0.07,0.08 -0.1,0.08zm-0.11 0.01c-0.13,0 -0.26,0 -0.39,0 -0.07,0 -0.12,0.01 -0.17,-0.03 -0.02,-0.01 -0.04,-0.03 -0.05,-0.05 -0.02,-0.04 -0.02,-0.07 -0.02,-0.12l0 -0.54c0,-0.03 0,-0.06 0.01,-0.08 0.01,-0.03 0.02,-0.05 0.04,-0.06 0,-0.01 0,-0.01 0,-0.01l0.02 -0.02c0.04,-0.02 0.08,-0.02 0.12,-0.02 0.14,0 0.27,0 0.4,0 0.02,0 0.17,0 0.19,0 0.04,0 0.08,0.02 0.1,0.04l0.01 0.02c0.05,0.05 0.04,0.1 0.04,0.18 0,0.13 0,0.26 0,0.39 -0.01,0 -0.02,0 -0.03,0 -0.03,0 -0.09,0 -0.12,0 -0.04,0.01 -0.07,0.03 -0.1,0.05 -0.01,0.01 -0.02,0.03 -0.03,0.05 -0.01,0.01 -0.01,0.03 -0.02,0.05 0,0.03 0,0.12 0,0.15zm0.41 -0.23c0,-0.03 0,-0.05 0,-0.08l0 -0.36c0,-0.03 0,-0.11 0,-0.14 -0.01,-0.04 -0.02,-0.07 -0.04,-0.1 -0.01,-0.01 -0.03,-0.04 -0.04,-0.05l-0.01 -0.01c-0.03,-0.03 -0.07,-0.05 -0.12,-0.06 -0.02,-0.01 -0.04,-0.01 -0.06,-0.01l-0.51 0c-0.03,0 -0.12,0 -0.14,0 -0.05,0.01 -0.09,0.03 -0.12,0.06 -0.01,0 -0.02,0.01 -0.02,0.01 -0.02,0.02 -0.02,0.02 -0.04,0.04 -0.02,0.03 -0.03,0.06 -0.04,0.1 -0.01,0.02 -0.01,0.04 -0.01,0.06l0 0.51c0,0.03 0,0.12 0,0.14 0.01,0.04 0.02,0.08 0.04,0.1 0.02,0.04 0.04,0.05 0.07,0.08 0.03,0.02 0.06,0.03 0.1,0.04 0.02,0.01 0.04,0.01 0.06,0.01 0.17,0 0.34,0 0.51,0 0.02,0 0.04,0 0.07,0 0.02,-0.01 0.03,-0.01 0.05,-0.02 0.02,-0.01 0.03,-0.02 0.05,-0.03 0.01,-0.01 0.01,-0.01 0.02,-0.02 0.02,-0.01 0.07,-0.07 0.09,-0.08 0.01,-0.01 0.02,-0.03 0.03,-0.04 0.04,-0.04 0.06,-0.09 0.06,-0.15z"/>
   <path fill="black" d="M0.26 0.32c0.01,0.03 0.03,0.05 0.05,0.05l0.51 0c0.01,0 0.03,0 0.04,-0.01 0.01,0 0.02,-0.01 0.02,-0.02 0.01,-0.01 0.01,-0.02 0.01,-0.04 0,-0.01 -0.01,-0.02 -0.02,-0.03 -0.01,0 -0.01,-0.01 -0.03,-0.01 -0.03,0 -0.06,0 -0.09,0l-0.37 0c-0.02,0 -0.07,0 -0.09,0.01 -0.02,0 -0.03,0.02 -0.03,0.05z"/>
   <path fill="black" d="M0.3 0.52c-0.01,0.01 -0.02,0.01 -0.03,0.02 0,0.01 -0.01,0.02 -0.01,0.03 0,0.02 0,0.03 0.01,0.04 0.01,0.01 0.02,0.01 0.03,0.02 0.01,0 0.07,0 0.09,0l0.41 0c0.01,0 0.04,0 0.05,0 0.03,-0.01 0.06,-0.05 0.03,-0.09 -0.01,0 -0.02,-0.01 -0.03,-0.02 -0.01,0 -0.07,0 -0.09,0 -0.14,0 -0.27,0 -0.41,0 -0.01,0 -0.04,0 -0.05,0z"/>
   <path fill="black" d="M0.26 0.84c0,0.02 0.01,0.03 0.02,0.04 0.02,0.01 0.03,0.01 0.05,0.01l0.24 0c0.02,0 0.03,0 0.04,-0.02 0.02,-0.01 0.02,-0.02 0.02,-0.04 0,-0.02 -0.01,-0.03 -0.02,-0.04 -0.02,-0.01 -0.03,-0.01 -0.05,-0.01l-0.24 0c-0.01,0 -0.02,0 -0.03,0.01 -0.02,0.01 -0.03,0.03 -0.03,0.05z"/>
  </g>
 </g>
</svg>
