<?xml version="1.0" encoding="UTF-8"?>
<!DOCTYPE svg PUBLIC "-//W3C//DTD SVG 1.0//EN" "http://www.w3.org/TR/2001/REC-SVG-20010904/DTD/svg10.dtd">
<!-- Creator: CorelDRAW 2018 (64 Bit Versão de avaliação) -->
<svg xmlns="http://www.w3.org/2000/svg" xml:space="preserve" width="42px" height="41px" version="1.0" shape-rendering="geometricPrecision" text-rendering="geometricPrecision" image-rendering="optimizeQuality" fill-rule="evenodd" clip-rule="evenodd"
viewBox="0 0 3.65 3.55"
 xmlns:xlink="http://www.w3.org/1999/xlink">
 <g id="Camada_x0020_1">
  <metadata id="CorelCorpID_0Corel-Layer"/>
  <g id="_2038817373920">
   <g>
    <path fill="#292929" d="M0.34 1.15c0,-0.09 0.05,-0.13 0.13,-0.17 0.21,-0.11 0.52,-0.28 0.74,-0.39 0.07,-0.05 0.28,-0.16 0.37,-0.19 0.09,-0.04 0.18,-0.05 0.29,-0.05 0.18,0 0.36,0.13 0.49,0.2 0.16,0.08 0.36,0.19 0.54,0.28l0.27 0.14c0.1,0.05 0.13,0.09 0.13,0.19 0,0.11 -0.19,0.18 -0.31,0.24l-0.54 0.29c-0.03,0.02 -0.05,0.03 -0.09,0.05 -0.27,0.13 -0.27,0.19 -0.6,0.19 -0.12,0 -0.3,-0.09 -0.4,-0.15l-0.72 -0.38c-0.02,-0.02 -0.06,-0.04 -0.08,-0.05 -0.08,-0.03 -0.22,-0.1 -0.22,-0.2zm3.31 -0.02l0 0.02c0,0.1 -0.04,0.19 -0.09,0.28 -0.08,0.11 -0.21,0.18 -0.32,0.24 -0.16,0.07 -0.48,0.24 -0.61,0.32l-0.18 0.1c-0.02,0.01 -0.04,0.02 -0.06,0.03 -0.08,0.05 -0.16,0.08 -0.25,0.11 -0.2,0.07 -0.44,0.07 -0.64,0 -0.1,-0.03 -0.49,-0.24 -0.61,-0.31 -0.04,-0.02 -0.08,-0.04 -0.12,-0.06l-0.36 -0.2c-0.04,-0.02 -0.07,-0.04 -0.11,-0.06l-0.12 -0.07c-0.15,-0.12 -0.18,-0.25 -0.18,-0.44 0,-0.1 0.06,-0.21 0.11,-0.27 0.06,-0.08 0.17,-0.14 0.27,-0.19 0.02,-0.01 0.04,-0.02 0.06,-0.03l0.6 -0.32c0.13,-0.07 0.35,-0.19 0.49,-0.24 0.36,-0.09 0.56,-0.02 0.88,0.14l0.6 0.32c0.18,0.11 0.43,0.18 0.55,0.36 0.06,0.08 0.09,0.18 0.09,0.27z"/>
    <path fill="#292929" d="M1.87 3.2c-0.24,0 -0.31,-0.04 -0.51,-0.15 -0.03,-0.02 -0.06,-0.04 -0.1,-0.05l-0.88 -0.47c-0.07,-0.04 -0.14,-0.09 -0.22,-0.09 -0.08,0 -0.16,0.08 -0.16,0.16 0,0.15 0.05,0.14 0.17,0.21l0.22 0.12c0.23,0.12 0.97,0.52 1.14,0.58 0.12,0.04 0.25,0.05 0.38,0.04 0.26,-0.02 0.42,-0.14 0.62,-0.24 0.02,-0.01 0.04,-0.02 0.06,-0.03l0.79 -0.43c0.13,-0.08 0.27,-0.09 0.27,-0.25 0,-0.05 -0.03,-0.08 -0.05,-0.11 -0.11,-0.11 -0.2,-0.04 -0.33,0.03 -0.07,0.03 -0.13,0.06 -0.2,0.1l-0.57 0.31c-0.17,0.08 -0.44,0.27 -0.63,0.27z"/>
    <path fill="#292929" d="M1.87 2.57c-0.29,0 -0.31,-0.05 -0.52,-0.16l-0.29 -0.15c-0.04,-0.02 -0.07,-0.04 -0.1,-0.06 -0.01,0 -0.03,-0.01 -0.04,-0.02l-0.54 -0.28c-0.09,-0.05 -0.22,-0.15 -0.33,-0.05 -0.07,0.07 -0.07,0.19 0.01,0.27l1.35 0.71c0.04,0.02 0.08,0.03 0.12,0.05 0.19,0.06 0.42,0.05 0.6,-0.01 0.08,-0.02 0.17,-0.06 0.24,-0.1l0.45 -0.24c0.07,-0.04 0.75,-0.41 0.78,-0.43 0.1,-0.09 0.04,-0.3 -0.12,-0.3 -0.06,0 -0.24,0.1 -0.3,0.14l-0.49 0.26c-0.03,0.02 -0.06,0.03 -0.1,0.05l-0.28 0.16c-0.12,0.06 -0.27,0.16 -0.44,0.16z"/>
   </g>
  </g>
 </g>
</svg>
