<?xml version="1.0" encoding="UTF-8"?>
<!DOCTYPE svg PUBLIC "-//W3C//DTD SVG 1.0//EN" "http://www.w3.org/TR/2001/REC-SVG-20010904/DTD/svg10.dtd">
<!-- Creator: CorelDRAW 2018 (64 Bit Versão de avaliação) -->
<svg xmlns="http://www.w3.org/2000/svg" xml:space="preserve" width="41px" height="41px" version="1.0" shape-rendering="geometricPrecision" text-rendering="geometricPrecision" image-rendering="optimizeQuality" fill-rule="evenodd" clip-rule="evenodd"
viewBox="0 0 1.16 1.16"
 xmlns:xlink="http://www.w3.org/1999/xlink">
 <g id="Camada_x0020_1">
  <metadata id="CorelCorpID_0Corel-Layer"/>
  <g id="_2339351652384">
   <path fill="#292929" d="M0.56 0.1c0.07,-0.01 0.15,0.01 0.2,0.03 0.07,0.03 0.1,0.06 0.15,0.1 0.06,0.05 0.11,0.14 0.13,0.23 0.01,0.03 0.02,0.06 0.02,0.1 0.01,0.06 -0.02,0.15 -0.04,0.2 -0.01,0.05 -0.04,0.08 -0.06,0.12l-0.03 0.03c-0.09,0.09 -0.2,0.14 -0.33,0.15 -0.12,0.01 -0.27,-0.05 -0.35,-0.13 -0.01,-0.01 -0.01,-0.01 -0.02,-0.02 0,0 -0.01,-0.01 -0.01,-0.01 -0.01,-0.01 -0.02,-0.02 -0.03,-0.03 -0.01,-0.03 -0.03,-0.05 -0.04,-0.08 -0.07,-0.13 -0.07,-0.26 -0.02,-0.39 0.04,-0.1 0.09,-0.15 0.16,-0.21 0.08,-0.06 0.17,-0.08 0.27,-0.09zm-0.03 -0.1c-0.11,0.01 -0.19,0.04 -0.27,0.1 -0.04,0.02 -0.05,0.03 -0.08,0.06 -0.01,0.02 -0.02,0.03 -0.04,0.04 -0.01,0.01 -0.02,0.02 -0.03,0.04 -0.03,0.04 -0.06,0.09 -0.07,0.14 -0.06,0.15 -0.05,0.33 0.03,0.47 0.02,0.05 0.06,0.09 0.09,0.13 0.02,0.02 0.02,0.01 0.04,0.03 0.06,0.05 0.1,0.08 0.18,0.11 0.15,0.06 0.33,0.05 0.47,-0.03 0.03,-0.02 0.07,-0.04 0.09,-0.06l0.05 -0.04c0,0 0,-0.01 0.01,-0.01 0.02,-0.03 0.06,-0.07 0.08,-0.1 0.06,-0.11 0.09,-0.22 0.08,-0.35 -0.02,-0.13 -0.07,-0.24 -0.15,-0.33 0,-0.01 0,-0.01 0,-0.01 -0.01,-0.01 -0.02,-0.02 -0.03,-0.03 -0.01,0 -0.02,-0.01 -0.02,-0.02 -0.03,-0.03 -0.12,-0.08 -0.18,-0.1 -0.08,-0.03 -0.16,-0.05 -0.25,-0.04z"/>
   <path fill="#292929" d="M0.42 0.73c0,0.02 -0.01,0.05 -0.02,0.07 0,0.01 0.01,0.02 0.03,0.02 0.03,0.02 0.09,0.02 0.1,0.03 0.02,0.02 0,0.06 0.01,0.08 0.02,0 0.05,0 0.07,0 0,-0.02 0,-0.05 0,-0.07 0.01,-0.04 0.08,-0.02 0.12,-0.1 0.02,-0.03 0.03,-0.07 0.02,-0.11 -0.02,-0.08 -0.1,-0.11 -0.16,-0.13 -0.03,-0.02 -0.07,-0.04 -0.08,-0.07 -0.01,-0.04 0.04,-0.06 0.08,-0.07 0.03,0 0.06,0.01 0.09,0.02 0.01,0 0.02,0.01 0.03,0.01 0,-0.01 0.02,-0.06 0.02,-0.07 -0.01,-0.02 -0.05,-0.03 -0.08,-0.03 -0.05,-0.01 -0.04,-0.02 -0.04,-0.08l-0.05 0c-0.02,0 -0.01,0 -0.01,0.04 0,0.03 -0.01,0.04 -0.03,0.05 -0.04,0.01 -0.07,0.03 -0.09,0.06 -0.02,0.03 -0.03,0.08 -0.01,0.13 0.01,0.03 0.04,0.05 0.07,0.07 0.05,0.03 0.12,0.04 0.15,0.08 0.03,0.05 -0.01,0.14 -0.16,0.09 -0.01,0 -0.02,0 -0.03,-0.01 -0.01,0 -0.02,-0.01 -0.03,-0.01z"/>
  </g>
 </g>
</svg>
