<?xml version="1.0" encoding="UTF-8"?>
<!DOCTYPE svg PUBLIC "-//W3C//DTD SVG 1.0//EN" "http://www.w3.org/TR/2001/REC-SVG-20010904/DTD/svg10.dtd">
<!-- Creator: CorelDRAW 2018 (64 Bit Versão de avaliação) -->
<svg xmlns="http://www.w3.org/2000/svg" xml:space="preserve" width="49px" height="41px" version="1.0" shape-rendering="geometricPrecision" text-rendering="geometricPrecision" image-rendering="optimizeQuality" fill-rule="evenodd" clip-rule="evenodd"
viewBox="0 0 1.91 1.6"
 xmlns:xlink="http://www.w3.org/1999/xlink">
 <g id="Camada_x0020_1">
  <metadata id="CorelCorpID_0Corel-Layer"/>
  <g id="_2427263603472">
   <g>
    <path fill="#292929" d="M0.15 0.96c0,-0.08 0.01,-0.13 0.05,-0.17l0.5 -0.48c0,-0.01 0.01,-0.01 0.01,-0.02l0.07 -0.06c0.02,-0.02 0.04,-0.02 0.07,-0.04 0.04,-0.02 0.1,-0.04 0.16,-0.04l0.75 0 0 1.3 -1.4 0c-0.08,0 -0.09,-0.09 -0.11,-0.15 -0.03,-0.07 -0.06,-0.2 -0.08,-0.27 -0.01,-0.02 -0.02,-0.05 -0.02,-0.07zm-0.15 0.01l0 -0.06 0 0c0,-0.06 0.04,-0.15 0.06,-0.18 0.03,-0.05 0.09,-0.1 0.13,-0.14 0.01,-0.01 0.01,-0.01 0.02,-0.02l0.21 -0.2c0.02,-0.02 0.04,-0.04 0.06,-0.06 0,-0.01 0.01,-0.01 0.01,-0.02 0.01,0 0.01,0 0.02,-0.01 0.03,-0.03 0.06,-0.06 0.09,-0.09 0.06,-0.05 0.05,-0.06 0.13,-0.1 0.07,-0.05 0.18,-0.09 0.27,-0.09l0.84 0c0.03,0 0.07,0.03 0.07,0.07l0 1.46c0,0.04 -0.04,0.07 -0.07,0.07l-1.49 0c-0.03,0 -0.07,-0.01 -0.09,-0.02 -0.03,-0.02 -0.06,-0.04 -0.08,-0.06 -0.01,-0.01 -0.01,-0.02 -0.02,-0.03 -0.02,-0.04 -0.07,-0.19 -0.08,-0.23 -0.01,-0.02 -0.01,-0.03 -0.02,-0.05l-0.04 -0.14c-0.02,-0.05 -0.02,-0.07 -0.02,-0.1z"/>
    <path fill="#292929" d="M1 0.36l0.56 0 0 0.41 -1.04 0 0.25 -0.22c0.03,-0.03 0.06,-0.06 0.09,-0.08 0,-0.01 0.01,-0.01 0.01,-0.02l0.06 -0.05c0.01,0 0.01,-0.01 0.01,-0.01 0.01,-0.01 0.01,-0.01 0.02,-0.02 0.01,0 0.03,-0.01 0.04,-0.01zm-0.75 0.49c0,0.02 0.02,0.04 0.03,0.06 0.02,0.01 0.05,0.01 0.08,0.01l1.24 0c0.06,0 0.11,-0.02 0.11,-0.07l0 -0.57c0,-0.02 -0.03,-0.06 -0.05,-0.07 -0.01,0 -0.02,0 -0.03,0l-0.62 0c-0.05,0 -0.1,0.02 -0.13,0.04l-0.07 0.06c-0.01,0.01 -0.02,0.01 -0.03,0.02 0,0.01 -0.01,0.01 -0.02,0.02l-0.07 0.06c-0.01,0.02 -0.03,0.03 -0.04,0.05l-0.14 0.12c-0.01,0.01 -0.01,0.01 -0.02,0.02l-0.18 0.17c-0.03,0.01 -0.06,0.04 -0.06,0.08z"/>
    <path fill="#292929" d="M1.38 1.05c0,0.05 0.03,0.08 0.07,0.08l0.18 0c0.07,0 0.1,-0.08 0.06,-0.13 -0.01,-0.01 -0.04,-0.02 -0.05,-0.02l-0.19 0c-0.04,0 -0.07,0.03 -0.07,0.07z"/>
   </g>
  </g>
 </g>
</svg>
