<?xml version="1.0" encoding="UTF-8"?>
<!DOCTYPE svg PUBLIC "-//W3C//DTD SVG 1.0//EN" "http://www.w3.org/TR/2001/REC-SVG-20010904/DTD/svg10.dtd">
<!-- Creator: CorelDRAW 2018 (64 Bit Versão de avaliação) -->
<svg xmlns="http://www.w3.org/2000/svg" xml:space="preserve" width="30px" height="41px" version="1.0" shape-rendering="geometricPrecision" text-rendering="geometricPrecision" image-rendering="optimizeQuality" fill-rule="evenodd" clip-rule="evenodd"
viewBox="0 0 1.77 2.48"
 xmlns:xlink="http://www.w3.org/1999/xlink">
 <g id="Camada_x0020_1">
  <metadata id="CorelCorpID_0Corel-Layer"/>
  <path fill="black" d="M0.63 1.12c0.06,0 0.11,0.06 0.11,0.12 0,0.07 -0.05,0.12 -0.11,0.12 -0.07,0 -0.12,-0.05 -0.12,-0.12 0,-0.06 0.05,-0.12 0.12,-0.12zm0.88 1.11c0,0 0,0 0,0 0,0 0,0 -0.01,0l-0.94 0c-0.04,0 -0.29,0 -0.31,0l0 -1.71c0,-0.05 0,-0.1 0,-0.15 0,-0.03 0.01,-0.1 0.03,-0.12l1.23 0c0.01,0.04 0.01,0.08 0.01,0.11 -0.01,0.07 0,0.79 0,0.87 0,0.25 0,0.5 0,0.75 0,0.08 -0.01,0.16 -0.01,0.25zm0.26 -0.18c0.01,-0.14 -0.01,-0.38 -0.01,-0.53 0,-0.17 0,-0.35 0,-0.53 0,-0.18 0,-0.35 0,-0.53 0,-0.16 -0.01,-0.34 -0.13,-0.4 -0.11,-0.05 -0.33,-0.06 -0.47,-0.06 -0.17,0 -0.35,0 -0.53,0 -0.15,0 -0.36,-0.01 -0.47,0.06 -0.15,0.08 -0.16,0.21 -0.16,0.37 0,0.36 0,0.71 0,1.06 0,0.18 0,0.36 0,0.54 0,0.17 0.02,0.32 0.14,0.39 0.13,0.06 0.31,0.06 0.47,0.06 0.18,0 0.35,0 0.53,0 0.15,0 0.36,0.01 0.48,-0.05 0.11,-0.07 0.14,-0.21 0.15,-0.38z"/>
 </g>
</svg>
