<?xml version="1.0" encoding="UTF-8"?>
<!DOCTYPE svg PUBLIC "-//W3C//DTD SVG 1.0//EN" "http://www.w3.org/TR/2001/REC-SVG-20010904/DTD/svg10.dtd">
<!-- Creator: CorelDRAW 2018 (64 Bit Versão de avaliação) -->
<svg xmlns="http://www.w3.org/2000/svg" xml:space="preserve" width="41px" height="41px" version="1.0" shape-rendering="geometricPrecision" text-rendering="geometricPrecision" image-rendering="optimizeQuality" fill-rule="evenodd" clip-rule="evenodd"
viewBox="0 0 3.46 3.46"
 xmlns:xlink="http://www.w3.org/1999/xlink">
 <g id="Camada_x0020_1">
  <metadata id="CorelCorpID_0Corel-Layer"/>
  <path fill="black" d="M3 0c0.25,0 0.46,0.2 0.46,0.45 0,0.25 -0.21,0.46 -0.46,0.46 -0.25,0 -0.45,-0.21 -0.45,-0.46 0,-0.25 0.2,-0.45 0.45,-0.45zm0 2.55c0.25,0 0.46,0.21 0.46,0.46 0,0.25 -0.21,0.45 -0.46,0.45 -0.25,0 -0.45,-0.2 -0.45,-0.45 0,-0.25 0.2,-0.46 0.45,-0.46zm-2.55 0c0.25,0 0.46,0.21 0.46,0.46 0,0.25 -0.21,0.45 -0.46,0.45 -0.25,0 -0.45,-0.2 -0.45,-0.45 0,-0.25 0.2,-0.46 0.45,-0.46zm0 -2.55c0.25,0 0.46,0.2 0.46,0.45 0,0.25 -0.21,0.46 -0.46,0.46 -0.25,0 -0.45,-0.21 -0.45,-0.46 0,-0.25 0.2,-0.45 0.45,-0.45z"/>
 </g>
</svg>
