<?xml version="1.0" encoding="UTF-8"?>
<!DOCTYPE svg PUBLIC "-//W3C//DTD SVG 1.0//EN" "http://www.w3.org/TR/2001/REC-SVG-20010904/DTD/svg10.dtd">
<!-- Creator: CorelDRAW 2018 (64 Bit Versão de avaliação) -->
<svg xmlns="http://www.w3.org/2000/svg" xml:space="preserve" width="41px" height="8px" version="1.0" shape-rendering="geometricPrecision" text-rendering="geometricPrecision" image-rendering="optimizeQuality" fill-rule="evenodd" clip-rule="evenodd"
viewBox="0 0 1.16 0.23"
 xmlns:xlink="http://www.w3.org/1999/xlink">
 <g id="Camada_x0020_1">
  <metadata id="CorelCorpID_0Corel-Layer"/>
  <path fill="black" d="M0.11 0c0.07,0 0.12,0.05 0.12,0.11 0,0.07 -0.05,0.12 -0.12,0.12 -0.06,0 -0.11,-0.05 -0.11,-0.12 0,-0.06 0.05,-0.11 0.11,-0.11zm0.93 0c0.06,0 0.12,0.05 0.12,0.11 0,0.07 -0.06,0.12 -0.12,0.12 -0.06,0 -0.11,-0.05 -0.11,-0.12 0,-0.06 0.05,-0.11 0.11,-0.11zm-0.46 0c0.06,0 0.11,0.05 0.11,0.11 0,0.07 -0.05,0.12 -0.11,0.12 -0.06,0 -0.12,-0.05 -0.12,-0.12 0,-0.06 0.06,-0.11 0.12,-0.11z"/>
 </g>
</svg>
