<?xml version="1.0" encoding="UTF-8"?>
<!DOCTYPE svg PUBLIC "-//W3C//DTD SVG 1.0//EN" "http://www.w3.org/TR/2001/REC-SVG-20010904/DTD/svg10.dtd">
<!-- Creator: CorelDRAW 2018 (64 Bit Versão de avaliação) -->
<svg xmlns="http://www.w3.org/2000/svg" xml:space="preserve" width="42px" height="23px" version="1.0" shape-rendering="geometricPrecision" text-rendering="geometricPrecision" image-rendering="optimizeQuality" fill-rule="evenodd" clip-rule="evenodd"
viewBox="0 0 1.06 0.59"
 xmlns:xlink="http://www.w3.org/1999/xlink">
 <g id="Camada_x0020_1">
  <metadata id="CorelCorpID_0Corel-Layer"/>
  <path fill="black" d="M0.53 0.44l0.01 0c0,-0.01 0,0 0.01,-0.01 0.01,-0.01 0.01,-0.01 0.02,-0.02l0.1 -0.1c0.02,-0.02 0.04,-0.04 0.06,-0.06 0.01,-0.01 0.02,-0.02 0.03,-0.03l0.02 -0.02c0.01,-0.01 0.01,-0.01 0.02,-0.02 0.02,-0.03 0.05,-0.05 0.08,-0.08 0.01,-0.01 0.02,-0.02 0.03,-0.03 0.01,-0.01 0.04,-0.04 0.05,-0.05 0.01,-0.01 0.03,-0.02 0.05,-0.02 0.04,0 0.08,0.07 0.02,0.12l-0.03 0.03c-0.06,0.06 -0.13,0.13 -0.2,0.19 -0.04,0.05 -0.08,0.09 -0.13,0.14 -0.02,0.02 -0.04,0.04 -0.06,0.06l-0.03 0.03c-0.02,0.01 -0.03,0.02 -0.05,0.02 -0.04,0 -0.06,-0.03 -0.08,-0.05 -0.02,-0.03 -0.04,-0.05 -0.06,-0.07l-0.27 -0.26c-0.02,-0.03 -0.05,-0.06 -0.08,-0.08 0,0 0,-0.01 -0.01,-0.01 0,0 0,-0.01 -0.01,-0.01 0,-0.01 -0.02,-0.02 -0.02,-0.04 -0.01,-0.04 0.02,-0.07 0.06,-0.07 0.03,0 0.04,0.02 0.06,0.04 0.01,0 0.01,0.01 0.02,0.01 0.09,0.09 0.17,0.18 0.26,0.27 0.02,0.02 0.04,0.04 0.07,0.06 0,0.01 0.01,0.01 0.01,0.02 0.02,0.01 0.03,0.03 0.05,0.04z"/>
 </g>
</svg>
