<?xml version="1.0" encoding="UTF-8"?>
<!DOCTYPE svg PUBLIC "-//W3C//DTD SVG 1.0//EN" "http://www.w3.org/TR/2001/REC-SVG-20010904/DTD/svg10.dtd">
<!-- Creator: CorelDRAW 2018 (64 Bit Versão de avaliação) -->
<svg xmlns="http://www.w3.org/2000/svg" xml:space="preserve" width="56px" height="41px" version="1.0" shape-rendering="geometricPrecision" text-rendering="geometricPrecision" image-rendering="optimizeQuality" fill-rule="evenodd" clip-rule="evenodd"
viewBox="0 0 1.54 1.12"
 xmlns:xlink="http://www.w3.org/1999/xlink">
 <g id="Camada_x0020_1">
  <metadata id="CorelCorpID_0Corel-Layer"/>
  <path fill="black" d="M0.72 0.12c0.1,-0.01 0.19,0.01 0.27,0.07 0.02,0.02 0.01,0.01 0.03,0.03 0.09,0.08 0.14,0.22 0.1,0.35 0,0.03 -0.01,0.03 0,0.06 0.03,0.07 0.13,0.01 0.21,0.06 0.07,0.03 0.09,0.11 0.08,0.18 -0.02,0.08 -0.08,0.12 -0.16,0.12l-0.68 0c-0.05,0 -0.23,0.01 -0.27,0 -0.07,-0.01 -0.13,-0.07 -0.15,-0.12 -0.02,-0.03 -0.03,-0.06 -0.02,-0.11 0,-0.04 0.01,-0.08 0.03,-0.11 0.09,-0.13 0.19,-0.07 0.22,-0.12 0.04,-0.05 -0.02,-0.14 0.11,-0.29 0.05,-0.06 0.14,-0.11 0.23,-0.12zm0.12 0.52c-0.01,-0.03 0,-0.08 0,-0.11 0,-0.06 0,-0.14 -0.01,-0.2 0,-0.01 0.01,-0.02 0,-0.03 0,-0.08 -0.11,-0.07 -0.12,-0.02 -0.01,0.03 0,0.08 0,0.11 0,0.06 0,0.18 0,0.23 0,0.06 -0.02,-0.01 -0.07,-0.02 -0.03,0 -0.05,0.01 -0.06,0.02 -0.04,0.05 0,0.09 0.02,0.11 0.04,0.03 0.03,0.03 0.06,0.06 0.01,0.01 0.01,0.01 0.02,0.02 0.01,0.01 0.03,0.03 0.04,0.04 0.02,0.01 0.04,0.03 0.06,0.02 0.03,0 0.04,-0.02 0.05,-0.03l0.08 -0.08c0.03,-0.03 0.07,-0.06 0.07,-0.1 0,-0.02 -0.02,-0.04 -0.03,-0.05 -0.05,-0.03 -0.08,0.02 -0.11,0.03zm-0.56 -0.2c0,0 0,0.01 -0.01,0.01 -0.12,0.03 -0.19,0.1 -0.24,0.18 -0.03,0.05 -0.03,0.11 -0.03,0.18 0.01,0.07 0.02,0.11 0.06,0.15 0.05,0.08 0.13,0.15 0.26,0.16 0.04,0.01 0.37,0 0.42,0 0.14,0 0.27,0 0.41,0 0.1,0 0.18,0.01 0.27,-0.05 0.01,-0.01 0.02,-0.01 0.03,-0.02 0.01,-0.02 0.03,-0.04 0.04,-0.06 0.02,-0.03 0.04,-0.07 0.05,-0.11 0.01,-0.1 -0.01,-0.14 -0.05,-0.21 -0.01,-0.03 -0.05,-0.06 -0.08,-0.08 -0.04,-0.03 -0.1,-0.05 -0.16,-0.05 0.01,-0.02 0.01,-0.02 0.01,-0.05 0,-0.02 0,-0.04 0,-0.06 0,-0.03 -0.01,-0.07 -0.02,-0.1 -0.03,-0.07 -0.07,-0.14 -0.12,-0.19 0,0 -0.01,-0.01 -0.02,-0.01 0,0 -0.01,-0.01 -0.01,-0.01 -0.08,-0.06 -0.15,-0.1 -0.26,-0.12 -0.15,-0.02 -0.3,0.04 -0.38,0.11 0,0.01 -0.01,0.01 -0.01,0.01 -0.01,0.01 -0.01,0.01 -0.02,0.02 -0.03,0.03 -0.05,0.07 -0.08,0.11 -0.02,0.04 -0.05,0.13 -0.06,0.19z"/>
 </g>
</svg>
