<?xml version="1.0" encoding="UTF-8"?>
<!DOCTYPE svg PUBLIC "-//W3C//DTD SVG 1.0//EN" "http://www.w3.org/TR/2001/REC-SVG-20010904/DTD/svg10.dtd">
<!-- Creator: CorelDRAW 2018 (64 Bit Versão de avaliação) -->
<svg xmlns="http://www.w3.org/2000/svg" xml:space="preserve" width="28px" height="41px" version="1.0" shape-rendering="geometricPrecision" text-rendering="geometricPrecision" image-rendering="optimizeQuality" fill-rule="evenodd" clip-rule="evenodd"
viewBox="0 0 0.43 0.62"
 xmlns:xlink="http://www.w3.org/1999/xlink">
 <g id="Camada_x0020_1">
  <metadata id="CorelCorpID_0Corel-Layer"/>
  <path fill="black" d="M0.13 0.3c0.01,-0.01 0.02,-0.01 0.02,-0.01 0.02,0 0.02,0 0.03,0.01 0,0 0.01,0 0.01,0 0.01,0 0.01,0 0.01,0 0,0 0,0 0,0.01 0,0 0,0 0,0 -0.01,0.01 -0.01,0.03 0,0.04 0.01,0 0.01,0 0.02,0 0.01,0 0.01,0 0.01,-0.01 0.01,-0.01 0.02,-0.02 0.02,-0.03l0.01 -0.02c0,0 0,0 0,0 0.01,0 0.01,0 0.01,0 0.01,0 0.02,0 0.03,0.01 0,0 -0.01,0.01 -0.01,0.01l-0.01 0.02c-0.01,0 -0.01,0 -0.01,0 -0.01,0.01 -0.01,0.02 -0.02,0.03l-0.03 0.05c0,0 0,0 -0.01,0.01l0 0c0,-0.01 -0.01,-0.02 -0.01,-0.02 0,-0.01 -0.01,-0.02 -0.01,-0.03l-0.02 -0.02c-0.01,-0.01 -0.02,-0.02 -0.02,-0.03l-0.02 -0.02c0,0 0,0 0,0zm0.23 -0.3l0.01 0c0.01,0 0.01,0 0.02,0.01 0,0 0,0.01 0,0.01 0,0.01 0,0.01 0,0.01l-0.01 0.01c0,0.01 -0.01,0.03 -0.01,0.03 0,0.01 -0.01,0.02 -0.01,0.03 0,0 -0.01,0 -0.01,0 0,0.01 0,0.01 0,0.01l-0.01 0.02c0,0 0,0 0,0 0,0.01 -0.01,0.02 -0.01,0.02l0.06 0c0.01,0 0.02,0 0.03,0.01 0,0 0.01,0.01 0.01,0.01 0,0.01 0,0.02 -0.01,0.02 0,0.01 0,0.01 0,0.01l-0.01 0.02c0,0 0,0 0,0 0,0 0,0 -0.01,0 0,0 0,0 0,0.01l0 0c-0.01,0.01 -0.01,0.02 -0.02,0.02 0,0 0,0.01 0,0.01l-0.06 0.09c-0.01,0 -0.01,0.01 -0.01,0.01 0,0 0,0 0,0 0,0 0,0.01 -0.01,0.01 0,0 0,0 0,0.01l-0.01 0.01c0,0 0,0 0,0 -0.01,0.01 -0.02,0.02 -0.02,0.03l-0.02 0.03c0,0 0,0 -0.01,0.01 0,0 0,0 0,0.01l0 0.11 0.11 0c0.01,0 0.01,0 0.01,0 0.01,0 0.01,0.01 0.01,0.02 0,0.01 -0.01,0.02 -0.02,0.02l-0.27 0c-0.01,0 -0.01,0 -0.02,0 -0.01,-0.02 0,-0.04 0.02,-0.04l0.11 0 0 -0.12c0,0 0,0 0,0 -0.01,-0.02 -0.02,-0.03 -0.03,-0.04l0 -0.01c-0.01,0 -0.01,0 -0.01,0 0,0 0,-0.01 0,-0.01 0,0 0,0 -0.01,-0.01 0,0 0,0 0,0 0,0 0,0 0,-0.01 0,0 0,0 0,0l-0.02 -0.02c0,0 0,0 0,0l-0.04 -0.06c0,0 0,0 0,0l-0.01 -0.01c0,-0.01 -0.01,-0.01 -0.01,-0.02 -0.01,-0.01 -0.01,-0.01 -0.01,-0.02 -0.01,0 -0.01,-0.01 -0.02,-0.02 -0.01,-0.01 -0.02,-0.03 -0.03,-0.04 0,0 0,0 0,0 0,0 0,-0.01 0,-0.01 0,-0.01 0,-0.02 0.02,-0.02 0,-0.01 0.02,-0.01 0.03,-0.01l0.23 0 0.01 -0.03c0.02,-0.02 0.03,-0.05 0.05,-0.08 0,-0.01 0,-0.02 0.01,-0.03 0,0 0,-0.01 0.01,-0.01 0,0 0,0 0,0zm-0.04 0.26l-0.01 -0.01c-0.01,0 -0.02,-0.01 -0.03,-0.01l0.03 -0.04 0.04 0c0,0 0.01,0 0.01,0 0,0 0,0 0,0 -0.01,0.01 -0.01,0.02 -0.02,0.03l-0.01 0.01c0,0.01 0,0.01 0,0.01 0,0 -0.01,0.01 -0.01,0.01zm-0.25 -0.06l0.18 0c0,0 -0.02,0.04 -0.02,0.05 0,0.01 0,0.01 -0.02,0.01 -0.01,0 -0.03,-0.03 -0.08,-0.01 -0.01,0 -0.02,0.01 -0.02,0.01 -0.01,0 -0.02,-0.03 -0.03,-0.03l-0.01 -0.03z"/>
 </g>
</svg>
