<?xml version="1.0" encoding="UTF-8"?>
<!DOCTYPE svg PUBLIC "-//W3C//DTD SVG 1.0//EN" "http://www.w3.org/TR/2001/REC-SVG-20010904/DTD/svg10.dtd">
<!-- Creator: CorelDRAW 2018 (64 Bit Versão de avaliação) -->
<svg xmlns="http://www.w3.org/2000/svg" xml:space="preserve" width="41px" height="41px" version="1.0" shape-rendering="geometricPrecision" text-rendering="geometricPrecision" image-rendering="optimizeQuality" fill-rule="evenodd" clip-rule="evenodd"
viewBox="0 0 2.48 2.48"
 xmlns:xlink="http://www.w3.org/1999/xlink">
 <g id="Camada_x0020_1">
  <metadata id="CorelCorpID_0Corel-Layer"/>
  <g id="_2282962206928">
   <g>
    <path fill="black" d="M0.2 2.48c0.08,0 0.46,-0.05 0.52,-0.07 0.05,-0.02 0.07,-0.04 0.11,-0.08 0.06,-0.06 1.15,-1.14 1.17,-1.17l-0.68 -0.68c-0.03,0.01 -0.2,0.19 -0.23,0.22l-0.98 0.99c-0.07,0.07 -0.07,0.24 -0.09,0.35l-0.02 0.2c-0.01,0.12 0.09,0.24 0.2,0.24z"/>
    <path fill="black" d="M1.44 0.36l0.68 0.69 0.18 -0.18c0.05,-0.05 0.13,-0.13 0.16,-0.19 0.04,-0.1 0.02,-0.2 -0.03,-0.27l-0.36 -0.35c-0.06,-0.06 -0.17,-0.08 -0.27,-0.04 -0.07,0.03 -0.21,0.18 -0.28,0.25 -0.02,0.02 -0.07,0.06 -0.08,0.09z"/>
   </g>
  </g>
 </g>
</svg>
