<?xml version="1.0" encoding="UTF-8"?>
<!DOCTYPE svg PUBLIC "-//W3C//DTD SVG 1.0//EN" "http://www.w3.org/TR/2001/REC-SVG-20010904/DTD/svg10.dtd">
<!-- Creator: CorelDRAW 2018 (64 Bit Versão de avaliação) -->
<svg xmlns="http://www.w3.org/2000/svg" xml:space="preserve" width="41px" height="41px" version="1.0" shape-rendering="geometricPrecision" text-rendering="geometricPrecision" image-rendering="optimizeQuality" fill-rule="evenodd" clip-rule="evenodd"
viewBox="0 0 1.33 1.33"
 xmlns:xlink="http://www.w3.org/1999/xlink">
 <g id="Camada_x0020_1">
  <metadata id="CorelCorpID_0Corel-Layer"/>
  <path fill="black" d="M0.94 0.6c-0.01,0.01 -0.04,0.04 -0.05,0.05 -0.01,0.01 -0.03,0.03 -0.04,0.04 -0.1,0.11 -0.21,0.21 -0.32,0.31 0,0.01 -0.01,0.02 -0.02,0.03 -0.03,0.03 -0.09,0.09 -0.11,0.11 -0.01,0.01 -0.01,0.01 -0.02,0.02 -0.03,0.03 -0.06,0.04 -0.1,0.04 -0.04,0.01 -0.12,0.03 -0.15,0 -0.02,-0.03 0,-0.11 0,-0.16 0.01,-0.03 0.01,-0.04 0.02,-0.06 0.03,-0.04 0.04,-0.04 0.06,-0.06 0.04,-0.05 0.08,-0.08 0.12,-0.13 0.1,-0.1 0.21,-0.21 0.32,-0.31 0,-0.01 0.01,-0.02 0.02,-0.02l0.03 -0.04c0.01,0 0.02,-0.02 0.04,-0.02 0.01,0 0.02,0.01 0.02,0.02 0.01,0.01 0.02,0.02 0.03,0.03 0.02,0.01 0.03,0.03 0.05,0.05 0.01,0.01 0.03,0.03 0.05,0.05 0.01,0.01 0.03,0.03 0.05,0.05zm-0.06 -0.35c0,-0.01 0.05,-0.05 0.06,-0.06 0.08,-0.08 0.11,-0.11 0.2,0 0.01,0.02 0.05,0.04 0.06,0.06 0.02,0.03 0.02,0.06 0,0.09 -0.01,0.01 -0.04,0.05 -0.06,0.06 -0.01,0.01 -0.04,0.05 -0.06,0.05 -0.01,0 -0.02,-0.01 -0.03,-0.02 0,0 0,-0.01 -0.01,-0.01l-0.1 -0.1c-0.02,-0.02 -0.03,-0.03 -0.04,-0.04 -0.01,-0.01 -0.01,-0.02 -0.02,-0.03zm0.45 0.06c0.01,-0.05 -0.01,-0.09 -0.03,-0.13 -0.02,-0.02 -0.06,-0.06 -0.08,-0.08 -0.02,-0.01 -0.03,-0.03 -0.05,-0.04 -0.04,-0.05 -0.12,-0.07 -0.18,-0.05 -0.06,0.01 -0.08,0.04 -0.12,0.07 0,0.01 0,0.01 -0.01,0.01 -0.02,0.03 -0.05,0.06 -0.08,0.09 -0.01,0.01 -0.02,0.02 -0.04,0.04 0,0.01 -0.01,0.02 -0.02,0.02 -0.01,0.02 0,0.01 -0.02,0.02 -0.01,0 -0.02,0.02 -0.02,0.02 -0.02,0.01 -0.03,0.03 -0.04,0.04l-0.09 0.09c-0.02,0.02 -0.05,0.05 -0.08,0.08 -0.06,0.05 -0.11,0.11 -0.17,0.16l-0.21 0.21c-0.01,0.02 -0.02,0.03 -0.03,0.05 -0.03,0.04 -0.04,0.06 -0.05,0.12 0,0.06 -0.03,0.16 0.01,0.22 0.03,0.06 0.09,0.09 0.17,0.08 0.04,0 0.1,-0.01 0.14,-0.02 0.1,-0.02 0.13,-0.06 0.2,-0.13 0.01,-0.01 0.02,-0.01 0.02,-0.02l0.06 -0.06c0.03,-0.03 0.06,-0.06 0.09,-0.09 0.11,-0.11 0.22,-0.22 0.33,-0.33 0.01,-0.01 0.03,-0.03 0.04,-0.04 0.02,-0.03 0.02,-0.03 0.04,-0.05 0.03,-0.01 0.07,-0.06 0.09,-0.08 0.06,-0.06 0.12,-0.1 0.13,-0.2z"/>
 </g>
</svg>
