<?xml version="1.0" encoding="UTF-8"?>
<!DOCTYPE svg PUBLIC "-//W3C//DTD SVG 1.0//EN" "http://www.w3.org/TR/2001/REC-SVG-20010904/DTD/svg10.dtd">
<!-- Creator: CorelDRAW 2018 (64 Bit Versão de avaliação) -->
<svg xmlns="http://www.w3.org/2000/svg" xml:space="preserve" width="41px" height="41px" version="1.0" shape-rendering="geometricPrecision" text-rendering="geometricPrecision" image-rendering="optimizeQuality" fill-rule="evenodd" clip-rule="evenodd"
viewBox="0 0 1.31 1.32"
 xmlns:xlink="http://www.w3.org/1999/xlink">
 <g id="Camada_x0020_1">
  <metadata id="CorelCorpID_0Corel-Layer"/>
  <path fill="black" d="M0.62 0.53l0 0 0.17 0 0 0.67 0 0 -0.17 0 0 -0.67zm0.39 0.02l0 0.02c0,0.02 0.02,0.04 0.04,0.04 0.04,0 0.04,0 0.07,-0.04 0.01,-0.01 0.03,-0.03 0.04,-0.04 0.03,0.02 0.07,0.08 0.1,0.08l0.01 0c0.02,0 0.04,-0.02 0.04,-0.04 0,-0.03 0,-0.03 -0.02,-0.06 -0.02,-0.01 -0.03,-0.02 -0.04,-0.04 -0.02,-0.02 -0.06,-0.06 -0.08,-0.06 -0.03,0 -0.03,0 -0.06,0.03l-0.07 0.07c-0.01,0.01 -0.03,0.02 -0.03,0.04zm0 0.21c0,0.03 0,0.03 0.03,0.05l0.07 0.08c0.03,0.02 0.03,0.03 0.06,0.03 0.02,0 0.03,-0.02 0.04,-0.03l0.07 -0.07c0.03,-0.03 0.03,-0.03 0.03,-0.06 0,-0.02 -0.02,-0.05 -0.04,-0.05 -0.03,0 -0.03,0.01 -0.06,0.04 -0.02,0.01 -0.04,0.03 -0.05,0.04 -0.03,-0.02 -0.07,-0.08 -0.09,-0.08l-0.02 0c-0.02,0 -0.04,0.03 -0.04,0.05zm-0.7 -0.48c0,0 0,0.01 0,0.01 0.01,0.02 0.02,0.02 0.03,0.03 0,0 0.01,0.01 0.02,0.01l0.4 0c0.02,0 0.05,-0.03 0.05,-0.04 0.01,-0.02 0,-0.02 0,-0.04 0,0 0,-0.01 0,-0.01 0,-0.01 -0.01,-0.01 -0.01,-0.02 -0.01,-0.01 -0.02,-0.02 -0.04,-0.02l-0.4 0c-0.02,0 -0.04,0.02 -0.05,0.03 -0.01,0.02 0,0.03 0,0.05zm0.02 0.25l0.17 0 0 0 0 0.67 -0.17 0 0 -0.67zm-0.33 -0.48l0 1.23c0,0 0,0 0,0l0 0c0,0.01 0.01,0.02 0.02,0.03 0.01,0 0.01,0.01 0.01,0.01 0.01,0 0.01,0 0.02,0l0 0 1.02 0c0.01,0 0.02,0 0.04,-0.02 0,0 0.01,-0.01 0.01,-0.01l0 -0.01c0,0 0,0 0,0l0 -0.25c0,0 0,-0.01 0,-0.01 -0.01,-0.04 -0.06,-0.05 -0.09,-0.03 -0.01,0 -0.02,0.01 -0.03,0.02 0,0.01 0,0.01 0,0.02 0,0.01 0,0.16 0,0.17l-0.08 0 0 -0.72c0,-0.02 0,-0.03 -0.01,-0.04 -0.01,-0.01 -0.01,-0.02 -0.02,-0.02 -0.02,-0.01 -0.02,-0.01 -0.04,-0.01l-0.58 0c-0.01,0 -0.02,0 -0.03,0 -0.01,0.01 -0.02,0.01 -0.02,0.02 -0.02,0.02 -0.02,0.03 -0.02,0.05l0 0.72 -0.08 0 0 -1.08 0.88 0c0,0.01 0,0.17 0,0.17 0,0.01 0,0.01 0,0.02 0.01,0.01 0.02,0.02 0.03,0.03 0.03,0.01 0.08,0 0.09,-0.04 0,0 0,-0.01 0,-0.01l0 -0.24c0,0 0,-0.01 -0.01,-0.02 0,0 0,0 0,-0.01 -0.01,0 -0.01,0 -0.01,-0.01 -0.01,-0.01 -0.03,-0.01 -0.03,-0.01l-1.02 0 -0.01 0c-0.01,0.01 -0.03,0.02 -0.04,0.04l0 0.01z"/>
 </g>
</svg>
