<?xml version="1.0" encoding="UTF-8"?>
<!DOCTYPE svg PUBLIC "-//W3C//DTD SVG 1.0//EN" "http://www.w3.org/TR/2001/REC-SVG-20010904/DTD/svg10.dtd">
<!-- Creator: CorelDRAW 2018 (64 Bit Versão de avaliação) -->
<svg xmlns="http://www.w3.org/2000/svg" xml:space="preserve" width="41px" height="41px" version="1.0" shape-rendering="geometricPrecision" text-rendering="geometricPrecision" image-rendering="optimizeQuality" fill-rule="evenodd" clip-rule="evenodd"
viewBox="0 0 0.91 0.91"
 xmlns:xlink="http://www.w3.org/1999/xlink">
 <g id="Camada_x0020_1">
  <metadata id="CorelCorpID_0Corel-Layer"/>
  <g id="_1447904207408">
   <g>
    <path fill="black" d="M0.46 0.83c-0.08,0 -0.16,-0.02 -0.22,-0.06 -0.02,-0.02 -0.04,-0.03 -0.06,-0.05 0,-0.01 0,-0.01 0,-0.01 -0.02,-0.01 -0.04,-0.05 -0.05,-0.07 -0.01,-0.01 -0.01,-0.02 -0.02,-0.03 0,0 0,-0.01 0,-0.01 -0.01,-0.01 -0.01,-0.01 -0.01,-0.02 -0.02,-0.04 -0.02,-0.08 -0.02,-0.13 0,-0.08 0.03,-0.15 0.07,-0.21 0.01,-0.02 0.02,-0.03 0.03,-0.04 0,0 0.01,-0.01 0.01,-0.01l0.02 -0.02c0.01,-0.01 0.01,-0.01 0.01,-0.01l0.05 -0.03c0,0 0,-0.01 0.01,-0.01 0.03,-0.02 0.06,-0.02 0.09,-0.03 0.01,-0.01 0.03,-0.01 0.04,-0.01l0.05 0c0.03,0 0.05,0 0.08,0.01 0.08,0.02 0.13,0.04 0.18,0.1l0.03 0.02c0,0.01 0.01,0.02 0.02,0.03 0.04,0.06 0.06,0.13 0.06,0.22 0,0.1 -0.04,0.19 -0.11,0.26l-0.01 0.02c-0.06,0.06 -0.16,0.09 -0.25,0.09zm-0.46 -0.37l0 -0.03 0 0c0,-0.07 0.04,-0.18 0.09,-0.24 0.04,-0.06 0.07,-0.09 0.14,-0.13 0.01,-0.01 0.02,-0.01 0.03,-0.02 0.08,-0.03 0.13,-0.04 0.21,-0.04 0.08,0 0.17,0.03 0.23,0.07 0.01,0.01 0.01,0.01 0.02,0.01l0.02 0.02c0.01,0 0.01,0 0.01,0.01 0,0 0.01,0 0.01,0.01 0.02,0.02 0.04,0.04 0.06,0.06 0.03,0.03 0.05,0.07 0.06,0.12 0.02,0.04 0.03,0.08 0.03,0.13 0,0.08 0,0.11 -0.02,0.18 -0.01,0.01 -0.01,0.01 -0.01,0.02 0,0.01 -0.01,0.01 -0.01,0.02 -0.04,0.08 -0.08,0.13 -0.15,0.18 -0.01,0.01 -0.02,0.01 -0.03,0.02 -0.1,0.06 -0.23,0.07 -0.34,0.05 -0.06,-0.01 -0.11,-0.04 -0.16,-0.07 -0.01,-0.01 -0.04,-0.04 -0.06,-0.05l-0.02 -0.02c-0.02,-0.03 -0.05,-0.08 -0.07,-0.11 -0.01,-0.02 -0.02,-0.06 -0.03,-0.08 -0.01,-0.05 -0.01,-0.07 -0.01,-0.11z"/>
    <path fill="black" d="M0.43 0.69c0.08,0 0.14,-0.01 0.19,-0.04 0.02,-0.01 0.02,-0.01 0.04,-0.03l0.02 -0.01c0.01,-0.01 0.04,-0.05 0.04,-0.06 0,-0.06 -0.05,-0.05 -0.06,-0.04 -0.01,0.01 -0.02,0.03 -0.05,0.05 -0.08,0.08 -0.26,0.07 -0.33,-0.02 -0.01,-0.02 -0.02,-0.04 -0.05,-0.04 -0.02,0 -0.05,0.03 -0.03,0.07 0.02,0.02 0.05,0.05 0.08,0.07 0.01,0.01 0.04,0.02 0.06,0.03 0.02,0.01 0.06,0.02 0.09,0.02z"/>
    <path fill="black" d="M0.25 0.34c0,0.01 0,0.03 0.01,0.03 0,0.01 0.01,0.02 0.02,0.03 0,0 0.01,0 0.01,0.01 0.05,0.02 0.09,-0.02 0.09,-0.06 0,-0.02 0,-0.02 0,-0.04 -0.01,0 -0.01,0 -0.01,0 -0.02,-0.03 -0.05,-0.04 -0.08,-0.02 -0.02,0.01 -0.04,0.03 -0.04,0.05z"/>
    <path fill="black" d="M0.53 0.33c0,0.02 0,0.03 0.01,0.04 0,0.02 0.01,0.03 0.03,0.04 0.03,0.01 0.05,0 0.07,-0.02 0.04,-0.03 0.02,-0.11 -0.04,-0.11 -0.04,0 -0.07,0.03 -0.07,0.05z"/>
   </g>
  </g>
 </g>
</svg>
