<?xml version="1.0" encoding="UTF-8"?>
<!DOCTYPE svg PUBLIC "-//W3C//DTD SVG 1.0//EN" "http://www.w3.org/TR/2001/REC-SVG-20010904/DTD/svg10.dtd">
<!-- Creator: CorelDRAW 2018 (64 Bit Versão de avaliação) -->
<svg xmlns="http://www.w3.org/2000/svg" xml:space="preserve" width="27px" height="41px" version="1.0" shape-rendering="geometricPrecision" text-rendering="geometricPrecision" image-rendering="optimizeQuality" fill-rule="evenodd" clip-rule="evenodd"
viewBox="0 0 1.07 1.67"
 xmlns:xlink="http://www.w3.org/1999/xlink">
 <g id="Camada_x0020_1">
  <metadata id="CorelCorpID_0Corel-Layer"/>
  <g id="_2890067750432">
   <g>
    <path fill="black" d="M0.25 0.49c0,-0.08 0.08,-0.05 0.18,-0.08 0.01,-0.02 0.03,-0.06 0.04,-0.09 0.02,-0.02 0.03,-0.06 0.07,-0.06 0.05,0 0.07,0.1 0.1,0.15 0.01,0.01 0.02,0.01 0.05,0.01 0.08,0.01 0.14,0.01 0.14,0.07 0,0.02 -0.01,0.02 -0.03,0.03 -0.02,0.03 -0.08,0.09 -0.09,0.1 0.01,0.04 0.01,0.08 0.02,0.11 0,0.03 0.01,0.04 0,0.06 -0.03,0.05 -0.08,0.01 -0.12,-0.01 -0.1,-0.05 -0.05,-0.05 -0.15,0 -0.03,0.02 -0.09,0.06 -0.11,0.01 -0.02,-0.02 -0.01,-0.03 -0.01,-0.06 0.01,-0.03 0.02,-0.07 0.02,-0.11 -0.01,-0.01 -0.07,-0.07 -0.09,-0.09 -0.01,-0.02 -0.02,-0.02 -0.02,-0.04zm-0.25 0.02l0 0.05c0,0.16 0.09,0.28 0.18,0.41l0.3 0.46c0.02,0.03 0.03,0.04 0.06,0.04 0.03,0 0.04,-0.02 0.05,-0.04 0.01,-0.02 0.02,-0.03 0.04,-0.05 0.02,-0.04 0.04,-0.07 0.07,-0.11l0.29 -0.44c0.04,-0.06 0.08,-0.17 0.08,-0.27 0,-0.12 -0.01,-0.2 -0.07,-0.29 -0.09,-0.15 -0.26,-0.27 -0.44,-0.27 -0.1,0 -0.17,0.01 -0.25,0.05 -0.1,0.05 -0.18,0.11 -0.24,0.22 -0.01,0.01 -0.01,0.02 -0.02,0.04 -0.02,0.05 -0.05,0.13 -0.05,0.2z"/>
    <path fill="black" d="M0 1.41c0,0.06 0.01,0.07 0.04,0.12 0.01,0 0.02,0.01 0.03,0.02 0.09,0.08 0.3,0.12 0.43,0.12 0.14,0 0.26,-0.01 0.39,-0.06 0.07,-0.03 0.18,-0.09 0.18,-0.18 0,-0.07 -0.02,-0.1 -0.08,-0.14 -0.02,-0.02 -0.11,-0.07 -0.15,-0.07 0,0.01 -0.11,0.17 -0.13,0.2 -0.04,0.07 -0.08,0.15 -0.17,0.15 -0.1,0 -0.13,-0.08 -0.18,-0.15 -0.02,-0.03 -0.04,-0.07 -0.06,-0.1 -0.01,-0.01 -0.07,-0.09 -0.07,-0.1 -0.05,0 -0.23,0.09 -0.23,0.19z"/>
    <path fill="black" d="M0.4 0.51c0.01,0.03 0.06,0.05 0.06,0.09 0,0.03 -0.01,0.05 -0.01,0.08 0.1,-0.05 0.07,-0.05 0.17,0 0,-0.03 -0.01,-0.05 -0.01,-0.08 0,-0.04 0.06,-0.06 0.06,-0.09 -0.01,0 -0.08,0 -0.09,-0.02 -0.01,0 -0.04,-0.06 -0.04,-0.07l-0.01 0c0,0.01 -0.03,0.07 -0.03,0.07 -0.02,0.02 -0.08,0.02 -0.1,0.02z"/>
   </g>
  </g>
 </g>
</svg>
