<?xml version="1.0" encoding="UTF-8"?>
<!DOCTYPE svg PUBLIC "-//W3C//DTD SVG 1.0//EN" "http://www.w3.org/TR/2001/REC-SVG-20010904/DTD/svg10.dtd">
<!-- Creator: CorelDRAW 2018 (64 Bit Versão de avaliação) -->
<svg xmlns="http://www.w3.org/2000/svg" xml:space="preserve" width="43px" height="41px" version="1.0" shape-rendering="geometricPrecision" text-rendering="geometricPrecision" image-rendering="optimizeQuality" fill-rule="evenodd" clip-rule="evenodd"
viewBox="0 0 2.69 2.57"
 xmlns:xlink="http://www.w3.org/1999/xlink">
 <g id="Camada_x0020_1">
  <metadata id="CorelCorpID_0Corel-Layer"/>
  <g id="_2039419963024">
   <g>
    <path fill="#292929" d="M1.75 1.09c0.17,0 0.36,0.1 0.45,0.24 0.05,0.08 0.1,0.18 0.1,0.29 0,0.13 0,0.21 -0.06,0.31 -0.01,0.01 -0.01,0.02 -0.02,0.03 -0.05,0.08 -0.05,0.08 -0.12,0.14l-0.04 0.04c-0.02,0.01 -0.06,0.03 -0.08,0.05 -0.1,0.05 -0.16,0.05 -0.27,0.05 -0.09,0 -0.17,-0.02 -0.23,-0.05 -0.02,-0.01 -0.04,-0.02 -0.06,-0.03 -0.12,-0.08 -0.21,-0.19 -0.25,-0.34 -0.02,-0.04 -0.02,-0.08 -0.02,-0.13 0.02,0 0.09,-0.03 0.11,-0.04 0,0.08 0.02,0.14 0.04,0.19 0.04,0.1 0.11,0.18 0.21,0.23 0.09,0.05 0.13,0.05 0.23,0.05 0.09,0 0.17,-0.03 0.22,-0.06 0.02,-0.01 0.03,-0.02 0.05,-0.03 0,-0.01 0.01,-0.01 0.02,-0.02 0.02,-0.02 0.07,-0.06 0.07,-0.11 0,-0.04 0,-0.06 -0.04,-0.09 -0.04,-0.04 -0.09,-0.04 -0.14,-0.01 -0.01,0.01 -0.02,0.02 -0.03,0.02 -0.06,0.06 -0.13,0.09 -0.22,0.07 -0.02,-0.01 -0.05,-0.02 -0.06,-0.03 -0.01,0 -0.02,-0.01 -0.03,-0.01 -0.02,-0.02 -0.05,-0.05 -0.06,-0.07l0.22 0c0.05,-0.01 0.07,-0.01 0.1,-0.03 0.06,-0.05 0.04,-0.16 -0.03,-0.19 -0.04,-0.01 -0.18,-0.01 -0.24,-0.01 -0.02,0 -0.03,0 -0.05,0 0.03,-0.06 0.11,-0.12 0.17,-0.12 0.07,0 0.13,0.01 0.17,0.05 0.04,0.03 0.08,0.07 0.13,0.07 0.07,0 0.2,-0.11 0.02,-0.25 -0.08,-0.06 -0.19,-0.1 -0.29,-0.1 0,-0.01 0,-0.02 0.01,-0.03 0,-0.01 0.02,-0.07 0.02,-0.08zm-0.73 0.39c-0.1,0 -0.2,0 -0.3,-0.05 -0.1,-0.05 -0.15,-0.09 -0.22,-0.18 -0.06,-0.07 -0.11,-0.2 -0.11,-0.3 0,-0.07 0,-0.12 0.01,-0.2l0.03 -0.07c0.03,-0.05 0.04,-0.09 0.08,-0.14 0.07,-0.07 0.03,-0.04 0.14,-0.12 0.06,-0.05 0.18,-0.09 0.26,-0.09l0.07 -0.01c0.09,0.02 0.14,0.02 0.23,0.06 0.08,0.03 0.15,0.09 0.21,0.15 0.03,0.04 0.06,0.1 0.08,0.14 0.06,0.15 0.07,0.32 0,0.46 -0.03,0.06 -0.07,0.12 -0.11,0.17l-0.05 0.05c-0.04,0.03 -0.1,0.07 -0.15,0.09 -0.02,0.01 -0.03,0.01 -0.05,0.02 -0.03,0.01 -0.08,0.02 -0.12,0.02zm-0.86 -0.59c0,0.1 0.02,0.25 0.07,0.34 0.03,0.07 0.01,0.04 0.05,0.09l0.08 0.12c0.01,0.01 0.02,0.01 0.03,0.02l0.02 0.03c0.05,0.05 0.11,0.09 0.17,0.12 0.09,0.05 0.14,0.07 0.25,0.09 0.02,0.01 0.06,0.01 0.09,0.01 0,0.07 0.03,0.18 0.05,0.24 0.05,0.13 0.1,0.2 0.2,0.3 0.05,0.05 0.16,0.12 0.23,0.15 0.08,0.04 0.21,0.07 0.33,0.07 0.13,0 0.23,-0.03 0.32,-0.07 0.05,-0.02 0.09,-0.05 0.13,-0.07 0.03,-0.02 0.07,-0.05 0.09,-0.07 0.01,-0.01 0.01,-0.01 0.02,-0.02 0.01,-0.01 0.02,-0.02 0.03,-0.03 0.01,-0.01 0.01,-0.01 0.02,-0.02 0.02,-0.02 0.03,-0.04 0.04,-0.06 0.15,-0.2 0.19,-0.48 0.11,-0.71 0,-0.03 -0.01,-0.05 -0.02,-0.07 -0.03,-0.07 -0.03,-0.07 -0.07,-0.13 -0.02,-0.03 -0.05,-0.06 -0.07,-0.1 -0.03,-0.03 -0.13,-0.11 -0.18,-0.14 -0.06,-0.04 -0.12,-0.07 -0.19,-0.09 -0.03,-0.01 -0.05,-0.02 -0.08,-0.02 -0.01,0 -0.03,-0.01 -0.04,-0.01 -0.07,-0.01 -0.07,0 -0.07,-0.03 0,-0.04 -0.03,-0.15 -0.04,-0.2 -0.04,-0.09 -0.09,-0.2 -0.17,-0.27l-0.03 -0.04c-0.09,-0.07 -0.1,-0.09 -0.22,-0.15 -0.07,-0.03 -0.2,-0.07 -0.31,-0.07 -0.21,0 -0.32,0.03 -0.5,0.14 -0.03,0.03 -0.09,0.08 -0.12,0.11l-0.08 0.09c-0.08,0.12 -0.14,0.3 -0.14,0.45z"/>
    <path fill="#292929" d="M0 1.9l0 0c0,0.04 0,0.07 0.03,0.1 0.03,0.03 0.09,0.04 0.13,0.01 0.03,-0.01 0.04,-0.02 0.04,-0.03l0.08 0.1c0.04,0.06 0.08,0.11 0.14,0.16l0.09 0.08c0.01,0.02 0.05,0.04 0.07,0.06 0.05,0.04 0.11,0.06 0.16,0.1 0.06,0.03 0.19,0.09 0.27,0.09 0.03,0 0.07,-0.04 0.09,-0.07 0.01,-0.04 0.01,-0.07 -0.01,-0.1 -0.03,-0.05 -0.1,-0.06 -0.16,-0.09 -0.04,-0.01 -0.07,-0.03 -0.1,-0.05 -0.08,-0.04 -0.19,-0.12 -0.25,-0.18 -0.01,-0.01 -0.02,-0.01 -0.03,-0.02 0,-0.01 0,-0.01 -0.01,-0.02l-0.09 -0.11c-0.01,-0.01 -0.01,-0.02 -0.02,-0.02 0,-0.01 -0.01,-0.02 -0.01,-0.03 0.11,-0.01 0.14,-0.16 0.05,-0.21 -0.02,-0.01 -0.05,-0.02 -0.07,-0.03 -0.05,-0.01 -0.18,-0.06 -0.21,-0.06 -0.11,0 -0.13,0.12 -0.16,0.22 -0.01,0.02 -0.03,0.08 -0.03,0.1z"/>
    <path fill="#292929" d="M2.28 0.69c-0.06,0 -0.11,0.05 -0.11,0.09 0,0.05 0,0.08 0.05,0.12 0.03,0.01 0.14,0.05 0.19,0.06 0.12,0.05 0.17,0.05 0.22,-0.1l0.04 -0.1c0.01,-0.03 0.02,-0.06 0.02,-0.1l0 -0.02c0,-0.03 -0.01,-0.05 -0.03,-0.07 -0.04,-0.03 -0.1,-0.04 -0.14,-0.01 -0.02,0.01 -0.02,0.02 -0.03,0.03l-0.11 -0.15c-0.01,-0.01 -0.02,-0.02 -0.02,-0.02 -0.03,-0.03 -0.05,-0.06 -0.09,-0.09l-0.04 -0.04c-0.01,-0.01 -0.02,-0.01 -0.03,-0.02 -0.05,-0.06 -0.18,-0.14 -0.25,-0.18l-0.12 -0.05c-0.04,-0.02 -0.09,-0.04 -0.15,-0.04 -0.03,0 -0.08,0.05 -0.09,0.09 -0.01,0.05 0.01,0.09 0.06,0.12 0.02,0.01 0.1,0.04 0.13,0.05l0.06 0.03c0.01,0.01 0.02,0.01 0.03,0.02 0.05,0.03 0.1,0.05 0.14,0.09l0.07 0.06c0.03,0.03 0.05,0.04 0.07,0.07l0.08 0.1c0.01,0.01 0.02,0.02 0.03,0.03 0,0.01 0.01,0.02 0.02,0.03z"/>
    <path fill="#292929" d="M0.87 0.52c-0.07,0.02 -0.16,0.13 -0.16,0.21 0,0.11 0.04,0.17 0.1,0.22 0.09,0.07 0.21,0.03 0.21,0.1 0,0.11 -0.15,0.04 -0.24,0.07 -0.06,0.02 -0.08,0.09 -0.05,0.14 0.03,0.05 0.08,0.06 0.14,0.06 0,0.02 0.01,0.04 0.03,0.05 0.03,0.04 0.07,0.04 0.11,0.02 0.04,-0.02 0.05,-0.05 0.05,-0.1 0.02,-0.01 0.04,-0.01 0.06,-0.03 0.05,-0.03 0.1,-0.12 0.1,-0.18 0,-0.09 -0.02,-0.13 -0.07,-0.19l-0.04 -0.04c-0.09,-0.06 -0.12,-0.03 -0.17,-0.05 -0.05,-0.03 -0.04,-0.11 0.04,-0.11 0.1,0 0.24,0.04 0.24,-0.11 0,-0.04 -0.05,-0.08 -0.11,-0.08l-0.05 0c0,-0.05 -0.05,-0.09 -0.09,-0.09 -0.03,0 -0.05,0 -0.08,0.03 -0.02,0.02 -0.02,0.04 -0.02,0.08z"/>
   </g>
  </g>
 </g>
</svg>
