<?xml version="1.0" encoding="UTF-8"?>
<!DOCTYPE svg PUBLIC "-//W3C//DTD SVG 1.0//EN" "http://www.w3.org/TR/2001/REC-SVG-20010904/DTD/svg10.dtd">
<!-- Creator: CorelDRAW 2018 (64 Bit Versão de avaliação) -->
<svg xmlns="http://www.w3.org/2000/svg" xml:space="preserve" width="38px" height="41px" version="1.0" shape-rendering="geometricPrecision" text-rendering="geometricPrecision" image-rendering="optimizeQuality" fill-rule="evenodd" clip-rule="evenodd"
viewBox="0 0 0.65 0.69"
 xmlns:xlink="http://www.w3.org/1999/xlink">
 <g id="Camada_x0020_1">
  <metadata id="CorelCorpID_0Corel-Layer"/>
  <g id="_2751233062576">
   <path fill="#292929" d="M0.08 0.06c0.01,-0.01 0.04,0.01 0.05,0.02l0.07 0.05c0.01,0.01 0.02,0.01 0.03,0.02 0.01,0 0.01,0.01 0.02,0.01 0.02,0.02 0.02,0.02 0.02,0.05l0 0.35c0,0.02 0.01,0.07 -0.02,0.08 -0.02,0 -0.03,-0.01 -0.04,-0.02 0,0 -0.01,0 -0.01,-0.01l-0.11 -0.07c-0.03,-0.02 -0.04,-0.02 -0.03,-0.06 0,-0.02 0,-0.03 0,-0.05 0,-0.07 0,-0.13 0,-0.2 0,-0.02 -0.01,-0.13 0,-0.15 0,-0.01 0,-0.02 0.02,-0.02zm0.24 0.52c0.03,0 0.06,0.01 0.09,0 0.02,0 0.05,-0.01 0.06,-0.02 0,-0.01 0.01,-0.02 0.01,-0.03 0.01,-0.02 0.01,-0.03 0.01,-0.04 0,-0.03 0,-0.06 0,-0.09 0,-0.01 -0.01,-0.02 -0.02,-0.03 0,0 -0.02,0 -0.03,0.01 -0.02,0.02 -0.01,0.09 -0.01,0.12 0,0.02 -0.01,0.03 -0.02,0.03 -0.01,0 -0.07,0 -0.09,0 0,-0.1 0,-0.2 0,-0.3 0,-0.05 0.01,-0.07 -0.02,-0.1 -0.02,-0.02 -0.03,-0.02 -0.06,-0.04 0,0 -0.01,-0.01 -0.02,-0.01 0,-0.01 -0.02,-0.02 -0.02,-0.02l0 0c0.05,0 0.1,0 0.14,0 0.02,0 0.06,-0.01 0.07,0 0.02,0 0.02,0.02 0.02,0.05 0,0.02 0,0.05 0,0.07 0,0.01 0,0.02 0.01,0.03 0,0 0.02,0 0.03,0 0.02,-0.01 0.02,-0.02 0.02,-0.05 -0.01,-0.02 0,-0.05 0,-0.07 0,-0.03 -0.01,-0.04 -0.02,-0.06 -0.01,-0.01 -0.02,-0.02 -0.04,-0.03 -0.02,0 -0.05,0 -0.07,0l-0.28 0c-0.01,0 -0.02,0 -0.03,0.01 -0.01,0 -0.02,0 -0.02,0.01 -0.01,0 -0.01,0.01 -0.02,0.02 -0.01,0.02 -0.01,0.06 -0.01,0.09l0 0.35c0,0.06 0,0.07 0.05,0.1 0.02,0.01 0.06,0.04 0.08,0.05 0.02,0.01 0.03,0.02 0.05,0.03 0,0.01 0,0.01 0.01,0.01 0.01,0.01 0.01,0.01 0.03,0.02 0.02,0.01 0.05,0 0.06,-0.01 0.01,0 0.03,-0.02 0.04,-0.03 0.01,-0.02 0,-0.04 0,-0.07z"/>
   <path fill="#292929" d="M0.54 0.26c0,0 0,0 0,0 0,0 0,0 0,0 0,0 0,0 0,0 -0.03,0 -0.12,0 -0.14,0.01 -0.01,0 -0.02,0 -0.02,0.01 0,0.01 0,0.02 0,0.03 0.01,0.01 0.04,0.01 0.06,0.01l0.1 0c0,0.02 -0.01,0.03 0.01,0.05 0.01,0 0.01,0 0.02,0 0.01,0 0.02,0 0.02,-0.01 0.01,-0.01 0.02,-0.02 0.03,-0.03 0.03,-0.03 0.04,-0.04 0.01,-0.07 -0.01,-0.01 -0.01,-0.01 -0.02,-0.02 -0.02,-0.01 -0.04,-0.05 -0.07,-0.02 -0.01,0.02 0,0.03 0,0.04z"/>
  </g>
 </g>
</svg>
