<?xml version="1.0" encoding="UTF-8"?>
<!DOCTYPE svg PUBLIC "-//W3C//DTD SVG 1.0//EN" "http://www.w3.org/TR/2001/REC-SVG-20010904/DTD/svg10.dtd">
<!-- Creator: CorelDRAW 2018 (64 Bit Versão de avaliação) -->
<svg xmlns="http://www.w3.org/2000/svg" xml:space="preserve" width="41px" height="41px" version="1.0" shape-rendering="geometricPrecision" text-rendering="geometricPrecision" image-rendering="optimizeQuality" fill-rule="evenodd" clip-rule="evenodd"
viewBox="0 0 0.9 0.9"
 xmlns:xlink="http://www.w3.org/1999/xlink">
 <g id="Camada_x0020_1">
  <metadata id="CorelCorpID_0Corel-Layer"/>
  <g id="_2751445098496">
   <g>
    <path fill="#292929" d="M0 0.42l0 0c0,0.07 0,0.1 0.02,0.15 0,0.04 0.03,0.09 0.05,0.12 0,0 0,0.01 0,0.01 0,0 0.01,0 0.01,0.01 0,0.01 0.03,0.04 0.03,0.04 0.04,0.04 0.07,0.07 0.12,0.1 0.06,0.03 0.14,0.05 0.21,0.05l0 0c0.05,0 0.08,0 0.12,-0.01 0.02,0 0.03,-0.01 0.04,-0.01 0.02,-0.01 0.04,-0.02 0.06,-0.03l0.02 -0.01c0.01,0 0.02,-0.01 0.03,-0.02 0.02,-0.01 0.06,-0.04 0.07,-0.06 0.04,-0.05 0.06,-0.07 0.09,-0.13 0,-0.01 0,-0.01 0,-0.02 0.03,-0.08 0.03,-0.1 0.03,-0.19l0 0c0,-0.12 -0.08,-0.09 -0.09,-0.05 -0.01,0.01 0,0.04 0,0.07 0,0.06 0,0.1 -0.03,0.16 0,0.01 -0.01,0.02 -0.01,0.03 -0.02,0.04 -0.05,0.06 -0.07,0.09l-0.01 0.01c-0.01,0.01 -0.02,0.01 -0.03,0.02 -0.01,0.01 -0.02,0.01 -0.03,0.02 -0.04,0.02 -0.12,0.05 -0.17,0.05 -0.04,0 -0.06,-0.01 -0.1,-0.02 -0.04,-0.01 -0.05,-0.01 -0.09,-0.03 -0.02,-0.01 -0.05,-0.03 -0.06,-0.04 0,0 0,-0.01 -0.01,-0.01l-0.02 -0.02c-0.01,-0.02 -0.03,-0.05 -0.05,-0.07 -0.01,-0.03 -0.03,-0.06 -0.03,-0.09 -0.02,-0.06 -0.02,-0.11 -0.01,-0.17 0.02,-0.08 0.07,-0.16 0.13,-0.2 0.04,-0.04 0.09,-0.06 0.15,-0.07 0.03,-0.01 0.06,-0.01 0.1,-0.01l0.02 -0.01c0.02,0 0.03,0 0.04,-0.02 0.01,-0.03 -0.01,-0.06 -0.05,-0.06 -0.02,0 -0.03,0 -0.05,0 -0.01,0 -0.01,0 -0.01,0 -0.07,0 -0.17,0.04 -0.23,0.08 -0.01,0.01 -0.02,0.02 -0.03,0.03l-0.02 0.01c0,0.01 0,0.01 -0.01,0.01 -0.01,0.02 -0.05,0.06 -0.06,0.08 -0.01,0.01 -0.01,0.02 -0.02,0.04 -0.02,0.04 -0.05,0.12 -0.05,0.17z"/>
    <path fill="#292929" d="M0.41 0.22l0 0.04c-0.03,0 -0.07,0.03 -0.08,0.04 -0.02,0.02 -0.03,0.04 -0.03,0.07 0,0.02 0,0.03 0.01,0.05 0.01,0.04 0.06,0.06 0.1,0.07 0.02,0 0.03,0 0.05,0 0.09,0.02 0.07,0.07 -0.01,0.07 -0.03,0 -0.06,-0.01 -0.07,-0.03 0,-0.01 0,-0.01 0,-0.02 -0.01,-0.03 -0.05,-0.04 -0.07,-0.01 -0.02,0.02 -0.01,0.05 0,0.07 0.02,0.04 0.06,0.07 0.1,0.07 0,0.02 0,0.04 0,0.05 0.02,0.04 0.08,0.04 0.08,-0.02l0 -0.03c0.03,-0.01 0.06,-0.02 0.08,-0.04 0.03,-0.03 0.05,-0.07 0.03,-0.11 -0.01,-0.02 -0.01,-0.02 -0.02,-0.03 -0.01,-0.02 -0.03,-0.03 -0.06,-0.04 -0.04,-0.02 -0.06,-0.01 -0.1,-0.02 -0.01,0 -0.01,0 -0.02,0 -0.01,0 -0.02,-0.01 -0.02,-0.03 0,-0.01 0.04,-0.02 0.07,-0.02l0.01 0c0.02,0 0.05,0.01 0.06,0.02 0,0.01 0,0.02 0,0.02 0,0.01 0.01,0.01 0.01,0.02 0.02,0.03 0.08,0.01 0.08,-0.03l0 -0.01c0,-0.03 -0.03,-0.06 -0.04,-0.07 -0.02,-0.02 -0.05,-0.04 -0.08,-0.04l0 -0.04c0,-0.03 -0.05,-0.05 -0.08,-0.01 0,0 0,0.01 0,0.01z"/>
    <path fill="#292929" d="M0.63 0.04c0,0.05 0.04,0.05 0.07,0.05 0.01,0 0.01,0 0.02,0 -0.01,0 -0.01,0.01 -0.02,0.01l-0.02 0.03c-0.02,0.01 -0.05,0.04 -0.06,0.06 -0.01,0 -0.02,0.01 -0.02,0.02 -0.01,0.04 0,0.06 0.04,0.06 0.02,0 0.05,-0.03 0.06,-0.04l0.07 -0.07c0,-0.01 0,-0.01 0.01,-0.01 0,0.02 -0.01,0.06 0.02,0.08 0.03,0.01 0.06,-0.01 0.06,-0.03l0 -0.16c0,-0.02 -0.02,-0.04 -0.03,-0.04l-0.16 0c-0.02,0 -0.04,0.02 -0.04,0.04z"/>
   </g>
  </g>
 </g>
</svg>
