<?xml version="1.0" encoding="UTF-8"?>
<!DOCTYPE svg PUBLIC "-//W3C//DTD SVG 1.0//EN" "http://www.w3.org/TR/2001/REC-SVG-20010904/DTD/svg10.dtd">
<!-- Creator: CorelDRAW 2018 (64 Bit Versão de avaliação) -->
<svg xmlns="http://www.w3.org/2000/svg" xml:space="preserve" width="45px" height="41px" version="1.0" shape-rendering="geometricPrecision" text-rendering="geometricPrecision" image-rendering="optimizeQuality" fill-rule="evenodd" clip-rule="evenodd"
viewBox="0 0 6.88 6.25"
 xmlns:xlink="http://www.w3.org/1999/xlink">
 <g id="Camada_x0020_1">
  <metadata id="CorelCorpID_0Corel-Layer"/>
  <path fill="black" d="M4.68 1.14c0.05,0 0.09,0.02 0.12,0.06 0.04,0.04 0.22,0.21 0.27,0.26l0.8 0.79c0.03,0.03 0.06,0.06 0.09,0.09 0.04,0.06 0.17,0.15 0.16,0.2 -0.01,0.01 -0.02,0.01 -0.03,0.02l-0.52 0.6c-0.01,0.01 -0.01,0.02 -0.02,0.03l-0.09 0.1c-0.01,0.01 -0.03,0.03 -0.05,0.05l-0.32 0.37c-0.01,0.01 -0.02,0.02 -0.03,0.03 -0.02,0.02 -0.01,0.01 -0.04,0.05 -0.01,0.01 -0.03,0.03 -0.04,0.05 -0.05,0.05 -0.12,0.14 -0.18,0.2 -0.02,0.02 -0.07,0.07 -0.1,0.08l0 -0.22c0,-0.37 -0.12,-0.47 -0.48,-0.47 -0.37,0 -0.71,0.02 -1.06,0.1 -0.57,0.14 -1.12,0.39 -1.58,0.74 -0.05,0.04 -0.11,0.09 -0.16,0.13l-0.11 0.11c-0.07,0.06 -0.05,0.04 -0.11,0.1l-0.07 0.08c-0.03,0.02 -0.13,0.13 -0.15,0.15 0,-0.08 0.01,-0.14 0.03,-0.2 0.01,-0.06 0.03,-0.12 0.05,-0.17 0.03,-0.12 0.07,-0.23 0.11,-0.34 0.07,-0.21 0.18,-0.43 0.28,-0.6 0.07,-0.12 0.2,-0.29 0.28,-0.39 0.05,-0.06 0.02,-0.04 0.08,-0.09 0.05,-0.04 0.2,-0.2 0.25,-0.26 0.05,-0.05 0.18,-0.15 0.24,-0.2 0.08,-0.07 0.17,-0.12 0.27,-0.19 0.34,-0.22 0.87,-0.42 1.29,-0.48 0.07,-0.01 0.13,-0.02 0.2,-0.02 0.07,-0.01 0.15,-0.01 0.22,-0.01 0.16,-0.02 0.24,-0.02 0.33,-0.12 0.12,-0.14 0.09,-0.44 0.07,-0.63zm-0.63 0.13c-0.37,0 -0.82,0.13 -1.16,0.27 -0.06,0.02 -0.11,0.04 -0.17,0.07 -0.17,0.08 -0.3,0.14 -0.47,0.25 -0.45,0.28 -0.54,0.4 -0.9,0.76 -0.04,0.04 -0.07,0.08 -0.11,0.13 -0.07,0.09 -0.14,0.17 -0.21,0.27 -0.43,0.62 -0.6,1.34 -0.8,2.05 -0.08,0.25 -0.14,0.5 -0.21,0.75 -0.05,0.16 -0.01,0.27 0.08,0.35 0.1,0.09 0.25,0.1 0.36,0.04 0.04,-0.02 0.11,-0.07 0.14,-0.1 0.1,-0.1 0.14,-0.14 0.23,-0.25 0.04,-0.04 0.08,-0.08 0.12,-0.12 0.17,-0.15 0.32,-0.31 0.48,-0.47 0.19,-0.2 0.28,-0.3 0.49,-0.47 0.24,-0.19 0.6,-0.4 0.91,-0.51 0.13,-0.04 0.23,-0.09 0.36,-0.12 0.26,-0.07 0.38,-0.07 0.63,-0.08 0.08,-0.01 0.15,-0.02 0.23,-0.02 0,0.28 -0.01,0.57 0,0.85 0.01,0.15 0.03,0.23 0.1,0.31 0.12,0.13 0.33,0.1 0.45,-0.01 0.01,-0.02 0.03,-0.03 0.05,-0.06 0.01,-0.01 0.03,-0.04 0.05,-0.05 0.06,-0.07 0.13,-0.15 0.19,-0.23l0.1 -0.11c0.02,-0.02 0.03,-0.04 0.05,-0.06l0.15 -0.17c0.01,-0.01 0.01,-0.01 0.02,-0.02l0.42 -0.48c0.01,-0.01 0.01,-0.02 0.02,-0.03l0.05 -0.05c0.01,-0.01 0.02,-0.02 0.03,-0.03 0.03,-0.04 0.03,-0.02 0.05,-0.05 0.1,-0.12 0.24,-0.29 0.34,-0.4 0.02,-0.02 0.04,-0.04 0.05,-0.06 0.01,-0.01 0.01,-0.01 0.02,-0.02 0.02,-0.02 0.02,-0.02 0.03,-0.03 0.01,-0.01 0.01,-0.02 0.02,-0.03l0.43 -0.48c0.03,-0.03 0.06,-0.08 0.09,-0.11 0.04,-0.03 0.07,-0.07 0.09,-0.12 0.06,-0.12 0,-0.25 -0.05,-0.32 -0.02,-0.03 -0.04,-0.04 -0.05,-0.06 -0.02,-0.02 -0.04,-0.04 -0.05,-0.05 -0.13,-0.14 -0.29,-0.29 -0.42,-0.42 -0.04,-0.04 -0.07,-0.08 -0.11,-0.11 -0.28,-0.28 -0.56,-0.56 -0.84,-0.84l-0.64 -0.63c-0.05,-0.06 -0.13,-0.16 -0.23,-0.19 -0.18,-0.05 -0.34,0.05 -0.39,0.23 -0.02,0.06 -0.02,0.12 -0.02,0.19 0,0.28 0,0.56 0,0.84z"/>
 </g>
</svg>
