<?xml version="1.0" encoding="UTF-8"?>
<!DOCTYPE svg PUBLIC "-//W3C//DTD SVG 1.0//EN" "http://www.w3.org/TR/2001/REC-SVG-20010904/DTD/svg10.dtd">
<!-- Creator: CorelDRAW 2018 (64 Bit Versão de avaliação) -->
<svg xmlns="http://www.w3.org/2000/svg" xml:space="preserve" width="37px" height="41px" version="1.0" shape-rendering="geometricPrecision" text-rendering="geometricPrecision" image-rendering="optimizeQuality" fill-rule="evenodd" clip-rule="evenodd"
viewBox="0 0 0.83 0.92"
 xmlns:xlink="http://www.w3.org/1999/xlink">
 <g id="Camada_x0020_1">
  <metadata id="CorelCorpID_0Corel-Layer"/>
  <g id="_1934643614928">
   <g>
    <path fill="black" d="M0 0.44l0 0.35c0,0.03 0.01,0.04 0.01,0.06 0.01,0.01 0.02,0.02 0.04,0.03 0.02,0.02 0.06,0.04 0.1,0.04l0.53 0c0.07,0 0.15,-0.05 0.15,-0.13l0 -0.35c0,-0.05 -0.04,-0.09 -0.08,-0.11 -0.02,-0.01 -0.06,-0.01 -0.09,-0.01l-0.12 0 0 0.08 0.12 0c0.03,0 0.08,0.01 0.08,0.04l0 0.36c0,0.01 -0.01,0.02 -0.02,0.02 -0.01,0.01 -0.03,0.01 -0.04,0.01l-0.53 0c-0.02,0 -0.07,-0.01 -0.07,-0.04l0 -0.35c0,-0.02 0.02,-0.03 0.03,-0.03 0.01,-0.01 0.03,-0.01 0.05,-0.01l0.13 0 0 -0.08c-0.05,0 -0.15,-0.01 -0.19,0 -0.01,0.01 -0.04,0.02 -0.05,0.03 -0.03,0.02 -0.05,0.04 -0.05,0.09z"/>
    <path fill="black" d="M0.25 0.16c0,0.03 0.02,0.04 0.04,0.04 0.03,0 0.03,0 0.05,-0.02 0.01,-0.01 0.02,-0.03 0.03,-0.04l0 0.37c0,0.03 0,0.06 0.02,0.08 0.02,0.01 0.05,0.01 0.06,-0.02 0.01,-0.01 0,-0.04 0,-0.06l0 -0.37c0.02,0.01 0.06,0.06 0.08,0.06 0.02,0 0.03,0 0.04,-0.02 0.01,-0.01 0.01,-0.02 0,-0.03 0,-0.02 -0.08,-0.09 -0.09,-0.11 -0.03,-0.03 -0.04,-0.04 -0.07,-0.04 -0.02,0 -0.03,0.02 -0.05,0.03l-0.07 0.08c-0.02,0.01 -0.04,0.03 -0.04,0.05z"/>
   </g>
  </g>
 </g>
</svg>
