<?xml version="1.0" encoding="UTF-8"?>
<!DOCTYPE svg PUBLIC "-//W3C//DTD SVG 1.0//EN" "http://www.w3.org/TR/2001/REC-SVG-20010904/DTD/svg10.dtd">
<!-- Creator: CorelDRAW 2018 (64 Bit Versão de avaliação) -->
<svg xmlns="http://www.w3.org/2000/svg" xml:space="preserve" width="41px" height="41px" version="1.0" shape-rendering="geometricPrecision" text-rendering="geometricPrecision" image-rendering="optimizeQuality" fill-rule="evenodd" clip-rule="evenodd"
viewBox="0 0 17.22 17.23"
 xmlns:xlink="http://www.w3.org/1999/xlink">
 <g id="Camada_x0020_1">
  <metadata id="CorelCorpID_0Corel-Layer"/>
  <g id="_2289737661456">
   <g>
    <path fill="#292929" d="M8.69 2.5c0,-1.19 0.08,-1.02 1.64,-1.02 0.6,0 0.51,0.6 0.51,1.02 -0.3,0 -0.81,-0.04 -1.06,-0.07 -0.2,-0.03 -0.82,0.07 -1.09,0.07zm0.63 -2.5l0.84 0c0.39,0.01 0.78,0.06 1.09,0.21 0.25,0.13 0.53,0.36 0.68,0.57 0.45,0.63 0.39,1.07 0.39,2.11 0.65,0.15 1.83,0.9 2.35,1.39 0.09,0.08 0.12,0.09 0.22,0.17 0.95,0.89 1.41,1.73 1.9,2.93 0.68,1.65 0.53,4.01 -0.24,5.54 -0.44,0.85 -0.51,0.95 -1.09,1.68 -0.53,0.69 -1.54,1.41 -2.33,1.84 -0.12,0.06 -0.19,0.08 -0.3,0.13 -1.69,0.76 -3.27,0.86 -5.1,0.34 -0.28,-0.07 -1.07,-0.34 -1.27,-0.56 -0.41,-0.45 -0.08,-1.22 0.4,-1.22 0.56,0 0.38,0.03 0.88,0.21 1.58,0.55 2.95,0.49 4.48,-0.16 0.35,-0.16 0.62,-0.34 0.94,-0.54 1.67,-1.11 2.51,-3.02 2.51,-5.05 0,-1.7 -1.01,-3.5 -2.35,-4.51 -1.95,-1.46 -4.81,-1.58 -6.82,-0.18 -0.46,0.31 -0.77,0.62 -1.15,1 -0.19,0.18 -0.3,0.37 -0.45,0.6 -0.6,0.9 -2.02,0.19 -1.15,-0.96 0.28,-0.36 0.47,-0.62 0.8,-0.95 0.08,-0.08 0.14,-0.14 0.22,-0.21l0.73 -0.59c0.29,-0.2 1.47,-0.81 1.71,-0.87 0,-1.01 -0.05,-1.52 0.4,-2.13 0.36,-0.48 0.89,-0.79 1.71,-0.79z"/>
    <path fill="#292929" d="M9.71 9.36c0.74,0 0.7,0.89 0,0.89 -0.54,0 -0.53,-0.89 0,-0.89zm0.97 -1.25l-0.16 -0.11c-0.19,-0.09 -0.59,-0.17 -0.76,-0.15 -1.02,0.08 -1.92,0.83 -1.92,1.74l0 0.27c0,1.01 0.83,1.88 1.83,1.88 0.42,0 0.59,-0.01 0.98,-0.2 0.7,-0.35 1.05,-0.97 1.05,-1.83 0,-0.24 -0.04,-0.29 -0.04,-0.51l1.57 -1.23c0.53,-0.51 0.31,-1.3 -0.48,-1.3 -0.34,0 -0.78,0.42 -1.08,0.67l-0.99 0.77z"/>
    <path fill="#292929" d="M0 10.88c0,0.45 0.22,0.86 0.58,0.86l5.03 0c0.88,0 0.88,-1.45 0,-1.45l-5.03 0c-0.24,0 -0.58,0.34 -0.58,0.59z"/>
    <path fill="#292929" d="M1.21 8.46c0,0.45 0.21,0.86 0.58,0.86l3.9 0c0.34,0 0.59,-0.4 0.59,-0.82 0,-0.27 -0.35,-0.62 -0.63,-0.62l-3.86 0c-0.24,0 -0.58,0.33 -0.58,0.58z"/>
    <path fill="#292929" d="M1.21 13.3c0,0.45 0.21,0.85 0.58,0.85l3.82 0c0.42,0 0.67,-0.37 0.67,-0.82 0,-0.25 -0.33,-0.62 -0.59,-0.62l-3.9 0c-0.24,0 -0.58,0.34 -0.58,0.59z"/>
   </g>
  </g>
 </g>
</svg>
