<?xml version="1.0" encoding="UTF-8"?>
<!DOCTYPE svg PUBLIC "-//W3C//DTD SVG 1.0//EN" "http://www.w3.org/TR/2001/REC-SVG-20010904/DTD/svg10.dtd">
<!-- Creator: CorelDRAW 2018 (64 Bit Versão de avaliação) -->
<svg xmlns="http://www.w3.org/2000/svg" xml:space="preserve" width="45px" height="29px" version="1.0" shape-rendering="geometricPrecision" text-rendering="geometricPrecision" image-rendering="optimizeQuality" fill-rule="evenodd" clip-rule="evenodd"
viewBox="0 0 1.39 0.89"
 xmlns:xlink="http://www.w3.org/1999/xlink">
 <g id="Camada_x0020_1">
  <metadata id="CorelCorpID_0Corel-Layer"/>
  <g id="_2751289367472">
   <g>
    <path fill="black" d="M0.11 0.44c0.01,-0.01 0.02,-0.02 0.03,-0.03l0.02 -0.02c0,0 0,0 0.01,-0.01 0,0 0.04,-0.04 0.04,-0.04 0.02,-0.02 0.03,-0.03 0.04,-0.04 0.01,0 0.01,-0.01 0.02,-0.01l0.03 -0.03c0.02,-0.02 0.05,-0.04 0.08,-0.06 0.01,0 0.01,0 0.02,-0.01 0.03,-0.02 0.09,-0.05 0.13,-0.06 0.01,-0.01 0.03,-0.01 0.04,-0.01 0.06,-0.02 0.08,-0.02 0.14,-0.02 0.04,0 0.07,0.01 0.1,0.01 0.03,0.01 0.09,0.03 0.12,0.05 0.03,0.01 0.09,0.05 0.11,0.06 0.01,0.01 0.01,0.01 0.01,0.01 0.03,0.02 0.05,0.04 0.07,0.06l0.06 0.05c0.01,0.01 0.01,0.01 0.02,0.01l0.05 0.06c0.01,0.01 0.02,0.03 0.03,0.04 -0.01,0 -0.01,0.01 -0.01,0.01 -0.01,0 -0.01,0.01 -0.01,0.01 0,0 -0.01,0 -0.01,0.01 0,0 0,0 0,0 -0.02,0.02 -0.07,0.08 -0.08,0.08 -0.01,0.01 -0.02,0.02 -0.03,0.03l-0.05 0.04c-0.01,0.01 -0.02,0.02 -0.03,0.03 -0.02,0.01 -0.04,0.02 -0.06,0.03 -0.01,0.01 -0.02,0.02 -0.03,0.02l-0.04 0.02c-0.01,0.01 -0.03,0.02 -0.04,0.02 -0.06,0.03 -0.12,0.04 -0.2,0.04 -0.08,0 -0.14,-0.02 -0.19,-0.04 -0.02,-0.01 -0.05,-0.02 -0.07,-0.03 -0.03,-0.02 -0.05,-0.03 -0.08,-0.05 -0.02,-0.02 -0.03,-0.03 -0.05,-0.04 -0.02,-0.02 -0.07,-0.06 -0.09,-0.08 0,0 0,-0.01 0,-0.01l-0.1 -0.1zm0.6 0.45l-0.04 0c-0.03,0 -0.07,-0.01 -0.12,-0.02 -0.03,-0.01 -0.07,-0.02 -0.1,-0.03 -0.02,-0.01 -0.03,-0.02 -0.05,-0.03 -0.01,0 -0.03,-0.01 -0.04,-0.02 -0.03,-0.02 -0.04,-0.02 -0.07,-0.04 -0.03,-0.02 -0.06,-0.05 -0.09,-0.07l-0.04 -0.04c-0.01,-0.01 -0.01,-0.01 -0.02,-0.02 -0.01,0 -0.01,-0.01 -0.02,-0.02l-0.03 -0.03c-0.01,-0.01 -0.06,-0.07 -0.07,-0.09 -0.02,-0.01 -0.02,-0.02 -0.02,-0.04l0 0c0,-0.02 0.03,-0.05 0.04,-0.07 0.01,0 0.01,-0.01 0.02,-0.01l0.07 -0.08c0,0 0.01,-0.01 0.01,-0.01l0.14 -0.11c0.04,-0.04 0.04,-0.03 0.08,-0.06 0.06,-0.04 0.13,-0.07 0.2,-0.08 0.06,-0.02 0.09,-0.02 0.15,-0.02 0.09,0 0.2,0.03 0.28,0.08 0.06,0.03 0.07,0.04 0.13,0.08 0.01,0.01 0.09,0.07 0.1,0.08l0.16 0.17c0,0 0,0 0,0.01 0.01,0.01 0.01,0.02 0.01,0.03l0 0c0,0.02 -0.03,0.05 -0.04,0.07l-0.03 0.03c-0.01,0.02 -0.03,0.03 -0.04,0.04 -0.01,0.01 -0.04,0.03 -0.05,0.05l-0.06 0.05c0,0 0,0 0,0.01 -0.01,0 -0.01,0 -0.01,0.01l-0.02 0.01c-0.02,0.02 -0.04,0.03 -0.07,0.04 -0.05,0.04 -0.12,0.08 -0.18,0.1 -0.06,0.02 -0.12,0.03 -0.18,0.03z"/>
    <path fill="black" d="M0.52 0.45c0,-0.04 0.01,-0.08 0.03,-0.11 0.05,-0.07 0.16,-0.1 0.24,-0.05 0.03,0.02 0.06,0.05 0.07,0.09 0.02,0.05 0.02,0.12 -0.02,0.17 -0.02,0.02 -0.04,0.05 -0.07,0.06 -0.05,0.02 -0.09,0.02 -0.13,0 -0.02,0 -0.05,-0.02 -0.06,-0.03 -0.02,-0.02 -0.03,-0.03 -0.05,-0.06 0,-0.02 -0.01,-0.04 -0.01,-0.07zm-0.1 0c0,0.04 0.01,0.08 0.02,0.11l0.02 0.03c0,0.01 0,0.01 0.01,0.01 0,0.01 0.01,0.02 0.01,0.02 0.03,0.03 0.06,0.06 0.1,0.08 0.02,0.01 0.07,0.02 0.11,0.02 0.01,0 0.05,0 0.06,0 0.04,-0.01 0.09,-0.03 0.12,-0.06l0.01 -0.01c0.01,-0.01 0.01,-0.01 0.03,-0.02l0.01 -0.02c0.01,-0.02 0.02,-0.03 0.03,-0.04 0.04,-0.08 0.03,-0.19 -0.01,-0.26 -0.01,-0.02 -0.02,-0.03 -0.03,-0.04l-0.02 -0.02c-0.01,-0.01 -0.02,-0.02 -0.03,-0.03l-0.03 -0.02c-0.03,-0.01 -0.09,-0.03 -0.12,-0.03 -0.01,0 -0.01,0 -0.02,0 -0.01,0 -0.03,0 -0.05,0 -0.03,0.01 -0.07,0.02 -0.1,0.04l-0.06 0.05c-0.02,0.03 -0.05,0.08 -0.05,0.12 -0.01,0.02 -0.01,0.04 -0.01,0.07z"/>
   </g>
  </g>
 </g>
</svg>
