<?xml version="1.0" encoding="UTF-8"?>
<!DOCTYPE svg PUBLIC "-//W3C//DTD SVG 1.0//EN" "http://www.w3.org/TR/2001/REC-SVG-20010904/DTD/svg10.dtd">
<!-- Creator: CorelDRAW 2018 (64 Bit Versão de avaliação) -->
<svg xmlns="http://www.w3.org/2000/svg" xml:space="preserve" width="48px" height="22px" version="1.0" shape-rendering="geometricPrecision" text-rendering="geometricPrecision" image-rendering="optimizeQuality" fill-rule="evenodd" clip-rule="evenodd"
viewBox="0 0 2.12 0.97"
 xmlns:xlink="http://www.w3.org/1999/xlink">
 <g id="Camada_x0020_1">
  <metadata id="CorelCorpID_0Corel-Layer"/>
  <path fill="#292929" d="M0.05 0.08c0,0.07 0.09,0.16 0.13,0.21 -0.04,0.05 -0.16,0.11 -0.18,0.18l0 0.03c0,0.02 0.01,0.03 0.03,0.05 0.01,0 0.01,0.01 0.02,0.01 0.11,0.04 0.17,-0.08 0.25,-0.13 0.02,0 0.03,0.01 0.05,0.03 0.01,0.01 0.03,0.02 0.04,0.03 0.03,0.03 0.07,0.05 0.11,0.06 -0.02,0.07 -0.09,0.13 -0.09,0.21 0,0.05 0.11,0.14 0.2,0 0.02,-0.04 0.04,-0.08 0.06,-0.12 0.06,0.01 0.18,0.06 0.29,0.06 0,0.14 -0.03,0.27 0.11,0.27 0.12,0 0.09,-0.2 0.09,-0.27 0.08,0 0.21,-0.04 0.29,-0.06 0,0.03 0.08,0.15 0.1,0.17 0.04,0.03 0.08,0.04 0.12,0.01 0.11,-0.07 -0.05,-0.2 -0.05,-0.27 0.04,-0.01 0.12,-0.07 0.15,-0.09 0.02,-0.02 0.03,-0.03 0.05,-0.03 0.05,0.03 0.14,0.14 0.21,0.14 0.04,0 0.09,-0.03 0.09,-0.09 0,-0.05 -0.05,-0.08 -0.08,-0.1 -0.02,-0.02 -0.08,-0.08 -0.1,-0.08 0.04,-0.06 0.16,-0.18 0.12,-0.25 -0.02,-0.04 -0.06,-0.05 -0.1,-0.05l0 0c-0.05,0 -0.09,0.07 -0.13,0.13 -0.08,0.12 -0.11,0.15 -0.22,0.23 -0.05,0.04 -0.17,0.1 -0.23,0.12 -0.31,0.12 -0.73,0.03 -0.96,-0.2l-0.07 -0.06c-0.12,-0.15 -0.1,-0.22 -0.21,-0.22 -0.05,0 -0.09,0.03 -0.09,0.08z"/>
 </g>
</svg>
