<?xml version="1.0" encoding="UTF-8"?>
<!DOCTYPE svg PUBLIC "-//W3C//DTD SVG 1.0//EN" "http://www.w3.org/TR/2001/REC-SVG-20010904/DTD/svg10.dtd">
<!-- Creator: CorelDRAW 2018 (64 Bit Versão de avaliação) -->
<svg xmlns="http://www.w3.org/2000/svg" xml:space="preserve" width="44px" height="41px" version="1.0" shape-rendering="geometricPrecision" text-rendering="geometricPrecision" image-rendering="optimizeQuality" fill-rule="evenodd" clip-rule="evenodd"
viewBox="0 0 3.98 3.73"
 xmlns:xlink="http://www.w3.org/1999/xlink">
 <g id="Camada_x0020_1">
  <metadata id="CorelCorpID_0Corel-Layer"/>
  <g id="_2751335918304">
   <g>
    <path fill="black" d="M0.83 3.43l-0.37 0c-0.08,0 -0.16,-0.08 -0.16,-0.16l0 -2.16c0,-0.22 0.32,-0.17 0.46,-0.17 0.12,0 0.22,0.07 0.22,0.18l0 2.14c0,0.04 -0.02,0.09 -0.04,0.12 -0.02,0.02 -0.08,0.05 -0.11,0.05zm2.66 -0.14l-2.21 0 0 -2.06 0.26 0 0 0.38c0,0.09 0.07,0.15 0.13,0.15l1.63 0c0.06,0 0.13,-0.07 0.13,-0.15l0 -0.38 0.06 0c0.09,0 0.19,0.09 0.19,0.19l0 1.68c0,0.1 -0.1,0.19 -0.19,0.19zm-1.66 -2.99l1.3 0 0 1.17 -1.3 0 0 -1.17zm-0.29 -0.13l0 0.77 -0.29 0c-0.03,0 -0.02,-0.04 -0.08,-0.11 -0.18,-0.22 -0.38,-0.18 -0.67,-0.18 -0.11,0 -0.2,0.03 -0.29,0.08 -0.14,0.1 -0.21,0.26 -0.21,0.44l0 2.03c0,0.32 0.21,0.53 0.53,0.53 0.2,0 0.44,0.02 0.58,-0.12 0.04,-0.04 0.1,-0.03 0.22,-0.03 0.21,0 2.13,0.01 2.21,0 0.07,-0.01 0.13,-0.04 0.18,-0.06 0.06,-0.03 0.09,-0.07 0.14,-0.11 0.03,-0.04 0.07,-0.1 0.09,-0.16 0.02,-0.06 0.03,-0.12 0.03,-0.21l0 -1.56c0,-0.23 -0.1,-0.39 -0.27,-0.49 -0.09,-0.05 -0.18,-0.05 -0.28,-0.05l0 -0.77c0,-0.11 -0.07,-0.17 -0.18,-0.17l-1.53 0c-0.11,0 -0.18,0.06 -0.18,0.17z"/>
    <path fill="black" d="M2.94 2.26c0,0.19 0.28,0.19 0.28,0 0,-0.19 -0.28,-0.19 -0.28,0z"/>
    <path fill="black" d="M1.75 2.26c0,0.08 0.06,0.14 0.14,0.14 0.19,0.01 0.18,-0.29 0,-0.29 -0.07,0 -0.14,0.07 -0.14,0.15z"/>
    <path fill="black" d="M2.94 2.74c0,0.19 0.28,0.19 0.28,0 0,-0.04 -0.02,-0.07 -0.04,-0.1 -0.07,-0.09 -0.24,-0.04 -0.24,0.1z"/>
    <path fill="black" d="M1.75 2.74c0,0.19 0.28,0.19 0.28,0 0,-0.04 -0.02,-0.08 -0.04,-0.1 -0.05,-0.06 -0.15,-0.06 -0.2,0 -0.02,0.03 -0.04,0.06 -0.04,0.1z"/>
    <path fill="black" d="M2.35 2.73c0,0.1 0.07,0.16 0.13,0.16 0.08,0 0.14,-0.06 0.14,-0.16 0,-0.06 -0.06,-0.13 -0.12,-0.13l-0.04 0c-0.06,0 -0.11,0.07 -0.11,0.13z"/>
    <path fill="black" d="M2.35 2.24l0 0.04c0,0.14 0.27,0.21 0.27,-0.04 0,-0.07 -0.08,-0.13 -0.13,-0.13 -0.06,0 -0.14,0.06 -0.14,0.13z"/>
   </g>
  </g>
 </g>
</svg>
