<?xml version="1.0" encoding="UTF-8"?>
<!DOCTYPE svg PUBLIC "-//W3C//DTD SVG 1.0//EN" "http://www.w3.org/TR/2001/REC-SVG-20010904/DTD/svg10.dtd">
<!-- Creator: CorelDRAW 2018 (64 Bit Versão de avaliação) -->
<svg xmlns="http://www.w3.org/2000/svg" xml:space="preserve" width="52px" height="41px" version="1.0" shape-rendering="geometricPrecision" text-rendering="geometricPrecision" image-rendering="optimizeQuality" fill-rule="evenodd" clip-rule="evenodd"
viewBox="0 0 30.93 24.5"
 xmlns:xlink="http://www.w3.org/1999/xlink">
 <g id="Camada_x0020_1">
  <metadata id="CorelCorpID_0Corel-Layer"/>
  <path fill="black" d="M24.3 22.29l-19.35 0c-0.99,0 -1.8,-0.76 -1.8,-1.74 0,-0.57 2.24,-8.01 2.5,-8.94 0.16,-0.54 0.27,-1.01 0.58,-1.37 0.26,-0.3 0.76,-0.6 1.34,-0.6l19.48 0c0.45,0 0.92,0.28 1.16,0.52 0.87,0.87 0.41,1.82 0.15,2.73l-2.14 7.43c-0.26,0.89 -0.55,1.97 -1.92,1.97zm-22.09 -6.69l0 -11.32c-0.01,-1.2 0.61,-2.07 1.74,-2.07l4.42 0c0.35,0 0.76,0.19 0.98,0.36 0.41,0.32 1.53,1.53 2.12,1.89 1.33,0.79 2.77,0.63 4.8,0.63 0.87,0 7.48,-0.11 8,0.09 1.05,0.4 1.1,1.39 1.1,2.25l-17.54 0c-2.14,0 -3.51,1.21 -4.06,2.84l-1.52 5.24c0,0.01 -0.01,0.03 -0.02,0.04 0,0.01 -0.01,0.04 -0.02,0.05zm-2.21 -10.91l0 15.13c0,1.26 0.2,2.48 1.05,3.36 0.75,0.77 1.68,1.32 3.17,1.32l19.88 0c1.56,0 2.7,-0.69 3.36,-1.59 0.68,-0.92 0.99,-2.42 1.33,-3.63 0.35,-1.27 0.74,-2.54 1.11,-3.84 0.24,-0.81 1.03,-3.33 1.03,-3.99 0,-0.49 -0.15,-1.13 -0.3,-1.5 -0.19,-0.47 -0.38,-0.79 -0.69,-1.13 -0.45,-0.51 -1.44,-1.25 -2.36,-1.25 0,-1.83 -0.29,-2.62 -1.35,-3.67 -1.13,-1.12 -2.56,-1.02 -4.07,-1.02l-6.76 0c-3.16,0 -2.34,0.05 -3.86,-1.23 -0.35,-0.29 -0.52,-0.53 -0.91,-0.83 -0.67,-0.49 -1.47,-0.82 -2.6,-0.82l-3.81 0c-1.48,0 -2.39,0.53 -3.13,1.29 -0.78,0.78 -1.09,1.86 -1.09,3.4z"/>
 </g>
</svg>
