<?xml version="1.0" encoding="UTF-8"?>
<!DOCTYPE svg PUBLIC "-//W3C//DTD SVG 1.0//EN" "http://www.w3.org/TR/2001/REC-SVG-20010904/DTD/svg10.dtd">
<!-- Creator: CorelDRAW 2018 (64 Bit Versão de avaliação) -->
<svg xmlns="http://www.w3.org/2000/svg" xml:space="preserve" width="35px" height="41px" version="1.0" shape-rendering="geometricPrecision" text-rendering="geometricPrecision" image-rendering="optimizeQuality" fill-rule="evenodd" clip-rule="evenodd"
viewBox="0 0 0.84 0.99"
 xmlns:xlink="http://www.w3.org/1999/xlink">
 <g id="Camada_x0020_1">
  <metadata id="CorelCorpID_0Corel-Layer"/>
  <g id="_2289560139456">
   <g>
    <path fill="#282828" d="M0.1 0.24l0.06 0 0 0.53c0,0.03 0.03,0.06 0.07,0.06l0.37 0 0 0.07 -0.5 0 0 -0.66zm0.15 -0.15l0.5 0 0 0.65 -0.5 0 0 -0.65zm-0.09 -0.03l0 0.09c-0.09,0 -0.16,-0.03 -0.16,0.1l0 0.64c0,0.05 0.02,0.1 0.07,0.1l0.55 0c0.09,0 0.07,-0.1 0.07,-0.16 0.06,0 0.15,0.02 0.15,-0.08l0 -0.67c0,-0.04 -0.03,-0.08 -0.06,-0.08l-0.55 0c-0.04,0 -0.07,0.03 -0.07,0.06z"/>
    <path fill="#282828" d="M0.33 0.57c0,0.03 0.02,0.05 0.05,0.05l0.25 0c0.07,0 0.06,-0.09 0.01,-0.09l-0.26 0c-0.03,0 -0.05,0.02 -0.05,0.04z"/>
    <path fill="#282828" d="M0.33 0.43c0,0.02 0.02,0.04 0.05,0.04l0.26 0c0.02,0 0.04,-0.02 0.04,-0.04 0,-0.02 -0.02,-0.05 -0.04,-0.05l-0.26 0c-0.03,0 -0.05,0.02 -0.05,0.05z"/>
    <path fill="#282828" d="M0.39 0.27c0,0.06 0.08,0.05 0.17,0.05 0.06,0 0.07,-0.09 0,-0.09 -0.09,0 -0.17,-0.02 -0.17,0.04z"/>
   </g>
  </g>
 </g>
</svg>
