<?xml version="1.0" encoding="UTF-8"?>
<!DOCTYPE svg PUBLIC "-//W3C//DTD SVG 1.0//EN" "http://www.w3.org/TR/2001/REC-SVG-20010904/DTD/svg10.dtd">
<!-- Creator: CorelDRAW 2018 (64 Bit Versão de avaliação) -->
<svg xmlns="http://www.w3.org/2000/svg" xml:space="preserve" width="46px" height="41px" version="1.0" shape-rendering="geometricPrecision" text-rendering="geometricPrecision" image-rendering="optimizeQuality" fill-rule="evenodd" clip-rule="evenodd"
viewBox="0 0 4.35 3.92"
 xmlns:xlink="http://www.w3.org/1999/xlink">
 <g id="Camada_x0020_1">
  <metadata id="CorelCorpID_0Corel-Layer"/>
  <g id="_2751258563200">
   <path fill="black" d="M2.8 2.6c0.07,-0.01 0.14,0 0.2,0.02 0.11,0.05 0.18,0.12 0.24,0.22 0.09,0.17 0.06,0.39 -0.06,0.52 -0.08,0.08 -0.14,0.14 -0.31,0.15 -0.07,0.01 -0.14,0 -0.2,-0.03 -0.17,-0.05 -0.28,-0.22 -0.3,-0.39 -0.02,-0.14 0.07,-0.3 0.15,-0.37 0.01,0 0.02,-0.01 0.03,-0.02 0.02,-0.02 0.04,-0.03 0.07,-0.05 0.06,-0.02 0.11,-0.04 0.18,-0.05zm0.86 0.25c0,-0.1 -0.07,-0.21 -0.12,-0.28 -0.18,-0.25 -0.46,-0.4 -0.82,-0.36 -0.25,0.02 -0.48,0.18 -0.61,0.39 -0.09,0.14 -0.14,0.28 -0.13,0.47 0,0.12 0.02,0.23 0.07,0.33 0.06,0.13 0.15,0.26 0.26,0.34 0.33,0.24 0.73,0.23 1.05,0 0.12,-0.09 0.2,-0.2 0.26,-0.34 0.02,-0.05 0.04,-0.14 0.06,-0.14 0.15,0 0.28,0 0.43,-0.01 0.08,0 0.13,0 0.18,-0.04 0.03,-0.04 0.06,-0.09 0.06,-0.16 0,-0.07 -0.04,-0.12 -0.07,-0.15 -0.06,-0.04 -0.1,-0.04 -0.18,-0.04 -0.15,0 -0.29,-0.01 -0.44,-0.01z"/>
   <path fill="black" d="M1.47 0.4c0.1,-0.01 0.2,0.01 0.28,0.06 0.08,0.05 0.13,0.11 0.17,0.18 0.1,0.19 0.07,0.38 -0.06,0.52 -0.04,0.04 -0.07,0.07 -0.13,0.1 -0.05,0.03 -0.1,0.05 -0.17,0.06 -0.07,0 -0.15,0 -0.21,-0.03 -0.15,-0.06 -0.27,-0.22 -0.3,-0.39 -0.01,-0.14 0.06,-0.27 0.12,-0.34 0.06,-0.08 0.16,-0.14 0.3,-0.16zm-0.78 0.26c-0.15,0 -0.3,-0.01 -0.44,0 -0.07,0 -0.14,0.01 -0.18,0.04 -0.09,0.07 -0.14,0.35 0.17,0.36 0.07,0.01 0.15,0 0.22,0 0.07,0 0.15,0 0.22,0 0.02,0.11 0.08,0.21 0.13,0.28 0.05,0.08 0.11,0.15 0.19,0.2 0.15,0.12 0.37,0.2 0.62,0.17 0.17,-0.02 0.3,-0.08 0.42,-0.18 0.02,-0.01 0.04,-0.03 0.06,-0.04 0.07,-0.06 0.17,-0.21 0.21,-0.29 0.05,-0.12 0.06,-0.19 0.06,-0.34 0,-0.18 -0.04,-0.32 -0.13,-0.46l-0.07 -0.08c-0.01,-0.01 -0.02,-0.02 -0.02,-0.03 -0.07,-0.08 -0.13,-0.13 -0.22,-0.18 -0.21,-0.11 -0.42,-0.14 -0.66,-0.07 -0.09,0.03 -0.21,0.08 -0.27,0.13l-0.15 0.15c-0.01,0.02 -0.03,0.03 -0.04,0.06 -0.05,0.07 -0.11,0.17 -0.12,0.28z"/>
   <path fill="black" d="M0.19 2.86c-0.08,0.01 -0.13,0.04 -0.16,0.09 -0.06,0.08 -0.04,0.31 0.18,0.31l1.06 0c0.08,0 0.18,0 0.26,0 0.24,-0.02 0.25,-0.39 -0.02,-0.4 -0.08,-0.01 -0.18,-0.01 -0.27,-0.01 -0.26,0 -0.52,0 -0.79,0 -0.07,0 -0.19,0 -0.26,0.01z"/>
   <path fill="black" d="M2.81 0.66c-0.07,0.01 -0.13,0.06 -0.15,0.11 -0.05,0.1 -0.01,0.28 0.19,0.29 0.09,0.01 0.18,0 0.27,0l0.79 0c0.15,0 0.35,0.03 0.42,-0.11 0.03,-0.07 0.02,-0.15 -0.02,-0.21 -0.03,-0.05 -0.09,-0.08 -0.18,-0.08l-1.06 0c-0.07,0 -0.19,-0.01 -0.26,0z"/>
  </g>
 </g>
</svg>
