<?xml version="1.0" encoding="UTF-8"?>
<!DOCTYPE svg PUBLIC "-//W3C//DTD SVG 1.0//EN" "http://www.w3.org/TR/2001/REC-SVG-20010904/DTD/svg10.dtd">
<!-- Creator: CorelDRAW 2018 (64 Bit Versão de avaliação) -->
<svg xmlns="http://www.w3.org/2000/svg" xml:space="preserve" width="30px" height="41px" version="1.0" shape-rendering="geometricPrecision" text-rendering="geometricPrecision" image-rendering="optimizeQuality" fill-rule="evenodd" clip-rule="evenodd"
viewBox="0 0 1.35 1.84"
 xmlns:xlink="http://www.w3.org/1999/xlink">
 <g id="Camada_x0020_1">
  <metadata id="CorelCorpID_0Corel-Layer"/>
  <g id="_2039098756320">
   <g>
    <path fill="#292929" d="M0.6 0.73c0,-0.01 0.04,-0.02 0.05,-0.03l0.14 -0.07c0.01,0.02 0.04,0.16 0.05,0.17 -0.03,0.02 -0.17,0.1 -0.19,0.1 0,-0.03 -0.05,-0.13 -0.05,-0.17zm-0.27 -0.17c0.14,0 0.17,-0.04 0.21,-0.04 0.01,0 0.05,0.19 0.05,0.2 -0.05,0.02 -0.1,0.05 -0.2,0.05l-0.04 -0.15c-0.01,-0.02 -0.01,-0.05 -0.02,-0.06zm0.66 -0.04c0.02,-0.01 0.06,-0.02 0.09,-0.03 0.01,0 0.09,-0.01 0.1,-0.01 0.01,0.01 0.01,0.03 0.02,0.04l0.03 0.14c-0.09,0 -0.16,0.04 -0.19,0.04 -0.01,-0.01 -0.05,-0.17 -0.05,-0.18zm-0.25 -0.11c0.04,-0.01 0.16,-0.09 0.19,-0.09 0,0.02 0.02,0.07 0.03,0.1 0.01,0.03 0.02,0.07 0.02,0.1 -0.06,0.03 -0.04,0.02 -0.12,0.06l-0.07 0.04c0,-0.02 -0.01,-0.04 -0.01,-0.05l-0.04 -0.16zm-0.24 -0.08l0.14 -0.07c0.01,-0.01 0.01,-0.01 0.02,-0.01 0.01,-0.01 0.01,-0.01 0.03,-0.01 0,0.01 0.01,0.06 0.02,0.08 0.01,0.03 0.02,0.07 0.02,0.1 -0.02,0 -0.03,0.01 -0.05,0.02 -0.04,0.03 -0.1,0.05 -0.14,0.07 0,-0.02 -0.02,-0.06 -0.02,-0.09l-0.02 -0.09zm0.39 -0.2c0.06,-0.02 0.1,-0.04 0.19,-0.04l0.03 0.13c0.01,0.01 0.01,0.04 0.02,0.05 -0.05,0 -0.07,0 -0.11,0.01 -0.03,0.01 -0.07,0.02 -0.09,0.03l-0.04 -0.18zm-0.45 0.91c0.16,0 0.23,-0.04 0.35,-0.11l0.19 -0.1c0.06,-0.03 0.15,-0.07 0.21,-0.07 0.07,-0.01 0.09,0 0.12,-0.01 0.07,0 0.02,-0.07 0.01,-0.14l-0.15 -0.56c-0.02,-0.05 -0.05,-0.05 -0.1,-0.05l0 0c-0.12,0 -0.23,0.05 -0.32,0.09l-0.09 0.05c-0.03,0.02 -0.06,0.03 -0.09,0.05 -0.03,0.02 -0.06,0.03 -0.09,0.04 -0.21,0.09 -0.25,0.04 -0.29,0.06 -0.02,0.01 -0.02,0.03 -0.01,0.05 0.01,0.04 0.02,0.07 0.02,0.11l0.15 0.54c0.02,0.04 0.04,0.05 0.09,0.05z"/>
    <path fill="#292929" d="M0 0.32c0,0.04 0.13,0.52 0.14,0.59l0.2 0.78c0.01,0.03 0.02,0.07 0.03,0.1 0.03,0.08 0.14,0.06 0.14,-0.02 0,-0.03 -0.04,-0.16 -0.05,-0.2l-0.25 -0.97c-0.01,-0.04 -0.06,-0.3 -0.09,-0.33 -0.04,-0.04 -0.12,-0.01 -0.12,0.05z"/>
   </g>
  </g>
 </g>
</svg>
