<?xml version="1.0" encoding="UTF-8"?>
<!DOCTYPE svg PUBLIC "-//W3C//DTD SVG 1.0//EN" "http://www.w3.org/TR/2001/REC-SVG-20010904/DTD/svg10.dtd">
<!-- Creator: CorelDRAW 2018 (64 Bit Versão de avaliação) -->
<svg xmlns="http://www.w3.org/2000/svg" xml:space="preserve" width="41px" height="41px" version="1.0" shape-rendering="geometricPrecision" text-rendering="geometricPrecision" image-rendering="optimizeQuality" fill-rule="evenodd" clip-rule="evenodd"
viewBox="0 0 1.57 1.57"
 xmlns:xlink="http://www.w3.org/1999/xlink">
 <g id="Camada_x0020_1">
  <metadata id="CorelCorpID_0Corel-Layer"/>
  <path fill="black" d="M1.45 1.45l-1.33 0 0 -0.05c0.01,-0.03 0.01,-0.05 0.04,-0.05 0.02,-0.01 0.04,0 0.05,0 0.38,0 0.76,0 1.15,0 0.05,0 0.08,-0.01 0.09,0.05 0,0.01 0,0.03 0,0.05zm-0.6 -0.23l-0.13 0 -0.02 -0.03c-0.01,-0.03 -0.02,-0.06 -0.02,-0.09l0 -0.02c0.03,0 0.05,0 0.07,-0.01 0.01,-0.01 0.03,-0.02 0.04,-0.02 0.03,-0.03 0.05,-0.06 0.07,-0.1 0,-0.01 0,-0.01 0,-0.01 0,0 0,-0.01 0,-0.01 0,0 0.01,0.03 0.01,0.03 0.01,0.01 0.01,0.03 0.01,0.04 0.01,0.05 0.01,0.11 0,0.16 -0.01,0.02 -0.01,0.03 -0.02,0.05 -0.01,0 -0.01,0.01 -0.01,0.01zm-0.13 -0.44c0,0.01 0,0.02 0.01,0.02 0,0.01 0,0.02 0,0.03 0.02,0.04 0.02,0.06 0,0.1 -0.01,0.01 -0.02,0.03 -0.04,0.03 -0.01,0 -0.01,0 -0.02,-0.01 -0.01,0 -0.01,0 -0.02,0 -0.03,-0.01 -0.06,-0.01 -0.08,0.02 -0.02,0.03 -0.01,0.07 -0.01,0.1 0,0.04 0,0.05 0,0.08 0.01,0.02 0.01,0.03 0.01,0.04 0,0 0.01,0.01 0.01,0.02 0,0 0,0.01 0,0.01l-0.12 0 0 -0.32 0 -0.04c0,-0.03 0.01,-0.08 0.03,-0.11 0.01,-0.01 0.01,-0.02 0.02,-0.04 0.01,-0.01 0.02,-0.03 0.04,-0.04 0.03,-0.04 0.04,-0.04 0.09,-0.07 0.03,-0.02 0.07,-0.03 0.11,-0.03 0.04,-0.01 0.11,0 0.15,0.02 0.03,0.01 0.06,0.03 0.09,0.05 0,0 0.01,0.01 0.01,0.01 0,0 0,0 0.01,0l0.01 0.02c0.03,0.02 0.05,0.06 0.07,0.1 0.01,0.02 0.02,0.06 0.02,0.09l0 0.04 0 0.32 -0.12 0c0,-0.02 0.01,-0.04 0.01,-0.07 0.01,-0.01 0.01,-0.02 0.01,-0.03 0,0 0,0 0,-0.01 0,-0.01 0,-0.07 0,-0.08 0,0 0,0 0,0 0,-0.01 0,-0.01 0,-0.01 0,-0.02 0,-0.03 0,-0.05 -0.01,-0.02 -0.01,-0.04 -0.02,-0.05 0,-0.02 -0.02,-0.06 -0.03,-0.07 -0.01,-0.02 -0.02,-0.04 -0.03,-0.05 -0.01,-0.02 -0.02,-0.03 -0.04,-0.04 -0.03,-0.02 -0.06,-0.03 -0.09,-0.04 -0.03,0 -0.03,0 -0.05,0.01 -0.01,0.01 -0.03,0.03 -0.03,0.05zm-0.39 0.44l-0.1 0 0 -0.88 1.1 0 0 0.88 -0.1 0c0,-0.01 0,-0.05 0,-0.07l0 -0.28c0,-0.03 0,-0.06 -0.01,-0.08 0,-0.01 0,-0.02 0,-0.03 -0.01,-0.01 -0.01,-0.01 -0.01,-0.02 0,-0.01 -0.01,-0.02 -0.02,-0.04 0,-0.01 0,-0.01 -0.01,-0.02 0,-0.01 -0.01,-0.02 -0.01,-0.02 -0.01,-0.02 -0.03,-0.04 -0.04,-0.05l-0.01 -0.02c0,0 -0.01,0 -0.01,-0.01 0,0 0,0 -0.01,0 0,-0.01 -0.01,-0.01 -0.01,-0.02l-0.06 -0.05c-0.05,-0.02 -0.1,-0.05 -0.15,-0.06 -0.04,-0.01 -0.06,-0.01 -0.1,-0.01 0,0 -0.01,0.01 -0.01,0.01 -0.01,0 -0.03,0 -0.04,0 -0.06,0 -0.09,0.01 -0.14,0.04 -0.01,0 -0.04,0.02 -0.05,0.02 -0.01,0.01 -0.03,0.03 -0.05,0.04l0 0c-0.01,0.01 -0.03,0.03 -0.04,0.04 0,0 0,0 0,0l-0.01 0.02c-0.04,0.04 -0.05,0.06 -0.07,0.11 -0.02,0.04 -0.03,0.08 -0.03,0.12 -0.01,0.03 -0.01,0.05 -0.01,0.08l0 0.27c0,0.01 0,0.02 0,0.03zm-0.1 -1.1l1.1 0 0 0.1 -1.1 0 0 -0.1zm-0.23 -0.07l0 0.02c0,0 0,0.01 0.01,0.03 0.01,0.01 0.01,0.01 0.02,0.02 0.03,0.01 0.06,0 0.08,0l0 1.12c0,0 -0.01,0 -0.01,0 0,0 -0.01,0 -0.01,0 -0.01,0.01 -0.02,0.01 -0.02,0.02 -0.01,0 -0.01,0 -0.01,0l-0.01 0.01c-0.01,0.01 -0.01,0.01 -0.02,0.02 -0.01,0.02 -0.02,0.05 -0.03,0.07l0 0.01 0 0.15c0,0 0,0.01 0,0.01 0,0 0.01,0 0.01,0.01l0.01 0.01c0,0 0,0 0,0 0,0 0,0 0,0.01 0.02,0.01 0.02,0.01 0.03,0.01l1.47 0 0.01 0c0,-0.01 0,-0.01 0,-0.01 0.01,0 0.01,0 0.02,-0.01 0,0 0.01,-0.01 0.01,-0.02 0.01,-0.01 0.01,-0.01 0.01,-0.03 0,0 0,-0.01 0,-0.01 0,-0.01 0,-0.02 0,-0.02l0 -0.07c0,0 0,0 0,0l0 -0.02c0,0 0,-0.01 0,-0.01 -0.01,-0.03 -0.02,-0.05 -0.03,-0.08l-0.02 -0.01c0,-0.01 -0.01,-0.01 -0.01,-0.01l-0.01 -0.01c-0.01,-0.01 -0.02,-0.02 -0.03,-0.02 0,0 -0.01,0 -0.01,-0.01l0 -1.11c0.02,0 0.05,0 0.07,0 0.01,0 0.03,-0.02 0.03,-0.03 0.01,-0.03 0.01,-0.06 -0.02,-0.08 -0.01,-0.01 -0.01,-0.01 -0.02,-0.01 0,0 0,0 0,0l-1.47 0c-0.01,0 -0.02,0 -0.04,0.02 -0.01,0.02 -0.01,0.02 -0.01,0.03z"/>
 </g>
</svg>
