<?xml version="1.0" encoding="UTF-8"?>
<!DOCTYPE svg PUBLIC "-//W3C//DTD SVG 1.0//EN" "http://www.w3.org/TR/2001/REC-SVG-20010904/DTD/svg10.dtd">
<!-- Creator: CorelDRAW 2018 (64 Bit Versão de avaliação) -->
<svg xmlns="http://www.w3.org/2000/svg" xml:space="preserve" width="31px" height="40px" version="1.0" shape-rendering="geometricPrecision" text-rendering="geometricPrecision" image-rendering="optimizeQuality" fill-rule="evenodd" clip-rule="evenodd"
viewBox="0 0 1.09 1.41"
 xmlns:xlink="http://www.w3.org/1999/xlink">
 <g id="Camada_x0020_1">
  <metadata id="CorelCorpID_0Corel-Layer"/>
  <path fill="#292929" d="M0.31 0.79c-0.05,0 -0.09,-0.01 -0.14,-0.03 -0.01,-0.01 -0.02,-0.01 -0.04,-0.02l0 -0.49c0.04,0.02 0.12,0.04 0.18,0.04 0.1,0 0.2,-0.05 0.28,-0.1 0.05,-0.02 0.12,-0.05 0.18,-0.05 0.06,0 0.09,0 0.15,0.03 0.01,0 0.02,0.01 0.03,0.01l0 0.49c-0.09,-0.04 -0.21,-0.04 -0.31,-0.01 -0.04,0.01 -0.07,0.03 -0.11,0.05 -0.06,0.03 -0.14,0.08 -0.22,0.08zm-0.28 -0.79l0.08 0c0.04,0 0.02,0.08 0.02,0.11 0.04,0.02 0.12,0.05 0.18,0.05 0.04,0 0.09,-0.02 0.12,-0.03 0.04,-0.02 0.05,-0.03 0.08,-0.04 0.06,-0.04 0.15,-0.09 0.24,-0.09l0.01 0c0.08,0 0.13,0 0.21,0.04 0.03,0.02 0.12,0.05 0.12,0.08l0 0.74c0,0.01 -0.01,0.02 -0.02,0.02 -0.03,0 -0.05,-0.02 -0.07,-0.03 -0.12,-0.08 -0.21,-0.11 -0.35,-0.05 -0.11,0.05 -0.21,0.13 -0.33,0.13 -0.13,0 -0.16,-0.03 -0.19,-0.04l0 0.42c0,0.04 0.02,0.1 -0.02,0.1l-0.08 0c-0.02,0 -0.03,-0.01 -0.03,-0.02l0 -1.37c0,-0.01 0.01,-0.02 0.03,-0.02z"/>
 </g>
</svg>
