<?xml version="1.0" encoding="UTF-8"?>
<!DOCTYPE svg PUBLIC "-//W3C//DTD SVG 1.0//EN" "http://www.w3.org/TR/2001/REC-SVG-20010904/DTD/svg10.dtd">
<!-- Creator: CorelDRAW 2018 (64 Bit Versão de avaliação) -->
<svg xmlns="http://www.w3.org/2000/svg" xml:space="preserve" width="41px" height="41px" version="1.0" shape-rendering="geometricPrecision" text-rendering="geometricPrecision" image-rendering="optimizeQuality" fill-rule="evenodd" clip-rule="evenodd"
viewBox="0 0 1.16 1.16"
 xmlns:xlink="http://www.w3.org/1999/xlink">
 <g id="Camada_x0020_1">
  <metadata id="CorelCorpID_0Corel-Layer"/>
  <g id="_2289718592976">
   <g>
    <path fill="#292929" d="M0.3 1.07c-0.05,0 -0.08,-0.02 -0.1,-0.05 -0.04,-0.04 -0.03,-0.18 -0.04,-0.24l-0.01 -0.13 0.28 0c-0.01,0.1 -0.01,0.14 -0.01,0.23 0,0.02 0,0.02 0,0.03 0,0.06 0,0.08 -0.03,0.11 -0.02,0.03 -0.05,0.05 -0.09,0.05zm0.01 0.09l-0.02 0c-0.05,0 -0.09,-0.02 -0.13,-0.05 -0.06,-0.05 -0.08,-0.13 -0.08,-0.21l-0.02 -0.21c0,-0.02 0,-0.03 0,-0.05 -0.04,0 -0.04,-0.04 -0.04,-0.08l-0.02 -0.22c0,-0.01 0,-0.01 0,-0.02 0,-0.04 0.02,-0.04 0.03,-0.05 0,0 0,-0.02 0,-0.02 0.03,-0.16 0.13,-0.25 0.31,-0.25 0.16,0 0.21,0.12 0.21,0.26 0,0.03 0.01,0.02 0.02,0.04 0.01,0.02 0,0.06 0,0.08l-0.01 0.16c0,0.01 0,0.01 -0.01,0.03 0,0.04 0,0.07 -0.03,0.07 0,0.02 -0.01,0.03 -0.01,0.05l0 0.22c0,0.03 0,0.06 -0.01,0.09 -0.01,0.04 -0.04,0.09 -0.07,0.11 -0.03,0.03 -0.07,0.05 -0.12,0.05zm0.16 -0.6l-0.36 0 0 -0.03c0,-0.01 -0.01,-0.01 -0.01,-0.03l0.37 0c0,0.01 0,0.04 0,0.06zm0.01 -0.15l-0.37 0c-0.02,0 -0.01,-0.02 -0.01,-0.05l0.38 0 0 0.05zm-0.16 -0.32c0.12,0 0.15,0.06 0.15,0.18l-0.35 0c0.01,-0.1 0.09,-0.18 0.2,-0.18z"/>
    <path fill="#292929" d="M0.86 1.07c-0.04,0 -0.07,-0.02 -0.09,-0.04 -0.04,-0.05 -0.03,-0.11 -0.03,-0.18 0,-0.03 0,-0.04 0,-0.07 0,-0.05 0,-0.09 0,-0.13l0.27 0 -0.02 0.26c0,0.05 -0.01,0.08 -0.03,0.11 -0.02,0.03 -0.06,0.05 -0.1,0.05zm-0.05 -1.07l0.04 0c0.04,0 0.07,0.01 0.11,0.02 0.06,0.03 0.11,0.08 0.14,0.14 0.01,0.03 0.03,0.08 0.03,0.11 0.01,0.01 0.03,0.02 0.03,0.04l-0.01 0.18c-0.01,0.03 -0.01,0.12 -0.02,0.14 -0.01,0.01 0,0 -0.01,0.01 -0.01,0.01 -0.02,0 -0.02,0.01 0,0.01 0,0.01 0,0.01l-0.01 0.08c0,0.03 -0.01,0.14 -0.01,0.17 0,0.07 -0.03,0.15 -0.08,0.2 -0.01,0.01 -0.04,0.03 -0.06,0.03 -0.02,0.01 -0.05,0.02 -0.07,0.02l-0.01 0c-0.03,0 -0.05,-0.01 -0.07,-0.02 -0.07,-0.02 -0.11,-0.07 -0.13,-0.14 -0.01,-0.04 -0.01,-0.09 -0.01,-0.13 0,-0.02 0,-0.03 0,-0.05 0,-0.06 0,-0.11 0,-0.17 -0.05,-0.03 -0.04,-0.02 -0.04,-0.08l-0.02 -0.26c0,-0.03 0.01,-0.03 0.02,-0.04 -0.01,-0.05 0.01,-0.14 0.04,-0.19 0.04,-0.05 0.1,-0.08 0.16,-0.08zm0.24 0.56l-0.36 0c0,-0.02 0,-0.03 0,-0.06l0.37 0c0,0.03 -0.01,0.03 -0.01,0.06zm-0.37 -0.2l0.39 0 -0.01 0.05 -0.38 0 0 -0.05zm0.02 -0.13c0,-0.08 0.04,-0.14 0.13,-0.14 0.08,0 0.15,0.03 0.19,0.1 0,0.02 0.02,0.05 0.02,0.08l-0.34 0 0 -0.04z"/>
   </g>
  </g>
 </g>
</svg>
