<?xml version="1.0" encoding="UTF-8"?>
<!DOCTYPE svg PUBLIC "-//W3C//DTD SVG 1.0//EN" "http://www.w3.org/TR/2001/REC-SVG-20010904/DTD/svg10.dtd">
<!-- Creator: CorelDRAW 2018 (64 Bit Versão de avaliação) -->
<svg xmlns="http://www.w3.org/2000/svg" xml:space="preserve" width="45px" height="33px" version="1.0" shape-rendering="geometricPrecision" text-rendering="geometricPrecision" image-rendering="optimizeQuality" fill-rule="evenodd" clip-rule="evenodd"
viewBox="0 0 2.32 1.72"
 xmlns:xlink="http://www.w3.org/1999/xlink">
 <g id="Camada_x0020_1">
  <metadata id="CorelCorpID_0Corel-Layer"/>
  <path fill="black" d="M2.03 1.52c-0.04,0 -0.07,-0.01 -0.11,-0.01 -0.07,0 -0.05,-0.08 -0.05,-0.17 0,-0.04 0,-0.07 0.03,-0.07 0.03,-0.01 0.17,-0.01 0.19,0 0.05,0.01 0.03,0.11 0.03,0.17 0,0.07 -0.04,0.08 -0.09,0.08zm0.03 0.2l-0.1 0c-0.06,-0.01 -0.11,-0.01 -0.14,-0.02 -0.12,-0.05 -0.16,-0.16 -0.16,-0.28 0,-0.03 0.01,-0.05 0.01,-0.08 0,-0.02 0,-0.05 0,-0.07 0.01,-0.11 0.13,-0.21 0.22,-0.21 0,-0.06 0.01,-0.1 -0.07,-0.1l-0.56 0 0 0.1c0.04,0 0.08,0.02 0.1,0.03 0.08,0.04 0.13,0.12 0.13,0.23 0,0.15 0.02,0.24 -0.09,0.34 -0.05,0.04 -0.11,0.06 -0.17,0.06l-0.11 0c-0.13,0 -0.23,-0.05 -0.27,-0.18 -0.03,-0.07 -0.01,-0.13 -0.01,-0.2 0,-0.06 -0.01,-0.1 0.04,-0.17 0.04,-0.05 0.11,-0.11 0.18,-0.11l0 -0.1 -0.56 0c-0.07,0 -0.07,0.04 -0.07,0.1 0.09,0 0.18,0.07 0.21,0.15 0.03,0.07 0.02,0.19 0.02,0.26 0,0.07 -0.04,0.15 -0.09,0.18 -0.06,0.05 -0.1,0.07 -0.2,0.07l-0.09 0c-0.07,0 -0.14,-0.02 -0.2,-0.07 -0.05,-0.05 -0.08,-0.13 -0.08,-0.21l0 -0.04c0,-0.01 0,-0.03 0,-0.04 0.01,-0.02 0,-0.05 0,-0.08 0.01,-0.1 0.12,-0.22 0.23,-0.22 0,-0.08 0,-0.12 0.04,-0.19 0.02,-0.03 0.03,-0.04 0.06,-0.06 0.04,-0.03 0.09,-0.05 0.14,-0.05l0.59 0 0 -0.1c-0.12,-0.01 -0.22,-0.11 -0.22,-0.23 -0.01,-0.04 -0.01,-0.08 -0.01,-0.11 0.01,-0.07 -0.01,-0.11 0.04,-0.19 0.01,-0.03 0.03,-0.04 0.05,-0.07 0.03,-0.03 0.09,-0.06 0.17,-0.06 0.1,0 0.2,-0.01 0.29,0.04 0.02,0.02 0.04,0.03 0.06,0.05 0.07,0.08 0.05,0.22 0.05,0.33 0,0.09 -0.06,0.17 -0.14,0.21 -0.03,0.02 -0.05,0.02 -0.09,0.03l0 0.1 0.6 0c0.08,0 0.17,0.06 0.21,0.14 0.03,0.05 0.02,0.1 0.02,0.16 0.11,0 0.23,0.11 0.23,0.24 0,0.12 0.02,0.27 -0.08,0.35 -0.03,0.03 -0.05,0.04 -0.09,0.05 -0.02,0.01 -0.06,0.02 -0.09,0.02zm-0.87 -0.2c-0.04,0 -0.06,-0.01 -0.1,-0.01 -0.07,0 -0.05,-0.08 -0.05,-0.17 0,-0.02 0,-0.03 0,-0.05 0.01,-0.03 0.06,-0.02 0.12,-0.03 0.01,0 0.09,0 0.1,0.01 0.04,0.01 0.03,0.11 0.03,0.17 0,0.07 -0.04,0.08 -0.1,0.08zm-0.83 0c-0.04,0 -0.07,-0.01 -0.1,-0.01 -0.07,0 -0.06,-0.08 -0.06,-0.17 0,-0.09 0.03,-0.07 0.13,-0.08 0.01,0 0.09,0 0.09,0.01 0.05,0.01 0.04,0.11 0.04,0.17 0,0.07 -0.04,0.08 -0.1,0.08zm0.86 -1.06c-0.2,0 -0.18,0.01 -0.18,-0.18 0,-0.1 0.04,-0.08 0.19,-0.08 0.08,0 0.06,0.1 0.06,0.19 0,0.05 -0.02,0.07 -0.07,0.07z"/>
 </g>
</svg>
