<?xml version="1.0" encoding="UTF-8"?>
<!DOCTYPE svg PUBLIC "-//W3C//DTD SVG 1.0//EN" "http://www.w3.org/TR/2001/REC-SVG-20010904/DTD/svg10.dtd">
<!-- Creator: CorelDRAW 2018 (64 Bit Versão de avaliação) -->
<svg xmlns="http://www.w3.org/2000/svg" xml:space="preserve" width="44px" height="41px" version="1.0" shape-rendering="geometricPrecision" text-rendering="geometricPrecision" image-rendering="optimizeQuality" fill-rule="evenodd" clip-rule="evenodd"
viewBox="0 0 1.31 1.23"
 xmlns:xlink="http://www.w3.org/1999/xlink">
 <g id="Camada_x0020_1">
  <metadata id="CorelCorpID_0Corel-Layer"/>
  <path fill="black" d="M0.1 0.86l0 -0.7c0,-0.03 0.02,-0.06 0.05,-0.06 0.02,0 0.1,0.04 0.13,0.05 0.04,0.02 0.08,0.04 0.12,0.06l0.18 0.08c0.04,0.02 0.04,0.02 0.08,0.02 0.04,0 0.1,-0.03 0.13,-0.05 0.04,-0.02 0.08,-0.04 0.12,-0.05l0.15 -0.07c0.02,-0.01 0.08,-0.04 0.09,-0.04 0.03,0 0.06,0.03 0.06,0.06l0 0.7c0,0.06 -0.06,0.06 -0.12,0.09l-0.36 0.15c-0.09,0.03 -0.06,0.03 -0.15,0l-0.32 -0.14c-0.02,0 -0.03,0 -0.04,-0.01 -0.06,-0.03 -0.12,-0.03 -0.12,-0.09zm0.7 0.01c0,0.02 0,0.03 0.01,0.05 0.03,0.03 0.07,0 0.11,-0.01l0.14 -0.06c0.03,-0.01 0.04,-0.02 0.04,-0.06 0,-0.02 -0.02,-0.04 -0.04,-0.04 -0.03,0 -0.05,0.01 -0.08,0.02l-0.14 0.06c-0.01,0 -0.02,0.01 -0.03,0.01 0,0.01 -0.01,0.02 -0.01,0.03zm-0.6 -0.57c0,0.02 0,0.03 0.02,0.05 0.01,0.01 0.22,0.1 0.23,0.1l0.02 0c0.02,0 0.04,-0.03 0.04,-0.04 0,-0.05 -0.02,-0.06 -0.08,-0.08 -0.01,-0.01 -0.02,-0.01 -0.03,-0.02 -0.02,0 -0.03,-0.01 -0.04,-0.01 -0.05,-0.02 -0.1,-0.06 -0.14,-0.03 -0.01,0.01 -0.02,0.02 -0.02,0.03zm0.4 0.15l0 0.53c0,0.02 0.03,0.04 0.05,0.04l0.01 0c0.02,0 0.04,-0.02 0.04,-0.04l0 -0.53c0,-0.02 -0.02,-0.04 -0.04,-0.04l-0.01 0c-0.02,0 -0.05,0.02 -0.05,0.04zm0.3 0.1l0 -0.12c0.01,0 0.03,-0.01 0.05,-0.02l0.05 -0.02 0 0.12c-0.03,0.01 -0.07,0.03 -0.1,0.04zm-0.1 -0.16l0 0.24c0,0.03 0.02,0.05 0.05,0.05 0.02,0 0.18,-0.07 0.21,-0.08 0.02,-0.01 0.04,-0.02 0.04,-0.05l0 -0.24c0,-0.03 -0.02,-0.05 -0.05,-0.05 -0.02,0 -0.17,0.07 -0.2,0.08 -0.02,0.01 -0.03,0.01 -0.04,0.02 0,0.01 -0.01,0.02 -0.01,0.03zm-0.49 0.23l0.05 0.02c0.01,0.01 0.03,0.01 0.05,0.02l0 0.14c-0.03,-0.01 -0.08,-0.02 -0.1,-0.04l0 -0.14zm-0.11 -0.08l0 0.26c0,0.03 0.03,0.04 0.05,0.05 0.03,0.02 0.19,0.08 0.21,0.08 0.03,0 0.05,-0.02 0.05,-0.05l0 -0.26c0,-0.04 -0.07,-0.06 -0.11,-0.08 -0.03,0 -0.05,-0.01 -0.07,-0.02 -0.03,-0.02 -0.05,-0.03 -0.08,-0.03 -0.02,0 -0.05,0.03 -0.05,0.05zm-0.2 -0.4l0 0.74c0,0.04 0.02,0.06 0.03,0.09 0.02,0.02 0.05,0.03 0.08,0.05 0.06,0.02 0.12,0.05 0.18,0.07l0.3 0.12c0.08,0.04 0.14,0 0.21,-0.03 0.01,-0.01 0.03,-0.01 0.04,-0.02l0.18 -0.07c0.06,-0.02 0.12,-0.05 0.18,-0.07 0.02,-0.01 0.05,-0.03 0.07,-0.05 0.02,-0.02 0.04,-0.05 0.04,-0.09l0 -0.74c0,-0.07 -0.07,-0.14 -0.14,-0.14 -0.05,0 -0.05,0 -0.09,0.02 -0.02,0.01 -0.04,0.02 -0.06,0.03l-0.27 0.12c-0.1,0.04 -0.09,0.04 -0.16,0.01l-0.18 -0.08c-0.04,-0.02 -0.08,-0.04 -0.12,-0.05 -0.02,-0.01 -0.04,-0.02 -0.06,-0.03 -0.04,-0.02 -0.04,-0.02 -0.09,-0.02 -0.03,0 -0.06,0.02 -0.09,0.04 0,0 0,0 -0.01,0 0,0.01 0,0.01 0,0.01 -0.01,0.01 -0.02,0.02 -0.02,0.03 -0.01,0.02 -0.02,0.04 -0.02,0.06z"/>
 </g>
</svg>
