<?xml version="1.0" encoding="UTF-8"?>
<!DOCTYPE svg PUBLIC "-//W3C//DTD SVG 1.0//EN" "http://www.w3.org/TR/2001/REC-SVG-20010904/DTD/svg10.dtd">
<!-- Creator: CorelDRAW 2018 (64 Bit Versão de avaliação) -->
<svg xmlns="http://www.w3.org/2000/svg" xml:space="preserve" width="26px" height="41px" version="1.0" shape-rendering="geometricPrecision" text-rendering="geometricPrecision" image-rendering="optimizeQuality" fill-rule="evenodd" clip-rule="evenodd"
viewBox="0 0 5.97 9.45"
 xmlns:xlink="http://www.w3.org/1999/xlink">
 <g id="Camada_x0020_1">
  <metadata id="CorelCorpID_0Corel-Layer"/>
  <g id="_2289544931376">
   <g>
    <path fill="#292929" d="M4.99 8.14l-4.01 0c-0.19,0 -0.26,-0.1 -0.26,-0.29l0 -4.21 4.52 0 0 4.18c0,0.08 -0.01,0.18 -0.05,0.23 -0.04,0.04 -0.12,0.09 -0.2,0.09zm-4.27 -7.11c0,-0.23 0.09,-0.31 0.32,-0.31l3.92 0c0.22,0 0.28,0.13 0.28,0.35l0 1.82 -4.52 0 0 -1.86zm-0.72 -0.16l0 7.14c0,0.42 0.44,0.85 0.87,0.85 0,0.16 -0.02,0.35 0.08,0.47 0.09,0.1 0.21,0.11 0.34,0.11 0.26,0 0.32,-0.3 0.32,-0.57l2.75 0c0,0.19 -0.03,0.34 0.09,0.47 0.13,0.14 0.42,0.14 0.55,-0.01 0.06,-0.07 0.09,-0.14 0.09,-0.27 0,-0.23 -0.04,-0.18 0.13,-0.21 0.49,-0.09 0.75,-0.56 0.75,-1.03l0 -6.81c0,-0.43 -0.18,-0.7 -0.5,-0.9 -0.08,-0.05 -0.23,-0.11 -0.35,-0.11l-4.24 0c-0.44,0 -0.88,0.44 -0.88,0.87z"/>
    <path fill="#292929" d="M4.08 4.37l0 1.58c0,0.38 0.72,0.42 0.72,-0.04l0 -1.48c0,-0.19 -0.15,-0.35 -0.31,-0.35 -0.21,0 -0.41,0.07 -0.41,0.29z"/>
    <path fill="#292929" d="M4.08 1.44l0 0.74c0,0.06 0.06,0.17 0.1,0.2 0.18,0.15 0.49,0.1 0.59,-0.12 0.04,-0.08 0.02,-0.36 0.04,-0.47 0.01,-0.09 -0.02,-0.34 -0.06,-0.44 -0.13,-0.33 -0.67,-0.18 -0.67,0.09z"/>
   </g>
  </g>
 </g>
</svg>
