<?xml version="1.0" encoding="UTF-8"?>
<!DOCTYPE svg PUBLIC "-//W3C//DTD SVG 1.0//EN" "http://www.w3.org/TR/2001/REC-SVG-20010904/DTD/svg10.dtd">
<!-- Creator: CorelDRAW 2018 (64 Bit Versão de avaliação) -->
<svg xmlns="http://www.w3.org/2000/svg" xml:space="preserve" width="41px" height="41px" version="1.0" shape-rendering="geometricPrecision" text-rendering="geometricPrecision" image-rendering="optimizeQuality" fill-rule="evenodd" clip-rule="evenodd"
viewBox="0 0 1.01 1.01"
 xmlns:xlink="http://www.w3.org/1999/xlink">
 <g id="Camada_x0020_1">
  <metadata id="CorelCorpID_0Corel-Layer"/>
  <g id="_2303598864976">
   <g>
    <path fill="black" d="M0.21 0.72l0.11 -0.11c0,0.01 0,0.03 0,0.04 0.01,0.02 0.02,0.03 0.03,0.03 0.04,0 0.03,-0.06 0.03,-0.1l0.09 0.05c0,0 -0.02,0.02 -0.03,0.02 -0.02,0.03 -0.06,0.07 -0.08,0.09 -0.02,0.01 -0.04,0.03 -0.08,0.02 -0.02,0 -0.05,-0.03 -0.07,-0.04zm-0.18 0.29l0 0c-0.02,0 -0.03,-0.01 -0.03,-0.03l0 -0.19c0,-0.08 0.06,-0.11 0.07,-0.13 -0.01,-0.02 -0.05,-0.04 -0.04,-0.07 0.01,-0.01 0.16,-0.16 0.17,-0.17 0,-0.01 -0.01,-0.02 -0.02,-0.03 -0.02,-0.04 -0.02,-0.04 0.01,-0.07l0.08 -0.08c0.01,-0.01 0.04,-0.04 0.05,-0.04 0.03,-0.01 0.04,0.02 0.06,0.04 0.03,-0.02 0.06,-0.08 0.09,-0.04 0.02,0.01 0.14,0.13 0.15,0.14 0,0.01 0.02,0.16 0.03,0.17 0,0.03 -0.02,0.04 -0.03,0.05l-0.13 0.13c-0.02,0.02 -0.09,0.1 -0.12,0.11 -0.05,0.03 -0.1,0.03 -0.14,0.01 -0.02,-0.01 -0.03,-0.02 -0.04,-0.04l-0.07 -0.07c-0.01,0.01 -0.02,0.02 -0.03,0.03 -0.03,0.03 -0.03,0.06 -0.03,0.11l0 0.15c0,0.01 -0.02,0.02 -0.03,0.02z"/>
    <path fill="black" d="M0.53 0.17l0.11 0.1 0.05 -0.05c0.04,-0.04 0.08,-0.07 0.15,-0.07 0.09,0 0.08,0.02 0.08,-0.12 0,-0.02 -0.02,-0.03 -0.03,-0.03l-0.07 0c-0.03,0 -0.05,0 -0.09,0.02 -0.08,0.02 -0.12,0.07 -0.17,0.12 -0.01,0.01 -0.02,0.02 -0.03,0.03z"/>
    <path fill="black" d="M0.79 0.48l0 0.01c0,0.05 0.05,0.1 0.1,0.1l0.02 0c0.05,0 0.1,-0.05 0.1,-0.1 0,-0.04 -0.02,-0.08 -0.04,-0.11 -0.01,-0.02 -0.02,-0.03 -0.03,-0.05 -0.02,-0.02 -0.02,-0.03 -0.04,-0.03 -0.02,0 -0.03,0.02 -0.04,0.03 -0.01,0.02 -0.02,0.03 -0.03,0.05 -0.01,0.02 -0.04,0.07 -0.04,0.1z"/>
   </g>
  </g>
 </g>
</svg>
