<?xml version="1.0" encoding="UTF-8"?>
<!DOCTYPE svg PUBLIC "-//W3C//DTD SVG 1.0//EN" "http://www.w3.org/TR/2001/REC-SVG-20010904/DTD/svg10.dtd">
<!-- Creator: CorelDRAW 2018 (64 Bit Versão de avaliação) -->
<svg xmlns="http://www.w3.org/2000/svg" xml:space="preserve" width="45px" height="39px" version="1.0" shape-rendering="geometricPrecision" text-rendering="geometricPrecision" image-rendering="optimizeQuality" fill-rule="evenodd" clip-rule="evenodd"
viewBox="0 0 0.9 0.78"
 xmlns:xlink="http://www.w3.org/1999/xlink">
 <g id="Camada_x0020_1">
  <metadata id="CorelCorpID_0Corel-Layer"/>
  <path fill="black" d="M0.75 0.7l0 0.01c0,0.03 0.04,0.07 0.07,0.07l0.01 0c0.03,0 0.07,-0.04 0.07,-0.07 0,-0.03 -0.01,-0.04 -0.02,-0.07l-0.03 -0.05c-0.01,-0.02 -0.01,-0.03 -0.03,-0.03 -0.01,0 -0.01,0.02 -0.02,0.03 -0.01,0.03 -0.03,0.07 -0.04,0.09 0,0.01 -0.01,0.01 -0.01,0.02zm-0.32 -0.08c0,0 -0.02,0.01 -0.02,0.01 -0.01,0 -0.03,-0.01 -0.04,-0.02 0,0 0,0 0,0l-0.06 -0.03c0,-0.01 -0.01,-0.01 -0.01,-0.01l-0.03 -0.02c0,0 -0.02,-0.01 -0.03,-0.01l-0.04 -0.03c0,0 -0.01,0 -0.01,0 -0.01,-0.01 -0.02,-0.01 -0.03,-0.02l-0.02 -0.01c0,0 0,0 -0.01,-0.01l0 0c0,0 -0.01,0 -0.01,0 -0.01,-0.01 -0.02,-0.01 -0.03,-0.02 0,0 0,-0.01 0,-0.01 0,-0.02 0,-0.02 0.01,-0.03l0.05 0.03c0.01,0.01 0.03,0.02 0.04,0.02l0.03 0.02c0,0 0,0 0.01,0.01l0.01 0c0,0 0.01,0.01 0.01,0.01 0,0 0.01,0 0.01,0.01 0,0 0.01,0 0.01,0 0.01,0.01 0.03,0.02 0.04,0.02l0.12 0.07c0,0 0,0 0,0 0,0 0,0 0,0.01l0.02 0c0,0 0,0 0,0 0,0 0,0 0,0l-0.02 0.01zm-0.3 -0.27c0,-0.01 0.01,-0.01 0.01,-0.02l0.07 -0.12c0,0 0,0 0,0l0.02 -0.03c0,0 0.01,0 0.02,0l0.01 0.01c0.01,0 0.01,0.01 0.01,0.01 0.01,0 0.02,0.01 0.03,0.01l0.03 0.02c0.01,0.01 0.02,0.01 0.03,0.02l0.03 0.01c0,0 0,0 0,0.01l0.02 0.01c0.01,0.01 0.02,0.01 0.03,0.02 0.01,0 0.01,0 0.01,0 0.01,0.01 0.02,0.01 0.02,0.02 0,0 0.01,0.02 0.01,0.03l0.01 0.06c0.01,0.01 0.01,0.02 0.02,0.04 0,0.01 0.01,0.02 0.02,0.02 0.01,0 0.08,0.01 0.09,0.01l0.06 0.01c0.01,0 0.02,0.01 0.02,0.01l0 0 -0.03 0.01c0,0.01 -0.01,0.01 -0.01,0.01l-0.05 0.02c-0.02,0.01 -0.03,0.01 -0.05,0.02 0,0 0,0 -0.01,0.01l-0.02 0c0,0.01 0,0.01 -0.01,0 0,0 0,0 0,0l-0.04 -0.02c0,0 0,0 0,0 0,0 -0.01,0 -0.01,-0.01 0,0 0,0 -0.01,0l-0.01 -0.01c-0.01,0 -0.02,-0.01 -0.04,-0.02 0,0 -0.02,-0.01 -0.03,-0.02 0,0 0,0 0,0 0,0 0,0 0,0l-0.01 -0.01c-0.01,0 -0.01,0 -0.01,0 0,0 0,0 -0.01,0l-0.01 -0.01c0,0 0,0 -0.01,-0.01 0,0 0,0 -0.01,0l-0.01 -0.01c0,0 -0.01,0 -0.02,-0.01l-0.08 -0.05c0,0 -0.01,0 -0.02,-0.01 0,0 -0.01,0 -0.01,-0.01l-0.05 -0.02zm-0.06 -0.22c0,0 0.01,-0.01 0.01,-0.01l0.01 -0.02c0,-0.01 0.01,-0.03 0.02,-0.03 0,0 0.01,0 0.01,0 0.01,0.01 0.01,0.01 0.02,0.02l0 0.01c0.01,0 0.01,0.01 0.02,0.01 0,0 0.01,0.01 0.01,0.02 0,0 0,0 0,0l-0.04 0.08c0,-0.01 0,-0.01 0,-0.01l-0.01 -0.01c-0.01,0 -0.01,0 -0.01,0l0 -0.01c0,0 -0.02,-0.02 -0.02,-0.02l-0.01 -0.01c0,0 0,0 0,0 -0.01,-0.01 -0.01,-0.01 -0.01,-0.02zm-0.07 -0.01l0 0.02c0,0 0,0 0,0l0 0.01c0,0 0,0.01 0.01,0.02 0,0 0,0.01 0.01,0.01 0,0.01 0,0.01 0,0.01l0.01 0.01c0,0 0,0.01 0.01,0.01l0.02 0.02c0,0 0,0 0,0.01 0.01,0 0.02,0.02 0.03,0.03 0,0 0,0 0,0 0,0 0,0 0,0 0,0 0,0 0,0l-0.04 0.07c0,0 0,0 0,0.01l-0.02 0.03c-0.01,0.02 -0.01,0.03 -0.02,0.04 0,0.01 0,0.03 0,0.04 0.01,0.01 0.01,0.02 0.02,0.03 0,0 0,0 0.01,0.01 0,0 0,0 0,0 0.02,0.02 0.04,0.03 0.06,0.04l0.08 0.05c0.01,0 0.02,0.01 0.03,0.01l0.04 0.03c0.01,0 0.01,0 0.01,0l0.06 0.03c0.02,0.02 0.05,0.04 0.07,0.04 0,0 0.01,0 0.01,0l0.02 0 0 0c0.01,0 0.01,0 0.01,0 0.01,0 0.02,-0.01 0.03,-0.01 0,0 0,0 0,0 0,-0.01 0.01,-0.01 0.01,-0.01 0.01,0 0.02,-0.01 0.04,-0.01l0.04 -0.02c0,-0.01 0.02,-0.01 0.03,-0.02 0,0 0.01,0 0.01,0l0.02 -0.01c0,0 0,0 0,0 0.01,0 0.01,-0.01 0.01,-0.01l0.1 -0.04c0.01,0 0.01,-0.01 0.02,-0.01 0,0 0.01,-0.01 0.02,-0.01l0.01 0c0,-0.01 0.02,-0.01 0.03,-0.01l0.03 -0.02c0.01,-0.01 0.03,-0.01 0.03,-0.02 0,0 0.01,-0.01 0.01,-0.01 0,0 0,-0.01 0,-0.01l0 -0.01 0 0c0,0 -0.01,-0.01 -0.01,-0.01 -0.01,-0.01 -0.02,-0.02 -0.03,-0.02 -0.03,0 -0.05,-0.01 -0.08,-0.01 -0.03,0 -0.07,-0.01 -0.1,-0.01 -0.02,-0.01 -0.04,-0.01 -0.06,-0.01 -0.01,0 -0.02,0 -0.02,-0.01 0,0 0,0 0,0 -0.01,-0.01 -0.01,-0.02 -0.01,-0.03 -0.01,-0.03 -0.01,-0.05 -0.02,-0.07 -0.01,-0.02 -0.02,-0.04 -0.03,-0.05 0,0 0,0 0,0 -0.01,0 -0.02,-0.01 -0.02,-0.01 -0.01,0 -0.02,-0.01 -0.03,-0.02l-0.05 -0.03 0.01 -0.02c0,0 0,-0.01 0.01,-0.01 0,0 0.01,0.01 0.01,0.01l0.03 0.02c0.01,0 0.01,0 0.01,0 0.01,0.01 0.02,0.01 0.03,0.01 0.01,0 0.01,0 0.02,0 0,-0.01 0.01,-0.01 0.01,-0.01 0,-0.01 0,-0.02 0,-0.03 0,-0.01 -0.01,-0.02 -0.02,-0.02 0,-0.01 -0.01,-0.01 -0.02,-0.02l-0.01 0c0,0 0,0 0,-0.01l-0.01 0c-0.01,-0.01 -0.03,-0.01 -0.04,-0.02l-0.08 -0.05c-0.01,0 -0.01,-0.01 -0.02,-0.01 -0.01,0 -0.01,-0.01 -0.02,-0.01 -0.01,0 -0.03,0.01 -0.03,0.02 -0.01,0.01 -0.01,0.03 0,0.04 0,0 0,0 0.01,0.01 0,0 0.01,0.01 0.02,0.01l0.01 0.01c0,0 0.01,0 0.01,0l0.02 0.02c0,0 0,0.01 0,0.01 0,0 0,0 0,0l-0.01 0.02 -0.01 -0.01c0,0 0,0 -0.01,0l-0.04 -0.02c0,0 0,-0.01 0,-0.01l-0.03 -0.01c0,0 -0.01,-0.01 -0.02,-0.01 -0.01,-0.01 -0.01,-0.02 -0.02,-0.02l-0.01 -0.02c0,0 0,0 0,0 0,0 0,0 0,0 -0.01,-0.01 -0.02,-0.02 -0.02,-0.02l-0.01 -0.01c0,0 0,0 0,0 -0.01,-0.01 -0.01,-0.01 -0.02,-0.02 0,0 0,0 0,0 0,0 0,0 -0.01,0 0,0 -0.01,-0.01 -0.02,-0.01 0,0 0,0 0,0l-0.01 0 -0.01 0c0,0 0,0 0,0 0,0 0,0 0,0l-0.02 0c0,0 0,0 -0.01,0.01 -0.01,0 -0.03,0.01 -0.04,0.03l0 0c-0.01,0.01 -0.01,0.01 -0.01,0.01 0,0 0,0.01 0,0.01 0,0 -0.01,0 -0.01,0.01l0 0.01c-0.01,0.01 -0.01,0.02 -0.02,0.03l0 0.01zm0.8 0.58l0 0c0,0.01 0.01,0.03 0.02,0.03l0.01 0c0.01,0 0.02,-0.02 0.02,-0.03 0,-0.01 0,-0.01 -0.01,-0.02l0 -0.02c-0.01,-0.01 -0.01,-0.01 -0.01,-0.01 -0.01,0 -0.01,0.01 -0.01,0.01 -0.01,0.01 -0.01,0.02 -0.02,0.03 0,0 0,0.01 0,0.01z"/>
 </g>
</svg>
