<?xml version="1.0" encoding="UTF-8"?>
<!DOCTYPE svg PUBLIC "-//W3C//DTD SVG 1.0//EN" "http://www.w3.org/TR/2001/REC-SVG-20010904/DTD/svg10.dtd">
<!-- Creator: CorelDRAW 2018 (64 Bit Versão de avaliação) -->
<svg xmlns="http://www.w3.org/2000/svg" xml:space="preserve" width="33px" height="41px" version="1.0" shape-rendering="geometricPrecision" text-rendering="geometricPrecision" image-rendering="optimizeQuality" fill-rule="evenodd" clip-rule="evenodd"
viewBox="0 0 1.03 1.27"
 xmlns:xlink="http://www.w3.org/1999/xlink">
 <g id="Camada_x0020_1">
  <metadata id="CorelCorpID_0Corel-Layer"/>
  <g id="_2290055167232">
   <g>
    <path fill="#292929" d="M0.87 1.16c-0.23,0 -0.49,-0.01 -0.71,0 -0.02,0 -0.04,0 -0.04,-0.02l0 -0.69c0,-0.09 0.05,-0.17 0.11,-0.23 0.07,-0.07 0.14,-0.09 0.24,-0.11 0.04,0 0.1,0.01 0.14,0.03 0.05,0.02 0.17,0.15 0.22,0.21 0.01,0 0.04,0.03 0.04,0.04 0,0.09 0.01,0.74 0,0.77zm-0.07 -1l0.02 -0.03 0.08 0.08 -0.03 0.02 -0.07 -0.07zm-0.8 0.37l0 0.59c0,0.08 0.05,0.15 0.12,0.15l0.74 0c0.07,0 0.12,-0.07 0.12,-0.14l0 -0.76c0,-0.04 -0.01,-0.04 -0.03,-0.06 0.02,-0.01 0.08,-0.07 0.08,-0.1 0,-0.04 -0.06,-0.09 -0.09,-0.12 -0.04,-0.04 -0.1,-0.12 -0.15,-0.08 -0.04,0.03 -0.04,0.04 -0.07,0.07 -0.1,-0.07 -0.13,-0.08 -0.26,-0.08 -0.15,0 -0.3,0.1 -0.38,0.23 -0.06,0.09 -0.08,0.18 -0.08,0.3z"/>
    <path fill="#292929" d="M0.45 0.26c-0.01,0.02 -0.14,0.2 -0.16,0.22 -0.01,0.02 -0.01,0.02 -0.03,0.02 0,-0.08 0.02,-0.12 0.05,-0.16 0.03,-0.03 0.09,-0.08 0.14,-0.08zm0 0l0 0zm-0.3 0.2c0,0.05 0,0.09 0.03,0.12 0.04,0.03 0.07,0.03 0.11,0.03 0.04,0 0.08,-0.04 0.1,-0.06l0.14 -0.2c0.01,-0.02 0.02,-0.03 0.03,-0.05 0.05,-0.07 0.02,-0.16 -0.08,-0.16 -0.18,0 -0.33,0.17 -0.33,0.32z"/>
   </g>
  </g>
 </g>
</svg>
