<?xml version="1.0" encoding="UTF-8"?>
<!DOCTYPE svg PUBLIC "-//W3C//DTD SVG 1.0//EN" "http://www.w3.org/TR/2001/REC-SVG-20010904/DTD/svg10.dtd">
<!-- Creator: CorelDRAW 2018 (64 Bit Versão de avaliação) -->
<svg xmlns="http://www.w3.org/2000/svg" xml:space="preserve" width="41px" height="41px" version="1.0" shape-rendering="geometricPrecision" text-rendering="geometricPrecision" image-rendering="optimizeQuality" fill-rule="evenodd" clip-rule="evenodd"
viewBox="0 0 0.91 0.91"
 xmlns:xlink="http://www.w3.org/1999/xlink">
 <g id="Camada_x0020_1">
  <metadata id="CorelCorpID_0Corel-Layer"/>
  <path fill="black" d="M0.35 0.77l-0.13 0 0 -0.09c0,-0.05 0.04,-0.06 0.08,-0.06l0.31 0c0.04,0 0.07,0.01 0.07,0.06l0 0.09 -0.11 0c-0.01,0 -0.03,-0.06 -0.06,-0.06l-0.11 0c-0.02,0 -0.05,0.05 -0.05,0.06zm0.22 -0.08c0,0.02 0,0.02 0.01,0.03 0.02,0.03 0.06,0.01 0.06,-0.02 0,-0.01 0,-0.02 -0.01,-0.03 -0.01,-0.01 -0.04,-0.01 -0.06,0.01 0,0 0,0.01 0,0.01zm-0.31 0c0,0.03 0.02,0.04 0.03,0.04l0.01 0c0.04,0 0.05,-0.07 0,-0.07 -0.02,0 -0.04,0.01 -0.04,0.03zm0.56 -0.17l0 0.35c0,0.02 0.02,0.04 0.04,0.04l0 0c0.03,0 0.05,-0.02 0.05,-0.04l0 -0.35c0,-0.02 -0.02,-0.04 -0.04,-0.04 -0.02,0 -0.04,0.01 -0.05,0.02 0,0.01 0,0.01 0,0.02zm-0.82 -0.18l0 0.53c0,0.02 0.02,0.04 0.04,0.04 0.02,0 0.04,-0.01 0.04,-0.02 0.01,-0.01 0.01,-0.03 0.01,-0.05l0 -0.4c0,-0.03 0,-0.08 0,-0.1 0.01,-0.02 0.03,-0.04 0.05,-0.05l0.26 -0.17c0.01,-0.01 0.01,-0.01 0.02,-0.01 0.04,-0.03 0.05,-0.02 0.09,0.01l0.24 0.16c0.02,0.01 0.04,0.03 0.05,0.04 0.01,0.01 0.01,0.01 0.01,0.03 0.01,0.02 0.01,0.03 0.02,0.03 0.01,0.02 0.02,0.02 0.03,0.02 0.03,0 0.05,-0.02 0.05,-0.04l0 0 0 0c0,-0.02 0,-0.03 -0.01,-0.06 -0.01,-0.01 -0.02,-0.03 -0.03,-0.04 -0.03,-0.03 -0.06,-0.05 -0.1,-0.08 -0.07,-0.05 -0.15,-0.1 -0.23,-0.15 -0.02,-0.01 -0.05,-0.03 -0.08,-0.03l-0.02 0c-0.04,0 -0.09,0.04 -0.13,0.06l-0.17 0.12c-0.01,0.01 -0.09,0.06 -0.09,0.06 -0.01,0.01 -0.02,0.02 -0.02,0.03 -0.01,0.01 -0.03,0.05 -0.03,0.07zm0.37 0.14l0.17 0c0.03,0 0.04,0.01 0.06,0.04 0,0 0.01,0.02 0.01,0.02l-0.31 0c0,-0.01 0.02,-0.04 0.02,-0.04 0.01,-0.02 0.04,-0.02 0.05,-0.02zm-0.23 0.18l0 0.21c0,0.01 0.02,0.03 0.04,0.03l0.1 0c0.02,0 0.04,-0.02 0.04,-0.04l0 -0.01 0.27 0 0 0.01c0,0.02 0.02,0.04 0.04,0.04l0.1 0c0.02,0 0.03,-0.02 0.03,-0.03l0 -0.21c0,-0.02 -0.01,-0.05 -0.02,-0.06 -0.01,-0.02 -0.01,-0.02 -0.03,-0.04l-0.05 -0.1c-0.01,-0.01 -0.02,-0.02 -0.03,-0.04 -0.01,0 -0.01,0 -0.01,0 -0.02,-0.01 -0.05,-0.03 -0.07,-0.03l-0.19 0c-0.03,0 -0.07,0.02 -0.09,0.04 0,0 0,0.01 0,0.01 -0.01,0 -0.01,0 -0.01,0 -0.01,0.01 -0.01,0.01 -0.02,0.03 0,0.01 0,0.01 0,0.01 -0.01,0.02 -0.03,0.04 -0.04,0.06l-0.02 0.04c-0.01,0.02 -0.04,0.05 -0.04,0.08z"/>
 </g>
</svg>
