<?xml version="1.0" encoding="UTF-8"?>
<!DOCTYPE svg PUBLIC "-//W3C//DTD SVG 1.0//EN" "http://www.w3.org/TR/2001/REC-SVG-20010904/DTD/svg10.dtd">
<!-- Creator: CorelDRAW 2018 (64 Bit Versão de avaliação) -->
<svg xmlns="http://www.w3.org/2000/svg" xml:space="preserve" width="41px" height="41px" version="1.0" shape-rendering="geometricPrecision" text-rendering="geometricPrecision" image-rendering="optimizeQuality" fill-rule="evenodd" clip-rule="evenodd"
viewBox="0 0 1.01 1.02"
 xmlns:xlink="http://www.w3.org/1999/xlink">
 <g id="Camada_x0020_1">
  <metadata id="CorelCorpID_0Corel-Layer"/>
  <g id="_2463136626688">
   <g>
    <path fill="black" d="M0.3 0.44l-0.19 0c0,-0.03 0.01,-0.39 0,-0.39l0 0.39c0.01,0.01 0.16,0.01 0.18,0 0,0 0,0 0,0 0.01,0 0.01,0 0.01,0z"/>
    <path fill="black" d="M0.71 0.44c0,0.01 0.02,0 0.02,0 0.02,0 0.16,0.01 0.16,0l0 -0.39 0 0 0 0.39 -0.18 0z"/>
   </g>
   <path fill="black" d="M0.3 0.44c0,0 0,0 -0.01,0 0,0 0,0 0,0 -0.02,0.01 -0.17,0.01 -0.18,0l0 -0.39c0,-0.02 -0.03,-0.06 -0.07,-0.04 -0.05,0.02 -0.04,0.05 -0.04,0.09l0 0.38c0,0.02 0,0.05 0.01,0.06 0.01,0.04 0.06,0.03 0.09,0.03 0.07,0 0.14,0 0.2,0 0,0.08 0,0.17 0,0.25 0,0.04 0,0.08 0,0.13 0,0.02 0,0.03 0.01,0.04 0.02,0.03 0.06,0.03 0.09,0.01 0.01,-0.02 0.01,-0.03 0.01,-0.05l0 -0.38 0.19 0 0 0.38c0,0.02 0,0.03 0.01,0.05 0.01,0.01 0.02,0.02 0.04,0.02 0.02,0 0.04,-0.01 0.05,-0.02 0.01,-0.02 0.01,-0.02 0.01,-0.05l0 -0.38 0.18 0 0 0.38c0,0.02 0,0.03 0.01,0.04 0.02,0.02 0.05,0.03 0.08,0.02 0.03,-0.02 0.03,-0.05 0.03,-0.08l0 -0.87c0,-0.02 -0.01,-0.03 -0.02,-0.04 -0.04,-0.04 -0.09,0 -0.1,0.03l0 0.39c0,0.01 -0.14,0 -0.16,0 0,0 -0.02,0.01 -0.02,0 0,-0.12 0,-0.25 0,-0.37 0,-0.02 0,-0.04 -0.01,-0.05 -0.02,-0.03 -0.06,-0.03 -0.09,0 -0.01,0.01 -0.01,0.03 -0.01,0.05l0 0.37 -0.19 0 0 -0.37c0,-0.02 0,-0.04 -0.01,-0.05 -0.01,-0.01 -0.03,-0.02 -0.04,-0.02 -0.02,0 -0.04,0.01 -0.05,0.02 -0.01,0.01 -0.01,0.03 -0.01,0.05 0,0.12 0,0.25 0,0.37z"/>
  </g>
 </g>
</svg>
