<?xml version="1.0" encoding="UTF-8"?>
<!DOCTYPE svg PUBLIC "-//W3C//DTD SVG 1.0//EN" "http://www.w3.org/TR/2001/REC-SVG-20010904/DTD/svg10.dtd">
<!-- Creator: CorelDRAW 2018 (64 Bit Versão de avaliação) -->
<svg xmlns="http://www.w3.org/2000/svg" xml:space="preserve" width="41px" height="41px" version="1.0" shape-rendering="geometricPrecision" text-rendering="geometricPrecision" image-rendering="optimizeQuality" fill-rule="evenodd" clip-rule="evenodd"
viewBox="0 0 2.46 2.46"
 xmlns:xlink="http://www.w3.org/1999/xlink">
 <g id="Camada_x0020_1">
  <metadata id="CorelCorpID_0Corel-Layer"/>
  <path fill="black" d="M0.6 1.39c0.03,0 0.12,-0.07 0.14,-0.07l0.27 0 0 0.64c0,0.02 0.01,0.05 0.02,0.05 0.1,0.07 0.15,-0.05 0.2,-0.08 0.01,0.01 0.02,0.02 0.03,0.03 0.01,0.01 0.01,0.01 0.02,0.01 0.04,0.05 0.1,0.09 0.16,0.04 0.01,-0.02 0.02,-0.04 0.02,-0.07l0 -0.62 0.4 0 0 0.98 -1.26 0 0 -0.91zm1.12 -0.46c0,0.15 0.17,0.12 0.17,0.02 0,-0.05 -0.03,-0.08 -0.08,-0.09 -0.02,0 -0.04,0.01 -0.06,0.02 -0.01,0.01 -0.03,0.03 -0.03,0.05zm0.29 -0.43l0 0.02c0,0.12 0.17,0.1 0.17,0.01 0,-0.03 -0.01,-0.05 -0.02,-0.07 -0.03,-0.04 -0.09,-0.04 -0.13,-0.01 -0.01,0.01 -0.02,0.03 -0.02,0.05zm0.14 0.3l0 0.06c-0.05,0 -0.1,-0.01 -0.12,0.03 -0.01,0.01 -0.02,0.04 -0.02,0.06 0.01,0.1 0.08,0.08 0.14,0.08 0,0.03 0,0.07 0.01,0.1 0,0.01 0.01,0.02 0.02,0.02 0.03,0.03 0.09,0.03 0.12,0 0.03,-0.03 0.02,-0.07 0.02,-0.12l0.07 0c0.04,0 0.07,-0.03 0.07,-0.08l0 0c0,-0.03 0,-0.04 -0.02,-0.06 -0.02,-0.04 -0.07,-0.03 -0.12,-0.03 0,-0.04 0.01,-0.09 -0.02,-0.11 -0.03,-0.05 -0.15,-0.04 -0.15,0.05zm-0.98 0.94l0 -0.42 0.12 0 0 0.42c-0.03,-0.02 -0.02,-0.02 -0.07,-0.02 -0.02,0 -0.03,0.02 -0.05,0.02zm-0.76 -0.95c-0.06,0 -0.12,-0.06 -0.12,-0.11 0,-0.05 0,-0.08 0.03,-0.11 0.02,-0.02 0.06,-0.04 0.09,-0.04 0.06,0 0.14,0.06 0.19,0.1l0.05 0.02c0.01,0.01 0.01,0.01 0.01,0.02 -0.02,0 -0.14,0.08 -0.17,0.1 -0.03,0.01 -0.04,0.02 -0.08,0.02zm-0.08 0.56c-0.02,-0.04 -0.12,-0.21 -0.13,-0.22 0.01,-0.01 0.08,-0.04 0.09,-0.05l0.33 -0.19c0.03,-0.02 0.06,-0.03 0.09,-0.05l0.54 -0.31c0.01,-0.01 0.03,-0.02 0.04,-0.03l0.17 -0.1c0.01,0 0.03,-0.01 0.04,-0.02 0.01,-0.01 0.03,-0.02 0.04,-0.02 0.01,0.01 0.09,0.15 0.1,0.16 0.01,0.01 0.03,0.05 0.03,0.06 -0.01,0 -0.01,0.01 -0.02,0.01l-0.06 0.04c-0.02,0.01 -0.03,0.01 -0.05,0.02 -0.01,0.01 -0.02,0.02 -0.04,0.03 -0.03,0.01 -0.05,0.03 -0.08,0.04l-0.25 0.15c-0.03,0.02 -0.06,0.03 -0.08,0.05 -0.03,0.01 -0.06,0.03 -0.09,0.05 -0.06,0.03 -0.11,0.06 -0.17,0.09l-0.29 0.17c-0.01,0.01 -0.02,0.02 -0.04,0.02 -0.02,0.02 -0.15,0.1 -0.17,0.1zm0.7 -1.18c0.11,0 0.17,0.12 0.1,0.21 -0.02,0.03 -0.14,0.09 -0.18,0.12 -0.01,0 -0.03,0.01 -0.04,0.02 0,-0.02 0,-0.04 0,-0.06 0,-0.02 0,-0.03 0,-0.06l0 -0.08c0,-0.03 -0.01,-0.05 0.01,-0.08 0.02,-0.04 0.07,-0.07 0.11,-0.07zm-0.29 0.34c-0.01,-0.01 -0.11,-0.07 -0.14,-0.09 -0.03,-0.01 -0.03,-0.02 -0.07,-0.03 -0.06,-0.03 -0.08,-0.03 -0.14,-0.03 -0.06,0 -0.11,0.03 -0.15,0.06 -0.04,0.02 -0.08,0.07 -0.1,0.11 -0.05,0.11 -0.03,0.25 0.05,0.34 0.01,0.01 0.05,0.03 0.05,0.04 -0.01,0 -0.12,0.07 -0.13,0.07 -0.06,0.04 -0.11,0.05 -0.11,0.12 0,0.04 0.05,0.12 0.08,0.16l0.13 0.22c0.01,0.02 0.03,0.05 0.05,0.07 0.05,0.02 0.13,-0.03 0.17,-0.06l0 0.78c0,0.05 -0.01,0.13 0.03,0.17 0,0.01 0.02,0.02 0.04,0.02l1.46 0c0.03,0 0.07,-0.04 0.07,-0.07l0 -1.17c0,-0.09 -0.13,-0.07 -0.19,-0.07l-0.81 0 0.65 -0.38c0.04,-0.02 0.08,-0.04 0.11,-0.06 0.12,-0.07 0.1,-0.1 0.03,-0.22l-0.14 -0.24c-0.02,-0.03 -0.05,-0.1 -0.09,-0.1 -0.05,0 -0.07,0.02 -0.11,0.04l-0.15 0.09c0,-0.08 -0.06,-0.18 -0.12,-0.22 -0.07,-0.06 -0.11,-0.06 -0.2,-0.06l0 0c-0.09,0 -0.16,0.05 -0.21,0.11 -0.03,0.04 -0.06,0.11 -0.07,0.16 0,0.02 0,0.03 0,0.05 0,0.03 0.01,0.06 0.01,0.09 0,0.04 0,0.06 0,0.1z"/>
 </g>
</svg>
