<?xml version="1.0" encoding="UTF-8"?>
<!DOCTYPE svg PUBLIC "-//W3C//DTD SVG 1.0//EN" "http://www.w3.org/TR/2001/REC-SVG-20010904/DTD/svg10.dtd">
<!-- Creator: CorelDRAW 2018 (64 Bit Versão de avaliação) -->
<svg xmlns="http://www.w3.org/2000/svg" xml:space="preserve" width="25px" height="41px" version="1.0" shape-rendering="geometricPrecision" text-rendering="geometricPrecision" image-rendering="optimizeQuality" fill-rule="evenodd" clip-rule="evenodd"
viewBox="0 0 2.23 3.74"
 xmlns:xlink="http://www.w3.org/1999/xlink">
 <g id="Camada_x0020_1">
  <metadata id="CorelCorpID_0Corel-Layer"/>
  <path fill="#292929" d="M0.35 3.47c-0.06,0 -0.08,-0.03 -0.08,-0.08 0,-0.07 0.21,-0.25 0.27,-0.31 0.2,-0.23 0.29,-0.23 0.29,-0.46 0.03,0.02 0.07,0.08 0.09,0.11 0.12,0.12 0.06,0.15 -0.03,0.24l-0.31 0.32c-0.05,0.06 -0.15,0.18 -0.23,0.18zm1.54 0.27l-0.05 0c-0.09,0 -0.17,-0.04 -0.23,-0.11l-0.36 -0.47c-0.02,-0.02 -0.05,-0.06 -0.06,-0.09 -0.04,0.01 -0.03,0.03 -0.1,0.09 -0.03,0.03 -0.05,0.06 -0.09,0.09l-0.36 0.37c-0.12,0.11 -0.16,0.12 -0.31,0.12l0 0c-0.17,0 -0.31,-0.14 -0.33,-0.31l0 -0.09c0.01,-0.08 0.05,-0.15 0.12,-0.22l0.32 -0.33c0.1,-0.09 0.13,-0.09 0.13,-0.21 -0.11,0.01 -0.2,0.04 -0.34,-0.08 -0.21,-0.18 -0.03,-0.53 0.03,-0.72 0.04,-0.12 0.07,-0.21 0.14,-0.31 0.07,-0.11 0.14,-0.15 0.21,-0.23l0.31 -0.27c0.06,-0.05 0.11,-0.07 0.22,-0.07 -0.01,-0.01 0,0 -0.02,-0.01l-0.09 -0.06c-0.14,-0.1 -0.18,-0.22 -0.18,-0.39 0,-0.14 0.07,-0.23 0.13,-0.3 0.11,-0.13 0.24,-0.14 0.38,-0.14l0.01 0c0.2,0 0.43,0.22 0.41,0.5 -0.03,0.25 -0.21,0.43 -0.48,0.43 0.08,0.07 0.15,0.11 0.17,0.28 0.01,0.06 0.03,0.11 0.05,0.16 0.09,0.2 0.03,0.14 0.2,0.25 0.05,0.02 0.1,0.05 0.14,0.08 0.35,0.28 0.07,0.6 -0.14,0.6 -0.2,0 -0.17,-0.07 -0.27,-0.09l0.62 0.83c0.11,0.15 0.16,0.21 0.16,0.38 0,0.19 -0.16,0.31 -0.34,0.32zm-0.5 -1.82c0.01,-0.05 0.02,-0.1 0.02,-0.17 0.05,0.01 0.14,0.08 0.18,0.11 0.08,0.04 0.16,0.07 0.16,0.13 0,0.14 -0.28,-0.16 -0.36,-0.07zm-0.3 0.19c0,0.1 0.04,0.12 0.09,0.19 0.04,0.06 0.07,0.1 0.11,0.15 0.16,0.22 0.43,0.56 0.57,0.77 0.04,0.06 0.1,0.12 0.1,0.17 0,0.04 -0.04,0.08 -0.09,0.08 -0.07,0 -0.17,-0.16 -0.24,-0.25 -0.07,-0.1 -0.14,-0.19 -0.21,-0.28l-0.32 -0.43c-0.15,-0.2 -0.28,-0.07 -0.29,0.02 -0.03,-0.02 -0.02,-0.02 -0.07,-0.04 0.01,-0.03 0.07,-0.08 0.1,-0.18 0.04,-0.09 0.11,-0.37 0.15,-0.43 0.02,-0.03 0.04,-0.05 0.07,-0.07 0.03,-0.02 0.05,-0.05 0.08,-0.07 -0.02,0.07 -0.05,0.3 -0.05,0.37zm0.08 -0.6c-0.12,-0.07 -0.18,-0.01 -0.27,0.09 -0.04,0.03 -0.08,0.07 -0.11,0.1 -0.11,0.12 -0.18,0.57 -0.27,0.62 -0.03,0.01 -0.12,0.01 -0.12,-0.07 0,-0.09 0.07,-0.23 0.1,-0.34 0.11,-0.33 0.09,-0.26 0.38,-0.54 0.04,-0.04 0.07,-0.07 0.11,-0.11 0.06,-0.06 0.08,-0.09 0.16,-0.09 0.09,0 0.03,0.31 0.02,0.34zm-0.05 -1.03c0,-0.28 0.39,-0.29 0.39,0 0,0.23 -0.39,0.23 -0.39,0z"/>
 </g>
</svg>
