<?xml version="1.0" encoding="UTF-8"?>
<!DOCTYPE svg PUBLIC "-//W3C//DTD SVG 1.0//EN" "http://www.w3.org/TR/2001/REC-SVG-20010904/DTD/svg10.dtd">
<!-- Creator: CorelDRAW 2018 (64 Bit Versão de avaliação) -->
<svg xmlns="http://www.w3.org/2000/svg" xml:space="preserve" width="31px" height="41px" version="1.0" shape-rendering="geometricPrecision" text-rendering="geometricPrecision" image-rendering="optimizeQuality" fill-rule="evenodd" clip-rule="evenodd"
viewBox="0 0 0.52 0.69"
 xmlns:xlink="http://www.w3.org/1999/xlink">
 <g id="Camada_x0020_1">
  <metadata id="CorelCorpID_0Corel-Layer"/>
  <path fill="black" d="M0.23 0.26l0 -0.17c0,0 0,0 0.01,0 0,0.01 0.01,0.01 0.01,0.01 0,0 0.01,0 0.01,0 0.01,0 0.01,0.01 0.01,0.01l0.11 0.04c0.01,0 0.01,0 0.02,0 0,0 0,0 0.01,0 0,0.01 0.01,0.01 0.01,0.01 0,0 -0.01,0 -0.01,0.01l-0.16 0.07c0,0.01 -0.02,0.02 -0.02,0.02zm-0.04 -0.26l0.01 0c0.01,0 0.01,0 0.02,0.01 0.01,0.01 0,0.01 0.01,0.02 0,0 0,0 0,0 0,0 0,0 0,0 0,0 0,0 0,0 0.02,0.01 0.05,0.02 0.07,0.03 0.03,0.01 0.05,0.01 0.08,0.02 0.03,0.01 0.06,0.03 0.1,0.04 0.01,0 0.04,0.01 0.04,0.03 0,0.02 -0.01,0.03 -0.03,0.04 0,0 0,0 -0.01,0l-0.02 0.02c-0.03,0.01 -0.06,0.02 -0.08,0.03 -0.03,0.02 -0.05,0.03 -0.08,0.04l-0.06 0.03c0,0 -0.01,0.01 -0.01,0.01l0 0.19c0,0 0.02,0 0.03,0 0.04,0 0.07,0 0.1,0.01 0.01,0.01 0.02,0.01 0.02,0.02 0.01,0 0.02,0 0.03,0.01 0,0 0,0 0,0 0.01,0.01 0.01,0.01 0.01,0.01l0.01 0.01c0.01,0.02 0.01,0.04 0,0.06 -0.03,0.03 -0.08,0.05 -0.12,0.05 -0.03,0.01 -0.05,0.01 -0.07,0.01l-0.03 0 -0.01 0c-0.04,0 -0.09,-0.01 -0.12,-0.02 -0.01,0 -0.02,-0.01 -0.03,-0.01 -0.01,0 -0.02,-0.01 -0.02,-0.01 -0.01,-0.01 -0.02,-0.01 -0.02,-0.02 -0.01,-0.01 -0.01,-0.02 -0.01,-0.04 0,-0.02 0.02,-0.03 0.03,-0.04 0.02,-0.01 0.04,-0.02 0.06,-0.03 0.02,0 0.03,-0.01 0.05,-0.01l0 0.06c-0.02,0 -0.07,0.02 -0.08,0.03 0,0 0,0 0,0 0,0 0,0 0.01,0 0.02,0.02 0.05,0.02 0.08,0.03 0.01,0 0.03,0 0.04,0 0.01,0 0.01,0 0.02,0 0.05,0 0.11,0 0.15,-0.02 0.01,-0.01 0.01,-0.01 0.02,-0.01 -0.01,-0.01 -0.05,-0.02 -0.07,-0.03 -0.03,0 -0.06,-0.01 -0.08,-0.01 0,0.02 0,0.02 -0.01,0.03 -0.01,0.02 -0.03,0.02 -0.04,0.01 -0.01,-0.01 -0.01,-0.01 -0.01,-0.03l0 -0.54c0,-0.02 0.01,-0.03 0.02,-0.03z"/>
 </g>
</svg>
