<?xml version="1.0" encoding="UTF-8"?>
<!DOCTYPE svg PUBLIC "-//W3C//DTD SVG 1.0//EN" "http://www.w3.org/TR/2001/REC-SVG-20010904/DTD/svg10.dtd">
<!-- Creator: CorelDRAW 2018 (64 Bit Versão de avaliação) -->
<svg xmlns="http://www.w3.org/2000/svg" xml:space="preserve" width="57px" height="41px" version="1.0" shape-rendering="geometricPrecision" text-rendering="geometricPrecision" image-rendering="optimizeQuality" fill-rule="evenodd" clip-rule="evenodd"
viewBox="0 0 6.83 4.97"
 xmlns:xlink="http://www.w3.org/1999/xlink">
 <g id="Camada_x0020_1">
  <metadata id="CorelCorpID_0Corel-Layer"/>
  <g id="_2889811148688">
   <g>
    <path fill="black" d="M0 1.67c0,0.31 0.25,0.4 0.47,0.49 0.62,0.25 1.37,0.57 2.01,0.85 0.2,0.08 0.72,0.33 0.93,0.33 0.22,0 0.74,-0.25 0.94,-0.33l2.23 -0.95c0.32,-0.15 0.34,-0.6 0.01,-0.78 -0.17,-0.08 -1.21,-0.5 -1.35,-0.56 -0.46,-0.2 -1.12,-0.5 -1.56,-0.67 -0.32,-0.12 -0.5,0 -0.75,0.1l-2.24 0.94c-0.32,0.14 -0.69,0.22 -0.69,0.58z"/>
    <path fill="black" d="M3.41 4.97c0.57,0 1.25,-0.17 1.72,-0.45 0.23,-0.13 0.43,-0.31 0.43,-0.64 -0.01,-0.36 0,-0.72 0,-1.08 -0.13,0.07 -1.31,0.55 -1.53,0.64 -0.28,0.13 -0.37,0.17 -0.68,0.17 -0.2,0 -0.41,-0.11 -0.55,-0.17l-1.53 -0.64c0,0.35 0,0.71 0,1.07 0,0.34 0.19,0.51 0.43,0.65 0.47,0.27 1.16,0.45 1.71,0.45z"/>
    <path fill="black" d="M5.98 2.61l0 0.37c-0.21,0.12 -0.26,0.33 -0.17,0.51 0.04,0.06 0.06,0.06 0.09,0.11 -0.03,0.04 -0.13,0.12 -0.13,0.25 0,0.61 -0.08,0.54 0.58,0.54 0.04,0 0.09,-0.03 0.11,-0.06 0.06,-0.08 0.04,-0.48 0,-0.59 -0.03,-0.07 -0.07,-0.09 -0.1,-0.14 0.04,-0.07 0.15,-0.17 0.13,-0.33 -0.02,-0.08 -0.03,-0.12 -0.07,-0.17 -0.04,-0.04 -0.08,-0.09 -0.14,-0.1l0 -0.5c-0.08,0.01 -0.2,0.09 -0.3,0.11z"/>
   </g>
  </g>
 </g>
</svg>
