<?xml version="1.0" encoding="UTF-8"?>
<!DOCTYPE svg PUBLIC "-//W3C//DTD SVG 1.0//EN" "http://www.w3.org/TR/2001/REC-SVG-20010904/DTD/svg10.dtd">
<!-- Creator: CorelDRAW 2018 (64 Bit Versão de avaliação) -->
<svg xmlns="http://www.w3.org/2000/svg" xml:space="preserve" width="41px" height="41px" version="1.0" shape-rendering="geometricPrecision" text-rendering="geometricPrecision" image-rendering="optimizeQuality" fill-rule="evenodd" clip-rule="evenodd"
viewBox="0 0 1.58 1.58"
 xmlns:xlink="http://www.w3.org/1999/xlink">
 <g id="Camada_x0020_1">
  <metadata id="CorelCorpID_0Corel-Layer"/>
  <g id="_2038818775984">
   <path fill="#292929" d="M1 0.2c0,-0.03 0.01,-0.05 0.04,-0.05l0.34 0c0.04,0 0.05,0.01 0.05,0.04l0 0.35c0,0.02 -0.02,0.03 -0.05,0.03l-0.33 0c-0.04,0 -0.05,-0.01 -0.05,-0.04l0 -0.33zm0.02 -0.2c-0.05,0.01 -0.09,0.04 -0.12,0.06 -0.03,0.04 -0.04,0.07 -0.04,0.14 0,0.08 -0.01,0.29 0,0.36 0,0.05 0.04,0.09 0.06,0.11 0.03,0.04 0.08,0.05 0.14,0.05 0.07,0 0.3,0 0.36,0 0.05,-0.01 0.08,-0.04 0.11,-0.07 0.03,-0.03 0.04,-0.07 0.04,-0.13 0.01,-0.06 0.01,-0.32 0,-0.36 -0.01,-0.1 -0.09,-0.16 -0.19,-0.16 -0.05,0 -0.33,0 -0.36,0z"/>
   <path fill="#292929" d="M1.35 1c0.03,0 0.07,0 0.08,0.03l0 0.32c0,0.03 0.01,0.07 -0.03,0.08 -0.05,0 -0.25,0 -0.32,0 -0.04,0 -0.07,0 -0.08,-0.04l0 -0.31c0,-0.04 0,-0.07 0.03,-0.08l0.32 0zm-0.35 -0.14c-0.05,0.01 -0.09,0.04 -0.11,0.07 -0.03,0.05 -0.03,0.08 -0.03,0.15 0,0.06 -0.01,0.32 0,0.35 0.01,0.05 0.04,0.09 0.08,0.11 0.04,0.03 0.08,0.03 0.14,0.03 0.07,0 0.3,0.01 0.35,0 0.05,-0.01 0.09,-0.04 0.11,-0.07 0.03,-0.04 0.03,-0.08 0.03,-0.15 0,-0.06 0.01,-0.3 0,-0.35 -0.01,-0.04 -0.03,-0.08 -0.07,-0.11 -0.05,-0.03 -0.07,-0.03 -0.14,-0.03 -0.06,0 -0.33,-0.01 -0.36,0z"/>
   <path fill="#292929" d="M0.57 0.54c-0.01,0.04 -0.04,0.03 -0.08,0.03 -0.06,0 -0.28,0.01 -0.31,0 -0.04,-0.01 -0.03,-0.04 -0.03,-0.08l0 -0.31c0.01,-0.04 0.05,-0.03 0.08,-0.03 0.06,0 0.29,0 0.32,0 0.03,0.01 0.02,0.05 0.02,0.08 0,0.05 0.01,0.3 0,0.31zm-0.4 -0.54c-0.2,0.03 -0.17,0.22 -0.17,0.37 0,0.07 -0.01,0.19 0.02,0.25 0.02,0.02 0.03,0.03 0.04,0.05 0.03,0.03 0.07,0.05 0.13,0.05 0.12,0 0.25,0 0.36,0 0.06,-0.01 0.09,-0.03 0.12,-0.06 0.03,-0.03 0.05,-0.07 0.05,-0.13 0,-0.09 0,-0.29 0,-0.36 -0.01,-0.1 -0.09,-0.17 -0.19,-0.17 -0.05,0 -0.33,0 -0.36,0z"/>
   <path fill="#292929" d="M0.18 1c0.03,0 0.25,0 0.31,0 0.04,0 0.07,0 0.08,0.03 0.01,0.02 0,0.26 0,0.31 0,0.04 0.01,0.08 -0.02,0.08 -0.02,0.01 -0.26,0.01 -0.32,0.01 -0.03,0 -0.07,0 -0.08,-0.03l0 -0.32c0,-0.04 -0.01,-0.07 0.03,-0.08zm-0.18 0.4c0.01,0.1 0.08,0.17 0.19,0.17l0.36 0c0.09,-0.01 0.17,-0.08 0.17,-0.18 0,-0.12 0,-0.24 0,-0.36 0,-0.03 -0.01,-0.05 -0.02,-0.07 -0.04,-0.07 -0.09,-0.1 -0.17,-0.1 -0.12,0 -0.24,-0.01 -0.36,0 -0.06,0 -0.09,0.03 -0.12,0.06 -0.03,0.03 -0.05,0.07 -0.05,0.13 0,0.04 0,0.32 0,0.35z"/>
  </g>
 </g>
</svg>
