<?xml version="1.0" encoding="UTF-8"?>
<!DOCTYPE svg PUBLIC "-//W3C//DTD SVG 1.0//EN" "http://www.w3.org/TR/2001/REC-SVG-20010904/DTD/svg10.dtd">
<!-- Creator: CorelDRAW 2018 (64 Bit Versão de avaliação) -->
<svg xmlns="http://www.w3.org/2000/svg" xml:space="preserve" width="32px" height="41px" version="1.0" shape-rendering="geometricPrecision" text-rendering="geometricPrecision" image-rendering="optimizeQuality" fill-rule="evenodd" clip-rule="evenodd"
viewBox="0 0 0.55 0.71"
 xmlns:xlink="http://www.w3.org/1999/xlink">
 <g id="Camada_x0020_1">
  <metadata id="CorelCorpID_0Corel-Layer"/>
  <path fill="black" d="M0.2 0.51c0,0 0,0 0.01,0 0,0 0,0 0.01,0 0.03,0.01 0.06,0.01 0.09,0 0.02,0 0.02,0 0.04,0 0,0 0.01,0.03 0.01,0.04l-0.17 0c0,0 0,-0.01 0,-0.01 0,-0.01 0.01,-0.03 0.01,-0.03zm-0.04 -0.49c0,0.01 -0.01,0.02 0,0.02 0.02,0.02 0,0.04 -0.01,0.05 -0.03,0.05 0.01,0.1 0.03,0.1l0 0c0.01,0 0.02,-0.01 0.02,-0.02 0,-0.02 -0.01,-0.02 -0.01,-0.04 0,-0.01 0.01,-0.02 0.02,-0.03 0.01,-0.02 0.02,-0.04 0.01,-0.07 -0.01,-0.01 -0.02,-0.03 -0.04,-0.03l0 0c-0.01,0 -0.01,0 -0.02,0.01 0,0 0,0 0,0.01zm0.18 0c0,0.03 0.01,0.02 0.02,0.03 0.01,0.03 -0.03,0.04 -0.03,0.08 0,0.02 0,0.03 0.01,0.04 0.03,0.04 0.05,0.02 0.05,0 0,-0.01 0,-0.01 0,-0.02 -0.03,-0.03 0.02,-0.04 0.02,-0.08 0,-0.02 0,-0.03 -0.01,-0.05 -0.01,-0.01 -0.02,-0.02 -0.03,-0.02 -0.01,0 -0.03,0.01 -0.03,0.02zm-0.09 0c0,0.03 0.01,0.02 0.01,0.04 0,0.01 0,0.02 -0.01,0.03 -0.02,0.02 -0.01,0.03 -0.02,0.04 0,0.02 0.01,0.04 0.02,0.04 0.02,0.04 0.05,0.03 0.05,0 0,-0.01 -0.01,-0.02 -0.01,-0.03 -0.02,-0.02 0.03,-0.03 0.03,-0.08 0,-0.02 -0.02,-0.06 -0.04,-0.06l0 0c-0.01,0 -0.02,0 -0.02,0.01 -0.01,0 -0.01,0.01 -0.01,0.01zm0.3 0.22l0 0.01 0 0c0,0.04 -0.02,0.1 -0.04,0.14 -0.01,0.01 -0.01,0.02 -0.02,0.03l-0.05 0.04c0,0.01 -0.03,0.03 -0.04,0.03 0,0 0,0.02 0,0.02 0.01,0.01 0.01,0.02 0.01,0.03 0.01,0.04 0.02,0.08 0.02,0.12 0,0.01 0.01,0.02 0.01,0.03 0,0.01 -0.01,0.02 -0.03,0.02l0 0c-0.01,0 -0.02,0 -0.02,-0.02 0,0 -0.02,-0.08 -0.02,-0.09l-0.19 0c0,0.01 -0.01,0.06 -0.01,0.07 0,0 -0.01,0.02 -0.01,0.03 0,0.01 -0.01,0.01 -0.02,0.01l0 0c-0.02,0 -0.03,-0.01 -0.03,-0.02 0,-0.02 0.01,-0.04 0.01,-0.05l0.03 -0.15c-0.02,-0.01 -0.06,-0.04 -0.07,-0.05 0,-0.01 0,-0.01 -0.01,-0.01l-0.01 -0.02c-0.01,-0.01 -0.01,-0.01 -0.01,-0.01 -0.03,-0.05 -0.05,-0.1 -0.05,-0.16 0,-0.01 0.01,-0.02 0.02,-0.02l0.51 0c0,0 0.01,0 0.01,0 0.01,0.01 0.01,0.02 0.01,0.02zm-0.5 0.03l0.45 0c0,0.03 -0.03,0.09 -0.05,0.11 -0.01,0.01 -0.02,0.02 -0.02,0.02 -0.01,0.01 -0.02,0.02 -0.03,0.03 0,0 0,0 -0.01,0l-0.02 0.02c-0.05,0.02 -0.1,0.02 -0.15,0.01 -0.01,0 -0.03,-0.01 -0.04,-0.01 -0.01,-0.01 -0.02,-0.02 -0.03,-0.02 -0.01,-0.01 -0.02,-0.02 -0.03,-0.03l-0.02 -0.02c-0.02,-0.02 -0.03,-0.04 -0.04,-0.07 0,-0.01 -0.01,-0.03 -0.01,-0.04z"/>
 </g>
</svg>
