<?xml version="1.0" encoding="UTF-8"?>
<!DOCTYPE svg PUBLIC "-//W3C//DTD SVG 1.0//EN" "http://www.w3.org/TR/2001/REC-SVG-20010904/DTD/svg10.dtd">
<!-- Creator: CorelDRAW 2018 (64 Bit Versão de avaliação) -->
<svg xmlns="http://www.w3.org/2000/svg" xml:space="preserve" width="41px" height="41px" version="1.0" shape-rendering="geometricPrecision" text-rendering="geometricPrecision" image-rendering="optimizeQuality" fill-rule="evenodd" clip-rule="evenodd"
viewBox="0 0 5.76 5.76"
 xmlns:xlink="http://www.w3.org/1999/xlink">
 <g id="Camada_x0020_1">
  <metadata id="CorelCorpID_0Corel-Layer"/>
  <path fill="black" d="M2.6 3.47c0,-0.06 0.04,-0.14 0.07,-0.18 0.16,-0.19 0.5,-0.06 0.5,0.19 0,0.11 -0.08,0.22 -0.17,0.26 -0.2,0.09 -0.4,-0.07 -0.4,-0.27zm1.6 -0.39c0,-0.31 0.2,-0.22 0.23,-0.15 0.03,0.07 0.02,0.82 0.02,0.95 0,0.24 -0.09,0.46 -0.33,0.53 -0.2,0.05 -0.47,-0.03 -0.59,0.06 -0.03,0.02 -0.08,0.08 -0.08,0.13l0 0.74 -1.14 0 0 -0.74c0,-0.07 -0.09,-0.17 -0.21,-0.17 -0.21,0 -0.46,0.04 -0.62,-0.11 -0.13,-0.12 -0.16,-0.21 -0.16,-0.45l0 -0.81c0,-0.15 0.03,-0.19 0.14,-0.19 0.13,0 0.1,0.21 0.1,0.3l0 0.8c0,0.13 0.09,0.22 0.19,0.22l2.26 0c0.09,0 0.16,-0.07 0.18,-0.14l0.02 -0.31c0,-0.23 -0.01,-0.43 -0.01,-0.66zm-2.03 0.39c0,0.12 0.02,0.21 0.06,0.29l-0.25 0 0 -0.57 0.25 0c-0.02,0.08 -0.06,0.11 -0.06,0.28zm1.36 -0.28l0.25 0 0 0.57 -0.25 0c0.02,-0.05 0.04,-0.07 0.05,-0.12 0.03,-0.14 0.01,-0.33 -0.05,-0.45zm-2.23 -0.74c-0.01,-0.04 -0.01,-0.03 -0.01,-0.08 0,-0.09 0.19,-0.23 0.24,-0.29l0.34 -0.33c0.06,-0.07 0.13,-0.14 0.2,-0.2 0.1,-0.08 0.26,-0.13 0.4,-0.13l0.82 0c0.35,0 0.52,0.24 0.69,0.42 0.06,0.05 0.46,0.44 0.49,0.5 0.02,0.06 0,0.05 -0.01,0.11 -0.28,-0.03 -0.15,0.04 -0.43,-0.23 -0.05,-0.06 -0.1,-0.11 -0.16,-0.16 -0.08,-0.08 -0.1,-0.12 -0.24,-0.12 -0.09,0 -0.18,0.09 -0.18,0.18l0 0.65 -1.14 0 0 -0.66c0,-0.1 -0.11,-0.17 -0.22,-0.17 -0.12,0 -0.34,0.26 -0.44,0.36 -0.02,0.02 -0.03,0.03 -0.04,0.04 -0.1,0.12 -0.08,0.09 -0.23,0.1 -0.05,0 -0.04,0.01 -0.08,0.01zm1.58 -1.46c-0.16,0 -0.28,-0.12 -0.28,-0.3 0,-0.14 0.13,-0.26 0.27,-0.26l0.05 0c0.17,0 0.36,0.27 0.16,0.48 -0.05,0.04 -0.11,0.08 -0.2,0.08zm-0.64 0.03c-0.12,0.01 -0.36,0.13 -0.46,0.22l-0.77 0.76c-0.02,0.02 -0.06,0.07 -0.08,0.1 -0.12,0.2 -0.1,0.39 0.02,0.59 0.03,0.04 0,0.03 -0.01,0.08l-0.52 0 0 -0.47c0,-0.27 -0.42,-0.25 -0.42,-0.02l0 1.4c0,0.23 0.42,0.23 0.42,-0.01l0 -0.48 0.47 0 0 0.83c0,0.43 0.41,0.84 0.86,0.84l0.14 0 0 0.72c0,0.09 0.1,0.18 0.19,0.18l1.6 0c0.09,0 0.19,-0.09 0.19,-0.18l0 -0.72c0.04,0 0.07,0 0.1,-0.01 0.09,-0.01 0.14,0.02 0.31,-0.04 0.32,-0.1 0.59,-0.45 0.59,-0.78l0 -0.84 0.47 0 0 0.48c0,0.24 0.42,0.24 0.42,0.01l0 -1.4c0,-0.23 -0.42,-0.25 -0.42,0.02l0 0.47 -0.52 0c-0.02,-0.08 -0.04,-0.02 0.01,-0.12 0.14,-0.23 0.09,-0.44 -0.07,-0.64l-0.73 -0.73c-0.12,-0.11 -0.34,-0.25 -0.5,-0.26 0.24,-0.51 -0.19,-1.02 -0.57,-1.02 -0.26,0 -0.38,0.02 -0.57,0.19 -0.03,0.02 -0.04,0.03 -0.06,0.06 -0.1,0.12 -0.14,0.24 -0.16,0.39 -0.02,0.1 0.02,0.28 0.07,0.38z"/>
 </g>
</svg>
