<?xml version="1.0" encoding="UTF-8"?>
<!DOCTYPE svg PUBLIC "-//W3C//DTD SVG 1.0//EN" "http://www.w3.org/TR/2001/REC-SVG-20010904/DTD/svg10.dtd">
<!-- Creator: CorelDRAW 2018 (64 Bit Versão de avaliação) -->
<svg xmlns="http://www.w3.org/2000/svg" xml:space="preserve" width="41px" height="41px" version="1.0" shape-rendering="geometricPrecision" text-rendering="geometricPrecision" image-rendering="optimizeQuality" fill-rule="evenodd" clip-rule="evenodd"
viewBox="0 0 5.78 5.79"
 xmlns:xlink="http://www.w3.org/1999/xlink">
 <g id="Camada_x0020_1">
  <metadata id="CorelCorpID_0Corel-Layer"/>
  <g id="_2289730818176">
   <g>
    <path fill="#292929" d="M2.4 4.39c0.06,-0.01 0.22,-0.16 0.26,-0.22 0.19,0.14 0.51,0.47 0.69,0.61 0.08,0.06 0.13,0.17 0.23,0.2 -0.12,0.18 -0.21,0.21 -0.23,0.3 -0.06,-0.02 -0.25,-0.21 -0.36,-0.31l-0.36 -0.34c-0.11,-0.09 -0.17,-0.12 -0.23,-0.24zm-0.79 -0.18c-0.35,0 -0.59,-0.04 -0.84,-0.3 -0.4,-0.41 -0.4,-1.05 0.05,-1.49 0.18,-0.18 0.86,-0.45 1.18,-0.56 0.15,-0.05 0.29,-0.09 0.42,-0.15 0.07,-0.02 0.13,-0.04 0.21,-0.07 0.13,-0.04 0.56,-0.21 0.66,-0.22l0.53 0.81c-0.05,0.1 -1.19,1.34 -1.35,1.5 -0.2,0.19 -0.54,0.48 -0.86,0.48zm-1.61 -1.06c0,0.42 0.14,0.8 0.42,1.08 0.43,0.44 0.93,0.53 1.51,0.4 0.04,0.06 0.1,0.11 0.15,0.16l0.68 0.6c0.29,0.27 0.5,0.56 0.85,0.29l0.37 -0.42c0.19,-0.18 0.15,-0.44 -0.09,-0.62l-0.86 -0.8 1.12 -1.25c0.14,-0.14 0.23,-0.32 0.12,-0.54l0.32 0c0.03,-0.07 0.06,-0.27 0.21,-0.32 0.09,-0.04 0.38,-0.03 0.5,-0.05 0.38,-0.09 0.58,-0.56 0.43,-0.56l-0.26 0c-0.09,0 -0.03,0.17 -0.28,0.23 -0.18,0.04 -0.31,-0.01 -0.49,0.05 -0.24,0.08 -0.45,0.37 -0.45,0.61 -0.02,-0.02 0.01,0.01 -0.02,-0.03 -0.01,-0.02 -0.02,-0.02 -0.03,-0.04l-0.55 -0.83c-0.22,-0.31 -0.52,-0.16 -0.86,-0.03 -0.51,0.17 -1.88,0.61 -2.29,0.99 -0.02,0.02 -0.03,0.03 -0.05,0.04 -0.25,0.24 -0.45,0.66 -0.45,1.04z"/>
    <path fill="#292929" d="M1.18 3.21c0,-0.49 0.65,-0.41 0.65,-0.08 0,0.57 -0.65,0.41 -0.65,0.08zm-0.47 -0.06c0,0.26 0.07,0.41 0.2,0.57 0.24,0.28 0.68,0.33 0.98,0.18 0.23,-0.12 0.44,-0.44 0.42,-0.74 -0.03,-0.47 -0.36,-0.78 -0.83,-0.78 -0.39,0 -0.77,0.38 -0.77,0.77z"/>
    <path fill="#292929" d="M3.68 0.91c0.43,0 0.26,0.08 0.42,-0.19 0.18,-0.3 0.56,0.01 0.91,-0.32 0.09,-0.09 0.21,-0.24 0.21,-0.4l-0.36 0c-0.1,0.44 -0.66,-0.02 -1.04,0.51 -0.06,0.09 -0.14,0.25 -0.14,0.4z"/>
    <path fill="#292929" d="M3.96 1.48l0.35 0c0.01,-0.14 0.11,-0.27 0.2,-0.32 0.06,-0.03 0.37,-0.02 0.49,-0.04 0.26,-0.05 0.45,-0.29 0.51,-0.55l-0.37 0c-0.08,0.33 -0.5,0.16 -0.77,0.28 -0.2,0.08 -0.39,0.36 -0.41,0.63z"/>
   </g>
  </g>
 </g>
</svg>
