<?xml version="1.0" encoding="UTF-8"?>
<!DOCTYPE svg PUBLIC "-//W3C//DTD SVG 1.0//EN" "http://www.w3.org/TR/2001/REC-SVG-20010904/DTD/svg10.dtd">
<!-- Creator: CorelDRAW 2018 (64 Bit Versão de avaliação) -->
<svg xmlns="http://www.w3.org/2000/svg" xml:space="preserve" width="31px" height="41px" version="1.0" shape-rendering="geometricPrecision" text-rendering="geometricPrecision" image-rendering="optimizeQuality" fill-rule="evenodd" clip-rule="evenodd"
viewBox="0 0 0.67 0.87"
 xmlns:xlink="http://www.w3.org/1999/xlink">
 <g id="Camada_x0020_1">
  <metadata id="CorelCorpID_0Corel-Layer"/>
  <g id="_2039361954000">
   <g>
    <path fill="black" d="M0.31 0.83c-0.03,0 -0.06,-0.02 -0.06,-0.04l0 -0.07c0,-0.03 0.03,-0.05 0.07,-0.05l0.04 0 0 0.11c0,0.01 0,0.03 -0.01,0.04 -0.01,0 -0.03,0.01 -0.04,0.01zm0.36 -0.1l0 0.05c0,0.02 -0.01,0.04 -0.03,0.06 -0.03,0.03 -0.05,0.03 -0.08,0.03 -0.04,0 -0.07,-0.02 -0.08,-0.06 -0.01,-0.02 -0.01,-0.11 -0.01,-0.14 0,-0.03 0,-0.06 0,-0.09l-0.03 0.01c-0.01,0 -0.02,0.01 -0.03,0.01 0,0.04 0,0.07 0,0.1 0,0.06 0.01,0.1 -0.03,0.15 -0.03,0.02 -0.05,0.02 -0.08,0.02 -0.05,0 -0.09,-0.04 -0.09,-0.09 0,-0.03 -0.01,-0.07 0.01,-0.1 0.03,-0.06 0.09,-0.06 0.14,-0.06l0 -0.48c0,-0.03 0.01,-0.06 0.02,-0.08 0.01,-0.01 0.02,-0.03 0.03,-0.04 0.01,-0.01 0.01,-0.02 0.03,-0.02 0.02,0 0.04,0.04 0.05,0.06 0.01,0.02 0.02,0.05 0.02,0.08l0 0.17c0,0.02 -0.03,0.02 -0.04,0 -0.01,-0.01 0.01,-0.18 -0.01,-0.21l0 0.3c0,0.01 0,0.02 0,0.02 -0.01,0.01 -0.04,0.03 -0.05,0.03l0 0.11 0.06 -0.03c0,-0.04 0,-0.07 0,-0.11 0,-0.01 -0.01,-0.06 0,-0.07 0.01,-0.02 0.04,-0.01 0.04,0.01l0 0.26c0.06,0 0.1,0 0.14,0.04 0.01,0.02 0.02,0.04 0.02,0.07zm-0.1 0.1c-0.02,0 -0.03,0 -0.04,-0.01 -0.01,-0.01 -0.02,-0.03 -0.02,-0.04l0 -0.11c0.04,0 0.1,-0.01 0.11,0.03 0.01,0.03 0.01,0.09 -0.01,0.11 0,0.01 -0.02,0.02 -0.04,0.02zm-0.15 -0.73c0,0.09 0,0.2 0,0.29 0,0.01 0,0.01 -0.01,0.01l0 -0.12c0,-0.01 0,-0.02 0,-0.03 0,-0.02 0,-0.03 0,-0.04 0,-0.02 0,-0.03 0,-0.04 0,-0.02 0,-0.03 0,-0.05l0.01 -0.02z"/>
    <path fill="black" d="M0 0.07l0 0.11c0,0.01 0.01,0.02 0.02,0.02 0.05,0 -0.01,-0.15 0.05,-0.15 0.02,0 0.03,0 0.05,0l0.12 0.01c0.01,0 0.02,0 0.02,0.01 0,0.01 -0.02,0.01 -0.02,0.01l-0.1 0c-0.03,0 -0.06,0.01 -0.06,0.05l0 0.3c0,0.01 0,0.02 0,0.03 0,0 0.01,0.01 0.01,0.01 0.02,0.01 0.03,0.01 0.05,0.01 0.03,0 0.1,0 0.12,0.01 0,0 0,0 0,0.01 -0.04,0 -0.09,0.01 -0.12,0.02 -0.07,0.01 -0.06,0.08 -0.06,0.14 0,0.01 0,0.02 0,0.02 0.01,0.02 0.02,0.02 0.03,0.01 0.03,-0.03 -0.01,-0.12 0.03,-0.13 0.02,-0.01 0.1,-0.02 0.12,-0.02 0.04,-0.01 0.05,-0.05 0.03,-0.08 -0.01,-0.01 -0.02,-0.02 -0.04,-0.02l-0.12 0c-0.01,0 -0.01,0 -0.01,-0.01l0.16 0c0.03,0 0.03,-0.04 0,-0.04l-0.16 0 0 -0.01 0.16 0c0.03,0 0.03,-0.04 0,-0.04l-0.16 0 0 -0.01 0.16 0c0.01,0 0.03,-0.01 0.02,-0.03 0,-0.01 -0.01,-0.02 -0.03,-0.02l-0.15 0 0 0 0.16 0c0.03,0 0.03,-0.05 -0.01,-0.05l-0.15 0 0 -0.01 0.16 0c0.03,0 0.03,-0.04 0,-0.04l-0.16 0 0 -0.01 0.16 0c0.02,0 0.03,-0.03 0.01,-0.04 -0.01,0 -0.05,0 -0.07,0 -0.03,0 -0.07,0 -0.1,0 0,-0.01 0.01,-0.01 0.02,-0.01 0.03,0 0.12,0 0.14,-0.01 0.03,-0.02 0.03,-0.07 -0.01,-0.08 -0.01,-0.01 -0.05,-0.01 -0.07,-0.01 -0.01,0 -0.02,-0.01 -0.03,-0.01 -0.03,0 -0.07,-0.01 -0.1,-0.01 -0.04,0 -0.07,0.04 -0.07,0.07z"/>
    <path fill="black" d="M0 0.23l0 0.59c0,0.02 0.01,0.03 0.02,0.04 0.02,0.01 0.02,0.01 0.03,0.01l0.02 0 0 0c0.03,0 0.05,-0.03 0.05,-0.05l0 -0.1c0,-0.01 -0.01,-0.02 -0.02,-0.02 -0.03,0 -0.02,0.04 -0.02,0.06 0,0.01 0,0.06 -0.01,0.07 0,0 -0.02,0.01 -0.02,0 -0.01,-0.02 -0.01,-0.09 -0.01,-0.11l0 -0.49c0,-0.03 -0.04,-0.03 -0.04,0z"/>
    <path fill="black" d="M0.42 0.49c0,0.03 0.04,0.03 0.04,0 0,-0.03 -0.04,-0.03 -0.04,0z"/>
   </g>
  </g>
 </g>
</svg>
