<?xml version="1.0" encoding="UTF-8"?>
<!DOCTYPE svg PUBLIC "-//W3C//DTD SVG 1.0//EN" "http://www.w3.org/TR/2001/REC-SVG-20010904/DTD/svg10.dtd">
<!-- Creator: CorelDRAW 2018 (64 Bit Versão de avaliação) -->
<svg xmlns="http://www.w3.org/2000/svg" xml:space="preserve" width="33px" height="41px" version="1.0" shape-rendering="geometricPrecision" text-rendering="geometricPrecision" image-rendering="optimizeQuality" fill-rule="evenodd" clip-rule="evenodd"
viewBox="0 0 1.62 2.01"
 xmlns:xlink="http://www.w3.org/1999/xlink">
 <g id="Camada_x0020_1">
  <metadata id="CorelCorpID_0Corel-Layer"/>
  <path fill="black" d="M0.3 1.16c0.01,0.1 -0.02,0.21 0.13,0.27 0.03,0.02 0.07,0.02 0.11,0.02 0.07,-0.01 0.13,-0.06 0.15,-0.12 0.04,-0.07 0.03,-0.15 0.03,-0.24 0.02,0.01 0.08,0.06 0.1,0.07 0.02,0.02 0.05,0.05 0.07,0.09 0.1,0.16 0.07,0.35 -0.06,0.49 -0.04,0.04 -0.13,0.09 -0.21,0.11 -0.3,0.05 -0.53,-0.23 -0.45,-0.5 0.02,-0.07 0.07,-0.16 0.13,-0.19zm1.01 0.43c-0.02,-0.06 -0.03,-0.13 -0.05,-0.19 -0.03,-0.09 -0.11,-0.05 -0.17,-0.07 0,-0.04 -0.02,-0.05 -0.02,-0.1 0.03,0 0.22,0 0.23,0.01 0.05,0.02 0.06,0.12 0.07,0.17 0.02,0.1 0.08,0.3 0.09,0.39 0.01,0.03 -0.02,0.06 -0.06,0.05 -0.03,0 -0.04,-0.04 -0.04,-0.07 -0.02,-0.06 -0.04,-0.13 -0.05,-0.19zm-0.49 -0.63c-0.02,0.01 -0.04,-0.01 -0.05,-0.01 -0.01,-0.01 -0.02,-0.01 -0.03,-0.01 -0.01,-0.01 -0.02,-0.01 -0.02,-0.01 -0.01,-0.01 -0.01,-0.03 -0.02,-0.05 -0.01,-0.01 -0.03,-0.02 -0.05,-0.02 -0.04,-0.01 -0.07,0.02 -0.08,0.05 -0.01,0.04 -0.01,0.21 -0.01,0.26 0,0.04 0.01,0.09 -0.02,0.11 -0.01,0.01 -0.08,0.02 -0.08,-0.03 0,-0.04 0,-0.1 0,-0.14 0,-0.04 -0.01,-0.24 0,-0.27 0.01,-0.03 0.05,-0.04 0.08,-0.06 0.05,-0.03 0.13,-0.07 0.18,-0.09 0.04,-0.02 0.07,-0.03 0.09,0.01 0.02,0.03 0.01,0.22 0.01,0.26zm-0.01 -0.8c0.07,-0.01 0.13,0.03 0.14,0.09 0,0.04 -0.01,0.07 -0.02,0.09 -0.06,0.08 -0.19,0.05 -0.21,-0.05 -0.01,-0.07 0.03,-0.12 0.09,-0.13zm-0.1 0.37c-0.06,0.01 -0.28,0.13 -0.32,0.15 -0.09,0.07 -0.09,0.16 -0.09,0.26 0,0.02 0,0.03 -0.02,0.04 -0.06,0.03 -0.12,0.08 -0.16,0.13 -0.04,0.05 -0.06,0.09 -0.09,0.16 -0.04,0.12 -0.04,0.28 0.01,0.4 0.03,0.06 0.07,0.13 0.12,0.17 0.02,0.02 0.02,0.03 0.06,0.06 0.01,0.01 0.02,0.01 0.04,0.02 0.1,0.07 0.23,0.1 0.38,0.08 0.08,-0.01 0.19,-0.06 0.25,-0.1 0.02,-0.02 0.04,-0.04 0.06,-0.06 0.06,-0.05 0.11,-0.14 0.13,-0.22 0.01,-0.03 0.01,-0.07 0.02,-0.1l0.03 0c0.01,0.01 0.07,0.32 0.1,0.38 0.02,0.03 0.05,0.06 0.08,0.08 0.08,0.05 0.18,0.03 0.24,-0.02 0.06,-0.06 0.09,-0.13 0.06,-0.24l-0.1 -0.38c-0.02,-0.11 -0.05,-0.25 -0.22,-0.26 -0.1,-0.01 -0.21,0 -0.32,0 0,-0.11 0,-0.21 0,-0.32 0,-0.05 0,-0.09 -0.02,-0.13 -0.03,-0.06 -0.05,-0.05 -0.07,-0.09 0.17,-0.01 0.31,-0.26 0.16,-0.45 -0.01,-0.01 -0.03,-0.03 -0.03,-0.03 -0.02,-0.01 -0.03,-0.02 -0.04,-0.03 -0.03,-0.01 -0.06,-0.02 -0.09,-0.03 -0.16,-0.02 -0.27,0.08 -0.31,0.19 -0.02,0.06 -0.01,0.15 0.02,0.2 0.02,0.04 0.05,0.08 0.09,0.1 0.01,0.01 0.02,0.02 0.03,0.04z"/>
 </g>
</svg>
