<?xml version="1.0" encoding="UTF-8"?>
<!DOCTYPE svg PUBLIC "-//W3C//DTD SVG 1.0//EN" "http://www.w3.org/TR/2001/REC-SVG-20010904/DTD/svg10.dtd">
<!-- Creator: CorelDRAW 2018 (64 Bit Versão de avaliação) -->
<svg xmlns="http://www.w3.org/2000/svg" xml:space="preserve" width="41px" height="41px" version="1.0" shape-rendering="geometricPrecision" text-rendering="geometricPrecision" image-rendering="optimizeQuality" fill-rule="evenodd" clip-rule="evenodd"
viewBox="0 0 1.9 1.9"
 xmlns:xlink="http://www.w3.org/1999/xlink">
 <g id="Camada_x0020_1">
  <metadata id="CorelCorpID_0Corel-Layer"/>
  <path fill="black" d="M1.48 1.41l0 -0.27c0,-0.06 0.06,-0.11 0.11,-0.11 0.06,0 0.12,0.05 0.12,0.11l0 0.27c0,0.03 -0.02,0.06 -0.04,0.07 -0.07,0.07 -0.19,0.02 -0.19,-0.07zm-1.28 0l0 -0.27c0,-0.06 0.05,-0.11 0.11,-0.11 0.06,0 0.11,0.05 0.11,0.11l0 0.27c0,0.05 -0.04,0.1 -0.11,0.1 -0.06,0 -0.11,-0.04 -0.11,-0.1zm-0.2 -0.24c0,0.11 -0.01,0.25 0.02,0.34 0.03,0.07 0.09,0.14 0.16,0.17 0.08,0.04 0.18,0.04 0.26,0 0.21,-0.11 0.18,-0.29 0.18,-0.5 0,-0.15 -0.07,-0.26 -0.19,-0.31 -0.04,-0.02 -0.1,-0.03 -0.15,-0.02 0,-0.14 0.05,-0.26 0.12,-0.37 0.02,-0.04 0.02,-0.03 0.05,-0.06 0.04,-0.05 0.05,-0.06 0.11,-0.1 0.09,-0.07 0.24,-0.13 0.36,-0.13 0.14,0 0.2,0.01 0.32,0.07 0.02,0.01 0.03,0.01 0.05,0.02 0.02,0.01 0.03,0.02 0.05,0.04 0.09,0.06 0.18,0.16 0.22,0.26 0.03,0.08 0.06,0.15 0.06,0.27 -0.05,0 -0.06,-0.01 -0.13,0.01 -0.04,0.02 -0.07,0.03 -0.1,0.06 -0.05,0.04 -0.1,0.13 -0.1,0.21l0 0.29c0,0.06 0.02,0.11 0.05,0.15l0.03 0.04c-0.02,0.03 -0.13,0.07 -0.18,0.08 -0.05,0.02 -0.15,0.01 -0.15,0.11 0,0.05 0.05,0.1 0.11,0.1 0.13,-0.02 0.25,-0.07 0.35,-0.15 0.02,-0.01 0.05,-0.03 0.06,-0.05 0.05,0.01 0.12,0 0.15,-0.02 0.05,-0.02 0.07,-0.04 0.1,-0.07 0.11,-0.11 0.09,-0.26 0.09,-0.44 0,-0.07 -0.01,-0.14 -0.05,-0.19l-0.04 -0.05c0.02,-0.06 0,-0.19 -0.01,-0.24 -0.04,-0.15 -0.11,-0.3 -0.21,-0.4 -0.01,-0.02 -0.02,-0.03 -0.03,-0.04 -0.01,-0.01 -0.02,-0.01 -0.03,-0.03 -0.08,-0.07 -0.2,-0.14 -0.31,-0.18 -0.28,-0.09 -0.57,-0.03 -0.8,0.15 -0.04,0.02 -0.1,0.08 -0.13,0.11 -0.01,0.02 -0.01,0.03 -0.02,0.04 -0.1,0.12 -0.16,0.27 -0.18,0.44 0,0.02 0,0.03 0,0.05 0,0.02 0,0.04 0,0.06 0,0.07 -0.01,0.05 -0.04,0.09 -0.03,0.06 -0.05,0.11 -0.05,0.19z"/>
 </g>
</svg>
