<?xml version="1.0" encoding="UTF-8"?>
<!DOCTYPE svg PUBLIC "-//W3C//DTD SVG 1.0//EN" "http://www.w3.org/TR/2001/REC-SVG-20010904/DTD/svg10.dtd">
<!-- Creator: CorelDRAW 2018 (64 Bit Versão de avaliação) -->
<svg xmlns="http://www.w3.org/2000/svg" xml:space="preserve" width="49px" height="41px" version="1.0" shape-rendering="geometricPrecision" text-rendering="geometricPrecision" image-rendering="optimizeQuality" fill-rule="evenodd" clip-rule="evenodd"
viewBox="0 0 1.06 0.9"
 xmlns:xlink="http://www.w3.org/1999/xlink">
 <g id="Camada_x0020_1">
  <metadata id="CorelCorpID_0Corel-Layer"/>
  <path fill="black" d="M0.09 0.29c0,-0.04 0.01,-0.06 0.02,-0.08 0.01,-0.02 0.02,-0.04 0.03,-0.05 0,0 0.01,-0.01 0.01,-0.01 0.05,-0.05 0.13,-0.07 0.19,-0.06 0.04,0.01 0.08,0.03 0.11,0.06 0,0 0,0 0.01,0 0,0.01 0,0.01 0.01,0.01 0.01,0.01 0.02,0.02 0.02,0.03 0.04,0.03 0.06,0.02 0.09,-0.01 0,0 0,0 0,-0.01l0.02 0c0,-0.01 0,-0.01 0.01,-0.02l0.02 -0.02c0.03,-0.02 0.08,-0.04 0.13,-0.04 0.04,0 0.06,0 0.09,0.02 0.01,0 0.01,0 0.02,0.01 0.02,0.01 0.02,0.01 0.04,0.03 0.01,0.01 0.01,0 0.01,0.01 0.01,0.01 0.03,0.03 0.03,0.04 0.03,0.06 0.03,0.13 0,0.19l-0.02 0.02c-0.01,0.01 -0.02,0.02 -0.03,0.03 0,0 0,0.01 -0.01,0.01 -0.02,0.02 -0.04,0.04 -0.06,0.06l-0.09 0.09c-0.01,0 -0.01,0 -0.01,0 -0.01,0.01 -0.03,0.03 -0.04,0.04l-0.04 0.04c0,0 -0.01,0.01 -0.01,0.01 -0.01,0 -0.01,0 -0.01,0.01 0,0 0,0 -0.01,0 0,0.01 0,0.01 -0.01,0.01l-0.01 0.01c0,0.01 0,0.01 -0.01,0.01l-0.04 0.04c-0.01,0.01 -0.01,0.02 -0.02,0.02 -0.01,-0.01 -0.05,-0.05 -0.06,-0.06l-0.04 -0.04c-0.01,0 -0.01,-0.01 -0.01,-0.01l-0.02 -0.01c0,-0.01 0,-0.01 0,-0.01 -0.01,0 -0.01,-0.01 -0.02,-0.01l-0.08 -0.08c0,-0.01 -0.01,-0.01 -0.01,-0.01 0,-0.01 -0.01,-0.01 -0.01,-0.02l-0.02 -0.01c0,0 0,0 -0.01,-0.01l-0.02 -0.02c-0.01,0 -0.01,-0.01 -0.01,-0.01 -0.01,-0.01 -0.01,-0.01 -0.02,-0.02l-0.05 -0.05c-0.01,0 -0.01,-0.01 -0.02,-0.02 -0.01,-0.01 -0.01,-0.01 -0.01,-0.02 -0.02,-0.02 -0.03,-0.06 -0.03,-0.09zm-0.09 -0.02c0,0.06 0,0.09 0.03,0.14 0,0.01 0,0.01 0.01,0.02 0,0.01 0.01,0.02 0.01,0.02l0.03 0.03c0.02,0.03 0.05,0.05 0.08,0.08l0.01 0.01c0,0 0,0 0.01,0.01l0.02 0.02c0.01,0.01 0.01,0.01 0.01,0.01l0.08 0.07c0,0 0,0.01 0,0.01 0.01,0 0.01,0 0.01,0.01 0.02,0.02 0.04,0.03 0.06,0.05l0.05 0.05c0.01,0.01 0.01,0.01 0.02,0.02l0.03 0.02c0.01,0.02 0.03,0.03 0.04,0.05 0.02,0.01 0.05,0.01 0.06,0l0.04 -0.04c0.01,-0.01 0.03,-0.03 0.05,-0.05 0.01,0 0.01,-0.01 0.02,-0.01 0.01,-0.02 0.02,-0.03 0.03,-0.04 0.01,0 0.02,-0.01 0.02,-0.02 0.01,0 0.01,0 0.01,0 0.02,-0.02 0.05,-0.05 0.06,-0.06 0.01,-0.01 0.01,-0.01 0.01,-0.01l0.1 -0.1c0.01,0 0.02,-0.01 0.02,-0.01 0,-0.01 0.01,-0.01 0.01,-0.01 0,0 0.01,-0.01 0.01,-0.01l0.02 -0.02c0.03,-0.03 0.06,-0.06 0.07,-0.1 0.02,-0.03 0.03,-0.07 0.03,-0.11 0,-0.04 0,-0.07 -0.01,-0.11 -0.01,-0.01 -0.01,-0.02 -0.02,-0.03 0,0 0,-0.01 -0.01,-0.02 -0.02,-0.03 -0.04,-0.05 -0.06,-0.07 -0.02,-0.01 -0.03,-0.02 -0.05,-0.03 -0.03,-0.02 -0.08,-0.04 -0.13,-0.04 -0.06,0 -0.1,0.01 -0.15,0.03 -0.03,0.01 -0.05,0.03 -0.07,0.04 -0.01,0.01 -0.02,0.02 -0.03,0.03 0,0 -0.02,-0.02 -0.02,-0.02 -0.01,-0.01 -0.03,-0.02 -0.04,-0.03 -0.03,-0.02 -0.05,-0.03 -0.07,-0.04 -0.05,-0.01 -0.07,-0.01 -0.11,-0.01 -0.04,0 -0.09,0.01 -0.12,0.03 -0.02,0.01 -0.03,0.02 -0.06,0.04 -0.02,0.01 -0.03,0.02 -0.05,0.05 0,0 -0.01,0 -0.01,0.01 0,0 0,0 0,0 0,0.01 0,0.01 -0.01,0.01 -0.01,0.02 -0.02,0.05 -0.03,0.07 0,0.02 -0.01,0.04 -0.01,0.06z"/>
 </g>
</svg>
