<?xml version="1.0" encoding="UTF-8"?>
<!DOCTYPE svg PUBLIC "-//W3C//DTD SVG 1.0//EN" "http://www.w3.org/TR/2001/REC-SVG-20010904/DTD/svg10.dtd">
<!-- Creator: CorelDRAW 2018 (64 Bit Versão de avaliação) -->
<svg xmlns="http://www.w3.org/2000/svg" xml:space="preserve" width="41px" height="41px" version="1.0" shape-rendering="geometricPrecision" text-rendering="geometricPrecision" image-rendering="optimizeQuality" fill-rule="evenodd" clip-rule="evenodd"
viewBox="0 0 17.08 17.1"
 xmlns:xlink="http://www.w3.org/1999/xlink">
 <g id="Camada_x0020_1">
  <metadata id="CorelCorpID_0Corel-Layer"/>
  <g id="_2038528843312">
   <path fill="#292929" d="M14.11 15.55c-0.06,-0.27 -0.02,-6.21 -0.02,-7.03 0,-0.26 -0.04,-0.95 0.06,-1.14 0.16,-0.33 0.61,-0.25 0.68,0.13 0.04,0.22 0.01,6.48 0.01,7.03 0,0.27 0.05,0.94 -0.06,1.13 -0.18,0.32 -0.59,0.24 -0.67,-0.12zm-3.95 0c-0.04,-0.2 -0.01,-6.5 -0.01,-7.03 0,-0.24 -0.04,-0.97 0.04,-1.15 0.16,-0.31 0.61,-0.25 0.69,0.14 0.06,0.33 0.02,6.16 0.02,7.03 0,0.29 0.04,0.91 -0.07,1.14 -0.14,0.3 -0.61,0.21 -0.67,-0.13zm-3.96 0c-0.06,-0.28 -0.02,-6.2 -0.02,-7.03 0,-0.26 -0.04,-0.95 0.06,-1.14 0.18,-0.34 0.63,-0.25 0.68,0.13l0.01 7.03c0,0.26 0.06,0.95 -0.05,1.14 -0.18,0.29 -0.59,0.24 -0.68,-0.13zm-3.96 -7.87c0,-0.69 0.75,-0.69 0.75,0.04l0 7.59c0,0.3 -0.06,0.55 -0.36,0.55 -0.31,0 -0.39,-0.22 -0.39,-0.52l0 -7.66zm5.91 8.01c0,-0.73 -0.04,-6.33 0.03,-6.55l0.72 -0.01c0.06,0.2 0.04,5.9 0.02,6.57 0.06,1.23 1.85,1.94 2.79,0.89 0.3,-0.34 0.4,-0.57 0.4,-1.18 -0.01,-2.09 0,-4.18 0,-6.27l0.74 0c0,1.59 0,3.18 0,4.77 0,0.6 -0.07,1.74 0.14,2.23 0.59,1.32 2.41,1.23 2.93,0.05 0.25,-0.56 0.16,-1.56 0.16,-2.25 0,-1.6 0,-3.2 0,-4.8 0.33,0 1.02,0.1 1,-0.62 -0.03,-0.77 -0.49,-0.51 -1,-0.64 0,-0.64 -0.05,-1.02 -0.41,-1.39 -0.79,-0.81 -1.86,-0.7 -2.43,0.01 -0.35,0.44 -0.39,0.7 -0.39,1.4l-0.75 0c0,-0.76 0.01,-0.91 -0.36,-1.39 -0.23,-0.29 -0.66,-0.58 -1.21,-0.58 -0.26,0 -0.5,0.05 -0.71,0.16 -0.77,0.38 -0.91,0.91 -0.91,1.79l-0.74 0.02c-0.01,-0.66 -0.04,-1 -0.37,-1.4 -0.23,-0.27 -0.66,-0.57 -1.22,-0.56 -0.52,0 -1.01,0.28 -1.24,0.54 -0.36,0.41 -0.37,0.72 -0.37,1.42l-0.74 0c-0.01,-0.62 -0.08,-1.01 -0.39,-1.4 -0.54,-0.71 -1.71,-0.8 -2.44,-0.01 -0.36,0.38 -0.4,0.74 -0.4,1.39 -0.23,0.06 -0.5,-0.02 -0.71,0.09 -0.4,0.2 -0.36,0.89 -0.05,1.09 0.19,0.13 0.51,0.08 0.76,0.08 0,1.59 0,3.18 0,4.77 0,0.55 -0.07,1.81 0.13,2.23 0.61,1.3 2.32,1.25 2.94,0.05 0.25,-0.5 0.16,-1.62 0.16,-2.25 0,-1.6 0,-3.2 0,-4.8l0.74 0c0,2.09 0.01,4.18 0,6.27 0,0.58 0.12,0.83 0.39,1.16 0.47,0.58 1.54,0.75 2.25,0.15 0.25,-0.21 0.53,-0.56 0.54,-1.03z"/>
   <path fill="#292929" d="M10.84 0.04c-0.47,0.11 -1.55,1.48 -0.46,2.76 0.6,0.7 0.63,0.74 0.23,1.28 -0.14,0.19 -0.3,0.49 -0.16,0.77 0.31,0.63 1.26,0.38 1.61,-0.82 0.34,-1.15 -0.67,-1.84 -0.83,-2.19 -0.19,-0.38 0.03,-0.53 0.18,-0.73 0.44,-0.56 0.13,-1.24 -0.57,-1.07z"/>
   <path fill="#292929" d="M9.09 0.89c0.17,-0.27 -0.02,-0.67 -0.18,-0.78 -0.22,-0.15 -0.6,-0.09 -0.79,0.05 -0.3,0.23 -0.67,0.84 -0.69,1.36 -0.05,1.28 1.05,1.49 0.95,2.17 -0.04,0.26 -0.32,0.4 -0.4,0.63 -0.24,0.67 0.44,1.1 0.96,0.71 0.58,-0.44 0.92,-1.37 0.54,-2.2 -0.13,-0.28 -0.26,-0.4 -0.44,-0.59 -0.7,-0.72 -0.16,-1 0.05,-1.35z"/>
   <path fill="#292929" d="M5.86 0.05c-0.35,0.14 -0.78,0.7 -0.87,1.21 -0.23,1.24 0.7,1.63 0.89,2.15 0.13,0.37 -0.12,0.53 -0.26,0.72 -0.42,0.57 0.05,1.26 0.67,1.02 0.43,-0.17 1.46,-1.43 0.41,-2.77 -0.4,-0.52 -0.77,-0.59 -0.2,-1.32 0.46,-0.6 -0.06,-1.25 -0.64,-1.01z"/>
   <path fill="#292929" d="M3.44 0.05c-0.51,0.13 -1.55,1.44 -0.49,2.73 0.48,0.58 0.71,0.72 0.23,1.33 -0.43,0.56 -0.02,1.23 0.57,1.05 0.72,-0.23 1.4,-1.62 0.52,-2.76 -0.14,-0.17 -0.39,-0.36 -0.46,-0.55 -0.18,-0.43 0.02,-0.53 0.19,-0.74 0.43,-0.53 0.14,-1.25 -0.56,-1.06z"/>
   <path fill="#292929" d="M14.07 0.75c0.15,-0.72 -0.68,-0.94 -1.09,-0.52 -0.37,0.38 -0.63,0.89 -0.59,1.47 0.04,0.75 0.37,0.98 0.69,1.37 0.63,0.78 -0.07,0.85 -0.19,1.37 -0.09,0.34 0.1,0.59 0.33,0.69 0.68,0.32 1.4,-0.85 1.37,-1.61 -0.05,-1.17 -1.19,-1.44 -0.92,-2.15 0.09,-0.23 0.33,-0.27 0.4,-0.62z"/>
  </g>
 </g>
</svg>
