<?xml version="1.0" encoding="UTF-8"?>
<!DOCTYPE svg PUBLIC "-//W3C//DTD SVG 1.0//EN" "http://www.w3.org/TR/2001/REC-SVG-20010904/DTD/svg10.dtd">
<!-- Creator: CorelDRAW 2018 (64 Bit Versão de avaliação) -->
<svg xmlns="http://www.w3.org/2000/svg" xml:space="preserve" width="42px" height="41px" version="1.0" shape-rendering="geometricPrecision" text-rendering="geometricPrecision" image-rendering="optimizeQuality" fill-rule="evenodd" clip-rule="evenodd"
viewBox="0 0 0.95 0.93"
 xmlns:xlink="http://www.w3.org/1999/xlink">
 <g id="Camada_x0020_1">
  <metadata id="CorelCorpID_0Corel-Layer"/>
  <path fill="#292929" d="M0.46 0.09c0.03,-0.01 0.05,0 0.07,0.01 0.02,0.02 0.09,0.1 0.11,0.12l0.03 0.03c0,0.01 0.01,0.01 0.01,0.01 0.01,0.01 0.02,0.03 0.03,0.04 0.01,0.01 0.06,0.06 0.06,0.07 0,0 0,0.06 0,0.08 0,0.05 0,0.29 -0.01,0.32 -0.01,0.05 -0.04,0.07 -0.1,0.07 -0.1,0 -0.23,0 -0.33,0 -0.06,0 -0.1,0 -0.13,-0.04 -0.02,-0.03 -0.02,-0.1 -0.02,-0.15 0,-0.05 0,-0.11 0,-0.17 0,-0.01 0,-0.11 0.01,-0.12l0.06 -0.06c0,-0.01 0,-0.01 0.01,-0.02 0,0 0,0 0.01,-0.01l0.08 -0.09c0.03,-0.03 0.06,-0.08 0.11,-0.09zm-0.36 0.38c0,0.07 0,0.14 0,0.21 0,0.1 0,0.17 0.09,0.22 0.06,0.04 0.21,0.03 0.29,0.03 0.06,0 0.14,0.01 0.2,0 0.07,-0.01 0.11,-0.04 0.14,-0.08 0.04,-0.04 0.04,-0.1 0.04,-0.17 0,-0.07 0,-0.14 0,-0.21 0.02,0.01 0.03,0.05 0.07,0.02 0.03,-0.02 0.03,-0.05 0.01,-0.07 -0.02,-0.02 -0.08,-0.08 -0.08,-0.09 -0.01,-0.02 0,-0.15 0,-0.17 0,-0.03 0,-0.07 -0.03,-0.08 -0.02,-0.01 -0.06,0 -0.06,0.04 0,0.03 0,0.07 0,0.11 -0.01,0 -0.04,-0.04 -0.05,-0.05l-0.07 -0.08c-0.02,-0.03 -0.05,-0.06 -0.08,-0.07 -0.05,-0.03 -0.1,-0.04 -0.16,-0.02 -0.05,0.02 -0.09,0.07 -0.11,0.1l-0.05 0.05c-0.01,0.01 -0.01,0.01 -0.01,0.01 -0.02,0.02 -0.06,0.06 -0.08,0.08 0,0.01 0,0.01 -0.01,0.02 -0.01,0.01 -0.03,0.03 -0.05,0.05 0,0.01 -0.01,0.02 -0.02,0.03 0,0 -0.01,0.01 -0.01,0.01 -0.02,0.02 -0.05,0.05 -0.06,0.07 -0.02,0.03 -0.01,0.05 0.02,0.06 0.04,0.02 0.05,-0.02 0.07,-0.02z"/>
 </g>
</svg>
