<?xml version="1.0" encoding="UTF-8"?>
<!DOCTYPE svg PUBLIC "-//W3C//DTD SVG 1.0//EN" "http://www.w3.org/TR/2001/REC-SVG-20010904/DTD/svg10.dtd">
<!-- Creator: CorelDRAW 2018 (64 Bit Versão de avaliação) -->
<svg xmlns="http://www.w3.org/2000/svg" xml:space="preserve" width="41px" height="41px" version="1.0" shape-rendering="geometricPrecision" text-rendering="geometricPrecision" image-rendering="optimizeQuality" fill-rule="evenodd" clip-rule="evenodd"
viewBox="0 0 1.56 1.56"
 xmlns:xlink="http://www.w3.org/1999/xlink">
 <g id="Camada_x0020_1">
  <metadata id="CorelCorpID_0Corel-Layer"/>
  <g id="_2751290670640">
   <g>
    <path fill="#292929" d="M1.32 1.41l-1.08 0c-0.09,0 -0.09,-0.05 -0.09,-0.11 0,-0.01 0.03,-0.04 0.04,-0.05 0.04,-0.03 0.1,-0.07 0.14,-0.11 0,0 0.01,0 0.01,-0.01 0.04,-0.03 0.11,-0.09 0.15,-0.12 0.01,-0.02 0.04,-0.04 0.06,-0.04 0.01,0 0.02,0.02 0.03,0.03l0.09 0.09c0.01,0.01 0.02,0.03 0.03,0.04 0.03,0.02 0.03,0.03 0.06,0.05 0.11,0.08 0.19,0.03 0.27,-0.04 0.01,-0.01 0.02,-0.02 0.03,-0.02l0.06 -0.04c0.07,-0.06 0.04,-0.06 0.18,0.05 0.02,0.02 0.03,0.03 0.05,0.05 0.01,0 0.06,0.04 0.06,0.05 0,0.04 0.01,0.13 -0.02,0.16 -0.02,0.02 -0.03,0.02 -0.07,0.02zm-1.17 -0.32l0 -0.77c0,-0.1 -0.01,-0.17 0.09,-0.17l1.08 0c0.11,0 0.09,0.07 0.09,0.15l0 0.73c-0.01,-0.01 -0.11,-0.09 -0.15,-0.12 -0.06,-0.03 -0.13,-0.02 -0.18,0.01 -0.01,0.01 -0.03,0.01 -0.04,0.02 -0.01,0.01 -0.02,0.02 -0.03,0.03 -0.01,0 -0.01,0.01 -0.02,0.01 0,0 -0.01,0.01 -0.02,0.01l-0.06 0.05c-0.05,0.04 -0.05,0.03 -0.12,-0.04 -0.03,-0.03 -0.13,-0.13 -0.16,-0.15 -0.01,-0.01 -0.01,-0.01 -0.02,-0.02 -0.03,-0.01 -0.06,-0.01 -0.09,-0.01 -0.05,0 -0.1,0.05 -0.13,0.07 -0.02,0.02 -0.04,0.04 -0.07,0.06 0,0 -0.01,0.01 -0.02,0.02l-0.11 0.09c-0.01,0.01 -0.03,0.02 -0.04,0.03zm-0.15 -0.89l0 1.16c0,0.04 0.02,0.08 0.04,0.11 0.03,0.05 0.1,0.09 0.16,0.09l1.16 0c0.04,0 0.08,-0.02 0.11,-0.04 0,0 0.01,-0.01 0.01,-0.01 0.02,-0.01 0.01,0 0.02,-0.02 0.02,-0.02 0.02,-0.02 0.04,-0.05 0.01,-0.02 0.02,-0.05 0.02,-0.08l0 -1.16c0,-0.04 -0.02,-0.08 -0.04,-0.11 -0.02,-0.03 -0.05,-0.05 -0.08,-0.07 -0.02,-0.01 -0.05,-0.02 -0.08,-0.02l-1.16 0c-0.04,0 -0.1,0.03 -0.12,0.05 -0.02,0.01 -0.01,0.01 -0.02,0.02 0,0 -0.01,0 -0.01,0.01 -0.01,0.01 -0.02,0.03 -0.03,0.04 -0.01,0.02 -0.02,0.05 -0.02,0.08z"/>
    <path fill="#292929" d="M0.94 0.56l0 -0.02c0,-0.07 0.09,-0.1 0.13,-0.06 0.04,0.04 0.04,0.14 -0.05,0.15 -0.04,0 -0.08,-0.03 -0.08,-0.07zm-0.16 -0.02c0,0.13 0.11,0.24 0.24,0.24 0.12,0 0.23,-0.11 0.23,-0.24 0,-0.12 -0.11,-0.23 -0.24,-0.23 -0.12,0 -0.23,0.11 -0.23,0.23z"/>
   </g>
  </g>
 </g>
</svg>
