<?xml version="1.0" encoding="UTF-8"?>
<!DOCTYPE svg PUBLIC "-//W3C//DTD SVG 1.0//EN" "http://www.w3.org/TR/2001/REC-SVG-20010904/DTD/svg10.dtd">
<!-- Creator: CorelDRAW 2018 (64 Bit Versão de avaliação) -->
<svg xmlns="http://www.w3.org/2000/svg" xml:space="preserve" width="45px" height="41px" version="1.0" shape-rendering="geometricPrecision" text-rendering="geometricPrecision" image-rendering="optimizeQuality" fill-rule="evenodd" clip-rule="evenodd"
viewBox="0 0 1.9 1.72"
 xmlns:xlink="http://www.w3.org/1999/xlink">
 <g id="Camada_x0020_1">
  <metadata id="CorelCorpID_0Corel-Layer"/>
  <path fill="black" d="M0.13 1.02c0,-0.05 0.02,-0.07 0.05,-0.09l0 0.02 0 0.14 -0.01 0.01c-0.02,-0.01 -0.04,-0.04 -0.04,-0.08zm1.29 0.05c0.02,-0.13 -0.15,-0.12 -0.16,-0.04 -0.02,0.11 0.14,0.13 0.16,0.04zm-0.69 0.11c0.01,0.07 0.2,0.17 0.36,0.08 0.12,-0.06 0.08,-0.13 0.04,-0.12 -0.03,0 -0.04,0.02 -0.06,0.03 -0.16,0.11 -0.26,-0.04 -0.3,-0.03 -0.02,0 -0.04,0.02 -0.04,0.04zm-0.24 -0.12c0.01,0.1 0.17,0.09 0.16,-0.03 -0.02,-0.09 -0.18,-0.08 -0.16,0.03zm1.24 -0.13c0.03,0.02 0.05,0.05 0.04,0.09 0,0.03 -0.03,0.08 -0.04,0.1l0 -0.19zm-0.65 -0.79c0.08,0.02 0.24,0.09 0.29,0.15 0.01,0.01 0.03,0.02 0.04,0.03 0.08,0.07 0.14,0.18 0.17,0.33 0.02,0.09 0.01,0.39 0.01,0.5 0,0.15 -0.02,0.26 -0.16,0.35 -0.19,0.11 -0.65,0.12 -0.87,0.04 -0.28,-0.1 -0.25,-0.3 -0.25,-0.51 0,-0.25 -0.03,-0.44 0.12,-0.64 0.04,-0.05 0.08,-0.09 0.13,-0.13 0.12,-0.09 0.23,-0.14 0.37,-0.06 0.13,0.08 0.17,0.25 0.05,0.31 -0.07,0.03 -0.16,-0.02 -0.13,-0.1 0.01,-0.04 0.04,-0.02 0.08,-0.04 0.02,-0.02 0.04,-0.05 0.03,-0.09 -0.03,-0.06 -0.17,-0.05 -0.23,0.08 -0.05,0.09 0,0.21 0.09,0.26 0.19,0.11 0.43,-0.08 0.35,-0.32 -0.04,-0.1 -0.08,-0.12 -0.09,-0.16zm-0.9 0.64c-0.02,0.01 -0.03,0.01 -0.07,0.03 -0.12,0.09 -0.15,0.25 -0.06,0.36 0.06,0.07 0.12,0.08 0.13,0.08 0.01,0.01 0.02,0.1 0.03,0.12 0.04,0.11 0.12,0.19 0.22,0.25 0.14,0.08 0.34,0.1 0.52,0.1 0.26,0 0.53,-0.03 0.69,-0.24 0.03,-0.05 0.05,-0.11 0.07,-0.16 0.01,-0.03 0.01,-0.04 0.01,-0.07 0.05,0 0.1,-0.05 0.13,-0.08 0.03,-0.03 0.05,-0.08 0.05,-0.15 0,-0.11 -0.07,-0.21 -0.17,-0.24 -0.01,-0.2 -0.06,-0.35 -0.18,-0.5l-0.07 -0.07c-0.16,-0.13 -0.31,-0.21 -0.53,-0.21 -0.12,0 -0.22,0.02 -0.32,0.07 -0.06,0.02 -0.13,0.07 -0.18,0.11 -0.14,0.11 -0.25,0.33 -0.27,0.51 0,0.03 0,0.06 0,0.09z"/>
 </g>
</svg>
