<?xml version="1.0" encoding="UTF-8"?>
<!DOCTYPE svg PUBLIC "-//W3C//DTD SVG 1.0//EN" "http://www.w3.org/TR/2001/REC-SVG-20010904/DTD/svg10.dtd">
<!-- Creator: CorelDRAW 2018 (64 Bit Versão de avaliação) -->
<svg xmlns="http://www.w3.org/2000/svg" xml:space="preserve" width="41px" height="41px" version="1.0" shape-rendering="geometricPrecision" text-rendering="geometricPrecision" image-rendering="optimizeQuality" fill-rule="evenodd" clip-rule="evenodd"
viewBox="0 0 3.58 3.57"
 xmlns:xlink="http://www.w3.org/1999/xlink">
 <g id="Camada_x0020_1">
  <metadata id="CorelCorpID_0Corel-Layer"/>
  <path fill="#292929" d="M1.65 0.3c0.22,-0.03 0.46,0.02 0.65,0.09 0.22,0.07 0.3,0.14 0.47,0.27 0.1,0.08 0.26,0.27 0.33,0.42 0.09,0.17 0.15,0.34 0.17,0.57 0.03,0.22 -0.01,0.45 -0.08,0.65 -0.11,0.32 -0.38,0.64 -0.69,0.8 -0.18,0.09 -0.34,0.14 -0.57,0.17 -0.43,0.05 -0.81,-0.1 -1.12,-0.36 -0.08,-0.06 -0.12,-0.11 -0.18,-0.19 -0.19,-0.23 -0.3,-0.49 -0.33,-0.79 -0.06,-0.58 0.27,-1.19 0.78,-1.45 0.17,-0.09 0.34,-0.15 0.57,-0.18zm0.11 0.6c-0.14,0.03 -0.12,0.17 -0.12,0.25l0 0.75c0,0.07 0,0.1 0.04,0.14 0.08,0.08 0.21,0.05 0.24,-0.04 0.03,-0.04 0.01,-0.81 0.01,-0.92 0,-0.07 0,-0.11 -0.04,-0.15 -0.03,-0.02 -0.08,-0.05 -0.13,-0.03zm-0.01 1.34c-0.1,0.02 -0.18,0.11 -0.15,0.23 0.04,0.26 0.44,0.18 0.38,-0.08 -0.02,-0.1 -0.12,-0.17 -0.23,-0.15zm-1.75 -0.35c0.02,0.54 0.32,0.98 0.58,1.21 0.04,0.04 0.07,0.07 0.12,0.11 0.09,0.06 0.33,0.2 0.43,0.24 0.27,0.11 0.45,0.13 0.77,0.12 0.36,-0.01 0.71,-0.16 0.98,-0.36 0.43,-0.34 0.72,-0.86 0.7,-1.53 -0.01,-0.13 -0.03,-0.27 -0.07,-0.39 -0.08,-0.28 -0.31,-0.65 -0.51,-0.82 -0.1,-0.09 -0.13,-0.12 -0.26,-0.2 -0.34,-0.21 -0.64,-0.28 -1.06,-0.27 -0.28,0.01 -0.49,0.09 -0.71,0.19 -0.19,0.1 -0.37,0.24 -0.5,0.39 -0.34,0.36 -0.49,0.79 -0.47,1.31z"/>
 </g>
</svg>
