<?xml version="1.0" encoding="UTF-8"?>
<!DOCTYPE svg PUBLIC "-//W3C//DTD SVG 1.0//EN" "http://www.w3.org/TR/2001/REC-SVG-20010904/DTD/svg10.dtd">
<!-- Creator: CorelDRAW 2018 (64 Bit Versão de avaliação) -->
<svg xmlns="http://www.w3.org/2000/svg" xml:space="preserve" width="69px" height="41px" version="1.0" shape-rendering="geometricPrecision" text-rendering="geometricPrecision" image-rendering="optimizeQuality" fill-rule="evenodd" clip-rule="evenodd"
viewBox="0 0 2.53 1.51"
 xmlns:xlink="http://www.w3.org/1999/xlink">
 <g id="Camada_x0020_1">
  <metadata id="CorelCorpID_0Corel-Layer"/>
  <path fill="#292929" d="M1.62 1.07c0.19,-0.05 0.27,0.22 0.08,0.28 -0.2,0.06 -0.26,-0.24 -0.08,-0.28zm-1.35 0c0.09,-0.03 0.16,0.03 0.18,0.11 0.01,0.08 -0.04,0.16 -0.11,0.17 -0.21,0.04 -0.24,-0.25 -0.07,-0.28zm0.67 -0.57c0.08,-0.02 0.17,0.04 0.18,0.1 0.02,0.09 -0.03,0.17 -0.09,0.19 -0.09,0.02 -0.18,-0.04 -0.19,-0.11 -0.02,-0.09 0.03,-0.16 0.1,-0.18zm1.24 -0.34c0.04,-0.01 0.09,0 0.12,0.02 0.1,0.05 0.11,0.22 -0.03,0.26 -0.19,0.06 -0.27,-0.21 -0.09,-0.28zm-0.04 0.44c0.07,0 0.13,0.03 0.23,-0.03 0.06,-0.03 0.11,-0.08 0.13,-0.15 0.1,-0.22 -0.1,-0.47 -0.34,-0.41 -0.08,0.02 -0.13,0.05 -0.17,0.1 -0.04,0.05 -0.07,0.13 -0.07,0.22 0.02,0.13 0.06,0.15 0.09,0.19l-0.2 0.29c-0.02,0.03 -0.04,0.07 -0.06,0.1 -0.07,0.01 -0.1,-0.02 -0.18,0.01 -0.06,0.02 -0.09,0.05 -0.12,0.06 -0.03,-0.03 -0.07,-0.06 -0.1,-0.1 -0.03,-0.04 -0.07,-0.06 -0.1,-0.1 0.02,-0.06 0.04,-0.07 0.04,-0.15 -0.01,-0.06 -0.03,-0.11 -0.05,-0.15 -0.15,-0.24 -0.52,-0.17 -0.56,0.14 -0.01,0.07 0.02,0.1 0.02,0.16l-0.09 0.07c-0.16,0.13 -0.1,0.12 -0.19,0.08 -0.19,-0.09 -0.46,0.07 -0.41,0.34 0.05,0.27 0.42,0.34 0.56,0.08 0.05,-0.09 0.04,-0.17 0.01,-0.27l0.12 -0.09c0.15,-0.12 0.09,-0.09 0.19,-0.06 0.14,0.05 0.18,-0.01 0.26,-0.03 0.01,0.01 0.01,0.01 0.02,0.02l0.19 0.19c0.03,0.04 -0.04,0.09 0.02,0.22 0.11,0.26 0.51,0.25 0.58,-0.06 0.02,-0.09 0,-0.15 -0.04,-0.21 -0.03,-0.06 -0.06,-0.05 -0.01,-0.11 0.04,-0.06 0.21,-0.32 0.23,-0.35z"/>
 </g>
</svg>
