<?xml version="1.0" encoding="UTF-8"?>
<!DOCTYPE svg PUBLIC "-//W3C//DTD SVG 1.0//EN" "http://www.w3.org/TR/2001/REC-SVG-20010904/DTD/svg10.dtd">
<!-- Creator: CorelDRAW 2018 (64 Bit Versão de avaliação) -->
<svg xmlns="http://www.w3.org/2000/svg" xml:space="preserve" width="51px" height="42px" version="1.0" shape-rendering="geometricPrecision" text-rendering="geometricPrecision" image-rendering="optimizeQuality" fill-rule="evenodd" clip-rule="evenodd"
viewBox="0 0 1.15 0.94"
 xmlns:xlink="http://www.w3.org/1999/xlink">
 <g id="Camada_x0020_1">
  <metadata id="CorelCorpID_0Corel-Layer"/>
  <path fill="black" d="M0.13 0.1c0.01,-0.01 0.03,0 0.05,0l0.8 0c0.01,0 0.04,-0.01 0.05,0 0.01,0 0.02,0.01 0.03,0.03 0,0.01 0,0.04 0,0.05l0 0.59c0,0.01 0,0.04 -0.01,0.05 -0.01,0.03 -0.05,0.03 -0.08,0.03l-0.8 0c-0.01,0 -0.04,0 -0.05,-0.01 -0.01,0 -0.02,-0.01 -0.03,-0.03 0,-0.01 0,-0.03 0,-0.05l0 -0.59c0,-0.01 0,-0.04 0.01,-0.05 0,-0.01 0.01,-0.02 0.03,-0.02zm0.23 0.32c-0.02,0 -0.03,0.01 -0.03,0.02 -0.01,0.01 -0.01,0.02 -0.01,0.04 0,0.02 0,0.19 0,0.21 0,0.04 0.06,0.05 0.09,0.02 0.01,-0.02 0.01,-0.03 0.01,-0.04 0,-0.02 0,-0.2 0,-0.21 -0.01,-0.03 -0.03,-0.05 -0.06,-0.04zm0.21 -0.1c-0.02,0 -0.03,0.01 -0.04,0.03 0,0.01 0,0.04 0,0.06l0 0.25c0,0.03 0,0.04 0.01,0.05 0.01,0.01 0.03,0.02 0.05,0.02 0.02,-0.01 0.03,-0.02 0.04,-0.03 0,-0.02 0,-0.04 0,-0.06l0 -0.26c0,-0.02 0,-0.03 -0.01,-0.05 -0.01,-0.01 -0.03,-0.02 -0.05,-0.01zm0.2 -0.11c-0.02,0.01 -0.03,0.02 -0.04,0.04 0,0.02 0,0.06 0,0.08l0 0.31c0,0.02 0,0.05 0.01,0.06 0.02,0.04 0.08,0.03 0.09,-0.01 0.01,-0.01 0,-0.06 0,-0.08l0 -0.3c0,-0.03 0.01,-0.06 0,-0.07 -0.01,-0.02 -0.03,-0.03 -0.06,-0.03zm-0.61 -0.21c-0.07,0.01 -0.13,0.05 -0.15,0.11 -0.01,0.04 -0.01,0.09 -0.01,0.13l0 0.52c0,0.05 0.01,0.07 0.03,0.1 0.01,0.03 0.04,0.05 0.07,0.07 0.04,0.01 0.06,0.01 0.11,0.01l0.72 0c0.02,0 0.04,0 0.06,0 0.08,0 0.13,-0.05 0.15,-0.11 0.01,-0.04 0.01,-0.08 0.01,-0.12l0 -0.53c0,-0.04 -0.01,-0.07 -0.03,-0.1 -0.01,-0.03 -0.04,-0.05 -0.07,-0.06 -0.04,-0.02 -0.06,-0.02 -0.11,-0.02l-0.72 0c-0.02,0 -0.04,0 -0.06,0z"/>
 </g>
</svg>
