<?xml version="1.0" encoding="UTF-8"?>
<!DOCTYPE svg PUBLIC "-//W3C//DTD SVG 1.0//EN" "http://www.w3.org/TR/2001/REC-SVG-20010904/DTD/svg10.dtd">
<!-- Creator: CorelDRAW 2018 (64 Bit Versão de avaliação) -->
<svg xmlns="http://www.w3.org/2000/svg" xml:space="preserve" width="41px" height="41px" version="1.0" shape-rendering="geometricPrecision" text-rendering="geometricPrecision" image-rendering="optimizeQuality" fill-rule="evenodd" clip-rule="evenodd"
viewBox="0 0 3.46 3.46"
 xmlns:xlink="http://www.w3.org/1999/xlink">
 <g id="Camada_x0020_1">
  <metadata id="CorelCorpID_0Corel-Layer"/>
  <g id="_2751334257152">
   <g>
    <path fill="black" d="M2.96 3.14l-0.13 0 0 -1.25 0.31 0 0 1.07c0,0.12 -0.06,0.18 -0.18,0.18zm-2.64 -0.18l0 -2.46c0,-0.12 0.06,-0.18 0.18,-0.18l1.84 0c0.1,0 0.17,0.07 0.17,0.13l0 2.69 -2.01 0c-0.12,0 -0.18,-0.06 -0.18,-0.18zm-0.32 -2.49l0 2.52c0,0.25 0.21,0.47 0.47,0.47l2.52 0c0.25,0 0.47,-0.22 0.47,-0.47l0 -1.25c0,-0.1 -0.08,-0.17 -0.18,-0.17l-0.45 0 0 -1.06c0,-0.28 -0.19,-0.51 -0.47,-0.51l-1.89 0c-0.26,0 -0.47,0.21 -0.47,0.47z"/>
    <path fill="black" d="M0.82 1.89l1.2 0c0.24,0 0.25,-0.32 0,-0.32l-1.2 0c-0.26,0 -0.26,0.32 0,0.32z"/>
    <path fill="black" d="M0.77 1.26l1.28 0c0.2,0 0.2,-0.32 0,-0.32l-1.26 0c-0.22,0 -0.2,0.32 -0.02,0.32z"/>
    <path fill="black" d="M0.79 2.52l0.63 0c0.2,0 0.2,-0.32 0.01,-0.32l-0.66 0c-0.08,0 -0.15,0.09 -0.14,0.17 0.01,0.08 0.07,0.15 0.16,0.15z"/>
   </g>
  </g>
 </g>
</svg>
