<?xml version="1.0" encoding="UTF-8"?>
<!DOCTYPE svg PUBLIC "-//W3C//DTD SVG 1.0//EN" "http://www.w3.org/TR/2001/REC-SVG-20010904/DTD/svg10.dtd">
<!-- Creator: CorelDRAW 2018 (64 Bit Versão de avaliação) -->
<svg xmlns="http://www.w3.org/2000/svg" xml:space="preserve" width="62px" height="41px" version="1.0" shape-rendering="geometricPrecision" text-rendering="geometricPrecision" image-rendering="optimizeQuality" fill-rule="evenodd" clip-rule="evenodd"
viewBox="0 0 2.58 1.72"
 xmlns:xlink="http://www.w3.org/1999/xlink">
 <g id="Camada_x0020_1">
  <metadata id="CorelCorpID_0Corel-Layer"/>
  <g id="_2289691669408">
   <g>
    <path fill="black" d="M0.89 0.97l1.38 0c0,0.05 0.01,0.09 0.02,0.14l0.05 0.4 -2.1 0c0,-0.03 0.02,-0.09 0.03,-0.11 0.05,-0.12 0.13,-0.22 0.23,-0.29 0.11,-0.08 0.25,-0.14 0.39,-0.14zm-0.02 -0.91c0,0.18 -0.02,0.16 0.19,0.16l0.98 0c0.03,0 0.08,-0.01 0.11,0 0.03,0.02 0.03,0.06 0.03,0.1l0.06 0.43c-0.26,0 -0.52,0 -0.78,0 -0.22,0 -0.58,-0.02 -0.75,0.03 -0.12,0.03 -0.3,0.11 -0.39,0.19 -0.05,0.05 -0.03,0.02 -0.07,0.08 -0.01,0.01 -0.02,0.01 -0.03,0.02 -0.02,0.02 -0.03,0.04 -0.04,0.06 -0.12,0.16 -0.18,0.34 -0.18,0.54 0,0.03 0.03,0.05 0.06,0.05l2.46 0c0.09,0 0.05,-0.11 0.05,-0.16l-0.08 -0.59c-0.01,-0.08 -0.02,-0.16 -0.03,-0.24 -0.03,-0.15 -0.04,-0.32 -0.07,-0.47 -0.02,-0.15 -0.11,-0.26 -0.27,-0.26l-1.2 0c-0.03,0 -0.05,0.03 -0.05,0.06z"/>
    <path fill="black" d="M1.29 1.34c0.06,0 0.11,-0.04 0.11,-0.1 0,-0.14 -0.22,-0.15 -0.22,-0.01 0,0.06 0.04,0.11 0.11,0.11z"/>
    <path fill="black" d="M0.75 1.23c0,0.15 0.22,0.16 0.22,0 0,-0.05 -0.05,-0.1 -0.11,-0.1 -0.06,0 -0.11,0.05 -0.11,0.1z"/>
    <path fill="black" d="M1.61 1.23c0,0.16 0.22,0.15 0.22,0 0,-0.05 -0.05,-0.1 -0.11,-0.1 -0.05,0 -0.11,0.05 -0.11,0.1z"/>
   </g>
  </g>
 </g>
</svg>
