<?xml version="1.0" encoding="UTF-8"?>
<!DOCTYPE svg PUBLIC "-//W3C//DTD SVG 1.0//EN" "http://www.w3.org/TR/2001/REC-SVG-20010904/DTD/svg10.dtd">
<!-- Creator: CorelDRAW 2018 (64 Bit Versão de avaliação) -->
<svg xmlns="http://www.w3.org/2000/svg" xml:space="preserve" width="49px" height="41px" version="1.0" shape-rendering="geometricPrecision" text-rendering="geometricPrecision" image-rendering="optimizeQuality" fill-rule="evenodd" clip-rule="evenodd"
viewBox="0 0 3.49 2.93"
 xmlns:xlink="http://www.w3.org/1999/xlink">
 <g id="Camada_x0020_1">
  <metadata id="CorelCorpID_0Corel-Layer"/>
  <g id="_2289677496656">
   <g>
    <path fill="#292929" d="M0.41 1.75l0 0zm-0.41 0.64l0 -0.41c0.01,-0.15 0.05,-0.28 0.18,-0.39l0.05 -0.05c0.03,-0.02 0.05,-0.03 0.08,-0.05 0.15,-0.07 0.12,0 0.17,-0.1 0.15,-0.33 0.52,-0.29 0.81,-0.29 -0.08,-0.14 -0.07,-0.17 -0.07,-0.33 0,-0.14 0.09,-0.25 0.17,-0.33 0.3,-0.3 0.89,-0.1 0.89,0.4 0,0.14 -0.05,0.21 -0.07,0.26 0.37,0 0.65,-0.03 0.82,0.32 0.02,0.03 0.01,0.02 0.04,0.03 0.01,0.01 0.03,0.01 0.05,0.02 0.19,0.06 0.37,0.26 0.37,0.48l0 0.51c0,0.14 -0.06,0.24 -0.15,0.32 -0.07,0.08 -0.2,0.15 -0.32,0.15l-2.53 0c-0.14,0 -0.28,-0.08 -0.36,-0.16 -0.08,-0.09 -0.13,-0.21 -0.13,-0.38zm0.41 -0.64c0,0.13 0,0.3 0.05,0.38 0.15,0.23 0.44,0.21 0.56,0.02 0.08,-0.13 0.05,-0.27 0.05,-0.38l0.08 0 0 0.6 0.21 0c0.04,0 0.04,0.01 0.05,-0.02l0 -0.84c-0.07,0 -0.49,-0.02 -0.54,0.01 -0.13,0.08 0,0.41 -0.08,0.49 -0.04,0.04 -0.1,0.02 -0.11,-0.03 -0.01,-0.04 0,-0.15 0,-0.19 0,-0.14 -0.01,-0.23 0.05,-0.31 0.07,-0.1 0.17,-0.11 0.28,-0.11l1.49 0c0.29,0 0.32,0.16 0.32,0.44 0,0.06 0.01,0.12 -0.01,0.17 -0.02,0.08 -0.09,0.05 -0.11,0.02 -0.05,-0.06 0,-0.25 -0.02,-0.34 -0.02,-0.16 -0.06,-0.15 -0.22,-0.15 -0.13,0 -0.26,0 -0.38,0 0,0.1 -0.01,0.83 0.01,0.85 0.02,0.03 0.16,0.01 0.2,0.01 0.08,0 0.06,0 0.06,-0.16 0,-0.15 0,-0.29 0,-0.44l0.07 0c0,0.17 -0.02,0.28 0.05,0.38 0.14,0.19 0.45,0.2 0.57,-0.02 0.06,-0.12 0.04,-0.22 0.04,-0.39 0.17,0.11 0.15,0.22 0.15,0.48 0,0.26 0.01,0.39 -0.2,0.44 -0.12,0.02 -1.65,0.01 -1.9,0.01 -0.16,0 -0.49,0.02 -0.63,0 -0.09,-0.02 -0.17,-0.06 -0.2,-0.12 -0.04,-0.08 -0.03,-0.19 -0.03,-0.3 0,-0.08 -0.01,-0.24 0,-0.31 0.02,-0.08 0.07,-0.17 0.14,-0.19zm1.07 -0.92c0,-0.15 0.11,-0.26 0.29,-0.26 0.12,0 0.24,0.12 0.24,0.24 0,0.41 -0.53,0.36 -0.53,0.02z"/>
    <path fill="#292929" d="M2.42 0.45c0,0.14 0.02,0.2 0.08,0.29 0.03,0.03 0.05,0.06 0.08,0.09 0.02,0.03 0.02,0.02 0.03,0.06 0.01,0.03 0.01,0.05 0.01,0.08l0.26 0c0,-0.35 -0.19,-0.32 -0.2,-0.49 0,-0.09 0.07,-0.13 0.12,-0.2 0.07,-0.09 0.08,-0.15 0.08,-0.28l-0.26 0c0,0.19 -0.2,0.22 -0.2,0.45z"/>
    <path fill="#292929" d="M3.18 0.97l0.23 0 0 -0.08c0,-0.22 -0.19,-0.25 -0.19,-0.42 0,-0.16 0.19,-0.12 0.19,-0.47l-0.23 0c-0.04,0 -0.02,0.08 -0.05,0.12 -0.06,0.07 -0.1,0.1 -0.15,0.21 -0.06,0.13 -0.02,0.32 0.06,0.42 0.06,0.06 0.09,0.09 0.11,0.16 0,0.03 0,0.06 0.03,0.06z"/>
    <path fill="#292929" d="M0.08 0.45c0,0.31 0.16,0.32 0.19,0.44 0.01,0.03 0.01,0.05 0.01,0.08l0.26 0c0,-0.34 -0.19,-0.32 -0.2,-0.49 0,-0.16 0.2,-0.15 0.2,-0.48l-0.26 0c0,0.12 -0.06,0.15 -0.11,0.22 -0.04,0.04 -0.09,0.15 -0.09,0.23z"/>
    <path fill="#292929" d="M0.84 0.97l0.23 0c0,-0.36 -0.19,-0.3 -0.19,-0.5 0,-0.15 0.19,-0.13 0.19,-0.47 -0.36,0 -0.21,-0.01 -0.28,0.12 -0.03,0.04 -0.2,0.18 -0.18,0.36 0.01,0.13 0.03,0.19 0.09,0.27 0.06,0.06 0.09,0.09 0.11,0.16 0,0.03 0,0.06 0.03,0.06z"/>
   </g>
  </g>
 </g>
</svg>
