<?xml version="1.0" encoding="UTF-8"?>
<!DOCTYPE svg PUBLIC "-//W3C//DTD SVG 1.0//EN" "http://www.w3.org/TR/2001/REC-SVG-20010904/DTD/svg10.dtd">
<!-- Creator: CorelDRAW 2018 (64 Bit Versão de avaliação) -->
<svg xmlns="http://www.w3.org/2000/svg" xml:space="preserve" width="41px" height="41px" version="1.0" shape-rendering="geometricPrecision" text-rendering="geometricPrecision" image-rendering="optimizeQuality" fill-rule="evenodd" clip-rule="evenodd"
viewBox="0 0 3.46 3.46"
 xmlns:xlink="http://www.w3.org/1999/xlink">
 <g id="Camada_x0020_1">
  <metadata id="CorelCorpID_0Corel-Layer"/>
  <g id="_2289734465344">
   <g>
    <path fill="#292929" d="M2.06 2.13l1.13 0 0 1.07 -1.13 0 0 -1.07zm-0.9 0l0.64 0 0 1.07 -0.64 0 0 -1.07zm-0.9 0l0.63 0 0 1.07 -0.63 0 0 -1.07zm0 -0.29l0 -0.11 2.93 0 0 0.14 -2.9 0c-0.02,0 -0.03,0 -0.03,-0.03zm2.03 -0.44l0 -0.29 0.67 0 0 0.31c0,0.03 -0.04,0.05 -0.07,0.05l-0.52 0c-0.05,0 -0.08,-0.03 -0.08,-0.07zm0 -0.61c0,-0.06 0.04,-0.08 0.1,-0.08l0.46 0c0.13,0 0.11,0.05 0.11,0.14l-0.67 0 0 -0.06zm0.21 -0.34c-0.17,0 -0.25,0 -0.35,0.08 -0.04,0.02 -0.08,0.08 -0.09,0.12 -0.03,0.06 -0.03,0.12 -0.03,0.2 -0.18,0.01 -0.17,0.26 0,0.26l0 0.3c0,0.03 0.01,0.03 0.01,0.06l-1.89 0c-0.09,0 -0.15,0.06 -0.15,0.12l0 1.75c0,0.07 0.07,0.12 0.14,0.12l3.19 0c0.09,0 0.13,-0.07 0.13,-0.16l0 -1.66c0,-0.07 -0.01,-0.12 -0.06,-0.15 -0.07,-0.03 -0.12,-0.02 -0.18,-0.02l0.01 -0.18c0,-0.06 0,-0.12 0,-0.18 0.04,0 0.07,-0.02 0.09,-0.04 0.08,-0.07 0.04,-0.21 -0.09,-0.22 0,-0.14 -0.02,-0.22 -0.09,-0.29 -0.02,-0.03 -0.08,-0.07 -0.11,-0.09 -0.08,-0.03 -0.19,-0.02 -0.27,-0.02 -0.01,-0.17 -0.25,-0.18 -0.26,0z"/>
    <path fill="#292929" d="M1.36 0.84c0,-0.08 0.13,-0.13 0.13,0.01 0,0.06 -0.13,0.07 -0.13,-0.01zm-0.68 0.04c-0.16,0.04 -0.14,-0.12 -0.05,-0.12 0.03,0 0.03,0.01 0.05,0.01 0.02,0.05 0.02,0.07 0,0.11zm-0.68 -0.75c0,0.07 0.07,0.13 0.12,0.13l0.38 0 0 0.27c-0.03,0.01 -0.05,0.02 -0.07,0.04 -0.01,0.01 -0.02,0.02 -0.03,0.03 0,0 -0.01,0.01 -0.01,0.01 -0.09,0.09 -0.08,0.15 -0.08,0.27 0,0.12 0.15,0.27 0.28,0.27l0.07 0c0.15,0 0.3,-0.15 0.3,-0.3l0 -0.06c0,-0.11 -0.11,-0.24 -0.2,-0.26l0 -0.27 0.53 0 0 0.27c-0.15,0.04 -0.29,0.34 -0.1,0.52 0.28,0.28 0.73,-0.04 0.51,-0.4 -0.03,-0.05 -0.08,-0.11 -0.14,-0.12l0 -0.27 0.37 0c0.12,0 0.17,-0.13 0.1,-0.22 -0.02,-0.02 -0.05,-0.04 -0.08,-0.04l-1.83 0c-0.03,0 -0.06,0.02 -0.08,0.04 -0.03,0.02 -0.04,0.04 -0.04,0.09z"/>
    <path fill="#292929" d="M2.46 2.53l0.33 0 0 0.27 -0.33 0 0 -0.27zm-0.26 -0.14l0 0.56c0,0.05 0.06,0.11 0.11,0.11l0.63 0c0.07,0 0.12,-0.06 0.12,-0.14l0 -0.51c0,-0.09 -0.07,-0.15 -0.16,-0.15l-0.54 0c-0.09,0 -0.16,0.04 -0.16,0.13z"/>
    <path fill="#292929" d="M1.29 2.62c0,0.09 0,0.27 0.16,0.24 0.16,-0.03 0.16,-0.39 -0.02,-0.39 -0.08,0 -0.14,0.07 -0.14,0.15z"/>
    <path fill="#292929" d="M0.5 2.6c0,0.08 -0.01,0.17 0.04,0.23 0.08,0.08 0.22,0.03 0.22,-0.11 0,-0.09 0.02,-0.25 -0.13,-0.25 -0.07,0 -0.13,0.05 -0.13,0.13z"/>
   </g>
  </g>
 </g>
</svg>
