<?xml version="1.0" encoding="UTF-8"?>
<!DOCTYPE svg PUBLIC "-//W3C//DTD SVG 1.0//EN" "http://www.w3.org/TR/2001/REC-SVG-20010904/DTD/svg10.dtd">
<!-- Creator: CorelDRAW 2018 (64 Bit Versão de avaliação) -->
<svg xmlns="http://www.w3.org/2000/svg" xml:space="preserve" width="41px" height="41px" version="1.0" shape-rendering="geometricPrecision" text-rendering="geometricPrecision" image-rendering="optimizeQuality" fill-rule="evenodd" clip-rule="evenodd"
viewBox="0 0 0.82 0.82"
 xmlns:xlink="http://www.w3.org/1999/xlink">
 <g id="Camada_x0020_1">
  <metadata id="CorelCorpID_0Corel-Layer"/>
  <g id="_1607222012720">
   <g>
    <path fill="black" d="M0.23 0.36l0.13 0 0 -0.21c0,-0.02 0.01,-0.04 0.03,-0.04 0.01,0 0.02,0 0.03,0.02 0.01,0 0.01,0.01 0.01,0.02l0 0.25c0,0.01 -0.02,0.03 -0.03,0.03l-0.18 0c-0.04,0 -0.05,-0.07 0.01,-0.07zm-0.23 0.03c0,0.1 0.03,0.18 0.09,0.25 0,0 0,0.01 0.01,0.01 0.02,0.03 0.05,0.05 0.08,0.07 0.05,0.03 0.08,0.05 0.15,0.06l0.07 0.01c0.01,0 0.01,0 0.02,0 0,-0.01 0,-0.01 -0.01,-0.02 0,0 0,-0.01 -0.01,-0.01 -0.1,-0.22 0.1,-0.44 0.32,-0.37 0.02,0 0.04,0.01 0.05,0.02 0,0.01 0.01,0.01 0.02,0.01 0,-0.01 0,-0.01 0,-0.02 0,-0.01 0,-0.02 0,-0.03 -0.01,-0.07 -0.04,-0.16 -0.09,-0.22 -0.15,-0.19 -0.42,-0.2 -0.58,-0.03 -0.06,0.05 -0.12,0.15 -0.12,0.27z"/>
    <path fill="black" d="M0.6 0.73c0,-0.01 0,-0.02 0.01,-0.03 0.02,-0.02 0.06,-0.01 0.06,0.03 0,0.05 -0.07,0.05 -0.07,0zm0 -0.09l0 -0.1c0,-0.04 0.07,-0.04 0.07,0l0 0.1c0,0.04 -0.07,0.04 -0.07,0zm-0.15 0c0,0.14 0.15,0.22 0.26,0.17 0.02,-0.01 0.05,-0.03 0.06,-0.04l0.02 -0.03c0.05,-0.07 0.04,-0.17 -0.02,-0.24 -0.02,-0.01 -0.04,-0.02 -0.06,-0.03 -0.06,-0.03 -0.14,-0.02 -0.19,0.02 -0.02,0.02 -0.02,0.02 -0.04,0.04 -0.02,0.03 -0.03,0.06 -0.03,0.11z"/>
   </g>
  </g>
 </g>
</svg>
