<?xml version="1.0" encoding="UTF-8"?>
<!DOCTYPE svg PUBLIC "-//W3C//DTD SVG 1.0//EN" "http://www.w3.org/TR/2001/REC-SVG-20010904/DTD/svg10.dtd">
<!-- Creator: CorelDRAW 2018 (64 Bit Versão de avaliação) -->
<svg xmlns="http://www.w3.org/2000/svg" xml:space="preserve" width="37px" height="41px" version="1.0" shape-rendering="geometricPrecision" text-rendering="geometricPrecision" image-rendering="optimizeQuality" fill-rule="evenodd" clip-rule="evenodd"
viewBox="0 0 0.62 0.68"
 xmlns:xlink="http://www.w3.org/1999/xlink">
 <g id="Camada_x0020_1">
  <metadata id="CorelCorpID_0Corel-Layer"/>
  <path fill="black" d="M0.05 0.6l0 -0.41 0.51 0 0 0.43c0,0 -0.01,0 -0.01,0 -0.05,0 -0.48,0.01 -0.49,0 0,0 0,0 0,0 -0.01,0 -0.01,-0.01 -0.01,-0.02zm0.32 -0.48c0.02,0 0.04,0 0.05,-0.01 0.02,-0.01 0.01,-0.04 -0.02,-0.04 -0.02,0 -0.05,-0.01 -0.05,0.02 -0.01,0.02 0.01,0.03 0.02,0.03zm0.16 -0.03c0,-0.03 -0.03,-0.02 -0.05,-0.02 -0.04,0 -0.04,0.04 -0.02,0.05 0.01,0 0.04,0 0.05,0 0.01,0 0.01,-0.01 0.02,-0.01 0,0 0,-0.01 0,-0.02zm-0.21 0.45c-0.04,0 -0.06,0 -0.09,-0.02 0,0 -0.02,-0.01 -0.02,-0.02 0,0 -0.01,0 -0.01,-0.01 0,0 0,0 -0.01,0l0 -0.01c-0.01,-0.01 -0.02,-0.04 -0.02,-0.05l0.02 0.01c0.03,0.01 0.06,0.01 0.08,0 0.02,-0.02 0.02,-0.02 0.04,-0.02 0.03,0 0.03,0.03 0.08,0.03 0.03,0 0.05,-0.02 0.05,-0.02 0,0.02 -0.01,0.05 -0.02,0.06 -0.01,0.01 -0.02,0.02 -0.04,0.03 -0.01,0.01 -0.04,0.02 -0.06,0.02zm-0.09 -0.15c-0.03,0 -0.04,-0.02 -0.06,-0.02 0.01,-0.05 0.06,-0.09 0.11,-0.1 0.02,0 0.03,0 0.05,0 0.01,0 0.02,0 0.03,0.01 0.01,0 0.03,0.01 0.04,0.02 0.01,0.01 0.01,0.01 0.02,0.02 0.01,0.01 0.02,0.04 0.02,0.05 -0.02,0.01 -0.01,0.01 -0.02,0.01 -0.01,0.01 -0.02,0.01 -0.03,0.01 -0.03,0 -0.03,-0.02 -0.09,-0.02 -0.01,0 -0.03,0 -0.04,0.01 -0.01,0 -0.02,0.01 -0.03,0.01zm-0.11 0c0,0.05 0,0.06 0.01,0.1l0.01 0.01c0.01,0.02 0.01,0.02 0.02,0.03 0,0 0,0 0.01,0.01 0.01,0.01 0,0 0.01,0.01 0.01,0.01 0.01,0.01 0.02,0.01 0.01,0.01 0.02,0.02 0.03,0.02 0.05,0.02 0.11,0.02 0.16,0 0.02,-0.01 0.03,-0.02 0.05,-0.03 0,-0.01 0,-0.01 0.01,-0.01 0.02,-0.03 0.04,-0.05 0.05,-0.09 0.01,-0.05 0,-0.1 -0.03,-0.14 -0.04,-0.07 -0.12,-0.11 -0.21,-0.09 -0.01,0 -0.02,0 -0.03,0.01 -0.01,0 -0.02,0.01 -0.03,0.02 0,0 -0.01,0 -0.01,0.01 -0.01,0 -0.01,0 -0.01,0 0,0 0,0 -0.01,0.01l-0.01 0.01c-0.02,0.03 -0.04,0.08 -0.04,0.11zm-0.07 -0.31c0,-0.01 0,-0.02 0.01,-0.03 0,0 0.01,0 0.01,0l0.48 0c0,0 0.01,0.01 0.01,0.01l0 0.07 -0.51 0 0 -0.05zm-0.05 -0.01l0 0.54c0,0.03 0.01,0.05 0.03,0.06 0.01,0 0.02,0.01 0.03,0.01l0.5 0c0.01,0 0.03,-0.02 0.04,-0.02 0.01,-0.02 0.02,-0.03 0.02,-0.05l0 -0.54c0,-0.03 -0.02,-0.05 -0.04,-0.06 0,-0.01 -0.01,-0.01 -0.02,-0.01l-0.5 0c-0.02,0 -0.03,0.01 -0.04,0.02 -0.01,0.01 -0.02,0.03 -0.02,0.05z"/>
 </g>
</svg>
