<?xml version="1.0" encoding="UTF-8"?>
<!DOCTYPE svg PUBLIC "-//W3C//DTD SVG 1.0//EN" "http://www.w3.org/TR/2001/REC-SVG-20010904/DTD/svg10.dtd">
<!-- Creator: CorelDRAW 2018 (64 Bit Versão de avaliação) -->
<svg xmlns="http://www.w3.org/2000/svg" xml:space="preserve" width="42px" height="41px" version="1.0" shape-rendering="geometricPrecision" text-rendering="geometricPrecision" image-rendering="optimizeQuality" fill-rule="evenodd" clip-rule="evenodd"
viewBox="0 0 6.07 5.87"
 xmlns:xlink="http://www.w3.org/1999/xlink">
 <g id="Camada_x0020_1">
  <metadata id="CorelCorpID_0Corel-Layer"/>
  <path fill="black" d="M0.54 5.23l0 -2.57c0,-0.09 0.06,-0.13 0.16,-0.13l0.76 0c0.04,0 0.09,0.01 0.12,0.03 0.04,0.02 0.05,0.05 0.05,0.11l0 2.56c0,0.07 -0.05,0.11 -0.13,0.11l-0.85 0c-0.06,0 -0.11,-0.06 -0.11,-0.11zm3.42 -5.23l0.07 0c0.13,0.01 0.26,0.05 0.33,0.08 0.05,0.02 0.11,0.04 0.15,0.07 0.12,0.07 0.21,0.18 0.27,0.3 0.14,0.28 0.11,0.54 0.06,0.83 -0.01,0.11 -0.05,0.2 -0.1,0.3l-0.06 0.14c-0.01,0.02 -0.02,0.04 -0.03,0.07 -0.05,0.09 -0.12,0.26 -0.16,0.33 0.06,0 0.1,-0.01 0.16,-0.01 0.05,0 0.1,0 0.15,0 0.05,0 0.1,-0.01 0.16,0 0.11,0.01 0.16,0 0.29,0.02 0.27,0.06 0.51,0.19 0.67,0.42 0.07,0.11 0.15,0.29 0.15,0.47 0,0.15 -0.08,0.52 -0.11,0.69l-0.12 0.65c-0.08,0.39 -0.14,0.88 -0.38,1.18 -0.17,0.21 -0.4,0.33 -0.69,0.33l-2.17 0c-0.12,0 -0.25,-0.03 -0.34,-0.07 -0.19,-0.07 -0.17,-0.09 -0.26,-0.15 -0.02,0.04 -0.06,0.06 -0.09,0.09 -0.11,0.08 -0.26,0.13 -0.41,0.13l-0.84 0c-0.11,0 -0.19,-0.02 -0.27,-0.06 -0.23,-0.09 -0.39,-0.35 -0.39,-0.6l0 -2.54c0,-0.14 0.05,-0.32 0.14,-0.42l0.03 -0.04c0.09,-0.1 0.28,-0.2 0.42,-0.2l0.97 0c0.13,0 0.26,0.07 0.34,0.12 0.1,0.07 0.15,0.14 0.2,0.25 0.06,-0.04 0.33,-0.33 0.4,-0.41 0.02,-0.03 0.03,-0.04 0.06,-0.07l0.18 -0.21c0.04,-0.05 0.08,-0.1 0.12,-0.15 0.16,-0.21 0.5,-0.68 0.64,-0.94 0.03,-0.06 0.06,-0.11 0.09,-0.17 0.06,-0.11 0.12,-0.26 0.18,-0.34 0.05,-0.06 0.11,-0.08 0.19,-0.09zm-0.23 2.38c0,0.12 0.06,0.21 0.17,0.24 0.11,0.04 0.24,0.02 0.39,0.02l0.69 0c0.17,0 0.26,0.03 0.37,0.09 0.09,0.05 0.18,0.14 0.18,0.27 0,0.19 -0.02,0.22 -0.05,0.39l-0.12 0.64c-0.05,0.26 -0.13,0.74 -0.2,0.95 -0.01,0.05 -0.03,0.08 -0.05,0.13 -0.06,0.13 -0.18,0.23 -0.34,0.23l-2.18 0c-0.18,0 -0.34,-0.15 -0.39,-0.29 -0.06,-0.18 -0.04,-0.42 -0.04,-0.64 0,-0.46 0,-0.92 0,-1.38 0.13,-0.08 0.56,-0.52 0.64,-0.61 0.01,-0.01 0.02,-0.02 0.03,-0.03l0.42 -0.49c0.1,-0.13 0.27,-0.35 0.36,-0.48 0.15,-0.23 0.29,-0.44 0.42,-0.68 0.02,-0.04 0.09,-0.15 0.1,-0.19 0.03,0.01 0.07,0.03 0.1,0.04 0.16,0.12 0.13,0.43 0.09,0.6 -0.04,0.15 -0.07,0.24 -0.13,0.38 -0.01,0.03 -0.03,0.05 -0.04,0.08l-0.09 0.17 -0.25 0.38c-0.04,0.04 -0.08,0.11 -0.08,0.18z"/>
 </g>
</svg>
