<?xml version="1.0" encoding="UTF-8"?>
<!DOCTYPE svg PUBLIC "-//W3C//DTD SVG 1.0//EN" "http://www.w3.org/TR/2001/REC-SVG-20010904/DTD/svg10.dtd">
<!-- Creator: CorelDRAW 2018 (64 Bit Versão de avaliação) -->
<svg xmlns="http://www.w3.org/2000/svg" xml:space="preserve" width="41px" height="41px" version="1.0" shape-rendering="geometricPrecision" text-rendering="geometricPrecision" image-rendering="optimizeQuality" fill-rule="evenodd" clip-rule="evenodd"
viewBox="0 0 0.75 0.75"
 xmlns:xlink="http://www.w3.org/1999/xlink">
 <g id="Camada_x0020_1">
  <metadata id="CorelCorpID_0Corel-Layer"/>
  <g id="_2751258506816">
   <path fill="#292929" d="M0.17 0.38c0.01,-0.02 -0.01,-0.03 -0.02,-0.04 -0.02,0 -0.04,0.01 -0.04,0.02l-0.04 0.03c0,0.01 -0.01,0.01 -0.01,0.02 -0.01,0.01 -0.01,0.01 -0.02,0.02 -0.01,0.02 -0.03,0.05 -0.04,0.09 -0.01,0.05 0.01,0.11 0.04,0.15 0.01,0.02 0.02,0.03 0.03,0.03 0.01,0.01 0.03,0.02 0.04,0.03 0.06,0.03 0.14,0.03 0.2,-0.01 0.02,-0.01 0.02,-0.02 0.04,-0.03l0.03 -0.03c0,-0.01 0,-0.01 0.01,-0.01 0.03,-0.03 0.03,-0.06 0,-0.07 -0.01,0 -0.02,0 -0.03,0 -0.01,0.01 -0.04,0.04 -0.05,0.05 0,0.01 -0.01,0.01 -0.02,0.02 -0.06,0.05 -0.15,0.05 -0.2,-0.02 -0.02,-0.03 -0.03,-0.06 -0.02,-0.1 0,-0.04 0.02,-0.06 0.04,-0.08 0.01,-0.01 0.02,-0.02 0.04,-0.03 0,-0.01 0.02,-0.02 0.02,-0.04z"/>
   <path fill="#292929" d="M0.55 0.06c0.02,0 0.04,0.01 0.05,0.01 0.09,0.04 0.12,0.14 0.06,0.21 -0.01,0.01 -0.01,0.02 -0.02,0.02 0,0 -0.01,0.01 -0.01,0.02 -0.01,0.01 -0.05,0.03 -0.05,0.05 -0.01,0.03 0.02,0.05 0.05,0.04 0.01,-0.01 0.02,-0.03 0.03,-0.04 0.04,-0.03 0.03,-0.02 0.06,-0.06 0.01,-0.02 0.02,-0.03 0.02,-0.05 0.02,-0.03 0.02,-0.07 0.01,-0.11 -0.02,-0.05 -0.03,-0.07 -0.06,-0.09 -0.01,-0.02 -0.05,-0.04 -0.07,-0.05 -0.06,-0.02 -0.15,-0.01 -0.2,0.04 -0.01,0.01 -0.02,0.02 -0.03,0.03 -0.01,0.01 -0.02,0.02 -0.03,0.03 -0.01,0.01 -0.02,0.03 -0.01,0.05 0,0 0.01,0.01 0.01,0.01 0.03,0.01 0.05,-0.01 0.06,-0.03 0.04,-0.04 0.07,-0.07 0.13,-0.08z"/>
   <path fill="#292929" d="M0.49 0.22c-0.02,0.01 -0.03,0.03 -0.04,0.04l-0.12 0.11c-0.02,0.03 -0.05,0.05 -0.08,0.08 0,0.01 -0.03,0.03 -0.03,0.05 0.01,0.01 0.03,0.03 0.05,0.03 0.01,-0.01 0.06,-0.06 0.08,-0.08 0.05,-0.05 0.11,-0.11 0.17,-0.17 0,0 0.01,-0.01 0.01,-0.02 0,-0.02 -0.02,-0.04 -0.04,-0.04z"/>
  </g>
 </g>
</svg>
