<?xml version="1.0" encoding="UTF-8"?>
<!DOCTYPE svg PUBLIC "-//W3C//DTD SVG 1.0//EN" "http://www.w3.org/TR/2001/REC-SVG-20010904/DTD/svg10.dtd">
<!-- Creator: CorelDRAW 2018 (64 Bit Versão de avaliação) -->
<svg xmlns="http://www.w3.org/2000/svg" xml:space="preserve" width="41px" height="41px" version="1.0" shape-rendering="geometricPrecision" text-rendering="geometricPrecision" image-rendering="optimizeQuality" fill-rule="evenodd" clip-rule="evenodd"
viewBox="0 0 2.48 2.45"
 xmlns:xlink="http://www.w3.org/1999/xlink">
 <g id="Camada_x0020_1">
  <metadata id="CorelCorpID_0Corel-Layer"/>
  <path fill="#292929" d="M2.25 0.45c-0.02,0.05 -0.07,0.04 -0.13,0.04 -0.04,0 -0.37,0 -0.74,0l-0.01 0 -0.01 0 0 0 -1.01 0c-0.06,0 -0.1,0.01 -0.12,-0.04 0,-0.03 0,-0.15 0,-0.18 0.01,-0.02 0.02,-0.03 0.04,-0.04 0.02,0 0.61,0 1.05,0l0 0 0.04 0 0 0 0.02 0 0 0 0.04 0 0 0c0.4,0 0.77,0 0.79,0 0.02,0.01 0.03,0.02 0.04,0.04 0,0.03 0,0.15 0,0.18zm0 1.73c-0.02,0.06 -0.07,0.05 -0.13,0.05 -0.04,0 -0.37,0 -0.74,0l-0.01 0 -0.01 0 0 0 -1.01 0c-0.06,0 -0.1,0.01 -0.12,-0.05 0,-0.02 0,-0.14 0,-0.17 0.01,-0.02 0.02,-0.04 0.04,-0.04 0.02,-0.01 0.61,-0.01 1.05,-0.01l0 0 0.04 0 0 0 0.02 0 0 0 0.04 0 0 0c0.4,0 0.77,0 0.79,0.01 0.02,0 0.03,0.02 0.04,0.04 0,0.03 0,0.15 0,0.17zm-0.89 0.27l0 0 0.02 0 0 0c0.39,0 0.75,0 0.83,0 0.09,0 0.14,-0.04 0.19,-0.09 0.05,-0.05 0.08,-0.11 0.08,-0.21 0,-0.13 0,-0.04 -0.01,-0.16 0,-0.14 -0.14,-0.25 -0.3,-0.25 -0.03,0 -0.37,0 -0.75,0l0 0 -0.02 0 0 0 -0.02 0 0 0 -0.02 0 0 0 -0.02 0 0 0 -0.02 0c-0.42,0 -0.98,0 -1.02,0 -0.16,0 -0.29,0.11 -0.3,0.25 0,0.12 0,0.03 0,0.16 0,0.1 0.03,0.16 0.08,0.21 0.05,0.05 0.1,0.09 0.18,0.09 0.09,0 0.69,0 1.1,0zm0.89 -1.13c-0.02,0.05 -0.07,0.04 -0.13,0.04 -0.04,0 -0.37,0 -0.74,0l-0.01 0 -0.01 0 0 0 -1.01 0c-0.06,0 -0.1,0.01 -0.12,-0.04 0,-0.03 0,-0.15 0,-0.18 0.01,-0.02 0.02,-0.03 0.04,-0.04 0.02,0 0.61,0 1.05,0l0 0 0.04 0 0 0 0.02 0 0 0 0.04 0 0 0c0.4,0 0.77,0 0.79,0 0.02,0.01 0.03,0.02 0.04,0.04 0,0.03 0,0.15 0,0.18zm-0.89 0.27l0 0 0.02 0 0 0c0.39,0 0.75,0 0.83,-0.01 0.09,0 0.14,-0.04 0.19,-0.09 0.05,-0.05 0.08,-0.11 0.08,-0.2 0,-0.14 0,-0.05 -0.01,-0.16 0,-0.15 -0.14,-0.26 -0.3,-0.26 -0.03,0 -0.37,0 -0.75,0l0 0 -0.02 0 0 0 -0.02 0 0 0 -0.02 0 0 0 -0.02 0 0 0 -0.02 0c-0.42,0 -0.98,0 -1.02,0 -0.16,0 -0.29,0.11 -0.3,0.26 0,0.11 0,0.02 0,0.16 0,0.09 0.03,0.15 0.08,0.2 0.05,0.05 0.1,0.09 0.18,0.09 0.09,0.01 0.69,0.01 1.1,0.01zm0 -0.87l0 0 0.02 0 0 0c0.39,0 0.75,0 0.83,-0.01 0.09,0 0.14,-0.04 0.19,-0.09 0.05,-0.05 0.08,-0.11 0.08,-0.2 0,-0.14 0,-0.05 -0.01,-0.16 0,-0.15 -0.14,-0.25 -0.3,-0.26 -0.03,0 -0.37,0 -0.75,0l0 0 -0.02 0 0 0 -0.02 0 0 0 -0.02 0 0 0 -0.02 0 0 0 -0.02 0c-0.42,0 -0.98,0 -1.02,0 -0.16,0.01 -0.29,0.11 -0.3,0.26 0,0.11 0,0.02 0,0.16 0,0.09 0.03,0.15 0.08,0.2 0.05,0.05 0.1,0.09 0.18,0.09 0.09,0.01 0.69,0.01 1.1,0.01z"/>
 </g>
</svg>
