<?xml version="1.0" encoding="UTF-8"?>
<!DOCTYPE svg PUBLIC "-//W3C//DTD SVG 1.0//EN" "http://www.w3.org/TR/2001/REC-SVG-20010904/DTD/svg10.dtd">
<!-- Creator: CorelDRAW 2018 (64 Bit Versão de avaliação) -->
<svg xmlns="http://www.w3.org/2000/svg" xml:space="preserve" width="35px" height="41px" version="1.0" shape-rendering="geometricPrecision" text-rendering="geometricPrecision" image-rendering="optimizeQuality" fill-rule="evenodd" clip-rule="evenodd"
viewBox="0 0 1.83 2.13"
 xmlns:xlink="http://www.w3.org/1999/xlink">
 <g id="Camada_x0020_1">
  <metadata id="CorelCorpID_0Corel-Layer"/>
  <g id="_2787407295152">
   <g>
    <path fill="#292929" d="M0.2 1.73l0 -1.33c0,-0.06 0.02,-0.11 0.05,-0.14 0.02,-0.02 0.04,-0.03 0.06,-0.04 0.03,-0.01 0.06,-0.02 0.09,-0.02l1.03 0c0.06,0 0.12,0.02 0.15,0.05 0.04,0.04 0.06,0.09 0.06,0.15l0 1.34c0,0.07 -0.05,0.15 -0.12,0.18 -0.02,0.01 -0.05,0.02 -0.08,0.02l-1.04 0c-0.11,0 -0.2,-0.09 -0.2,-0.21zm-0.2 -1.37l0 1.41c0,0.09 0.05,0.19 0.11,0.25l0.03 0.02c0.06,0.05 0.14,0.09 0.22,0.09l1.11 0c0.05,0 0.11,-0.02 0.15,-0.04 0.06,-0.03 0.1,-0.07 0.14,-0.12 0.04,-0.05 0.07,-0.13 0.07,-0.2l0 -1.41c0,-0.07 -0.03,-0.14 -0.07,-0.2 -0.01,0 -0.01,-0.01 -0.02,-0.02 0,-0.01 -0.01,-0.01 -0.01,-0.01 0,-0.01 -0.01,-0.01 -0.01,-0.02 -0.03,-0.02 -0.07,-0.06 -0.1,-0.07 -0.04,-0.02 -0.1,-0.04 -0.15,-0.04l-1.11 0c-0.08,0 -0.19,0.06 -0.25,0.11 -0.05,0.06 -0.11,0.17 -0.11,0.25z"/>
    <path fill="#292929" d="M0.68 1.06c0,0.05 0.03,0.09 0.09,0.09l0.59 0c0.02,0 0.05,0 0.06,-0.02 0.03,-0.02 0.03,-0.05 0.03,-0.08 0,-0.03 -0.04,-0.07 -0.09,-0.07l-0.59 0c-0.05,0 -0.09,0.04 -0.09,0.08z"/>
    <path fill="#292929" d="M0.68 1.43c0,0.03 0.01,0.05 0.02,0.06 0.01,0.02 0.03,0.03 0.05,0.03l0.63 0c0.04,0 0.07,-0.04 0.07,-0.08 0,-0.03 0,-0.04 -0.03,-0.06 -0.01,-0.02 -0.03,-0.03 -0.05,-0.03l-0.61 0c-0.02,0 -0.04,0.01 -0.05,0.03 -0.01,0.01 -0.03,0.03 -0.03,0.05z"/>
    <path fill="#292929" d="M0.68 0.68c0,0.03 0.01,0.05 0.02,0.07 0.01,0.02 0.03,0.03 0.06,0.03l0.61 0c0.02,0 0.04,-0.01 0.06,-0.02 0.02,-0.03 0.02,-0.05 0.02,-0.08 0,-0.03 -0.04,-0.07 -0.07,-0.07l-0.63 0c-0.02,0 -0.03,0.01 -0.04,0.02 -0.01,0.01 -0.02,0.02 -0.02,0.02 0,0.01 -0.01,0.02 -0.01,0.03z"/>
    <path fill="#292929" d="M0.38 1.43c0,0.03 0.01,0.05 0.03,0.07 0.05,0.05 0.15,0.02 0.15,-0.05 0,-0.04 0,-0.05 -0.03,-0.07 -0.05,-0.05 -0.15,-0.02 -0.15,0.05z"/>
    <path fill="#292929" d="M0.38 0.68c0,0.04 0,0.05 0.03,0.08 0.01,0.01 0.01,0.01 0.02,0.01 0.07,0.03 0.13,-0.01 0.13,-0.07l0 -0.01c0,-0.04 -0.04,-0.08 -0.08,-0.08 -0.03,0 -0.05,0 -0.07,0.02 -0.01,0.01 -0.03,0.03 -0.03,0.05z"/>
    <path fill="#292929" d="M0.38 1.06c0,0.04 0.01,0.07 0.06,0.09 0,0 0.02,0 0.03,0 0.05,0 0.09,-0.03 0.09,-0.08 0,-0.03 0,-0.05 -0.03,-0.07 -0.01,-0.01 -0.03,-0.02 -0.06,-0.02 -0.03,-0.01 -0.09,0.03 -0.09,0.08z"/>
   </g>
  </g>
 </g>
</svg>
