<?xml version="1.0" encoding="UTF-8"?>
<!DOCTYPE svg PUBLIC "-//W3C//DTD SVG 1.0//EN" "http://www.w3.org/TR/2001/REC-SVG-20010904/DTD/svg10.dtd">
<!-- Creator: CorelDRAW 2018 (64 Bit Versão de avaliação) -->
<svg xmlns="http://www.w3.org/2000/svg" xml:space="preserve" width="46px" height="41px" version="1.0" shape-rendering="geometricPrecision" text-rendering="geometricPrecision" image-rendering="optimizeQuality" fill-rule="evenodd" clip-rule="evenodd"
viewBox="0 0 2.42 2.17"
 xmlns:xlink="http://www.w3.org/1999/xlink">
 <g id="Camada_x0020_1">
  <metadata id="CorelCorpID_0Corel-Layer"/>
  <g id="_2113189447968">
   <g>
    <path fill="#292929" d="M0.69 1.9l0 -0.16 1.04 0 0 0.25 -1.05 0c0,-0.04 0.01,-0.05 0.01,-0.09zm1.24 0.05l0 -0.61c0,-0.02 0.01,-0.03 0.02,-0.03l0.25 0c0.02,0 0.02,0.01 0.02,0.03l0 0.61c0,0.06 -0.15,0.04 -0.24,0.04 -0.03,0 -0.05,-0.01 -0.05,-0.04zm-1.73 0c0,-0.11 -0.02,-0.56 0,-0.64 0.31,0 0.29,-0.02 0.29,0.07l0 0.6c-0.07,0.02 -0.17,0.01 -0.25,0.01 -0.02,0 -0.04,-0.01 -0.04,-0.04zm0.31 -0.92l1.4 0c0.04,0 0.03,0.04 0.03,0.09 -0.24,0.05 -0.21,0.2 -0.21,0.44l-1.04 0c0,-0.25 0.02,-0.39 -0.21,-0.44 0,-0.04 -0.01,-0.09 0.03,-0.09zm1.5 -0.72l0.13 0 0.06 0.24 -0.25 0c0.01,-0.02 0.06,-0.21 0.06,-0.24zm-0.28 0.33c0,0.13 0.15,0.11 0.26,0.11l0 0.09c-0.04,0 -0.04,-0.01 -0.08,-0.01l-1.4 0c-0.12,0 -0.22,0.11 -0.22,0.25l0 0.04 -0.06 0c-0.14,0 -0.23,0.1 -0.23,0.24l0 0.57c0,0.14 0.1,0.24 0.2,0.24l2.02 0c0.1,0 0.2,-0.1 0.2,-0.2l0 -0.65c0,-0.05 -0.04,-0.12 -0.07,-0.15 -0.04,-0.03 -0.1,-0.05 -0.18,-0.05l0 -0.37c0.25,0 0.28,0 0.22,-0.25 -0.02,-0.07 -0.06,-0.27 -0.08,-0.32 -0.04,-0.1 -0.19,-0.07 -0.36,-0.07 -0.12,0 -0.12,0.13 -0.14,0.23l-0.08 0.3z"/>
    <path fill="#292929" d="M0.29 0.19l0.97 0 0 0.27 -0.97 0 0 -0.27zm-0.2 -0.08l0 0.44c0,0.08 0.05,0.11 0.13,0.11l1.12 0c0.08,0 0.12,-0.05 0.12,-0.11 0,-0.1 0.01,-0.44 -0.02,-0.5 -0.01,-0.03 -0.03,-0.05 -0.06,-0.05l-1.21 0c-0.05,0 -0.08,0.05 -0.08,0.11z"/>
   </g>
  </g>
 </g>
</svg>
