<?xml version="1.0" encoding="UTF-8"?>
<!DOCTYPE svg PUBLIC "-//W3C//DTD SVG 1.0//EN" "http://www.w3.org/TR/2001/REC-SVG-20010904/DTD/svg10.dtd">
<!-- Creator: CorelDRAW 2018 (64 Bit Versão de avaliação) -->
<svg xmlns="http://www.w3.org/2000/svg" xml:space="preserve" width="33px" height="41px" version="1.0" shape-rendering="geometricPrecision" text-rendering="geometricPrecision" image-rendering="optimizeQuality" fill-rule="evenodd" clip-rule="evenodd"
viewBox="0 0 0.65 0.82"
 xmlns:xlink="http://www.w3.org/1999/xlink">
 <g id="Camada_x0020_1">
  <metadata id="CorelCorpID_0Corel-Layer"/>
  <path fill="black" d="M0.08 0.33c0,-0.04 0,-0.07 0.02,-0.1 0,-0.02 0.01,-0.03 0.02,-0.04 0,-0.01 0.01,-0.03 0.02,-0.03 0.01,-0.01 0.02,-0.02 0.03,-0.03 0.01,-0.01 0.01,-0.01 0.03,-0.02 0.02,-0.01 0.04,-0.02 0.06,-0.03 0.02,0 0.04,0 0.06,0 0.01,0 0.02,0 0.03,0 0.02,0 0.06,0.01 0.07,0.02 0.01,0 0.02,0 0.02,0.01 0.03,0.01 0.02,0.01 0.04,0.03 0.04,0.03 0.05,0.04 0.07,0.08 0.02,0.05 0.03,0.12 0.01,0.17 -0.01,0.06 -0.05,0.09 -0.09,0.14 -0.01,0.01 -0.02,0.02 -0.03,0.03l-0.08 0.08c-0.01,0.01 -0.03,0.03 -0.04,0.04 0,-0.01 -0.01,-0.02 -0.02,-0.02l-0.01 -0.02c-0.02,-0.01 -0.03,-0.03 -0.04,-0.04l-0.02 -0.02c-0.02,-0.02 -0.05,-0.05 -0.07,-0.07l-0.02 -0.02c-0.01,-0.01 -0.02,-0.03 -0.03,-0.04 -0.02,-0.03 -0.03,-0.06 -0.03,-0.09 0,-0.01 0,-0.02 0,-0.03zm0.15 -0.01c0,-0.01 0,-0.02 0,-0.04 0.01,-0.01 0.01,-0.02 0.02,-0.03 0.01,0 0.02,-0.01 0.03,-0.02 0.03,-0.01 0.07,-0.01 0.1,0.01 0,0 0,0 0.01,0.01 0.02,0.02 0.03,0.04 0.03,0.08 0,0.05 -0.07,0.11 -0.14,0.08 -0.03,-0.01 -0.05,-0.05 -0.05,-0.09zm-0.08 0c0,0.03 0.01,0.08 0.03,0.1 0,0 0.02,0.02 0.02,0.02l0.01 0.01c0,0.01 0.01,0.01 0.01,0.01 0,0 0,0 0,0 0.01,0.01 0.01,0.01 0.02,0.01 0.02,0.01 0.05,0.03 0.08,0.02 0.01,0 0.02,0 0.02,0 0.01,0 0.02,0 0.02,0 0.01,0 0.02,-0.01 0.03,-0.01 0.02,-0.01 0.03,-0.01 0.05,-0.03 0,0 0,0 0.01,0 0,-0.01 0.01,-0.02 0.02,-0.03 0,-0.01 0.01,-0.01 0.01,-0.02 0.02,-0.05 0.02,-0.11 0,-0.15 0,-0.01 0,-0.01 -0.01,-0.02l-0.01 -0.01c-0.01,-0.02 -0.02,-0.03 -0.04,-0.04 -0.02,-0.02 -0.06,-0.03 -0.1,-0.03 -0.01,0 -0.02,0 -0.03,0 -0.07,0.02 -0.13,0.08 -0.14,0.15 0,0.01 0,0.02 0,0.02zm-0.15 -0.01c0,0.07 0,0.09 0.03,0.14 0,0.03 0.01,0.04 0.02,0.05 0.04,0.05 0.05,0.06 0.09,0.1 0.03,0.03 0.06,0.06 0.1,0.1 0.01,0.01 0.02,0.02 0.03,0.03 0.01,0.01 0.01,0.01 0.01,0.02 0,0.01 0,0.01 0,0.02 0.01,0.02 0.01,0.04 0.04,0.05 0.01,0 0.02,-0.01 0.03,-0.02 0.01,-0.01 0.01,-0.02 0.01,-0.04 0.01,-0.03 0.02,-0.04 0.04,-0.06 0.04,-0.03 0.07,-0.06 0.1,-0.1 0.02,-0.01 0.05,-0.04 0.06,-0.06l0.02 -0.01c0.01,-0.02 0.03,-0.05 0.04,-0.06 0,-0.01 0,-0.02 0,-0.02 0.02,-0.05 0.03,-0.07 0.03,-0.13 0,-0.05 -0.01,-0.08 -0.03,-0.13 -0.01,-0.02 -0.03,-0.05 -0.04,-0.07l-0.04 -0.04c-0.04,-0.03 -0.08,-0.06 -0.13,-0.07 -0.04,-0.01 -0.05,-0.01 -0.09,-0.01l0 0c-0.07,0 -0.13,0.02 -0.18,0.06l-0.04 0.03 -0.03 0.03c-0.02,0.02 -0.02,0.03 -0.04,0.06 -0.02,0.04 -0.03,0.08 -0.03,0.13z"/>
 </g>
</svg>
