<?xml version="1.0" encoding="UTF-8"?>
<!DOCTYPE svg PUBLIC "-//W3C//DTD SVG 1.0//EN" "http://www.w3.org/TR/2001/REC-SVG-20010904/DTD/svg10.dtd">
<!-- Creator: CorelDRAW 2018 (64 Bit Versão de avaliação) -->
<svg xmlns="http://www.w3.org/2000/svg" xml:space="preserve" width="30px" height="41px" version="1.0" shape-rendering="geometricPrecision" text-rendering="geometricPrecision" image-rendering="optimizeQuality" fill-rule="evenodd" clip-rule="evenodd"
viewBox="0 0 0.84 1.16"
 xmlns:xlink="http://www.w3.org/1999/xlink">
 <g id="Camada_x0020_1">
  <metadata id="CorelCorpID_0Corel-Layer"/>
  <g id="_2751258511808">
   <path fill="#292929" d="M0.74 0.76c0,0.08 -0.04,0.15 -0.08,0.2 -0.03,0.03 -0.08,0.06 -0.12,0.08 -0.11,0.04 -0.24,0.02 -0.32,-0.05 -0.08,-0.06 -0.13,-0.15 -0.12,-0.27 0.01,-0.1 0.06,-0.18 0.1,-0.22 0.06,-0.05 0.14,-0.09 0.24,-0.08 0.07,0 0.13,0.03 0.18,0.07 0.09,0.07 0.13,0.16 0.12,0.27zm-0.48 -0.41c0,-0.07 -0.01,-0.13 0.03,-0.18 0.06,-0.09 0.2,-0.09 0.26,0 0.04,0.05 0.03,0.11 0.03,0.18 -0.03,0 -0.06,-0.03 -0.16,-0.03 -0.03,0 -0.06,0 -0.09,0.01 -0.02,0 -0.05,0.02 -0.07,0.02zm0.42 0.02c0,-0.04 0,-0.09 0,-0.13 0,-0.03 -0.01,-0.06 -0.03,-0.09 -0.02,-0.06 -0.06,-0.1 -0.12,-0.13 -0.12,-0.05 -0.28,0 -0.34,0.12 -0.06,0.11 -0.02,0.25 -0.04,0.28 -0.01,0.01 -0.03,0.01 -0.09,0.1 -0.02,0.04 -0.06,0.12 -0.06,0.18 -0.01,0.12 0.02,0.21 0.08,0.29 0.02,0.03 0.06,0.06 0.08,0.08 0.04,0.03 0.09,0.06 0.15,0.07 0.2,0.06 0.4,-0.04 0.49,-0.22 0.04,-0.08 0.04,-0.12 0.04,-0.21 0,-0.07 -0.03,-0.14 -0.06,-0.19 -0.07,-0.12 -0.1,-0.08 -0.1,-0.15z"/>
   <path fill="#292929" d="M0.47 0.77c0.06,-0.02 0.08,-0.13 0,-0.17 -0.08,-0.04 -0.17,0.02 -0.15,0.1 0,0.03 0.02,0.05 0.03,0.06 0.02,0.02 0.02,0.01 0.02,0.02l0 0.01c0,0.04 -0.01,0.11 0.01,0.14 0.02,0.03 0.09,0.04 0.09,-0.06 0,-0.03 0,-0.06 0,-0.1z"/>
  </g>
 </g>
</svg>
