<?xml version="1.0" encoding="UTF-8"?>
<!DOCTYPE svg PUBLIC "-//W3C//DTD SVG 1.0//EN" "http://www.w3.org/TR/2001/REC-SVG-20010904/DTD/svg10.dtd">
<!-- Creator: CorelDRAW 2018 (64 Bit Versão de avaliação) -->
<svg xmlns="http://www.w3.org/2000/svg" xml:space="preserve" width="59px" height="41px" version="1.0" shape-rendering="geometricPrecision" text-rendering="geometricPrecision" image-rendering="optimizeQuality" fill-rule="evenodd" clip-rule="evenodd"
viewBox="0 0 7.44 5.17"
 xmlns:xlink="http://www.w3.org/1999/xlink">
 <g id="Camada_x0020_1">
  <metadata id="CorelCorpID_0Corel-Layer"/>
  <g id="_2751289351280">
   <g>
    <path fill="black" d="M2.41 3.76c0.27,0 0.47,0.2 0.47,0.48 0,0.36 -0.48,0.62 -0.79,0.31 -0.31,-0.31 -0.07,-0.79 0.32,-0.79zm3.21 0.93c-0.24,0 -0.46,-0.2 -0.46,-0.42 0,-0.16 0.01,-0.26 0.14,-0.38 0.28,-0.28 0.78,-0.07 0.78,0.34 0,0.24 -0.21,0.46 -0.46,0.46zm-0.58 -3.75l0.86 0 0.45 0.93 -1.31 0 0 -0.93zm-4.14 -0.46l3.66 0 0 1.6c0,0.13 0.05,0.2 0.13,0.24 0.14,0.09 1.79,-0.02 1.93,0.04 0.01,0 0.34,0.4 0.34,0.44l0 1.19 -0.44 0c0,-0.21 -0.29,-0.53 -0.55,-0.64 -0.58,-0.22 -1.15,0.14 -1.26,0.64l-1.38 0c-0.18,-0.76 -1.24,-0.98 -1.7,-0.28 -0.04,0.05 -0.12,0.2 -0.12,0.28l-0.61 0c-0.23,0 -0.32,0.29 -0.14,0.44 0.08,0.06 0.2,0.04 0.34,0.04 0.14,0 0.27,0 0.41,0 0.01,0.13 0.13,0.3 0.21,0.39 0.04,0.05 0.06,0.06 0.11,0.1 0.35,0.28 0.83,0.28 1.18,-0.01 0.12,-0.09 0.2,-0.2 0.26,-0.34 0.03,-0.05 0.03,-0.14 0.08,-0.14l1.33 0c0.05,0 0.05,0.08 0.07,0.13 0.41,0.87 1.59,0.66 1.77,-0.13 0.17,0 0.69,0.03 0.81,-0.04 0.06,-0.04 0.11,-0.1 0.11,-0.19l0 -1.55c0,-0.09 -0.13,-0.23 -0.17,-0.28 -0.08,-0.09 -0.13,-0.18 -0.21,-0.27 -0.03,-0.04 -0.07,-0.08 -0.1,-0.13l-0.55 -1.08c-0.15,-0.31 -0.17,-0.47 -0.46,-0.47l-0.91 0c0,-0.15 0.03,-0.31 -0.08,-0.4 -0.04,-0.03 -0.1,-0.06 -0.17,-0.06l-3.88 0c-0.33,0 -0.32,0.48 -0.01,0.48z"/>
    <path fill="black" d="M0.38 1.19c0,0.14 0.09,0.25 0.23,0.25l2.03 0c0.11,0 0.24,-0.12 0.21,-0.28 -0.03,-0.15 -0.14,-0.2 -0.31,-0.2l-1.87 0c-0.15,0 -0.29,0.09 -0.29,0.23z"/>
    <path fill="black" d="M0 2.09c0,0.17 0.08,0.28 0.28,0.28l1.91 0c0.38,0 0.35,-0.48 0.05,-0.48l-2.01 0c-0.11,0 -0.23,0.09 -0.23,0.2z"/>
    <path fill="black" d="M0.38 3.04c0,0.13 0.1,0.24 0.23,0.24l1.09 0c0.3,0 0.33,-0.48 -0.04,-0.48l-0.98 0c-0.17,0 -0.3,0.09 -0.3,0.24z"/>
   </g>
  </g>
 </g>
</svg>
