<?xml version="1.0" encoding="UTF-8"?>
<!DOCTYPE svg PUBLIC "-//W3C//DTD SVG 1.0//EN" "http://www.w3.org/TR/2001/REC-SVG-20010904/DTD/svg10.dtd">
<!-- Creator: CorelDRAW 2018 (64 Bit Versão de avaliação) -->
<svg xmlns="http://www.w3.org/2000/svg" xml:space="preserve" width="41px" height="41px" version="1.0" shape-rendering="geometricPrecision" text-rendering="geometricPrecision" image-rendering="optimizeQuality" fill-rule="evenodd" clip-rule="evenodd"
viewBox="0 0 1.57 1.57"
 xmlns:xlink="http://www.w3.org/1999/xlink">
 <g id="Camada_x0020_1">
  <metadata id="CorelCorpID_0Corel-Layer"/>
  <path fill="black" d="M0.9 0.48l0.37 0 0 0 0 0.88 -0.37 0 0 -0.88zm-0.6 0.31l0.31 0 0 0.57 -0.32 0 0.01 -0.57zm1.09 -0.31c0,0 0.01,0 0.01,0 0.02,0 0.02,0 0.04,0 0.01,0.01 0.01,0 0.01,0.01l0 0.87c0,0 0,0 -0.01,0 -0.01,0 -0.04,0 -0.05,0l0 -0.88zm-0.67 0.01c0.01,-0.01 0.06,-0.01 0.07,-0.01l0 0.88c-0.02,0 -0.05,0.01 -0.06,0 0,0 -0.01,0 -0.01,0l0 -0.87c0,0 0,0 0,0zm-0.61 0.3c0,0 0,0 0.01,0 0.02,-0.01 0.04,0 0.06,0l0 0.57 -0.03 0c-0.01,0.01 -0.04,0.01 -0.04,0l0 -0.57zm0.34 -0.12c0,-0.02 0,-0.05 0,-0.07 0,-0.01 -0.01,-0.02 0,-0.03 0,0 0,0 0,0 0.01,0 0.01,0 0.01,0 0.01,0 0.13,0 0.15,0 0,0.01 0,0.08 0,0.1 -0.02,0 -0.16,0 -0.16,0zm0.73 -0.54l0 0.06c0,0.02 0,0.17 0,0.18 0,0 -0.15,0 -0.17,0 -0.01,0 -0.01,0 -0.02,0 0.01,-0.02 0,-0.04 0,-0.06l0 -0.17c0,-0.01 0,-0.01 0.01,-0.02 0,-0.01 0.02,-0.01 0.03,-0.01 0.01,0 0.13,0 0.14,0 0.01,0.01 0.01,0.01 0.01,0.02zm-1.18 0.64l0 0.61c0,0 0,0.01 0,0.02 0.01,0 0.01,0.01 0.01,0.01 0.01,0.01 0.02,0.03 0.03,0.04 0,0 0,0 0,0 0.02,0.02 0.03,0.02 0.05,0.02 0,0.03 0,0.05 0.01,0.07 0,0.01 0.01,0.02 0.03,0.03 0,0 0,0 0.01,0l0.02 0c0,0 0.01,0 0.02,-0.01 0.03,-0.02 0.02,-0.05 0.02,-0.08l0.5 0c0,0.02 0,0.04 0.01,0.06 0.01,0.02 0.03,0.03 0.04,0.03l0.01 0c0.01,-0.01 0.02,0 0.03,-0.01 0.01,-0.01 0.01,-0.01 0.02,-0.02 0,-0.01 0,-0.01 0,-0.03 0,-0.01 0,-0.02 0,-0.03l0.22 0c0,0.02 -0.01,0.05 0,0.06 0.02,0.03 0.04,0.03 0.04,0.03l0.02 0c0,0 0.04,-0.01 0.05,-0.04 0,-0.01 0,-0.04 0,-0.05l0.22 0c0,0.02 0,0.05 0.02,0.07 0.01,0.02 0.03,0.01 0.03,0.02l0.02 0c0,0 0.01,0 0.01,0 0,0 0,-0.01 0.01,-0.01 0,0 0,0 0.01,0 0,-0.01 0.01,-0.01 0.01,-0.02 0.01,-0.02 0.01,-0.04 0.01,-0.07 0.01,0 0.03,-0.01 0.04,-0.02 0.01,0 0.01,0 0.01,0 0.04,-0.04 0.03,-0.07 0.04,-0.07l0 -0.91c0,0 0,-0.01 -0.01,-0.01 0,-0.02 -0.02,-0.05 -0.03,-0.06 -0.04,-0.03 -0.08,-0.03 -0.08,-0.03l-0.15 0 0 -0.26c0,0 0,-0.01 -0.01,-0.01 0,-0.04 -0.04,-0.08 -0.08,-0.09 -0.01,-0.01 -0.01,-0.01 -0.01,-0.01 0,0 -0.01,0 -0.01,0l-0.2 0c0,0 -0.02,0 -0.05,0.02 -0.01,0.01 -0.02,0.02 -0.03,0.02l0 0.01c-0.02,0.02 -0.03,0.05 -0.03,0.08 0,0.01 0,0.23 0,0.24 -0.03,0 -0.06,0 -0.09,0 -0.02,0 -0.06,0 -0.08,0 -0.04,0.01 -0.08,0.03 -0.09,0.07l-0.01 0.01c0,0 0,0 0,0 0,0 -0.11,0 -0.12,0 -0.01,0 -0.01,0 -0.02,0 -0.01,0 -0.03,0 -0.04,0.01 -0.02,0 -0.04,0.01 -0.05,0.02 -0.01,0.01 -0.01,0.01 -0.02,0.02 -0.01,0.02 -0.02,0.03 -0.02,0.05 -0.01,0.04 -0.01,0.08 -0.01,0.12 0,0 -0.15,0 -0.16,0 -0.03,0 -0.07,0 -0.1,0.01 -0.01,0.01 -0.03,0.01 -0.04,0.03 0,0 0,0 0,0l-0.02 0.02c0,0.01 0,0.01 0,0.02 -0.01,0.01 -0.01,0.02 -0.01,0.02z"/>
 </g>
</svg>
