<?xml version="1.0" encoding="UTF-8"?>
<!DOCTYPE svg PUBLIC "-//W3C//DTD SVG 1.0//EN" "http://www.w3.org/TR/2001/REC-SVG-20010904/DTD/svg10.dtd">
<!-- Creator: CorelDRAW 2018 (64 Bit Versão de avaliação) -->
<svg xmlns="http://www.w3.org/2000/svg" xml:space="preserve" width="50px" height="41px" version="1.0" shape-rendering="geometricPrecision" text-rendering="geometricPrecision" image-rendering="optimizeQuality" fill-rule="evenodd" clip-rule="evenodd"
viewBox="0 0 2.9 2.36"
 xmlns:xlink="http://www.w3.org/1999/xlink">
 <g id="Camada_x0020_1">
  <metadata id="CorelCorpID_0Corel-Layer"/>
  <g id="_2751261727056">
   <path fill="#292929" d="M0.34 0.25c0.06,-0.01 0.15,0 0.22,0l1.55 0c0.14,0 0.29,-0.01 0.44,0 0.07,0 0.09,0.04 0.1,0.11 0.01,0.08 0.01,0.14 -0.04,0.18l-0.76 0.56c-0.06,0.05 -0.12,0.1 -0.19,0.14 -0.01,0.01 -0.02,0.02 -0.03,0.03 -0.01,0 -0.02,0.01 -0.03,0.02 -0.13,0.1 -0.16,0.11 -0.29,0.01l-0.25 -0.19c-0.04,-0.03 -0.09,-0.06 -0.13,-0.09 -0.04,-0.03 -0.08,-0.06 -0.13,-0.1 -0.08,-0.06 -0.16,-0.12 -0.25,-0.18 -0.08,-0.07 -0.16,-0.13 -0.25,-0.19 -0.06,-0.05 -0.06,-0.08 -0.05,-0.17 0,-0.07 0.02,-0.13 0.09,-0.13zm-0.34 0.37c0.01,0.03 0.06,0.05 0.08,0.07l0.16 0.12c0.08,0.06 0.16,0.12 0.24,0.18l0.2 0.15c0.03,0.02 0.06,0.03 0.09,0.06 0.01,0.01 0.02,0.02 0.04,0.03 0.09,0.07 0.41,0.32 0.49,0.36 0.22,0.12 0.4,-0.06 0.58,-0.2l0.97 -0.72c0.01,-0.01 0.03,-0.02 0.04,-0.03 0.02,-0.02 0.01,-0.03 0.01,-0.06 0,-0.05 0,-0.09 0,-0.14 0,-0.1 0.01,-0.16 -0.04,-0.25 -0.02,-0.05 -0.08,-0.11 -0.13,-0.14 -0.08,-0.05 -0.14,-0.05 -0.24,-0.05l-1.98 0c-0.08,0 -0.18,-0.01 -0.26,0.02 -0.14,0.04 -0.25,0.16 -0.25,0.32 0,0.04 0,0.26 0,0.28z"/>
   <path fill="#292929" d="M0 0.89c0,0.05 0,0.12 0,0.18l0 0.91c0,0.12 0.02,0.2 0.1,0.27 0.08,0.08 0.15,0.11 0.26,0.11l2.19 0c0.06,0 0.1,-0.01 0.15,-0.04 0.04,-0.02 0.08,-0.04 0.1,-0.07 0.03,-0.03 0.06,-0.07 0.07,-0.12 0.05,-0.12 0.03,-0.38 0.03,-0.52 0,-0.24 0,-0.48 0,-0.73 -0.04,0.02 -0.09,0.07 -0.12,0.09 -0.02,0.02 -0.04,0.03 -0.07,0.05 -0.02,0.02 -0.03,0.03 -0.06,0.03l0 0.85c0,0.09 0.01,0.19 -0.08,0.21 -0.06,0.01 -0.21,0 -0.28,0l-1.69 0c-0.07,0 -0.22,0.01 -0.28,0 -0.09,-0.03 -0.07,-0.12 -0.07,-0.21 0,-0.09 0,-0.19 0,-0.28 0,-0.19 0,-0.38 0,-0.56 -0.03,-0.01 -0.05,-0.03 -0.07,-0.05 -0.02,-0.02 -0.16,-0.11 -0.18,-0.12z"/>
  </g>
 </g>
</svg>
