<?xml version="1.0" encoding="UTF-8"?>
<!DOCTYPE svg PUBLIC "-//W3C//DTD SVG 1.0//EN" "http://www.w3.org/TR/2001/REC-SVG-20010904/DTD/svg10.dtd">
<!-- Creator: CorelDRAW 2018 (64 Bit Versão de avaliação) -->
<svg xmlns="http://www.w3.org/2000/svg" xml:space="preserve" width="41px" height="41px" version="1.0" shape-rendering="geometricPrecision" text-rendering="geometricPrecision" image-rendering="optimizeQuality" fill-rule="evenodd" clip-rule="evenodd"
viewBox="0 0 0.82 0.82"
 xmlns:xlink="http://www.w3.org/1999/xlink">
 <g id="Camada_x0020_1">
  <metadata id="CorelCorpID_0Corel-Layer"/>
  <path fill="#292929" d="M0.6 0.72c0,-0.02 -0.01,-0.04 -0.01,-0.07l0 -0.47c0,-0.01 0.03,-0.02 0.04,-0.02 0.02,-0.01 0.11,-0.06 0.12,-0.06l0 0.55 -0.15 0.07zm-0.04 0.1l-0.01 0c-0.01,0 -0.02,0 -0.03,-0.01l-0.1 -0.04c0,0 -0.01,0 -0.01,-0.01 -0.02,0 -0.11,-0.05 -0.11,-0.05l-0.2 0.09c-0.01,0.01 -0.04,0.02 -0.06,0.02 -0.02,0 -0.04,-0.01 -0.04,-0.03l0 -0.64c0,-0.03 0.05,-0.04 0.08,-0.06l0.06 -0.03c0.01,0 0.03,-0.01 0.04,-0.01 0.13,-0.06 0.1,-0.06 0.18,-0.02l0.19 0.08c0.01,0 0.01,0 0.03,-0.01 0.01,-0.01 0.02,-0.01 0.03,-0.02 0.02,0 0.03,-0.01 0.05,-0.02 0.02,-0.01 0.05,-0.02 0.06,-0.03 0.01,-0.01 0.05,-0.03 0.06,-0.03 0.03,0 0.04,0.02 0.04,0.03l0 0.65c0,0.02 -0.03,0.03 -0.05,0.04l-0.18 0.09c-0.01,0.01 -0.02,0.01 -0.03,0.01zm-0.48 -0.09l0 -0.55c0.01,0 0.03,-0.02 0.04,-0.02 0.02,-0.01 0.03,-0.01 0.05,-0.02l0.09 -0.04 0 0.55 -0.18 0.08zm0.26 -0.63c0,0 0,0 0.01,0l0.08 0.04c0.01,0.01 0.08,0.04 0.09,0.04l0 0.55 -0.14 -0.06c-0.01,-0.01 -0.01,-0.01 -0.02,-0.01 -0.01,-0.01 -0.02,-0.01 -0.02,-0.02l0 -0.54z"/>
 </g>
</svg>
