<?xml version="1.0" encoding="UTF-8"?>
<!DOCTYPE svg PUBLIC "-//W3C//DTD SVG 1.0//EN" "http://www.w3.org/TR/2001/REC-SVG-20010904/DTD/svg10.dtd">
<!-- Creator: CorelDRAW 2018 (64 Bit Versão de avaliação) -->
<svg xmlns="http://www.w3.org/2000/svg" xml:space="preserve" width="41px" height="41px" version="1.0" shape-rendering="geometricPrecision" text-rendering="geometricPrecision" image-rendering="optimizeQuality" fill-rule="evenodd" clip-rule="evenodd"
viewBox="0 0 3.44 3.44"
 xmlns:xlink="http://www.w3.org/1999/xlink">
 <g id="Camada_x0020_1">
  <metadata id="CorelCorpID_0Corel-Layer"/>
  <path fill="black" d="M2.25 2.69l0 -0.66 0.85 0c0.06,0 0.1,0.03 0.1,0.09l0 0.58c0,0.07 -0.05,0.09 -0.12,0.09l-0.71 0c-0.08,0 -0.12,-0.02 -0.12,-0.1zm0.68 0.75l-0.01 0c-0.06,0 -0.12,-0.04 -0.12,-0.1l0 -0.31 -0.48 0c-0.08,0 -0.14,-0.03 -0.18,-0.06 -0.04,-0.03 -0.11,-0.09 -0.11,-0.14l-1.39 0 0 0.51c0,0.07 -0.06,0.1 -0.13,0.1 -0.06,0 -0.11,-0.05 -0.11,-0.11l0 -0.5c-0.12,0 -0.21,0.01 -0.31,-0.09 -0.08,-0.09 -0.09,-0.15 -0.09,-0.26 0,-0.09 0.06,-0.16 0.11,-0.22 0.03,-0.02 0.09,-0.06 0.13,-0.06 0,-0.02 -0.02,-0.05 -0.03,-0.1 -0.02,-0.06 -0.01,-0.13 0,-0.19 0.04,-0.21 0.3,-0.38 0.54,-0.3 0.04,0.02 0.07,0.03 0.1,0.05 0.05,0.03 0.12,0.1 0.14,0.16 0.01,-0.01 0.03,-0.02 0.05,-0.02 0.06,-0.02 0.1,-0.01 0.17,-0.01 0,-0.02 0,-0.04 0,-0.06 0,-0.15 0.05,-0.23 0.17,-0.3 0.03,-0.02 0.06,-0.03 0.09,-0.05l0.21 -0.1c0.02,-0.01 0.03,-0.02 0.04,-0.04 0.07,-0.1 0.15,-0.22 0.21,-0.32 0.07,-0.1 0.07,-0.08 0.01,-0.09 -0.11,-0.02 -0.18,-0.07 -0.25,-0.16 -0.08,-0.1 -0.08,-0.18 -0.08,-0.3 0,-0.07 0.04,-0.15 0.08,-0.2l0.03 -0.04c0.06,-0.07 0.17,-0.13 0.27,-0.13l0 0c0.13,0 0.19,0.01 0.29,0.08 0.16,0.12 0.21,0.33 0.12,0.53 0.01,0 0.03,0 0.04,0.01 0.05,0.01 0.07,0.03 0.11,0.07l0.08 0.09c0.03,0.02 0.1,0.12 0.13,0.16l0.06 0.1c0.01,0.02 0.01,0.03 0.02,0.04 0.05,0.08 0.11,0.23 0.14,0.32 0.03,0.12 0.06,0.27 0.06,0.39 0.12,0 0.21,-0.01 0.3,0.09 0.04,0.04 0.1,0.12 0.1,0.2l0 0.66c0,0.07 -0.05,0.17 -0.1,0.2 -0.11,0.1 -0.16,0.09 -0.3,0.09l0 0.3c0,0.07 -0.05,0.11 -0.11,0.11zm-2.69 -0.93c0,-0.04 0.04,-0.08 0.08,-0.08l1.68 0 0 0.16 -1.66 0c-0.05,0 -0.1,-0.03 -0.1,-0.08zm0.8 -0.4c0,-0.05 0.04,-0.08 0.1,-0.08l0.86 0 0 0.16 -0.88 0c-0.04,0 -0.08,-0.04 -0.08,-0.08zm-0.42 -0.27c0.15,0 0.24,0.18 0.12,0.3 -0.06,0.06 -0.16,0.07 -0.23,0.01 -0.01,-0.01 -0.01,-0.01 -0.02,-0.02 -0.01,-0.01 -0.01,-0.01 -0.02,-0.02 -0.01,-0.02 -0.03,-0.09 -0.03,-0.1 0,-0.05 0.04,-0.11 0.08,-0.14 0.02,-0.02 0.06,-0.03 0.1,-0.03zm1.71 -0.35c0.02,0.08 0.04,0.11 0.06,0.22 0,0.02 0,0.06 0.01,0.08l-0.31 0c0.03,-0.02 0.01,0 0.07,-0.06 0.03,-0.03 0.09,-0.12 0.11,-0.16 0.02,-0.02 0.04,-0.07 0.06,-0.08zm-0.8 0.3c-0.05,0 -0.08,-0.03 -0.08,-0.08 0,-0.06 0.07,-0.08 0.11,-0.1 0.05,-0.03 0.26,-0.13 0.29,-0.15 0.05,-0.03 0.07,-0.07 0.1,-0.12 0.03,-0.05 0.06,-0.09 0.09,-0.13l0.21 -0.33c0.08,-0.1 0.14,0 0.21,0.08 0.05,0.05 0.08,0.09 0.12,0.15 0.02,0.04 0.04,0.08 0.06,0.12 0.08,0.17 0.15,0.36 0.15,0.56l-0.15 0c0,-0.19 -0.06,-0.32 -0.13,-0.48 -0.01,-0.03 -0.02,-0.05 -0.04,-0.08 -0.03,-0.06 -0.05,-0.1 -0.14,-0.1 -0.07,0 -0.13,0.12 -0.18,0.18l-0.15 0.22c-0.02,0.04 -0.01,0.03 -0.04,0.05 -0.07,0.04 -0.23,0.12 -0.3,0.15 -0.03,0.02 -0.1,0.06 -0.13,0.06zm0.32 -1.38c0,-0.09 0.11,-0.21 0.25,-0.15 0.05,0.02 0.1,0.08 0.1,0.15l0 0.03c0,0.13 -0.2,0.21 -0.3,0.1 -0.03,-0.04 -0.05,-0.08 -0.05,-0.13z"/>
 </g>
</svg>
