<?xml version="1.0" encoding="UTF-8"?>
<!DOCTYPE svg PUBLIC "-//W3C//DTD SVG 1.0//EN" "http://www.w3.org/TR/2001/REC-SVG-20010904/DTD/svg10.dtd">
<!-- Creator: CorelDRAW 2018 (64 Bit Versão de avaliação) -->
<svg xmlns="http://www.w3.org/2000/svg" xml:space="preserve" width="47px" height="32px" version="1.0" shape-rendering="geometricPrecision" text-rendering="geometricPrecision" image-rendering="optimizeQuality" fill-rule="evenodd" clip-rule="evenodd"
viewBox="0 0 2.04 1.37"
 xmlns:xlink="http://www.w3.org/1999/xlink">
 <g id="Camada_x0020_1">
  <metadata id="CorelCorpID_0Corel-Layer"/>
  <path fill="#44474A" d="M1.02 0.34c0.04,0.05 0.06,0.05 0.1,0.15 0.03,0.05 0.05,0.14 0.05,0.2 0,0.09 -0.04,0.2 -0.09,0.27 -0.02,0.02 -0.05,0.06 -0.06,0.07 -0.03,-0.02 -0.09,-0.1 -0.1,-0.14 -0.02,-0.03 -0.03,-0.06 -0.04,-0.09 0,-0.02 0,-0.04 0,-0.06 -0.01,-0.06 -0.01,-0.09 0,-0.16 0.02,-0.09 0.08,-0.19 0.14,-0.24zm-0.18 0.8c-0.18,0.09 -0.47,-0.02 -0.58,-0.24 -0.08,-0.16 -0.07,-0.35 0.04,-0.5 0.01,-0.02 0.03,-0.04 0.05,-0.06 0.1,-0.09 0.26,-0.16 0.41,-0.12 0.03,0 0.05,0.01 0.07,0.02l-0.06 0.08c-0.04,0.07 -0.08,0.16 -0.09,0.23 0,0.02 -0.01,0.04 -0.01,0.07 0,0.03 -0.01,0.05 -0.01,0.07 0.02,0.16 0.04,0.24 0.11,0.36 0.01,0.02 0.02,0.03 0.04,0.05 0.01,0.02 0.02,0.03 0.03,0.04zm0.37 -0.91c0.01,-0.01 0.01,-0.01 0.03,-0.02 0.1,-0.03 0.22,-0.01 0.31,0.03 0.03,0.01 0.05,0.02 0.08,0.04 0.02,0.02 0.03,0.03 0.06,0.05 0,0 0,0.01 0,0.01 0.01,0 0.01,0 0.01,0.01 0.01,0 0.01,0.01 0.02,0.01 0.01,0.01 0.01,0.02 0.02,0.03 0.08,0.1 0.09,0.19 0.09,0.31 0,0.09 -0.04,0.19 -0.09,0.26 -0.09,0.14 -0.29,0.23 -0.46,0.2 -0.03,-0.01 -0.05,-0.02 -0.07,-0.03 0.05,-0.07 0.04,-0.03 0.11,-0.17 0.08,-0.16 0.08,-0.4 0,-0.56 -0.03,-0.05 -0.06,-0.11 -0.1,-0.15 -0.01,-0.01 -0.01,-0.01 -0.01,-0.02zm-1.21 0.45c0,0.54 0.55,0.83 0.98,0.63 0.09,-0.04 0.02,-0.01 0.18,0.04 0.17,0.04 0.31,0.03 0.47,-0.03 0.04,-0.02 0.08,-0.04 0.11,-0.06 0.02,-0.01 0.03,-0.02 0.05,-0.04 0.14,-0.11 0.25,-0.3 0.25,-0.49 0,-0.13 -0.01,-0.22 -0.06,-0.34 -0.07,-0.14 -0.19,-0.26 -0.34,-0.32 -0.21,-0.1 -0.42,-0.09 -0.62,0.02 -0.14,-0.07 -0.2,-0.09 -0.37,-0.09 -0.1,0 -0.2,0.04 -0.27,0.07 -0.11,0.06 -0.19,0.13 -0.26,0.23 -0.07,0.1 -0.12,0.25 -0.12,0.38z"/>
 </g>
</svg>
