<?xml version="1.0" encoding="UTF-8"?>
<!DOCTYPE svg PUBLIC "-//W3C//DTD SVG 1.0//EN" "http://www.w3.org/TR/2001/REC-SVG-20010904/DTD/svg10.dtd">
<!-- Creator: CorelDRAW 2018 (64 Bit Versão de avaliação) -->
<svg xmlns="http://www.w3.org/2000/svg" xml:space="preserve" width="41px" height="41px" version="1.0" shape-rendering="geometricPrecision" text-rendering="geometricPrecision" image-rendering="optimizeQuality" fill-rule="evenodd" clip-rule="evenodd"
viewBox="0 0 3.46 3.46"
 xmlns:xlink="http://www.w3.org/1999/xlink">
 <g id="Camada_x0020_1">
  <metadata id="CorelCorpID_0Corel-Layer"/>
  <path fill="black" d="M1.38 0.59c0.03,0 0.06,-0.02 0.07,-0.03 0.03,-0.03 0.06,-0.05 0.09,-0.08 0.03,-0.02 0.12,-0.11 0.14,-0.13 0.03,-0.01 0.04,-0.04 0.07,-0.02 0.02,0.02 0.03,0.03 0.05,0.04 0.01,0.01 0.02,0.02 0.03,0.03l0.07 0.06c0.03,0.03 0.11,0.11 0.15,0.12 0.04,0.02 0.1,0.01 0.15,0.01 0.01,0 0.03,-0.01 0.05,-0.01 0.05,0 0.1,0 0.15,-0.01 0.03,0 0.07,0 0.1,0l0.07 -0.01c0.02,0 0.03,0.1 0.04,0.12 0.01,0.04 0.02,0.09 0.03,0.13 0.01,0.04 0.02,0.09 0.03,0.13 0.01,0.02 0.02,0.04 0.03,0.05 0.01,0.02 0.03,0.04 0.04,0.05 0.03,0.02 0.06,0.04 0.1,0.06l0.15 0.09c0.03,0.02 0.14,0.07 0.15,0.1 0,0.02 -0.07,0.18 -0.09,0.21 -0.01,0.04 -0.03,0.07 -0.04,0.11 -0.03,0.07 -0.05,0.11 -0.02,0.19 0,0.02 0.01,0.04 0.02,0.05 0.01,0.02 0.01,0.04 0.02,0.05 0.01,0.02 0.02,0.04 0.02,0.06 0.02,0.03 0.03,0.07 0.05,0.1 0.01,0.02 0.04,0.09 0.04,0.11 -0.01,0.02 -0.04,0.03 -0.05,0.04l-0.15 0.09c-0.05,0.03 -0.16,0.09 -0.2,0.12 -0.04,0.03 -0.06,0.06 -0.07,0.1 -0.01,0.02 -0.01,0.05 -0.02,0.07 0,0.02 -0.01,0.04 -0.01,0.06 -0.01,0.06 -0.03,0.15 -0.05,0.2 0,0.02 -0.01,0.05 -0.03,0.05 -0.04,0 -0.05,-0.01 -0.09,-0.01 -0.05,0 -0.1,-0.01 -0.15,-0.01 -0.08,-0.01 -0.21,-0.04 -0.29,0.01 -0.02,0.01 -0.07,0.05 -0.09,0.07 -0.01,0.01 -0.02,0.02 -0.03,0.03 -0.01,0.01 -0.02,0.01 -0.03,0.02l-0.11 0.1c-0.02,0.01 -0.04,0.04 -0.05,0.02 -0.01,0 -0.01,0 -0.02,-0.01l-0.03 -0.02c-0.03,-0.03 -0.06,-0.05 -0.08,-0.08l-0.05 -0.04c-0.04,-0.04 -0.12,-0.11 -0.18,-0.11l-0.18 0.01c-0.02,0 -0.03,0 -0.05,0 -0.03,0.01 -0.06,0 -0.1,0.01 -0.03,0 -0.12,0.02 -0.14,0 -0.01,0 -0.01,-0.01 -0.01,-0.02 -0.02,-0.08 -0.05,-0.16 -0.06,-0.24 -0.03,-0.1 -0.03,-0.17 -0.13,-0.23 -0.06,-0.04 -0.34,-0.19 -0.36,-0.23 -0.01,-0.01 0.02,-0.07 0.02,-0.08 0.01,-0.02 0.01,-0.03 0.02,-0.05l0.05 -0.12c0.01,-0.03 0.02,-0.06 0.03,-0.08 0.04,-0.09 0.05,-0.13 0.01,-0.22 -0.02,-0.03 -0.03,-0.06 -0.04,-0.08l-0.05 -0.13c-0.01,-0.01 -0.01,-0.02 -0.02,-0.04 -0.04,-0.1 -0.03,-0.09 0.06,-0.15l0.06 -0.03c0.02,-0.01 0.2,-0.12 0.22,-0.13 0.04,-0.04 0.06,-0.08 0.08,-0.15 0.02,-0.07 0.06,-0.19 0.08,-0.26 0.01,-0.02 0.02,-0.08 0.04,-0.09l0.22 0.02c0.04,0 0.1,0.01 0.14,0.01 0.01,0 0.02,0 0.03,0l0.1 0zm-0.48 1.03c0.01,-0.08 0.04,-0.18 0.08,-0.26 0.02,-0.04 0.03,-0.07 0.06,-0.11 0.01,-0.02 0.03,-0.04 0.04,-0.06 0.07,-0.07 0.14,-0.13 0.23,-0.18 0.04,-0.03 0.09,-0.05 0.13,-0.07 0.06,-0.02 0.11,-0.03 0.17,-0.04l0.16 -0.01c0,0 0.01,0 0.02,0 0.01,0 0.01,0.01 0.02,0.01 0.2,0.01 0.38,0.1 0.51,0.24 0.01,0.01 0.02,0.01 0.03,0.02 0.02,0.03 0.07,0.09 0.09,0.12 0,0 0,0.01 0.01,0.01 0,0.01 0,0.01 0.01,0.02 0.02,0.04 0.04,0.09 0.06,0.13 0.01,0.03 0.02,0.05 0.02,0.08 0.01,0.03 0.02,0.06 0.02,0.09l0.01 0.14c0,0.01 0,0.01 0,0.02 0,0.04 -0.02,0.13 -0.03,0.16 -0.01,0.05 -0.04,0.15 -0.07,0.19l-0.06 0.09c-0.04,0.07 -0.13,0.17 -0.2,0.21 -0.01,0 -0.01,0.01 -0.02,0.01 -0.04,0.03 -0.13,0.08 -0.18,0.09 -0.06,0.02 -0.15,0.04 -0.22,0.05 -0.05,0 -0.04,0 -0.09,0 -0.01,0 -0.01,0 -0.02,0 -0.04,0 -0.12,-0.02 -0.16,-0.03 -0.07,-0.01 -0.19,-0.07 -0.25,-0.11l-0.03 -0.02c-0.12,-0.09 -0.2,-0.19 -0.27,-0.33 -0.03,-0.05 -0.04,-0.1 -0.06,-0.16 -0.01,-0.05 -0.01,-0.08 -0.02,-0.13l0 -0.07 0.01 -0.1zm1.94 0.18l0 -0.14c0,-0.09 -0.03,-0.24 -0.07,-0.32 -0.04,-0.1 -0.08,-0.17 -0.14,-0.26 0,-0.01 0,-0.01 -0.01,-0.02l-0.04 -0.05c-0.05,-0.07 -0.14,-0.14 -0.21,-0.19 -0.06,-0.04 -0.11,-0.07 -0.17,-0.1 -0.12,-0.06 -0.26,-0.09 -0.39,-0.1 -0.06,0 -0.12,0 -0.18,0 0,0 -0.01,0 -0.02,0 -0.09,0 -0.22,0.04 -0.31,0.08 -0.09,0.04 -0.17,0.09 -0.25,0.15 -0.04,0.03 -0.07,0.06 -0.11,0.1 -0.03,0.03 -0.06,0.06 -0.09,0.1l-0.07 0.09c-0.07,0.12 -0.13,0.27 -0.15,0.41 0,0.03 -0.01,0.06 -0.01,0.09 -0.01,0.23 0.02,0.4 0.11,0.59 0.04,0.07 0.08,0.13 0.12,0.19 0.01,0.01 0.02,0.02 0.03,0.03 0.02,0.02 0.05,0.05 0.07,0.08l0.11 0.09 0.12 0.08c0.05,0.02 0.09,0.05 0.14,0.07 0.27,0.1 0.59,0.1 0.85,-0.02 0.02,-0.01 0.05,-0.02 0.07,-0.03 0.01,-0.01 0.04,-0.02 0.06,-0.04l0.08 -0.05c0,0 0.01,0 0.01,-0.01l0.09 -0.06c0.06,-0.07 0.09,-0.09 0.14,-0.17 0.02,-0.02 0.07,-0.1 0.08,-0.12 0.02,-0.02 0.03,-0.04 0.04,-0.07 0.03,-0.06 0.06,-0.16 0.08,-0.22 0.01,-0.04 0.02,-0.09 0.02,-0.13l0 -0.05zm-1.2 0.36c0.03,0 0.06,-0.01 0.07,-0.02 0.02,-0.01 0.03,-0.03 0.05,-0.05l0.45 -0.45c0.02,-0.02 0.05,-0.06 0.08,-0.08 0.02,-0.02 0.03,-0.03 0.05,-0.05 0.04,-0.08 0.01,-0.2 -0.11,-0.21 -0.04,0 -0.05,0 -0.07,0.02 -0.04,0.01 -0.07,0.05 -0.1,0.08l-0.38 0.38c-0.01,0.01 -0.04,0.04 -0.05,0.05 -0.01,-0.01 -0.02,-0.03 -0.03,-0.04 -0.01,0 -0.01,0 -0.01,-0.01l-0.07 -0.07c-0.01,-0.01 -0.02,-0.01 -0.02,-0.02 -0.02,-0.02 -0.05,-0.04 -0.05,-0.04l-0.07 -0.07c-0.02,-0.02 -0.01,-0.01 -0.02,-0.03 -0.03,-0.02 -0.05,-0.04 -0.08,-0.05 -0.1,-0.02 -0.16,0.03 -0.17,0.12 -0.01,0.05 0.01,0.08 0.04,0.12 0.03,0.04 0.08,0.08 0.12,0.12 0.02,0.02 0.07,0.06 0.08,0.08l0.08 0.08c0.03,0.02 0.06,0.06 0.09,0.08 0.05,0.05 0.06,0.06 0.12,0.06zm-1.64 -0.9l0 0.04c0,0 0.01,0.06 0.01,0.06 0,0.02 0,0.04 0.01,0.06l0.04 0.1c0.02,0.03 0.03,0.07 0.04,0.1 0.01,0.02 0.02,0.04 0.03,0.05l0.02 0.05c0,0.01 -0.01,0.04 -0.02,0.05l-0.08 0.2c-0.01,0.02 -0.02,0.04 -0.02,0.05 -0.01,0.02 -0.01,0.04 -0.02,0.06l-0.01 0.05c0,0 0,0.01 0,0.01l0 0.06 0.01 0.05c0.02,0.09 0.08,0.16 0.16,0.21 0.01,0.01 0.01,0.01 0.02,0.02l0.24 0.14c0.01,0.01 0.02,0.01 0.03,0.02l0.03 0.02c0,0 0.01,0.06 0.01,0.07l0.06 0.23c0.02,0.09 0.08,0.16 0.16,0.21 0.13,0.08 0.26,0.04 0.41,0.03 0.02,0 0.05,0 0.08,0 0.02,0 0.03,0 0.05,-0.01 0.01,0 0.03,0 0.04,0.01l0.12 0.11c0.03,0.03 0.09,0.08 0.13,0.1 0.03,0.02 0.06,0.03 0.1,0.04 0,0 0.03,0.01 0.03,0.01l0.08 0c0,0 0,0 0,0l0.02 0c0.05,-0.01 0.08,-0.02 0.12,-0.04 0.05,-0.03 0.15,-0.13 0.21,-0.17 0.01,-0.01 0.03,-0.03 0.04,-0.05 0.02,-0.01 0.05,0 0.09,0 0,0 0.01,0 0.02,0 0.01,0 0.04,0 0.06,0l0.16 0.01c0,0 0.01,0 0.02,0 0.01,0.01 0.03,0.01 0.04,0.01 0.08,0.01 0.16,-0.02 0.22,-0.06 0.01,-0.01 0.02,-0.02 0.03,-0.03 0.04,-0.03 0.09,-0.11 0.11,-0.17l0.03 -0.15c0.01,-0.02 0.02,-0.05 0.02,-0.07 0.01,-0.01 0.01,-0.03 0.01,-0.04 0.02,-0.07 0,-0.03 0.09,-0.09 0.07,-0.04 0.14,-0.08 0.21,-0.12 0.01,-0.01 0.02,-0.02 0.03,-0.02 0.06,-0.05 0.09,-0.08 0.14,-0.15 0.02,-0.04 0.03,-0.1 0.03,-0.1l0 -0.08c0,0 0,-0.01 0,-0.02 -0.01,-0.08 -0.07,-0.21 -0.11,-0.29 -0.01,-0.03 -0.03,-0.07 -0.04,-0.1 0,-0.01 0.01,-0.04 0.02,-0.05 0.03,-0.06 0.04,-0.09 0.06,-0.15 0.03,-0.06 0.06,-0.13 0.07,-0.19l0 -0.02 0 -0.07c0,-0.01 -0.01,-0.04 -0.01,-0.04 0,-0.02 -0.01,-0.03 -0.01,-0.04 -0.05,-0.12 -0.13,-0.17 -0.24,-0.23l-0.11 -0.07c-0.01,-0.01 -0.11,-0.07 -0.12,-0.08l-0.04 -0.15c-0.02,-0.11 -0.03,-0.19 -0.1,-0.27 -0.08,-0.1 -0.2,-0.15 -0.33,-0.13 -0.03,0 -0.06,0 -0.09,0.01l-0.13 0.01c-0.01,0 -0.03,0 -0.04,0l-0.07 0c-0.01,0 -0.01,0 -0.01,0l-0.1 -0.09c-0.01,-0.01 -0.01,-0.01 -0.02,-0.01 0,-0.01 0,-0.01 -0.01,-0.01 -0.01,-0.01 -0.01,-0.02 -0.02,-0.02 -0.07,-0.06 -0.1,-0.1 -0.21,-0.12l-0.04 -0.01c0,0 0,0 0,0l-0.06 0 -0.01 0c0,0 0,0 -0.01,0 -0.05,0.01 -0.08,0.02 -0.12,0.04 -0.03,0.02 -0.17,0.14 -0.21,0.18l-0.05 0.04c-0.01,0.01 0,0.01 -0.02,0 -0.04,0 -0.1,0 -0.15,-0.01 -0.03,0 -0.06,0 -0.09,-0.01 -0.01,0 -0.02,0 -0.04,0 -0.04,0 -0.1,0 -0.14,0 -0.1,0.01 -0.18,0.05 -0.24,0.13 -0.06,0.08 -0.12,0.31 -0.15,0.42 -0.01,0.04 -0.01,0.03 -0.04,0.05 -0.05,0.03 -0.17,0.09 -0.21,0.12 -0.03,0.01 -0.06,0.04 -0.09,0.06 -0.06,0.05 -0.11,0.11 -0.12,0.2 -0.01,0 -0.01,0.01 -0.01,0.02 0,0 0,0.01 0,0.02z"/>
 </g>
</svg>
