<?xml version="1.0" encoding="UTF-8"?>
<!DOCTYPE svg PUBLIC "-//W3C//DTD SVG 1.0//EN" "http://www.w3.org/TR/2001/REC-SVG-20010904/DTD/svg10.dtd">
<!-- Creator: CorelDRAW 2018 (64 Bit Versão de avaliação) -->
<svg xmlns="http://www.w3.org/2000/svg" xml:space="preserve" width="43px" height="41px" version="1.0" shape-rendering="geometricPrecision" text-rendering="geometricPrecision" image-rendering="optimizeQuality" fill-rule="evenodd" clip-rule="evenodd"
viewBox="0 0 0.82 0.79"
 xmlns:xlink="http://www.w3.org/1999/xlink">
 <g id="Camada_x0020_1">
  <metadata id="CorelCorpID_0Corel-Layer"/>
  <g id="_2039329667552">
   <g>
    <path fill="black" d="M0.25 0.3l0 0.06c0,0.02 0.03,0.03 0.04,0.02 0.02,-0.03 0,-0.08 0.03,-0.11 0,-0.01 0.02,-0.02 0.03,-0.02l0.12 0c0.02,0 0.04,0.03 0.05,0.05 0,0.02 0,0.08 0,0.1 -0.03,0 -0.05,0.03 -0.05,0.06l0 0.01 -0.12 0c0,-0.02 -0.01,-0.04 -0.02,-0.06 -0.02,-0.01 -0.04,-0.01 -0.07,-0.01 -0.01,0 -0.02,0 -0.03,0 -0.01,0 -0.01,0 -0.02,-0.02 -0.01,0 -0.01,-0.01 -0.02,-0.02l-0.03 -0.04c-0.03,-0.03 -0.04,-0.03 -0.08,-0.04 -0.01,0 -0.02,0.01 -0.03,0.01 -0.02,0 -0.03,0.02 -0.04,0.03 -0.01,0.01 -0.01,0.02 -0.01,0.03l0 0.24c0,0.01 0.01,0.03 0.02,0.04l0.01 0.02c0.03,0.02 0.06,0.02 0.09,0.02 0.03,0 0.05,0 0.07,0 0,0 0.01,0.01 0.01,0.01 0,0.01 0,0.01 0.01,0.02 0,0.01 0.02,0.07 0.03,0.08 0.01,0 0.01,0 0.02,0.01l0 0c0.02,-0.01 0.03,-0.02 0.02,-0.05 -0.01,-0.02 -0.02,-0.04 -0.03,-0.06 -0.02,-0.05 -0.02,-0.06 -0.06,-0.06l-0.08 0c-0.01,0 -0.03,0 -0.04,-0.01 -0.01,0 -0.02,-0.01 -0.02,-0.03l0 -0.22c0,-0.01 0.01,-0.03 0.02,-0.03 0.04,0 0.04,0.01 0.06,0.04l0.05 0.06c0.02,0.03 0.02,0.02 0.07,0.02 0.01,0 0.02,0 0.03,0 0.02,0 0.02,0 0.02,0.02l-0.13 0c0,0 -0.02,-0.03 -0.03,-0.04 0,-0.01 -0.01,-0.02 -0.02,-0.02 -0.02,-0.01 -0.04,-0.01 -0.04,0.02 0,0.01 0.04,0.06 0.05,0.07 0.01,0.01 0,0.02 0,0.03 0,0.02 0,0.05 0.03,0.05 0.01,0 0.02,0.01 0.04,0 0.01,0 0.02,0 0.03,0.01 0.01,0 0.01,0 0.01,0.01 0.01,0.02 0.05,0.14 0.06,0.16 0.01,0.02 0.01,0.02 0.02,0.03l0.01 0c0.01,-0.01 0.02,-0.02 0.02,-0.03 0,-0.01 -0.05,-0.15 -0.06,-0.17 0,-0.01 0,-0.02 -0.01,-0.03 -0.02,-0.02 -0.04,-0.03 -0.07,-0.03l-0.03 0 0 -0.01 0.45 0 0 0.01c-0.04,0 -0.08,0 -0.1,0.04 -0.01,0.02 -0.04,0.13 -0.05,0.15 0,0.01 -0.01,0.03 -0.01,0.04 0,0.01 0.01,0.03 0.02,0.03 0.03,0 0.03,-0.03 0.04,-0.05 0,-0.02 0.01,-0.04 0.02,-0.07 0,-0.02 0.01,-0.04 0.02,-0.06 0,-0.01 0.01,-0.02 0.01,-0.02 0.01,-0.01 0.06,-0.01 0.07,-0.01 0.02,0 0.03,-0.01 0.04,-0.02 0,-0.02 -0.01,-0.06 0,-0.06 0,0 0,-0.01 0,-0.01 0,0 0.01,0 0.01,-0.01 0.01,-0.01 0.03,-0.04 0.03,-0.05 0,-0.03 -0.03,-0.04 -0.04,-0.01 -0.01,0 -0.04,0.05 -0.05,0.05l-0.12 0c0,-0.02 0.01,-0.02 0.03,-0.02 0.02,0 0.04,0 0.06,0 0.02,0 0.03,-0.02 0.03,-0.03 0.01,0 0.01,0 0.01,-0.01l0.02 -0.02c0.01,-0.01 0.01,-0.01 0.02,-0.02 0,-0.01 0,-0.01 0.01,-0.01 0.01,-0.02 0.02,-0.03 0.05,-0.03 0.01,0 0.02,0.02 0.02,0.03l0 0.22c0,0.02 -0.02,0.04 -0.03,0.04 -0.01,0 -0.02,0 -0.03,0l-0.08 0c-0.02,0 -0.03,0 -0.04,0.01 -0.01,0.02 -0.02,0.05 -0.03,0.07 0,0 -0.01,0.01 -0.01,0.02 0,0.01 -0.01,0.03 -0.01,0.04 0,0.01 0,0.02 0,0.02 0.01,0.01 0.03,0.01 0.04,0 0,-0.01 0.03,-0.07 0.03,-0.08 0.01,-0.01 0.01,-0.01 0.01,-0.02 0,0 0,0 0,0 0.01,-0.01 0,-0.01 0.01,-0.01 0.02,0 0.04,0 0.07,0 0,0 0,0 0.01,0 0.04,0 0.06,-0.01 0.09,-0.03 0.01,-0.01 0.02,-0.04 0.02,-0.05l0 -0.24c0,-0.02 -0.01,-0.03 -0.02,-0.04 0,0 0,0 -0.01,-0.01 0,0 0,0 0,0 -0.01,-0.01 -0.04,-0.02 -0.06,-0.02 -0.01,0.01 -0.01,0 -0.02,0.01 -0.01,0 -0.02,0.01 -0.03,0.01 -0.01,0.01 -0.01,0.01 -0.02,0.02l-0.06 0.08c-0.01,0 0,0 -0.03,0l0 -0.1c0,-0.05 -0.05,-0.1 -0.11,-0.1l-0.1 0c-0.02,0 -0.04,0 -0.05,0.01 -0.01,0 -0.02,0.01 -0.03,0.02 0,0.01 -0.01,0.02 -0.02,0.03 0,0.01 -0.01,0.02 -0.01,0.04z"/>
    <path fill="black" d="M0.37 0.09c0,-0.01 0,-0.01 0,-0.02 0.01,-0.01 0.02,-0.02 0.04,-0.02 0.01,0 0.02,0 0.03,0.01 0.03,0.03 0,0.07 -0.03,0.07 -0.01,0 -0.01,0 -0.02,0 -0.01,-0.01 -0.02,-0.02 -0.02,-0.04zm-0.05 0c0,0.04 0.02,0.07 0.05,0.08 0.03,0.02 0.07,0.01 0.1,-0.01 0,0 0.01,-0.01 0.01,-0.02 0.02,-0.02 0.03,-0.05 0.01,-0.08 -0.01,-0.03 -0.04,-0.06 -0.08,-0.06 -0.02,0 -0.04,0 -0.06,0.02 -0.01,0.01 -0.01,0.01 -0.02,0.02 0,0.01 -0.01,0.03 -0.01,0.05z"/>
    <path fill="black" d="M0.73 0.22c0,0 -0.01,0 -0.02,-0.01 -0.01,0 -0.02,-0.01 -0.02,-0.03l0 -0.01c0,-0.02 0.01,-0.04 0.03,-0.04 0.02,0 0.03,0 0.04,0.02 0.02,0.02 0,0.07 -0.03,0.07zm-0.1 -0.05c0,0.05 0.05,0.1 0.09,0.1 0.02,0 0.04,-0.01 0.06,-0.02 0.02,-0.01 0.04,-0.04 0.04,-0.06l0 -0.01 0 0 0 0 0 0 0 0c0,-0.02 0,-0.03 -0.01,-0.04 -0.01,-0.02 -0.01,-0.02 -0.02,-0.03 -0.03,-0.03 -0.07,-0.03 -0.1,-0.02 -0.03,0.02 -0.06,0.05 -0.06,0.08z"/>
    <path fill="black" d="M0.05 0.18c0,-0.01 0,-0.02 0.01,-0.03 0.03,-0.03 0.07,-0.01 0.07,0.02 0,0.01 0,0.02 -0.01,0.03 -0.03,0.03 -0.07,0.01 -0.07,-0.02zm-0.05 -0.01c0,0.03 0.01,0.05 0.03,0.07 0,0.01 0.02,0.02 0.02,0.02 0.04,0.01 0.08,0.01 0.11,-0.02 0.03,-0.04 0.03,-0.1 -0.01,-0.13 -0.01,-0.02 -0.03,-0.03 -0.06,-0.03 -0.03,0 -0.07,0.02 -0.08,0.05 -0.01,0.01 -0.01,0.02 -0.01,0.04z"/>
    <path fill="black" d="M0.38 0.54l0 0.25 0.05 0 0 -0.25c0,0 0,-0.01 0,-0.01l-0.04 0c-0.01,0 -0.01,0.01 -0.01,0.01z"/>
    <path fill="black" d="M0.38 0.27l0 0.05 0.05 0 0 -0.05c0,0 0,0 0,0l-0.04 0c-0.01,0 -0.01,0 -0.01,0z"/>
   </g>
  </g>
 </g>
</svg>
