<?xml version="1.0" encoding="UTF-8"?>
<!DOCTYPE svg PUBLIC "-//W3C//DTD SVG 1.0//EN" "http://www.w3.org/TR/2001/REC-SVG-20010904/DTD/svg10.dtd">
<!-- Creator: CorelDRAW 2018 (64 Bit Versão de avaliação) -->
<svg xmlns="http://www.w3.org/2000/svg" xml:space="preserve" width="41px" height="41px" version="1.0" shape-rendering="geometricPrecision" text-rendering="geometricPrecision" image-rendering="optimizeQuality" fill-rule="evenodd" clip-rule="evenodd"
viewBox="0 0 17.2 17.2"
 xmlns:xlink="http://www.w3.org/1999/xlink">
 <g id="Camada_x0020_1">
  <metadata id="CorelCorpID_0Corel-Layer"/>
  <g id="_2706957976272">
   <g>
    <path fill="black" d="M0 4.11l0 3.07c0,0.24 0.3,0.53 0.54,0.53l6.64 0c0.24,0 0.53,-0.29 0.53,-0.53l0 -6.64c0,-0.24 -0.29,-0.54 -0.53,-0.54l-3.07 0c-2.12,0 -4.11,1.99 -4.11,4.11z"/>
    <path fill="black" d="M0 10.02l0 3.07c0,2.12 1.99,4.11 4.11,4.11l3.07 0c0.24,0 0.53,-0.3 0.53,-0.54l0 -6.64c0,-0.24 -0.29,-0.54 -0.53,-0.54l-6.64 0c-0.24,0 -0.54,0.3 -0.54,0.54z"/>
    <path fill="black" d="M9.48 0.54l0 6.64c0,0.24 0.3,0.53 0.54,0.53l6.64 0c0.24,0 0.54,-0.29 0.54,-0.53l0 -3.07c0,-0.57 -0.21,-1.25 -0.4,-1.64 -0.47,-0.94 -1.11,-1.59 -2.05,-2.06 -0.4,-0.2 -1.08,-0.41 -1.66,-0.41l-3.07 0c-0.24,0 -0.54,0.3 -0.54,0.54z"/>
    <path fill="black" d="M9.48 10.02l0 6.64c0,0.24 0.3,0.54 0.54,0.54l3.07 0c0.55,0 1.26,-0.21 1.64,-0.4 0.94,-0.47 1.58,-1.11 2.06,-2.05 0.19,-0.39 0.41,-1.09 0.41,-1.66l0 -3.07c0,-0.24 -0.3,-0.54 -0.54,-0.54l-6.64 0c-0.24,0 -0.54,0.3 -0.54,0.54z"/>
   </g>
  </g>
 </g>
</svg>
