<?xml version="1.0" encoding="UTF-8"?>
<!DOCTYPE svg PUBLIC "-//W3C//DTD SVG 1.0//EN" "http://www.w3.org/TR/2001/REC-SVG-20010904/DTD/svg10.dtd">
<!-- Creator: CorelDRAW 2018 (64 Bit Versão de avaliação) -->
<svg xmlns="http://www.w3.org/2000/svg" xml:space="preserve" width="41px" height="41px" version="1.0" shape-rendering="geometricPrecision" text-rendering="geometricPrecision" image-rendering="optimizeQuality" fill-rule="evenodd" clip-rule="evenodd"
viewBox="0 0 17.07 17.07"
 xmlns:xlink="http://www.w3.org/1999/xlink">
 <g id="Camada_x0020_1">
  <metadata id="CorelCorpID_0Corel-Layer"/>
  <path fill="black" d="M8.27 1.68c1.07,0 1.87,0.11 2.84,0.49l0.57 0.27c0.61,0.37 0.58,0.29 1.25,0.84 0.75,0.61 1.38,1.46 1.81,2.33 0.09,0.18 0.16,0.38 0.24,0.58 0.21,0.55 0.41,1.49 0.41,2.1 0,0.95 -0.05,1.59 -0.38,2.5 -0.23,0.62 -0.62,1.4 -1.03,1.9 -0.04,0.06 -0.08,0.11 -0.12,0.16 -0.05,0.06 -0.09,0.1 -0.14,0.15 -0.51,0.5 -0.56,0.67 -1.24,1.11 -0.87,0.59 -1.33,0.85 -2.4,1.1 -0.32,0.07 -1.25,0.22 -1.53,0.19 -0.09,-0.01 -0.2,-0.02 -0.26,-0.03 -0.1,-0.01 -0.2,0 -0.31,-0.01 -1.17,-0.09 -2.11,-0.44 -3.07,-1 -0.41,-0.24 -0.62,-0.12 -1.04,0.01l-1.71 0.54c0,-0.12 0.26,-0.85 0.32,-1.02 0.11,-0.34 0.23,-0.7 0.32,-1.05 0.14,-0.56 -0.2,-0.77 -0.48,-1.42 -0.23,-0.53 -0.39,-0.93 -0.51,-1.53 -0.04,-0.21 -0.07,-0.36 -0.09,-0.59 -0.01,-0.19 -0.02,-0.45 -0.04,-0.65 -0.03,-0.34 0.04,-0.86 0.1,-1.22 0.14,-0.83 0.35,-1.54 0.78,-2.26l0.4 -0.63c0.19,-0.27 0.4,-0.5 0.63,-0.73 0.97,-0.98 2.09,-1.69 3.48,-1.97 0.34,-0.07 0.79,-0.16 1.2,-0.16zm3.52 7.86c1.05,0 1.46,-1.5 0.38,-1.93 -0.27,-0.11 -0.55,-0.1 -0.81,0.01 -0.05,0.03 -0.1,0.06 -0.14,0.09l-0.12 0.11c-0.65,0.62 -0.18,1.72 0.69,1.72zm-7.52 -1.08c0,0.33 0.11,0.58 0.27,0.76 0.28,0.34 0.86,0.43 1.28,0.15 0.61,-0.4 0.63,-1.47 -0.16,-1.75 -0.09,-0.03 -0.31,-0.09 -0.43,-0.09 -0.48,0 -0.96,0.46 -0.96,0.93zm3.26 0c0,1.13 1.26,1.34 1.73,0.77 0.89,-1.07 -0.52,-2.25 -1.43,-1.42 -0.15,0.14 -0.3,0.45 -0.3,0.65zm0.7 -8.46l0.6 0c0.67,0 1,0.04 1.95,0.27 0.39,0.1 0.78,0.26 1.15,0.41l0.51 0.25c0.06,0.04 0.11,0.06 0.18,0.09 0.11,0.06 0.21,0.12 0.32,0.19 0.75,0.45 1.66,1.19 2.21,1.91 0.69,0.88 0.72,0.99 1.18,1.91 0.21,0.41 0.42,1.02 0.53,1.53 0.2,0.87 0.21,1.46 0.21,2.32l0 0.13c0,1.08 -0.37,2.33 -0.85,3.28 -0.34,0.67 -0.75,1.3 -1.24,1.85 -0.67,0.75 -1.38,1.35 -2.25,1.85 -0.11,0.06 -0.22,0.12 -0.34,0.18 -0.59,0.29 -1.2,0.54 -1.88,0.69 -0.86,0.2 -1.44,0.21 -2.28,0.21l-0.18 0c-1.01,0 -2.35,-0.4 -3.25,-0.85l-0.37 -0.2c-0.11,-0.05 -0.73,0.18 -0.88,0.23 -0.42,0.14 -2.4,0.82 -2.69,0.82 -0.51,0 -0.86,-0.36 -0.86,-0.77 0,-0.31 0.16,-0.72 0.25,-1.02 0.08,-0.3 0.2,-0.61 0.28,-0.92 0.08,-0.28 0.2,-0.6 0.3,-0.9 0.05,-0.16 0.1,-0.3 0.15,-0.45 0.08,-0.24 0.13,-0.27 0.04,-0.41 -0.31,-0.5 -0.5,-1.1 -0.7,-1.7 -0.3,-0.91 -0.32,-1.62 -0.32,-2.53l0 -0.05 0 -0.14 0 -0.1c0,-0.57 0.14,-1.3 0.27,-1.77 0.05,-0.15 0.08,-0.25 0.12,-0.4 0.16,-0.56 0.38,-0.95 0.62,-1.43 0.12,-0.24 0.43,-0.73 0.58,-0.93 0.32,-0.43 0.53,-0.7 0.92,-1.09 0.05,-0.05 0.08,-0.08 0.13,-0.13 0.06,-0.06 0.09,-0.07 0.15,-0.12 0.55,-0.48 0.83,-0.7 1.46,-1.07l1.03 -0.51c0.8,-0.33 2.02,-0.63 2.89,-0.63l0.06 0z"/>
 </g>
</svg>
