<?xml version="1.0" encoding="UTF-8"?>
<!DOCTYPE svg PUBLIC "-//W3C//DTD SVG 1.0//EN" "http://www.w3.org/TR/2001/REC-SVG-20010904/DTD/svg10.dtd">
<!-- Creator: CorelDRAW 2018 (64 Bit Versão de avaliação) -->
<svg xmlns="http://www.w3.org/2000/svg" xml:space="preserve" width="41px" height="41px" version="1.0" shape-rendering="geometricPrecision" text-rendering="geometricPrecision" image-rendering="optimizeQuality" fill-rule="evenodd" clip-rule="evenodd"
viewBox="0 0 1.93 1.92"
 xmlns:xlink="http://www.w3.org/1999/xlink">
 <g id="Camada_x0020_1">
  <metadata id="CorelCorpID_0Corel-Layer"/>
  <path fill="black" d="M0.49 1.09c0,-0.08 0.05,-0.13 0.13,-0.13l0.33 0c0.04,0 0.07,0.01 0.09,0.03 0.08,0.05 0.05,0.21 -0.08,0.21l-0.35 0c-0.04,0 -0.07,-0.01 -0.09,-0.03 -0.01,-0.02 -0.03,-0.05 -0.03,-0.08zm0.89 -0.59c-0.01,-0.01 -0.02,-0.01 -0.03,-0.01l0 0c-0.01,-0.01 -0.01,-0.01 -0.02,-0.01l-0.72 0c-0.07,0 -0.12,0.05 -0.12,0.13 0,0.05 0.05,0.11 0.1,0.11l0.75 0c0.05,0 0.1,-0.06 0.1,-0.11 0,-0.05 -0.02,-0.1 -0.06,-0.11l0 0zm0.08 -0.5l0.01 0c0.19,0 0.39,0.15 0.44,0.35 0.02,0.08 0.02,0.15 0.02,0.23 0,0.12 -0.01,0.22 -0.01,0.34 0,0.26 0.04,0.41 -0.11,0.59 -0.05,0.07 -0.13,0.12 -0.21,0.15 -0.09,0.03 -0.2,0.02 -0.32,0.02 -0.01,0.03 -0.03,0.07 -0.05,0.09 -0.1,0.17 -0.34,0.2 -0.47,0.07 -0.07,-0.07 -0.06,-0.07 -0.11,-0.16 -0.09,0 -0.19,0.01 -0.27,-0.01 -0.1,-0.02 -0.2,-0.08 -0.26,-0.15 -0.11,-0.13 -0.12,-0.22 -0.12,-0.39l0 -0.3c0,-0.04 0.01,-0.06 0,-0.09 0,-0.11 0,-0.29 0.02,-0.39 0.05,-0.2 0.25,-0.35 0.44,-0.35l0.99 0 0.01 0z"/>
 </g>
</svg>
