<?xml version="1.0" encoding="UTF-8"?>
<!DOCTYPE svg PUBLIC "-//W3C//DTD SVG 1.0//EN" "http://www.w3.org/TR/2001/REC-SVG-20010904/DTD/svg10.dtd">
<!-- Creator: CorelDRAW 2018 (64 Bit Versão de avaliação) -->
<svg xmlns="http://www.w3.org/2000/svg" xml:space="preserve" width="48px" height="41px" version="1.0" shape-rendering="geometricPrecision" text-rendering="geometricPrecision" image-rendering="optimizeQuality" fill-rule="evenodd" clip-rule="evenodd"
viewBox="0 0 2.64 2.27"
 xmlns:xlink="http://www.w3.org/1999/xlink">
 <g id="Camada_x0020_1">
  <metadata id="CorelCorpID_0Corel-Layer"/>
  <path fill="black" d="M2.11 1.86l-0.3 0 0 -1.65 0.3 0c0.19,0 0.32,0.13 0.32,0.32l0 1c0,0.19 -0.13,0.33 -0.32,0.33zm-0.09 -1.36l0 0.03c0,0.04 0.05,0.09 0.09,0.09l0.03 0c0.04,0 0.09,-0.05 0.09,-0.09l0 -0.03c0,-0.04 -0.05,-0.09 -0.09,-0.09l-0.03 0c-0.04,0 -0.09,0.05 -0.09,0.09zm0 0.82l0 0.04c0,0.03 0.05,0.08 0.09,0.08l0.03 0c0.04,0 0.09,-0.05 0.09,-0.08l0 -0.04c0,-0.03 -0.05,-0.08 -0.09,-0.08l-0.03 0c-0.04,0 -0.09,0.05 -0.09,0.08zm0 -0.41l0 0.03c0,0.04 0.05,0.09 0.09,0.09l0.03 0c0.04,0 0.09,-0.05 0.09,-0.09l0 -0.03c0,-0.04 -0.05,-0.09 -0.09,-0.09l-0.03 0c-0.04,0 -0.09,0.05 -0.09,0.09zm-1.61 0.39l0 0.06c0,0.03 0.05,0.08 0.09,0.08 0.11,0 0.11,-0.06 0.12,-0.15 0.01,-0.08 0.03,-0.12 0.07,-0.18 0.03,-0.05 0.06,-0.09 0.09,-0.15 0.04,-0.09 0.04,-0.15 0.04,-0.25 0,-0.04 -0.05,-0.09 -0.08,-0.09 -0.11,0 -0.12,0.06 -0.13,0.15 -0.02,0.2 -0.2,0.28 -0.2,0.53zm0.58 0l0 0.06c0,0.03 0.05,0.08 0.09,0.08 0.04,0 0.07,0 0.1,-0.04 0.04,-0.07 -0.02,-0.12 0.09,-0.29 0.09,-0.15 0.13,-0.2 0.13,-0.4 0,-0.04 -0.05,-0.09 -0.09,-0.09 -0.03,0 -0.07,0 -0.1,0.04 -0.04,0.07 0.02,0.12 -0.09,0.29 -0.03,0.05 -0.06,0.09 -0.09,0.15 -0.02,0.05 -0.04,0.13 -0.04,0.2zm-0.99 -0.82l0 1.1c0,0.17 0.11,0.32 0.25,0.41 0.04,0.02 0.11,0.06 0.16,0.06 0,0.04 0,0.12 0.01,0.15 0.03,0.12 0.2,0.07 0.2,-0.02l0 -0.12 0.69 0c0.04,0 0.09,-0.05 0.09,-0.09 0,-0.03 0,-0.06 -0.03,-0.09 -0.02,-0.02 -0.04,-0.02 -0.08,-0.02l-0.6 0c-0.16,0 -0.26,0.01 -0.35,-0.06 -0.07,-0.05 -0.13,-0.14 -0.13,-0.27l0 -1c0,-0.19 0.13,-0.32 0.32,-0.32l1.08 0 0 1.76c0,0.04 0.05,0.09 0.09,0.09l0.32 0 0 0.12c0,0.04 0.05,0.09 0.09,0.09 0.14,0 0.12,-0.11 0.12,-0.22 0.1,-0.01 0.21,-0.09 0.28,-0.16 0.06,-0.06 0.13,-0.2 0.13,-0.31l0 -1.09c0,-0.07 -0.02,-0.14 -0.05,-0.19 -0.08,-0.17 -0.25,-0.3 -0.44,-0.3l-1.67 0c-0.18,0 -0.35,0.13 -0.43,0.29 -0.02,0.05 -0.05,0.13 -0.05,0.19z"/>
 </g>
</svg>
