<?xml version="1.0" encoding="UTF-8"?>
<!DOCTYPE svg PUBLIC "-//W3C//DTD SVG 1.0//EN" "http://www.w3.org/TR/2001/REC-SVG-20010904/DTD/svg10.dtd">
<!-- Creator: CorelDRAW 2018 (64 Bit Versão de avaliação) -->
<svg xmlns="http://www.w3.org/2000/svg" xml:space="preserve" width="41px" height="41px" version="1.0" shape-rendering="geometricPrecision" text-rendering="geometricPrecision" image-rendering="optimizeQuality" fill-rule="evenodd" clip-rule="evenodd"
viewBox="0 0 5.78 5.77"
 xmlns:xlink="http://www.w3.org/1999/xlink">
 <g id="Camada_x0020_1">
  <metadata id="CorelCorpID_0Corel-Layer"/>
  <g id="_2038919913440">
   <path fill="#292929" d="M5.29 3.11c-0.09,0.73 -0.44,1.27 -0.82,1.59 -0.71,0.61 -1.81,0.82 -2.72,0.31 -0.53,-0.31 -0.9,-0.72 -1.12,-1.29 -0.36,-0.99 -0.03,-2.05 0.67,-2.64 0.24,-0.2 0.42,-0.32 0.76,-0.45 0.98,-0.38 2,-0.03 2.64,0.68 0.35,0.38 0.67,1.08 0.59,1.8zm-2.78 -3.08c-0.85,0.12 -1.48,0.55 -1.84,1.03 -0.22,0.3 -0.38,0.49 -0.52,0.92 -0.26,0.81 -0.18,1.62 0.24,2.36 0.19,0.33 0.42,0.57 0.67,0.78 0.82,0.69 2.24,0.92 3.28,0.26 0.31,-0.2 0.58,-0.4 0.78,-0.66 0.42,-0.55 0.75,-1.28 0.63,-2.21 -0.08,-0.63 -0.33,-1.05 -0.66,-1.49 -0.09,-0.12 -0.26,-0.26 -0.37,-0.36 -0.56,-0.49 -1.42,-0.75 -2.21,-0.63z"/>
   <path fill="#292929" d="M1.29 2.65c-0.15,0.04 -0.17,0.23 -0.13,0.34 0.05,0.16 0.14,0.15 0.33,0.15 0.33,0 2.93,0.01 3.01,-0.01 0.11,-0.03 0.17,-0.2 0.12,-0.34 -0.05,-0.17 -0.14,-0.15 -0.33,-0.15 -0.46,0 -2.9,-0.02 -3,0.01z"/>
  </g>
 </g>
</svg>
