<?xml version="1.0" encoding="UTF-8"?>
<!DOCTYPE svg PUBLIC "-//W3C//DTD SVG 1.0//EN" "http://www.w3.org/TR/2001/REC-SVG-20010904/DTD/svg10.dtd">
<!-- Creator: CorelDRAW 2018 (64 Bit Versão de avaliação) -->
<svg xmlns="http://www.w3.org/2000/svg" xml:space="preserve" width="41px" height="41px" version="1.0" shape-rendering="geometricPrecision" text-rendering="geometricPrecision" image-rendering="optimizeQuality" fill-rule="evenodd" clip-rule="evenodd"
viewBox="0 0 1.16 1.16"
 xmlns:xlink="http://www.w3.org/1999/xlink">
 <g id="Camada_x0020_1">
  <metadata id="CorelCorpID_0Corel-Layer"/>
  <path fill="black" d="M0.07 1.01l0.04 0.01c0.02,0.01 0.05,0.02 0.07,0.02l0.05 0c0.01,0 0.02,0 0.03,0 0,0 0,0 0,0 0.01,0 0.01,0 0.02,0 0.03,0 0.07,-0.01 0.1,-0.02l0.02 -0.01c0,0.01 0,0.03 -0.01,0.03 0,0 0,0 0,0.01 -0.02,0.01 -0.04,0.02 -0.05,0.02 -0.06,0.02 -0.15,0.02 -0.22,0 -0.01,-0.01 -0.04,-0.02 -0.05,-0.03 0,-0.01 0,-0.02 0,-0.03l0 0zm0.63 -0.51l0 0.01c-0.01,0 -0.02,0.01 -0.03,0.01 -0.02,0.01 -0.03,0.03 -0.04,0.05 -0.01,0.01 -0.01,0.03 -0.01,0.05 0,0.01 0,0.02 0.01,0.03 0.01,0.02 0.02,0.03 0.03,0.04 0.03,0.02 0.05,0.02 0.09,0.02 0,0 0,0 0,0 0.01,0 0.01,0 0.01,0 0,0 0.01,0 0.01,0 0.01,0 0.02,0 0.02,0.02 0,0.01 -0.03,0.01 -0.04,0.01 -0.03,0 -0.08,-0.01 -0.11,0.01 -0.01,0 -0.02,0.01 -0.02,0.03 0,0.01 0,0.02 0.01,0.03 0.01,0.01 0.02,0.01 0.03,0.01l0.04 0c0,0.02 0,0.03 0.01,0.04 0.01,0.02 0.02,0.02 0.04,0.02l0 0 0 0c0.02,0 0.03,-0.02 0.03,-0.04l0 -0.02c0.02,0 0.04,-0.01 0.06,-0.02 0.01,-0.01 0,-0.01 0.01,-0.02 0.01,-0.01 0.02,-0.03 0.02,-0.05l0 0c0,-0.02 0,-0.02 -0.01,-0.04 0,0 0,-0.01 0,-0.01 -0.01,-0.02 -0.03,-0.04 -0.05,-0.05 -0.02,-0.01 -0.04,0 -0.06,0 -0.01,0 -0.01,-0.01 -0.02,0 0,0 -0.01,0 -0.01,0 -0.02,0 -0.02,-0.01 -0.02,-0.03 0,0 0,0 0.01,0 0.01,-0.01 0.02,-0.01 0.03,-0.01l0.08 0c0.02,0 0.03,0 0.04,-0.01l0 0c0,0 0,0 0,0 0,-0.01 0.01,-0.01 0.01,-0.02l0 -0.01c0,-0.01 -0.01,-0.02 -0.02,-0.03 -0.01,0 -0.01,-0.01 -0.03,-0.01l-0.04 0c0,-0.02 0,-0.04 -0.02,-0.05 0,0 -0.01,0 -0.01,0l-0.01 0c-0.02,0 -0.04,0.01 -0.04,0.04zm-0.05 -0.41l0.19 0c0,0 -0.03,0.08 -0.04,0.08 0,0 -0.01,0 -0.03,0 -0.02,0 -0.05,0 -0.08,0l-0.04 -0.08zm-0.31 0.44l0 -0.01c0,-0.01 0.01,-0.02 0.01,-0.03 0.01,-0.04 0.02,-0.07 0.04,-0.11 0,0 0,0 0,0l0.02 -0.03c0.01,-0.01 0.02,-0.03 0.03,-0.04l0.02 -0.02c0,0 0,0 0,0l0.04 -0.04c0.02,-0.01 0.04,-0.02 0.06,-0.03l0.02 -0.01c0,-0.01 0.02,-0.02 0.02,-0.02 0,-0.01 -0.01,-0.02 -0.01,-0.03 -0.01,-0.01 -0.01,-0.01 -0.01,-0.01l-0.02 -0.05c-0.01,-0.02 -0.03,-0.04 -0.03,-0.06 0,-0.02 0.02,-0.04 0.04,-0.04l0.36 0c0.02,0 0.03,0.02 0.03,0.04 0,0.02 0,0.03 -0.01,0.05l-0.03 0.05c0,0.01 -0.01,0.01 -0.01,0.02 0,0.01 -0.01,0.03 -0.02,0.04 0.01,0 0.01,0 0.02,0 0.02,0.01 0.03,0.02 0.05,0.03 0.01,0.01 0.04,0.03 0.05,0.04 0,0 0,0 0,0.01l0.01 0.01c0.01,0 0.02,0.01 0.03,0.02 0,0.01 0,0.01 0.01,0.01 0.02,0.04 0.04,0.07 0.06,0.11 0.01,0.03 0.02,0.06 0.03,0.1 0,0.02 0.01,0.04 0.01,0.07l0 0.31c0,0.02 -0.01,0.03 -0.01,0.05 -0.01,0.01 -0.01,0.02 -0.02,0.03 -0.01,0.03 -0.03,0.05 -0.06,0.07l-0.01 0.01c0,0.01 -0.01,0.01 -0.02,0.01l-0.01 0.01c-0.03,0.01 -0.06,0.02 -0.09,0.02l-0.4 0c-0.01,0 -0.02,-0.01 -0.03,-0.01 -0.02,-0.03 -0.01,-0.07 0.02,-0.08 0.02,0 0.1,0 0.12,0 0.08,0 0.15,0 0.22,0 0.03,0 0.08,0 0.11,-0.01 0.02,0 0.03,-0.01 0.04,-0.02 0.01,-0.01 0.01,-0.01 0.02,-0.02 0,-0.01 0.01,-0.01 0.01,-0.02 0.01,-0.02 0.02,-0.03 0.02,-0.06l0 -0.26c0,-0.05 -0.02,-0.1 -0.03,-0.15 -0.01,-0.03 -0.02,-0.04 -0.03,-0.07 -0.02,-0.03 -0.05,-0.06 -0.08,-0.09 -0.02,-0.01 -0.04,-0.02 -0.05,-0.03 -0.01,0 -0.01,0 -0.01,0 0,-0.01 -0.01,-0.01 -0.01,-0.01 -0.02,-0.01 -0.04,-0.01 -0.06,-0.02 -0.01,0 -0.02,0 -0.02,0 -0.02,0 -0.05,0 -0.06,0l-0.04 0.01c-0.02,0 -0.05,0.01 -0.06,0.02 -0.01,0 -0.01,0 -0.02,0 -0.03,0.02 -0.04,0.03 -0.06,0.05 -0.01,0.01 -0.02,0.02 -0.03,0.02 -0.01,0.03 -0.03,0.05 -0.04,0.07 -0.01,0.02 -0.02,0.05 -0.03,0.06 0,0.01 0,0.03 -0.01,0.04 0,0.01 0,0.02 -0.01,0.02 -0.02,0.02 -0.05,0.02 -0.06,0 -0.01,0 -0.02,-0.01 -0.02,-0.02zm-0.09 0.63l-0.03 0 0 0c-0.04,0 -0.1,-0.02 -0.14,-0.03 -0.03,-0.01 -0.08,-0.05 -0.08,-0.09l0 -0.36c0,-0.01 0.01,-0.02 0.01,-0.03l0.02 -0.01c0.01,-0.02 0.03,-0.03 0.04,-0.03 0.09,-0.04 0.23,-0.04 0.31,-0.01l0.02 0.01c0,0 0.01,0 0.01,0.01 0.01,0 0.01,0 0.02,0 0,0.01 0.01,0.02 0.02,0.03 0,0 0.01,0.01 0.01,0.02 0,0 0,0 0,0 0.01,0.01 0.01,0.02 0.01,0.02l0 0.35c0,0.01 -0.01,0.02 -0.01,0.03 0,0.01 -0.01,0.02 -0.02,0.02 0,0.01 0,0.01 0,0.01l-0.02 0.01c0,0 -0.01,0.01 -0.01,0.01 -0.03,0.01 -0.05,0.02 -0.08,0.03 -0.04,0 -0.05,0.01 -0.08,0.01l0 0zm-0.02 -0.19c-0.01,0 -0.03,0 -0.05,0 -0.01,0 -0.02,-0.01 -0.03,-0.01 -0.01,0 -0.07,-0.02 -0.08,-0.03 0,-0.01 0,-0.02 0,-0.03l0.03 0.01c0.02,0 0.03,0.01 0.04,0.01 0.04,0.01 0.06,0.01 0.1,0.01 0.02,0 0.03,0 0.05,0 0.01,-0.01 0.02,-0.01 0.04,-0.01 0.01,0 0.02,-0.01 0.03,-0.01 0.02,0 0.02,-0.01 0.03,-0.01 0.01,0 0.01,-0.01 0.01,0.01 0,0.01 -0.01,0.02 -0.01,0.02 -0.01,0.01 -0.01,0.01 -0.02,0.01 -0.01,0.01 -0.02,0.01 -0.04,0.02 -0.03,0.01 -0.06,0.01 -0.1,0.01l0 0zm0.01 -0.11c-0.05,0 -0.12,-0.01 -0.15,-0.04 -0.02,-0.01 -0.02,-0.01 -0.02,-0.04 0,0 0.01,0.01 0.01,0.01 0.02,0.01 0.04,0.01 0.06,0.02 0.06,0.01 0.12,0.01 0.18,0 0.02,-0.01 0.03,-0.01 0.04,-0.01l0.04 -0.02c0,0.01 0,0.02 -0.01,0.03 0,0.02 -0.03,0.03 -0.05,0.03 -0.03,0.01 -0.07,0.02 -0.1,0.02l0 0zm-0.01 -0.21c0.05,0 0.08,0 0.12,0.01 0.01,0.01 0.04,0.02 0.04,0.04 0,0.01 -0.04,0.02 -0.05,0.03 -0.01,0 -0.03,0.01 -0.04,0.01 -0.01,0 -0.01,0 -0.02,0 -0.02,0 -0.04,0 -0.07,0 -0.04,0 -0.08,-0.01 -0.12,-0.03 0,0 -0.01,0 -0.02,-0.01 0,-0.01 0,-0.01 0,-0.01 0.01,-0.01 0.03,-0.02 0.03,-0.02 0.02,-0.01 0.03,-0.01 0.04,-0.01 0.03,-0.01 0.06,-0.01 0.09,-0.01l0 0z"/>
 </g>
</svg>
