<?xml version="1.0" encoding="UTF-8"?>
<!DOCTYPE svg PUBLIC "-//W3C//DTD SVG 1.0//EN" "http://www.w3.org/TR/2001/REC-SVG-20010904/DTD/svg10.dtd">
<!-- Creator: CorelDRAW 2018 (64 Bit Versão de avaliação) -->
<svg xmlns="http://www.w3.org/2000/svg" xml:space="preserve" width="42px" height="41px" version="1.0" shape-rendering="geometricPrecision" text-rendering="geometricPrecision" image-rendering="optimizeQuality" fill-rule="evenodd" clip-rule="evenodd"
viewBox="0 0 3.61 3.53"
 xmlns:xlink="http://www.w3.org/1999/xlink">
 <g id="Camada_x0020_1">
  <metadata id="CorelCorpID_0Corel-Layer"/>
  <path fill="#292929" d="M2.92 2.68c-0.03,0.1 -0.08,0.16 -0.15,0.21 -0.06,0.05 -0.16,0.1 -0.23,0.14 -0.18,0.08 -0.36,0.13 -0.58,0.15 -0.33,0.03 -0.62,-0.06 -0.88,-0.22 -0.11,-0.06 -0.17,-0.11 -0.26,-0.19 -0.06,-0.06 -0.08,-0.08 -0.13,-0.15 -0.06,-0.05 -0.11,-0.14 -0.15,-0.21 -0.21,-0.36 -0.25,-0.8 -0.13,-1.21 0.06,-0.2 0.09,-0.28 0.24,-0.39 0.04,-0.03 0.04,-0.02 0.06,-0.04l0.01 0.02c0.05,0.08 0.05,0.08 0.06,0.17 0.02,0.25 0.06,0.39 0.16,0.61 0.05,0.12 0.13,0.24 0.19,0.32l0.09 0.11c0.03,0.05 0.09,0.11 0.12,0.14l0.1 0.09c0.02,0.02 0.04,0.04 0.07,0.06 0.42,0.32 0.88,0.38 1.41,0.39zm-1.69 -2.5c0.03,-0.17 -0.12,-0.21 -0.26,-0.16 -0.11,0.04 -0.21,0.12 -0.28,0.18 -0.07,0.05 -0.2,0.17 -0.24,0.23 -0.04,0.04 -0.07,0.08 -0.1,0.13 -0.03,0.04 -0.07,0.09 -0.09,0.14 -0.24,0.42 -0.35,0.99 -0.18,1.52 0.09,0.27 0.2,0.47 0.38,0.68 0.06,0.07 0.06,0.06 0.11,0.11l0.06 0.06c0.01,0.01 0.02,0.02 0.03,0.03l0.1 0.07c0.04,0.04 0.09,0.07 0.14,0.1 0.4,0.23 1,0.34 1.52,0.18 0.24,-0.07 0.44,-0.19 0.61,-0.32 0.04,-0.03 0.08,-0.07 0.12,-0.1 0.01,-0.01 0.02,-0.02 0.03,-0.03 0.02,-0.01 0.02,-0.02 0.03,-0.03l0.16 -0.19c0.08,-0.12 0.23,-0.32 0.24,-0.46 0,-0.07 -0.02,-0.14 -0.06,-0.17 -0.05,-0.03 -0.15,-0.01 -0.2,0 -0.12,0.03 -0.22,0.09 -0.34,0.12 -0.14,0.04 -0.27,0.05 -0.43,0.05 -0.28,-0.01 -0.52,-0.09 -0.72,-0.21 -0.09,-0.06 -0.17,-0.14 -0.26,-0.21l-0.11 -0.11c-0.03,-0.03 -0.08,-0.1 -0.11,-0.13 -0.12,-0.18 -0.21,-0.42 -0.25,-0.68 -0.02,-0.14 -0.02,-0.3 0.01,-0.44 0.02,-0.13 0.07,-0.24 0.09,-0.36z"/>
 </g>
</svg>
