<?xml version="1.0" encoding="UTF-8"?>
<!DOCTYPE svg PUBLIC "-//W3C//DTD SVG 1.0//EN" "http://www.w3.org/TR/2001/REC-SVG-20010904/DTD/svg10.dtd">
<!-- Creator: CorelDRAW 2018 (64 Bit Versão de avaliação) -->
<svg xmlns="http://www.w3.org/2000/svg" xml:space="preserve" width="41px" height="41px" version="1.0" shape-rendering="geometricPrecision" text-rendering="geometricPrecision" image-rendering="optimizeQuality" fill-rule="evenodd" clip-rule="evenodd"
viewBox="0 0 17.17 17.17"
 xmlns:xlink="http://www.w3.org/1999/xlink">
 <g id="Camada_x0020_1">
  <metadata id="CorelCorpID_0Corel-Layer"/>
  <path fill="black" d="M0 8.54c0,0.43 0.23,0.57 0.52,0.86 0.22,0.22 0.42,0.43 0.65,0.65l0.96 0.96c0.4,0.31 0.61,0.27 0.99,-0.12 0.08,-0.07 0.15,-0.13 0.21,-0.22 0.07,-0.09 0.09,-0.24 0.09,-0.34 0,-0.2 -0.18,-0.41 -0.31,-0.56 -0.14,-0.16 -0.37,-0.33 -0.43,-0.43 0.32,0 0.64,0 0.96,0 0.4,0 1.55,0.09 1.83,-0.05 0.11,-0.05 0.19,-0.14 0.24,-0.25 0.04,-0.1 0.07,-0.3 0.07,-0.42 0.01,-0.28 -0.03,-0.56 -0.26,-0.7 -0.24,-0.14 -0.52,-0.11 -0.88,-0.11 -0.27,0 -1.82,-0.03 -1.93,0.02 0.03,-0.08 0.04,-0.06 0.11,-0.11 0.43,-0.38 0.98,-0.85 0.33,-1.47 -0.14,-0.14 -0.34,-0.25 -0.59,-0.25 -0.16,0 -0.32,0.14 -0.41,0.22 -0.43,0.37 -0.56,0.54 -0.96,0.95 -0.22,0.21 -0.43,0.42 -0.64,0.64 -0.16,0.15 -0.55,0.47 -0.55,0.73zm7.16 -0.1c0,0.52 0.06,0.8 0.4,1.14 0.53,0.53 1.33,0.58 1.88,0.16 0.53,-0.41 0.74,-1.04 0.47,-1.69 -0.17,-0.43 -0.66,-0.89 -1.16,-0.89 -0.51,0 -0.79,0.03 -1.15,0.4 -0.19,0.19 -0.44,0.52 -0.44,0.88zm-1.18 -5.9c0,0.28 0.13,0.41 0.29,0.57 0.44,0.44 0.71,0.39 1.1,-0.01 0.13,-0.12 0.38,-0.42 0.46,-0.44 0,0.32 0,0.64 0,0.96 0,0.39 -0.08,1.57 0.05,1.85 0.05,0.11 0.14,0.19 0.26,0.24 0.2,0.09 0.69,0.09 0.85,0.03 0.41,-0.15 0.37,-0.67 0.37,-1.1 0,-0.17 -0.02,-0.3 -0.02,-0.45l0 -1.48c0.09,0.06 0.14,0.14 0.22,0.21 0.26,0.26 0.4,0.52 0.87,0.52 0.29,0 0.76,-0.54 0.76,-0.78 0,-0.4 -0.29,-0.58 -0.53,-0.83l-1.28 -1.27c-0.13,-0.13 -0.53,-0.56 -0.72,-0.56 -0.45,0 -0.53,0.16 -0.89,0.53l-0.95 0.94c-0.3,0.3 -0.84,0.72 -0.84,1.07zm1.85 12c-0.21,-0.14 -0.55,-0.72 -0.95,-0.78 -0.3,-0.05 -0.9,0.39 -0.9,0.9 0,0.31 0.58,0.79 0.84,1.04l0.95 0.95c0.11,0.11 0.2,0.2 0.31,0.31 0.13,0.13 0.26,0.2 0.38,0.21l0.15 0c0.21,-0.02 0.41,-0.17 0.59,-0.35 0.06,-0.07 0.09,-0.12 0.16,-0.18 0.26,-0.26 0.44,-0.47 0.73,-0.71l0.87 -0.9c0.11,-0.15 0.23,-0.23 0.23,-0.45 0,-0.36 -0.41,-0.85 -0.9,-0.85 -0.35,0 -0.71,0.57 -0.95,0.73 0,-0.32 0,-0.64 0,-0.96 0,-0.39 0.1,-1.56 -0.07,-1.84 -0.06,-0.1 -0.16,-0.17 -0.28,-0.21 -0.19,-0.07 -0.8,-0.12 -0.99,0.09 -0.29,0.33 -0.17,1.07 -0.17,1.52l0 1.48zm5.9 -7.79c0,0.29 0.1,0.46 0.28,0.66 0.09,0.09 0.42,0.33 0.45,0.42 -0.32,0 -0.64,0 -0.96,0 -0.39,0 -1.54,-0.09 -1.83,0.07 -0.1,0.06 -0.18,0.15 -0.22,0.27 -0.07,0.19 -0.07,0.69 -0.01,0.85 0.22,0.49 1.08,0.32 1.58,0.32l1.48 0c-0.06,0.09 -0.31,0.31 -0.43,0.42 -0.39,0.39 -0.42,0.75 -0.04,1.13 0.1,0.11 0.36,0.32 0.55,0.32 0.41,0 1.16,-0.89 1.42,-1.15 0.35,-0.36 0.58,-0.52 0.95,-0.98 0.14,-0.16 0.21,-0.3 0.22,-0.43l0 -0.12c-0.03,-0.26 -0.27,-0.46 -0.52,-0.71l-1.62 -1.62c-0.19,-0.15 -0.28,-0.2 -0.55,-0.2 -0.26,0 -0.75,0.48 -0.75,0.75z"/>
 </g>
</svg>
