<?xml version="1.0" encoding="UTF-8"?>
<!DOCTYPE svg PUBLIC "-//W3C//DTD SVG 1.0//EN" "http://www.w3.org/TR/2001/REC-SVG-20010904/DTD/svg10.dtd">
<!-- Creator: CorelDRAW 2018 (64 Bit Versão de avaliação) -->
<svg xmlns="http://www.w3.org/2000/svg" xml:space="preserve" width="41px" height="41px" version="1.0" shape-rendering="geometricPrecision" text-rendering="geometricPrecision" image-rendering="optimizeQuality" fill-rule="evenodd" clip-rule="evenodd"
viewBox="0 0 0.75 0.75"
 xmlns:xlink="http://www.w3.org/1999/xlink">
 <g id="Camada_x0020_1">
  <metadata id="CorelCorpID_0Corel-Layer"/>
  <g id="_2289732531488">
   <g>
    <path fill="#292929" d="M0.06 0.34c0,-0.03 0.01,-0.09 0.03,-0.11 0.04,-0.09 0.13,-0.16 0.23,-0.16 0.08,0 0.12,0 0.18,0.05 0.11,0.07 0.15,0.22 0.09,0.34 -0.02,0.03 -0.04,0.05 -0.06,0.08 -0.1,0.1 -0.27,0.1 -0.37,0.01 -0.03,-0.03 -0.02,-0.02 -0.05,-0.05 -0.03,-0.05 -0.05,-0.11 -0.05,-0.16zm0.26 -0.34l0.04 0c0.04,0 0.08,0.01 0.12,0.03 0.16,0.08 0.23,0.24 0.19,0.4 -0.03,0.08 -0.06,0.11 -0.11,0.16l-0.02 0.02c0,0 0,0 0,0.01 0.06,0 0.13,-0.02 0.17,0.02 0.07,0.06 0.04,0.13 0,0.11 -0.04,-0.02 0.01,-0.07 -0.08,-0.07 -0.02,0 -0.05,0 -0.07,0 -0.17,0 -0.32,0.02 -0.44,-0.08 -0.03,-0.02 -0.01,-0.01 -0.04,-0.04 -0.06,-0.07 -0.08,-0.14 -0.08,-0.24 0,-0.05 0.02,-0.1 0.04,-0.13 0.05,-0.11 0.16,-0.18 0.28,-0.19z"/>
    <path fill="#292929" d="M0.45 0.34c0,-0.05 0.08,-0.06 0.08,0 0,0.05 -0.08,0.06 -0.08,0zm-0.06 -0.01c0,0.17 0.26,0.13 0.2,-0.03 -0.02,-0.06 -0.11,-0.09 -0.17,-0.04 -0.01,0.02 -0.03,0.05 -0.03,0.07z"/>
    <path fill="#292929" d="M0.34 0.45c0.05,0 0.06,0.08 -0.01,0.08 -0.04,0 -0.04,-0.08 0.01,-0.08zm-0.11 0.04c0,0.15 0.21,0.13 0.21,0.01l0 -0.01c0,-0.06 -0.05,-0.1 -0.1,-0.1 -0.04,0 -0.06,0.01 -0.07,0.03 -0.02,0.01 -0.04,0.04 -0.04,0.07z"/>
    <path fill="#292929" d="M0.18 0.3c0.06,0 0.06,0.08 0,0.08 -0.05,0 -0.05,-0.08 0,-0.08zm-0.1 0.03c0,0.04 0.01,0.07 0.03,0.08 0.03,0.03 0.03,0.03 0.08,0.03 0.08,0.01 0.14,-0.11 0.07,-0.18 -0.04,-0.03 -0.1,-0.04 -0.15,0 -0.01,0.02 -0.03,0.05 -0.03,0.07z"/>
    <path fill="#292929" d="M0.34 0.23c-0.05,0 -0.06,-0.08 0,-0.08 0.05,0 0.06,0.08 0,0.08zm-0.11 -0.05c0,0.09 0.1,0.15 0.18,0.08 0.04,-0.03 0.05,-0.11 0,-0.15 -0.07,-0.07 -0.18,-0.01 -0.18,0.07z"/>
    <path fill="#292929" d="M0.3 0.34c0,0.06 0.08,0.05 0.08,0 0,-0.06 -0.08,-0.06 -0.08,0z"/>
   </g>
  </g>
 </g>
</svg>
