<?xml version="1.0" encoding="UTF-8"?>
<!DOCTYPE svg PUBLIC "-//W3C//DTD SVG 1.0//EN" "http://www.w3.org/TR/2001/REC-SVG-20010904/DTD/svg10.dtd">
<!-- Creator: CorelDRAW 2018 (64 Bit Versão de avaliação) -->
<svg xmlns="http://www.w3.org/2000/svg" xml:space="preserve" width="41px" height="41px" version="1.0" shape-rendering="geometricPrecision" text-rendering="geometricPrecision" image-rendering="optimizeQuality" fill-rule="evenodd" clip-rule="evenodd"
viewBox="0 0 0.91 0.91"
 xmlns:xlink="http://www.w3.org/1999/xlink">
 <g id="Camada_x0020_1">
  <metadata id="CorelCorpID_0Corel-Layer"/>
  <g id="_2318437120496">
   <g>
    <path fill="black" d="M0.91 0.03c0,0.01 0,0.01 -0.01,0.02 0,0.01 0,0.01 -0.01,0.02l-0.82 0.82c-0.02,0.01 -0.02,0.02 -0.04,0.02 -0.02,0 -0.03,-0.01 -0.03,-0.03 0,-0.02 0.03,-0.04 0.04,-0.06 0.02,-0.02 0.15,-0.14 0.16,-0.15l-0.03 -0.04c-0.03,-0.06 -0.05,-0.11 -0.05,-0.18 0,-0.02 0.04,-0.04 0.06,-0.01 0,0.01 0,0.04 0.01,0.06 0,0.02 0.01,0.04 0.01,0.06 0.01,0 0.01,0.01 0.01,0.02 0.01,0.01 0.01,0.02 0.02,0.02 0,0.01 0.01,0.02 0.01,0.03 0.01,-0.01 0.03,-0.03 0.04,-0.04 0,0 0,0 0.01,-0.01l0 0c0.01,-0.01 0.02,-0.02 0.03,-0.03 -0.01,-0.02 -0.02,-0.02 -0.03,-0.05 -0.01,-0.02 -0.02,-0.04 -0.02,-0.07l0 -0.26c0,-0.04 0.03,-0.09 0.06,-0.12 0.03,-0.03 0.07,-0.05 0.12,-0.05 0.06,0 0.11,0.02 0.15,0.07 0.04,0.05 0.04,0.09 0.04,0.16l0.05 -0.06c0,0 0,0 0,0l0.03 -0.02c0.03,-0.03 0.12,-0.13 0.14,-0.14 0.02,-0.02 0.05,0 0.05,0.02z"/>
    <path fill="black" d="M0.79 0.45c0,0.06 -0.01,0.1 -0.03,0.15 -0.03,0.06 -0.09,0.12 -0.15,0.16l-0.06 0.02c-0.02,0 -0.04,0.01 -0.06,0.01l0 0.1c0,0.01 -0.02,0.02 -0.04,0.02 -0.01,0 -0.02,-0.01 -0.02,-0.02l0 -0.1c-0.06,0 -0.13,-0.04 -0.14,-0.04 0.01,0 0.05,-0.05 0.05,-0.05 0.01,0 0.11,0.06 0.24,0 0.07,-0.04 0.13,-0.11 0.14,-0.19 0.01,-0.02 0.01,-0.06 0.01,-0.07 0.02,-0.03 0.06,-0.01 0.06,0.01z"/>
    <path fill="black" d="M0.43 0.61l0.21 -0.21c0,0.05 0,0.09 -0.03,0.13 -0.01,0 -0.01,0.01 -0.01,0.01l-0.03 0.03c0,0 -0.01,0 -0.01,0.01 -0.04,0.03 -0.08,0.03 -0.13,0.03z"/>
   </g>
  </g>
 </g>
</svg>
