<?xml version="1.0" encoding="UTF-8"?>
<!DOCTYPE svg PUBLIC "-//W3C//DTD SVG 1.0//EN" "http://www.w3.org/TR/2001/REC-SVG-20010904/DTD/svg10.dtd">
<!-- Creator: CorelDRAW 2018 (64 Bit Versão de avaliação) -->
<svg xmlns="http://www.w3.org/2000/svg" xml:space="preserve" width="44px" height="41px" version="1.0" shape-rendering="geometricPrecision" text-rendering="geometricPrecision" image-rendering="optimizeQuality" fill-rule="evenodd" clip-rule="evenodd"
viewBox="0 0 1.33 1.24"
 xmlns:xlink="http://www.w3.org/1999/xlink">
 <g id="Camada_x0020_1">
  <metadata id="CorelCorpID_0Corel-Layer"/>
  <g id="_2039424152704">
   <g>
    <path fill="black" d="M0.24 0.72c0,0.01 0.06,0.16 0.07,0.18l-0.2 0 0.04 -0.2c0.01,-0.07 0.01,-0.14 0.03,-0.21 0,-0.02 0.01,-0.04 0.02,-0.04 0.02,-0.03 0.07,-0.02 0.08,0 0,0.02 -0.04,0.22 -0.04,0.27zm-0.24 0.23c0,0.06 0.06,0.05 0.08,0.05 0,0.01 0,0.03 -0.01,0.05 0,0.01 0,0.03 -0.01,0.04 0,0.03 -0.01,0.08 -0.01,0.11 0,0.04 0.07,0.06 0.09,0l0.04 -0.2 0.15 0 0 0.2c0,0.02 0.02,0.04 0.06,0.04 0.02,0 0.04,-0.03 0.04,-0.04l0 -0.25c0,-0.02 -0.03,-0.08 -0.03,-0.09l-0.06 -0.14c-0.01,-0.02 0.01,-0.07 0.01,-0.1 0,-0.02 0.01,-0.04 0.01,-0.06 0.01,0.01 0.02,0.03 0.03,0.04 0.04,0.04 0.08,0.07 0.14,0.07 0.05,0 0.06,-0.08 0.01,-0.1 -0.02,0 -0.03,0 -0.06,-0.02 -0.02,-0.02 -0.05,-0.05 -0.07,-0.08 -0.02,-0.03 -0.04,-0.06 -0.06,-0.09 -0.04,-0.04 -0.07,-0.05 -0.12,-0.05 -0.05,0 -0.11,0.04 -0.13,0.09 -0.02,0.04 -0.04,0.21 -0.05,0.26 -0.01,0.05 -0.05,0.24 -0.05,0.27z"/>
    <path fill="black" d="M1.2 0.86l-0.35 0c0,-0.02 -0.01,-0.04 -0.01,-0.05 0,-0.02 0,-0.03 0,-0.05l0.38 0 -0.02 0.1zm-0.11 -0.33c0.04,0 0.08,0.02 0.1,0.04 0.02,0.02 0.04,0.07 0.04,0.1l-0.14 0 0 -0.14zm-0.09 -0.06l0 0.2 -0.18 0c0,-0.03 -0.01,-0.1 -0.05,-0.1l-0.11 0c-0.04,0 -0.06,0.08 -0.01,0.09 0.02,0.01 0.05,0.01 0.07,0.01l0.03 0.17c0.01,0.05 0.01,0.07 0.05,0.1 0.01,0.01 0.03,0.01 0.04,0.01l0.37 0c0.02,0 0.05,-0.01 0.06,-0.03 0.02,-0.01 0.02,-0.03 0.03,-0.06 0.01,-0.04 0.03,-0.12 0.03,-0.16 0,-0.16 -0.11,-0.27 -0.27,-0.27l-0.02 0c-0.02,0 -0.04,0.02 -0.04,0.04z"/>
    <path fill="black" d="M0.24 0.15c0,-0.01 0.01,-0.03 0.01,-0.04 0.03,-0.03 0.08,-0.01 0.08,0.03 0.01,0.06 -0.08,0.07 -0.09,0.01zm-0.09 -0.05c-0.04,0 -0.08,0.03 -0.1,0.06 -0.01,0.02 -0.02,0.04 -0.02,0.06 -0.02,0.05 -0.03,0.03 -0.03,0.07 0,0.05 0.08,0.08 0.11,-0.02 0.01,-0.04 0.01,-0.07 0.04,-0.07 0.01,0.02 0.03,0.04 0.05,0.06 0.03,0.02 0.06,0.03 0.1,0.03 0.06,0 0.13,-0.07 0.13,-0.14l0 -0.02c0,-0.06 -0.07,-0.13 -0.13,-0.13 -0.05,0 -0.08,0.01 -0.12,0.05 -0.01,0.01 -0.03,0.03 -0.03,0.05z"/>
    <path fill="black" d="M0.86 1.12c0,-0.03 0.04,-0.03 0.04,0 0,0.03 -0.04,0.03 -0.04,0zm-0.1 -0.01l0 0.02c0,0.05 0.06,0.11 0.11,0.11l0.02 0c0.05,0 0.11,-0.06 0.11,-0.11l0 -0.02c0,-0.06 -0.06,-0.11 -0.11,-0.11l-0.02 0c-0.05,0 -0.11,0.05 -0.11,0.11z"/>
    <path fill="black" d="M1.14 1.12c0,-0.03 0.05,-0.03 0.05,0 0,0.03 -0.05,0.03 -0.05,0zm-0.09 -0.01l0 0.02c0,0.05 0.05,0.11 0.11,0.11l0.01 0c0.06,0 0.11,-0.06 0.11,-0.11l0 -0.02c0,-0.06 -0.05,-0.11 -0.11,-0.11l-0.01 0c-0.06,0 -0.11,0.05 -0.11,0.11z"/>
   </g>
  </g>
 </g>
</svg>
