<?xml version="1.0" encoding="UTF-8"?>
<!DOCTYPE svg PUBLIC "-//W3C//DTD SVG 1.0//EN" "http://www.w3.org/TR/2001/REC-SVG-20010904/DTD/svg10.dtd">
<!-- Creator: CorelDRAW 2018 (64 Bit Versão de avaliação) -->
<svg xmlns="http://www.w3.org/2000/svg" xml:space="preserve" width="41px" height="41px" version="1.0" shape-rendering="geometricPrecision" text-rendering="geometricPrecision" image-rendering="optimizeQuality" fill-rule="evenodd" clip-rule="evenodd"
viewBox="0 0 1.58 1.58"
 xmlns:xlink="http://www.w3.org/1999/xlink">
 <g id="Camada_x0020_1">
  <metadata id="CorelCorpID_0Corel-Layer"/>
  <path fill="#292929" d="M1.38 1.44c-0.03,0 -0.04,-0.03 -0.04,-0.06 0,-0.05 0.1,-0.06 0.1,0.01 0,0.03 -0.02,0.05 -0.06,0.05zm-0.06 -1.44l0.05 0c0.05,0.01 0.1,0.03 0.14,0.07 0.04,0.04 0.06,0.09 0.07,0.15l0 0.04c-0.01,0.04 -0.02,0.08 -0.05,0.11 -0.07,0.1 -0.19,0.13 -0.3,0.07 -0.01,0.02 -0.06,0.07 -0.08,0.08 0.01,0.02 0.03,0.03 0.04,0.05 0.07,0.14 0.07,0.3 -0.01,0.44 -0.01,0.02 -0.02,0.03 -0.03,0.05 0.02,0.02 0.14,0.12 0.16,0.16 0.09,-0.04 0.21,0 0.25,0.09 0.01,0.03 0.02,0.05 0.02,0.09l0 0.01c0,0.08 -0.09,0.17 -0.17,0.17 -0.06,0 -0.12,-0.01 -0.16,-0.06 -0.02,-0.03 -0.05,-0.07 -0.05,-0.13 0,-0.05 0.01,-0.04 0.02,-0.08 -0.02,-0.01 -0.03,-0.03 -0.04,-0.04 -0.03,-0.02 -0.11,-0.1 -0.12,-0.12 -0.02,0.01 -0.04,0.03 -0.06,0.04 -0.01,0 -0.02,0 -0.03,0.01 -0.04,0.02 -0.1,0.04 -0.17,0.04 -0.12,0 -0.18,-0.02 -0.28,-0.09 -0.01,0.01 -0.07,0.07 -0.08,0.08 0.01,0.02 0.01,0.03 0.02,0.04 0.02,0.07 0.01,0.16 -0.04,0.21 -0.05,0.07 -0.11,0.1 -0.2,0.1 -0.12,0 -0.21,-0.1 -0.22,-0.22l0 -0.04c0,-0.05 0.02,-0.1 0.07,-0.14 0,-0.01 0.02,-0.02 0.02,-0.03 0.08,-0.06 0.18,-0.06 0.26,-0.01l0.03 -0.05c0.02,-0.01 0.03,-0.02 0.04,-0.03 -0.01,-0.02 -0.02,-0.04 -0.03,-0.06 -0.07,-0.11 -0.07,-0.25 -0.02,-0.37 0.02,-0.07 0.05,-0.1 0.05,-0.11 -0.01,-0.03 -0.13,-0.12 -0.16,-0.16 -0.08,0.04 -0.2,0 -0.24,-0.09 -0.02,-0.03 -0.02,-0.06 -0.02,-0.09l0 -0.01c0,-0.08 0.09,-0.17 0.17,-0.17l0 0c0.05,0 0.11,0 0.15,0.06 0.02,0.02 0.03,0.03 0.04,0.05 0.03,0.07 0.01,0.1 0,0.16 0.02,0.01 0.15,0.14 0.16,0.15 0.02,-0.01 0.03,-0.02 0.05,-0.03 0.12,-0.06 0.25,-0.07 0.38,-0.03 0.04,0.02 0.08,0.04 0.11,0.06 0,0 0.07,-0.07 0.07,-0.08 0,-0.01 -0.01,-0.02 -0.01,-0.04 -0.03,-0.08 0,-0.17 0.05,-0.23 0.04,-0.04 0.09,-0.06 0.15,-0.07zm-1.08 1.44c-0.12,0 -0.14,-0.15 -0.05,-0.19 0.08,-0.03 0.14,0.02 0.15,0.09 0,0.05 -0.05,0.1 -0.1,0.1zm0.71 -0.38c-0.02,0.01 -0.05,0.03 -0.07,0.03 -0.09,0.03 -0.19,0.01 -0.25,-0.03 0.03,-0.07 0.07,-0.1 0.16,-0.11 0.03,0 0.08,0.02 0.1,0.03 0.03,0.03 0.04,0.05 0.06,0.08zm-0.17 -0.4c0.04,0 0.07,0.02 0.08,0.05 0.03,0.08 -0.07,0.14 -0.13,0.09 -0.05,-0.05 -0.01,-0.14 0.05,-0.14zm-0.2 0.06c0,0.11 0.03,0.12 0.04,0.15 -0.04,0.01 -0.08,0.07 -0.1,0.1 0,-0.03 -0.04,-0.07 -0.05,-0.14 -0.03,-0.32 0.33,-0.45 0.52,-0.29 0.03,0.03 0.03,0.02 0.06,0.07 0.05,0.07 0.05,0.12 0.05,0.2 0,0.03 0,0.06 -0.01,0.09 -0.02,0.03 -0.03,0.05 -0.04,0.07l-0.01 -0.02c-0.01,-0.02 -0.06,-0.07 -0.08,-0.08 0,-0.01 0.01,-0.02 0.01,-0.03 0.08,-0.14 -0.03,-0.31 -0.18,-0.31 -0.11,0 -0.21,0.09 -0.21,0.19zm0.66 -0.48c0,-0.1 0.11,-0.14 0.17,-0.08 0.08,0.07 0.01,0.18 -0.07,0.18 -0.06,-0.01 -0.1,-0.05 -0.1,-0.1zm-1.11 -0.06c0,-0.03 0.03,-0.05 0.06,-0.05 0.05,0 0.06,0.07 0.03,0.1 -0.03,0.03 -0.09,0 -0.09,-0.05z"/>
 </g>
</svg>
