<?xml version="1.0" encoding="UTF-8"?>
<!DOCTYPE svg PUBLIC "-//W3C//DTD SVG 1.0//EN" "http://www.w3.org/TR/2001/REC-SVG-20010904/DTD/svg10.dtd">
<!-- Creator: CorelDRAW 2018 (64 Bit Versão de avaliação) -->
<svg xmlns="http://www.w3.org/2000/svg" xml:space="preserve" width="47px" height="41px" version="1.0" shape-rendering="geometricPrecision" text-rendering="geometricPrecision" image-rendering="optimizeQuality" fill-rule="evenodd" clip-rule="evenodd"
viewBox="0 0 0.98 0.86"
 xmlns:xlink="http://www.w3.org/1999/xlink">
 <g id="Camada_x0020_1">
  <metadata id="CorelCorpID_0Corel-Layer"/>
  <g id="_2149570953008">
   <g>
    <path fill="#292929" d="M0.86 0.79c-0.01,0 -0.03,0 -0.04,-0.02 0,-0.01 -0.01,-0.02 -0.01,-0.04l0 -0.49 0.1 0 0 0.49c0,0.03 -0.02,0.06 -0.05,0.06zm-0.79 -0.08l0 -0.64 0.67 0 0 0.68c0,0.02 0,0.03 0.01,0.04l-0.57 0c-0.04,0 -0.08,0 -0.1,-0.04 0,-0.01 -0.01,-0.02 -0.01,-0.04zm-0.07 -0.67l0 0.67c0,0.04 0.01,0.08 0.04,0.1 0.02,0.03 0.06,0.05 0.1,0.05l0.73 0c0.04,0 0.08,-0.03 0.1,-0.07 0,0 0.01,-0.03 0.01,-0.04l0 -0.55c0,-0.02 -0.02,-0.03 -0.04,-0.03l-0.13 0 0 -0.14c0,-0.01 -0.01,-0.03 -0.03,-0.03l-0.75 0c-0.02,0 -0.03,0.02 -0.03,0.04z"/>
    <path fill="#292929" d="M0.19 0.18l0.44 0 0 0.04 -0.44 0 0 -0.04zm-0.08 -0.03l0 0.11c0,0.02 0.02,0.04 0.04,0.04l0.51 0c0.02,0 0.04,-0.02 0.04,-0.03l0 -0.13c0,-0.02 -0.03,-0.03 -0.05,-0.03l-0.49 0c-0.03,0 -0.05,0.02 -0.05,0.04z"/>
    <path fill="#292929" d="M0.11 0.6c0,0.02 0.01,0.04 0.03,0.04l0.53 0c0.04,0 0.04,-0.08 0,-0.08l-0.52 0c-0.02,0 -0.03,0.01 -0.03,0.02 0,0 -0.01,0.01 -0.01,0.02z"/>
    <path fill="#292929" d="M0.14 0.75l0.53 0c0.01,0 0.02,-0.01 0.02,-0.01 0.01,-0.02 0.01,-0.06 -0.02,-0.06l-0.53 0c-0.01,0 -0.04,0.02 -0.02,0.06 0,0 0.01,0.01 0.02,0.01z"/>
    <path fill="#292929" d="M0.19 0.41l0.09 0 0 0.04 -0.09 0 0 -0.04zm-0.08 -0.04l0 0.12c0,0.01 0.01,0.02 0.02,0.02 0,0.01 0.01,0.01 0.03,0.01l0.15 0c0.03,0 0.05,-0.01 0.05,-0.04l0 -0.1c0,-0.02 -0.02,-0.04 -0.04,-0.04l-0.17 0c-0.02,0 -0.04,0.01 -0.04,0.03z"/>
    <path fill="#292929" d="M0.4 0.48c0,0.02 0,0.03 0.01,0.03 0.01,0.01 0.02,0.01 0.03,0.01l0.21 0c0.02,0 0.03,0 0.03,0 0.03,-0.02 0.02,-0.07 -0.02,-0.07l-0.23 0c-0.01,0 -0.03,0.02 -0.03,0.03z"/>
    <path fill="#292929" d="M0.4 0.37c0,0.02 0.01,0.04 0.04,0.04l0.22 0c0.05,0 0.05,-0.07 0,-0.07l-0.22 0c-0.02,0 -0.02,0 -0.03,0.01 0,0 -0.01,0.01 -0.01,0.02z"/>
   </g>
  </g>
 </g>
</svg>
