<?xml version="1.0" encoding="UTF-8"?>
<!DOCTYPE svg PUBLIC "-//W3C//DTD SVG 1.0//EN" "http://www.w3.org/TR/2001/REC-SVG-20010904/DTD/svg10.dtd">
<!-- Creator: CorelDRAW 2018 (64 Bit Versão de avaliação) -->
<svg xmlns="http://www.w3.org/2000/svg" xml:space="preserve" width="23px" height="42px" version="1.0" shape-rendering="geometricPrecision" text-rendering="geometricPrecision" image-rendering="optimizeQuality" fill-rule="evenodd" clip-rule="evenodd"
viewBox="0 0 0.6 1.08"
 xmlns:xlink="http://www.w3.org/1999/xlink">
 <g id="Camada_x0020_1">
  <metadata id="CorelCorpID_0Corel-Layer"/>
  <path fill="black" d="M0.45 0.54l0 0c-0.01,0.01 -0.01,0 -0.02,0.02 0,0 -0.01,0.01 -0.01,0.01l-0.1 0.1c-0.02,0.03 -0.05,0.05 -0.07,0.07 -0.01,0.01 -0.02,0.02 -0.03,0.03l-0.02 0.02c0,0.01 -0.01,0.01 -0.02,0.02 -0.02,0.03 -0.05,0.05 -0.08,0.08 -0.01,0.01 -0.02,0.02 -0.03,0.03 -0.01,0.01 -0.04,0.04 -0.05,0.05 -0.01,0.01 -0.02,0.03 -0.02,0.05 0,0.05 0.07,0.08 0.12,0.03l0.03 -0.03c0.07,-0.07 0.13,-0.14 0.2,-0.2 0.04,-0.05 0.09,-0.09 0.13,-0.14 0.02,-0.02 0.05,-0.04 0.07,-0.06l0.03 -0.04c0.01,-0.01 0.02,-0.02 0.02,-0.05 0,-0.03 -0.03,-0.05 -0.06,-0.07 -0.02,-0.03 -0.04,-0.05 -0.06,-0.07l-0.27 -0.26c-0.03,-0.03 -0.05,-0.06 -0.08,-0.09 0,0 -0.01,0 -0.01,-0.01 0,0 0,0 -0.01,0 -0.01,-0.01 -0.02,-0.03 -0.04,-0.03 -0.04,-0.01 -0.07,0.02 -0.07,0.06 0,0.03 0.02,0.04 0.04,0.06 0,0.01 0.01,0.01 0.01,0.02 0.09,0.09 0.18,0.18 0.27,0.27 0.02,0.02 0.04,0.04 0.07,0.06 0,0.01 0.01,0.01 0.01,0.02 0.02,0.02 0.03,0.02 0.05,0.05z"/>
 </g>
</svg>
