<?xml version="1.0" encoding="UTF-8"?>
<!DOCTYPE svg PUBLIC "-//W3C//DTD SVG 1.0//EN" "http://www.w3.org/TR/2001/REC-SVG-20010904/DTD/svg10.dtd">
<!-- Creator: CorelDRAW 2018 (64 Bit Versão de avaliação) -->
<svg xmlns="http://www.w3.org/2000/svg" xml:space="preserve" width="41px" height="41px" version="1.0" shape-rendering="geometricPrecision" text-rendering="geometricPrecision" image-rendering="optimizeQuality" fill-rule="evenodd" clip-rule="evenodd"
viewBox="0 0 1.16 1.16"
 xmlns:xlink="http://www.w3.org/1999/xlink">
 <g id="Camada_x0020_1">
  <metadata id="CorelCorpID_0Corel-Layer"/>
  <g id="_2318478316608">
   <g>
    <path fill="black" d="M0 1.11c0,0.03 0.01,0.05 0.04,0.05 0.02,0 0.04,-0.03 0.05,-0.04 0.01,-0.01 0.02,-0.02 0.03,-0.04l0.14 -0.13c0.01,-0.01 0.01,-0.01 0.03,-0.01 0.15,0 0.31,0 0.46,0 0.03,0 0.05,0 0.06,-0.02 0.07,-0.04 0.06,-0.1 0.06,-0.18 0.01,0.01 0.24,0.13 0.24,0.13 0.02,0 0.02,0 0.03,-0.01 0.01,-0.01 0.02,-0.02 0.02,-0.03l0 -0.51c0,-0.01 -0.02,-0.03 -0.04,-0.03 -0.02,0 -0.05,0.02 -0.07,0.03 -0.02,0.01 -0.04,0.02 -0.06,0.03 -0.04,0.02 -0.08,0.04 -0.12,0.06l0 -0.06c0,-0.01 0,-0.01 0,-0.01l0.25 -0.25c0.02,-0.02 0.04,-0.03 0.04,-0.06 0,-0.01 -0.02,-0.03 -0.04,-0.03l0 0c-0.01,0 -0.02,0 -0.03,0.01l-0.05 0.05c0,0 0,0 0,0 -0.02,0.02 -0.2,0.21 -0.23,0.23l-0.64 0.65c-0.03,0.03 -0.11,0.1 -0.14,0.13 -0.01,0.01 -0.03,0.03 -0.03,0.04z"/>
    <path fill="black" d="M0 0.32l0 0.52c0,0.04 0.04,0.08 0.07,0.09l0.71 -0.71c0,0 0,0 -0.01,0l-0.67 0c-0.05,0 -0.1,0.05 -0.1,0.1z"/>
   </g>
  </g>
 </g>
</svg>
