<?xml version="1.0" encoding="UTF-8"?>
<!DOCTYPE svg PUBLIC "-//W3C//DTD SVG 1.0//EN" "http://www.w3.org/TR/2001/REC-SVG-20010904/DTD/svg10.dtd">
<!-- Creator: CorelDRAW 2018 (64 Bit Versão de avaliação) -->
<svg xmlns="http://www.w3.org/2000/svg" xml:space="preserve" width="41px" height="41px" version="1.0" shape-rendering="geometricPrecision" text-rendering="geometricPrecision" image-rendering="optimizeQuality" fill-rule="evenodd" clip-rule="evenodd"
viewBox="0 0 1.57 1.58"
 xmlns:xlink="http://www.w3.org/1999/xlink">
 <g id="Camada_x0020_1">
  <metadata id="CorelCorpID_0Corel-Layer"/>
  <g id="_2289544908080">
   <g>
    <path fill="#29292A" d="M1.03 0.76l0.14 0 0 0.06 -0.14 0 0 -0.06zm-0.13 0l0.01 0.06 -0.06 0 0.05 -0.06zm-0.24 0.06l-0.26 0 0 -0.06 0.32 0c0,0.01 -0.04,0.06 -0.06,0.06zm0.37 -0.18l0.27 -0.27c0.02,0.02 0.09,0.14 0.1,0.18 0.1,0.25 0.04,0.51 -0.15,0.7 -0.14,0.15 -0.33,0.21 -0.53,0.19 -0.02,0 -0.04,0 -0.06,-0.01 -0.05,0 -0.07,-0.01 -0.11,-0.03 -0.04,-0.01 -0.16,-0.07 -0.18,-0.1l0.33 -0.34c0.01,-0.01 0.02,-0.02 0.03,-0.02 0.17,0 0.35,0.01 0.51,0 0.02,0 0.03,-0.01 0.04,-0.02 0.01,0 0.02,-0.02 0.02,-0.03l0 -0.2c0,-0.05 -0.06,-0.06 -0.1,-0.06 -0.02,0 -0.02,0 -0.04,0.01 -0.01,0 -0.03,0 -0.04,0 -0.03,0 -0.06,0 -0.09,0zm-0.6 -0.01c-0.18,0 -0.16,0.01 -0.16,0.24 0,0.03 0.01,0.05 0.03,0.06 0.04,0.03 0.19,0.01 0.24,0.01l-0.26 0.27c-0.05,-0.07 -0.07,-0.08 -0.1,-0.18 -0.09,-0.21 -0.06,-0.44 0.07,-0.62 0.12,-0.17 0.33,-0.28 0.54,-0.28 0.12,0 0.23,0.03 0.33,0.09 0.03,0.02 0.06,0.04 0.09,0.06 -0.02,0.02 -0.36,0.35 -0.36,0.35 -0.02,0.01 -0.24,0 -0.28,0 -0.05,0 -0.1,0 -0.14,0zm-0.43 0.13c0,0.19 0.03,0.32 0.13,0.47 0.03,0.04 0.04,0.05 0.07,0.08 0.01,0.01 0.02,0.02 0.02,0.03 0.05,0.05 0.17,0.13 0.24,0.16 0.19,0.1 0.44,0.1 0.64,0.01 0.05,-0.02 0.08,-0.04 0.12,-0.07 0.05,-0.03 0.12,-0.09 0.15,-0.13 0.01,-0.01 0.02,-0.01 0.03,-0.02 0.06,-0.09 0.11,-0.18 0.14,-0.28 0.04,-0.14 0.05,-0.3 0,-0.44 -0.04,-0.15 -0.12,-0.27 -0.23,-0.37 -0.31,-0.28 -0.79,-0.26 -1.07,0.02 -0.14,0.14 -0.24,0.33 -0.24,0.54z"/>
    <path fill="#29292A" d="M0.43 0.58c0.03,0 0.05,-0.02 0.06,-0.06 0,-0.02 0,-0.03 0.03,-0.03 0.09,-0.01 0.15,-0.07 0.15,-0.15l0 -0.04c0,-0.05 -0.09,-0.09 -0.12,-0.03 -0.01,0.03 0,0.05 -0.01,0.07 -0.01,0.04 -0.06,0.01 -0.11,0.05 -0.1,0.07 -0.08,0.19 0,0.19z"/>
   </g>
  </g>
 </g>
</svg>
