<?xml version="1.0" encoding="UTF-8"?>
<!DOCTYPE svg PUBLIC "-//W3C//DTD SVG 1.0//EN" "http://www.w3.org/TR/2001/REC-SVG-20010904/DTD/svg10.dtd">
<!-- Creator: CorelDRAW 2018 (64 Bit Versão de avaliação) -->
<svg xmlns="http://www.w3.org/2000/svg" xml:space="preserve" width="39px" height="41px" version="1.0" shape-rendering="geometricPrecision" text-rendering="geometricPrecision" image-rendering="optimizeQuality" fill-rule="evenodd" clip-rule="evenodd"
viewBox="0 0 0.82 0.86"
 xmlns:xlink="http://www.w3.org/1999/xlink">
 <g id="Camada_x0020_1">
  <metadata id="CorelCorpID_0Corel-Layer"/>
  <g id="_2612269917312">
   <path fill="#292929" d="M0.1 0.61c0,-0.03 0.05,-0.12 0.06,-0.15 0.03,-0.06 0.02,-0.12 0.03,-0.19 0.02,-0.19 0.24,-0.25 0.38,-0.14 0,0.01 0,0.01 0.01,0.02 0.01,0.01 0.01,0 0.01,0.01 0.08,0.11 0.02,0.23 0.1,0.37 0.01,0.03 0.03,0.05 0.03,0.08l-0.62 0zm0.29 -0.61c-0.1,0.02 -0.18,0.06 -0.24,0.14 -0.05,0.08 -0.03,0.21 -0.06,0.31 -0.02,0.04 -0.05,0.09 -0.07,0.12 -0.03,0.05 -0.03,0.11 0.04,0.11 0.1,0.02 0.43,0.01 0.56,0 0.04,0 0.14,0.01 0.18,0 0.05,-0.03 0.01,-0.1 -0.01,-0.13 -0.03,-0.04 -0.05,-0.08 -0.06,-0.13 -0.03,-0.11 0,-0.22 -0.08,-0.3 -0.06,-0.07 -0.16,-0.13 -0.26,-0.12z"/>
   <path fill="#292929" d="M0.25 0.83c0,0.01 0.01,0.03 0.02,0.03 0.02,0 0.23,0 0.26,0 0.03,0 0.06,-0.01 0.05,-0.04 -0.01,-0.04 -0.04,-0.03 -0.08,-0.03 -0.03,0 -0.06,0 -0.1,0 -0.03,0 -0.12,-0.01 -0.14,0.01 -0.01,0 -0.02,0.02 -0.01,0.03z"/>
  </g>
 </g>
</svg>
