<?xml version="1.0" encoding="UTF-8"?>
<!DOCTYPE svg PUBLIC "-//W3C//DTD SVG 1.0//EN" "http://www.w3.org/TR/2001/REC-SVG-20010904/DTD/svg10.dtd">
<!-- Creator: CorelDRAW 2018 (64 Bit Versão de avaliação) -->
<svg xmlns="http://www.w3.org/2000/svg" xml:space="preserve" width="41px" height="41px" version="1.0" shape-rendering="geometricPrecision" text-rendering="geometricPrecision" image-rendering="optimizeQuality" fill-rule="evenodd" clip-rule="evenodd"
viewBox="0 0 5.76 5.79"
 xmlns:xlink="http://www.w3.org/1999/xlink">
 <g id="Camada_x0020_1">
  <metadata id="CorelCorpID_0Corel-Layer"/>
  <g id="_2751259786960">
   <g>
    <path fill="#292929" d="M0 0.25c0,0.12 0.04,0.19 0.14,0.27l0.27 0.19c0.02,0.01 0.04,0.02 0.06,0.04 0.03,0.02 0.04,0.08 0.05,0.12 0.03,0.11 0.04,0.21 0.07,0.31 0.1,0.42 0.24,1.06 0.34,1.5 0.02,0.1 0.04,0.2 0.06,0.3 0.04,0.16 0.1,0.45 0.14,0.6 0.05,0.18 0.17,0.34 0.29,0.45 0.12,0.09 0.32,0.2 0.54,0.2l2.48 0c0.16,0 0.3,-0.06 0.41,-0.12 0.23,-0.14 0.37,-0.4 0.43,-0.66 0.03,-0.15 0.07,-0.29 0.1,-0.44l0.3 -1.33c0.04,-0.16 0.07,-0.32 0.08,-0.46l0 -0.1c-0.01,-0.19 -0.08,-0.38 -0.26,-0.56 -0.11,-0.11 -0.34,-0.25 -0.56,-0.25l-2.47 0c-0.14,0 -0.25,0.12 -0.25,0.25 0,0.11 0.01,0.17 0.11,0.25 0.07,0.06 0.17,0.06 0.27,0.06 0.24,0 0.48,0 0.72,0 0.41,0 1.07,-0.03 1.44,-0.01l0.17 0.01c0.38,0.08 0.26,0.44 0.2,0.67 -0.1,0.42 -0.21,0.89 -0.3,1.31 -0.02,0.11 -0.05,0.22 -0.07,0.33 -0.05,0.2 -0.09,0.48 -0.33,0.48l-2.5 0c-0.25,0 -0.29,-0.42 -0.35,-0.64 -0.1,-0.4 -0.21,-0.94 -0.3,-1.35l-0.25 -1.07c-0.05,-0.18 -0.16,-0.27 -0.3,-0.36 -0.06,-0.04 -0.12,-0.09 -0.19,-0.14 -0.11,-0.07 -0.15,-0.1 -0.28,-0.1 -0.12,0 -0.26,0.13 -0.26,0.25z"/>
    <path fill="#292929" d="M2.86 2.47c-0.08,-0.06 -0.33,-0.48 -0.62,-0.24 -0.07,0.06 -0.09,0.13 -0.09,0.22 0,0.17 0.25,0.34 0.35,0.45l0.13 0.13c0.25,0.26 0.39,0.1 0.63,-0.14l0.83 -0.84c0.14,-0.13 0.13,-0.16 0.13,-0.31 0,-0.11 -0.13,-0.23 -0.24,-0.23 -0.16,0 -0.25,0.09 -0.35,0.2 -0.07,0.09 -0.17,0.17 -0.25,0.26l-0.13 0.12c-0.08,0.07 -0.34,0.34 -0.39,0.38z"/>
    <path fill="#292929" d="M2.25 5.04c0.09,0 0.17,0.01 0.17,0.14 0,0.19 -0.28,0.17 -0.29,0.01 -0.01,-0.04 0.01,-0.08 0.03,-0.11 0.01,-0.02 0.06,-0.04 0.09,-0.04zm-0.6 0.09c0,0.12 0.01,0.19 0.06,0.3 0.1,0.2 0.29,0.36 0.51,0.36l0.02 0c0.13,0 0.18,0 0.3,-0.06 0.14,-0.07 0.24,-0.17 0.3,-0.32 0.19,-0.43 -0.18,-0.86 -0.56,-0.86 -0.17,0 -0.34,0.09 -0.43,0.17 -0.1,0.11 -0.2,0.24 -0.2,0.41z"/>
    <path fill="#292929" d="M3.96 5.19c0,-0.22 0.29,-0.18 0.29,-0.04 0,0.1 -0.02,0.16 -0.14,0.16 -0.08,0 -0.15,-0.05 -0.15,-0.12zm-0.47 -0.04c0,0.35 0.28,0.64 0.56,0.64l0.02 0c0.12,0 0.19,0 0.31,-0.06 0.07,-0.03 0.12,-0.08 0.17,-0.13l0.12 -0.17c0.11,-0.23 0.05,-0.52 -0.13,-0.69 -0.11,-0.11 -0.25,-0.19 -0.42,-0.19 -0.33,0 -0.63,0.29 -0.63,0.6z"/>
   </g>
  </g>
 </g>
</svg>
