<?xml version="1.0" encoding="UTF-8"?>
<!DOCTYPE svg PUBLIC "-//W3C//DTD SVG 1.0//EN" "http://www.w3.org/TR/2001/REC-SVG-20010904/DTD/svg10.dtd">
<!-- Creator: CorelDRAW 2018 (64 Bit Versão de avaliação) -->
<svg xmlns="http://www.w3.org/2000/svg" xml:space="preserve" width="41px" height="41px" version="1.0" shape-rendering="geometricPrecision" text-rendering="geometricPrecision" image-rendering="optimizeQuality" fill-rule="evenodd" clip-rule="evenodd"
viewBox="0 0 5.79 5.79"
 xmlns:xlink="http://www.w3.org/1999/xlink">
 <g id="Camada_x0020_1">
  <metadata id="CorelCorpID_0Corel-Layer"/>
  <path fill="black" d="M0.49 1.46l0.96 -0.01c0.01,0.38 -0.05,1.63 0.03,1.89 0.18,0.6 0.75,0.51 1.41,0.51 0.67,0.01 1.23,0.09 1.41,-0.51 0.08,-0.25 0.02,-1.51 0.03,-1.89l0.96 0 0 3.13c-0.02,0.49 -0.34,0.72 -0.84,0.72l-3.12 0c-0.5,0 -0.82,-0.23 -0.84,-0.72l0 -3.12zm1.44 0l1.92 -0.01c0.01,0.48 0,0.97 0,1.44 0,0.25 0.01,0.46 -0.24,0.48 -0.19,0.03 -0.51,0 -0.72,0 -0.21,0 -0.53,0.03 -0.72,0 -0.25,-0.03 -0.24,-0.23 -0.24,-0.47 0,-0.48 -0.01,-0.97 0,-1.44zm0.38 -0.97l1.16 0.01 0.22 0.47 -1.61 -0.01 0.23 -0.47zm1.7 0.01l0.11 -0.01 0.03 0c0.5,0 0.83,0.08 0.98,0.48l-0.89 0 -0.23 -0.47zm-3.36 0.47c0.17,-0.44 0.57,-0.52 1.13,-0.47l-0.23 0.47 -0.9 0zm0.47 -0.94c-0.43,0.08 -0.68,0.32 -0.85,0.61 -0.29,0.5 -0.26,0.53 -0.26,1.17 0,0.55 -0.03,2.51 0.01,2.89 0.04,0.43 0.29,0.72 0.54,0.89 0.37,0.24 0.78,0.19 1.25,0.19 0.55,0 2.5,0.02 2.88,-0.01 0.43,-0.04 0.72,-0.29 0.89,-0.54 0.24,-0.37 0.19,-0.78 0.19,-1.25 0,-0.42 0.05,-2.65 -0.02,-2.87 -0.09,-0.25 -0.33,-0.68 -0.58,-0.86 -0.4,-0.28 -0.67,-0.24 -1.2,-0.24 -0.48,0 -0.96,0 -1.44,0 -0.36,0 -1.1,-0.04 -1.41,0.02z"/>
 </g>
</svg>
