<?xml version="1.0" encoding="UTF-8"?>
<!DOCTYPE svg PUBLIC "-//W3C//DTD SVG 1.0//EN" "http://www.w3.org/TR/2001/REC-SVG-20010904/DTD/svg10.dtd">
<!-- Creator: CorelDRAW 2018 (64 Bit Versão de avaliação) -->
<svg xmlns="http://www.w3.org/2000/svg" xml:space="preserve" width="39px" height="41px" version="1.0" shape-rendering="geometricPrecision" text-rendering="geometricPrecision" image-rendering="optimizeQuality" fill-rule="evenodd" clip-rule="evenodd"
viewBox="0 0 3.14 3.28"
 xmlns:xlink="http://www.w3.org/1999/xlink">
 <g id="Camada_x0020_1">
  <metadata id="CorelCorpID_0Corel-Layer"/>
  <g>
   <path fill="#292929" d="M1.07 1.89c-0.04,0 -0.04,-0.01 -0.06,-0.04 -0.02,-0.02 -0.03,-0.04 -0.05,-0.06 -0.01,-0.02 -0.02,-0.04 -0.04,-0.06 -0.03,-0.04 -0.03,-0.05 -0.06,-0.05 -0.05,0 -0.16,0.11 -0.16,0.04l0 -0.59c0,-0.12 0.04,-0.15 0.13,-0.18l1.21 -0.51c0.03,0 0.17,0.07 0.22,0.09 0.03,0.01 0.08,0.03 0.11,0.04 0,0 0,0 0,0l-0.23 0.09c-0.04,0.02 -0.08,0.03 -0.12,0.05 -0.2,0.06 -0.41,0.15 -0.6,0.23 -0.15,0.07 -0.32,0.11 -0.34,0.31 -0.03,0.2 -0.01,0.45 -0.01,0.64zm2.06 -0.7c0.01,0.09 0.01,0.17 0.01,0.26l0 0 0 0.39 0 0.01c0,0.12 -0.01,0.23 -0.01,0.35 0,0.21 -0.06,0.41 -0.21,0.53 -0.1,0.07 -0.08,0.05 -0.17,0.11 -0.02,0.01 -0.04,0.02 -0.06,0.03 -0.16,0.08 -0.88,0.41 -1.07,0.41l0 0 -0.1 0c-0.05,0 -0.09,-0.01 -0.15,-0.03 -0.25,-0.08 -0.57,-0.21 -0.8,-0.32 -0.04,-0.02 -0.07,-0.04 -0.12,-0.06 -0.29,-0.15 -0.44,-0.31 -0.44,-0.67 0,-0.12 -0.01,-0.22 -0.01,-0.35l0 0 0 -0.43 0 0c0,-0.13 0.01,-0.24 0.01,-0.36 0,-0.18 0.05,-0.35 0.17,-0.47l0.16 -0.12 0.37 -0.18c0.09,-0.04 0.17,-0.08 0.26,-0.11l0.4 -0.15c0.04,-0.02 0.08,-0.03 0.13,-0.03l0.1 0c0.11,0.01 0.22,0.04 0.32,0.08 0.18,0.07 0.6,0.24 0.78,0.33 0.09,0.05 0.15,0.09 0.22,0.15 0.04,0.02 0.07,0.06 0.09,0.09 0.1,0.14 0.12,0.26 0.12,0.44 0,0.03 0,0.06 0,0.09 0,0 0,0.01 0,0.01l-0.28 0.02c0,0 0,0 0,0 0,-0.01 0,-0.01 0,-0.02 0,-0.05 0,-0.12 0,-0.17 -0.01,-0.15 -0.07,-0.19 -0.12,-0.26l-0.58 0.2c-0.09,0.03 -0.18,0.07 -0.27,0.1l-0.41 0.17c-0.08,0.04 -0.11,0.03 -0.12,0.09 -0.03,0.2 0.05,0.57 -0.04,0.72 -0.13,0.22 -0.42,0.18 -0.52,-0.01 -0.13,0.06 -0.37,-0.08 -0.37,-0.26l0 -0.73c0,-0.13 0.11,-0.26 0.19,-0.3 0.07,-0.04 0.25,-0.11 0.34,-0.15l0.7 -0.29c-0.02,-0.03 0,-0.01 -0.03,-0.01 -0.07,-0.02 -0.17,0.01 -0.23,0.04 -0.19,0.06 -0.31,0.11 -0.48,0.18 -0.08,0.04 -0.15,0.07 -0.23,0.11l-0.22 0.11c-0.19,0.13 -0.16,0.28 -0.17,0.5 0,0.05 0,0.07 0,0.16l0 0.63c0,0.05 0,0.08 0,0.14 0,0.31 0.09,0.35 0.32,0.47l0.42 0.19c0.03,0.01 0.07,0.03 0.11,0.04 0.47,0.19 0.45,0.17 0.92,-0.02 0.17,-0.07 0.37,-0.16 0.53,-0.24 0.26,-0.13 0.25,-0.24 0.26,-0.51 0,-0.05 0,-0.09 0,-0.15 0,-0.23 0.01,-0.49 0,-0.73l0.28 -0.02z"/>
  </g>
 </g>
</svg>
