<?xml version="1.0" encoding="UTF-8"?>
<!DOCTYPE svg PUBLIC "-//W3C//DTD SVG 1.0//EN" "http://www.w3.org/TR/2001/REC-SVG-20010904/DTD/svg10.dtd">
<!-- Creator: CorelDRAW 2018 (64 Bit Versão de avaliação) -->
<svg xmlns="http://www.w3.org/2000/svg" xml:space="preserve" width="41px" height="41px" version="1.0" shape-rendering="geometricPrecision" text-rendering="geometricPrecision" image-rendering="optimizeQuality" fill-rule="evenodd" clip-rule="evenodd"
viewBox="0 0 2.45 2.45"
 xmlns:xlink="http://www.w3.org/1999/xlink">
 <g id="Camada_x0020_1">
  <metadata id="CorelCorpID_0Corel-Layer"/>
  <g id="_2751006479632">
   <path fill="#292929" d="M0.31 0.23c0.04,0 0.68,0 0.77,0 0.13,0 0.26,0 0.39,0 0.13,0 0.28,-0.03 0.31,0.08 0,0.04 0,0.72 0,0.77 0,0.18 0,0.42 0,0.59 0,0.05 -0.03,0.09 -0.08,0.11 -0.03,0 -0.72,0 -0.77,0 -0.18,0 -0.41,0 -0.59,0 -0.05,0 -0.09,-0.03 -0.1,-0.08 -0.02,-0.06 -0.01,-0.31 -0.01,-0.39l0 -0.97c0,-0.05 0.03,-0.09 0.08,-0.11zm-0.04 -0.22c-0.12,0.02 -0.23,0.12 -0.26,0.24 -0.02,0.08 -0.01,0.39 -0.01,0.49 0,0.08 0,0.94 0.01,1 0.02,0.12 0.13,0.23 0.24,0.26 0.07,0.02 0.4,0.01 0.49,0.01 0.09,0 0.93,0.01 1,-0.01 0.13,-0.02 0.23,-0.12 0.26,-0.24 0.02,-0.09 0.01,-0.38 0.01,-0.49 0,-0.09 0,-0.93 -0.01,-1 -0.02,-0.12 -0.12,-0.22 -0.24,-0.26 -0.08,-0.02 -0.39,-0.01 -0.49,-0.01 -0.08,0 -0.94,0 -1,0.01z"/>
   <path fill="#292929" d="M2.31 0.56c-0.08,0.03 -0.09,0.07 -0.09,0.16 0,0.23 0,0.5 0,0.73 0,0.09 0.01,0.42 0,0.49 -0.02,0.13 -0.11,0.23 -0.22,0.27 -0.11,0.03 -0.35,0.01 -0.47,0.01 -0.08,0 -0.92,0 -0.97,0 -0.07,0.01 -0.12,0.06 -0.11,0.13 0,0.04 0.02,0.07 0.04,0.08 0.03,0.03 0.06,0.02 0.11,0.02 0.32,0 0.65,0 0.97,0 0.13,0 0.36,0.02 0.47,-0.02 0.26,-0.07 0.41,-0.28 0.41,-0.56l0 -0.97c0,-0.08 0.01,-0.17 0,-0.24 0,-0.07 -0.07,-0.12 -0.14,-0.1z"/>
  </g>
 </g>
</svg>
