<?xml version="1.0" encoding="UTF-8"?>
<!DOCTYPE svg PUBLIC "-//W3C//DTD SVG 1.0//EN" "http://www.w3.org/TR/2001/REC-SVG-20010904/DTD/svg10.dtd">
<!-- Creator: CorelDRAW 2018 (64 Bit Versão de avaliação) -->
<svg xmlns="http://www.w3.org/2000/svg" xml:space="preserve" width="41px" height="41px" version="1.0" shape-rendering="geometricPrecision" text-rendering="geometricPrecision" image-rendering="optimizeQuality" fill-rule="evenodd" clip-rule="evenodd"
viewBox="0 0 17.15 17.15"
 xmlns:xlink="http://www.w3.org/1999/xlink">
 <g id="Camada_x0020_1">
  <metadata id="CorelCorpID_0Corel-Layer"/>
  <g id="_2038835456912">
   <path fill="#292929" d="M7.72 1.44c4.24,-0.48 7.53,2.58 7.99,6.25 0.49,3.92 -2.27,7.51 -6.24,8.02 -5.25,0.69 -9.43,-4.46 -7.7,-9.47 0.32,-0.92 0.72,-1.57 1.3,-2.28 0.92,-1.13 2.52,-2.27 4.65,-2.52zm-0.04 -1.38c-2.1,0.27 -3.64,1.01 -5.08,2.39 -1.82,1.73 -2.85,4.42 -2.55,7.06 0.23,1.89 0.86,3.14 1.91,4.49 1.55,2.01 4.47,3.45 7.55,3.1 1.33,-0.16 2.22,-0.5 3.23,-1.03 0.78,-0.41 1.79,-1.23 2.35,-1.92 1.46,-1.8 2.3,-4.01 2.01,-6.5 -0.26,-2.21 -1.35,-4.23 -2.95,-5.59 -1.45,-1.21 -3.82,-2.34 -6.47,-2z"/>
   <path fill="#292929" d="M6.14 11.28c0.06,0.59 0.79,0.83 1.2,0.38 0.29,-0.31 0.17,-1.32 0.17,-1.82l-0.01 -3.96c-0.07,-0.63 -0.86,-0.81 -1.21,-0.38 -0.25,0.33 -0.16,1.3 -0.16,1.81l0.01 3.97z"/>
   <path fill="#292929" d="M10.09 5.31c-0.58,0.21 -0.45,0.92 -0.45,1.56l0 3.96c0,0.35 -0.03,0.6 0.18,0.82 0.16,0.18 0.44,0.31 0.77,0.19 0.55,-0.21 0.43,-0.88 0.43,-1.55l0 -3.97c0,-0.32 0,-0.61 -0.16,-0.82 -0.14,-0.17 -0.46,-0.3 -0.77,-0.19z"/>
  </g>
 </g>
</svg>
