<?xml version="1.0" encoding="UTF-8"?>
<!DOCTYPE svg PUBLIC "-//W3C//DTD SVG 1.0//EN" "http://www.w3.org/TR/2001/REC-SVG-20010904/DTD/svg10.dtd">
<!-- Creator: CorelDRAW 2018 (64 Bit Versão de avaliação) -->
<svg xmlns="http://www.w3.org/2000/svg" xml:space="preserve" width="41px" height="41px" version="1.0" shape-rendering="geometricPrecision" text-rendering="geometricPrecision" image-rendering="optimizeQuality" fill-rule="evenodd" clip-rule="evenodd"
viewBox="0 0 3.44 3.44"
 xmlns:xlink="http://www.w3.org/1999/xlink">
 <g id="Camada_x0020_1">
  <metadata id="CorelCorpID_0Corel-Layer"/>
  <path fill="black" d="M1.85 2.61l0.22 0c0,0.06 0,0.12 0.04,0.17 0.04,0.04 0.15,0.06 0.2,-0.01 0.03,-0.05 0.03,-0.1 0.03,-0.16l0.21 0 0 0.57 -0.7 0 0 -0.57zm1.59 -0.77l0 0.09c0,0.03 -0.01,0.07 -0.04,0.09 -0.01,0.01 -0.02,0.02 -0.04,0.03 -0.01,0 -0.03,0.01 -0.05,0.01 -0.04,0 -0.08,0 -0.13,0 -0.02,0 -0.01,-0.01 -0.01,0.04l0 0.95c0,0.12 0.01,0.19 -0.07,0.29 0,0.01 -0.01,0.01 -0.01,0.02 -0.01,0.01 -0.02,0.02 -0.03,0.03 -0.04,0.03 -0.09,0.05 -0.14,0.05l-2.4 0c-0.05,0 -0.11,-0.03 -0.15,-0.06l-0.02 -0.03c-0.05,-0.04 -0.08,-0.12 -0.08,-0.18l0 -1.11c-0.07,0 -0.18,0.01 -0.22,-0.03 -0.04,-0.03 -0.05,-0.06 -0.05,-0.11l0 -0.08c0,-0.11 0.03,-0.26 0.06,-0.36 0.01,-0.06 0.03,-0.11 0.05,-0.16 0.01,-0.02 0.02,-0.05 0.03,-0.07 0.03,-0.08 0.06,-0.13 0.1,-0.21 0.03,-0.04 0.06,-0.08 0.09,-0.12l0.06 -0.09 0.1 -0.11 0.11 -0.1c0.01,-0.01 0.02,-0.01 0.03,-0.02 0.06,-0.05 0.11,-0.09 0.18,-0.13l0.16 -0.1c0.08,-0.03 0.18,-0.07 0.27,-0.1 0.05,-0.01 0.11,-0.03 0.16,-0.04 0.15,-0.02 0.21,-0.02 0.36,-0.02 0.15,0 0.35,0.03 0.49,0.08 0.08,0.02 0.17,0.06 0.24,0.1 0,-0.04 0,-0.09 0,-0.13 0,-0.04 0,-0.08 0,-0.12 0,-0.07 0.04,-0.14 0.12,-0.14l0.44 0c0.02,0 0.04,0.01 0.05,0.02 0.02,0 0.03,0.01 0.04,0.02 0.01,0.03 0.02,0.06 0.03,0.1 0,0.02 0,0.1 0,0.12 -0.01,0.03 0,0.09 0,0.13l0 0.6c0,0.01 0.04,0.07 0.05,0.09 0,0.01 0.01,0.02 0.01,0.02 0.02,0.04 0.04,0.08 0.06,0.12 0.08,0.17 0.15,0.44 0.15,0.62zm-2.56 0.77l0.22 0c0,0.06 0,0.12 0.04,0.16 0.06,0.08 0.23,0.06 0.23,-0.1l0 -0.06 0.22 0 0 0.57 -0.71 0 0 -0.57zm0.48 -0.27l0 -0.56 0.23 0c0,0.06 -0.01,0.12 0.03,0.16 0.05,0.07 0.23,0.1 0.23,-0.13l0 -0.03 0.23 0 0 0.56c0,0.01 -0.01,0.01 -0.01,0.01l-0.7 0c0,0 -0.01,0 -0.01,-0.01zm-0.74 0.14l0 0.7c-0.01,0 -0.02,0 -0.03,0 -0.01,0 -0.02,0 -0.03,0 -0.01,0 -0.01,0 -0.02,-0.01 0,0 -0.01,-0.01 -0.01,-0.03l0 -1.08c0.03,0 0.05,-0.01 0.06,-0.01 0.08,-0.03 0.08,-0.11 0.09,-0.17l0.01 -0.11c0,-0.04 0.01,-0.09 0.02,-0.12 0.03,-0.09 0.05,-0.13 0.09,-0.21 0.01,-0.03 0.04,-0.07 0.05,-0.09 0.02,-0.03 0.08,-0.11 0.1,-0.13l0.07 -0.07c0.03,-0.03 0.1,-0.08 0.13,-0.1 0.13,-0.08 0.3,-0.15 0.46,-0.16l0.11 -0.01c0.01,0 0.02,0 0.03,0 0.01,0 0.03,0 0.04,0.01 0.01,0 0.02,0 0.03,0 0.12,0.01 0.27,0.05 0.37,0.11 0.1,0.04 0.15,0.08 0.22,0.15 0.02,0.01 0.06,0.05 0.07,0.06l0.06 0.07c0,0.01 0.01,0.01 0.01,0.02 0.03,0.03 0.04,0.06 0.06,0.09 0.06,0.09 0.11,0.21 0.13,0.31 0.02,0.08 0.01,0.11 0.02,0.17 0,0.01 0,0.03 0,0.04 0,0.04 0.02,0.08 0.04,0.11 0.03,0.03 0.06,0.04 0.11,0.04l0 1.08c0,0.02 -0.01,0.03 -0.01,0.03 -0.01,0.01 -0.01,0.01 -0.02,0.01 -0.01,0 -0.02,0 -0.03,0 -0.01,0 -0.02,0 -0.03,0l0 -0.7c0,-0.06 -0.04,-0.1 -0.08,-0.12 -0.03,-0.01 -0.05,-0.01 -0.09,-0.01l-0.29 0c-0.03,0 -0.02,0 -0.02,-0.08l0 -0.59c0,-0.05 -0.01,-0.08 -0.04,-0.11 -0.02,-0.03 -0.06,-0.05 -0.1,-0.05l-0.96 0c-0.04,0 -0.07,0.01 -0.09,0.03 -0.01,0.01 -0.01,0.01 -0.01,0.02 -0.03,0.03 -0.04,0.05 -0.04,0.11l0 0.64c0,0.03 0.01,0.03 -0.01,0.03 -0.1,0 -0.2,0 -0.3,0 -0.04,0 -0.06,0 -0.09,0.01 -0.04,0.02 -0.08,0.06 -0.08,0.12zm-0.2 -0.68l-0.16 0c0,-0.03 0.01,-0.05 0.01,-0.08 0.01,-0.07 0.03,-0.14 0.05,-0.21 0,-0.02 0.01,-0.04 0.02,-0.06 0,-0.01 0.01,-0.02 0.01,-0.03l0.1 -0.22c0.04,-0.07 0.05,-0.07 0.1,-0.13l0.13 -0.17c0.03,-0.03 0.06,-0.05 0.09,-0.08 0.02,-0.02 0.15,-0.11 0.17,-0.13 0.12,-0.08 0.28,-0.14 0.41,-0.18 0.05,-0.01 0.09,-0.02 0.14,-0.03 0.21,-0.03 0.53,-0.01 0.72,0.07 0.06,0.02 0.11,0.04 0.16,0.07l0.16 0.1 0.13 0.09c0.02,0.01 0.03,0.03 0.05,0.04 0.01,0.02 0.03,0.03 0.04,0.05l0.06 0.05c0.01,0.02 0.03,0.04 0.05,0.06 0.04,0.06 0.09,0.12 0.12,0.18l0.03 0.06c0.03,0.04 0.04,0.08 0.06,0.12 0.03,0.07 0.05,0.13 0.07,0.2 0.01,0.06 0.03,0.17 0.03,0.23l-0.14 0c-0.01,0 -0.01,-0.01 -0.01,-0.01l-0.01 -0.05c0,-0.05 -0.01,-0.09 -0.02,-0.13 -0.03,-0.1 -0.06,-0.16 -0.09,-0.25 -0.03,-0.06 -0.1,-0.17 -0.13,-0.22l-0.06 -0.06c-0.03,-0.04 -0.07,-0.08 -0.11,-0.11 -0.04,-0.05 -0.1,-0.08 -0.15,-0.12 -0.03,-0.02 -0.06,-0.04 -0.09,-0.06 -0.01,-0.01 -0.02,-0.01 -0.03,-0.01 0,-0.01 -0.01,-0.01 -0.02,-0.02 -0.09,-0.05 -0.23,-0.1 -0.34,-0.12 -0.02,0 -0.04,-0.01 -0.06,-0.01 -0.14,-0.02 -0.31,-0.01 -0.44,0.01 -0.09,0.02 -0.17,0.04 -0.24,0.08 -0.04,0.01 -0.07,0.03 -0.11,0.04l-0.05 0.03c-0.06,0.04 -0.11,0.07 -0.16,0.11l-0.16 0.15c-0.03,0.03 -0.1,0.13 -0.12,0.16 -0.04,0.05 -0.07,0.1 -0.09,0.15l-0.03 0.06c-0.04,0.11 -0.07,0.22 -0.09,0.34 0,0.01 0,0.03 0,0.04zm2.33 -1.25l0 -0.29 0.16 0 0 0.42c-0.01,0 -0.07,-0.05 -0.08,-0.07l-0.06 -0.05c-0.01,0 -0.02,-0.01 -0.02,-0.01z"/>
 </g>
</svg>
