<?xml version="1.0" encoding="UTF-8"?>
<!DOCTYPE svg PUBLIC "-//W3C//DTD SVG 1.0//EN" "http://www.w3.org/TR/2001/REC-SVG-20010904/DTD/svg10.dtd">
<!-- Creator: CorelDRAW 2018 (64 Bit Versão de avaliação) -->
<svg xmlns="http://www.w3.org/2000/svg" xml:space="preserve" width="41px" height="41px" version="1.0" shape-rendering="geometricPrecision" text-rendering="geometricPrecision" image-rendering="optimizeQuality" fill-rule="evenodd" clip-rule="evenodd"
viewBox="0 0 5.79 5.79"
 xmlns:xlink="http://www.w3.org/1999/xlink">
 <g id="Camada_x0020_1">
  <metadata id="CorelCorpID_0Corel-Layer"/>
  <g id="_2751009430016">
   <g id="_1588967162976">
    <path fill="black" d="M0.49 4.08c0.03,-0.01 0.04,-0.02 0.07,-0.02l0.18 -0.07c0.31,-0.11 0.24,-0.12 0.31,0.07 0.02,0.05 0.03,0.09 0.05,0.15 0.09,0.27 0.2,0.56 0.29,0.84 0.01,0.03 0.01,0.05 0.02,0.08 -0.05,0 -0.44,0.16 -0.51,0.17l-0.1 -0.31c-0.03,-0.07 -0.3,-0.85 -0.31,-0.91l0 0zm1.28 0.74c-0.01,-0.03 -0.02,-0.07 -0.04,-0.1 -0.01,-0.04 -0.02,-0.07 -0.03,-0.11l-0.11 -0.31c-0.01,-0.04 -0.02,-0.06 -0.04,-0.11 -0.01,-0.03 -0.02,-0.07 -0.03,-0.1 -0.01,-0.03 -0.03,-0.08 -0.03,-0.11 0.03,-0.01 0.1,-0.06 0.12,-0.07 0.14,-0.1 0.11,-0.17 0.27,-0.34 0.07,-0.07 0.15,-0.13 0.24,-0.17 0.29,-0.11 0.57,-0.1 0.84,0.06 0.01,0.01 0.02,0.02 0.03,0.03 0.26,0.19 0.04,0.17 0.59,0.17 0.07,0 0.16,-0.01 0.23,0 0.15,0.03 0.14,0.19 0.07,0.24 -0.07,0.06 -0.27,0.04 -0.36,0.04 -0.18,0 -0.36,0 -0.54,0 -0.18,0 -0.31,0 -0.34,0.19 -0.02,0.09 0.02,0.14 0.07,0.19 0.05,0.04 0.12,0.06 0.21,0.06l0.73 0c0.21,0 0.36,-0.03 0.49,-0.13 0.05,-0.03 0.11,-0.11 0.14,-0.17 0.06,-0.12 0.04,-0.11 0.13,-0.17l0.37 -0.25c0.08,-0.06 0.33,-0.24 0.41,-0.24 0.06,0 0.09,0.01 0.12,0.04 0.17,0.17 -0.1,0.3 -0.25,0.41l-0.53 0.37c-0.17,0.12 -0.36,0.28 -0.54,0.37 -0.12,0.06 -0.3,0.13 -0.46,0.15 -0.09,0.01 -0.19,0.01 -0.29,0.01l-0.29 0.01c-0.09,0.02 -0.2,0 -0.29,0.01l-0.59 0.02c-0.06,0 -0.09,0.01 -0.14,0.01 -0.05,0 -0.11,0 -0.16,0l0 0zm-0.43 -1.26c-0.02,-0.04 -0.04,-0.07 -0.07,-0.1 -0.09,-0.07 -0.21,-0.04 -0.31,0l-0.76 0.26c-0.12,0.04 -0.2,0.08 -0.2,0.23 0,0.05 0.02,0.09 0.03,0.13 0.01,0.04 0.03,0.07 0.04,0.12l0.41 1.19c0.02,0.08 0.05,0.16 0.08,0.24 0.08,0.19 0.2,0.18 0.38,0.12l0.31 -0.11c0.05,-0.02 0.1,-0.03 0.16,-0.05 0.09,-0.03 0.38,-0.12 0.44,-0.18 0.04,-0.04 0.06,-0.09 0.06,-0.16 0.05,0 0.09,-0.01 0.15,-0.01l0.51 -0.01c0.12,0 0.37,-0.02 0.49,-0.02 0.17,0 0.33,0 0.49,-0.02 0.32,-0.05 0.51,-0.11 0.77,-0.27 0.08,-0.04 0.14,-0.09 0.21,-0.14 0.03,-0.02 0.06,-0.04 0.1,-0.07l0.1 -0.07c0.07,-0.05 0.13,-0.09 0.2,-0.14l0.55 -0.4c0.02,-0.01 0.03,-0.02 0.05,-0.03 0.13,-0.1 0.26,-0.27 0.26,-0.44 0,-0.16 -0.01,-0.26 -0.11,-0.4 -0.1,-0.13 -0.27,-0.25 -0.44,-0.25 -0.21,0 -0.29,0.04 -0.45,0.15 -0.04,0.02 -0.07,0.05 -0.11,0.07 -0.09,0.07 -0.21,0.14 -0.31,0.21 -0.02,0.02 -0.08,0.06 -0.1,0.07 -0.02,-0.01 -0.02,-0.02 -0.03,-0.04l-0.11 -0.1c-0.22,-0.16 -0.44,-0.11 -0.73,-0.11 -0.06,0 -0.07,-0.02 -0.1,-0.05 -0.06,-0.06 -0.19,-0.14 -0.26,-0.17 -0.39,-0.19 -0.92,-0.14 -1.28,0.1 -0.06,0.04 -0.15,0.11 -0.2,0.17 -0.01,0.02 -0.02,0.02 -0.03,0.03 -0.07,0.08 -0.14,0.22 -0.19,0.25z"/>
    <path fill="black" d="M4.76 1.37c0,0.27 -0.02,0.46 -0.19,0.68l-0.11 0.14 -0.14 0.11c-0.54,0.35 -1.22,0.18 -1.51,-0.41 -0.08,-0.17 -0.13,-0.4 -0.08,-0.63 0.03,-0.15 0.09,-0.27 0.17,-0.39 0.01,-0.02 0.03,-0.04 0.04,-0.06 0.01,-0.01 0.02,-0.01 0.03,-0.02 0.06,-0.09 0.14,-0.14 0.23,-0.2 0.26,-0.18 0.61,-0.21 0.9,-0.09 0.35,0.13 0.66,0.49 0.66,0.87l0 0zm-2.48 0.04c0,0.5 0.21,0.95 0.62,1.24 0.01,0.01 0.03,0.02 0.05,0.03l0.18 0.1c0.27,0.14 0.63,0.17 0.92,0.1 0.05,-0.01 0.09,-0.02 0.14,-0.04 0.13,-0.04 0.24,-0.1 0.36,-0.17 0.13,-0.09 0.22,-0.19 0.32,-0.3 0.17,-0.19 0.33,-0.56 0.33,-0.83 0,-0.35 -0.05,-0.58 -0.22,-0.85 -0.01,-0.02 -0.02,-0.04 -0.04,-0.06 -0.07,-0.1 -0.15,-0.19 -0.24,-0.27 -0.24,-0.19 -0.54,-0.36 -0.86,-0.36 -0.3,0 -0.45,0.01 -0.71,0.13 -0.12,0.06 -0.23,0.13 -0.33,0.21 -0.12,0.09 -0.24,0.25 -0.32,0.38 -0.12,0.2 -0.2,0.46 -0.2,0.69l0 0z"/>
    <path fill="black" d="M3.28 1.09c0,0.22 0.07,0.29 0.23,0.42l0.18 0.12c0.02,0.01 0.02,0.02 0.03,0.03 0.03,0.02 0.12,0.08 0.13,0.1 0,0.03 -0.01,0.06 -0.03,0.07 -0.04,0.02 -0.14,0 -0.18,-0.01 -0.03,-0.11 -0.06,-0.21 -0.19,-0.21 -0.09,0 -0.17,0.07 -0.17,0.16 0,0.15 0.07,0.27 0.18,0.35 0.11,0.06 0.1,0 0.11,0.07 0.05,0.23 0.34,0.17 0.34,-0.03 0.07,-0.01 0.16,-0.09 0.2,-0.13 0.15,-0.19 0.1,-0.39 -0.06,-0.56l-0.27 -0.2c-0.05,-0.03 -0.15,-0.08 -0.15,-0.16 0,-0.04 0.08,-0.03 0.17,-0.03 0.02,0 0.02,0 0.03,0.01 0.03,0.04 0.02,0.1 0.05,0.14 0.07,0.1 0.21,0.09 0.27,0.02 0.12,-0.14 -0.01,-0.34 -0.13,-0.45 -0.05,-0.04 -0.09,-0.03 -0.11,-0.06 0,0 -0.01,-0.05 -0.02,-0.06 -0.05,-0.15 -0.28,-0.14 -0.32,0.03 -0.01,0.07 0,0.03 -0.1,0.08 -0.08,0.04 -0.19,0.18 -0.19,0.3l0 0z"/>
   </g>
  </g>
 </g>
</svg>
