<?xml version="1.0" encoding="UTF-8"?>
<!DOCTYPE svg PUBLIC "-//W3C//DTD SVG 1.0//EN" "http://www.w3.org/TR/2001/REC-SVG-20010904/DTD/svg10.dtd">
<!-- Creator: CorelDRAW 2018 (64 Bit Versão de avaliação) -->
<svg xmlns="http://www.w3.org/2000/svg" xml:space="preserve" width="41px" height="41px" version="1.0" shape-rendering="geometricPrecision" text-rendering="geometricPrecision" image-rendering="optimizeQuality" fill-rule="evenodd" clip-rule="evenodd"
viewBox="0 0 5.78 5.79"
 xmlns:xlink="http://www.w3.org/1999/xlink">
 <g id="Camada_x0020_1">
  <metadata id="CorelCorpID_0Corel-Layer"/>
  <g id="_2889424219840">
   <g>
    <path fill="black" d="M2.69 1.82l0 -0.85c0,-0.31 0.37,-0.31 0.41,-0.05l0 0.85c0.07,0.05 0.13,0.1 0.2,0.15 0.14,0.13 0.33,0.23 0.31,0.38 -0.01,0.1 -0.08,0.16 -0.18,0.18 -0.12,0.01 -0.31,-0.17 -0.42,-0.27 -0.2,-0.15 -0.32,-0.2 -0.32,-0.39zm-1.66 -0.03c0,0.41 0.03,0.51 0.18,0.87l0.16 0.27c0.1,0.15 0.08,0.11 0.18,0.22l0.03 0.03c0.33,0.32 0.75,0.54 1.23,0.54 0.45,0 0.66,-0.05 1.02,-0.25 0.17,-0.09 0.35,-0.25 0.49,-0.4l0.18 -0.26c0.2,-0.36 0.25,-0.58 0.25,-1.02 0,-0.36 -0.14,-0.73 -0.33,-1 -0.11,-0.14 -0.2,-0.24 -0.32,-0.35 -0.04,-0.03 -0.09,-0.06 -0.13,-0.1 -0.07,-0.05 -0.2,-0.13 -0.28,-0.16 -0.58,-0.24 -1.02,-0.24 -1.59,0l-0.28 0.16c-0.16,0.11 -0.17,0.14 -0.29,0.26 -0.02,0.02 -0.04,0.04 -0.06,0.06 -0.25,0.28 -0.44,0.75 -0.44,1.13z"/>
    <path fill="black" d="M0.87 4.75l1.16 0c0.32,0 0.32,0.42 0,0.42l-1.16 0c-0.32,0 -0.33,-0.42 0,-0.42zm-0.87 0.16c0,0.17 0,0.26 0.08,0.41 0.01,0.04 0.05,0.09 0.07,0.12 0.14,0.19 0.38,0.35 0.62,0.35l4.24 0c0.39,0 0.77,-0.39 0.77,-0.78l0 -0.1c0,-0.39 -0.38,-0.77 -0.77,-0.77l-4.24 0c-0.39,0 -0.77,0.38 -0.77,0.77z"/>
   </g>
  </g>
 </g>
</svg>
