<?xml version="1.0" encoding="UTF-8"?>
<!DOCTYPE svg PUBLIC "-//W3C//DTD SVG 1.0//EN" "http://www.w3.org/TR/2001/REC-SVG-20010904/DTD/svg10.dtd">
<!-- Creator: CorelDRAW 2018 (64 Bit Versão de avaliação) -->
<svg xmlns="http://www.w3.org/2000/svg" xml:space="preserve" width="41px" height="41px" version="1.0" shape-rendering="geometricPrecision" text-rendering="geometricPrecision" image-rendering="optimizeQuality" fill-rule="evenodd" clip-rule="evenodd"
viewBox="0 0 1.32 1.32"
 xmlns:xlink="http://www.w3.org/1999/xlink">
 <g id="Camada_x0020_1">
  <metadata id="CorelCorpID_0Corel-Layer"/>
  <g id="_2038827654752">
   <path fill="black" d="M0.62 0.12c0.08,-0.01 0.17,0.01 0.24,0.03 0.03,0.02 0.06,0.03 0.09,0.05 0.05,0.03 0.07,0.05 0.11,0.09 0.01,0.01 0.01,0.01 0.02,0.02 0,0.01 0,0.01 0.01,0.02 0.06,0.08 0.11,0.18 0.11,0.29 0.01,0.15 -0.04,0.3 -0.14,0.4 -0.07,0.08 -0.14,0.13 -0.25,0.16 -0.11,0.04 -0.24,0.03 -0.35,-0.01 -0.05,-0.03 -0.1,-0.05 -0.15,-0.09 -0.03,-0.03 -0.06,-0.06 -0.08,-0.09 -0.16,-0.21 -0.16,-0.47 0.01,-0.68 0.04,-0.05 0.11,-0.1 0.17,-0.13 0.06,-0.04 0.13,-0.06 0.21,-0.06zm-0.62 0.58c0.01,0.21 0.12,0.38 0.24,0.47 0,0 0.01,0.01 0.02,0.02 0.05,0.04 0.09,0.06 0.16,0.08 0.22,0.09 0.46,0.06 0.64,-0.09 0.05,-0.04 0.05,-0.04 0.09,-0.07l0.03 -0.05c0.02,-0.02 0.03,-0.03 0.04,-0.05 0.08,-0.12 0.1,-0.24 0.1,-0.39 -0.01,-0.13 -0.06,-0.27 -0.14,-0.36 -0.04,-0.05 -0.07,-0.09 -0.12,-0.13 -0.02,-0.01 -0.03,-0.02 -0.05,-0.03 -0.03,-0.02 -0.07,-0.04 -0.11,-0.05 -0.17,-0.07 -0.37,-0.06 -0.54,0.02 -0.14,0.07 -0.26,0.2 -0.32,0.35 -0.03,0.09 -0.04,0.17 -0.04,0.28z"/>
   <path fill="black" d="M0.89 0.5c0.01,-0.07 -0.06,-0.11 -0.13,-0.04 -0.02,0.02 -0.05,0.06 -0.08,0.09 -0.01,0 -0.01,0.01 -0.02,0.01l-0.13 0.13c-0.02,0.02 -0.04,0.04 -0.06,0.06 -0.01,0.02 -0.04,0.04 -0.04,0.07 -0.01,0.02 0,0.04 0.01,0.05 0,0.01 0.01,0.02 0.03,0.02 0.04,0.01 0.06,-0.01 0.08,-0.03 0.04,-0.04 0.08,-0.08 0.12,-0.12l0.16 -0.16c0.02,-0.02 0.06,-0.05 0.06,-0.08z"/>
   <path fill="black" d="M0.43 0.49c0,0.03 0.02,0.06 0.06,0.06 0.07,-0.01 0.09,-0.12 -0.01,-0.12 -0.03,0 -0.06,0.03 -0.05,0.06z"/>
   <path fill="black" d="M0.89 0.84c0.01,-0.04 -0.02,-0.06 -0.05,-0.07 -0.04,0 -0.07,0.03 -0.07,0.06 0,0.08 0.11,0.09 0.12,0.01z"/>
  </g>
 </g>
</svg>
