<?xml version="1.0" encoding="UTF-8"?>
<!DOCTYPE svg PUBLIC "-//W3C//DTD SVG 1.0//EN" "http://www.w3.org/TR/2001/REC-SVG-20010904/DTD/svg10.dtd">
<!-- Creator: CorelDRAW 2018 (64 Bit Versão de avaliação) -->
<svg xmlns="http://www.w3.org/2000/svg" xml:space="preserve" width="41px" height="41px" version="1.0" shape-rendering="geometricPrecision" text-rendering="geometricPrecision" image-rendering="optimizeQuality" fill-rule="evenodd" clip-rule="evenodd"
viewBox="0 0 1.58 1.58"
 xmlns:xlink="http://www.w3.org/1999/xlink">
 <g id="Camada_x0020_1">
  <metadata id="CorelCorpID_0Corel-Layer"/>
  <path fill="black" d="M0 0.34c0,0.26 0.17,0.53 0.33,0.71l0.15 0.16c0.01,0.01 0.01,0.01 0.02,0.02 0.18,0.17 0.48,0.35 0.73,0.35 0.14,0 0.24,-0.06 0.31,-0.16 0.06,-0.09 0.05,-0.19 -0.04,-0.26l-0.08 -0.05c-0.02,-0.02 -0.04,-0.03 -0.06,-0.04 -0.08,-0.05 -0.1,-0.1 -0.2,-0.1 -0.05,0 -0.09,0.03 -0.12,0.05 -0.01,0.02 -0.02,0.03 -0.03,0.05 -0.02,0.02 -0.03,0.03 -0.04,0.05 -0.01,-0.01 -0.02,-0.01 -0.03,-0.02 -0.15,-0.11 -0.36,-0.31 -0.46,-0.46 -0.01,-0.01 -0.02,-0.02 -0.03,-0.04 0.02,-0.01 0.04,-0.02 0.05,-0.03 0.07,-0.05 0.1,-0.07 0.1,-0.17 0,-0.06 -0.03,-0.1 -0.05,-0.13 -0.01,-0.01 -0.01,-0.02 -0.02,-0.03 -0.01,-0.01 -0.01,-0.01 -0.02,-0.02 -0.04,-0.07 -0.11,-0.17 -0.17,-0.2 -0.1,-0.05 -0.2,0.01 -0.27,0.09 -0.05,0.05 -0.07,0.15 -0.07,0.23z"/>
 </g>
</svg>
