<?xml version="1.0" encoding="UTF-8"?>
<!DOCTYPE svg PUBLIC "-//W3C//DTD SVG 1.0//EN" "http://www.w3.org/TR/2001/REC-SVG-20010904/DTD/svg10.dtd">
<!-- Creator: CorelDRAW 2018 (64 Bit Versão de avaliação) -->
<svg xmlns="http://www.w3.org/2000/svg" xml:space="preserve" width="41px" height="42px" version="1.0" shape-rendering="geometricPrecision" text-rendering="geometricPrecision" image-rendering="optimizeQuality" fill-rule="evenodd" clip-rule="evenodd"
viewBox="0 0 5.82 5.83"
 xmlns:xlink="http://www.w3.org/1999/xlink">
 <g id="Camada_x0020_1">
  <metadata id="CorelCorpID_0Corel-Layer"/>
  <path fill="#292929" d="M1.39 0.42c0.07,0.08 0.61,1.16 0.65,1.29 -0.14,0.22 -0.66,0.32 -0.38,0.93 0.21,0.47 0.97,1.23 1.47,1.49 0.17,0.08 0.4,0.14 0.57,0.02 0.11,-0.07 0.27,-0.29 0.32,-0.43 0.18,0.03 0.94,0.45 1.16,0.56 0.12,0.06 0.19,0.06 0.12,0.23 -0.04,0.11 -0.45,0.67 -0.54,0.77 -0.13,0.16 -0.48,0.05 -0.69,0.01 -0.24,-0.04 -0.45,-0.12 -0.65,-0.21 -0.36,-0.15 -0.8,-0.43 -1.08,-0.65 -0.24,-0.19 -0.25,-0.21 -0.45,-0.4 -0.12,-0.11 -0.33,-0.3 -0.43,-0.43 -0.06,-0.08 -0.11,-0.14 -0.18,-0.23 -0.4,-0.54 -0.9,-1.48 -0.83,-2.17 0.01,-0.16 0.07,-0.2 0.15,-0.26 0.09,-0.07 0.17,-0.12 0.26,-0.18 0.08,-0.07 0.45,-0.33 0.53,-0.34zm2.09 3.38c-0.3,-0.09 -1.26,-1.03 -1.41,-1.32 -0.07,-0.15 0.01,-0.2 0.1,-0.26 0.17,-0.14 0.3,-0.17 0.35,-0.44 0.04,-0.23 -0.12,-0.39 -0.21,-0.55 -0.13,-0.23 -0.4,-0.93 -0.53,-1.06 -0.13,-0.12 -0.37,-0.23 -0.59,-0.14 -0.17,0.08 -0.32,0.21 -0.49,0.3 -0.32,0.18 -0.7,0.4 -0.7,0.88 -0.01,1.17 0.61,2.12 1.28,2.87 0.03,0.04 0.05,0.06 0.09,0.1 0.25,0.28 0.74,0.71 1.07,0.91 0.51,0.32 1.6,0.9 2.41,0.7 0.28,-0.07 0.54,-0.56 0.74,-0.84 0.09,-0.13 0.23,-0.35 0.23,-0.56 0,-0.27 -0.16,-0.34 -0.35,-0.44 -0.35,-0.18 -0.68,-0.36 -1.03,-0.54 -0.64,-0.32 -0.74,0.07 -0.96,0.39z"/>
 </g>
</svg>
