<?xml version="1.0" encoding="UTF-8"?>
<!DOCTYPE svg PUBLIC "-//W3C//DTD SVG 1.0//EN" "http://www.w3.org/TR/2001/REC-SVG-20010904/DTD/svg10.dtd">
<!-- Creator: CorelDRAW 2018 (64 Bit Versão de avaliação) -->
<svg xmlns="http://www.w3.org/2000/svg" xml:space="preserve" width="41px" height="41px" version="1.0" shape-rendering="geometricPrecision" text-rendering="geometricPrecision" image-rendering="optimizeQuality" fill-rule="evenodd" clip-rule="evenodd"
viewBox="0 0 1.15 1.16"
 xmlns:xlink="http://www.w3.org/1999/xlink">
 <g id="Camada_x0020_1">
  <metadata id="CorelCorpID_0Corel-Layer"/>
  <g id="_2039366907216">
   <g>
    <path fill="#292929" d="M0 0.59c0,0.13 0.03,0.24 0.1,0.33 0.01,0.02 0.02,0.03 0.03,0.04l0.04 0.05c0.01,0.01 0.01,0.01 0.02,0.02 0.09,0.08 0.21,0.12 0.34,0.13l0.03 0c0.09,-0.01 0.17,-0.03 0.24,-0.07 0.03,-0.02 0.1,-0.07 0.13,-0.1 0.03,-0.04 0.06,-0.08 0.09,-0.13 0.01,-0.04 0.05,-0.09 0.01,-0.12 -0.03,-0.03 -0.07,-0.03 -0.09,0.02 -0.03,0.05 -0.03,0.07 -0.07,0.12 -0.02,0.02 -0.05,0.05 -0.07,0.07 -0.01,0.01 -0.02,0.01 -0.03,0.02 -0.02,0.01 -0.04,0.02 -0.06,0.03 -0.1,0.05 -0.24,0.05 -0.34,0.01 -0.06,-0.03 -0.13,-0.09 -0.18,-0.15 -0.01,-0.02 -0.02,-0.04 -0.04,-0.06 -0.04,-0.1 -0.05,-0.24 0,-0.35 0.01,-0.03 0.03,-0.06 0.05,-0.09 0.01,-0.01 0.01,-0.01 0.02,-0.02 0.03,-0.04 0.07,-0.07 0.11,-0.09 0.04,-0.02 0.11,-0.03 0.11,-0.08 0,-0.04 -0.03,-0.06 -0.06,-0.06 -0.05,0 -0.14,0.06 -0.18,0.09 -0.02,0.01 -0.06,0.06 -0.08,0.08 -0.06,0.06 -0.12,0.19 -0.12,0.31z"/>
    <path fill="#292929" d="M0.59 0.53l0 -0.41c0.07,0 0.19,0.05 0.24,0.09 0.01,0.01 0.02,0.02 0.03,0.03 0.05,0.04 0.09,0.08 0.12,0.15 0.03,0.04 0.05,0.12 0.06,0.17l-0.36 0c-0.04,0 -0.09,0.01 -0.09,-0.03zm-0.11 -0.46l0 0.46c0,0.08 0.06,0.15 0.14,0.15l0.47 0c0.08,0 0.06,-0.09 0.06,-0.1 0,-0.13 -0.07,-0.27 -0.15,-0.36 -0.09,-0.11 -0.25,-0.22 -0.46,-0.22 -0.04,0 -0.06,0.03 -0.06,0.07z"/>
   </g>
  </g>
 </g>
</svg>
