<?xml version="1.0" encoding="UTF-8"?>
<!DOCTYPE svg PUBLIC "-//W3C//DTD SVG 1.0//EN" "http://www.w3.org/TR/2001/REC-SVG-20010904/DTD/svg10.dtd">
<!-- Creator: CorelDRAW 2018 (64 Bit Versão de avaliação) -->
<svg xmlns="http://www.w3.org/2000/svg" xml:space="preserve" width="35px" height="41px" version="1.0" shape-rendering="geometricPrecision" text-rendering="geometricPrecision" image-rendering="optimizeQuality" fill-rule="evenodd" clip-rule="evenodd"
viewBox="0 0 2.51 2.92"
 xmlns:xlink="http://www.w3.org/1999/xlink">
 <g id="Camada_x0020_1">
  <metadata id="CorelCorpID_0Corel-Layer"/>
  <g id="_1950503844592">
   <g>
    <path fill="black" d="M1.91 1.55c-0.13,0 -0.13,-0.19 -0.01,-0.19 0.03,0 0.05,0.01 0.07,0.03 0.06,0.05 0.01,0.16 -0.06,0.16zm-0.91 1.37l-0.37 0c-0.1,-0.01 -0.07,-0.04 -0.09,-0.14 -0.03,-0.22 -0.11,-0.26 -0.21,-0.38 -0.03,-0.04 -0.05,-0.08 -0.08,-0.13 -0.01,-0.02 -0.02,-0.03 -0.03,-0.06 -0.01,-0.03 -0.02,-0.04 -0.03,-0.07 -0.1,-0.23 -0.1,-0.48 0.01,-0.7 0.08,0.04 0.06,0.06 0.23,0.12 0.09,0.04 0.2,0.06 0.31,0.06 0.24,0 0.47,-0.11 0.62,-0.26 0.25,-0.25 0.19,-0.44 0.31,-0.55 0.1,-0.09 0.37,-0.2 0.37,-0.06 0,0.04 -0.02,0.05 -0.04,0.11 -0.03,0.06 -0.04,0.17 -0.01,0.22l0.16 0.17c0.05,0.06 0.09,0.13 0.12,0.2l0.03 0.08c0.08,0 0.21,-0.01 0.21,0.13l0 0.26c0,0.15 -0.13,0.13 -0.2,0.13 -0.01,0.02 -0.02,0.05 -0.03,0.06 -0.01,0.03 -0.01,0.04 -0.02,0.06 -0.01,0.03 -0.02,0.04 -0.03,0.06 -0.09,0.16 -0.22,0.25 -0.27,0.32 -0.03,0.03 -0.05,0.06 -0.06,0.1 -0.04,0.12 -0.01,0.19 -0.03,0.23 -0.01,0.02 -0.03,0.04 -0.04,0.04l-0.41 0c-0.03,0 -0.05,-0.03 -0.06,-0.05 0,-0.03 0,-0.07 0,-0.11 -0.05,0.03 -0.24,0 -0.3,0 0,0.05 0.01,0.16 -0.06,0.16z"/>
    <path fill="black" d="M0.92 0.52c-0.05,-0.01 -0.07,-0.04 -0.17,-0.04 -0.08,0 -0.16,0.08 0,0.15 0.1,0.05 0.25,0.09 0.25,0.26 0,0.1 -0.08,0.18 -0.16,0.21 -0.02,0 -0.04,0.01 -0.05,0.03 -0.03,0.07 0.06,0.11 -0.09,0.11 -0.03,0 -0.04,-0.03 -0.04,-0.07 0.01,-0.05 0.01,-0.05 -0.04,-0.06 -0.18,-0.03 -0.15,-0.06 -0.13,-0.12 0.01,-0.01 0.01,-0.02 0.01,-0.03 0,-0.01 0.01,-0.02 0.01,-0.03 0.04,0 0.1,0.05 0.2,0.05 0.1,0 0.17,-0.1 0.03,-0.17 -0.08,-0.04 -0.26,-0.08 -0.26,-0.24 0,-0.19 0.18,-0.2 0.19,-0.23 0.02,-0.03 -0.01,-0.11 0.03,-0.11 0.11,0 0.09,0 0.1,0.07 0,0.03 0,0.04 0.03,0.05 0.16,0.03 0.14,0.03 0.12,0.11 -0.02,0.03 -0.01,0.03 -0.03,0.06zm-0.23 -0.52l0.1 0c0.09,0.01 0.18,0.03 0.27,0.07 0.06,0.03 0.16,0.11 0.21,0.15 0.21,0.23 0.26,0.52 0.14,0.81 -0.02,0.05 -0.04,0.09 -0.07,0.12l-0.08 0.1c-0.03,0.03 -0.12,0.1 -0.15,0.12 -0.12,0.07 -0.25,0.1 -0.39,0.1 -0.11,0 -0.23,-0.03 -0.3,-0.07 -0.16,-0.08 -0.28,-0.2 -0.36,-0.37 -0.06,-0.15 -0.07,-0.29 -0.04,-0.45 0.02,-0.13 0.1,-0.26 0.18,-0.36 0.02,-0.02 0.03,-0.02 0.05,-0.04 0.13,-0.11 0.28,-0.17 0.44,-0.18z"/>
   </g>
  </g>
 </g>
</svg>
