<?xml version="1.0" encoding="UTF-8"?>
<!DOCTYPE svg PUBLIC "-//W3C//DTD SVG 1.0//EN" "http://www.w3.org/TR/2001/REC-SVG-20010904/DTD/svg10.dtd">
<!-- Creator: CorelDRAW 2018 (64 Bit Versão de avaliação) -->
<svg xmlns="http://www.w3.org/2000/svg" xml:space="preserve" width="40px" height="40px" version="1.0" shape-rendering="geometricPrecision" text-rendering="geometricPrecision" image-rendering="optimizeQuality" fill-rule="evenodd" clip-rule="evenodd"
viewBox="0 0 1.1 1.1"
 xmlns:xlink="http://www.w3.org/1999/xlink">
 <g id="Camada_x0020_1">
  <metadata id="CorelCorpID_0Corel-Layer"/>
  <g id="_2289544894736">
   <g>
    <path fill="#292929" d="M0.1 0.84l0 -0.19 0.22 0c0,0.08 -0.01,0.12 0.03,0.18 0.02,0.03 0.06,0.06 0.1,0.07 -0.01,0.01 -0.05,0.06 -0.07,0.07 -0.12,0.09 -0.28,-0.01 -0.28,-0.13zm0.41 -0.03c-0.03,0 -0.05,-0.01 -0.06,-0.03 -0.04,-0.03 -0.03,-0.09 -0.03,-0.15 0,-0.04 0.01,-0.08 -0.01,-0.08l-0.4 0c-0.01,0 -0.01,0 -0.01,0.01l0 0 0 0.27c0,0.05 0.02,0.11 0.05,0.15 0.02,0.03 0.03,0.05 0.06,0.07 0.06,0.04 0.11,0.05 0.18,0.05 0.07,0 0.14,-0.03 0.18,-0.07l0.31 -0.31c0.04,-0.04 0.14,-0.15 0.18,-0.17 0.04,-0.02 0.09,-0.04 0.14,-0.04l0 -0.1c-0.1,0 -0.19,0.04 -0.26,0.11 -0.01,0.01 -0.02,0.02 -0.03,0.03l-0.22 0.21c-0.02,0.02 -0.04,0.05 -0.08,0.05z"/>
    <path fill="#292929" d="M0.46 0.13c0,0.03 -0.01,0.06 -0.02,0.08 -0.01,0.02 -0.02,0.03 -0.04,0.04 -0.07,0.05 -0.18,-0.01 -0.26,0.09 -0.03,0.03 -0.05,0.07 -0.05,0.12 0.02,0.01 0.05,0.01 0.08,0.01 0.02,0 0.02,0 0.02,-0.02 0.01,-0.01 0.01,-0.02 0.02,-0.03 0.01,-0.02 0.02,-0.03 0.05,-0.04 0.02,-0.01 0.05,0 0.08,0 0.12,-0.01 0.22,-0.11 0.22,-0.22l0 -0.15c0,-0.01 -0.01,-0.01 -0.01,-0.01l0 0 -0.09 0 0 0.13z"/>
    <path fill="#292929" d="M0.28 0.01l0 0.18c0,0.02 0.04,0.01 0.09,0.01 0,0 0.01,-0.01 0.01,-0.01l0 -0.18c0,-0.01 -0.01,-0.01 -0.01,-0.01l-0.08 0 0 0c-0.01,0 -0.01,0 -0.01,0.01z"/>
   </g>
  </g>
 </g>
</svg>
