<?xml version="1.0" encoding="UTF-8"?>
<!DOCTYPE svg PUBLIC "-//W3C//DTD SVG 1.0//EN" "http://www.w3.org/TR/2001/REC-SVG-20010904/DTD/svg10.dtd">
<!-- Creator: CorelDRAW 2018 (64 Bit Versão de avaliação) -->
<svg xmlns="http://www.w3.org/2000/svg" xml:space="preserve" width="41px" height="41px" version="1.0" shape-rendering="geometricPrecision" text-rendering="geometricPrecision" image-rendering="optimizeQuality" fill-rule="evenodd" clip-rule="evenodd"
viewBox="0 0 1.33 1.33"
 xmlns:xlink="http://www.w3.org/1999/xlink">
 <g id="Camada_x0020_1">
  <metadata id="CorelCorpID_0Corel-Layer"/>
  <g id="_2283185785776">
   <g>
    <path fill="black" d="M0 0.65c0,0.05 0,0.08 0.03,0.12 0.02,0.04 0.11,0.12 0.15,0.16 0.04,0.04 0.01,0.03 0.11,0.03 0.05,0 0.09,-0.02 0.11,-0.05l0.16 -0.16c0.03,-0.02 0.05,-0.06 0.1,-0.06 0.04,0 0.07,0.03 0.09,0.06 0.04,0.03 0.17,0.18 0.21,0.19 0.04,0.03 0.1,0.02 0.16,0.02 0.01,0 0.12,-0.12 0.13,-0.12 0.03,-0.04 0.06,-0.07 0.08,-0.12l0 -0.05 0 -0.01c0,-0.01 0,-0.04 0,-0.05 -0.01,-0.01 -0.01,-0.03 -0.02,-0.04 -0.03,-0.05 -0.12,-0.13 -0.16,-0.17 -0.04,-0.04 -0.01,-0.03 -0.12,-0.03 -0.05,0 -0.08,0.02 -0.11,0.05 -0.03,0.02 -0.05,0.05 -0.08,0.08 -0.03,0.02 -0.05,0.05 -0.08,0.08 -0.03,0.03 -0.05,0.06 -0.11,0.06 -0.04,0 -0.07,-0.04 -0.1,-0.06l-0.16 -0.17c-0.01,-0.01 -0.03,-0.02 -0.04,-0.03 -0.04,-0.01 -0.09,-0.01 -0.13,-0.01 -0.01,0 -0.03,0.02 -0.04,0.03 -0.03,0.03 -0.13,0.13 -0.15,0.16 -0.01,0.02 -0.03,0.06 -0.03,0.09z"/>
    <path fill="black" d="M0.27 1.02c0.01,0.02 0.25,0.25 0.26,0.26 0.06,0.05 0.14,0.07 0.21,0.04 0.06,-0.03 0.1,-0.07 0.15,-0.12 0.01,-0.02 0.17,-0.17 0.17,-0.18 -0.13,0 -0.14,-0.02 -0.23,-0.11l-0.12 -0.12c-0.05,-0.05 -0.05,-0.05 -0.1,-0.01 -0.04,0.04 -0.17,0.18 -0.21,0.21 -0.04,0.02 -0.07,0.03 -0.13,0.03z"/>
    <path fill="black" d="M0.27 0.32c0.03,0 0.05,-0.01 0.08,0 0.06,0.02 0.09,0.06 0.14,0.1l0.12 0.13c0.02,0.02 0.02,0.03 0.05,0.03 0.02,0 0.08,-0.06 0.09,-0.08 0.04,-0.03 0.14,-0.14 0.17,-0.16 0.04,-0.02 0.08,-0.03 0.14,-0.03l-0.08 -0.08c-0.03,-0.03 -0.06,-0.06 -0.09,-0.09 -0.01,-0.02 -0.03,-0.03 -0.04,-0.04 -0.02,-0.02 -0.03,-0.04 -0.05,-0.05 -0.01,0 -0.01,-0.01 -0.02,-0.02 -0.01,0 -0.02,-0.01 -0.03,-0.01 -0.02,-0.01 -0.05,-0.02 -0.08,-0.02l-0.01 0c-0.05,0 -0.1,0.02 -0.13,0.05l-0.24 0.24c-0.01,0.01 -0.02,0.01 -0.02,0.03z"/>
   </g>
  </g>
 </g>
</svg>
