<?xml version="1.0" encoding="UTF-8"?>
<!DOCTYPE svg PUBLIC "-//W3C//DTD SVG 1.0//EN" "http://www.w3.org/TR/2001/REC-SVG-20010904/DTD/svg10.dtd">
<!-- Creator: CorelDRAW 2018 (64 Bit Versão de avaliação) -->
<svg xmlns="http://www.w3.org/2000/svg" xml:space="preserve" width="41px" height="41px" version="1.0" shape-rendering="geometricPrecision" text-rendering="geometricPrecision" image-rendering="optimizeQuality" fill-rule="evenodd" clip-rule="evenodd"
viewBox="0 0 1.57 1.58"
 xmlns:xlink="http://www.w3.org/1999/xlink">
 <g id="Camada_x0020_1">
  <metadata id="CorelCorpID_0Corel-Layer"/>
  <path fill="black" d="M0.12 1.21c0.01,0 0.11,0 0.12,0 0.02,0 0.11,0 0.12,0 0,0.02 0,0.17 0,0.21l0 0.03c-0.05,0.01 -0.12,0 -0.18,0 -0.01,0 -0.04,0.01 -0.05,0 -0.02,-0.02 -0.01,-0.2 -0.01,-0.24zm0.61 -0.12l-0.24 0c-0.01,-0.01 0,-0.01 0,-0.02 0,-0.05 -0.01,-0.19 0,-0.22 0,-0.01 0.23,-0.01 0.24,0 0,0.03 0,0.09 0,0.12l0 0.11c0,0.01 0,0.01 0,0.01zm0.48 -0.6l0 0c0.01,0 0.01,0 0.01,0 0.05,0 0.21,-0.01 0.23,0 0,0.02 0,0.17 0,0.23l0 0.01 -0.24 0 0 -0.24zm-0.36 0c0,0 0,0 0,0 0,0 0,0 0,0 0.01,0 0,0 0,0 0.01,0 0.01,0 0.01,0 0.05,0 0.21,-0.01 0.23,0 0,0.03 0,0.08 0,0.12 0,0.01 0,0.11 0,0.12l-0.24 0 0 -0.24zm0.36 -0.36l0.24 0 0 0.24 -0.24 0 0 -0.24zm-0.36 0l0.24 0 0 0.24c-0.02,0 -0.1,0 -0.12,0 -0.04,0 -0.08,0 -0.12,0l0 -0.24zm-0.37 0.41l0.01 -0.05c0,0 0.22,-0.01 0.24,0 0,0 0,0.23 0,0.24l-0.24 0c0,-0.03 0,-0.05 -0.02,-0.07 -0.01,-0.02 -0.03,-0.03 -0.06,-0.03 -0.06,0.01 -0.05,0.08 -0.05,0.12 0,0.11 0,0.23 0,0.34 -0.06,0 -0.12,0 -0.18,0 -0.07,0 -0.1,0 -0.14,0.03 -0.05,0.04 -0.04,0.09 -0.04,0.15 0,0.06 0,0.12 0,0.18 0,0.05 0.02,0.09 0.07,0.11 0.03,0.02 0.11,0.02 0.16,0.02 0.04,0 0.14,0 0.17,-0.01 0.04,-0.02 0.09,-0.06 0.08,-0.1 0.01,-0.05 0,-0.24 0.01,-0.26 0.01,0 0.39,0 0.44,0 0.04,0 0.06,-0.05 0.04,-0.09 0,-0.01 -0.01,-0.02 -0.02,-0.02 -0.03,-0.02 -0.07,-0.01 -0.1,-0.01l0 -0.24 0.01 0c0.04,0 0.21,-0.01 0.23,0 0,0.02 0,0.18 0,0.23 0,0 0,0 0,0l0 0.01c-0.04,0 -0.06,0 -0.08,0.03 -0.01,0.02 -0.01,0.05 0.01,0.07 0.03,0.05 0.15,0.03 0.18,-0.06 0.01,-0.02 0.01,-0.06 0.01,-0.09 0,-0.02 0,-0.18 0,-0.19 0.05,0 0.1,0 0.15,0 0.05,0 0.1,0.01 0.14,-0.01 0.03,-0.01 0.06,-0.05 0.07,-0.08 0.01,-0.03 0,-0.12 0,-0.15 0,-0.2 0.01,-0.41 0,-0.61 -0.05,0 -0.1,0 -0.15,0l-0.45 0c-0.09,0 -0.2,-0.02 -0.24,0.07 -0.01,0.05 0,0.1 0,0.14 0,0.05 0,0.11 0,0.16 -0.06,0 -0.11,0 -0.17,0 -0.06,0 -0.1,-0.01 -0.14,0.01 -0.04,0.03 -0.05,0.06 -0.06,0.12 0,0.05 0,0.09 0.06,0.11l0 0.02c0,-0.01 0.01,-0.01 0.02,-0.02 0.01,-0.01 0.02,-0.01 0.02,-0.01 0.01,-0.02 0.02,-0.04 0.02,-0.06z"/>
 </g>
</svg>
