<?xml version="1.0" encoding="UTF-8"?>
<!DOCTYPE svg PUBLIC "-//W3C//DTD SVG 1.0//EN" "http://www.w3.org/TR/2001/REC-SVG-20010904/DTD/svg10.dtd">
<!-- Creator: CorelDRAW 2018 (64 Bit Versão de avaliação) -->
<svg xmlns="http://www.w3.org/2000/svg" xml:space="preserve" width="41px" height="41px" version="1.0" shape-rendering="geometricPrecision" text-rendering="geometricPrecision" image-rendering="optimizeQuality" fill-rule="evenodd" clip-rule="evenodd"
viewBox="0 0 3.46 3.46"
 xmlns:xlink="http://www.w3.org/1999/xlink">
 <g id="Camada_x0020_1">
  <metadata id="CorelCorpID_0Corel-Layer"/>
  <g id="_2363441730944">
   <g>
    <path fill="#292929" d="M2.28 1.56c0,-0.08 0.03,-0.18 0.06,-0.24 0.01,-0.02 0.03,-0.06 0.05,-0.06 0.01,0.02 0.14,0.2 0.16,0.22l0.07 0.08c0,0.02 0.01,0.02 0.02,0.03 0.02,0.04 0.06,0.08 0.12,0.08 0.08,0 0.14,-0.12 0.2,-0.18 0.02,-0.03 0.16,-0.21 0.16,-0.24 0.01,0.01 0.03,0.04 0.04,0.06 0.14,0.23 0.07,0.5 -0.14,0.65 -0.33,0.22 -0.74,-0.05 -0.74,-0.4zm0.47 -1.56l0.06 0 0.01 0c0.14,0 0.3,0.1 0.39,0.19 0.05,0.05 0.09,0.1 0.12,0.17 0.05,0.1 0.06,0.17 0.06,0.28 0,0.17 -0.13,0.38 -0.14,0.41 0.01,0.02 0.03,0.03 0.04,0.05 0.04,0.05 0.07,0.1 0.1,0.15 0.06,0.12 0.07,0.21 0.07,0.35 0,0.24 -0.19,0.51 -0.41,0.6 -0.13,0.06 -0.22,0.06 -0.36,0.06 -0.13,0 -0.29,-0.08 -0.38,-0.16l-0.05 -0.04c-0.01,-0.01 -0.01,-0.01 -0.02,-0.02 -0.01,-0.01 -0.01,-0.01 -0.02,-0.02 -0.02,0 -0.08,0.04 -0.1,0.05 -0.03,0.02 -0.06,0.04 -0.1,0.05 -0.1,0.05 -0.17,-0.02 -0.17,-0.09 0,-0.06 0.06,-0.1 0.1,-0.13l0.14 -0.08c0,-0.02 -0.01,-0.04 -0.01,-0.06 -0.03,-0.1 -0.03,-0.15 -0.03,-0.26 0,-0.13 0.12,-0.38 0.21,-0.45l-0.05 -0.09c-0.07,-0.14 -0.09,-0.2 -0.09,-0.38 0,-0.08 0.04,-0.18 0.06,-0.23 0.05,-0.09 0.12,-0.18 0.21,-0.24 0.03,-0.02 0.05,-0.03 0.09,-0.05 0.11,-0.05 0.17,-0.06 0.27,-0.06zm0 1.37c-0.01,-0.01 -0.02,-0.02 -0.03,-0.04l-0.14 -0.21c-0.09,-0.12 -0.24,-0.35 -0.24,-0.5 0,-0.08 0.05,-0.2 0.11,-0.25l0.02 -0.02c0.03,-0.04 0.08,-0.07 0.12,-0.09 0.11,-0.05 0.22,-0.05 0.33,0 0.09,0.04 0.17,0.11 0.21,0.2 0.06,0.15 0.04,0.24 -0.03,0.38 -0.06,0.13 -0.14,0.26 -0.22,0.37 -0.01,0.01 -0.02,0.02 -0.03,0.04l-0.1 0.12z"/>
    <path fill="#292929" d="M0.33 2.46l0.25 0.34c0.06,0.06 0.11,0.11 0.2,0.05 0.03,-0.03 0.21,-0.27 0.25,-0.33 0.02,-0.02 0.03,-0.04 0.04,-0.06 0.03,0.01 0.06,0.09 0.08,0.12 0.05,0.16 0.04,0.3 -0.05,0.44 -0.02,0.04 -0.08,0.09 -0.12,0.12 -0.02,0.02 -0.04,0.03 -0.07,0.04 -0.23,0.12 -0.51,0.03 -0.64,-0.22 -0.08,-0.17 -0.05,-0.35 0.06,-0.5zm0.42 1l-0.07 0c-0.11,0 -0.16,-0.01 -0.3,-0.08 -0.07,-0.03 -0.13,-0.08 -0.18,-0.13 -0.01,-0.01 -0.01,-0.01 -0.02,-0.02 -0.01,-0.02 -0.01,-0.02 -0.02,-0.03 -0.09,-0.1 -0.16,-0.27 -0.16,-0.4 0,-0.14 0.01,-0.22 0.07,-0.35 0.06,-0.14 0.11,-0.16 0.14,-0.2 -0.01,-0.01 -0.02,-0.03 -0.03,-0.05l-0.07 -0.14c-0.04,-0.09 -0.05,-0.15 -0.05,-0.27 0,-0.18 0.14,-0.38 0.29,-0.49 0.21,-0.13 0.52,-0.14 0.72,0.02 0.03,0.02 0.05,0.04 0.08,0.07 0.09,0.09 0.19,0.25 0.19,0.39 0,0.23 -0.05,0.29 -0.14,0.47 0.01,0.03 0.03,0.03 0.05,0.06l0.18 -0.11c0.02,-0.01 0.05,-0.02 0.07,-0.02 0.11,0 0.2,0.14 0.03,0.23 -0.02,0.01 -0.03,0.02 -0.05,0.03 -0.04,0.02 -0.08,0.05 -0.12,0.07 0.01,0.02 0.02,0.05 0.03,0.08 0.01,0.02 0.01,0.06 0.02,0.08 0,0.07 0,0.13 -0.01,0.2 -0.02,0.15 -0.09,0.27 -0.19,0.38 -0.01,0.01 -0.02,0.01 -0.03,0.02 -0.02,0.01 -0.03,0.03 -0.05,0.05 -0.02,0.01 -0.04,0.02 -0.06,0.04 -0.07,0.04 -0.21,0.1 -0.32,0.1l0 0zm-0.06 -2.03c0.08,0 0.12,0.01 0.19,0.04 0.13,0.06 0.23,0.21 0.23,0.36 0,0.13 -0.11,0.31 -0.17,0.41l-0.11 0.17c-0.01,0.01 -0.02,0.03 -0.03,0.04 -0.02,0.03 -0.09,0.12 -0.1,0.13 -0.03,-0.03 -0.27,-0.4 -0.29,-0.44 -0.04,-0.05 -0.07,-0.1 -0.09,-0.16 -0.07,-0.21 0,-0.39 0.18,-0.5 0.04,-0.02 0.13,-0.05 0.19,-0.05z"/>
    <path fill="#292929" d="M2.65 0.64c0,-0.06 0.05,-0.11 0.11,-0.11 0.05,0 0.1,0.05 0.1,0.11 0,0.05 -0.05,0.1 -0.11,0.1 -0.05,0 -0.1,-0.05 -0.1,-0.1zm-0.18 -0.03l0 0.06c0,0.12 0.14,0.25 0.26,0.25l0.05 0c0.13,0 0.26,-0.13 0.26,-0.26l0 -0.04c0,-0.13 -0.13,-0.27 -0.26,-0.27 -0.09,0 -0.15,0 -0.23,0.09 -0.01,0.01 -0.02,0.02 -0.03,0.03 -0.03,0.03 -0.05,0.09 -0.05,0.14z"/>
    <path fill="#292929" d="M0.6 1.85c0,-0.09 0.1,-0.16 0.17,-0.08 0.05,0.04 0.05,0.1 0.01,0.15 -0.05,0.04 -0.12,0.04 -0.15,-0.01 -0.02,-0.01 -0.03,-0.04 -0.03,-0.06zm-0.18 -0.03c0,0.1 0.01,0.14 0.07,0.22 0.03,0.03 0.12,0.09 0.18,0.09 0.1,0 0.15,0 0.24,-0.09 0.1,-0.09 0.11,-0.27 0.02,-0.37l-0.02 -0.04c-0.16,-0.14 -0.38,-0.08 -0.47,0.08 -0.01,0.03 -0.02,0.07 -0.02,0.11z"/>
    <path fill="#292929" d="M1.62 2.15c0,0.03 0.02,0.06 0.03,0.08 0.07,0.08 0.2,0.03 0.2,-0.08 0,-0.1 -0.13,-0.14 -0.2,-0.08 -0.01,0.02 -0.03,0.05 -0.03,0.08z"/>
   </g>
  </g>
 </g>
</svg>
