<?xml version="1.0" encoding="UTF-8"?>
<!DOCTYPE svg PUBLIC "-//W3C//DTD SVG 1.0//EN" "http://www.w3.org/TR/2001/REC-SVG-20010904/DTD/svg10.dtd">
<!-- Creator: CorelDRAW 2018 (64 Bit Versão de avaliação) -->
<svg xmlns="http://www.w3.org/2000/svg" xml:space="preserve" width="34px" height="34px" version="1.0" shape-rendering="geometricPrecision" text-rendering="geometricPrecision" image-rendering="optimizeQuality" fill-rule="evenodd" clip-rule="evenodd"
viewBox="0 0 10.83 10.83"
 xmlns:xlink="http://www.w3.org/1999/xlink">
 <g id="Camada_x0020_1">
  <metadata id="CorelCorpID_0Corel-Layer"/>
  <g id="_2707270276560">
   <g>
    <path fill="black" d="M0.63 8.84c0,0.42 0.07,0.69 0.38,1 0.47,0.47 1.26,0.47 1.72,0.02l6.75 -6.75c0.38,-0.37 0.48,-0.43 0.8,-0.86l0.33 -0.52c0.04,-0.07 0.07,-0.12 0.11,-0.19 0.06,-0.15 0.1,-0.29 0.11,-0.43l0 -0.13c-0.04,-0.56 -0.52,-0.98 -0.95,-0.98 -0.38,0 -0.63,0.1 -0.94,0.31 -0.8,0.52 -1.09,0.9 -1.78,1.59l-6.16 6.16c-0.18,0.18 -0.37,0.5 -0.37,0.78z"/>
    <path fill="black" d="M0 1.27c0,0.27 0.15,0.33 0.38,0.55 0.29,0.3 2.88,2.91 2.98,2.98 0.1,-0.07 2.02,-2.01 2.31,-2.3 0.06,-0.05 0.12,-0.09 0.15,-0.17 -0.13,-0.03 -0.28,-0.14 -0.41,-0.17 0.09,-0.14 0.28,-0.22 0.28,-0.43 0,-0.2 -0.14,-0.31 -0.34,-0.31 -0.24,0 -0.33,0.28 -0.57,0.44 -0.1,-0.05 -0.21,-0.1 -0.32,-0.15l-0.34 -0.15c0.04,-0.14 0.3,-0.21 0.3,-0.46 0,-0.21 -0.13,-0.32 -0.34,-0.32 -0.25,0 -0.5,0.47 -0.59,0.47 -0.1,0 -0.69,-0.31 -0.88,-0.39 -0.11,-0.05 -0.19,-0.09 -0.29,-0.13 -0.17,-0.07 -1.1,-0.52 -1.18,-0.52 -0.23,0 -0.22,0.05 -0.39,0.22l-0.53 0.53c-0.08,0.07 -0.22,0.17 -0.22,0.31z"/>
    <path fill="black" d="M6.03 7.47c0.07,0.1 2.66,2.67 2.96,2.97 0.2,0.2 0.33,0.36 0.48,0.39l0.08 0c0.08,-0.02 0.18,-0.08 0.3,-0.2l0.54 -0.54c0.18,-0.17 0.23,-0.17 0.23,-0.4 0,-0.08 -0.2,-0.49 -0.25,-0.58 -0.03,-0.06 -0.04,-0.09 -0.06,-0.15l-0.47 -1.01c-0.04,-0.09 -0.26,-0.54 -0.26,-0.59 0,-0.16 0.47,-0.29 0.47,-0.68 0,-0.2 -0.31,-0.41 -0.58,-0.15 -0.07,0.06 -0.11,0.15 -0.21,0.17l-0.29 -0.65c0.16,-0.24 0.44,-0.29 0.44,-0.64 0,-0.15 -0.15,-0.27 -0.34,-0.27 -0.17,0 -0.29,0.2 -0.4,0.27 -0.03,-0.12 -0.14,-0.27 -0.17,-0.4 -0.1,0.03 -1.17,1.14 -1.24,1.21 -0.11,0.11 -1.17,1.16 -1.23,1.25z"/>
    <path fill="black" d="M3.32 10.15c0.06,0.1 0.26,0.27 0.35,0.37 0.15,0.14 0.25,0.31 0.45,0.31 0.18,0 0.24,-0.1 0.33,-0.19 0.09,-0.09 0.17,-0.16 0.24,-0.26 0.28,-0.37 0.37,-0.83 0.2,-1.27l-0.15 -0.33c-0.13,0.03 -1.2,1.22 -1.42,1.37z"/>
    <path fill="black" d="M0 6.66c0,0.26 0.1,0.28 0.3,0.48 0.1,0.1 0.29,0.27 0.36,0.37l1.23 -1.22c0.06,-0.06 0.14,-0.11 0.16,-0.2 -0.72,-0.38 -1.26,-0.31 -1.84,0.27 -0.08,0.07 -0.21,0.17 -0.21,0.3z"/>
   </g>
  </g>
 </g>
</svg>
