<?xml version="1.0" encoding="UTF-8"?>
<!DOCTYPE svg PUBLIC "-//W3C//DTD SVG 1.0//EN" "http://www.w3.org/TR/2001/REC-SVG-20010904/DTD/svg10.dtd">
<!-- Creator: CorelDRAW 2018 (64 Bit Versão de avaliação) -->
<svg xmlns="http://www.w3.org/2000/svg" xml:space="preserve" width="42px" height="24px" version="1.0" shape-rendering="geometricPrecision" text-rendering="geometricPrecision" image-rendering="optimizeQuality" fill-rule="evenodd" clip-rule="evenodd"
viewBox="0 0 18.05 10.39"
 xmlns:xlink="http://www.w3.org/1999/xlink">
 <g id="Camada_x0020_1">
  <metadata id="CorelCorpID_0Corel-Layer"/>
  <path fill="black" d="M5.44 5.13c0,0.77 0.68,0.62 1.44,0.62 0.25,0 0.48,-0.24 0.48,-0.62 0,-0.22 -0.26,-0.48 -0.48,-0.48l-0.96 0c-0.21,0 -0.48,0.26 -0.48,0.48zm-3.88 3.31l0 -6.49c0,-0.21 0.14,-0.35 0.35,-0.35l14.15 0c0.25,0 0.39,0.11 0.39,0.35l0 6.49c0,0.21 -0.14,0.35 -0.35,0.35l-14.19 0c-0.21,0 -0.35,-0.14 -0.35,-0.35zm-1.56 -6.84l0 7.19c0,0.2 0.14,0.5 0.22,0.64 0.32,0.55 0.94,0.96 1.69,0.96l14.19 0c0.34,0 0.59,-0.06 0.83,-0.18 0.74,-0.37 1.12,-0.97 1.12,-1.93l0 -6.17c0,-0.92 -0.36,-1.52 -1.06,-1.91 -0.22,-0.12 -0.49,-0.2 -0.81,-0.2l-14.27 0c-0.54,0 -1,0.2 -1.28,0.48 -0.27,0.27 -0.63,0.69 -0.63,1.12zm14.77 1.06l0 5.07c0,0.25 0.24,0.48 0.62,0.48 0.21,0 0.48,-0.26 0.48,-0.48l0 -5.07c0,-0.25 -0.24,-0.48 -0.62,-0.48 -0.21,0 -0.48,0.26 -0.48,0.48zm-7.41 0c0,1.23 1.92,0.13 1.92,0.92 0,0.45 0.08,0.91 -0.17,1.03 -0.13,0.07 -0.27,0.02 -0.45,0.04 -0.62,0.05 -0.63,1.01 -0.03,1.09 0.15,0.02 0.65,-0.09 0.65,0.31 0,0.63 0.11,1.05 -0.34,1.07 -0.37,0.01 -1.11,-0.06 -1.31,0.07 -0.52,0.33 -0.2,1.02 0.21,1.02l1.27 0c0.63,0 1.27,-0.63 1.27,-1.26 0,-0.39 0.04,-1.09 -0.07,-1.41 -0.03,-0.07 -0.17,-0.3 -0.17,-0.34 0,-0.08 0.24,-0.38 0.24,-0.72l0 -1.03c0,-0.64 -0.64,-1.27 -1.27,-1.27l-1.27 0c-0.21,0 -0.48,0.26 -0.48,0.48zm3.57 0.79l0 0.17c0,0.48 0.83,0.72 1.06,0.14 0.16,-0.39 -0.16,-0.48 0.83,-0.48 0.29,0 0.32,0.24 0.28,0.49 -0.04,0.28 -0.08,0.46 -0.18,0.67 -0.29,0.59 -1.99,2.9 -1.99,3.16 0,0.38 0.23,0.61 0.48,0.61l2.33 0c0.37,0 0.7,-0.57 0.3,-0.95 -0.25,-0.24 -0.95,-0.14 -1.5,-0.14 0.03,-0.12 0.16,-0.28 0.23,-0.39 0.82,-1.23 1.45,-1.86 1.45,-3.28 0,-0.64 -0.63,-1.27 -1.27,-1.27l-0.75 0c-0.64,0 -1.27,0.63 -1.27,1.27zm-8.78 -0.79c0,0.52 1.03,2.3 1.03,2.54 0,0.05 -0.47,1.04 -0.53,1.19 -0.19,0.45 -0.5,0.98 -0.5,1.34 0,0.41 0.67,0.73 1.01,0.23l0.41 -0.89c0.08,-0.18 0.15,-0.28 0.19,-0.47l0.67 1.36c0.28,0.43 1.01,0.33 1.01,-0.36 0,-0.18 -1.03,-2.32 -1.03,-2.4 0,-0.24 1.03,-2.02 1.03,-2.54 0,-0.41 -0.68,-0.73 -1.01,-0.23l-0.67 1.36c-0.04,-0.18 -0.11,-0.29 -0.19,-0.47 -0.17,-0.41 -0.41,-1.14 -0.81,-1.14 -0.37,0 -0.61,0.23 -0.61,0.48z"/>
 </g>
</svg>
