<?xml version="1.0" encoding="UTF-8"?>
<!DOCTYPE svg PUBLIC "-//W3C//DTD SVG 1.0//EN" "http://www.w3.org/TR/2001/REC-SVG-20010904/DTD/svg10.dtd">
<!-- Creator: CorelDRAW 2018 (64 Bit Versão de avaliação) -->
<svg xmlns="http://www.w3.org/2000/svg" xml:space="preserve" width="46px" height="40px" version="1.0" shape-rendering="geometricPrecision" text-rendering="geometricPrecision" image-rendering="optimizeQuality" fill-rule="evenodd" clip-rule="evenodd"
viewBox="0 0 1.27 1.12"
 xmlns:xlink="http://www.w3.org/1999/xlink">
 <g id="Camada_x0020_1">
  <metadata id="CorelCorpID_0Corel-Layer"/>
  <path fill="#292929" d="M0.79 1.01l-0.31 0c0,-0.04 -0.02,-0.09 -0.04,-0.11 -0.04,-0.04 -0.11,-0.05 -0.17,-0.15 -0.02,-0.02 -0.05,-0.07 -0.05,-0.11l0.83 0c0,0.03 -0.03,0.09 -0.05,0.11 -0.07,0.13 -0.21,0.11 -0.21,0.26zm0.17 -0.48l-0.66 0c-0.01,0 -0.04,-0.05 -0.05,-0.06 -0.01,-0.03 -0.03,-0.06 -0.03,-0.09l0.83 0c-0.01,0.03 -0.02,0.05 -0.03,0.08 -0.01,0.02 -0.04,0.07 -0.06,0.07zm-0.74 -0.42l0.83 0c-0.01,0.03 -0.02,0.07 -0.03,0.09 -0.01,0.02 -0.04,0.07 -0.06,0.07l-0.66 0c-0.01,0 -0.01,-0.01 -0.01,-0.01 -0.01,-0.01 -0.01,-0.02 -0.01,-0.02 -0.01,-0.01 -0.02,-0.02 -0.03,-0.04 -0.02,-0.04 -0.02,-0.07 -0.03,-0.09zm-0.22 -0.06c0,0.07 0.05,0.06 0.11,0.06 0,0.07 0.04,0.14 0.05,0.16 -0.04,0 -0.07,0 -0.1,0 -0.09,0 -0.07,0.11 -0.01,0.11l0.06 0c0,0.04 0.03,0.11 0.05,0.15 -0.09,0 -0.16,-0.01 -0.16,0.06 0,0.06 0.07,0.05 0.11,0.05 0,0.05 0.03,0.12 0.05,0.15 0.09,0.16 0.2,0.15 0.21,0.21 0,0.04 0,0.06 0.02,0.08 0.02,0.02 0.04,0.04 0.07,0.04l0.35 0c0.04,0 0.07,-0.04 0.08,-0.07 0.01,-0.02 0.01,-0.03 0.01,-0.05 0.02,-0.07 0.1,-0.03 0.21,-0.21 0.02,-0.03 0.05,-0.1 0.05,-0.15 0.04,0 0.11,0.01 0.11,-0.06 0,-0.06 -0.09,-0.05 -0.16,-0.05l0.03 -0.07c0.01,-0.03 0.01,-0.05 0.02,-0.08 0.03,0 0.11,0.01 0.11,-0.06 0,-0.03 -0.02,-0.05 -0.05,-0.05 -0.03,-0.01 -0.08,0 -0.11,0 0.01,-0.03 0.02,-0.03 0.05,-0.16 0.05,0 0.11,0.01 0.11,-0.06 0,-0.03 -0.04,-0.05 -0.07,-0.05l-1.13 0c-0.03,0 -0.07,0.02 -0.07,0.05z"/>
 </g>
</svg>
