<?xml version="1.0" encoding="UTF-8"?>
<!DOCTYPE svg PUBLIC "-//W3C//DTD SVG 1.0//EN" "http://www.w3.org/TR/2001/REC-SVG-20010904/DTD/svg10.dtd">
<!-- Creator: CorelDRAW 2018 (64 Bit Versão de avaliação) -->
<svg xmlns="http://www.w3.org/2000/svg" xml:space="preserve" width="17px" height="19px" version="1.0" shape-rendering="geometricPrecision" text-rendering="geometricPrecision" image-rendering="optimizeQuality" fill-rule="evenodd" clip-rule="evenodd"
viewBox="0 0 0.13 0.15"
 xmlns:xlink="http://www.w3.org/1999/xlink">
 <g id="Camada_x0020_1">
  <metadata id="CorelCorpID_0Corel-Layer"/>
  <path fill="black" d="M0 0.02l0 0.11c0,0.01 0.01,0.02 0.02,0.02 0.01,-0.01 0.02,-0.01 0.02,-0.01l0.03 -0.02c0.02,-0.01 0.03,-0.02 0.05,-0.03 0.01,0 0.01,0 0.01,-0.01 0.01,0 0,-0.02 0,-0.02 -0.01,-0.01 -0.01,-0.01 -0.02,-0.01 -0.01,-0.01 -0.02,-0.01 -0.03,-0.02l-0.03 -0.02c0,0 0,0 -0.01,0l0 0c-0.01,0 -0.01,-0.01 -0.01,-0.01 -0.01,0 -0.02,0 -0.02,0.01 -0.01,0 -0.01,0 -0.01,0.01z"/>
 </g>
</svg>
