<?xml version="1.0" encoding="UTF-8"?>
<!DOCTYPE svg PUBLIC "-//W3C//DTD SVG 1.0//EN" "http://www.w3.org/TR/2001/REC-SVG-20010904/DTD/svg10.dtd">
<!-- Creator: CorelDRAW 2018 (64 Bit Versão de avaliação) -->
<svg xmlns="http://www.w3.org/2000/svg" xml:space="preserve" width="41px" height="41px" version="1.0" shape-rendering="geometricPrecision" text-rendering="geometricPrecision" image-rendering="optimizeQuality" fill-rule="evenodd" clip-rule="evenodd"
viewBox="0 0 3.47 3.46"
 xmlns:xlink="http://www.w3.org/1999/xlink">
 <g id="Camada_x0020_1">
  <metadata id="CorelCorpID_0Corel-Layer"/>
  <g id="_2038946768480">
   <path fill="#292929" d="M0.29 1.83c-0.02,-0.49 0.18,-0.85 0.41,-1.11l0.15 -0.13c0.38,-0.3 0.95,-0.39 1.41,-0.2 0.71,0.28 1.12,1.09 0.82,1.87 -0.07,0.17 -0.17,0.31 -0.28,0.44 -0.19,0.23 -0.54,0.43 -0.97,0.47 -0.22,0.02 -0.44,-0.03 -0.62,-0.09 -0.18,-0.07 -0.42,-0.24 -0.54,-0.37 -0.1,-0.13 -0.12,-0.14 -0.21,-0.32 -0.09,-0.16 -0.15,-0.35 -0.17,-0.56zm3.18 0.03c0.02,-0.26 -0.03,-0.54 -0.11,-0.75 -0.07,-0.18 -0.21,-0.41 -0.33,-0.54l-0.11 -0.11c-0.02,-0.02 -0.04,-0.03 -0.06,-0.05 -0.02,-0.02 -0.04,-0.03 -0.06,-0.05 -0.24,-0.19 -0.6,-0.35 -0.94,-0.36 -0.33,-0.01 -0.47,0.01 -0.75,0.11 -0.21,0.08 -0.41,0.22 -0.54,0.33 -0.11,0.1 -0.32,0.38 -0.38,0.49 -0.09,0.17 -0.18,0.44 -0.19,0.67 -0.01,0.39 0.06,0.74 0.26,1.05l0.13 0.19c0.02,0.02 0.04,0.04 0.05,0.05 0.05,0.05 0.08,0.07 0.11,0.11 0.04,0.04 0.08,0.07 0.12,0.1 0.23,0.19 0.62,0.35 0.94,0.36 0.4,0.01 0.72,-0.04 1.05,-0.26 0.27,-0.18 0.44,-0.35 0.62,-0.67 0.1,-0.19 0.16,-0.43 0.19,-0.67z"/>
   <path fill="#292929" d="M1.53 1.33c0.08,0.01 0.12,0.05 0.17,0.09 0.08,0.05 0.43,0.26 0.45,0.32 -0.04,0.04 -0.52,0.37 -0.62,0.41l0 -0.82zm-0.1 -0.37c-0.24,0.04 -0.2,0.32 -0.2,0.51 0,0.23 0,0.47 0,0.71 0,0.12 0.01,0.21 0.09,0.27 0.18,0.14 0.32,-0.01 0.48,-0.12 0.11,-0.07 0.54,-0.35 0.63,-0.42 0.09,-0.07 0.11,-0.19 0.08,-0.27 -0.04,-0.08 -0.11,-0.12 -0.19,-0.17l-0.64 -0.42c-0.05,-0.04 -0.16,-0.11 -0.25,-0.09z"/>
  </g>
 </g>
</svg>
