<?xml version="1.0" encoding="UTF-8"?>
<!DOCTYPE svg PUBLIC "-//W3C//DTD SVG 1.0//EN" "http://www.w3.org/TR/2001/REC-SVG-20010904/DTD/svg10.dtd">
<!-- Creator: CorelDRAW 2018 (64 Bit Versão de avaliação) -->
<svg xmlns="http://www.w3.org/2000/svg" xml:space="preserve" width="16px" height="19px" version="1.0" shape-rendering="geometricPrecision" text-rendering="geometricPrecision" image-rendering="optimizeQuality" fill-rule="evenodd" clip-rule="evenodd"
viewBox="0 0 0.11 0.14"
 xmlns:xlink="http://www.w3.org/1999/xlink">
 <g id="Camada_x0020_1">
  <metadata id="CorelCorpID_0Corel-Layer"/>
  <path fill="#00A859" d="M0.03 0.1l0 -0.06c0,0 0.01,0 0.01,0.01 0.01,0 0.01,0 0.01,0 0.01,0 0.03,0.02 0.03,0.02 0,0 -0.03,0.02 -0.04,0.02l-0.01 0.01zm-0.03 -0.08l0 0.09c0,0.01 0,0.02 0.01,0.02 0,0 0,0 0,0 0.02,0.01 0.03,0 0.04,-0.01 0.01,0 0.06,-0.03 0.06,-0.04 0,0 0,-0.01 0,-0.01 0,-0.02 -0.01,-0.02 -0.01,-0.03l-0.05 -0.03c-0.01,0 -0.02,-0.01 -0.04,-0.01 0,0 0,0.01 0,0.01 -0.01,0 -0.01,0.01 -0.01,0.01z"/>
 </g>
</svg>
