<?xml version="1.0" encoding="UTF-8"?>
<!DOCTYPE svg PUBLIC "-//W3C//DTD SVG 1.0//EN" "http://www.w3.org/TR/2001/REC-SVG-20010904/DTD/svg10.dtd">
<!-- Creator: CorelDRAW 2018 (64 Bit Versão de avaliação) -->
<svg xmlns="http://www.w3.org/2000/svg" xml:space="preserve" width="27px" height="41px" version="1.0" shape-rendering="geometricPrecision" text-rendering="geometricPrecision" image-rendering="optimizeQuality" fill-rule="evenodd" clip-rule="evenodd"
viewBox="0 0 0.44 0.66"
 xmlns:xlink="http://www.w3.org/1999/xlink">
 <g id="Camada_x0020_1">
  <metadata id="CorelCorpID_0Corel-Layer"/>
  <g id="_2289935872448">
   <g>
    <path fill="#292929" d="M0 0.13l0 0.31c0,0.02 0.04,0.03 0.05,0.01 0,-0.01 0,-0.08 0,-0.1 0,-0.04 0,-0.08 0,-0.13 0,-0.07 -0.01,-0.12 0.04,-0.16 0.01,0 0.03,-0.01 0.05,-0.01l0.16 0c0.03,0 0.05,0.01 0.06,0.02 0.02,0.01 0.03,0.03 0.03,0.05l0 0.42c0,0.02 -0.02,0.04 -0.03,0.05 -0.02,0.02 -0.04,0.03 -0.06,0.03l-0.16 0c-0.04,0 -0.07,-0.02 -0.08,-0.06 -0.02,-0.02 -0.01,-0.04 -0.02,-0.05 -0.01,0 -0.02,-0.01 -0.03,0 -0.02,0.01 0,0.07 0.01,0.08 0.02,0.04 0.06,0.07 0.12,0.07l0.16 0c0.03,0 0.05,0 0.08,-0.02 0.03,-0.02 0.06,-0.06 0.06,-0.1l0 -0.42c0,-0.02 -0.01,-0.03 -0.02,-0.05 -0.02,-0.04 -0.06,-0.07 -0.11,-0.07l-0.18 0c-0.07,0 -0.13,0.06 -0.13,0.13z"/>
    <path fill="#292929" d="M0.11 0.27l0 -0.13c0,-0.01 0.01,-0.03 0.03,-0.03l0.16 0c0.01,0 0.03,0.01 0.03,0.03l0 0.13c0,0.01 -0.02,0.02 -0.03,0.02l-0.16 0c-0.02,0 -0.03,-0.01 -0.03,-0.02zm-0.04 -0.13l0 0.13c0,0.04 0.03,0.07 0.07,0.07l0.16 0c0.02,0 0.02,0 0.03,0 0.01,-0.01 0.01,-0.01 0.02,-0.01 0.01,-0.01 0.01,-0.02 0.02,-0.03 0,0 0,-0.01 0,-0.02l0 -0.15c0,-0.01 0,-0.02 0,-0.02 -0.01,-0.02 -0.04,-0.04 -0.07,-0.04l-0.16 0c-0.04,0 -0.07,0.03 -0.07,0.07z"/>
    <path fill="#292929" d="M0.15 0.48c0,-0.02 0.01,-0.04 0.02,-0.05 0.04,-0.04 0.12,-0.02 0.12,0.04 0,0.04 -0.01,0.06 -0.04,0.07 -0.03,0.01 -0.06,0.01 -0.08,-0.01 -0.01,-0.01 -0.02,-0.03 -0.02,-0.05zm-0.05 0c0,0.04 0.03,0.09 0.07,0.1 0.01,0.01 0.02,0.01 0.04,0.02 0.03,0 0.07,-0.02 0.09,-0.03 0.03,-0.03 0.04,-0.06 0.04,-0.1 0,-0.01 -0.01,-0.03 -0.02,-0.04 -0.04,-0.08 -0.13,-0.09 -0.18,-0.04 -0.02,0.02 -0.04,0.05 -0.04,0.09z"/>
    <path fill="#292929" d="M0.17 0.15c0,0.02 0.03,0.03 0.05,0.04 0,0.01 0.01,0.01 0.02,0.01 -0.01,0.01 -0.03,0.02 -0.04,0.02 0,-0.01 0.01,-0.04 -0.02,-0.04 -0.03,0 -0.02,0.04 -0.02,0.07 0,0.01 0.01,0.03 0.03,0.03 0.01,0 0.02,-0.01 0.03,-0.01 0.01,-0.01 0.02,-0.01 0.03,-0.02 0.03,-0.02 0.04,-0.02 0.04,-0.05 0,-0.01 -0.01,-0.02 -0.01,-0.03 -0.01,0 -0.01,0 -0.01,0 -0.01,-0.01 -0.01,-0.01 -0.02,-0.01 0,0 -0.01,-0.01 -0.01,-0.01 -0.02,-0.01 -0.04,-0.03 -0.06,-0.01 0,0 -0.01,0.01 -0.01,0.01z"/>
    <path fill="#292929" d="M0.18 0.48c0,0.05 0.08,0.05 0.08,0 0,-0.02 -0.02,-0.04 -0.03,-0.04 -0.01,0 -0.03,0 -0.04,0.01 0,0.01 -0.01,0.02 -0.01,0.03z"/>
   </g>
  </g>
 </g>
</svg>
