<?xml version="1.0" encoding="UTF-8"?>
<!DOCTYPE svg PUBLIC "-//W3C//DTD SVG 1.0//EN" "http://www.w3.org/TR/2001/REC-SVG-20010904/DTD/svg10.dtd">
<!-- Creator: CorelDRAW 2018 (64 Bit Versão de avaliação) -->
<svg xmlns="http://www.w3.org/2000/svg" xml:space="preserve" width="41px" height="41px" version="1.0" shape-rendering="geometricPrecision" text-rendering="geometricPrecision" image-rendering="optimizeQuality" fill-rule="evenodd" clip-rule="evenodd"
viewBox="0 0 1.01 1.01"
 xmlns:xlink="http://www.w3.org/1999/xlink">
 <g id="Camada_x0020_1">
  <metadata id="CorelCorpID_0Corel-Layer"/>
  <path fill="black" d="M0.17 0.82l0.28 0 0 0.02 -0.28 0 0 -0.02zm0.13 -0.82l0.01 0c0.01,0 0.02,0.01 0.04,0.02l0.22 0.16c0.02,0.02 0.05,0.03 0.05,0.05 0,0.01 -0.01,0.02 -0.01,0.03 -0.02,0.01 -0.03,0.01 -0.04,0.01l0 0.12c0.03,0 0.05,0.01 0.08,0.02 0.02,0.01 0.03,0.03 0.05,0.05 0.02,0.05 0.02,0.11 0.02,0.18 0,0 0,0 0.01,0l0.09 0.11c0.02,0.02 0.04,0.04 0.06,0.06 0.03,0.02 0.06,0.03 0.1,0.03 0.01,0 0.03,0.01 0.03,0.03l0 0.12c0,0.02 -0.02,0.02 -0.04,0.02l-0.02 0c-0.04,0 -0.11,-0.02 -0.13,-0.04 -0.03,-0.02 -0.03,-0.02 -0.05,-0.04l-0.05 -0.04c-0.01,-0.02 -0.06,-0.07 -0.07,-0.09 -0.01,0 -0.01,-0.01 -0.01,-0.01 -0.01,-0.02 -0.03,-0.03 -0.05,-0.05 -0.03,-0.02 -0.04,-0.02 -0.07,-0.02l0 0.26c0,0.02 -0.02,0.03 -0.03,0.03l-0.01 0c-0.02,0 -0.03,-0.01 -0.03,-0.03l0 -0.07 -0.28 0 0 0.06c0,0.03 -0.02,0.04 -0.03,0.04l-0.01 0c-0.02,0 -0.03,-0.01 -0.03,-0.02l0 -0.27c-0.03,0 -0.05,-0.01 -0.05,-0.04l0 -0.41c-0.04,0 -0.05,-0.01 -0.05,-0.04 0,-0.01 0.01,-0.02 0.01,-0.03 0.01,0 0.01,0 0.02,-0.01 0.01,0 0.01,-0.01 0.02,-0.01l0.17 -0.13c0.02,-0.01 0.03,-0.02 0.04,-0.03 0.02,-0.01 0.03,-0.02 0.04,-0.02zm-0.13 0.72l0.28 0 0 0.02 -0.28 0 0 -0.02zm0.4 -0.1c0.02,0.01 0.02,0 0.05,0.03 0.05,0.03 0.07,0.06 0.11,0.1l0.05 0.07c0.03,0.02 0.07,0.06 0.1,0.07 0.01,0.01 0.02,0.01 0.03,0.01 0.01,0.01 0.02,0.01 0.03,0.01l0 0.03c-0.03,0 -0.09,-0.03 -0.11,-0.05l-0.05 -0.04c-0.02,-0.02 -0.04,-0.04 -0.05,-0.07 -0.04,-0.04 -0.11,-0.13 -0.16,-0.13l0 -0.03zm-0.45 0l0.37 0 0 0.02 -0.37 0 0 -0.02zm0.45 -0.15c0.03,0 0.05,0 0.06,0.03 0.02,0.02 0.01,0.05 0.01,0.08 0,-0.01 -0.04,-0.03 -0.07,-0.03l0 -0.08zm-0.35 -0.01c0,-0.08 0.09,-0.12 0.15,-0.07 0.01,0.01 0.02,0.03 0.02,0.06l0 0.09 -0.17 0 0 -0.08zm-0.07 0.02l0 0.06 -0.03 0 0 -0.27 0.37 0 0 0.27 -0.02 0c0,-0.07 0.01,-0.14 -0.05,-0.19 -0.01,-0.02 -0.03,-0.03 -0.04,-0.04 -0.09,-0.04 -0.19,0 -0.22,0.09 -0.01,0.02 -0.01,0.05 -0.01,0.08zm0.16 -0.4c0,0 0.01,0.01 0.02,0.01l0.06 0.05c0.01,0.01 0.07,0.05 0.08,0.06l-0.32 0c0,-0.01 0.01,-0.01 0.01,-0.02l0.15 -0.1z"/>
 </g>
</svg>
