<?xml version="1.0" encoding="UTF-8"?>
<!DOCTYPE svg PUBLIC "-//W3C//DTD SVG 1.0//EN" "http://www.w3.org/TR/2001/REC-SVG-20010904/DTD/svg10.dtd">
<!-- Creator: CorelDRAW 2018 (64 Bit Versão de avaliação) -->
<svg xmlns="http://www.w3.org/2000/svg" xml:space="preserve" width="43px" height="41px" version="1.0" shape-rendering="geometricPrecision" text-rendering="geometricPrecision" image-rendering="optimizeQuality" fill-rule="evenodd" clip-rule="evenodd"
viewBox="0 0 2.68 2.58"
 xmlns:xlink="http://www.w3.org/1999/xlink">
 <g id="Camada_x0020_1">
  <metadata id="CorelCorpID_0Corel-Layer"/>
  <path fill="black" d="M0.63 0.88l0.92 0 0 0.25 -0.92 0 0 -0.25zm-0.63 1.41c0,0.03 0.01,0.04 0.03,0.07 0.05,0.06 0.09,0.09 0.16,0.13 0.08,0.05 0.2,0.09 0.3,0.09 0.11,0 0.18,-0.01 0.27,-0.04 0.03,-0.01 0.07,-0.03 0.09,-0.04 0.1,-0.06 0.06,-0.07 0.12,-0.03 0.06,0.04 0.1,0.06 0.18,0.08 0.02,0.01 0.03,0.01 0.05,0.02 0.04,0 0.08,0.01 0.12,0.01l0.04 0c0.13,0 0.26,-0.04 0.35,-0.11 0.04,-0.03 0.03,-0.04 0.1,0.01 0.08,0.06 0.22,0.1 0.32,0.1l0.01 0c0.08,0 0.13,0 0.21,-0.03 0.06,-0.01 0.06,-0.02 0.11,-0.04 0.05,-0.02 0.11,-0.06 0.15,-0.1 0.01,-0.01 0.05,-0.06 0.06,-0.08 0.01,-0.01 0.01,-0.02 0.01,-0.04l0 -0.03c0,-0.01 0,-0.02 -0.01,-0.03 -0.01,-0.02 -0.02,-0.04 -0.04,-0.05 -0.03,-0.02 -0.07,-0.02 -0.11,0 -0.02,0.01 -0.03,0.02 -0.05,0.04 -0.02,0.03 -0.04,0.05 -0.09,0.08 -0.04,0.02 -0.08,0.04 -0.13,0.05 -0.02,0 -0.05,0 -0.08,0 -0.05,0.01 -0.16,-0.01 -0.21,-0.04 -0.01,-0.01 -0.02,-0.01 -0.03,-0.02 -0.1,-0.06 -0.09,-0.12 -0.18,-0.12 -0.05,0 -0.07,0.02 -0.09,0.04 0,0 0,0.01 -0.01,0.01 -0.15,0.19 -0.5,0.16 -0.61,0.02 -0.01,-0.02 -0.03,-0.05 -0.05,-0.06 -0.03,-0.02 -0.09,-0.02 -0.12,0.01 -0.02,0.01 -0.02,0.02 -0.04,0.03 -0.09,0.09 -0.14,0.12 -0.27,0.13 -0.06,0.01 -0.03,0.01 -0.07,0 -0.06,0 -0.15,-0.03 -0.2,-0.06 -0.01,0 -0.02,-0.01 -0.02,-0.01 -0.01,-0.01 -0.02,-0.01 -0.02,-0.02 -0.02,-0.01 -0.03,-0.02 -0.04,-0.04 -0.02,-0.03 -0.05,-0.05 -0.1,-0.05 -0.05,0 -0.11,0.04 -0.11,0.09l0 0.03zm0 -0.5l0 0 0 0.02c0,0.04 0,0.05 0.04,0.1 0.01,0.01 0.02,0.01 0.02,0.02 0.01,0.01 0.03,0.03 0.05,0.04 0.21,0.17 0.58,0.19 0.79,0.02 0.04,-0.03 0.02,-0.02 0.11,0.04 0.08,0.05 0.21,0.08 0.3,0.08 0.11,0 0.18,0 0.28,-0.04 0.03,-0.02 0.06,-0.03 0.08,-0.04 0.1,-0.06 0.06,-0.07 0.12,-0.03 0.06,0.04 0.06,0.04 0.13,0.07 0.18,0.07 0.44,0.05 0.6,-0.06 0.01,-0.01 0.02,-0.01 0.03,-0.02l0.05 -0.04c0.03,-0.03 0.08,-0.08 0.08,-0.12l0 0 0 0 0 -0.01c0,-0.04 0,-0.07 -0.03,-0.09 -0.02,-0.02 -0.04,-0.03 -0.08,-0.03 -0.02,0 -0.04,0 -0.06,0.01 -0.03,0.03 -0.04,0.06 -0.11,0.11 -0.13,0.09 -0.34,0.08 -0.47,0 -0.1,-0.06 -0.07,-0.11 -0.18,-0.12 -0.07,-0.01 -0.09,0.06 -0.15,0.11 -0.1,0.07 -0.26,0.09 -0.39,0.06 -0.17,-0.05 -0.17,-0.13 -0.22,-0.16 -0.03,-0.02 -0.09,-0.02 -0.12,0.01 -0.05,0.03 -0.1,0.16 -0.35,0.16 -0.11,0 -0.2,-0.03 -0.28,-0.09 -0.01,-0.01 -0.04,-0.05 -0.07,-0.07 -0.07,-0.05 -0.17,0.01 -0.17,0.07zm0.75 -1.79l0.04 0c0.06,0 0.12,0.02 0.18,0.06 0.03,0.02 0.02,0.02 0.05,0.04 0.01,0.01 0.01,0.01 0.02,0.03 0.01,0 0.01,0 0.02,0.01 0.01,0.01 0.01,0.02 0.02,0.04 0.04,0.05 0.04,0.12 0.05,0.18 0,0.04 0,0.05 -0.03,0.08 -0.01,0.01 -0.02,0.02 -0.04,0.02 -0.03,0.02 -0.07,0.02 -0.1,0 -0.08,-0.04 -0.03,-0.14 -0.1,-0.2 -0.03,-0.03 -0.06,-0.03 -0.1,-0.03 -0.07,0 -0.13,0.06 -0.13,0.14l0 0.29 0.92 0 0 -0.28c0,-0.13 0.04,-0.23 0.15,-0.31 0.07,-0.05 0.14,-0.07 0.23,-0.07 0.07,0 0.15,0.03 0.2,0.07l0.04 0.03c0,0 0,0 0,0 0,0.01 0,0.01 0,0.01 0.03,0.03 0.06,0.06 0.07,0.1 0.03,0.07 0.03,0.1 0.03,0.18 0,0.06 -0.12,0.13 -0.19,0.04 -0.04,-0.05 -0.02,-0.08 -0.05,-0.14 -0.02,-0.03 -0.06,-0.06 -0.1,-0.06 -0.05,0 -0.06,0 -0.1,0.02 -0.07,0.06 -0.05,0.15 -0.05,0.25l0 0.8c0,0.07 0,0.14 0,0.2 -0.01,0.03 -0.02,0.06 -0.03,0.08 -0.03,0.02 -0.06,0.03 -0.09,0.03 -0.05,0 -0.11,-0.04 -0.11,-0.11l0 -0.15 -0.92 0 0 0.16c0,0.05 -0.06,0.1 -0.11,0.1 -0.05,0 -0.11,-0.04 -0.11,-0.09l0 -1.19c0,-0.05 0.01,-0.1 0.03,-0.14 0.03,-0.04 0.06,-0.08 0.1,-0.11 0.02,-0.02 0.05,-0.04 0.08,-0.05 0.04,-0.02 0.09,-0.03 0.13,-0.03z"/>
 </g>
</svg>
