<?xml version="1.0" encoding="UTF-8"?>
<!DOCTYPE svg PUBLIC "-//W3C//DTD SVG 1.0//EN" "http://www.w3.org/TR/2001/REC-SVG-20010904/DTD/svg10.dtd">
<!-- Creator: CorelDRAW 2018 (64 Bit Versão de avaliação) -->
<svg xmlns="http://www.w3.org/2000/svg" xml:space="preserve" width="37px" height="41px" version="1.0" shape-rendering="geometricPrecision" text-rendering="geometricPrecision" image-rendering="optimizeQuality" fill-rule="evenodd" clip-rule="evenodd"
viewBox="0 0 1.08 1.2"
 xmlns:xlink="http://www.w3.org/1999/xlink">
 <g id="Camada_x0020_1">
  <metadata id="CorelCorpID_0Corel-Layer"/>
  <g id="_2039424161152">
   <path fill="#292929" d="M0.3 0.31c0.02,-0.06 -0.04,-0.11 -0.1,-0.07 -0.02,0.01 -0.04,0.03 -0.05,0.05 -0.17,0.17 -0.2,0.45 -0.06,0.67 0.02,0.02 0.07,0.09 0.1,0.11 0.08,0.06 0.16,0.11 0.27,0.12 0.18,0.03 0.34,-0.04 0.45,-0.15 0.13,-0.12 0.23,-0.36 0.12,-0.6 -0.02,-0.04 -0.05,-0.09 -0.08,-0.12 -0.02,-0.03 -0.07,-0.09 -0.11,-0.09 -0.06,-0.01 -0.1,0.06 -0.05,0.11 0.01,0.01 0.02,0.02 0.03,0.03 0.02,0.02 0.05,0.05 0.06,0.08 0.06,0.09 0.08,0.21 0.05,0.33 -0.07,0.21 -0.29,0.33 -0.5,0.27 -0.11,-0.03 -0.19,-0.1 -0.24,-0.17 -0.05,-0.09 -0.08,-0.2 -0.05,-0.32 0.05,-0.17 0.15,-0.21 0.16,-0.25z"/>
   <path fill="#292929" d="M0.6 0.46c0.01,-0.03 0,-0.26 0,-0.31 0,-0.06 0.01,-0.11 -0.02,-0.14 -0.04,-0.03 -0.09,-0.01 -0.1,0.03 -0.01,0.03 -0.01,0.33 -0.01,0.4 0,0.08 0.11,0.09 0.13,0.02z"/>
  </g>
 </g>
</svg>
