<?xml version="1.0" encoding="UTF-8"?>
<!DOCTYPE svg PUBLIC "-//W3C//DTD SVG 1.0//EN" "http://www.w3.org/TR/2001/REC-SVG-20010904/DTD/svg10.dtd">
<!-- Creator: CorelDRAW 2018 (64 Bit Versão de avaliação) -->
<svg xmlns="http://www.w3.org/2000/svg" xml:space="preserve" width="41px" height="41px" version="1.0" shape-rendering="geometricPrecision" text-rendering="geometricPrecision" image-rendering="optimizeQuality" fill-rule="evenodd" clip-rule="evenodd"
viewBox="0 0 1.32 1.32"
 xmlns:xlink="http://www.w3.org/1999/xlink">
 <g id="Camada_x0020_1">
  <metadata id="CorelCorpID_0Corel-Layer"/>
  <g id="_2290055181632">
   <g>
    <path fill="black" d="M1.15 0.26c0,-0.06 0,-0.08 -0.06,-0.09 -0.01,0 -0.03,0 -0.04,0 0.03,-0.04 0.07,-0.05 0.12,-0.06 0.05,-0.01 0.05,0 0.05,0.03 0,0.02 -0.02,0.06 -0.02,0.07 -0.01,0.02 -0.03,0.04 -0.05,0.05zm0.03 -0.26l0.03 0c0.02,0 0.03,0.01 0.05,0.01 0.01,0.01 0.01,0.01 0.02,0.02 0.03,0.03 0.04,0.05 0.04,0.08l0 0.05c0,0.08 -0.08,0.18 -0.15,0.22l0 0.07c0.01,0.03 0.01,0.05 0.01,0.08 0.01,0.04 0.01,0.1 0.01,0.14 0,0.11 -0.07,0.16 -0.14,0.24 -0.01,0.01 -0.02,0.01 -0.03,0.02l-0.07 0.07c-0.03,0.03 -0.07,0.08 -0.1,0.08 -0.03,0 -0.05,-0.02 -0.06,-0.04 0,-0.04 0.04,-0.07 0.06,-0.09 0.04,-0.03 0.14,-0.14 0.16,-0.16 0.03,-0.02 0.06,-0.05 0.07,-0.08 0.01,-0.01 0.01,-0.02 0.01,-0.03 0,-0.04 -0.01,-0.16 -0.02,-0.2l0 -0.05c-0.02,0 -0.06,0.01 -0.08,0.01 -0.02,0.01 -0.04,0.01 -0.07,0.01 -0.05,0 -0.08,-0.06 -0.03,-0.09 0.01,-0.01 0.04,-0.01 0.06,-0.01 0.06,-0.01 0.07,-0.02 0.11,-0.03 0,-0.01 -0.01,-0.03 -0.01,-0.05 -0.05,0 -0.1,-0.01 -0.15,-0.01l-0.21 -0.03c-0.09,-0.01 -0.11,0.02 -0.16,0.08 -0.11,0.11 -0.22,0.21 -0.32,0.32l-0.08 0.08c-0.03,0.03 -0.03,0.08 -0.01,0.12 0.02,0.02 0.29,0.29 0.32,0.32 0.03,0.03 0.05,0.06 0.1,0.06 0.02,0.01 0.04,0 0.06,-0.01 0.03,-0.02 0.02,-0.03 0.06,-0.03 0.02,0 0.1,0.05 -0.01,0.12 -0.02,0.02 -0.06,0.03 -0.1,0.03 -0.08,0 -0.1,-0.02 -0.15,-0.06l-0.24 -0.24c-0.02,-0.03 -0.11,-0.11 -0.13,-0.14 -0.01,-0.02 -0.03,-0.06 -0.03,-0.1 0,-0.07 0.02,-0.11 0.06,-0.16 0.01,0 0.01,-0.01 0.02,-0.02l0.09 -0.08c0,-0.01 0.01,-0.01 0.01,-0.01 0.01,-0.01 0.01,-0.02 0.02,-0.02l0.24 -0.24c0.02,-0.02 0.05,-0.06 0.08,-0.08 0.02,-0.01 0.03,-0.02 0.05,-0.03 0.01,-0.01 0.04,-0.01 0.06,-0.01 0.09,0 0.18,0.01 0.26,0.02 0.02,0 0.02,0 0.04,0 0,-0.03 0.06,-0.08 0.1,-0.1 0.02,-0.01 0.04,-0.02 0.07,-0.03 0.02,-0.01 0.05,-0.02 0.08,-0.02z"/>
    <path fill="black" d="M0.74 0.52c-0.01,-0.01 -0.05,-0.03 -0.08,-0.02 -0.03,0 -0.06,0.01 -0.08,0.02 -0.07,0.05 -0.1,0.15 -0.04,0.22 0.03,0.04 0.06,0.04 0.06,0.08 0,0.02 -0.02,0.04 -0.05,0.04 -0.02,0 -0.05,-0.04 -0.07,-0.06 -0.04,-0.04 0.01,-0.03 0.01,-0.08 0,-0.04 -0.07,-0.08 -0.11,-0.01 -0.03,0.04 -0.03,0.09 0,0.13 0,0.01 0.01,0.02 0.01,0.02 -0.02,0.03 -0.03,0.02 -0.03,0.07 0,0.02 0.02,0.04 0.05,0.04 0.03,0 0.04,-0.02 0.06,-0.03 0.01,0 0.03,0.03 0.09,0.03 0.1,0 0.2,-0.13 0.11,-0.24 -0.01,-0.02 -0.02,-0.03 -0.03,-0.04 -0.02,-0.01 -0.03,-0.02 -0.03,-0.04 0,-0.02 0.03,-0.05 0.06,-0.05 0.01,0 0.03,0.02 0.04,0.03 0.06,0.06 -0.02,0.05 0.01,0.11 0,0.01 0.02,0.03 0.04,0.03 0.04,0 0.08,-0.06 0.08,-0.1 0,-0.04 -0.01,-0.04 -0.03,-0.08 0.06,-0.04 0.05,-0.11 -0.02,-0.11 -0.02,0 -0.03,0.02 -0.05,0.04z"/>
   </g>
  </g>
 </g>
</svg>
