<?xml version="1.0" encoding="UTF-8"?>
<!DOCTYPE svg PUBLIC "-//W3C//DTD SVG 1.0//EN" "http://www.w3.org/TR/2001/REC-SVG-20010904/DTD/svg10.dtd">
<!-- Creator: CorelDRAW 2018 (64 Bit Versão de avaliação) -->
<svg xmlns="http://www.w3.org/2000/svg" xml:space="preserve" width="18px" height="32px" version="1.0" shape-rendering="geometricPrecision" text-rendering="geometricPrecision" image-rendering="optimizeQuality" fill-rule="evenodd" clip-rule="evenodd"
viewBox="0 0 0.16 0.28"
 xmlns:xlink="http://www.w3.org/1999/xlink">
 <g id="Camada_x0020_1">
  <metadata id="CorelCorpID_0Corel-Layer"/>
  <path fill="#292929" d="M0.1 0.24c0.01,0 0.01,0 0.03,-0.01 0.04,-0.02 0.03,-0.09 -0.01,-0.1 -0.03,-0.01 -0.05,0 -0.07,-0.01 -0.02,0 -0.02,-0.03 -0.01,-0.04 0.02,-0.01 0.09,0 0.1,-0.01 0.01,0 0.02,-0.01 0.01,-0.02 0,-0.02 -0.04,-0.01 -0.06,-0.01 0,-0.02 0.01,-0.04 -0.01,-0.04 -0.02,0 -0.02,0.02 -0.02,0.04 -0.02,0 -0.02,0 -0.04,0.01 -0.03,0.03 -0.03,0.09 0.02,0.1 0.02,0.01 0.05,0 0.07,0.01 0.02,0 0.02,0.03 0,0.04 -0.01,0.01 -0.04,0.01 -0.06,0 -0.02,0 -0.06,0 -0.05,0.03 0.01,0.01 0.02,0.01 0.03,0.01 0.01,0 0.02,0 0.03,0 0,0.01 0,0.02 0,0.03 0.01,0.01 0.03,0.01 0.03,-0.01 0,0 0.01,-0.01 0.01,-0.02z"/>
 </g>
</svg>
