<?xml version="1.0" encoding="UTF-8"?>
<!DOCTYPE svg PUBLIC "-//W3C//DTD SVG 1.0//EN" "http://www.w3.org/TR/2001/REC-SVG-20010904/DTD/svg10.dtd">
<!-- Creator: CorelDRAW 2018 (64 Bit Versão de avaliação) -->
<svg xmlns="http://www.w3.org/2000/svg" xml:space="preserve" width="41px" height="41px" version="1.0" shape-rendering="geometricPrecision" text-rendering="geometricPrecision" image-rendering="optimizeQuality" fill-rule="evenodd" clip-rule="evenodd"
viewBox="0 0 0.91 0.91"
 xmlns:xlink="http://www.w3.org/1999/xlink">
 <g id="Camada_x0020_1">
  <metadata id="CorelCorpID_0Corel-Layer"/>
  <path fill="black" d="M0.23 0.82l0 -0.25 0.45 0 0 0.25c0,0.01 -0.01,0.01 -0.02,0.01l-0.42 0c0,0 -0.01,0 -0.01,-0.01zm-0.12 -0.45c0,0.02 0.01,0.04 0.03,0.04l0.1 0c0.01,0 0.02,-0.01 0.02,-0.01 0.01,-0.02 0.01,-0.04 0,-0.06 -0.01,0 -0.02,-0.01 -0.03,-0.01l-0.08 0c-0.02,0 -0.04,0.02 -0.04,0.04zm0.27 0.31l0.15 0c0.01,0 0.03,-0.01 0.03,-0.03 0,-0.02 -0.01,-0.04 -0.04,-0.04l-0.13 0c-0.06,0 -0.05,0.07 -0.01,0.07zm0 0.12l0.15 0c0.01,0 0.03,-0.02 0.03,-0.04 0,-0.01 0,-0.02 -0.01,-0.03 -0.01,0 -0.01,-0.01 -0.02,-0.01l-0.15 0c-0.03,0 -0.04,0.04 -0.02,0.06 0,0.01 0.01,0.02 0.02,0.02zm-0.27 -0.27c0,0.03 0.02,0.04 0.04,0.04l0 0.07c-0.03,0 -0.06,-0.01 -0.07,-0.04 0,-0.01 -0.01,-0.02 -0.01,-0.03l0 -0.21c0,-0.03 0.04,-0.06 0.07,-0.06l0.63 0c0.01,0 0.02,0 0.02,0 0.03,0.02 0.04,0.04 0.04,0.06l0 0.21c0,0.01 0,0.02 0,0.03 -0.02,0.03 -0.04,0.04 -0.08,0.04l0 -0.07c0.03,0 0.05,-0.01 0.05,-0.04 0,-0.01 -0.02,-0.03 -0.04,-0.03l-0.62 0c0,0 -0.01,0.01 -0.02,0.01 0,0.01 -0.01,0.01 -0.01,0.02zm0.12 -0.39c0,-0.03 0.03,-0.07 0.07,-0.07l0.31 0c0.04,0 0.07,0.04 0.07,0.07l0 0.08 -0.45 0 0 -0.08zm-0.23 0.21l0 0.24c0,0.01 0,0.01 0,0.02 0.01,0.02 0.03,0.05 0.04,0.06 0.03,0.03 0.06,0.04 0.09,0.04l0.02 0 0 0.12c0,0.04 0.05,0.08 0.08,0.08l0.44 0c0.04,0 0.08,-0.05 0.08,-0.08l0 -0.12c0.06,0 0.09,-0.01 0.13,-0.05 0,-0.01 0.01,-0.02 0.02,-0.03 0,-0.01 0.01,-0.03 0.01,-0.05l0 -0.23c0,-0.02 -0.01,-0.04 -0.02,-0.06 -0.01,-0.01 -0.03,-0.03 -0.04,-0.04 -0.06,-0.04 -0.1,-0.02 -0.1,-0.03 0,-0.02 0.01,-0.08 0,-0.11 0,-0.03 -0.02,-0.05 -0.04,-0.07 -0.02,-0.02 -0.06,-0.04 -0.08,-0.04l-0.35 0c-0.02,0 -0.04,0.01 -0.06,0.02 -0.03,0.02 -0.06,0.05 -0.06,0.09 -0.01,0.02 -0.01,0.08 -0.01,0.11 0,0.01 0,0 -0.02,0 -0.04,0.01 -0.08,0.03 -0.1,0.06 -0.01,0.02 -0.03,0.04 -0.03,0.07z"/>
 </g>
</svg>
