<?xml version="1.0" encoding="UTF-8"?>
<!DOCTYPE svg PUBLIC "-//W3C//DTD SVG 1.0//EN" "http://www.w3.org/TR/2001/REC-SVG-20010904/DTD/svg10.dtd">
<!-- Creator: CorelDRAW 2018 (64 Bit Versão de avaliação) -->
<svg xmlns="http://www.w3.org/2000/svg" xml:space="preserve" width="38px" height="41px" version="1.0" shape-rendering="geometricPrecision" text-rendering="geometricPrecision" image-rendering="optimizeQuality" fill-rule="evenodd" clip-rule="evenodd"
viewBox="0 0 1.15 1.23"
 xmlns:xlink="http://www.w3.org/1999/xlink">
 <g id="Camada_x0020_1">
  <metadata id="CorelCorpID_0Corel-Layer"/>
  <g id="_1405718873488">
   <g>
    <path fill="black" d="M1 0.66l-0.47 0c-0.03,0 -0.05,-0.02 -0.05,-0.05l0 -0.09c0,-0.03 0.02,-0.05 0.05,-0.05l0.47 0c0.06,0 0.05,0.07 0.05,0.14 0,0.03 -0.02,0.05 -0.05,0.05zm-0.62 -0.15c0,0.06 0,0.13 0.02,0.17 0.02,0.04 0.07,0.08 0.12,0.08l0.49 0c0.07,0 0.13,-0.07 0.13,-0.14 0,-0.05 0.01,-0.12 -0.01,-0.16l-0.02 -0.03c-0.02,-0.03 -0.06,-0.05 -0.1,-0.05l-0.49 0c-0.03,0 -0.06,0.01 -0.08,0.03 -0.03,0.02 -0.06,0.06 -0.06,0.1z"/>
    <path fill="black" d="M0.61 0.19l-0.46 0c-0.07,0 -0.07,-0.09 0,-0.09l0.46 0c0.07,0 0.07,0.09 0,0.09zm-0.61 -0.06c0,0.05 0.01,0.08 0.04,0.12l0.02 0.01c0.02,0.02 0.05,0.03 0.07,0.03l0.5 0c0.04,0 0.07,-0.03 0.1,-0.05 0.05,-0.06 0.04,-0.16 -0.03,-0.21 -0.02,-0.02 -0.05,-0.03 -0.07,-0.03l-0.5 0c-0.02,0 -0.05,0.01 -0.07,0.03 -0.03,0.02 -0.06,0.06 -0.06,0.1z"/>
    <path fill="black" d="M0.61 1.04l-0.46 0c-0.07,0 -0.07,-0.1 0,-0.1l0.46 0c0.07,0 0.07,0.1 0,0.1zm-0.61 -0.06c0,0.05 0.01,0.07 0.03,0.1 0.01,0.01 0.01,0.01 0.01,0.01l0.04 0.03c0.01,0.01 0.04,0.02 0.05,0.02l0.5 0c0.02,0 0.05,-0.02 0.07,-0.03 0.01,-0.01 0.02,-0.01 0.02,-0.02 0,0 0,0 0.01,-0.01 0.03,-0.04 0.04,-0.1 0.02,-0.15 -0.01,-0.01 -0.02,-0.03 -0.03,-0.04 0,0 -0.01,-0.01 -0.02,-0.02 -0.02,-0.01 -0.05,-0.02 -0.07,-0.02l-0.5 0c-0.04,0 -0.08,0.02 -0.1,0.06 -0.02,0.02 -0.03,0.04 -0.03,0.07z"/>
    <path fill="black" d="M0.86 0.99c0,0.03 0.02,0.05 0.04,0.05 0.01,0 0.02,0 0.03,-0.01 0.01,-0.01 0.02,-0.02 0.02,-0.02 0,0.02 0,0.18 0.01,0.19 0,0.02 0.02,0.03 0.03,0.03l0.02 0c0.01,0 0.03,-0.01 0.03,-0.03 0.01,-0.01 0.01,-0.16 0.01,-0.19 0.02,0.01 0.01,0.03 0.05,0.03 0.02,0 0.04,-0.02 0.04,-0.04 0,-0.03 0,-0.03 -0.02,-0.06 -0.03,-0.04 -0.06,-0.09 -0.11,-0.09 -0.03,0 -0.05,0 -0.07,0.01 -0.01,0.02 -0.04,0.06 -0.06,0.08 -0.01,0.01 -0.02,0.03 -0.02,0.05z"/>
    <path fill="black" d="M0.1 0.6c-0.02,-0.01 -0.02,-0.03 -0.05,-0.03 -0.03,0 -0.05,0.02 -0.05,0.05 0,0.02 0.04,0.06 0.05,0.08 0.03,0.04 0.05,0.06 0.1,0.06 0.03,0 0.05,-0.02 0.07,-0.03 0,-0.01 0.01,-0.02 0.01,-0.02 0.02,-0.02 0.06,-0.07 0.06,-0.09 0,-0.01 0,-0.03 -0.02,-0.04 -0.01,-0.02 -0.04,-0.02 -0.06,0 -0.01,0 -0.01,0.01 -0.02,0.02 0,-0.03 0.01,-0.18 0,-0.2 -0.02,-0.04 -0.09,-0.04 -0.09,0.03l0 0.17z"/>
   </g>
  </g>
 </g>
</svg>
