<?xml version="1.0" encoding="UTF-8"?>
<!DOCTYPE svg PUBLIC "-//W3C//DTD SVG 1.0//EN" "http://www.w3.org/TR/2001/REC-SVG-20010904/DTD/svg10.dtd">
<!-- Creator: CorelDRAW 2018 (64 Bit Versão de avaliação) -->
<svg xmlns="http://www.w3.org/2000/svg" xml:space="preserve" width="24px" height="27px" version="1.0" shape-rendering="geometricPrecision" text-rendering="geometricPrecision" image-rendering="optimizeQuality" fill-rule="evenodd" clip-rule="evenodd"
viewBox="0 0 2.97 3.33"
 xmlns:xlink="http://www.w3.org/1999/xlink">
 <g id="Camada_x0020_1">
  <metadata id="CorelCorpID_0Corel-Layer"/>
  <path fill="black" d="M0.78 1.81c-0.51,0.09 -0.82,0.56 -0.78,0.68 0.02,0.04 0.1,0.15 0.13,0.18 0.67,0.87 2.02,0.91 2.74,-0.05 0.13,-0.17 0.13,-0.2 -0.01,-0.38 -0.16,-0.22 -0.45,-0.43 -0.73,-0.44 -0.15,-0.01 -0.39,0.33 -0.93,0.15 -0.29,-0.09 -0.22,-0.18 -0.42,-0.14l0 0zm0.61 -1.8c-0.44,0.05 -0.82,0.44 -0.76,0.95 0.04,0.44 0.45,0.82 0.95,0.76 0.44,-0.05 0.82,-0.45 0.76,-0.95 -0.05,-0.44 -0.45,-0.83 -0.95,-0.76z"/>
 </g>
</svg>
