<?xml version="1.0" encoding="UTF-8"?>
<!DOCTYPE svg PUBLIC "-//W3C//DTD SVG 1.0//EN" "http://www.w3.org/TR/2001/REC-SVG-20010904/DTD/svg10.dtd">
<!-- Creator: CorelDRAW 2018 (64 Bit Versão de avaliação) -->
<svg xmlns="http://www.w3.org/2000/svg" xml:space="preserve" width="41px" height="41px" version="1.0" shape-rendering="geometricPrecision" text-rendering="geometricPrecision" image-rendering="optimizeQuality" fill-rule="evenodd" clip-rule="evenodd"
viewBox="0 0 1.92 1.92"
 xmlns:xlink="http://www.w3.org/1999/xlink">
 <g id="Camada_x0020_1">
  <metadata id="CorelCorpID_0Corel-Layer"/>
  <path fill="black" d="M0.29 1.51l1.34 0c0.07,0 0.11,0.03 0.14,0.08 0.02,0.03 0.02,0.08 0,0.12 -0.03,0.05 -0.07,0.08 -0.14,0.08l-1.34 0c-0.05,0 -0.08,-0.02 -0.11,-0.04 -0.01,-0.01 -0.02,-0.03 -0.03,-0.04 -0.03,-0.06 -0.01,-0.12 0.03,-0.16 0.03,-0.03 0.06,-0.04 0.11,-0.04zm-0.08 0.13c0,0.05 0.02,0.08 0.06,0.08l0.42 0c0.04,0 0.06,-0.03 0.06,-0.08 0,-0.03 -0.03,-0.06 -0.06,-0.06l-0.42 0c-0.03,0 -0.06,0.03 -0.06,0.06zm0.68 -1.34l0 0.33c0,0.03 0.07,0.08 0.11,0.11 0.02,0.01 0.04,0.03 0.06,0.04 0.03,0.04 0.04,0.04 0.08,0.04 0.04,0 0.1,-0.06 0.03,-0.13l-0.11 -0.08c-0.02,-0.02 -0.03,-0.01 -0.03,-0.06 0,-0.03 0.01,-0.25 -0.01,-0.27 -0.03,-0.07 -0.13,-0.03 -0.13,0.02zm-0.41 0.32c0,-0.37 0.42,-0.62 0.75,-0.4 0.03,0.02 0.06,0.05 0.08,0.07 0.01,0.01 0.01,0.01 0.02,0.02 0.09,0.11 0.13,0.27 0.1,0.42 -0.02,0.05 -0.04,0.11 -0.08,0.16l-0.05 0.07c-0.04,0.03 -0.09,0.07 -0.14,0.1 -0.14,0.05 -0.25,0.05 -0.4,0 -0.06,-0.03 -0.12,-0.08 -0.17,-0.13 -0.02,-0.03 -0.05,-0.08 -0.07,-0.11 -0.01,-0.03 -0.02,-0.06 -0.03,-0.09 0,-0.03 -0.01,-0.08 -0.01,-0.11zm-0.14 -0.03c0,0.14 0.01,0.17 0.06,0.29l0.05 0.09c0.04,0.05 0.03,0.04 0.07,0.08l0 0.01c0.11,0.1 0.25,0.18 0.42,0.18 0.14,0 0.21,-0.02 0.33,-0.09 0.06,-0.03 0.12,-0.08 0.16,-0.13l0.06 -0.09c0.07,-0.12 0.09,-0.19 0.09,-0.34 0,-0.11 -0.05,-0.24 -0.11,-0.33 -0.04,-0.04 -0.07,-0.08 -0.11,-0.11 -0.01,-0.01 -0.03,-0.03 -0.04,-0.04 -0.02,-0.01 -0.07,-0.04 -0.1,-0.05 -0.19,-0.08 -0.33,-0.08 -0.52,0l-0.1 0.05c-0.05,0.04 -0.05,0.05 -0.09,0.09 -0.01,0.01 -0.02,0.01 -0.02,0.02 -0.08,0.09 -0.15,0.25 -0.15,0.37zm-0.34 1.04c0,0.06 0,0.09 0.03,0.14 0,0.01 0.01,0.03 0.02,0.04 0.05,0.06 0.13,0.11 0.21,0.11l1.4 0c0.13,0 0.26,-0.13 0.26,-0.25l0 -0.04c0,-0.13 -0.13,-0.26 -0.26,-0.26l-1.4 0c-0.13,0 -0.26,0.13 -0.26,0.26z"/>
 </g>
</svg>
