<?xml version="1.0" encoding="UTF-8"?>
<!DOCTYPE svg PUBLIC "-//W3C//DTD SVG 1.0//EN" "http://www.w3.org/TR/2001/REC-SVG-20010904/DTD/svg10.dtd">
<!-- Creator: CorelDRAW 2018 (64 Bit Versão de avaliação) -->
<svg xmlns="http://www.w3.org/2000/svg" xml:space="preserve" width="36px" height="41px" version="1.0" shape-rendering="geometricPrecision" text-rendering="geometricPrecision" image-rendering="optimizeQuality" fill-rule="evenodd" clip-rule="evenodd"
viewBox="0 0 0.64 0.72"
 xmlns:xlink="http://www.w3.org/1999/xlink">
 <g id="Camada_x0020_1">
  <metadata id="CorelCorpID_0Corel-Layer"/>
  <g id="_2751258204848">
   <g>
    <path fill="#292929" d="M0.27 0.62c-0.04,0 -0.05,0 -0.07,0.02 -0.01,0.01 -0.02,0.02 -0.03,0.03 0,0 -0.06,-0.03 -0.06,-0.04l-0.03 -0.01c0,-0.01 -0.01,-0.01 -0.01,-0.01 0,-0.01 0.06,-0.06 0.06,-0.07 0.03,-0.02 0.04,-0.04 0.09,-0.04l0.11 0c0.04,0 0.04,0.03 0,0.03l-0.02 0c-0.01,0 -0.01,0 -0.01,0l-0.03 0c-0.01,0 -0.01,0.01 -0.02,0.01 -0.01,0.01 -0.01,0.03 0,0.04 0.01,0 0.01,0 0.02,0l0.12 0c0.04,0 0.08,-0.02 0.11,-0.04 0.01,-0.01 0.06,-0.04 0.07,-0.04 0.01,0 0.03,0.02 0.01,0.03l-0.13 0.07c0,0.01 0,0.01 -0.01,0.01 -0.02,0.01 -0.04,0.01 -0.07,0.01 -0.03,0 -0.06,0 -0.1,0zm0.14 -0.09c0,-0.04 -0.02,-0.08 -0.07,-0.08l-0.13 0c-0.04,0 -0.06,0.01 -0.08,0.03l-0.11 0.1c0,0.01 0,0.01 -0.01,0.01 0,0.01 -0.01,0.01 -0.01,0.02 0,0.03 0.02,0.03 0.04,0.04 0.01,0 0.01,0.01 0.02,0.01 0,0 0.01,0.01 0.01,0.01l0.08 0.04c0.01,0.01 0.02,0.01 0.03,0.01 0.01,0 0.03,-0.01 0.04,-0.02l0.01 -0.01c0,-0.01 0,-0.01 0.01,-0.01 0.01,-0.02 0.01,-0.01 0.03,-0.01 0.01,0 0.09,0 0.1,0 0.03,0 0.06,0 0.08,-0.01 0.01,0 0.04,-0.02 0.05,-0.03l0.07 -0.04c0.03,-0.01 0.07,-0.03 0.07,-0.07 0,-0.02 -0.01,-0.04 -0.02,-0.05 -0.01,-0.01 -0.03,-0.02 -0.05,-0.02 -0.02,0 -0.06,0.02 -0.08,0.04l-0.07 0.04c-0.01,0 -0.01,0 -0.01,0z"/>
    <path fill="#292929" d="M0.47 0.18l0.01 0 0 0.04c-0.03,0 -0.02,0.02 -0.04,0.05 -0.01,0.02 -0.01,0.01 0.01,0.03 -0.01,0.01 -0.03,0.03 -0.03,0.03 -0.01,0 -0.01,-0.01 -0.02,-0.01 0,0 -0.03,0.01 -0.04,0.02 0,0 -0.01,0 -0.01,0 -0.01,0.01 -0.01,0.02 -0.01,0.03l-0.04 0c0,-0.03 -0.02,-0.03 -0.04,-0.04 -0.02,-0.01 -0.02,-0.01 -0.04,0 -0.01,-0.01 -0.02,-0.02 -0.03,-0.03 0.02,-0.02 0.01,-0.01 0,-0.04 -0.01,-0.02 0,-0.04 -0.03,-0.04l0 -0.04c0.02,0 0.02,0 0.03,-0.02 0,-0.01 0,-0.01 0,-0.02 0.02,-0.02 0.01,-0.03 0,-0.04 0,0 0.03,-0.02 0.03,-0.02 0,0 0,0 0.01,0 0.01,0.01 0.02,0 0.04,-0.01 0.01,0 0.02,0 0.02,-0.01 0.01,0 0.01,-0.01 0.01,-0.02l0.04 0c0,0.03 0.01,0.03 0.04,0.04 0.02,0.01 0.02,0.01 0.04,0 0.01,0 0.02,0.02 0.03,0.02 -0.02,0.03 -0.02,0.02 0,0.05 0,0 0,0.01 0,0.02 0.01,0.01 0.01,0.01 0.02,0.01zm-0.21 -0.15c-0.01,0 -0.01,0.01 -0.02,0.01 0,0 -0.02,-0.03 -0.04,-0.01 -0.01,0.01 -0.01,0.02 -0.03,0.03 -0.02,0.02 -0.04,0.03 -0.03,0.06 0,0 0.01,0 0.01,0.01 0,0 0,0 0,0.01 -0.01,0 -0.02,0 -0.02,0 -0.01,0.01 -0.02,0.01 -0.02,0.02l0 0.09c0,0.01 0.01,0.01 0.01,0.01 0.01,0.01 0.02,0.01 0.03,0.01 0,0 0,0.01 0,0.01 -0.01,0.01 -0.01,0.02 -0.01,0.02 0,0.01 0.02,0.03 0.03,0.04 0,0 0,0 0,0.01 0.01,0 0.01,0.01 0.02,0.01l0.01 0.02c0.01,0.01 0.02,0.01 0.04,0 0.01,-0.01 0,-0.01 0.02,-0.01 0,0.02 -0.01,0.02 0,0.03 0,0 0.01,0.01 0.02,0.01l0.08 0c0.01,0 0.02,-0.01 0.02,-0.01 0,-0.01 0,-0.02 0,-0.03 0.01,0 0.01,0 0.02,0 0,0 0.01,0.04 0.05,-0.01 0.01,0 0.01,-0.01 0.01,-0.01 0.02,-0.01 0.05,-0.04 0.04,-0.06 -0.01,0 -0.01,0 -0.01,0 0,-0.01 0,-0.01 0,-0.01 0,0 0,-0.01 0,-0.01 0.01,0 0.02,0 0.02,-0.01 0.01,0 0.01,-0.01 0.01,-0.01l0 -0.09c0,-0.02 -0.02,-0.02 -0.03,-0.02 0,-0.01 -0.01,-0.01 0,-0.02 0.02,-0.02 0,-0.03 -0.01,-0.04l-0.04 -0.04c-0.01,-0.01 -0.01,-0.02 -0.02,-0.02 -0.02,0 -0.02,0.02 -0.03,0.02 0,0 0,-0.01 -0.01,-0.01 0,-0.01 0,-0.01 0,-0.02 0,0 -0.01,-0.01 -0.01,-0.01l-0.1 0c0,0 -0.01,0.01 -0.01,0.01 -0.01,0.01 0,0.01 0,0.02z"/>
    <path fill="#292929" d="M0.32 0.25c-0.02,0 -0.02,0 -0.04,-0.01 -0.02,-0.03 -0.01,-0.08 0.04,-0.08 0.04,0 0.07,0.05 0.03,0.08 0,0 -0.01,0.01 -0.03,0.01zm-0.09 -0.05c0,0.04 0.01,0.06 0.04,0.08 0,0 0.01,0.01 0.01,0.01 0.04,0.01 0.08,0.01 0.11,-0.02 0.02,-0.03 0.03,-0.08 0.01,-0.12 -0.02,-0.02 -0.05,-0.04 -0.07,-0.04 -0.02,0 -0.03,0 -0.05,0.01 -0.03,0.02 -0.05,0.05 -0.05,0.08z"/>
   </g>
  </g>
 </g>
</svg>
