<?xml version="1.0" encoding="UTF-8"?>
<!DOCTYPE svg PUBLIC "-//W3C//DTD SVG 1.0//EN" "http://www.w3.org/TR/2001/REC-SVG-20010904/DTD/svg10.dtd">
<!-- Creator: CorelDRAW 2018 (64 Bit Versão de avaliação) -->
<svg xmlns="http://www.w3.org/2000/svg" xml:space="preserve" width="41px" height="41px" version="1.0" shape-rendering="geometricPrecision" text-rendering="geometricPrecision" image-rendering="optimizeQuality" fill-rule="evenodd" clip-rule="evenodd"
viewBox="0 0 0.82 0.82"
 xmlns:xlink="http://www.w3.org/1999/xlink">
 <g id="Camada_x0020_1">
  <metadata id="CorelCorpID_0Corel-Layer"/>
  <g id="_2039366894064">
   <g>
    <path fill="black" d="M0.52 0.22l0.07 0 0 0.08 -0.07 0 0 -0.08zm-0.08 -0.03l0 0.14c0,0.03 0.02,0.04 0.04,0.04l0.15 0c0.02,0 0.04,-0.01 0.04,-0.03l0 -0.16c0,-0.02 -0.02,-0.03 -0.04,-0.03l-0.15 0c-0.02,0 -0.04,0.02 -0.04,0.04z"/>
    <path fill="black" d="M0.22 0.22l0.08 0 0 0.08 -0.08 0 0 -0.08zm-0.07 -0.04l0 0.16c0,0.02 0.02,0.03 0.04,0.03l0.14 0c0.03,0 0.04,-0.01 0.04,-0.04l0 -0.14c0,-0.02 -0.01,-0.04 -0.03,-0.04l-0.16 0c-0.02,0 -0.03,0.01 -0.03,0.03z"/>
    <path fill="black" d="M0.22 0.52l0.08 0 0 0.07 -0.08 0 0 -0.07zm-0.07 -0.04l0 0.15c0,0.02 0.01,0.04 0.03,0.04l0.16 0c0.02,0 0.03,-0.02 0.03,-0.04l0 -0.15c0,-0.02 -0.01,-0.04 -0.04,-0.04l-0.14 0c-0.02,0 -0.04,0.02 -0.04,0.04z"/>
    <path fill="black" d="M0.52 0.77l0 0.01c0,0.02 0.02,0.04 0.03,0.04l0.16 0c0.04,0 0.07,-0.02 0.09,-0.05 0.01,-0.01 0.02,-0.04 0.02,-0.06l0 -0.16c0,-0.01 -0.02,-0.03 -0.04,-0.03 -0.01,0 -0.02,0 -0.03,0.01 -0.01,0.02 -0.01,0.06 -0.01,0.08 0,0.03 0,0.05 0,0.07 0,0.02 0,0.04 -0.01,0.05 -0.01,0.01 -0.03,0.01 -0.05,0.01 -0.02,0 -0.12,0 -0.13,0 -0.01,0 -0.03,0.02 -0.03,0.03z"/>
    <path fill="black" d="M0 0.11l0 0.15c0,0.02 0.02,0.04 0.03,0.04 0.02,0 0.04,-0.01 0.04,-0.03 0.01,-0.01 0,-0.11 0,-0.13 0,-0.03 0,-0.04 0.01,-0.06 0.02,-0.01 0.03,-0.01 0.06,-0.01 0.02,0 0.11,0.01 0.12,0 0.01,0 0.02,0 0.03,-0.01 0.02,-0.01 0.01,-0.06 -0.03,-0.06l-0.15 0c-0.03,0 -0.05,0.01 -0.06,0.02 -0.01,0.01 -0.02,0.01 -0.03,0.03 -0.01,0.01 -0.02,0.03 -0.02,0.06z"/>
    <path fill="black" d="M0 0.55l0 0.16c0,0.02 0.01,0.04 0.02,0.06 0.01,0.01 0.01,0.02 0.03,0.03 0.01,0.01 0.03,0.02 0.05,0.02l0.16 0c0.02,0 0.04,-0.02 0.04,-0.04 0,-0.02 -0.01,-0.03 -0.03,-0.04 -0.01,0 -0.11,0 -0.13,0 -0.03,0 -0.04,0 -0.06,-0.01 -0.01,-0.01 -0.01,-0.03 -0.01,-0.05 0,-0.02 0.01,-0.12 0,-0.13 0,-0.01 0,-0.01 -0.01,-0.02 -0.01,-0.02 -0.06,-0.01 -0.06,0.02z"/>
    <path fill="black" d="M0.52 0.03c0,0.01 0,0.02 0.01,0.03 0,0.01 0.01,0.01 0.02,0.01 0.01,0.01 0.11,0 0.13,0 0.02,0 0.04,0 0.05,0.01 0.01,0.02 0.01,0.03 0.01,0.06 0,0.02 0,0.11 0,0.12 0.01,0.05 0.08,0.04 0.08,0l0 -0.16c0,-0.02 -0.01,-0.04 -0.02,-0.05 -0.01,-0.02 -0.03,-0.03 -0.05,-0.04 -0.01,0 -0.02,-0.01 -0.04,-0.01l-0.16 0c-0.01,0 -0.03,0.02 -0.03,0.03z"/>
    <path fill="black" d="M0.48 0.63c0,0.02 0.02,0.04 0.04,0.04l0.11 0c0.02,0 0.04,-0.02 0.04,-0.04 0,-0.02 -0.01,-0.04 -0.04,-0.04l-0.11 0c-0.02,0 -0.04,0.02 -0.04,0.04z"/>
    <path fill="black" d="M0.44 0.48c0,0.02 0,0.05 0.01,0.07 0.02,0.02 0.07,0.01 0.07,-0.03 0,-0.03 0.01,-0.08 -0.04,-0.08 -0.02,0 -0.04,0.02 -0.04,0.04z"/>
    <path fill="black" d="M0.56 0.48c0,0.05 0.03,0.04 0.07,0.04 0.02,0 0.04,-0.01 0.04,-0.03l0 -0.01c0,-0.04 -0.05,-0.04 -0.08,-0.04 -0.02,0 -0.03,0.02 -0.03,0.04z"/>
   </g>
  </g>
 </g>
</svg>
