<?xml version="1.0" encoding="UTF-8"?>
<!DOCTYPE svg PUBLIC "-//W3C//DTD SVG 1.0//EN" "http://www.w3.org/TR/2001/REC-SVG-20010904/DTD/svg10.dtd">
<!-- Creator: CorelDRAW 2018 (64 Bit Versão de avaliação) -->
<svg xmlns="http://www.w3.org/2000/svg" xml:space="preserve" width="41px" height="41px" version="1.0" shape-rendering="geometricPrecision" text-rendering="geometricPrecision" image-rendering="optimizeQuality" fill-rule="evenodd" clip-rule="evenodd"
viewBox="0 0 1.57 1.55"
 xmlns:xlink="http://www.w3.org/1999/xlink">
 <g id="Camada_x0020_1">
  <metadata id="CorelCorpID_0Corel-Layer"/>
  <path fill="black" d="M0.16 0.72c0,-0.18 0.08,-0.33 0.22,-0.43 0.1,-0.07 0.25,-0.13 0.37,-0.13 0.13,0 0.18,0 0.3,0.05 0.05,0.02 0.1,0.05 0.14,0.08 0.01,0 0.01,0.01 0.02,0.01 0.06,0.05 0.11,0.1 0.14,0.17 0.09,0.17 0.08,0.37 -0.01,0.53 -0.01,0.01 -0.02,0.03 -0.03,0.04 -0.02,0.02 -0.03,0.03 -0.04,0.05 -0.06,0.05 -0.12,0.1 -0.19,0.13 -0.06,0.03 -0.19,0.07 -0.26,0.06 -0.11,-0.01 -0.18,-0.02 -0.28,0.03 -0.02,0.01 -0.08,0.05 -0.1,0.05l0 -0.11c0,-0.04 -0.02,-0.06 -0.04,-0.08 -0.04,-0.04 -0.05,-0.04 -0.12,-0.11 -0.06,-0.07 -0.12,-0.2 -0.12,-0.34zm0.53 0.33l0 0.02c0,0.07 0.11,0.11 0.15,0.03 0.03,-0.07 -0.03,-0.12 -0.07,-0.12l-0.01 0c-0.04,0 -0.07,0.04 -0.07,0.07zm-0.12 -0.53c0,0.03 0.03,0.06 0.07,0.06 0.05,0 0.03,-0.08 0.14,-0.08 0.06,0 0.11,0.04 0.08,0.11 -0.01,0.01 -0.01,0 -0.02,0.01 0,0.01 0,0.01 0,0.01l-0.04 0.03c-0.06,0.05 -0.1,0.1 -0.1,0.18 0,0.06 0.03,0.07 0.07,0.07 0.02,0 0.04,-0.01 0.05,-0.02 0.01,-0.01 0.01,-0.05 0.01,-0.07 0,-0.04 0.03,-0.06 0.06,-0.09 0.05,-0.04 0.11,-0.1 0.11,-0.18 0,-0.06 -0.03,-0.1 -0.07,-0.13 -0.13,-0.09 -0.36,-0.03 -0.36,0.1zm-0.57 0.2c0,0.1 0.03,0.19 0.06,0.28 0.01,0.01 0.01,0.02 0.02,0.03 0.01,0.02 0.01,0.03 0.02,0.04 0.04,0.05 0.05,0.08 0.1,0.12 0.04,0.04 0.09,0.08 0.09,0.14 0,0.08 -0.02,0.13 0.01,0.2 0.01,0.01 0.01,0.02 0.02,0.02 0.14,0.03 0.22,-0.11 0.37,-0.11l0.18 -0.01c0.12,-0.02 0.19,-0.02 0.3,-0.08 0.17,-0.08 0.3,-0.24 0.36,-0.4 0.08,-0.21 0.04,-0.43 -0.08,-0.6 -0.14,-0.2 -0.39,-0.35 -0.64,-0.35 -0.24,0 -0.41,0.07 -0.57,0.22 -0.03,0.02 -0.03,0.01 -0.05,0.04 -0.01,0.01 -0.01,0.02 -0.02,0.03 -0.1,0.12 -0.17,0.27 -0.17,0.43z"/>
 </g>
</svg>
