<?xml version="1.0" encoding="UTF-8"?>
<!DOCTYPE svg PUBLIC "-//W3C//DTD SVG 1.0//EN" "http://www.w3.org/TR/2001/REC-SVG-20010904/DTD/svg10.dtd">
<!-- Creator: CorelDRAW 2018 (64 Bit Versão de avaliação) -->
<svg xmlns="http://www.w3.org/2000/svg" xml:space="preserve" width="41px" height="41px" version="1.0" shape-rendering="geometricPrecision" text-rendering="geometricPrecision" image-rendering="optimizeQuality" fill-rule="evenodd" clip-rule="evenodd"
viewBox="0 0 1.56 1.56"
 xmlns:xlink="http://www.w3.org/1999/xlink">
 <g id="Camada_x0020_1">
  <metadata id="CorelCorpID_0Corel-Layer"/>
  <path fill="black" d="M1.42 0.8c0,-0.11 -0.02,-0.2 -0.06,-0.29 -0.08,-0.15 -0.16,-0.23 -0.31,-0.31 -0.16,-0.08 -0.38,-0.08 -0.54,0 -0.15,0.08 -0.23,0.16 -0.31,0.31 -0.08,0.16 -0.08,0.38 0,0.54 0.03,0.05 0.06,0.1 0.09,0.14 0.08,0.08 0.12,0.12 0.22,0.17 0.16,0.08 0.38,0.08 0.54,0 0.01,-0.01 0.03,-0.02 0.05,-0.03 0.12,-0.07 0.16,-0.11 0.23,-0.23 0.05,-0.07 0.09,-0.2 0.09,-0.3zm-0.74 0.28l0 0.01c0,0.08 0.11,0.11 0.15,0.03 0.03,-0.06 -0.02,-0.12 -0.06,-0.12l-0.02 0c-0.03,0 -0.07,0.04 -0.07,0.08zm-0.11 -0.54c0,0.03 0.03,0.06 0.06,0.06 0.05,0 0.04,-0.08 0.14,-0.08 0.07,0 0.12,0.04 0.08,0.11 0,0.01 0,0.01 -0.01,0.01 0,0.01 0,0.01 -0.01,0.01l-0.03 0.03c-0.07,0.05 -0.1,0.1 -0.1,0.19 0,0.05 0.02,0.06 0.06,0.06 0.03,0 0.05,0 0.06,-0.02 0,-0.01 0,-0.05 0,-0.07 0.01,-0.04 0.04,-0.06 0.06,-0.08 0.06,-0.05 0.12,-0.11 0.12,-0.19 0,-0.06 -0.04,-0.1 -0.07,-0.13 -0.13,-0.09 -0.36,-0.03 -0.36,0.1zm0.24 -0.54l-0.05 0c-0.07,0 -0.14,0.01 -0.21,0.03 -0.01,0.01 -0.02,0.01 -0.03,0.01 -0.08,0.03 -0.15,0.07 -0.22,0.12 -0.05,0.05 -0.12,0.11 -0.16,0.17l-0.02 0.03c-0.02,0.03 -0.04,0.06 -0.05,0.09 -0.01,0.03 -0.02,0.04 -0.03,0.07 -0.02,0.08 -0.04,0.15 -0.04,0.23l0 0.05c0,0.07 0.01,0.14 0.03,0.21 0.02,0.07 0.06,0.13 0.09,0.19 0.02,0.03 0.04,0.06 0.06,0.08 0.01,0.01 0.02,0.02 0.03,0.03 0.01,0.01 0.01,0.01 0.02,0.02 0.01,0.01 0.01,0.02 0.02,0.03 0.04,0.03 0.09,0.07 0.14,0.1 0.04,0.02 0.09,0.04 0.13,0.06 0.02,0.01 0.05,0.01 0.07,0.02 0.1,0.02 0.11,0.02 0.21,0.02 0.19,0 0.37,-0.08 0.51,-0.21 0.01,0 0.01,-0.01 0.02,-0.02 0.04,-0.04 0.1,-0.11 0.13,-0.16 0.03,-0.06 0.07,-0.13 0.08,-0.2 0.02,-0.1 0.02,-0.11 0.02,-0.21 0,-0.06 -0.01,-0.12 -0.02,-0.17 -0.02,-0.08 -0.06,-0.16 -0.1,-0.23 -0.01,-0.01 -0.01,-0.02 -0.02,-0.03 -0.01,-0.01 -0.01,-0.02 -0.02,-0.03 -0.01,-0.01 -0.01,-0.01 -0.02,-0.02l-0.05 -0.05c-0.07,-0.08 -0.19,-0.15 -0.29,-0.19 -0.08,-0.02 -0.15,-0.04 -0.23,-0.04z"/>
 </g>
</svg>
