<?xml version="1.0" encoding="UTF-8"?>
<!DOCTYPE svg PUBLIC "-//W3C//DTD SVG 1.0//EN" "http://www.w3.org/TR/2001/REC-SVG-20010904/DTD/svg10.dtd">
<!-- Creator: CorelDRAW 2018 (64 Bit Versão de avaliação) -->
<svg xmlns="http://www.w3.org/2000/svg" xml:space="preserve" width="41px" height="41px" version="1.0" shape-rendering="geometricPrecision" text-rendering="geometricPrecision" image-rendering="optimizeQuality" fill-rule="evenodd" clip-rule="evenodd"
viewBox="0 0 1.34 1.34"
 xmlns:xlink="http://www.w3.org/1999/xlink">
 <g id="Camada_x0020_1">
  <metadata id="CorelCorpID_0Corel-Layer"/>
  <g id="_2289592356656">
   <g>
    <path fill="#292929" d="M0.11 1.14l0 -0.64c0,-0.04 0.02,-0.08 0.07,-0.08l0.98 0c0.04,0 0.06,0.03 0.06,0.06l0 0.67c0,0.05 -0.02,0.07 -0.07,0.07l-0.96 0c-0.06,0 -0.08,-0.02 -0.08,-0.08zm-0.11 -0.65l0 0.66c0,0.11 0.08,0.19 0.17,0.19l1 0c0.09,0 0.17,-0.08 0.17,-0.17l0 -0.7c0,-0.04 -0.02,-0.07 -0.04,-0.09 -0.06,-0.1 -0.18,-0.07 -0.31,-0.07 -0.17,0 -0.34,0 -0.51,0l0.03 -0.02c0.01,0 0.02,-0.01 0.03,-0.01 0.03,-0.01 0.04,-0.02 0.07,-0.03l0.31 -0.14c0.07,-0.03 0.03,-0.11 -0.02,-0.11 -0.03,0 -0.14,0.06 -0.18,0.07 -0.01,0.01 -0.02,0.01 -0.03,0.02l-0.09 0.04c-0.1,0.04 -0.26,0.11 -0.36,0.16 -0.03,0.01 -0.03,0.02 -0.07,0.02 -0.03,0 -0.05,0 -0.07,0.01 -0.02,0.01 -0.03,0.03 -0.05,0.04 -0.03,0.03 -0.05,0.07 -0.05,0.13z"/>
    <path fill="#292929" d="M0.88 0.57l0.19 0 0 0.04 -0.19 0 0 -0.04zm-0.61 0l0.49 0 0 0.04 -0.49 0 0 -0.04zm-0.11 -0.06l0 0.16c0,0.03 0.02,0.05 0.05,0.05l0.92 0c0.02,0 0.05,-0.02 0.05,-0.04l0 -0.17c0,-0.03 -0.03,-0.05 -0.05,-0.05l-0.92 0c-0.03,0 -0.05,0.03 -0.05,0.05z"/>
    <path fill="#292929" d="M0.97 1.01c0,0.04 0,0.03 0.02,0.06 -0.04,0 -0.06,-0.01 -0.08,-0.03 -0.08,-0.06 -0.01,-0.2 0.1,-0.16 0.04,0.02 0.06,0.06 0.06,0.1 -0.02,-0.01 -0.04,-0.02 -0.07,-0.01 -0.01,0 -0.03,0.02 -0.03,0.04zm-0.21 -0.04c0,0.12 0.11,0.21 0.19,0.21l0.04 0c0.09,0 0.19,-0.1 0.19,-0.19 0,-0.08 0,-0.11 -0.06,-0.17 -0.14,-0.13 -0.36,-0.02 -0.36,0.15z"/>
    <path fill="#292929" d="M0.54 0.81l0 0.32c0,0.06 0.11,0.07 0.11,-0.01l0 -0.3c0,-0.08 -0.11,-0.07 -0.11,-0.01z"/>
    <path fill="#292929" d="M0.23 0.81l0 0.32c0,0.06 0.12,0.07 0.12,-0.01l0 -0.3c0,-0.08 -0.12,-0.07 -0.12,-0.01z"/>
    <path fill="#292929" d="M0.39 0.81l0 0.32c0,0.06 0.11,0.07 0.11,-0.01l0 -0.3c0,-0.08 -0.11,-0.07 -0.11,-0.01z"/>
   </g>
  </g>
 </g>
</svg>
