<?xml version="1.0" encoding="UTF-8"?>
<!DOCTYPE svg PUBLIC "-//W3C//DTD SVG 1.0//EN" "http://www.w3.org/TR/2001/REC-SVG-20010904/DTD/svg10.dtd">
<!-- Creator: CorelDRAW 2018 (64 Bit Versão de avaliação) -->
<svg xmlns="http://www.w3.org/2000/svg" xml:space="preserve" width="55px" height="41px" version="1.0" shape-rendering="geometricPrecision" text-rendering="geometricPrecision" image-rendering="optimizeQuality" fill-rule="evenodd" clip-rule="evenodd"
viewBox="0 0 1.62 1.21"
 xmlns:xlink="http://www.w3.org/1999/xlink">
 <g id="Camada_x0020_1">
  <metadata id="CorelCorpID_0Corel-Layer"/>
  <g id="_2751233649760">
   <path fill="#292929" d="M1.3 0c-0.02,0.01 -0.04,0.03 -0.04,0.07 0,0.03 0.02,0.05 0.04,0.07 0.03,0.02 0.08,0.1 0.1,0.13 0.05,0.1 0.1,0.22 0.09,0.36 0,0.16 -0.08,0.32 -0.18,0.44 -0.02,0.02 -0.07,0.06 -0.05,0.11 0.01,0.02 0.04,0.04 0.08,0.03 0.03,-0.01 0.04,-0.03 0.06,-0.05 0.01,-0.01 0.02,-0.02 0.02,-0.03 0.13,-0.15 0.2,-0.33 0.2,-0.54 0,-0.13 -0.05,-0.27 -0.1,-0.36 -0.01,-0.03 -0.06,-0.11 -0.09,-0.13 -0.01,-0.02 -0.03,-0.05 -0.05,-0.06 -0.02,-0.02 -0.03,-0.05 -0.08,-0.04z"/>
   <path fill="#292929" d="M0.29 0c-0.02,0.01 -0.04,0.02 -0.05,0.04 -0.07,0.07 -0.1,0.12 -0.15,0.21 -0.13,0.26 -0.11,0.52 0.03,0.76 0.03,0.06 0.05,0.09 0.09,0.14l0.03 0.03c0.01,0.02 0.03,0.04 0.07,0.03 0.03,0 0.05,-0.03 0.05,-0.06 0,-0.03 -0.04,-0.07 -0.06,-0.1 -0.02,-0.01 -0.06,-0.08 -0.07,-0.1 -0.16,-0.26 -0.13,-0.54 0.05,-0.77 0.01,-0.01 0.03,-0.04 0.04,-0.04 0.02,-0.02 0.05,-0.06 0.04,-0.1 -0.01,-0.02 -0.04,-0.05 -0.07,-0.04z"/>
   <path fill="#292929" d="M0.79 0.47c0.08,-0.01 0.15,0.04 0.16,0.11 0.02,0.14 -0.13,0.21 -0.23,0.14 -0.1,-0.09 -0.04,-0.23 0.07,-0.25zm0.29 0.16c0,-0.03 -0.01,-0.09 -0.02,-0.12 -0.04,-0.09 -0.11,-0.15 -0.23,-0.17 -0.14,-0.02 -0.27,0.1 -0.29,0.24 -0.01,0.16 0.11,0.28 0.25,0.29 0.07,0.01 0.15,-0.02 0.2,-0.06 0.02,-0.03 0.04,-0.05 0.06,-0.08 0.01,-0.03 0.02,-0.06 0.03,-0.1z"/>
   <path fill="#292929" d="M0.46 0.2c-0.05,0.02 -0.11,0.12 -0.14,0.17 -0.07,0.16 -0.06,0.33 0.01,0.49 0.02,0.03 0.04,0.07 0.06,0.09 0.02,0.02 0.05,0.07 0.09,0.06 0.04,-0.01 0.07,-0.05 0.05,-0.09 -0.01,-0.02 -0.02,-0.03 -0.04,-0.04 -0.03,-0.04 -0.06,-0.09 -0.07,-0.15 -0.01,-0.03 -0.03,-0.1 -0.02,-0.13 0.01,-0.12 0.02,-0.18 0.1,-0.27 0.01,-0.02 0.03,-0.03 0.03,-0.05 0.01,-0.04 -0.03,-0.08 -0.07,-0.08z"/>
   <path fill="#292929" d="M1.09 0.27c0,0.03 0.04,0.07 0.06,0.09 0.07,0.1 0.09,0.24 0.06,0.36 -0.02,0.06 -0.04,0.11 -0.08,0.15 0,0.01 0,0.01 -0.01,0.01 -0.01,0.02 -0.01,0.02 -0.02,0.03 -0.03,0.04 0,0.09 0.03,0.1 0.05,0.01 0.08,-0.03 0.1,-0.05 0.04,-0.06 0.07,-0.11 0.1,-0.2 0.02,-0.09 0.03,-0.18 0.01,-0.27 -0.02,-0.09 -0.05,-0.15 -0.1,-0.21 -0.02,-0.03 -0.04,-0.06 -0.08,-0.07 -0.04,-0.01 -0.08,0.02 -0.07,0.06z"/>
  </g>
 </g>
</svg>
