<?xml version="1.0" encoding="UTF-8"?>
<!DOCTYPE svg PUBLIC "-//W3C//DTD SVG 1.0//EN" "http://www.w3.org/TR/2001/REC-SVG-20010904/DTD/svg10.dtd">
<!-- Creator: CorelDRAW 2018 (64 Bit Versão de avaliação) -->
<svg xmlns="http://www.w3.org/2000/svg" xml:space="preserve" width="28px" height="41px" version="1.0" shape-rendering="geometricPrecision" text-rendering="geometricPrecision" image-rendering="optimizeQuality" fill-rule="evenodd" clip-rule="evenodd"
viewBox="0 0 1.55 2.3"
 xmlns:xlink="http://www.w3.org/1999/xlink">
 <g id="Camada_x0020_1">
  <metadata id="CorelCorpID_0Corel-Layer"/>
  <path fill="black" d="M0.79 0.77c0,0.04 0.01,0.07 0.03,0.08 0.02,0.02 0.04,0.03 0.07,0.03l0.32 0c0.03,0 0.05,0 0.08,0 0.02,0 0.02,0 0.03,0.01 0.05,0.04 -0.01,0.09 -0.05,0.16l-0.19 0.28c-0.02,0.02 -0.03,0.04 -0.04,0.06 0,0.01 -0.3,0.45 -0.31,0.46l0 -0.57c0,-0.01 0,-0.02 0,-0.03 0,-0.03 0,-0.04 -0.01,-0.07 -0.03,-0.07 -0.1,-0.06 -0.17,-0.06 -0.04,0 -0.28,0.01 -0.31,0 -0.05,-0.02 -0.03,-0.07 -0.02,-0.1l0.05 -0.17c0.03,-0.11 0.06,-0.22 0.09,-0.33 0.01,-0.04 0.02,-0.08 0.03,-0.12 0.01,-0.05 0.02,-0.11 0.04,-0.16 0.01,-0.02 0.02,-0.03 0.05,-0.03l0.43 0c0.03,0 0.05,0.02 0.05,0.05 -0.01,0.03 -0.01,0.05 -0.02,0.07 -0.04,0.11 -0.08,0.22 -0.11,0.33 -0.02,0.03 -0.04,0.07 -0.04,0.11zm-0.79 0.31l0 -0.03 0 0c0,-0.03 0.01,-0.05 0.02,-0.08l0.06 -0.22c0.03,-0.15 0.08,-0.29 0.11,-0.44 0.03,-0.1 0.04,-0.19 0.12,-0.25 0.03,-0.03 0.09,-0.06 0.14,-0.06l0.49 0c0.03,0 0.07,0.02 0.1,0.03 0.05,0.03 0.08,0.07 0.11,0.12 0.03,0.06 0.03,0.15 0,0.21l-0.1 0.31c0.04,0 0.07,0 0.12,0 0.09,0 0.18,-0.01 0.25,0.03 0.04,0.02 0.08,0.07 0.1,0.1 0.02,0.03 0.03,0.06 0.03,0.1 0,0.06 0,0.1 -0.02,0.14 -0.03,0.04 -0.35,0.52 -0.4,0.6 -0.08,0.12 -0.16,0.23 -0.23,0.34 -0.04,0.06 -0.08,0.12 -0.12,0.18 -0.03,0.04 -0.08,0.14 -0.14,0.14 -0.06,0 -0.12,-0.03 -0.12,-0.1l0 -0.87 -0.25 0c-0.08,0 -0.12,-0.01 -0.17,-0.06 -0.01,0 -0.01,0 -0.02,-0.01 -0.01,-0.01 -0.01,-0.01 -0.01,-0.02 -0.01,0 -0.01,-0.01 -0.02,-0.01 -0.02,-0.03 -0.03,-0.05 -0.04,-0.09 -0.01,-0.02 -0.01,-0.04 -0.01,-0.06z"/>
 </g>
</svg>
