<?xml version="1.0" encoding="UTF-8"?>
<!DOCTYPE svg PUBLIC "-//W3C//DTD SVG 1.0//EN" "http://www.w3.org/TR/2001/REC-SVG-20010904/DTD/svg10.dtd">
<!-- Creator: CorelDRAW 2018 (64 Bit Versão de avaliação) -->
<svg xmlns="http://www.w3.org/2000/svg" xml:space="preserve" width="41px" height="41px" version="1.0" shape-rendering="geometricPrecision" text-rendering="geometricPrecision" image-rendering="optimizeQuality" fill-rule="evenodd" clip-rule="evenodd"
viewBox="0 0 2.48 2.48"
 xmlns:xlink="http://www.w3.org/1999/xlink">
 <g id="Camada_x0020_1">
  <metadata id="CorelCorpID_0Corel-Layer"/>
  <path fill="#292929" d="M1.2 0.21c0.14,-0.01 0.32,0.03 0.44,0.08 0.14,0.06 0.21,0.11 0.31,0.2 0.13,0.12 0.24,0.3 0.29,0.49 0.02,0.08 0.02,0.13 0.03,0.22 0.02,0.13 -0.03,0.33 -0.07,0.44 -0.04,0.09 -0.09,0.17 -0.15,0.24l-0.06 0.07c-0.19,0.2 -0.42,0.3 -0.71,0.32 -0.26,0.02 -0.57,-0.1 -0.75,-0.28 -0.01,-0.01 -0.02,-0.02 -0.03,-0.03 -0.01,-0.01 -0.02,-0.02 -0.03,-0.03 -0.02,-0.03 -0.04,-0.05 -0.06,-0.08 -0.03,-0.04 -0.07,-0.09 -0.1,-0.15 -0.13,-0.28 -0.14,-0.57 -0.02,-0.85 0.08,-0.2 0.18,-0.32 0.34,-0.44 0.16,-0.12 0.36,-0.18 0.57,-0.2zm0.65 1.21c0,0.06 -0.02,0.11 -0.06,0.15 -0.04,0.04 -0.09,0.06 -0.15,0.07l0 0.1 -0.1 0 0 -0.1c-0.06,0 -0.11,-0.03 -0.16,-0.06 -0.04,-0.04 -0.07,-0.09 -0.09,-0.15l0.13 -0.06c0.01,0.03 0.02,0.06 0.04,0.08 0.03,0.03 0.05,0.04 0.08,0.05l0 -0.21 -0.01 -0.01c-0.14,-0.05 -0.21,-0.13 -0.21,-0.23 0,-0.05 0.02,-0.1 0.06,-0.14 0.04,-0.04 0.09,-0.06 0.16,-0.07l0 -0.1 0.1 0 0 0.1c0.05,0.01 0.1,0.03 0.13,0.06 0.03,0.03 0.05,0.06 0.07,0.1l-0.13 0.06c-0.01,-0.02 -0.01,-0.04 -0.03,-0.05 -0.01,-0.01 -0.02,-0.02 -0.04,-0.03l0 0.2c0.07,0.03 0.12,0.07 0.16,0.1 0.03,0.03 0.05,0.08 0.05,0.14zm-0.39 -0.37c0,0.02 0.01,0.04 0.02,0.05 0.01,0.01 0.03,0.03 0.06,0.04l0 -0.17c-0.03,0.01 -0.04,0.02 -0.06,0.03 -0.01,0.02 -0.02,0.03 -0.02,0.05zm0.18 0.45c0.02,-0.01 0.04,-0.02 0.05,-0.03 0.01,-0.02 0.02,-0.03 0.02,-0.05 0,-0.02 -0.01,-0.04 -0.02,-0.05 -0.01,-0.02 -0.03,-0.03 -0.05,-0.04l0 0.17zm-1.01 -0.68l0.3 0c0.05,0 0.1,0.01 0.14,0.03 0.04,0.02 0.07,0.05 0.09,0.09 0.03,0.04 0.04,0.08 0.04,0.13 0,0.06 -0.02,0.1 -0.05,0.14 -0.03,0.04 -0.08,0.07 -0.13,0.09l0 0.01 0.22 0.31 0 0.01 -0.18 0 -0.21 -0.31 -0.07 0 0 0.31 -0.15 0 0 -0.81zm0.3 0.36c0.03,0 0.06,-0.01 0.08,-0.03 0.02,-0.02 0.03,-0.05 0.03,-0.08 0,-0.03 -0.01,-0.06 -0.03,-0.08 -0.02,-0.02 -0.05,-0.03 -0.08,-0.03l-0.15 0 0 0.22 0.15 0zm0.2 -1.17c-0.22,0.02 -0.41,0.08 -0.57,0.2 -0.1,0.06 -0.1,0.07 -0.17,0.14 -0.03,0.03 -0.05,0.05 -0.08,0.08 -0.03,0.02 -0.05,0.05 -0.07,0.08 -0.07,0.09 -0.12,0.19 -0.16,0.3 -0.13,0.33 -0.1,0.72 0.07,1.02 0.05,0.1 0.12,0.19 0.2,0.27 0.03,0.04 0.03,0.03 0.08,0.07 0.13,0.11 0.21,0.17 0.38,0.24 0.34,0.12 0.71,0.09 1.02,-0.08 0.07,-0.03 0.13,-0.08 0.19,-0.12l0.1 -0.09c0.01,-0.01 0.01,-0.01 0.02,-0.02 0.05,-0.06 0.13,-0.16 0.17,-0.22 0.13,-0.23 0.19,-0.47 0.17,-0.75 -0.03,-0.27 -0.13,-0.52 -0.31,-0.7 0,-0.01 -0.01,-0.02 -0.01,-0.03 -0.02,-0.02 -0.04,-0.04 -0.06,-0.05 -0.02,-0.02 -0.03,-0.03 -0.04,-0.04 -0.08,-0.08 -0.26,-0.19 -0.39,-0.23 -0.16,-0.06 -0.35,-0.09 -0.54,-0.07z"/>
 </g>
</svg>
