<?xml version="1.0" encoding="UTF-8"?>
<!DOCTYPE svg PUBLIC "-//W3C//DTD SVG 1.0//EN" "http://www.w3.org/TR/2001/REC-SVG-20010904/DTD/svg10.dtd">
<!-- Creator: CorelDRAW 2018 (64 Bit Versão de avaliação) -->
<svg xmlns="http://www.w3.org/2000/svg" xml:space="preserve" width="37px" height="31px" version="1.0" shape-rendering="geometricPrecision" text-rendering="geometricPrecision" image-rendering="optimizeQuality" fill-rule="evenodd" clip-rule="evenodd"
viewBox="0 0 4.71 4"
 xmlns:xlink="http://www.w3.org/1999/xlink">
 <g id="Camada_x0020_1">
  <metadata id="CorelCorpID_0Corel-Layer"/>
  <path fill="#373435" fill-rule="nonzero" d="M0 0.31l1.14 0c0.19,0 0.37,0.04 0.53,0.12 0.16,0.09 0.28,0.21 0.38,0.36 0.09,0.15 0.13,0.32 0.13,0.51 0,0.21 -0.07,0.41 -0.21,0.58 -0.14,0.16 -0.31,0.28 -0.52,0.33l-0.01 0.03 0.89 1.28 0 0.02 -0.59 0 -0.85 -1.26 -0.38 0 0 1.26 -0.51 0 0 -3.23zm1.13 1.5c0.15,0 0.27,-0.05 0.38,-0.15 0.11,-0.09 0.16,-0.22 0.16,-0.37 0,-0.08 -0.02,-0.16 -0.07,-0.24 -0.04,-0.08 -0.1,-0.14 -0.18,-0.19 -0.07,-0.05 -0.17,-0.08 -0.28,-0.08l-0.63 0 0 1.03 0.62 0zm3.58 0.9c0,0.25 -0.08,0.45 -0.24,0.61 -0.16,0.15 -0.36,0.24 -0.6,0.28l0 0.4 -0.37 0 0 -0.39c-0.22,-0.03 -0.42,-0.12 -0.6,-0.27 -0.18,-0.14 -0.3,-0.34 -0.36,-0.58l0.44 -0.18c0.03,0.13 0.1,0.25 0.19,0.35 0.09,0.1 0.2,0.16 0.33,0.2l0 -0.98 -0.03 -0.02c-0.26,-0.1 -0.46,-0.22 -0.6,-0.37 -0.14,-0.14 -0.21,-0.33 -0.21,-0.54 0,-0.14 0.03,-0.27 0.1,-0.39 0.07,-0.12 0.16,-0.22 0.29,-0.3 0.13,-0.08 0.28,-0.12 0.45,-0.14l0 -0.39 0.37 0 0 0.4c0.21,0.03 0.39,0.11 0.51,0.23 0.13,0.12 0.22,0.25 0.27,0.39l-0.44 0.19c-0.02,-0.08 -0.06,-0.14 -0.12,-0.2 -0.06,-0.06 -0.13,-0.11 -0.22,-0.14l0 0.92c0.27,0.12 0.48,0.24 0.63,0.38 0.14,0.13 0.21,0.31 0.21,0.54zm-1.57 -1.49c0,0.09 0.03,0.16 0.08,0.23 0.06,0.06 0.15,0.13 0.28,0.19l0 -0.79c-0.11,0.03 -0.2,0.07 -0.26,0.13 -0.07,0.07 -0.1,0.15 -0.1,0.24zm0.73 1.9c0.1,-0.03 0.19,-0.08 0.25,-0.15 0.07,-0.06 0.1,-0.15 0.1,-0.26 0,-0.09 -0.03,-0.17 -0.09,-0.23 -0.05,-0.06 -0.14,-0.12 -0.26,-0.18l0 0.82z"/>
 </g>
</svg>
