<?xml version="1.0" encoding="UTF-8"?>
<!DOCTYPE svg PUBLIC "-//W3C//DTD SVG 1.0//EN" "http://www.w3.org/TR/2001/REC-SVG-20010904/DTD/svg10.dtd">
<!-- Creator: CorelDRAW 2018 (64 Bit Versão de avaliação) -->
<svg xmlns="http://www.w3.org/2000/svg" xml:space="preserve" width="45px" height="41px" version="1.0" shape-rendering="geometricPrecision" text-rendering="geometricPrecision" image-rendering="optimizeQuality" fill-rule="evenodd" clip-rule="evenodd"
viewBox="0 0 1.22 1.12"
 xmlns:xlink="http://www.w3.org/1999/xlink">
 <g id="Camada_x0020_1">
  <metadata id="CorelCorpID_0Corel-Layer"/>
  <g id="_2038528751760">
   <path fill="black" d="M0.11 0.94c-0.01,0 -0.01,-0.01 -0.02,-0.01 0,0 0,0 0,-0.01 -0.01,0 0,-0.09 0,-0.1 0,-0.01 -0.01,-0.12 0,-0.13 0,-0.02 0.02,-0.04 0.04,-0.05 0.02,-0.01 0.03,-0.01 0.06,-0.01l0.56 0c0.01,0 0.05,0 0.06,0l0 0.31 -0.7 0zm0.06 -0.46c0,-0.01 0.01,-0.02 0.01,-0.03 0.01,-0.01 0.02,-0.01 0.03,-0.02 0,0 0.01,-0.01 0.02,-0.01l0.14 0c0.01,0 0.02,0.01 0.02,0.01 0.02,0.02 0.03,0.03 0.03,0.06l0 0.02c0,0 0,0 0,0.01 0,0.01 0,0.01 0,0.02l-0.25 0c0,-0.02 0,-0.04 0,-0.06zm0.91 0.55c-0.01,0 -0.02,-0.01 -0.02,-0.03 0,-0.01 0,-0.01 0,-0.02 0,-0.08 0,-0.15 0,-0.23 0,0 0,-0.01 0,-0.01l0 -0.02c0,0 0,0 0,0 0,-0.02 -0.01,-0.04 -0.02,-0.04 -0.02,-0.01 -0.03,-0.01 -0.04,0 -0.02,0.01 -0.03,0.02 -0.03,0.04 0,0.06 0,0.11 0,0.17 0,0 0,0 0,0.01l0 0.09c0,0.01 0,0.01 0,0.02 0,0.01 0,0.01 -0.01,0.02 -0.02,0.01 -0.05,0 -0.06,-0.02 0,0 0,-0.02 0,-0.03 0,0 0,0 0,-0.01l0 -0.09c0,-0.01 0,-0.03 0,-0.04 0,-0.01 0,-0.02 0,-0.02l0 -0.11c0,0 0,0 0,0 0,-0.03 0,-0.06 0,-0.08 0,0 0,-0.16 0,-0.16 0,-0.01 -0.01,-0.02 -0.02,-0.03 0,0 -0.01,-0.01 -0.02,-0.01l-0.02 0c0,0 0,0 0,0 -0.02,0 -0.04,0 -0.06,0l-0.03 0c0,0 -0.01,0 -0.01,0 -0.01,0 -0.01,0 -0.03,0 -0.03,0 -0.04,-0.02 -0.05,-0.04l-0.05 -0.08c-0.01,0 -0.01,-0.01 -0.01,-0.01 -0.01,-0.01 -0.01,-0.01 -0.01,-0.02 0,0 0.01,-0.01 0.01,-0.01 0,-0.01 0.02,-0.01 0.04,0l0 0.01c0.01,0.01 0.01,0.01 0.01,0.02l0.01 0.01c0,0 0,0 0.01,0.01 0,0.01 0.01,0.01 0.01,0.02 0,0.01 0.01,0.01 0.01,0.01 0.01,0.01 0.01,0.03 0.03,0.03 0.01,0 0.02,0 0.03,0 0,0 0,0 0,0l0.31 0c0.02,0 0.03,0.01 0.05,0.02 0,0 0,0.01 0.01,0.01 0.02,0.03 0.01,0.05 0.01,0.08l0 0.51c0,0.01 0,0.01 -0.01,0.02 0,0.01 0,0.01 0,0.01 -0.01,0 -0.01,0 -0.02,0 -0.01,0 -0.01,0.01 -0.02,0zm-0.13 -0.89c0,-0.01 0.01,-0.02 0.01,-0.02 0,-0.01 0.01,-0.02 0.01,-0.02 0.01,0 0.01,-0.01 0.02,-0.01 0.01,0 0.02,0 0.03,0 0.01,0 0.01,0 0.02,0 0.01,0.01 0.02,0.02 0.03,0.03 0.01,0.01 0.01,0.03 0,0.04 0,0.01 0,0.02 0,0.02 -0.01,0.01 -0.01,0.01 -0.01,0.01 0,0 0,0 0,0 -0.01,0.01 -0.02,0.02 -0.03,0.02 -0.01,0 -0.02,0 -0.03,0 -0.02,-0.01 -0.04,-0.02 -0.05,-0.04 0,-0.01 0,-0.02 0,-0.03zm-0.95 0.56l0 0.22 0 0.01c0.01,0.03 0.02,0.05 0.04,0.07 0,0 0.01,0.01 0.02,0.01 0.02,0.01 0.04,0.01 0.07,0.01 0.23,0 0.46,0 0.69,0 0,0.01 0,0.02 0,0.02 0.02,0.04 0.06,0.08 0.1,0.08 0,0 0,0 0,0l0 0 0.03 0c0,0 0,0 0,0 0,0 0,0 0,0 0,0 0,0 0,0 0.02,0 0.04,-0.01 0.06,-0.02l0.01 -0.01 0.01 0.01c0.03,0.02 0.09,0.03 0.12,0.01 0.01,-0.01 0.02,-0.01 0.03,-0.02 0,0 0.01,-0.01 0.01,-0.02 0,0 0.01,0 0.01,0 0.01,-0.02 0.02,-0.04 0.02,-0.06l0 -0.01c0,0 0,0 0,0l0 -0.55c0,0 0,-0.01 0,-0.02 -0.01,-0.01 -0.01,-0.03 -0.02,-0.04 0,-0.01 0,-0.01 -0.01,-0.02 0,-0.01 -0.01,-0.02 -0.02,-0.02 -0.01,-0.02 -0.02,-0.03 -0.04,-0.04 -0.02,0 -0.04,-0.01 -0.06,-0.01l-0.04 -0.01c0,0 0.01,0 0.01,0 0,0 0,0 0.01,0 0.01,0 0.01,0 0.02,-0.01l0.01 0c0.02,-0.01 0.02,-0.01 0.03,-0.02l0.01 -0.01c0,0 0,0 0,0 0,0 0.01,0 0.01,-0.01 0.01,-0.01 0.01,-0.02 0.02,-0.04 0,0 0.01,-0.01 0.01,-0.02 0,-0.01 0,-0.02 0,-0.03 0,-0.03 0,-0.04 -0.01,-0.06 0,-0.01 -0.01,-0.01 -0.01,-0.02 -0.02,-0.03 -0.04,-0.05 -0.07,-0.06 -0.01,0 -0.01,0 -0.01,0 -0.02,-0.01 -0.02,-0.01 -0.03,-0.01l0 0 -0.03 0c0,0 0,0 0,0 -0.01,0 -0.02,0 -0.03,0.01 0,0 -0.01,0 -0.01,0 -0.01,0 -0.02,0.01 -0.02,0.01 -0.01,0 -0.01,0.01 -0.01,0.01 -0.01,0.01 -0.02,0.01 -0.02,0.02 -0.02,0.01 -0.03,0.03 -0.04,0.05 -0.01,0.04 0,0.09 0.02,0.13 0,0 0.01,0.01 0.02,0.02l0.01 0.01c0.01,0.01 0.03,0.02 0.05,0.03 0.01,0 0.01,0 0.02,0 0,0 0.01,0 0.01,0l0 0c-0.07,0 -0.14,0.01 -0.22,0.01 -0.01,0 -0.02,0 -0.03,0 0,-0.01 -0.01,-0.02 -0.01,-0.02 -0.01,-0.01 -0.01,-0.02 -0.02,-0.03 0,-0.01 0,-0.01 0,-0.01 -0.01,-0.01 -0.01,-0.01 -0.02,-0.02 0,0 0,0 0,-0.01 0,0 -0.01,-0.01 -0.01,-0.01l-0.01 0c-0.03,-0.03 -0.08,-0.03 -0.11,-0.01 -0.01,0 -0.02,0.01 -0.03,0.02 0,0 -0.01,0 -0.01,0.01 0,0 0,0 0,0 -0.01,0.01 -0.01,0.02 -0.02,0.03 0,0.02 0,0.04 0,0.06 0,0.01 0,0.01 0.01,0.01 0,0 0,0.01 0,0.01 0.01,0.02 0.01,0.02 0.03,0.04l0.01 0.03c0.02,0.02 0.03,0.04 0.05,0.07 0,0 0.01,0.01 0.01,0.01 0.01,0 0.01,0 0.01,0.01 0,0 0.01,0 0.01,0.01 0.01,0 0.03,0.01 0.05,0.01 0.01,0.01 0.04,0.01 0.06,0.01 0.01,0 0.05,-0.01 0.06,0l0 0.02 -0.31 0c0,-0.01 0.01,-0.02 0.01,-0.02 0,-0.01 0,-0.02 0,-0.03l-0.01 -0.03c0,0 0,-0.01 0,-0.02 -0.01,-0.02 -0.02,-0.03 -0.03,-0.05l0 -0.01c-0.02,-0.01 -0.03,-0.02 -0.04,-0.02 -0.02,-0.01 -0.03,-0.02 -0.04,-0.02 -0.02,0 -0.08,0 -0.1,0 -0.02,0 -0.06,0 -0.08,0 -0.01,0 -0.01,0 -0.02,0.01l-0.02 0c0,0 0,0 0,0 -0.01,0.01 -0.03,0.02 -0.04,0.03 0,0.01 -0.01,0.01 -0.02,0.02 -0.03,0.05 -0.02,0.1 -0.02,0.15 0,0 0,0.01 0,0.01 -0.01,0 -0.01,0.01 -0.02,0.01 -0.01,0.01 -0.01,0.01 -0.02,0.02 -0.01,0.01 -0.01,0.01 -0.01,0.01 0,0 0,0 -0.01,0.01 -0.01,0.01 -0.02,0.04 -0.03,0.06 0,0.01 0,0.02 0,0.03 0,0 0,0 0,0z"/>
   <path fill="black" d="M0.3 0.24c-0.01,0 -0.02,-0.01 -0.03,-0.01 -0.01,0 -0.01,-0.01 -0.02,-0.01 0,-0.01 0,-0.01 0,-0.01 -0.01,-0.01 -0.01,-0.01 -0.01,-0.02 0,-0.01 -0.01,-0.01 -0.01,-0.02 0.01,-0.01 0.01,-0.03 0.02,-0.04 0.01,-0.01 0.01,-0.01 0.02,-0.01 0.01,-0.01 0.02,-0.01 0.03,-0.01 0.02,0 0.03,0.01 0.04,0.02 0.02,0.02 0.02,0.04 0.02,0.06 -0.01,0.02 -0.02,0.03 -0.03,0.04 -0.01,0 -0.01,0 -0.02,0 0,0.01 -0.01,0.01 -0.01,0.01zm-0.15 -0.07l0 0.02c0,0.01 0.01,0.04 0.02,0.06 0,0 0.01,0.01 0.01,0.02 0.01,0 0.01,0 0.01,0l0.01 0.01c0,0 0,0.01 0,0.01 0,0 0,0 0,0 0.01,0 0.02,0.01 0.03,0.02 0.01,0 0.01,0 0.02,0 0.02,0.01 0.05,0.01 0.08,0.01 0.02,-0.01 0.05,-0.02 0.07,-0.04 0,0 0,0 0,0l0.01 -0.01c0,0 0,0 0,-0.01 0.01,0 0.01,-0.01 0.02,-0.02 0,-0.01 0.01,-0.02 0.01,-0.02 0.01,-0.03 0,-0.03 0,-0.06l0 -0.01c0,-0.01 0,-0.01 0,-0.02 0,0 -0.01,-0.01 -0.01,-0.02 0,-0.01 -0.01,-0.02 -0.01,-0.02 -0.01,-0.01 -0.01,-0.02 -0.02,-0.02 -0.01,-0.01 -0.01,-0.01 -0.02,-0.02 0,0 -0.01,-0.01 -0.02,-0.01 -0.02,-0.01 -0.03,-0.01 -0.05,-0.01l-0.01 0c-0.02,0 -0.05,0 -0.06,0.01 -0.02,0.01 -0.04,0.02 -0.06,0.04 0,0 0,0 0,0.01 -0.01,0 -0.01,0 -0.01,0.01 0,0 -0.01,0.01 -0.01,0.01 0,0.01 0,0.02 -0.01,0.03 0,0.01 0,0.02 0,0.03 0,0 0,0 0,0z"/>
  </g>
 </g>
</svg>
