<?xml version="1.0" encoding="UTF-8"?>
<!DOCTYPE svg PUBLIC "-//W3C//DTD SVG 1.0//EN" "http://www.w3.org/TR/2001/REC-SVG-20010904/DTD/svg10.dtd">
<!-- Creator: CorelDRAW 2018 (64 Bit Versão de avaliação) -->
<svg xmlns="http://www.w3.org/2000/svg" xml:space="preserve" width="41px" height="41px" version="1.0" shape-rendering="geometricPrecision" text-rendering="geometricPrecision" image-rendering="optimizeQuality" fill-rule="evenodd" clip-rule="evenodd"
viewBox="0 0 0.75 0.75"
 xmlns:xlink="http://www.w3.org/1999/xlink">
 <g id="Camada_x0020_1">
  <metadata id="CorelCorpID_0Corel-Layer"/>
  <g id="_1703803245088">
   <g>
    <path fill="black" d="M0.34 0.44c0,-0.01 0.02,-0.03 0.03,-0.03l0.21 0c0.04,0 0.05,0.07 0,0.07l-0.2 0c-0.02,0 -0.04,-0.01 -0.04,-0.04zm0 -0.13c0,-0.02 0.02,-0.04 0.04,-0.04l0.2 0c0.05,0 0.04,0.07 0,0.07l-0.21 0c-0.01,0 -0.03,-0.01 -0.03,-0.03zm0 -0.14c0,-0.02 0.02,-0.03 0.03,-0.03l0.21 0c0.05,0 0.05,0.07 0,0.07l-0.21 0c-0.01,0 -0.03,-0.02 -0.03,-0.04zm-0.22 -0.16c0.02,0.01 0.04,0.02 0.06,0.04 0.02,0.03 0.03,0.05 0.03,0.09l0 0.54c0,0.01 -0.01,0.04 0,0.05 0.01,0.02 0.03,0.03 0.05,0.02l0.02 -0.02c0,0 0,0 0.01,-0.01l0.03 -0.02c0,-0.01 0.01,-0.01 0.01,-0.01 0,-0.01 0,-0.01 0.01,-0.01l0.02 -0.02 0.08 0.07c0.01,0.01 0.02,0.02 0.04,0.02 0.02,0 0.04,-0.02 0.05,-0.03l0.03 -0.03c0.01,0 0.01,0 0.01,0 0.01,-0.01 0.02,-0.02 0.03,-0.03 0,0.01 0.01,0.01 0.01,0.01 0.01,0.01 0.01,0.01 0.01,0.01l0.06 0.05c0.01,0.01 0.02,0.02 0.04,0.02 0.02,0 0.03,-0.01 0.03,-0.03l0 -0.58c0,-0.08 -0.06,-0.14 -0.13,-0.14l-0.48 0c-0.01,0 -0.02,0 -0.02,0.01z"/>
    <path fill="black" d="M0 0.13l0 0.24c0,0.03 0.02,0.04 0.04,0.04l0.1 0 0 -0.28c0,-0.06 -0.07,-0.09 -0.12,-0.05 -0.01,0.01 -0.02,0.03 -0.02,0.05z"/>
   </g>
  </g>
 </g>
</svg>
