<?xml version="1.0" encoding="UTF-8"?>
<!DOCTYPE svg PUBLIC "-//W3C//DTD SVG 1.0//EN" "http://www.w3.org/TR/2001/REC-SVG-20010904/DTD/svg10.dtd">
<!-- Creator: CorelDRAW 2018 (64 Bit Versão de avaliação) -->
<svg xmlns="http://www.w3.org/2000/svg" xml:space="preserve" width="35px" height="41px" version="1.0" shape-rendering="geometricPrecision" text-rendering="geometricPrecision" image-rendering="optimizeQuality" fill-rule="evenodd" clip-rule="evenodd"
viewBox="0 0 1.83 2.11"
 xmlns:xlink="http://www.w3.org/1999/xlink">
 <g id="Camada_x0020_1">
  <metadata id="CorelCorpID_0Corel-Layer"/>
  <path fill="black" d="M0.21 1.87l0 -1.65 1.42 0 0 1.65c-0.11,-0.01 -0.23,-0.12 -0.36,-0.09 -0.08,0.03 -0.27,0.11 -0.35,0.11 -0.09,0.01 -0.27,-0.08 -0.36,-0.11 -0.07,-0.02 -0.12,0.01 -0.18,0.03l-0.17 0.06zm1.1 -1.29c-0.11,0.03 -0.06,0.17 0.03,0.15 0.04,-0.01 0.07,-0.05 0.06,-0.1 -0.01,-0.03 -0.05,-0.06 -0.09,-0.05zm-0.01 0.41c-0.09,0.03 -0.05,0.17 0.05,0.14 0.03,-0.01 0.06,-0.05 0.05,-0.09 -0.02,-0.04 -0.05,-0.07 -0.1,-0.05zm-0.87 0.08c0.01,0.07 0.07,0.07 0.11,0.06l0.36 0c0.03,0 0.05,0 0.07,-0.01 0.01,-0.02 0.02,-0.04 0.02,-0.07 0,-0.07 -0.07,-0.07 -0.11,-0.07l-0.35 0c-0.06,0 -0.1,0.03 -0.1,0.09zm0.1 -0.49c-0.05,0 -0.1,0.01 -0.1,0.08 0.01,0.06 0.05,0.07 0.11,0.07 0.07,0 0.37,0.02 0.42,-0.02 0.02,-0.01 0.03,-0.03 0.03,-0.06 0,-0.07 -0.06,-0.07 -0.1,-0.07 -0.12,-0.01 -0.25,-0.01 -0.36,0zm-0.26 -0.58c-0.08,0.01 -0.15,0.02 -0.2,0.07 -0.01,0.01 -0.02,0.02 -0.03,0.03 -0.03,0.05 -0.04,0.1 -0.04,0.16 0,0.18 0,0.35 0,0.53l0 1.18c0,0.05 0,0.07 0.03,0.1 0.05,0.06 0.09,0.04 0.19,0.01 0.07,-0.02 0.13,-0.05 0.19,-0.07 0.11,-0.03 0.12,-0.02 0.22,0.01 0.06,0.02 0.13,0.04 0.19,0.06 0.12,0.04 0.1,0.04 0.21,0 0.06,-0.02 0.13,-0.05 0.19,-0.07 0.1,-0.03 0.11,-0.03 0.21,0 0.07,0.03 0.13,0.05 0.19,0.07 0.08,0.03 0.14,0.06 0.19,-0.01 0.03,-0.04 0.02,-0.17 0.02,-0.24 0,-0.08 0,-0.17 0,-0.26 0,-0.35 0,-0.7 0,-1.05 0,-0.08 0,-0.17 0,-0.25 0,-0.11 -0.01,-0.14 -0.07,-0.2 -0.09,-0.09 -0.3,-0.07 -0.45,-0.07 -0.26,0 -0.52,0 -0.78,0 -0.09,0 -0.18,0 -0.26,0z"/>
 </g>
</svg>
