<?xml version="1.0" encoding="UTF-8"?>
<!DOCTYPE svg PUBLIC "-//W3C//DTD SVG 1.0//EN" "http://www.w3.org/TR/2001/REC-SVG-20010904/DTD/svg10.dtd">
<!-- Creator: CorelDRAW 2018 (64 Bit Versão de avaliação) -->
<svg xmlns="http://www.w3.org/2000/svg" xml:space="preserve" width="33px" height="41px" version="1.0" shape-rendering="geometricPrecision" text-rendering="geometricPrecision" image-rendering="optimizeQuality" fill-rule="evenodd" clip-rule="evenodd"
viewBox="0 0 10.2 12.71"
 xmlns:xlink="http://www.w3.org/1999/xlink">
 <g id="Camada_x0020_1">
  <metadata id="CorelCorpID_0Corel-Layer"/>
  <path fill="black" d="M1.23 11.49c-0.02,-0.24 0,-0.62 0,-0.88l0 -6.2c0,-0.85 -0.13,-1.67 0.32,-2.33 0.07,-0.09 0.13,-0.18 0.2,-0.26 0.06,-0.07 0.14,-0.12 0.23,-0.19 0.32,-0.27 0.79,-0.43 1.34,-0.43l3.53 0c0.54,0 1.02,0.16 1.35,0.42 0.95,0.74 0.77,1.57 0.77,2.76 0,2.36 0,4.72 0,7.07 -0.22,-0.01 -0.78,-0.44 -0.98,-0.58l-0.91 -0.64c-0.32,-0.21 -0.61,-0.43 -0.93,-0.64 -0.27,-0.19 -0.6,-0.49 -1.08,-0.47 -0.42,0.02 -0.82,0.3 -1.08,0.49 -0.6,0.43 -1.25,0.86 -1.82,1.28 -0.26,0.19 -0.66,0.47 -0.94,0.6zm2.67 -3.76c0.21,0 0.55,-0.25 0.76,-0.35 0.09,-0.05 0.4,-0.23 0.43,-0.24 0.04,0 0.11,0.05 0.14,0.07l0.58 0.32c0.02,0.01 0.04,0.02 0.07,0.04 0.03,0.01 0.04,0.02 0.07,0.04 0.17,0.08 0.3,0.18 0.54,0.08 0.11,-0.05 0.2,-0.13 0.25,-0.25 0.1,-0.2 0.02,-0.38 -0.01,-0.63 -0.03,-0.15 -0.05,-0.29 -0.07,-0.43 -0.01,-0.07 -0.03,-0.15 -0.04,-0.21 -0.01,-0.09 -0.04,-0.16 0,-0.2 0.03,-0.05 0.09,-0.09 0.12,-0.13 0.03,-0.03 0.03,-0.04 0.06,-0.07 0.02,-0.02 0.04,-0.04 0.06,-0.06 0.09,-0.09 0.16,-0.16 0.25,-0.25l0.12 -0.13c0.13,-0.13 0.28,-0.25 0.3,-0.44 0.05,-0.27 -0.13,-0.51 -0.4,-0.56l-1.08 -0.17c-0.05,-0.02 -0.14,-0.25 -0.17,-0.32l-0.32 -0.69c-0.09,-0.2 -0.27,-0.3 -0.49,-0.3 -0.09,0 -0.15,0.03 -0.21,0.06 -0.16,0.08 -0.22,0.24 -0.29,0.4 -0.02,0.04 -0.03,0.06 -0.05,0.1 -0.03,0.07 -0.05,0.12 -0.09,0.19 -0.03,0.07 -0.05,0.13 -0.09,0.19l-0.13 0.28c-0.04,0.11 -0.05,0.09 -0.3,0.13l-0.72 0.11c-0.2,0.03 -0.28,0.05 -0.4,0.16 -0.08,0.09 -0.15,0.25 -0.12,0.41 0.03,0.22 0.18,0.33 0.34,0.49 0.03,0.03 0.03,0.04 0.06,0.07 0.02,0.03 0.05,0.05 0.07,0.07l0.21 0.21c0.06,0.06 0.1,0.11 0.21,0.22 0.07,0.07 0.05,0.05 0.02,0.21l-0.16 0.97c-0.03,0.21 0.02,0.35 0.16,0.48 0.08,0.07 0.2,0.13 0.32,0.13zm-1.08 -7.71c-0.74,0.08 -1.35,0.4 -1.85,0.89 -0.32,0.3 -0.6,0.74 -0.77,1.2 -0.16,0.47 -0.19,0.86 -0.19,1.39 0,2.1 0,4.21 0,6.31 0,0.52 -0.02,1.05 0,1.57 0.01,0.52 0.24,0.86 0.5,1.08 0.13,0.1 0.33,0.22 0.55,0.24 0.21,0.02 0.52,-0.01 0.69,-0.09 0.2,-0.08 0.73,-0.48 0.95,-0.63l0.93 -0.64c0.32,-0.22 0.63,-0.43 0.94,-0.65 0.59,-0.42 0.49,-0.4 0.97,-0.06 0.31,0.21 0.63,0.43 0.93,0.65 0.18,0.12 1.68,1.18 1.86,1.28 0.41,0.2 0.89,0.19 1.26,-0.03 0.32,-0.19 0.54,-0.6 0.59,-0.99 0.04,-0.34 0.01,-5.97 0.01,-6.3 0,-0.52 0,-1.05 0,-1.57 0,-0.51 -0.02,-0.97 -0.15,-1.43 -0.12,-0.38 -0.33,-0.78 -0.54,-1.03 -0.21,-0.26 -0.54,-0.56 -0.84,-0.74 -0.92,-0.55 -1.5,-0.46 -2.7,-0.46 -0.32,0 -2.89,-0.02 -3.14,0.01z"/>
 </g>
</svg>
