<?xml version="1.0" encoding="UTF-8"?>
<!DOCTYPE svg PUBLIC "-//W3C//DTD SVG 1.0//EN" "http://www.w3.org/TR/2001/REC-SVG-20010904/DTD/svg10.dtd">
<!-- Creator: CorelDRAW 2018 (64 Bit Versão de avaliação) -->
<svg xmlns="http://www.w3.org/2000/svg" xml:space="preserve" width="45px" height="41px" version="1.0" shape-rendering="geometricPrecision" text-rendering="geometricPrecision" image-rendering="optimizeQuality" fill-rule="evenodd" clip-rule="evenodd"
viewBox="0 0 1.61 1.46"
 xmlns:xlink="http://www.w3.org/1999/xlink">
 <g id="Camada_x0020_1">
  <metadata id="CorelCorpID_0Corel-Layer"/>
  <path fill="#373435" d="M0.51 0.27c-0.01,0 -0.02,0 -0.03,0.01 0,0.01 -0.05,0.05 -0.06,0.06l-0.18 0.19c-0.01,0 -0.02,0.01 -0.02,0.02 -0.02,0.01 -0.05,0.03 -0.04,0.04 0,0.01 0,0.01 0,0.01l0.13 0.14c0,0 0,0 0,0.01l0.02 0.02c0,0 0.01,0.01 0.01,0.01l0.08 0.09c0,0 0,0 0,0 0.01,0.01 0.01,0.01 0.01,0.02 0.01,0 0.01,0 0.01,0.01 0.02,0.01 0.03,0.03 0.05,0.04 0,0.01 0.01,0.02 0.02,0.02l0 -0.05c0,-0.08 0.03,-0.11 0.11,-0.11 0.09,0 0.17,0.01 0.25,0.03 0.13,0.03 0.26,0.09 0.37,0.17 0.01,0.01 0.02,0.02 0.04,0.03l0.02 0.02c0.02,0.02 0.01,0.02 0.03,0.03l0.02 0.02c0,0 0.02,0.03 0.03,0.03 0,-0.02 0,-0.03 -0.01,-0.04 0,-0.02 0,-0.03 -0.01,-0.04 -0.01,-0.03 -0.01,-0.06 -0.02,-0.08 -0.02,-0.05 -0.05,-0.1 -0.07,-0.15 -0.02,-0.02 -0.05,-0.06 -0.07,-0.09 -0.01,-0.01 0,-0.01 -0.01,-0.02 -0.02,-0.01 -0.05,-0.04 -0.06,-0.06 -0.02,-0.01 -0.04,-0.03 -0.06,-0.04 -0.02,-0.02 -0.04,-0.03 -0.06,-0.05 -0.08,-0.05 -0.21,-0.1 -0.3,-0.11 -0.02,0 -0.04,-0.01 -0.05,-0.01 -0.02,0 -0.04,0 -0.05,0 -0.04,0 -0.06,0 -0.08,-0.03 -0.03,-0.03 -0.02,-0.1 -0.02,-0.14zm0.15 0.03c0.09,0 0.19,0.03 0.27,0.06 0.02,0.01 0.03,0.01 0.04,0.02 0.04,0.02 0.07,0.03 0.11,0.05 0.11,0.07 0.13,0.1 0.21,0.18 0.01,0.01 0.02,0.02 0.03,0.03 0.02,0.02 0.03,0.04 0.05,0.07 0.1,0.14 0.14,0.31 0.19,0.48 0.01,0.06 0.03,0.11 0.04,0.17 0.01,0.04 0.01,0.06 -0.02,0.08 -0.02,0.03 -0.05,0.03 -0.08,0.01 -0.01,0 -0.02,-0.01 -0.03,-0.02 -0.02,-0.02 -0.03,-0.03 -0.06,-0.06 -0.01,-0.01 -0.01,-0.02 -0.02,-0.03 -0.04,-0.03 -0.08,-0.07 -0.12,-0.11 -0.04,-0.04 -0.06,-0.07 -0.11,-0.11 -0.06,-0.04 -0.14,-0.09 -0.21,-0.12 -0.03,-0.01 -0.06,-0.02 -0.09,-0.02 -0.06,-0.02 -0.09,-0.02 -0.15,-0.02 -0.01,0 -0.03,-0.01 -0.05,-0.01 0,0.07 0,0.14 0,0.2 0,0.04 -0.01,0.05 -0.02,0.07 -0.03,0.03 -0.08,0.03 -0.11,0 0,0 0,-0.01 -0.01,-0.01 0,-0.01 -0.01,-0.01 -0.01,-0.02 -0.02,-0.01 -0.03,-0.03 -0.05,-0.05l-0.02 -0.02c0,-0.01 -0.01,-0.01 -0.01,-0.02l-0.03 -0.04c-0.01,0 -0.01,0 -0.01,0l-0.1 -0.11c0,-0.01 0,-0.01 0,-0.01l-0.02 -0.01c0,-0.01 0,-0.01 0,-0.01 -0.01,-0.01 -0.01,-0.01 -0.01,-0.01 -0.03,-0.03 -0.06,-0.07 -0.08,-0.1 -0.01,0 -0.01,0 -0.02,-0.01 0,0 0,0 0,-0.01 0,0 0,0 -0.01,0 0,0 0,-0.01 0,-0.01l-0.1 -0.11c-0.01,-0.01 -0.02,-0.02 -0.02,-0.03 -0.01,0 -0.02,-0.01 -0.02,-0.03 -0.02,-0.02 0,-0.05 0.01,-0.07 0,-0.01 0.01,-0.01 0.01,-0.01 0,-0.01 0.01,-0.01 0.01,-0.02 0.03,-0.03 0.07,-0.06 0.1,-0.09 0.01,-0.01 0.02,-0.02 0.02,-0.03 0.07,-0.07 0.14,-0.13 0.2,-0.2l0.15 -0.14c0.01,-0.02 0.03,-0.04 0.06,-0.05 0.04,-0.01 0.07,0.01 0.09,0.06 0,0.01 0,0.02 0,0.04 0,0.07 0,0.13 0,0.2z"/>
 </g>
</svg>
