<?xml version="1.0" encoding="UTF-8"?>
<!DOCTYPE svg PUBLIC "-//W3C//DTD SVG 1.0//EN" "http://www.w3.org/TR/2001/REC-SVG-20010904/DTD/svg10.dtd">
<!-- Creator: CorelDRAW 2018 (64 Bit Versão de avaliação) -->
<svg xmlns="http://www.w3.org/2000/svg" xml:space="preserve" width="41px" height="41px" version="1.0" shape-rendering="geometricPrecision" text-rendering="geometricPrecision" image-rendering="optimizeQuality" fill-rule="evenodd" clip-rule="evenodd"
viewBox="0 0 1.33 1.33"
 xmlns:xlink="http://www.w3.org/1999/xlink">
 <g id="Camada_x0020_1">
  <metadata id="CorelCorpID_0Corel-Layer"/>
  <path fill="black" d="M0.63 0.09c0.01,-0.04 -0.01,-0.07 -0.03,-0.08 -0.02,-0.01 -0.08,-0.01 -0.11,-0.01 -0.08,0 -0.14,0 -0.21,0.02 -0.03,0.01 -0.06,0.02 -0.08,0.04 -0.05,0.03 -0.04,0.03 -0.08,0.06l-0.04 0.05c-0.02,0.02 -0.03,0.04 -0.04,0.07 -0.03,0.06 -0.04,0.11 -0.04,0.19l0 0.46c0,0.08 0,0.12 0.03,0.19 0.01,0.03 0.03,0.06 0.04,0.08 0.02,0.02 0.04,0.05 0.05,0.06 0.05,0.04 0.08,0.06 0.14,0.09 0.08,0.03 0.13,0.02 0.21,0.02l0.46 0c0.04,0 0.07,0 0.1,-0.01 0.03,-0.01 0.06,-0.02 0.09,-0.03 0.02,-0.02 0.07,-0.05 0.09,-0.08 0.01,0 0.01,-0.01 0.02,-0.01 0.02,-0.02 0.04,-0.06 0.06,-0.09 0.05,-0.11 0.04,-0.16 0.04,-0.29 0,-0.04 0.01,-0.08 -0.02,-0.1 -0.02,-0.02 -0.05,-0.03 -0.08,-0.01 -0.05,0.03 -0.03,0.11 -0.03,0.19 -0.01,0.08 -0.01,0.12 -0.05,0.18 -0.03,0.05 -0.07,0.08 -0.13,0.1 -0.06,0.03 -0.13,0.02 -0.21,0.02 -0.07,0 -0.15,0 -0.23,0 -0.05,0 -0.18,0 -0.22,0 -0.12,-0.03 -0.21,-0.12 -0.22,-0.24 -0.01,-0.04 -0.01,-0.4 -0.01,-0.46 0,-0.07 0,-0.14 0.03,-0.2 0.01,-0.03 0.03,-0.07 0.05,-0.09 0.01,0 0.01,-0.01 0.02,-0.01 0.01,-0.01 0.02,-0.02 0.03,-0.02 0.16,-0.1 0.34,0.01 0.37,-0.09zm0.25 0.26c0,-0.05 0.01,-0.15 -0.01,-0.19 -0.03,-0.04 -0.1,-0.02 -0.12,0.03 0,0.03 0,0.23 0,0.28 0,0.04 0,0.06 0.02,0.08 0.02,0.02 0.03,0.03 0.07,0.03l0.19 0c0.03,0 0.07,0 0.1,0 0.05,0 0.08,-0.08 0.04,-0.12 -0.02,-0.02 -0.05,-0.02 -0.08,-0.02 -0.03,0 -0.07,0 -0.1,0 0,-0.01 0.04,-0.04 0.04,-0.05l0.2 -0.2c0.02,-0.01 0.09,-0.08 0.1,-0.1 0.01,-0.02 0,-0.06 -0.02,-0.07 -0.02,-0.02 -0.05,-0.03 -0.07,-0.01 -0.02,0 -0.05,0.03 -0.06,0.04 -0.03,0.04 -0.06,0.07 -0.09,0.1l-0.15 0.15c-0.01,0.01 -0.04,0.04 -0.06,0.05z"/>
 </g>
</svg>
