<?xml version="1.0" encoding="UTF-8"?>
<!DOCTYPE svg PUBLIC "-//W3C//DTD SVG 1.0//EN" "http://www.w3.org/TR/2001/REC-SVG-20010904/DTD/svg10.dtd">
<!-- Creator: CorelDRAW 2018 (64 Bit Versão de avaliação) -->
<svg xmlns="http://www.w3.org/2000/svg" xml:space="preserve" width="43px" height="40px" version="1.0" shape-rendering="geometricPrecision" text-rendering="geometricPrecision" image-rendering="optimizeQuality" fill-rule="evenodd" clip-rule="evenodd"
viewBox="0 0 2.11 1.98"
 xmlns:xlink="http://www.w3.org/1999/xlink">
 <g id="Camada_x0020_1">
  <metadata id="CorelCorpID_0Corel-Layer"/>
  <path fill="black" d="M1.69 1.69l-0.13 -0.14c-0.01,0.01 -0.04,0.03 -0.05,0.04 -0.03,0.04 -0.1,0.08 -0.14,0.11 -0.08,0.03 -0.16,0.07 -0.26,0.08 -0.25,0.04 -0.46,-0.03 -0.64,-0.18 -0.02,-0.02 -0.08,-0.08 -0.1,-0.1 -0.05,-0.06 -0.08,-0.11 -0.11,-0.19 -0.11,-0.25 -0.08,-0.56 0.08,-0.78 0.24,-0.34 0.7,-0.44 1.06,-0.22 0.06,0.04 0.09,0.06 0.14,0.11 0.02,0.01 0.03,0.02 0.04,0.04 0.01,0.01 0.01,0.01 0.02,0.02l0.06 0.08c0.03,0.05 0.09,0.16 0.1,0.23 -0.04,0 -0.14,-0.01 -0.1,0.08l0.15 0.23c0.01,0.03 0.05,0.11 0.09,0.09 0.02,-0.01 0.06,-0.09 0.08,-0.12l0.11 -0.18c0.08,-0.14 -0.08,-0.09 -0.13,-0.1 -0.02,-0.14 -0.13,-0.35 -0.23,-0.45 -0.03,-0.03 -0.05,-0.06 -0.08,-0.08 -0.05,-0.04 -0.06,-0.05 -0.12,-0.09 -0.04,-0.03 -0.08,-0.06 -0.13,-0.08 -0.09,-0.04 -0.22,-0.07 -0.33,-0.09 -0.25,-0.02 -0.46,0.06 -0.65,0.18 -0.08,0.06 -0.16,0.14 -0.22,0.21 -0.05,0.07 -0.11,0.17 -0.15,0.27 -0.04,0.13 -0.05,0.22 -0.05,0.37 0,0.13 0.03,0.23 0.07,0.34 0.1,0.22 0.22,0.34 0.39,0.46 0.17,0.11 0.42,0.18 0.67,0.14 0.17,-0.02 0.32,-0.09 0.45,-0.18 0.01,-0.02 0.04,-0.03 0.05,-0.05l0.06 -0.05z"/>
 </g>
</svg>
