<?xml version="1.0" encoding="UTF-8"?>
<!DOCTYPE svg PUBLIC "-//W3C//DTD SVG 1.0//EN" "http://www.w3.org/TR/2001/REC-SVG-20010904/DTD/svg10.dtd">
<!-- Creator: CorelDRAW 2018 (64 Bit Versão de avaliação) -->
<svg xmlns="http://www.w3.org/2000/svg" xml:space="preserve" width="34px" height="41px" version="1.0" shape-rendering="geometricPrecision" text-rendering="geometricPrecision" image-rendering="optimizeQuality" fill-rule="evenodd" clip-rule="evenodd"
viewBox="0 0 0.56 0.68"
 xmlns:xlink="http://www.w3.org/1999/xlink">
 <g id="Camada_x0020_1">
  <metadata id="CorelCorpID_0Corel-Layer"/>
  <g id="_2768848545728">
   <g>
    <path fill="black" d="M0 0.52c0,0.02 0,0.04 0.01,0.05 0.02,0.04 0.06,0.05 0.1,0.05l0.19 0c0.01,0 0.01,-0.01 0.02,-0.03 0.01,0 0.01,0 0.01,-0.01 -0.01,0 -0.01,-0.01 -0.02,-0.02 -0.02,-0.06 0.01,-0.13 0.09,-0.13 0.02,0 0.04,0.01 0.06,0.02 0,0 0,0 0,0 0.01,0 0.01,0 0.01,0 0,-0.02 -0.03,-0.05 -0.05,-0.06 -0.02,-0.01 -0.05,-0.02 -0.08,-0.02l-0.18 0c-0.09,0 -0.16,0.07 -0.16,0.15z"/>
    <path fill="black" d="M0.09 0.15l0 0.01c0,0.04 0.03,0.08 0.05,0.1 0.02,0.03 0.06,0.05 0.1,0.05l0.02 0c0.07,0 0.14,-0.07 0.14,-0.15l0 -0.01c0,-0.06 -0.04,-0.11 -0.09,-0.13 -0.01,-0.01 -0.03,-0.02 -0.05,-0.02l-0.02 0c-0.06,0 -0.11,0.04 -0.13,0.09 -0.01,0.01 -0.02,0.04 -0.02,0.06z"/>
    <path fill="black" d="M0.42 0.59l-0.05 0.04c-0.01,0.01 -0.01,0.05 0.03,0.05 0.02,0 0.03,-0.02 0.05,-0.04 0,0 0.01,0 0.01,-0.01 0.02,0.01 0.04,0.05 0.06,0.05 0.03,0 0.04,-0.01 0.04,-0.03 0,-0.02 -0.04,-0.04 -0.05,-0.06 0,-0.01 0.02,-0.03 0.03,-0.03 0.01,-0.02 0.03,-0.04 0.01,-0.06 -0.01,-0.01 -0.01,-0.01 -0.02,-0.01 -0.03,0 -0.05,0.04 -0.07,0.05 -0.02,-0.02 -0.04,-0.05 -0.07,-0.05 -0.02,0 -0.03,0.03 -0.02,0.05 0.01,0.01 0.04,0.04 0.05,0.05z"/>
   </g>
  </g>
 </g>
</svg>
