<?xml version="1.0" encoding="UTF-8"?>
<!DOCTYPE svg PUBLIC "-//W3C//DTD SVG 1.0//EN" "http://www.w3.org/TR/2001/REC-SVG-20010904/DTD/svg10.dtd">
<!-- Creator: CorelDRAW 2018 (64 Bit Versão de avaliação) -->
<svg xmlns="http://www.w3.org/2000/svg" xml:space="preserve" width="41px" height="41px" version="1.0" shape-rendering="geometricPrecision" text-rendering="geometricPrecision" image-rendering="optimizeQuality" fill-rule="evenodd" clip-rule="evenodd"
viewBox="0 0 2.46 2.46"
 xmlns:xlink="http://www.w3.org/1999/xlink">
 <g id="Camada_x0020_1">
  <metadata id="CorelCorpID_0Corel-Layer"/>
  <path fill="black" d="M1.27 2.07c-0.04,0 -0.09,-0.01 -0.13,-0.01 -0.09,-0.02 -0.14,-0.04 -0.22,-0.07 -0.02,0 -0.04,-0.01 -0.06,-0.02l-0.04 -0.03 -0.08 -0.05c-0.01,-0.01 -0.02,-0.02 -0.04,-0.03l-0.03 -0.04c-0.01,0 -0.01,-0.01 -0.01,-0.01 -0.01,-0.01 -0.06,-0.05 -0.06,-0.06 -0.01,-0.01 -0.04,-0.04 -0.05,-0.05l-0.19 -0.18c-0.02,-0.02 -0.03,-0.03 -0.05,-0.05 -0.01,-0.01 -0.03,-0.03 -0.04,-0.05l-0.03 -0.02c-0.03,-0.03 -0.03,-0.06 -0.01,-0.1 0.01,0 0.01,-0.01 0.01,-0.01 0.01,-0.01 0.03,-0.02 0.05,-0.02 0.05,0 0.06,0.02 0.08,0.04 0.02,0.01 0.03,0.02 0.05,0.04l0.04 0.04c0.01,0.01 0.04,0.05 0.06,0.06 0.01,0.01 0.02,0.02 0.04,0.04 0,0 0,0 0,0l0.14 0.13c0.02,0.02 0.04,0.04 0.06,0.06l0.04 0.02c0.08,0.05 0.17,0.06 0.28,0.06 0,0 0.02,0.04 0.04,0.06l0.01 0.01c0,0.01 0.01,0.01 0.01,0.02 0,0 0.01,0 0.01,0l0.02 0.02c0.02,0.02 0.04,0.03 0.06,0.04 0.02,0.01 0.06,0.02 0.09,0.02l0.42 0c0.03,0 0.06,-0.02 0.07,-0.03 0.01,-0.01 0.01,-0.01 0.01,-0.02 0.01,0 0.01,-0.01 0.01,-0.01 0.02,-0.03 0.02,-0.08 0,-0.1 -0.01,-0.01 -0.01,-0.03 -0.02,-0.03 -0.01,-0.01 -0.01,-0.01 -0.02,-0.01 -0.01,-0.01 -0.03,-0.02 -0.05,-0.02l-0.36 0c0,0 -0.01,0 -0.01,0 -0.03,0 -0.06,-0.01 -0.08,-0.03 -0.04,-0.03 -0.03,-0.1 0.01,-0.12 0.03,-0.02 0.07,-0.02 0.11,-0.02l0.38 0c0.02,0.01 0.05,0.01 0.07,0.01 0.03,0 0.05,0 0.08,0.01 0.01,0.01 0.02,0.01 0.04,0.02 0.01,0 0.02,0.01 0.03,0.01 0.01,0.01 0.03,0.01 0.04,0.02l0.09 0.06c0.01,0.01 0.01,0.01 0.02,0.01l0.09 0.06 0 0.43c-0.01,0 -0.03,-0.01 -0.03,-0.02 -0.03,-0.02 -0.06,-0.03 -0.09,-0.05 -0.01,0 -0.01,-0.01 -0.02,-0.01 0,0 -0.01,0 -0.01,-0.01 -0.01,0 -0.02,-0.01 -0.04,-0.01 -0.02,-0.01 -0.06,0 -0.09,0l-0.7 0zm0.13 -1.1c-0.01,0.01 -0.02,0 -0.03,0 -0.02,0.01 -0.05,0 -0.07,0.02 -0.01,0.01 -0.01,0.02 -0.01,0.04 -0.01,0.02 -0.01,0.03 -0.01,0.05 0,0.04 0,0.08 0.02,0.1 0.02,0.02 0.06,0.01 0.09,0.01 0.02,0 0.04,0 0.06,0 0.07,0 0.05,-0.09 0.05,-0.13 0,-0.04 0,-0.07 -0.05,-0.08 -0.01,-0.01 -0.04,-0.01 -0.05,-0.01zm-0.44 -0.27l0 0.09c0,0.02 0,0.03 0,0.04 0.02,0.04 0.07,0.03 0.11,0.03 0.02,0 0.03,0 0.05,0 0.02,0 0.04,-0.01 0.05,-0.04 0.01,-0.03 0,-0.08 0,-0.12 0,-0.05 -0.03,-0.06 -0.08,-0.06 -0.02,0 -0.08,0 -0.09,0 -0.02,0.01 -0.04,0.03 -0.04,0.06zm0 0.33l0 0.1c0,0.01 0,0.02 0,0.03 0.01,0.03 0.04,0.03 0.07,0.03l0.02 0c0.01,0 0.02,0 0.03,0 0.04,0 0.07,0.01 0.09,-0.03 0.01,-0.03 0,-0.09 0,-0.12 0,-0.03 -0.01,-0.05 -0.03,-0.06 -0.04,-0.01 -0.08,0 -0.11,0 -0.02,0 -0.03,-0.01 -0.04,0 -0.02,0.01 -0.03,0.03 -0.03,0.05zm0.42 -0.39c-0.02,0.01 -0.06,-0.01 -0.09,0.03 0,0.01 0,0.02 0,0.04 0,0.04 -0.01,0.12 0.02,0.14 0.03,0.01 0.06,0.01 0.1,0.01 0.03,0 0.07,0.01 0.08,-0.03 0.02,-0.02 0.02,-0.07 0.01,-0.09 0,-0.03 0.01,-0.07 -0.02,-0.09 -0.02,-0.01 -0.03,-0.01 -0.05,-0.01 0,0 -0.04,0 -0.05,0zm-1.38 0.18l0 0.05c0.01,0.02 0,0.02 0.02,0.05 0.02,0.02 0.05,0.04 0.08,0.04 0.05,-0.01 0.04,0 0.08,-0.03l0.03 -0.01c0.02,-0.02 0.05,-0.04 0.08,-0.06 0.01,0 0.01,-0.01 0.02,-0.01l0.04 -0.03c0.01,0 0.02,-0.01 0.03,-0.02 0,0 0.01,0 0.01,-0.01l0.16 -0.1c0.02,-0.02 0.06,-0.04 0.09,-0.06 0.03,-0.02 0.07,-0.05 0.11,-0.07l0.17 -0.11c0.01,-0.01 0.02,-0.02 0.03,-0.02l0.26 -0.17c0.01,-0.01 0.02,-0.02 0.03,-0.01 0.01,0 0.02,0.01 0.03,0.01l0.04 0.03c0.01,0.01 0.01,0.01 0.02,0.01l0.07 0.05c0,0 0.01,0.01 0.01,0.01l0.13 0.08c0.02,0.02 0.07,0.05 0.09,0.06l0.04 0.03c0.02,0.01 0.04,0.02 0.07,0.02 0.01,0 0.03,0 0.04,-0.01 0.03,-0.01 0.06,-0.04 0.06,-0.07l0.01 -0.16c0.01,0 0.06,0 0.08,0 0,0 0.07,0 0.08,0 0,0.24 0,0.49 0,0.73 0,0.03 0,0.06 0,0.09 0,0.05 0.05,0.1 0.09,0.1 0.03,0 0.05,0 0.08,-0.02 0.01,-0.01 0.03,-0.03 0.04,-0.05 0.01,-0.02 0.01,-0.05 0.01,-0.08 0,-0.06 0,-0.12 0,-0.18 0,0 0,0 0,0 0.01,0 0.01,0 0.01,0 0.01,0.01 0.03,0.03 0.05,0.03 0.02,0.01 0.04,0.03 0.07,0.03 0.04,0 0.08,-0.04 0.1,-0.07 0,-0.01 0,-0.02 0,-0.02l0 -0.04c0,-0.01 0,-0.02 0,-0.02 -0.01,-0.03 -0.03,-0.05 -0.05,-0.06l-0.05 -0.03c-0.02,-0.02 -0.04,-0.03 -0.07,-0.04 0,-0.01 0,-0.01 -0.01,-0.01l-0.05 -0.04c0,-0.01 0,-0.39 0,-0.44 0,-0.05 -0.05,-0.1 -0.1,-0.1l-0.37 0c-0.04,0 -0.05,0 -0.09,0.02 -0.01,0.01 -0.01,0.01 -0.02,0.03 -0.03,0.02 -0.02,0.06 -0.02,0.1 -0.01,-0.01 -0.07,-0.04 -0.07,-0.05l-0.27 -0.18c-0.02,0 -0.03,-0.01 -0.04,-0.01l-0.03 0c0,0 -0.03,0 -0.03,0.01 -0.01,0 -0.01,0 -0.02,0.01l-0.2 0.13c-0.01,0 -0.01,0 -0.01,0.01l-0.04 0.02c0,0 -0.01,0.01 -0.01,0.01l-0.27 0.18c-0.04,0.02 -0.09,0.05 -0.12,0.08l-0.04 0.02c-0.01,0 -0.01,0.01 -0.01,0.01 -0.01,0 -0.01,0 -0.01,0.01l-0.12 0.07c-0.02,0.01 -0.07,0.05 -0.09,0.06l-0.19 0.12c-0.06,0.05 -0.06,0.07 -0.06,0.08zm0 0.49l0 0.06c0,0 0,0.02 0,0.02 0.01,0.03 0.01,0.05 0.02,0.07 0,0.01 0.01,0.02 0.02,0.03 0.03,0.05 0.03,0.05 0.07,0.09 0,0.01 0,0.01 0,0.01 0.01,0 0.01,0.01 0.01,0.01 0.01,0.01 0.01,0 0.01,0.01 0.01,0 0.01,0.01 0.02,0.01 0.01,0.02 0.03,0.03 0.04,0.04 0.11,0.11 0.22,0.22 0.33,0.32 0,0 0,0.01 0,0.01l0.04 0.03c0,0 0,0 0.01,0.01 0,0 0,0 0,0 0.03,0.03 0.05,0.04 0.08,0.06 0,0 0,0 0.01,0.01l0.02 0.01c0.04,0.03 0.06,0.04 0.1,0.06 0.06,0.03 0.11,0.05 0.17,0.07 0.07,0.02 0.18,0.04 0.26,0.04 0.01,0 0.01,0 0.02,0 0.18,0 0.36,0 0.54,0l0.1 0c0.02,0 0.12,0 0.13,0.01l0.04 0.02c0,0 0.01,0 0.02,0l0.05 0.03c0.02,0.02 0.05,0.03 0.07,0.05l0.08 0.04c0.02,0.01 0.04,0.02 0.06,0.03 0,0 0.01,0 0.01,0l0.05 0 0.02 0c0,0 0.01,0 0.01,-0.01 0.02,-0.01 0.04,-0.04 0.05,-0.06 0,0 0,-0.01 0,-0.01l0 -0.72c0,-0.01 0,-0.02 0,-0.03l-0.02 -0.02 -0.03 -0.02c-0.01,-0.02 -0.04,-0.04 -0.06,-0.05 -0.01,0 -0.01,0 -0.01,0 0,-0.01 -0.01,-0.01 -0.01,-0.01l-0.12 -0.08c-0.01,0 -0.01,-0.01 -0.02,-0.01l-0.04 -0.02c0,-0.01 -0.01,-0.01 -0.01,-0.01l-0.03 -0.01c-0.05,-0.03 -0.12,-0.06 -0.18,-0.07 -0.04,0 -0.07,0 -0.11,-0.01 -0.02,0 -0.04,0 -0.06,0l-0.43 0c-0.08,0 -0.16,0.05 -0.21,0.1 -0.01,0.02 -0.01,0.02 -0.02,0.03 -0.01,0.02 -0.04,0.07 -0.04,0.09l-0.01 0c-0.03,0 -0.06,0 -0.09,-0.01 -0.03,-0.01 -0.04,-0.02 -0.06,-0.03 -0.01,-0.01 -0.03,-0.02 -0.04,-0.03l-0.08 -0.08c-0.03,-0.02 -0.06,-0.06 -0.09,-0.08 0,0 -0.01,-0.01 -0.01,-0.01 -0.01,-0.01 -0.02,-0.02 -0.03,-0.03l-0.12 -0.11c-0.02,-0.03 -0.03,-0.04 -0.06,-0.06 -0.03,-0.02 -0.07,-0.04 -0.12,-0.05 -0.02,0 -0.03,0 -0.05,0 -0.04,-0.01 -0.09,0.01 -0.12,0.02 -0.01,0 -0.03,0.02 -0.04,0.03 -0.02,0.01 -0.02,0.01 -0.04,0.02 -0.01,0.01 -0.03,0.03 -0.04,0.04 -0.01,0.01 -0.02,0.03 -0.03,0.04 0,0.01 0,0.02 -0.01,0.02 -0.01,0.02 -0.01,0.05 -0.02,0.07l0 0.02z"/>
 </g>
</svg>
