<?xml version="1.0" encoding="UTF-8"?>
<!DOCTYPE svg PUBLIC "-//W3C//DTD SVG 1.0//EN" "http://www.w3.org/TR/2001/REC-SVG-20010904/DTD/svg10.dtd">
<!-- Creator: CorelDRAW 2018 (64 Bit Versão de avaliação) -->
<svg xmlns="http://www.w3.org/2000/svg" xml:space="preserve" width="41px" height="41px" version="1.0" shape-rendering="geometricPrecision" text-rendering="geometricPrecision" image-rendering="optimizeQuality" fill-rule="evenodd" clip-rule="evenodd"
viewBox="0 0 0.75 0.74"
 xmlns:xlink="http://www.w3.org/1999/xlink">
 <g id="Camada_x0020_1">
  <metadata id="CorelCorpID_0Corel-Layer"/>
  <path fill="black" d="M0.38 0.55c-0.02,0.01 -0.03,0.02 -0.02,0.04 0.01,0.01 0.02,0.02 0.04,0.01 0.03,-0.01 0.02,-0.06 -0.02,-0.05zm-0.2 -0.43c0,-0.02 0.02,-0.05 0.04,-0.06 0.02,0 0.13,0 0.16,0 0.02,0 0.02,0 0.04,0.01 0.05,0.02 0.06,-0.02 0.05,-0.03 -0.03,-0.05 -0.11,-0.04 -0.18,-0.04 -0.03,0 -0.07,0 -0.09,0.01 -0.05,0.02 -0.06,0.06 -0.09,0.12 -0.01,0.02 -0.04,0.05 -0.04,0.06 -0.01,0.02 -0.01,0.07 -0.01,0.1 0.01,0.03 0.05,0.02 0.06,-0.01 0.01,-0.03 -0.01,-0.06 0.02,-0.08 0.02,-0.02 0.05,-0.02 0.08,-0.02 0.02,0 0.04,0 0.05,0 0.01,-0.01 0.01,-0.03 0,-0.04 -0.01,-0.02 -0.06,-0.02 -0.09,-0.02zm-0.02 0.14c0.01,0.04 0.06,0.02 0.05,-0.02 -0.01,-0.03 -0.06,-0.02 -0.05,0.02zm0.45 0.25c0.01,0.03 0,0.05 0.06,0.05 0.04,-0.01 0.08,0 0.08,-0.04 0,-0.03 0,-0.07 0,-0.1 0,-0.04 0,-0.08 -0.01,-0.1 -0.01,-0.03 -0.03,-0.05 -0.04,-0.07 -0.02,-0.04 -0.05,-0.1 -0.09,-0.12 -0.03,-0.01 -0.07,-0.01 -0.1,-0.01 -0.04,0 -0.07,0 -0.11,0 -0.03,0.01 -0.05,0.03 -0.07,0.04 -0.01,0.02 -0.06,0.08 -0.02,0.11 0.03,0.02 0.05,-0.06 0.08,-0.08 0.02,-0.01 0.06,-0.01 0.09,-0.01 0.02,0 0.09,0 0.1,0.01 0.02,0.01 0.04,0.03 0.05,0.06 -0.02,0 -0.16,0 -0.19,0 -0.01,0 -0.03,0 -0.04,0.01 0,0 -0.01,0.02 0,0.03 0.01,0.02 0.05,0.02 0.07,0.02 0.05,0 0.13,-0.01 0.18,0 0.05,0.01 0.04,0.09 0.04,0.14 -0.03,0 -0.12,0 -0.13,0 -0.01,0.01 -0.02,0.04 0,0.05 0.01,0.01 0.03,0.01 0.05,0.01zm0 -0.16c-0.04,0.01 -0.02,0.07 0.02,0.06 0.03,-0.01 0.03,-0.07 -0.02,-0.06zm-0.55 0.29c0,-0.05 -0.01,-0.12 0.04,-0.13 0.02,0 0.13,0 0.16,0 0.03,0 0.14,0 0.16,0 0.05,0.01 0.03,0.08 0.03,0.13 -0.02,0 -0.04,0 -0.06,0 -0.03,0 -0.04,0.01 -0.05,-0.01 -0.03,-0.04 -0.01,-0.04 -0.08,-0.04 -0.02,0 -0.05,0 -0.06,0.01 -0.01,0.01 -0.02,0.02 -0.03,0.03 -0.01,0.02 -0.03,0.01 -0.05,0.01 -0.02,0 -0.04,0 -0.06,0zm0.06 -0.19c0.01,-0.03 0.03,-0.05 0.05,-0.06 0.01,-0.01 0.07,0 0.09,0 0.07,0 0.11,-0.02 0.14,0.06l-0.28 0zm0.26 0.25c0,0.05 0.02,0.04 0.06,0.04 0.01,0 0.04,0.01 0.05,0 0.02,0 0.02,-0.02 0.02,-0.03 0,-0.04 0,-0.07 0,-0.11 0,-0.11 0,-0.07 -0.03,-0.12l-0.04 -0.07c0,-0.01 -0.01,-0.03 -0.02,-0.04 -0.04,-0.05 -0.1,-0.04 -0.17,-0.04 -0.02,0 -0.07,-0.01 -0.1,0 -0.05,0.02 -0.06,0.05 -0.08,0.08 -0.01,0.01 -0.01,0.03 -0.02,0.04 0,0.01 -0.01,0.02 -0.02,0.03 0,0.01 -0.01,0.02 -0.02,0.03 -0.01,0.03 -0.01,0.07 -0.01,0.1 0,0.14 -0.01,0.13 0.08,0.13 0.04,0 0.06,0.01 0.06,-0.04l0.24 0zm-0.26 -0.15c-0.04,0.01 -0.02,0.07 0.02,0.05 0.03,-0.01 0.02,-0.06 -0.02,-0.05z"/>
 </g>
</svg>
