<?xml version="1.0" encoding="UTF-8"?>
<!DOCTYPE svg PUBLIC "-//W3C//DTD SVG 1.0//EN" "http://www.w3.org/TR/2001/REC-SVG-20010904/DTD/svg10.dtd">
<!-- Creator: CorelDRAW 2018 (64 Bit Versão de avaliação) -->
<svg xmlns="http://www.w3.org/2000/svg" xml:space="preserve" width="25px" height="41px" version="1.0" shape-rendering="geometricPrecision" text-rendering="geometricPrecision" image-rendering="optimizeQuality" fill-rule="evenodd" clip-rule="evenodd"
viewBox="0 0 5.35 8.97"
 xmlns:xlink="http://www.w3.org/1999/xlink">
 <g id="Camada_x0020_1">
  <metadata id="CorelCorpID_0Corel-Layer"/>
  <path fill="#292929" d="M4.52 8.33c0.13,0 0.19,-0.09 0.19,-0.22 0,-0.16 -0.52,-0.58 -0.65,-0.73 -0.49,-0.55 -0.71,-0.56 -0.71,-1.09 -0.06,0.04 -0.15,0.18 -0.22,0.25 -0.27,0.28 -0.13,0.36 0.1,0.58l0.73 0.77c0.11,0.14 0.37,0.44 0.56,0.44zm-3.71 0.64l0.14 0c0.2,-0.02 0.4,-0.1 0.54,-0.27l0.85 -1.12c0.05,-0.06 0.14,-0.15 0.16,-0.23 0.1,0.03 0.08,0.08 0.23,0.22 0.07,0.08 0.13,0.14 0.21,0.22l0.88 0.87c0.29,0.29 0.39,0.31 0.73,0.31l0.01 0c0.41,0 0.74,-0.35 0.79,-0.75l0 -0.21c-0.03,-0.19 -0.11,-0.38 -0.28,-0.54l-0.79 -0.79c-0.22,-0.22 -0.29,-0.21 -0.29,-0.49 0.27,0.02 0.46,0.09 0.82,-0.21 0.49,-0.42 0.07,-1.26 -0.09,-1.72 -0.09,-0.29 -0.17,-0.51 -0.33,-0.74 -0.17,-0.26 -0.34,-0.37 -0.51,-0.54l-0.74 -0.66c-0.15,-0.12 -0.27,-0.16 -0.53,-0.16 0.03,-0.02 0,0 0.05,-0.03l0.21 -0.14c0.33,-0.25 0.43,-0.54 0.43,-0.95 0,-0.31 -0.15,-0.54 -0.3,-0.71 -0.27,-0.31 -0.57,-0.33 -0.92,-0.33l-0.01 0c-0.48,0 -1.05,0.52 -0.98,1.19 0.06,0.61 0.5,1.04 1.14,1.04 -0.19,0.17 -0.35,0.27 -0.4,0.66 -0.02,0.16 -0.07,0.27 -0.13,0.4 -0.21,0.48 -0.06,0.33 -0.48,0.58 -0.11,0.07 -0.23,0.13 -0.32,0.21 -0.84,0.66 -0.19,1.42 0.34,1.42 0.45,0 0.4,-0.15 0.64,-0.21l-1.49 2.01c-0.26,0.34 -0.39,0.48 -0.39,0.88 0,0.46 0.4,0.76 0.81,0.79zm1.21 -4.37c-0.03,-0.12 -0.05,-0.25 -0.05,-0.4 -0.11,0.01 -0.33,0.19 -0.44,0.25 -0.18,0.11 -0.37,0.17 -0.37,0.32 0,0.33 0.66,-0.39 0.86,-0.17zm0.71 0.45c0,0.24 -0.08,0.29 -0.2,0.46 -0.09,0.14 -0.18,0.24 -0.28,0.37 -0.38,0.52 -1.02,1.34 -1.36,1.84 -0.1,0.14 -0.25,0.27 -0.25,0.39 0,0.12 0.1,0.22 0.22,0.22 0.18,0 0.41,-0.4 0.57,-0.61 0.18,-0.24 0.34,-0.45 0.51,-0.68l0.77 -1.02c0.37,-0.48 0.68,-0.18 0.69,0.05 0.08,-0.05 0.05,-0.07 0.17,-0.09 -0.02,-0.08 -0.16,-0.21 -0.25,-0.45 -0.07,-0.22 -0.25,-0.88 -0.35,-1.02 -0.04,-0.07 -0.1,-0.12 -0.17,-0.17 -0.07,-0.05 -0.11,-0.12 -0.19,-0.16 0.04,0.16 0.12,0.7 0.12,0.87zm-0.19 -1.42c0.28,-0.19 0.43,-0.04 0.66,0.2 0.09,0.09 0.18,0.16 0.27,0.26 0.25,0.27 0.42,1.35 0.62,1.46 0.08,0.04 0.31,0.04 0.31,-0.16 0,-0.21 -0.18,-0.56 -0.26,-0.81 -0.25,-0.79 -0.21,-0.62 -0.89,-1.3 -0.1,-0.1 -0.18,-0.16 -0.28,-0.26 -0.14,-0.13 -0.18,-0.22 -0.38,-0.22 -0.22,0 -0.07,0.74 -0.05,0.83zm0.12 -2.49c0,-0.67 -0.92,-0.68 -0.92,0 0,0.57 0.92,0.56 0.92,0z"/>
 </g>
</svg>
