<?xml version="1.0" encoding="UTF-8"?>
<!DOCTYPE svg PUBLIC "-//W3C//DTD SVG 1.0//EN" "http://www.w3.org/TR/2001/REC-SVG-20010904/DTD/svg10.dtd">
<!-- Creator: CorelDRAW 2018 (64 Bit Versão de avaliação) -->
<svg xmlns="http://www.w3.org/2000/svg" xml:space="preserve" width="33px" height="41px" version="1.0" shape-rendering="geometricPrecision" text-rendering="geometricPrecision" image-rendering="optimizeQuality" fill-rule="evenodd" clip-rule="evenodd"
viewBox="0 0 0.76 0.93"
 xmlns:xlink="http://www.w3.org/1999/xlink">
 <g id="Camada_x0020_1">
  <metadata id="CorelCorpID_0Corel-Layer"/>
  <path fill="black" d="M0.17 0.25c-0.1,0 -0.11,-0.12 -0.04,-0.16 0.09,-0.04 0.17,0.09 0.09,0.15 -0.01,0 -0.03,0.01 -0.05,0.01zm-0.17 -0.09c0,0.06 0.01,0.09 0.05,0.13 0.05,0.05 0.12,0.06 0.18,0.04 0.03,-0.02 0.06,-0.04 0.08,-0.07 0.01,-0.01 0.02,-0.03 0.02,-0.05 0.08,0 0.15,0 0.22,0 0.02,0 0.04,0 0.05,0.01 0.08,0.02 0.1,0.13 0.04,0.18 -0.03,0.02 -0.05,0.02 -0.1,0.02 -0.04,0 -0.34,0 -0.36,0 -0.04,0.01 -0.05,0.01 -0.09,0.03 -0.01,0.01 -0.02,0.02 -0.03,0.03 -0.03,0.03 -0.06,0.07 -0.06,0.12 0,0.07 0.02,0.11 0.06,0.16 0.02,0.01 0.05,0.03 0.07,0.03 0.03,0.01 0.05,0.01 0.09,0.01 0.13,0 0.26,0 0.4,0 -0.02,0.02 -0.07,0.05 -0.07,0.09 0,0.03 0.04,0.05 0.07,0.03l0.02 -0.02c0.01,-0.01 0.02,-0.02 0.02,-0.02l0.07 -0.06c0.02,-0.03 0.03,-0.03 0.03,-0.07 0,-0.01 -0.01,-0.02 -0.01,-0.03 -0.01,-0.01 -0.06,-0.05 -0.07,-0.07l-0.06 -0.05c-0.01,-0.01 -0.01,-0.01 -0.03,-0.01 -0.02,0 -0.04,0.02 -0.04,0.05 0,0.02 0.02,0.03 0.03,0.04 0.01,0.01 0.03,0.03 0.04,0.04 -0.11,0 -0.21,0 -0.32,0 -0.05,0 -0.11,0 -0.15,-0.01 -0.07,-0.03 -0.09,-0.13 -0.03,-0.18 0.03,-0.02 0.05,-0.02 0.1,-0.02 0.04,0 0.34,0 0.36,0 0,0 0.02,0 0.02,-0.01 0.01,0 0.02,0 0.03,0 0.07,-0.02 0.13,-0.1 0.13,-0.17 0,-0.04 0,-0.05 -0.01,-0.08 -0.02,-0.06 -0.07,-0.1 -0.12,-0.11 -0.04,-0.02 -0.09,-0.01 -0.15,-0.01 -0.05,0 -0.1,0 -0.15,0 -0.02,-0.11 -0.16,-0.17 -0.26,-0.1 -0.04,0.03 -0.07,0.08 -0.07,0.13z"/>
 </g>
</svg>
