<?xml version="1.0" encoding="UTF-8"?>
<!DOCTYPE svg PUBLIC "-//W3C//DTD SVG 1.0//EN" "http://www.w3.org/TR/2001/REC-SVG-20010904/DTD/svg10.dtd">
<!-- Creator: CorelDRAW 2018 (64 Bit Versão de avaliação) -->
<svg xmlns="http://www.w3.org/2000/svg" xml:space="preserve" width="45px" height="41px" version="1.0" shape-rendering="geometricPrecision" text-rendering="geometricPrecision" image-rendering="optimizeQuality" fill-rule="evenodd" clip-rule="evenodd"
viewBox="0 0 1.6 1.47"
 xmlns:xlink="http://www.w3.org/1999/xlink">
 <g id="Camada_x0020_1">
  <metadata id="CorelCorpID_0Corel-Layer"/>
  <g id="_2113187423936">
   <g>
    <path fill="#292929" d="M1.44 1.35l-1.27 0c-0.02,0 -0.05,-0.02 -0.05,-0.04l0 -1.15c0,-0.02 0.02,-0.04 0.05,-0.04l1.26 0c0.04,0 0.05,0.02 0.05,0.05l0 1.12c0,0.03 -0.01,0.06 -0.04,0.06zm-1.44 -1.19l0 1.16c0,0.04 0.03,0.09 0.05,0.11 0.03,0.02 0.07,0.04 0.12,0.04l1.26 0c0.09,0 0.17,-0.07 0.17,-0.15l0 -1.17c0,-0.08 -0.08,-0.15 -0.17,-0.15l-1.26 0c-0.09,0 -0.17,0.07 -0.17,0.16z"/>
    <path fill="#292929" d="M0.33 0.33l0.95 0 0 0.81 -0.95 0 0 -0.14c0.08,0 0.15,0.02 0.15,-0.06 0,-0.08 -0.11,-0.06 -0.15,-0.06l0 -0.29c0.1,0 0.15,0.01 0.15,-0.07 0,-0.07 -0.09,-0.05 -0.15,-0.05l0 -0.14zm-0.13 -0.03l0 0.88c0,0.05 0.02,0.08 0.07,0.08l1.06 0c0.04,0 0.07,-0.03 0.07,-0.07l0 -0.91c0,-0.04 -0.02,-0.07 -0.07,-0.07l-1.06 0c-0.05,0 -0.07,0.04 -0.07,0.09z"/>
    <path fill="#292929" d="M0.79 0.73c0,-0.04 0.05,-0.09 0.08,-0.09l0.03 0c0.11,0 0.11,0.19 0,0.19 -0.03,0 -0.06,0 -0.08,-0.03 -0.02,-0.02 -0.03,-0.05 -0.03,-0.07zm-0.17 -0.21c0,0.04 0.07,0.1 0.08,0.11 -0.04,0.07 -0.04,0.14 0,0.21 -0.02,0.01 -0.04,0.03 -0.05,0.04 -0.07,0.08 -0.01,0.12 0.04,0.12 0.03,0 0.07,-0.06 0.09,-0.07 0.05,0.01 0.04,0.02 0.13,0.02 0.04,0 0.05,-0.02 0.08,-0.02 0.04,0.02 0.05,0.07 0.11,0.07 0.04,0 0.07,-0.05 0.05,-0.08 -0.01,-0.03 -0.06,-0.06 -0.07,-0.08 0.04,-0.08 0.03,-0.14 0,-0.21 0.02,-0.01 0.08,-0.07 0.08,-0.1 0,-0.04 -0.06,-0.1 -0.12,-0.03 -0.02,0.01 -0.03,0.03 -0.05,0.04 -0.05,-0.01 -0.02,-0.02 -0.12,-0.02 -0.04,0 -0.06,0.02 -0.09,0.02 -0.03,-0.02 -0.05,-0.07 -0.1,-0.07 -0.03,0 -0.06,0.03 -0.06,0.05z"/>
   </g>
  </g>
 </g>
</svg>
