<?xml version="1.0" encoding="UTF-8"?>
<!DOCTYPE svg PUBLIC "-//W3C//DTD SVG 1.0//EN" "http://www.w3.org/TR/2001/REC-SVG-20010904/DTD/svg10.dtd">
<!-- Creator: CorelDRAW 2018 (64 Bit Versão de avaliação) -->
<svg xmlns="http://www.w3.org/2000/svg" xml:space="preserve" width="33px" height="41px" version="1.0" shape-rendering="geometricPrecision" text-rendering="geometricPrecision" image-rendering="optimizeQuality" fill-rule="evenodd" clip-rule="evenodd"
viewBox="0 0 3.83 4.77"
 xmlns:xlink="http://www.w3.org/1999/xlink">
 <g id="Camada_x0020_1">
  <metadata id="CorelCorpID_0Corel-Layer"/>
  <path fill="black" d="M0.46 4.32c-0.01,-0.1 0,-0.24 0,-0.34l0 -2.32c0,-0.32 -0.05,-0.63 0.12,-0.88 0.03,-0.03 0.05,-0.06 0.08,-0.09 0.02,-0.03 0.05,-0.05 0.08,-0.08 0.12,-0.1 0.3,-0.16 0.51,-0.16l1.32 0c0.2,0 0.39,0.06 0.51,0.16 0.35,0.28 0.29,0.59 0.29,1.03 0,0.89 0,1.78 0,2.66 -0.08,0 -0.29,-0.17 -0.37,-0.22l-0.34 -0.24c-0.12,-0.08 -0.23,-0.16 -0.35,-0.24 -0.1,-0.07 -0.23,-0.18 -0.41,-0.17 -0.15,0 -0.3,0.11 -0.4,0.18 -0.23,0.16 -0.47,0.32 -0.69,0.48 -0.09,0.07 -0.24,0.18 -0.35,0.23zm0.6 -4.31c-0.28,0.03 -0.51,0.15 -0.7,0.33 -0.12,0.12 -0.22,0.28 -0.28,0.45 -0.07,0.18 -0.08,0.32 -0.08,0.53 0,0.78 0,1.57 0,2.36 0,0.2 0,0.4 0,0.59 0.01,0.2 0.09,0.33 0.19,0.41 0.05,0.04 0.12,0.08 0.21,0.09 0.08,0.01 0.19,0 0.26,-0.03 0.07,-0.03 0.27,-0.19 0.36,-0.24l0.34 -0.24c0.12,-0.08 0.24,-0.16 0.35,-0.25 0.23,-0.15 0.19,-0.15 0.37,-0.02 0.12,0.08 0.24,0.16 0.35,0.25 0.07,0.04 0.63,0.44 0.7,0.48 0.15,0.07 0.33,0.07 0.47,-0.01 0.12,-0.07 0.2,-0.23 0.22,-0.38 0.02,-0.12 0.01,-2.24 0.01,-2.36 0,-0.2 0,-0.39 0,-0.59 0,-0.19 -0.01,-0.36 -0.06,-0.54 -0.04,-0.14 -0.12,-0.29 -0.2,-0.39 -0.08,-0.09 -0.21,-0.21 -0.32,-0.27 -0.34,-0.21 -0.56,-0.18 -1.01,-0.18 -0.12,0 -1.09,0 -1.18,0.01z"/>
 </g>
</svg>
