<?xml version="1.0" encoding="UTF-8"?>
<!DOCTYPE svg PUBLIC "-//W3C//DTD SVG 1.0//EN" "http://www.w3.org/TR/2001/REC-SVG-20010904/DTD/svg10.dtd">
<!-- Creator: CorelDRAW 2018 (64 Bit Versão de avaliação) -->
<svg xmlns="http://www.w3.org/2000/svg" xml:space="preserve" width="41px" height="41px" version="1.0" shape-rendering="geometricPrecision" text-rendering="geometricPrecision" image-rendering="optimizeQuality" fill-rule="evenodd" clip-rule="evenodd"
viewBox="0 0 17.06 17.06"
 xmlns:xlink="http://www.w3.org/1999/xlink">
 <g id="Camada_x0020_1">
  <metadata id="CorelCorpID_0Corel-Layer"/>
  <path fill="black" d="M10.21 2.94c-0.04,-0.03 -0.4,-0.3 -0.44,-0.33 -1.51,-1.02 -3.52,-1.19 -5.18,-0.35 -0.69,0.34 -1.28,0.8 -1.74,1.39 -0.29,0.36 -0.52,0.73 -0.71,1.16 -0.34,0.8 -0.52,1.74 -0.39,2.64 0.25,1.8 1.21,3.21 2.84,4.03 0.94,0.47 1.52,0.52 2.54,0.52 0.74,0 1.51,-0.27 2.03,-0.51l0.78 -0.49c0.25,-0.18 0.43,-0.36 0.65,-0.58 0.41,-0.41 0.76,-0.96 1,-1.5 0.25,-0.57 0.42,-1.28 0.42,-2.05 0,-0.79 -0.17,-1.5 -0.43,-2.08 -0.26,-0.58 -0.78,-1.37 -1.29,-1.78 -0.01,-0.01 -0.05,-0.05 -0.07,-0.06l1 -1.4c0,-0.01 0.02,0.01 0.02,0.02 0.67,0.51 1.12,1.1 1.57,1.85 1.05,1.73 1.2,4.03 0.46,5.92 -0.19,0.5 -0.61,1.3 -0.97,1.73 0.11,0.16 3.87,3.88 4.31,4.32 0.18,0.18 0.45,0.4 0.45,0.74 0,0.56 -0.31,0.93 -0.83,0.93 -0.44,0 -0.57,-0.18 -0.86,-0.47 -0.44,-0.44 -4.14,-4.18 -4.3,-4.29l-0.61 0.43c-1.62,1.04 -4.08,1.33 -5.9,0.61 -1.4,-0.55 -1.99,-1.02 -2.94,-2.03 -0.4,-0.44 -0.71,-0.99 -0.98,-1.52 -0.5,-1 -0.64,-1.98 -0.64,-3.19 0,-1.26 0.49,-2.53 1.11,-3.49 0.07,-0.1 0.09,-0.15 0.16,-0.24 0.25,-0.33 0.46,-0.59 0.75,-0.88 1.21,-1.21 2.87,-1.9 4.55,-1.99l0.73 0c0.85,0.05 1.69,0.25 2.47,0.63 0.46,0.23 0.87,0.48 1.24,0.76 0.02,0.01 0.13,0.08 0.18,0.12 0.01,0.02 0.03,0.03 0.03,0.03l-1.01 1.4z"/>
 </g>
</svg>
