<?xml version="1.0" encoding="UTF-8"?>
<!DOCTYPE svg PUBLIC "-//W3C//DTD SVG 1.0//EN" "http://www.w3.org/TR/2001/REC-SVG-20010904/DTD/svg10.dtd">
<!-- Creator: CorelDRAW 2018 (64 Bit Versão de avaliação) -->
<svg xmlns="http://www.w3.org/2000/svg" xml:space="preserve" width="35px" height="41px" version="1.0" shape-rendering="geometricPrecision" text-rendering="geometricPrecision" image-rendering="optimizeQuality" fill-rule="evenodd" clip-rule="evenodd"
viewBox="0 0 0.54 0.64"
 xmlns:xlink="http://www.w3.org/1999/xlink">
 <g id="Camada_x0020_1">
  <metadata id="CorelCorpID_0Corel-Layer"/>
  <g id="_2339877010720">
   <g>
    <path fill="black" d="M0.05 0.25l0 -0.1c0,-0.01 0,-0.01 0.01,-0.01l0.21 -0.09 0.14 0.06c0.01,0 0.02,0.01 0.03,0.01l0.05 0.02c0,0 0,0 0,0.01 0,0.08 0.01,0.14 -0.01,0.22 -0.01,0.02 -0.03,0.05 -0.04,0.07 0,0.01 -0.01,0.02 -0.01,0.02l-0.04 0.05c-0.01,0.01 -0.04,0.03 -0.05,0.04 -0.01,0.01 -0.06,0.04 -0.07,0.04 0,0 -0.02,-0.01 -0.02,-0.01 -0.01,0 -0.01,0 -0.01,-0.01 -0.02,-0.01 -0.05,-0.03 -0.06,-0.04 -0.01,0 -0.01,-0.01 -0.01,-0.01l-0.02 -0.01c0,0 0,0 0,0 -0.03,-0.04 -0.04,-0.04 -0.06,-0.09 -0.03,-0.05 -0.04,-0.11 -0.04,-0.17zm-0.05 -0.12l0 0.13c0,0.03 0,0.06 0.01,0.08 0,0.01 0,0.02 0.01,0.03 0,0.01 0,0.02 0.01,0.03 0.02,0.06 0.04,0.08 0.07,0.13l0.06 0.06 0.03 0.01c0.01,0.01 0.07,0.04 0.08,0.04l0.01 0c0,0 0.04,-0.02 0.05,-0.02 0.05,-0.03 0.1,-0.07 0.13,-0.11 0.05,-0.07 0.08,-0.16 0.08,-0.25l0 -0.13c0,-0.01 0,-0.02 0,-0.02 -0.01,-0.01 -0.05,-0.02 -0.05,-0.02 -0.02,-0.01 -0.03,-0.01 -0.04,-0.02 -0.01,0 -0.02,-0.01 -0.03,-0.01 -0.02,-0.01 -0.14,-0.06 -0.14,-0.06 -0.02,0 -0.03,0.01 -0.05,0.01l-0.07 0.03c-0.01,0.01 -0.02,0.01 -0.03,0.02 -0.01,0 -0.12,0.04 -0.12,0.05 -0.01,0 -0.01,0.01 -0.01,0.02z"/>
    <path fill="black" d="M0.24 0.34c0,-0.01 -0.03,-0.04 -0.04,-0.05 -0.01,-0.01 -0.01,-0.01 -0.03,-0.01 0,0 -0.01,0 -0.01,0 -0.01,0.01 -0.01,0.02 -0.01,0.03 0,0.01 0.03,0.04 0.04,0.05 0.01,0 0.04,0.04 0.05,0.04 0.02,0 0.02,0 0.03,-0.02l0.11 -0.11c0.01,-0.01 0.02,-0.01 0.02,-0.03 0,-0.01 -0.02,-0.02 -0.03,-0.02 -0.02,0 -0.02,0.01 -0.04,0.03 -0.01,0.01 -0.02,0.02 -0.03,0.03 0,0.01 -0.05,0.05 -0.06,0.06z"/>
   </g>
  </g>
 </g>
</svg>
