<?xml version="1.0" encoding="UTF-8"?>
<!DOCTYPE svg PUBLIC "-//W3C//DTD SVG 1.0//EN" "http://www.w3.org/TR/2001/REC-SVG-20010904/DTD/svg10.dtd">
<!-- Creator: CorelDRAW 2018 (64 Bit Versão de avaliação) -->
<svg xmlns="http://www.w3.org/2000/svg" xml:space="preserve" width="41px" height="41px" version="1.0" shape-rendering="geometricPrecision" text-rendering="geometricPrecision" image-rendering="optimizeQuality" fill-rule="evenodd" clip-rule="evenodd"
viewBox="0 0 2.46 2.46"
 xmlns:xlink="http://www.w3.org/1999/xlink">
 <g id="Camada_x0020_1">
  <metadata id="CorelCorpID_0Corel-Layer"/>
  <path fill="black" d="M2.17 0.45c0,0.01 -0.1,0.32 -0.11,0.33l-0.39 1.16c-0.02,0.06 -0.04,0.11 -0.05,0.17 -0.02,0.04 -0.03,0.09 -0.06,0.11 -0.04,0.02 -0.07,-0.01 -0.09,-0.04 -0.01,-0.02 -0.04,-0.08 -0.06,-0.11 0,-0.01 0,-0.01 -0.01,-0.02 0,0 0,-0.01 -0.01,-0.01l-0.27 -0.51c0,-0.01 0,-0.01 -0.01,-0.02 0.01,-0.01 0.58,-0.57 0.61,-0.61l0.02 -0.02c0.03,-0.03 0.42,-0.42 0.43,-0.43zm0.29 -0.18l0 0.03c-0.01,0.05 -0.02,0.1 -0.04,0.15l-0.53 1.58c-0.01,0.02 -0.01,0.05 -0.02,0.07l-0.05 0.15c-0.01,0.03 -0.04,0.08 -0.06,0.1l-0.05 0.05c-0.05,0.04 -0.1,0.06 -0.18,0.06 -0.05,0 -0.11,-0.03 -0.15,-0.05 -0.06,-0.04 -0.08,-0.08 -0.12,-0.14 0,-0.01 0,-0.01 -0.01,-0.02 -0.01,-0.03 -0.03,-0.06 -0.05,-0.09 -0.02,-0.05 -0.05,-0.11 -0.08,-0.16 0,0 -0.01,-0.01 -0.01,-0.01 0,-0.01 -0.01,-0.02 -0.01,-0.02 0,-0.01 -0.01,-0.02 -0.02,-0.03l-0.03 -0.06c-0.01,-0.03 -0.04,-0.07 -0.05,-0.1l-0.1 -0.18c-0.01,-0.01 -0.01,-0.01 -0.01,-0.02 0,0 -0.01,-0.01 -0.01,-0.01l-0.1 -0.05c0,0 -0.01,-0.01 -0.01,-0.01l-0.25 -0.13c-0.01,-0.01 -0.01,-0.01 -0.02,-0.01l-0.15 -0.09c-0.01,0 -0.02,-0.01 -0.03,-0.02 -0.01,0 -0.03,-0.01 -0.04,-0.01 -0.01,-0.01 -0.02,-0.01 -0.03,-0.02 -0.01,0 -0.02,-0.01 -0.03,-0.02 -0.02,-0.01 -0.07,-0.03 -0.09,-0.05 -0.01,0 -0.02,-0.01 -0.03,-0.02 -0.02,-0.02 -0.03,-0.03 -0.05,-0.05 -0.02,-0.03 -0.04,-0.09 -0.05,-0.14 0,-0.05 0,-0.07 0.01,-0.12 0.04,-0.1 0.11,-0.16 0.2,-0.19 0.02,-0.01 0.04,-0.02 0.07,-0.03 0.24,-0.08 0.48,-0.16 0.72,-0.24l0.87 -0.29c0.13,-0.04 0.28,-0.12 0.42,-0.05 0.01,0 0.03,0.01 0.04,0.02l0.03 0.03c0.03,0.02 0.06,0.05 0.07,0.09 0.02,0.04 0.03,0.07 0.03,0.1zm-0.29 0.18l0 0zm-0.17 -0.17c0,0.01 -0.57,0.58 -0.62,0.63l-0.04 0.03c-0.02,0.02 -0.39,0.39 -0.39,0.4 -0.03,-0.01 -0.05,-0.02 -0.07,-0.04 -0.03,-0.01 -0.05,-0.02 -0.08,-0.04l-0.18 -0.09c-0.01,-0.01 -0.02,-0.02 -0.03,-0.02l-0.2 -0.11c-0.01,0 -0.01,0 -0.02,-0.01 -0.02,-0.01 -0.09,-0.04 -0.11,-0.06 -0.04,-0.03 -0.04,-0.08 0,-0.1 0.02,-0.02 0.13,-0.05 0.16,-0.06l1.25 -0.42c0.05,-0.02 0.11,-0.03 0.16,-0.05l0.13 -0.04c0.01,-0.01 0.03,-0.02 0.04,-0.02zm0 0l0 0z"/>
 </g>
</svg>
