<?xml version="1.0" encoding="UTF-8"?>
<!DOCTYPE svg PUBLIC "-//W3C//DTD SVG 1.0//EN" "http://www.w3.org/TR/2001/REC-SVG-20010904/DTD/svg10.dtd">
<!-- Creator: CorelDRAW 2018 (64 Bit Versão de avaliação) -->
<svg xmlns="http://www.w3.org/2000/svg" xml:space="preserve" width="44px" height="41px" version="1.0" shape-rendering="geometricPrecision" text-rendering="geometricPrecision" image-rendering="optimizeQuality" fill-rule="evenodd" clip-rule="evenodd"
viewBox="0 0 20.26 18.99"
 xmlns:xlink="http://www.w3.org/1999/xlink">
 <g id="Camada_x0020_1">
  <metadata id="CorelCorpID_0Corel-Layer"/>
  <path fill="black" d="M9.74 10.64c0.6,-0.1 0.66,-0.24 0.82,0.38 0.2,0.82 1.06,1.8 2.15,1.8 0.93,0 1.47,-0.21 1.95,-0.7 0.7,-0.73 0.61,-1.19 0.71,-1.93 0.21,0.13 0.31,0.22 0.51,0.37 0.41,0.33 0.8,-0.02 0.44,1.96 -0.27,1.5 -0.89,2.43 -1.85,3.38 -2.11,2.06 -5.28,2.26 -7.76,0.75 -0.17,-0.1 -0.39,-0.25 -0.52,-0.36 -1.2,-1.12 -1.94,-1.98 -2.3,-3.8 -0.08,-0.43 -0.14,-1.17 -0.12,-1.6 0.19,-0.13 0.35,-0.14 0.56,-0.31 0.17,-0.14 0.28,-0.29 0.51,-0.38 0,1.14 0.47,1.84 1.33,2.36 0.8,0.48 2.22,0.26 2.74,-0.33 0.44,-0.5 0.7,-0.59 0.83,-1.59zm-1.54 -6.48c0.07,0.4 0.67,0.23 1.01,0.18 0.38,-0.06 0.77,-0.11 1.16,-0.09 0.59,0.03 1.98,0.56 1.65,-0.48 -0.13,-0.42 -1.57,-0.47 -2.12,-0.47 -0.68,0 -1.83,0.06 -1.7,0.86zm4.39 10.17c0.11,-0.29 -0.09,-0.5 -0.31,-0.56 -0.56,-0.16 -0.73,0.75 -1.99,0.78 -0.67,0.02 -1.04,-0.07 -1.5,-0.38 -0.16,-0.11 -0.36,-0.32 -0.56,-0.4 -0.27,-0.1 -0.52,0.07 -0.59,0.29 -0.25,0.81 1.73,1.45 2.34,1.46 0.97,0.03 2.37,-0.52 2.61,-1.19zm-3.25 -8.21c1.69,-0.22 2.81,0.36 3.36,0.26 0.36,-0.07 0.68,-0.74 -0.25,-0.98 -1.34,-0.35 -3.63,-0.39 -4.86,0.06 -0.26,0.09 -0.41,0.21 -0.39,0.56 0.05,0.69 1.18,0.21 2.14,0.1zm3.18 2.82c2.06,-0.5 2.58,2.42 0.81,2.89 -2.05,0.55 -2.63,-2.45 -0.81,-2.89zm5.58 1.32c0.52,-0.22 0.94,0.44 0.71,1.06 -0.14,0.37 -0.45,0.41 -0.94,0.41 0.11,-0.3 0.48,-0.51 0.27,-1.01 -0.06,-0.14 -0.28,-0.36 -0.04,-0.46zm-11.23 -1.34c0.95,-0.21 1.73,0.34 1.91,1.07 0.47,1.94 -2.34,2.68 -2.92,0.81 -0.25,-0.84 0.37,-1.73 1.01,-1.88zm-4.53 2.76c-0.48,0.29 -0.96,-0.2 -1,-0.64 -0.06,-0.6 0.38,-0.87 0.98,-0.78 -0.07,0.29 -0.23,0.43 -0.23,0.7 -0.01,0.37 0.12,0.47 0.25,0.72zm14.21 -2.3c-0.23,-0.56 -0.21,-0.75 -0.21,-1.42 0.01,-0.48 0.01,-1.02 0.38,-1.22 0.46,-0.25 0.93,0.12 1,0.52 0.07,0.38 0.02,1.15 0.02,1.57 -0.62,0.05 -0.99,0.47 -1.19,0.55zm-14.06 -0.54c0,-0.41 -0.04,-1.25 0.04,-1.6 0.09,-0.44 0.48,-0.71 0.99,-0.51 0.57,0.24 0.4,2.28 0.16,2.61 -0.39,-0.05 -0.43,-0.49 -1.19,-0.5zm13.57 -3.3c-0.11,0.08 -0.22,0.13 -0.33,0.21 -0.93,0.72 -0.71,2.1 -0.71,3.16 -0.21,-0.07 -0.38,-0.25 -0.51,-0.38 -0.16,-0.15 -0.33,-0.27 -0.54,-0.37 -0.44,-0.23 -0.94,-0.28 -1.49,-0.19 -1.08,0.18 -1.53,0.78 -1.9,1.65l-0.94 0.03c-0.34,-1.49 -2.54,-2.46 -3.96,-1.08 -0.14,0.13 -0.31,0.35 -0.46,0.46 -0.06,-1.53 0.32,-2.32 -0.73,-3.27 -0.13,-0.12 -0.24,-0.12 -0.37,-0.22 0.2,-0.5 0.39,-0.83 0.66,-1.24 0.18,-0.28 0.68,-0.86 0.68,-1.25 0.01,-0.55 -0.7,-0.81 -1.12,-0.45 -0.22,0.19 -0.63,0.79 -0.82,1.11 -0.23,0.4 -0.46,0.84 -0.63,1.31 -0.17,0.45 -0.09,0.28 -0.51,0.45 -0.4,0.15 -0.83,0.55 -1.01,0.92 -0.41,0.82 -0.23,1.79 -0.28,2.67 -0.34,0.29 -0.66,0.35 -0.93,1 -0.18,0.43 -0.22,1.2 -0.06,1.68 0.14,0.43 0.59,0.85 0.89,1.05 0.5,0.33 0.93,0.38 1.6,0.29 0.18,0.82 0.63,1.71 1.01,2.32 0.82,1.32 2.15,2.48 3.66,3.07 1.85,0.72 3.78,0.66 5.63,0 0.76,-0.28 1.68,-0.78 2.13,-1.23 0.77,-0.76 0.48,-0.36 1.22,-1.28 0.51,-0.64 1.29,-2.02 1.35,-2.88 0.75,0.08 0.99,0.1 1.59,-0.24 1.17,-0.67 1.47,-2.38 0.5,-3.35 -0.17,-0.17 -0.39,-0.3 -0.57,-0.47 -0.01,-0.86 0.13,-1.67 -0.18,-2.46 -0.2,-0.53 -0.81,-1.14 -1.47,-1.18 -0.14,-0.88 -1.11,-2.26 -1.55,-2.77 -0.6,-0.68 -1.41,-1.41 -2.47,-1.88 -1.24,-0.55 -2.05,-0.76 -3.62,-0.73 -1.19,0.03 -2.42,0.36 -3.42,0.94 -0.79,0.45 -0.67,1 -0.27,1.28 0.42,0.29 0.85,-0.09 1.58,-0.37 2.24,-0.88 4.43,-0.61 6.29,0.85l0.85 0.78c0.43,0.55 1.05,1.38 1.21,2.06z"/>
 </g>
</svg>
