<?xml version="1.0" encoding="UTF-8"?>
<!DOCTYPE svg PUBLIC "-//W3C//DTD SVG 1.0//EN" "http://www.w3.org/TR/2001/REC-SVG-20010904/DTD/svg10.dtd">
<!-- Creator: CorelDRAW 2018 (64 Bit Versão de avaliação) -->
<svg xmlns="http://www.w3.org/2000/svg" xml:space="preserve" width="41px" height="41px" version="1.0" shape-rendering="geometricPrecision" text-rendering="geometricPrecision" image-rendering="optimizeQuality" fill-rule="evenodd" clip-rule="evenodd"
viewBox="0 0 2.45 2.46"
 xmlns:xlink="http://www.w3.org/1999/xlink">
 <g id="Camada_x0020_1">
  <metadata id="CorelCorpID_0Corel-Layer"/>
  <g id="_2038826906512">
   <path fill="#292929" d="M0.35 1.69c-0.05,0.01 -0.09,0.05 -0.1,0.1 -0.01,0.04 -0.01,0.14 -0.01,0.19 0,0.13 0.02,0.24 0.08,0.32 0.06,0.08 0.13,0.13 0.26,0.15 0.09,0.01 1.06,0 1.21,0 0.13,0 0.23,-0.03 0.3,-0.1 0.13,-0.12 0.13,-0.3 0.12,-0.48 0,-0.07 0,-0.11 -0.05,-0.15 -0.06,-0.05 -0.22,-0.06 -0.23,0.12 0,0.06 0,0.13 0,0.19 0,0.06 -0.01,0.12 -0.06,0.14 -0.04,0.01 -1.11,0 -1.2,0 -0.08,0 -0.12,0.01 -0.14,-0.06 -0.04,-0.11 0.02,-0.28 -0.03,-0.36 -0.03,-0.03 -0.08,-0.07 -0.15,-0.06z"/>
   <path fill="#292929" d="M0.59 0.29c0.05,-0.01 1.11,-0.01 1.21,-0.01 0.03,0 0.06,0 0.08,0.02 0.12,0.08 0,0.32 0.08,0.41 0.02,0.04 0.08,0.07 0.14,0.05 0.13,-0.03 0.11,-0.16 0.11,-0.29 0,-0.13 -0.01,-0.24 -0.08,-0.32 -0.07,-0.08 -0.14,-0.13 -0.26,-0.14 -0.08,-0.02 -1.03,-0.01 -1.21,-0.01 -0.14,0 -0.22,0.03 -0.3,0.11 -0.14,0.12 -0.12,0.29 -0.12,0.48 0,0.08 0.01,0.12 0.06,0.15 0.09,0.05 0.22,0.02 0.22,-0.13 0,-0.11 -0.03,-0.31 0.07,-0.32z"/>
   <path fill="#292929" d="M0.12 1.09c-0.11,0.02 -0.14,0.13 -0.1,0.21 0.05,0.08 0.14,0.07 0.27,0.07 0.57,0 1.14,0 1.71,0 0.07,0 0.28,0.01 0.34,-0.01 0.1,-0.02 0.14,-0.12 0.09,-0.2 -0.05,-0.09 -0.14,-0.07 -0.27,-0.07 -0.57,0 -1.14,0 -1.7,0 -0.08,0 -0.28,-0.01 -0.34,0z"/>
  </g>
 </g>
</svg>
