<?xml version="1.0" encoding="UTF-8"?>
<!DOCTYPE svg PUBLIC "-//W3C//DTD SVG 1.0//EN" "http://www.w3.org/TR/2001/REC-SVG-20010904/DTD/svg10.dtd">
<!-- Creator: CorelDRAW 2018 (64 Bit Versão de avaliação) -->
<svg xmlns="http://www.w3.org/2000/svg" xml:space="preserve" width="49px" height="41px" version="1.0" shape-rendering="geometricPrecision" text-rendering="geometricPrecision" image-rendering="optimizeQuality" fill-rule="evenodd" clip-rule="evenodd"
viewBox="0 0 1.89 1.6"
 xmlns:xlink="http://www.w3.org/1999/xlink">
 <g id="Camada_x0020_1">
  <metadata id="CorelCorpID_0Corel-Layer"/>
  <g id="_2171609503776">
   <g>
    <path fill="black" d="M0.15 0.5l0 -0.27c0,-0.06 0.02,-0.08 0.08,-0.08l1.43 0c0.06,0 0.09,0.03 0.09,0.08l0 0.27c0,0.05 -0.03,0.08 -0.09,0.08l-1.43 0c-0.05,0 -0.08,-0.03 -0.08,-0.08zm-0.15 -0.3l0 0.33c0,0.09 0.1,0.2 0.21,0.2l1.47 0c0.12,0 0.21,-0.11 0.21,-0.2l0 -0.33c0,-0.03 -0.01,-0.06 -0.02,-0.08 -0.02,-0.04 -0.06,-0.08 -0.1,-0.1 -0.03,-0.01 -0.06,-0.02 -0.09,-0.02l-1.47 0c-0.11,0 -0.21,0.1 -0.21,0.2z"/>
    <path fill="black" d="M0.15 1.37l0 -0.26c0,-0.06 0.02,-0.09 0.08,-0.09l1.43 0c0.06,0 0.09,0.03 0.09,0.09l0 0.26c0,0.05 -0.03,0.09 -0.09,0.09l-1.43 0c-0.05,0 -0.08,-0.04 -0.08,-0.09zm-0.15 -0.3l0 0.33c0,0.03 0.01,0.06 0.02,0.08 0.03,0.07 0.11,0.12 0.19,0.12l1.47 0c0.07,0 0.11,-0.03 0.15,-0.06 0.03,-0.03 0.06,-0.09 0.06,-0.14l0 -0.33c0,-0.07 -0.05,-0.15 -0.12,-0.18 -0.03,-0.01 -0.06,-0.02 -0.09,-0.02l-1.47 0c-0.06,0 -0.11,0.03 -0.15,0.06 -0.03,0.03 -0.06,0.1 -0.06,0.14z"/>
    <path fill="black" d="M0.29 0.35c0,0.06 0.03,0.09 0.06,0.09l0.9 0c0.03,0 0.06,-0.03 0.06,-0.09 0,-0.02 -0.04,-0.06 -0.06,-0.06l-0.9 0c-0.02,0 -0.06,0.04 -0.06,0.06z"/>
    <path fill="black" d="M0.29 1.23c0,0.05 0.03,0.08 0.06,0.08l0.9 0c0.03,0 0.06,-0.03 0.06,-0.08 0,-0.03 -0.04,-0.07 -0.06,-0.07l-0.9 0c-0.02,0 -0.06,0.04 -0.06,0.07z"/>
    <path fill="black" d="M1.46 1.23c0,0.11 0.14,0.11 0.14,0 0,-0.04 -0.03,-0.07 -0.08,-0.07 -0.03,0 -0.06,0.04 -0.06,0.07z"/>
    <path fill="black" d="M1.46 0.35c0,0.11 0.14,0.11 0.14,0 0,-0.03 -0.03,-0.06 -0.08,-0.06 -0.03,0 -0.06,0.04 -0.06,0.06z"/>
   </g>
  </g>
 </g>
</svg>
