<?xml version="1.0" encoding="UTF-8"?>
<!DOCTYPE svg PUBLIC "-//W3C//DTD SVG 1.0//EN" "http://www.w3.org/TR/2001/REC-SVG-20010904/DTD/svg10.dtd">
<!-- Creator: CorelDRAW 2018 (64 Bit Versão de avaliação) -->
<svg xmlns="http://www.w3.org/2000/svg" xml:space="preserve" width="43px" height="41px" version="1.0" shape-rendering="geometricPrecision" text-rendering="geometricPrecision" image-rendering="optimizeQuality" fill-rule="evenodd" clip-rule="evenodd"
viewBox="0 0 1.72 1.65"
 xmlns:xlink="http://www.w3.org/1999/xlink">
 <g id="Camada_x0020_1">
  <metadata id="CorelCorpID_0Corel-Layer"/>
  <g id="_2289592342352">
   <g>
    <path fill="#292929" d="M0.42 0.83c0,-0.02 0.01,-0.05 0.02,-0.06 0.05,-0.05 0.15,-0.05 0.15,0.07 0,0.03 -0.03,0.07 -0.08,0.07 -0.05,0 -0.09,-0.04 -0.09,-0.08zm-0.16 -0.09c-0.07,0 -0.19,-0.01 -0.23,0.02 -0.04,0.03 -0.04,0.1 0,0.13 0.01,0.01 0.04,0.02 0.06,0.02 0.06,0 0.12,0 0.17,0 0.02,0.03 0.01,0.03 0.03,0.07 0.04,0.05 0.12,0.11 0.2,0.11 0.08,0 0.12,-0.01 0.18,-0.06 0.03,-0.02 0.07,-0.07 0.08,-0.12l0.58 0.01c0.03,0 0.07,0 0.11,0 0.04,0 0.06,-0.01 0.1,-0.01 0.09,0 0.15,0.01 0.17,-0.05 0.03,-0.06 -0.01,-0.12 -0.07,-0.12 -0.22,-0.01 -0.51,-0.01 -0.73,-0.01 -0.06,0 -0.1,0.01 -0.16,0.01 0,-0.06 -0.11,-0.18 -0.23,-0.18 -0.08,0 -0.11,0.01 -0.18,0.06 -0.03,0.03 -0.07,0.07 -0.08,0.12z"/>
    <path fill="#292929" d="M1.12 1.38c0,-0.09 0.18,-0.12 0.18,0.02 0,0.02 -0.02,0.05 -0.03,0.05 -0.05,0.05 -0.15,0.02 -0.15,-0.07zm0.11 0.27l-0.03 0c-0.09,0 -0.18,-0.06 -0.22,-0.14 -0.01,-0.01 -0.01,-0.02 -0.02,-0.03 -0.06,0 -0.86,0 -0.9,-0.01 -0.04,-0.01 -0.06,-0.04 -0.06,-0.07l0 -0.02c0,-0.03 0.02,-0.06 0.05,-0.07 0.04,-0.02 0.86,-0.01 0.91,-0.01 0.02,-0.03 0.02,-0.04 0.04,-0.07 0.06,-0.07 0.09,-0.09 0.21,-0.11 0.1,0 0.22,0.08 0.25,0.18 0.06,0 0.12,0 0.18,0 0.1,0 0.11,0.17 -0.01,0.18 -0.05,0 -0.12,0 -0.17,0 -0.02,0.04 -0.05,0.09 -0.09,0.12 -0.04,0.03 -0.09,0.05 -0.14,0.05z"/>
    <path fill="#292929" d="M1.12 0.27c0,-0.12 0.18,-0.14 0.18,0.01 0,0.09 -0.18,0.09 -0.18,-0.01zm-1.12 0.01l0 -0.03c0.01,-0.03 0.03,-0.06 0.05,-0.07 0.04,-0.01 0.08,-0.01 0.13,-0.01l0.78 0c0.01,-0.01 0.01,-0.02 0.02,-0.03 0.05,-0.09 0.14,-0.14 0.25,-0.14 0.11,0 0.22,0.11 0.23,0.17 0.05,0 0.13,0 0.17,0 0.06,0.01 0.09,0.04 0.09,0.09 0,0.05 -0.03,0.09 -0.09,0.09 -0.06,0 -0.12,0 -0.17,0 -0.01,0.01 -0.03,0.06 -0.04,0.07 -0.05,0.07 -0.12,0.1 -0.22,0.1 -0.06,0.01 -0.11,-0.02 -0.15,-0.05 -0.08,-0.07 -0.07,-0.12 -0.1,-0.12l-0.75 0c-0.03,0 -0.06,0.01 -0.09,0 -0.07,0 -0.1,-0.03 -0.11,-0.07z"/>
   </g>
  </g>
 </g>
</svg>
