<?xml version="1.0" encoding="UTF-8"?>
<!DOCTYPE svg PUBLIC "-//W3C//DTD SVG 1.0//EN" "http://www.w3.org/TR/2001/REC-SVG-20010904/DTD/svg10.dtd">
<!-- Creator: CorelDRAW 2018 (64 Bit Versão de avaliação) -->
<svg xmlns="http://www.w3.org/2000/svg" xml:space="preserve" width="38px" height="41px" version="1.0" shape-rendering="geometricPrecision" text-rendering="geometricPrecision" image-rendering="optimizeQuality" fill-rule="evenodd" clip-rule="evenodd"
viewBox="0 0 14.18 15.28"
 xmlns:xlink="http://www.w3.org/1999/xlink">
 <g id="Camada_x0020_1">
  <metadata id="CorelCorpID_0Corel-Layer"/>
  <path fill="#292929" d="M9.57 12.25c0,-1.26 1.45,-2.07 2.6,-1.15 0.86,0.69 0.55,2.68 -0.91,2.68 -0.55,0 -0.89,-0.06 -1.27,-0.46 -0.23,-0.24 -0.42,-0.62 -0.42,-1.07zm1.22 -12.25l0.51 0c0.7,0.06 1.38,0.36 1.96,0.84 0.23,0.19 0.49,0.57 0.62,0.84 0.25,0.53 0.3,0.87 0.3,1.44l0 0.03c0,0.8 -0.51,1.72 -0.94,2.1 -0.49,0.43 -1.23,0.85 -2.13,0.85 -1.21,0 -1.81,-0.75 -2.13,-0.75 -0.48,0 -1.27,0.56 -1.7,0.82l-0.48 0.27c-1.07,0.58 -0.53,0.51 -0.73,1.64 -0.04,0.23 -0.08,0.4 -0.08,0.66 0,0.26 -0.03,0.25 0.29,0.38 0.58,0.23 1.86,1.2 2.31,1.2 0.34,0 1.42,-1.68 3.53,-0.98 1.19,0.4 1.97,1.52 2.06,2.69l0 0.46c-0.03,0.36 -0.12,0.71 -0.29,1.04 -0.68,1.34 -1.6,1.75 -3.1,1.75 -1.2,0 -2.32,-1.11 -2.61,-2.28 -0.07,-0.29 -0.05,-0.39 -0.07,-0.76 -0.01,-0.29 -0.06,-0.25 -0.1,-0.28l-2.33 -1.3c-1.18,-0.71 -0.99,-0.31 -1.69,-0.09 -0.38,0.12 -0.68,0.1 -1.08,0.1 -0.72,0 -1.66,-0.42 -2.03,-0.88 -0.45,-0.58 -0.88,-1.18 -0.88,-1.99 0,-0.96 0.25,-1.66 0.88,-2.28 0.8,-0.8 1.33,-0.91 2.39,-0.91 0.66,0 1.14,0.25 1.58,0.58 0.35,0.27 0.47,0.23 0.88,-0.01l2.06 -1.17c0.31,-0.09 0.29,0.02 0.29,-0.35 -0.01,-0.19 0,-0.27 0.02,-0.4 0.04,-0.28 0,-0.59 0.04,-0.83 0.14,-0.83 0.71,-1.61 1.4,-2.02 0.4,-0.24 0.82,-0.37 1.25,-0.41zm-7.72 9.17c-0.81,0 -1.53,-0.6 -1.53,-1.37l0 -0.28c0,-1.28 1.71,-1.9 2.63,-0.98 0.67,0.69 0.61,2.03 -0.46,2.49 -0.15,0.06 -0.44,0.14 -0.64,0.14zm6.5 -6.06c0,-1.71 1.93,-1.99 2.64,-1.18 0.9,1.03 0.31,2.6 -0.91,2.6l-0.35 0c-0.74,0 -1.38,-0.68 -1.38,-1.42z"/>
 </g>
</svg>
