<?xml version="1.0" encoding="UTF-8"?>
<!DOCTYPE svg PUBLIC "-//W3C//DTD SVG 1.0//EN" "http://www.w3.org/TR/2001/REC-SVG-20010904/DTD/svg10.dtd">
<!-- Creator: CorelDRAW 2018 (64 Bit Versão de avaliação) -->
<svg xmlns="http://www.w3.org/2000/svg" xml:space="preserve" width="41px" height="41px" version="1.0" shape-rendering="geometricPrecision" text-rendering="geometricPrecision" image-rendering="optimizeQuality" fill-rule="evenodd" clip-rule="evenodd"
viewBox="0 0 0.91 0.91"
 xmlns:xlink="http://www.w3.org/1999/xlink">
 <g id="Camada_x0020_1">
  <metadata id="CorelCorpID_0Corel-Layer"/>
  <g id="_2289605755808">
   <g>
    <path fill="#292929" d="M0.26 0.74l0 -0.03c0,0 0.03,0.01 0.07,0.01 0.02,0 0.04,0 0.06,-0.01 0.01,0 0.04,-0.01 0.04,-0.01 0,0.04 0.03,0.09 0.05,0.12l0.03 0.03 -0.28 0 0.01 -0.03c0.01,-0.03 0.02,-0.05 0.02,-0.08zm-0.26 -0.32l0 0c0,-0.02 0.01,-0.04 0.02,-0.05 0.02,-0.01 0.04,-0.02 0.06,-0.02l0.41 0 0 -0.21c0,0 0,0 0,0 0,-0.01 -0.01,-0.01 -0.01,-0.02l0 -0.09c0,-0.01 0,-0.02 0.01,-0.02 0,-0.01 0.01,-0.01 0.02,-0.01l0.2 0c0.02,0 0.03,0.02 0.03,0.03l0 0.08c0,0.02 -0.01,0.03 -0.01,0.03l0 0.3c0.04,0.01 0.1,0.04 0.13,0.08 0.01,0.01 0.01,0.02 0.02,0.03 0.01,0.01 0.01,0.02 0.02,0.03 0.01,0.03 0.01,0.06 0.01,0.09 0,0.04 -0.01,0.08 -0.02,0.11 -0.03,0.04 -0.07,0.09 -0.12,0.11 -0.02,0.01 -0.05,0.02 -0.09,0.02l-0.51 0c-0.03,0 -0.04,-0.03 -0.03,-0.05 0,-0.01 0.02,-0.02 0.02,-0.02 0.03,-0.04 0.03,-0.07 0.03,-0.11 0,-0.05 0,-0.04 -0.01,-0.05 -0.02,-0.01 -0.04,-0.03 -0.05,-0.04 -0.05,-0.05 -0.07,-0.09 -0.09,-0.15 0,-0.01 0,0 -0.01,-0.01 -0.02,-0.01 -0.03,-0.03 -0.03,-0.06zm0.67 0.43c-0.03,0 -0.07,-0.02 -0.1,-0.03 -0.04,-0.03 -0.07,-0.09 -0.07,-0.14 0,-0.04 0,-0.05 0.01,-0.09 0.01,-0.01 0.01,-0.01 0.02,-0.02 0.01,-0.01 0.01,-0.02 0.02,-0.02 0.01,-0.01 0.01,-0.02 0.02,-0.02 0.07,-0.05 0.16,-0.04 0.23,0.02 0.03,0.03 0.05,0.08 0.05,0.12 0,0.03 -0.01,0.05 -0.02,0.07 -0.01,0.02 -0.02,0.04 -0.03,0.05 -0.01,0.01 -0.01,0.01 -0.02,0.01 0,0.01 0,0.01 -0.01,0.01 -0.02,0.02 -0.07,0.04 -0.1,0.04zm-0.32 -0.2c-0.05,0 -0.06,0 -0.11,-0.01 -0.04,-0.02 -0.08,-0.05 -0.1,-0.09 -0.01,-0.01 -0.03,-0.04 -0.03,-0.06l0.4 0 -0.04 0.04c-0.01,0.02 -0.02,0.04 -0.03,0.06 0,0.01 0,0.01 0,0.03 -0.01,0.01 0,0.01 -0.03,0.02 -0.01,0 -0.04,0.01 -0.06,0.01zm0.21 -0.5l0.1 0 0 0.27 -0.1 0 0 -0.27zm-0.49 0.27l0.42 0 0 0 -0.42 0 0 0zm0.47 -0.35l0.13 0 0 0.01 -0.13 0 0 -0.01z"/>
    <path fill="#292929" d="M0.67 0.59c0,0 0,0 -0.01,0l-0.06 0.04 -0.02 0c-0.03,-0.02 -0.06,0.01 -0.06,0.04 0,0.01 0,0.02 0.01,0.03 0.01,0.02 0.03,0.02 0.04,0.02 0.01,0 0.02,-0.01 0.03,-0.01 0,0 0.06,0.04 0.07,0.04 0,0.07 0.07,0.07 0.09,0.05 0.01,-0.02 0.02,-0.04 0.01,-0.06 0,0 -0.01,-0.01 -0.01,-0.01 -0.01,-0.02 -0.04,-0.02 -0.05,-0.01 -0.01,0 -0.01,0 -0.02,0 0,0 -0.01,0 -0.02,-0.01l-0.05 -0.03 0 -0.02 0.07 -0.04c0.01,-0.01 0,0.01 0.04,0.01 0.04,0 0.06,-0.07 0.01,-0.09 -0.02,-0.01 -0.04,-0.01 -0.05,0.01 -0.01,0.01 -0.02,0.02 -0.02,0.04z"/>
   </g>
  </g>
 </g>
</svg>
