<?xml version="1.0" encoding="UTF-8"?>
<!DOCTYPE svg PUBLIC "-//W3C//DTD SVG 1.0//EN" "http://www.w3.org/TR/2001/REC-SVG-20010904/DTD/svg10.dtd">
<!-- Creator: CorelDRAW 2018 (64 Bit Versão de avaliação) -->
<svg xmlns="http://www.w3.org/2000/svg" xml:space="preserve" width="45px" height="41px" version="1.0" shape-rendering="geometricPrecision" text-rendering="geometricPrecision" image-rendering="optimizeQuality" fill-rule="evenodd" clip-rule="evenodd"
viewBox="0 0 1.38 1.26"
 xmlns:xlink="http://www.w3.org/1999/xlink">
 <g id="Camada_x0020_1">
  <metadata id="CorelCorpID_0Corel-Layer"/>
  <g id="_2787232156144">
   <g>
    <path fill="black" d="M0 0.48l0 0.6c0,0.1 0.09,0.18 0.19,0.18l0.81 0c0.07,0 0.1,-0.02 0.14,-0.05 0.01,-0.01 0.03,-0.03 0.04,-0.05 0.01,-0.02 0.02,-0.05 0.02,-0.07l0 -0.44c0,-0.02 -0.02,-0.04 -0.05,-0.05 -0.02,-0.01 -0.05,0 -0.06,0.02 -0.02,0.02 -0.01,0.05 -0.01,0.09 0,0.05 0,0.36 0,0.38 -0.01,0.02 -0.03,0.04 -0.06,0.04l-0.85 0c-0.02,0 -0.05,-0.02 -0.05,-0.06l0 -0.59c0,-0.08 0.09,-0.06 0.16,-0.06 0.13,0 0.15,-0.12 0.22,-0.12 0.06,-0.01 0.16,0 0.22,0 0.08,0 0.08,-0.12 0,-0.12l-0.22 0c-0.04,0 -0.06,0.01 -0.08,0.02 -0.05,0.02 -0.08,0.07 -0.11,0.09 -0.04,0.02 -0.12,0 -0.18,0.02 -0.07,0.02 -0.13,0.08 -0.13,0.17z"/>
    <path fill="black" d="M0.42 0.78c0,-0.2 0.26,-0.25 0.34,-0.08 0.02,0.03 0.02,0.05 0.02,0.09 0,0.08 -0.09,0.17 -0.17,0.17 -0.04,0 -0.05,0 -0.09,-0.02 -0.02,-0.01 -0.04,-0.03 -0.05,-0.04 0,0 0,0 -0.01,-0.01 0,0 0,0 -0.01,-0.01 -0.02,-0.03 -0.03,-0.06 -0.03,-0.1zm-0.12 -0.02c0,0.06 0,0.1 0.03,0.15 0.02,0.04 0.02,0.03 0.04,0.06 0.01,0.01 0.01,0.02 0.02,0.02 0.04,0.04 0.09,0.07 0.14,0.08 0.05,0.01 0.09,0.01 0.13,0 0.06,-0.01 0.11,-0.04 0.15,-0.08 0.11,-0.11 0.12,-0.28 0.02,-0.4l-0.01 -0.02c-0.04,-0.05 -0.14,-0.09 -0.2,-0.09 -0.08,0 -0.13,0.01 -0.19,0.05 -0.04,0.03 -0.08,0.07 -0.1,0.12 -0.02,0.03 -0.03,0.07 -0.03,0.11z"/>
    <path fill="black" d="M1.08 0.06l0 0.12 -0.12 0c-0.08,0 -0.08,0.12 -0.01,0.12l0.13 0 0 0.12c0,0.08 0.12,0.08 0.12,0l0 -0.12 0.12 0c0.07,0 0.08,-0.12 0,-0.12l-0.12 0 0 -0.13c0,-0.07 -0.12,-0.07 -0.12,0.01z"/>
   </g>
  </g>
 </g>
</svg>
