<?xml version="1.0" encoding="UTF-8"?>
<!DOCTYPE svg PUBLIC "-//W3C//DTD SVG 1.0//EN" "http://www.w3.org/TR/2001/REC-SVG-20010904/DTD/svg10.dtd">
<!-- Creator: CorelDRAW 2018 (64 Bit Versão de avaliação) -->
<svg xmlns="http://www.w3.org/2000/svg" xml:space="preserve" width="41px" height="41px" version="1.0" shape-rendering="geometricPrecision" text-rendering="geometricPrecision" image-rendering="optimizeQuality" fill-rule="evenodd" clip-rule="evenodd"
viewBox="0 0 0.75 0.75"
 xmlns:xlink="http://www.w3.org/1999/xlink">
 <g id="Camada_x0020_1">
  <metadata id="CorelCorpID_0Corel-Layer"/>
  <path fill="black" d="M0.31 0.52c0,-0.02 0,-0.04 0,-0.05 0,-0.02 -0.01,-0.02 -0.02,-0.03 -0.01,-0.01 -0.05,-0.01 -0.05,0.03 0,0.04 0,0.07 0.02,0.08 0.01,0.01 0.03,0 0.04,0 0.01,-0.01 0.01,-0.02 0.01,-0.03zm-0.24 -0.21l0 0 0.6 0 0.01 0 -0.09 0.37 -0.44 0 -0.08 -0.37zm0.15 -0.07c0.01,-0.01 0.06,-0.06 0.07,-0.08l0.07 -0.07c0.01,0 0.01,0 0.02,0l0.01 0.02c0.01,0 0.01,0 0.01,0.01 0.02,0 0.06,0.05 0.07,0.06l0.02 0.02c0.01,0.01 0.03,0.02 0.04,0.04 -0.1,0 -0.21,0 -0.31,0zm0.53 0.09c0,-0.04 -0.02,-0.07 -0.06,-0.08 -0.03,-0.01 -0.04,0 -0.07,-0.02l-0.05 -0.05c-0.01,-0.01 -0.03,-0.03 -0.04,-0.05 -0.02,-0.01 -0.04,-0.03 -0.05,-0.04l-0.07 -0.07c-0.02,-0.02 -0.04,-0.03 -0.07,-0.01 -0.01,0.02 -0.02,0.03 -0.04,0.05l-0.09 0.08c0,0 0,0.01 -0.01,0.01l-0.05 0.05c0,0.01 -0.03,0.04 -0.05,0.04 -0.01,0 -0.02,0 -0.04,0.01 -0.01,0 -0.02,0.01 -0.03,0.01 -0.05,0.04 -0.03,0.09 -0.02,0.14 0.02,0.05 0.03,0.1 0.04,0.16 0.01,0.02 0.03,0.13 0.04,0.15 0.02,0.04 0.07,0.04 0.14,0.04 0.06,0 0.13,0 0.19,0 0.03,0 0.06,0 0.09,0 0.05,0 0.12,0.01 0.15,-0.04 0.01,-0.02 0.01,-0.05 0.02,-0.07 0.01,-0.06 0.06,-0.26 0.07,-0.31zm-0.29 0.11c-0.03,0.01 -0.03,0.03 -0.03,0.07 0,0.01 0.01,0.02 0.01,0.03 0.01,0.01 0.03,0.02 0.04,0.01 0.03,0 0.03,-0.04 0.03,-0.07 0,-0.01 0,-0.02 -0.01,-0.03 -0.01,-0.01 -0.03,-0.02 -0.04,-0.01z"/>
 </g>
</svg>
