<?xml version="1.0" encoding="UTF-8"?>
<!DOCTYPE svg PUBLIC "-//W3C//DTD SVG 1.0//EN" "http://www.w3.org/TR/2001/REC-SVG-20010904/DTD/svg10.dtd">
<!-- Creator: CorelDRAW 2018 (64 Bit Versão de avaliação) -->
<svg xmlns="http://www.w3.org/2000/svg" xml:space="preserve" width="46px" height="41px" version="1.0" shape-rendering="geometricPrecision" text-rendering="geometricPrecision" image-rendering="optimizeQuality" fill-rule="evenodd" clip-rule="evenodd"
viewBox="0 0 1.67 1.49"
 xmlns:xlink="http://www.w3.org/1999/xlink">
 <g id="Camada_x0020_1">
  <metadata id="CorelCorpID_0Corel-Layer"/>
  <path fill="black" d="M0.7 1.1c-0.02,0 -0.06,-0.02 -0.08,-0.03 0.01,0 0.05,-0.03 0.06,-0.03l0.06 -0.04c0.01,0.02 0.02,0.04 0.03,0.05 -0.01,0.01 -0.07,0.05 -0.07,0.05zm0.77 -1.1l0.01 0c0.03,0 0.06,0.01 0.08,0.02 0.04,0.02 0.08,0.06 0.09,0.1 0.05,0.09 0.01,0.19 -0.06,0.25 -0.02,0.01 -0.03,0.02 -0.05,0.02 -0.02,0.01 -0.08,0.02 -0.1,0.01 0,0.01 0,0.02 0,0.03 0.01,0.04 0,0.05 0.04,0.07 0.04,0.02 0.13,0.08 0.16,0.11 0.03,0.04 0.03,0.07 0.03,0.12 0,0.08 -0.06,0.14 -0.12,0.15 -0.02,0.01 -0.06,0.01 -0.08,0 -0.03,0 -0.04,-0.01 -0.07,-0.02 -0.01,-0.01 -0.02,-0.01 -0.03,-0.02l-0.15 -0.08c0,0.04 0,0.06 -0.01,0.09 -0.01,0.03 -0.02,0.07 -0.04,0.1 -0.03,0.03 -0.07,0.06 -0.11,0.08l-0.09 0.06c-0.01,0.01 -0.1,0.07 -0.12,0.07 0.01,0.01 0.07,0.03 0.08,0.03 0.03,0.01 0.05,0.02 0.07,0.03l0.31 0.12c0.02,0.01 0.02,0.01 0.04,0 0.03,-0.02 0.08,-0.04 0.12,-0.04 0.06,0 0.09,0.08 0.03,0.12 -0.03,0.02 -0.09,0.04 -0.13,0.06 -0.04,0.02 -0.09,0 -0.13,-0.02 -0.14,-0.06 -0.28,-0.11 -0.42,-0.17 -0.14,-0.05 -0.28,-0.11 -0.43,-0.16l-0.17 -0.06c-0.04,-0.02 -0.08,-0.04 -0.12,-0.05 -0.06,-0.02 -0.1,-0.03 -0.1,-0.1 0,-0.03 0.03,-0.06 0.06,-0.06 0.04,0 0.12,0.04 0.16,0.06l0.2 0.08c0.02,0 0.04,0.01 0.05,0.01 0.03,-0.02 0.06,-0.04 0.09,-0.06 0.02,-0.01 0.03,-0.02 0.04,-0.03 0.02,0 0.03,-0.01 0.05,-0.02l0.15 -0.1c0.01,0 0.01,-0.01 0.02,-0.01 -0.03,-0.01 -0.07,-0.06 -0.09,-0.08 -0.03,-0.05 -0.05,-0.13 -0.03,-0.19 0,-0.01 0.01,-0.03 0.02,-0.04 -0.01,0 -0.02,-0.01 -0.03,-0.01 -0.01,-0.01 -0.02,-0.01 -0.03,-0.02 -0.06,-0.03 -0.11,-0.06 -0.16,-0.09l-0.11 -0.06c-0.05,-0.02 -0.09,-0.03 -0.09,-0.09 0,-0.03 0.03,-0.06 0.06,-0.06 0.04,0 0.09,0.03 0.13,0.05 0.01,0.01 0.03,0.02 0.05,0.03l0.21 0.12c0.02,0 0.05,0.03 0.06,0.03 0,0 0.14,-0.09 0.16,-0.1 0.01,-0.01 0.03,-0.02 0.05,-0.03l0.05 -0.04c0.01,0 0.02,-0.01 0.03,-0.01 0.02,-0.02 0.05,-0.04 0.07,-0.05 0.03,-0.01 0.08,-0.03 0.11,-0.01 0,-0.02 0.02,-0.05 0.03,-0.06 0.01,-0.01 0.02,-0.02 0.03,-0.03 0.03,-0.03 0.08,-0.05 0.13,-0.05zm0.04 0.75c-0.03,0 -0.04,-0.02 -0.06,-0.02 0,-0.02 0.03,-0.04 0.04,-0.06 0.03,0.02 0.06,0.03 0.05,0.07 -0.01,0.01 -0.02,0.01 -0.03,0.01zm-0.68 -0.16l0 -0.04c0.02,0 0.08,0.04 0.1,0.05 0.06,0.03 0.16,0.08 0.16,0.16 0,0.1 -0.04,0.11 -0.11,0.16l-0.06 0.04c-0.01,0.01 -0.03,0.02 -0.03,0.02 -0.01,-0.01 -0.03,-0.04 -0.03,-0.05 0,-0.01 0.08,-0.05 0.09,-0.06 0.02,-0.02 0.06,-0.04 0.06,-0.08 0,-0.08 -0.18,-0.11 -0.18,-0.2zm0.28 -0.11c-0.02,0 -0.04,0.01 -0.05,0.02 -0.02,0.01 -0.01,0.01 -0.04,0 -0.01,-0.01 -0.06,-0.04 -0.07,-0.05 0,0 0.04,-0.03 0.05,-0.03l0.08 -0.06c0.01,0.01 0.01,0.02 0.01,0.04l0.02 0.08zm0.14 -0.21c0.04,0 0.03,0.03 0.04,0.07 0.01,0.03 0.01,0.07 0.02,0.1l0.01 0.09c0.01,0.02 0.01,0.03 0.02,0.04 0.02,0.01 0.02,0.01 0.04,0.02l-0.04 0.06c-0.01,0 -0.03,-0.02 -0.04,-0.03 -0.04,-0.03 -0.05,-0.09 -0.06,-0.15 0,-0.03 -0.01,-0.07 -0.02,-0.11l0 -0.06c-0.01,-0.02 0.01,-0.03 0.03,-0.03zm0.22 0c-0.07,0 -0.09,-0.11 -0.02,-0.13 0.1,-0.03 0.12,0.13 0.02,0.13z"/>
 </g>
</svg>
