<?xml version="1.0" encoding="UTF-8"?>
<!DOCTYPE svg PUBLIC "-//W3C//DTD SVG 1.0//EN" "http://www.w3.org/TR/2001/REC-SVG-20010904/DTD/svg10.dtd">
<!-- Creator: CorelDRAW 2018 (64 Bit Versão de avaliação) -->
<svg xmlns="http://www.w3.org/2000/svg" xml:space="preserve" width="44px" height="41px" version="1.0" shape-rendering="geometricPrecision" text-rendering="geometricPrecision" image-rendering="optimizeQuality" fill-rule="evenodd" clip-rule="evenodd"
viewBox="0 0 1.18 1.09"
 xmlns:xlink="http://www.w3.org/1999/xlink">
 <g id="Camada_x0020_1">
  <metadata id="CorelCorpID_0Corel-Layer"/>
  <g id="_2039385114880">
   <g>
    <path fill="#292929" d="M0.7 0.89c-0.02,0 -0.03,0 -0.05,-0.02 -0.04,-0.04 -0.01,-0.11 0.05,-0.11 0.03,0 0.06,0.03 0.06,0.07 0,0.03 -0.03,0.06 -0.06,0.06zm-0.28 -0.06c0,-0.08 0.09,-0.09 0.12,-0.04 0.03,0.06 -0.02,0.1 -0.05,0.1l-0.02 0c-0.03,0 -0.05,-0.03 -0.05,-0.06zm0.49 0.06c-0.02,0 -0.03,0 -0.05,-0.02 -0.02,-0.02 -0.02,-0.04 -0.01,-0.07 0.01,-0.04 0.07,-0.06 0.11,-0.02 0.01,0.01 0.02,0.05 0.01,0.07 -0.01,0.02 -0.03,0.04 -0.06,0.04zm-0.71 -0.06c0,-0.1 0.14,-0.09 0.14,-0.01 0,0.06 -0.07,0.09 -0.12,0.05 -0.01,-0.01 -0.02,-0.03 -0.02,-0.04zm0.6 -0.12c-0.04,0 -0.06,-0.03 -0.06,-0.06 0,-0.03 0,-0.04 0.01,-0.06 0.02,-0.02 0.07,-0.02 0.1,0 0.04,0.05 0.01,0.12 -0.05,0.12zm-0.42 0c-0.06,0 -0.09,-0.07 -0.05,-0.11 0.02,-0.04 0.09,-0.03 0.11,0.01 0.02,0.05 -0.02,0.1 -0.06,0.1zm0.21 0c-0.04,0 -0.07,-0.04 -0.07,-0.06 0,-0.03 0,-0.04 0.02,-0.06 0,0 0.01,-0.01 0.02,-0.01 0.02,-0.01 0.06,-0.01 0.08,0.01 0,0.01 0.01,0.02 0.01,0.02 0.01,0.02 0.01,0.04 0,0.05 -0.01,0.03 -0.03,0.05 -0.06,0.05zm0.04 -0.25c0,-0.02 0,-0.04 0.02,-0.05 0.05,-0.05 0.11,0 0.11,0.04 0,0.02 0,0.03 -0.02,0.05 -0.01,0.01 -0.02,0.02 -0.04,0.02 -0.04,0.01 -0.07,-0.03 -0.07,-0.06zm-0.21 0c0,-0.09 0.13,-0.09 0.13,0 0,0.03 -0.03,0.06 -0.06,0.06 -0.02,0 -0.04,0 -0.06,-0.02 -0.01,-0.01 -0.01,-0.02 -0.01,-0.04zm0.17 -0.12c-0.03,0 -0.07,-0.03 -0.07,-0.06 0,-0.02 0,-0.04 0.02,-0.06 0.04,-0.04 0.11,-0.01 0.11,0.04l0 0.02c0,0.03 -0.03,0.06 -0.06,0.06zm-0.15 -0.08c0,0.02 0,0.04 0.01,0.05 -0.02,0 -0.04,0.02 -0.05,0.03 -0.06,0.04 -0.07,0.09 -0.06,0.16 -0.03,0 -0.06,0.03 -0.07,0.04 -0.03,0.04 -0.04,0.06 -0.04,0.11 0,0.02 0,0.02 0,0.03 -0.04,0 -0.11,0.08 -0.11,0.14 0,0.11 0.11,0.18 0.21,0.14 0.01,-0.01 0.04,-0.02 0.04,-0.04 0.01,0.01 0.01,0.01 0.01,0.01 0.05,0.04 0.11,0.05 0.16,0.03 0.03,-0.01 0.04,-0.02 0.05,-0.03 0.01,0.01 0.01,0.01 0.04,0.03 0.06,0.02 0.12,0.01 0.16,-0.03 0.01,0 0.01,0 0.01,-0.01 0.01,0.04 0.17,0.1 0.24,-0.03 0.05,-0.11 -0.05,-0.21 -0.1,-0.21 0.01,-0.05 0.01,-0.09 -0.03,-0.14 -0.02,-0.02 -0.04,-0.03 -0.07,-0.04 0,-0.03 0,-0.04 0,-0.07 0,-0.03 -0.03,-0.07 -0.06,-0.09 -0.01,-0.01 -0.04,-0.02 -0.05,-0.03 0,-0.01 0,-0.02 0,-0.05 0,-0.04 -0.02,-0.07 -0.04,-0.09 -0.04,-0.05 -0.1,-0.06 -0.16,-0.03 -0.01,0 -0.01,0 -0.02,0.01 -0.03,0.02 -0.07,0.07 -0.07,0.11z"/>
    <path fill="#292929" d="M0.92 1.01l-0.66 0c-0.04,0 -0.06,-0.01 -0.09,-0.02l-0.02 -0.02c-0.01,0 -0.01,-0.01 -0.02,-0.01 -0.05,-0.06 -0.07,-0.14 -0.04,-0.21 0.02,-0.04 0.21,-0.36 0.25,-0.44 0.01,-0.02 0.02,-0.03 0.03,-0.05 0.03,-0.04 0.05,-0.08 0.08,-0.12 0,0 0.01,-0.01 0.02,-0.02 0,0 0.01,-0.01 0.02,-0.01 0.05,-0.03 0.11,-0.04 0.17,-0.02 0.01,0.01 0.02,0.01 0.03,0.02 0.06,0.03 0.08,0.09 0.11,0.15 0.01,0.02 0.02,0.03 0.03,0.05 0.01,0.01 0.01,0.02 0.02,0.02l0.22 0.4c0.04,0.07 0.04,0.13 -0.01,0.2 -0.01,0.02 -0.02,0.04 -0.04,0.05 -0.03,0.02 -0.06,0.03 -0.1,0.03zm-0.34 -1.01l0.01 0c0.05,0 0.09,0.01 0.13,0.04l0.03 0.01c0.02,0.02 0.05,0.04 0.06,0.07l0.07 0.11c0.01,0.02 0.02,0.04 0.03,0.06 0.03,0.05 0.07,0.11 0.1,0.16l0.13 0.23c0.02,0.04 0.03,0.08 0.04,0.13l0 0.03c0,0.04 -0.01,0.07 -0.03,0.11 -0.01,0.01 -0.02,0.02 -0.03,0.04 -0.01,0.02 -0.02,0.03 -0.04,0.04 -0.05,0.04 -0.11,0.06 -0.18,0.06l-0.63 0c-0.04,0 -0.08,-0.01 -0.11,-0.02 -0.04,-0.01 -0.07,-0.04 -0.09,-0.07 -0.02,-0.02 -0.03,-0.03 -0.04,-0.06 -0.03,-0.05 -0.03,-0.08 -0.03,-0.13l0 -0.01c0,-0.05 0.03,-0.09 0.04,-0.13l0.07 -0.11c0.02,-0.03 0.04,-0.07 0.06,-0.11l0.16 -0.27c0.01,-0.02 0.02,-0.04 0.03,-0.05 0.03,-0.04 0.05,-0.07 0.09,-0.09 0.02,-0.01 0.04,-0.02 0.06,-0.03 0.02,-0.01 0.05,-0.01 0.07,-0.01z"/>
   </g>
  </g>
 </g>
</svg>
