<?xml version="1.0" encoding="UTF-8"?>
<!DOCTYPE svg PUBLIC "-//W3C//DTD SVG 1.0//EN" "http://www.w3.org/TR/2001/REC-SVG-20010904/DTD/svg10.dtd">
<!-- Creator: CorelDRAW 2018 (64 Bit Versão de avaliação) -->
<svg xmlns="http://www.w3.org/2000/svg" xml:space="preserve" width="40px" height="41px" version="1.0" shape-rendering="geometricPrecision" text-rendering="geometricPrecision" image-rendering="optimizeQuality" fill-rule="evenodd" clip-rule="evenodd"
viewBox="0 0 0.95 0.99"
 xmlns:xlink="http://www.w3.org/1999/xlink">
 <g id="Camada_x0020_1">
  <metadata id="CorelCorpID_0Corel-Layer"/>
  <g id="_2038817370944">
   <path fill="#292929" d="M0.13 0.78c-0.04,0 -0.11,-0.01 -0.12,0.01 -0.02,0.02 -0.01,0.04 0,0.05l0.15 0.15c0.03,0.02 0.06,-0.01 0.07,-0.03 0.02,-0.02 0.12,-0.11 0.13,-0.13 0.01,-0.01 0.01,-0.03 0,-0.04 -0.02,-0.02 -0.1,-0.01 -0.13,-0.01 0,-0.05 0.01,-0.71 0,-0.73 -0.01,-0.07 -0.1,-0.07 -0.1,0 -0.01,0.03 0,0.07 0,0.11l0 0.62z"/>
   <path fill="#292929" d="M0.38 0.11c0.01,0.05 0.08,0.04 0.13,0.04l0.34 0c0.03,0 0.06,0 0.08,-0.01 0.01,-0.01 0.03,-0.03 0.02,-0.06 -0.01,-0.05 -0.07,-0.04 -0.13,-0.04l-0.34 0c-0.02,0 -0.06,0 -0.07,0.01 -0.02,0.01 -0.03,0.03 -0.03,0.06z"/>
   <path fill="#292929" d="M0.43 0.3c-0.04,0 -0.06,0.04 -0.04,0.07 0.01,0.04 0.05,0.03 0.09,0.03 0.04,0 0.24,0.01 0.26,0 0.03,0 0.06,-0.04 0.04,-0.07 -0.02,-0.04 -0.05,-0.04 -0.1,-0.04 -0.04,0 -0.23,0 -0.25,0.01z"/>
   <path fill="#292929" d="M0.61 0.61c0.01,-0.03 -0.01,-0.05 -0.02,-0.06 -0.02,-0.01 -0.06,0 -0.08,0 -0.02,0 -0.07,0 -0.09,0 -0.02,0 -0.03,0.02 -0.04,0.04 0,0.03 0.01,0.05 0.03,0.06 0.02,0.01 0.06,0.01 0.08,0.01 0.06,0 0.11,0.01 0.12,-0.05z"/>
  </g>
 </g>
</svg>
