<?xml version="1.0" encoding="UTF-8"?>
<!DOCTYPE svg PUBLIC "-//W3C//DTD SVG 1.0//EN" "http://www.w3.org/TR/2001/REC-SVG-20010904/DTD/svg10.dtd">
<!-- Creator: CorelDRAW 2018 (64 Bit Versão de avaliação) -->
<svg xmlns="http://www.w3.org/2000/svg" xml:space="preserve" width="41px" height="41px" version="1.0" shape-rendering="geometricPrecision" text-rendering="geometricPrecision" image-rendering="optimizeQuality" fill-rule="evenodd" clip-rule="evenodd"
viewBox="0 0 0.75 0.75"
 xmlns:xlink="http://www.w3.org/1999/xlink">
 <g id="Camada_x0020_1">
  <metadata id="CorelCorpID_0Corel-Layer"/>
  <g id="_2318393701680">
   <g>
    <path fill="black" d="M0 0.24l0 0.27c0,0.01 0.01,0.02 0.02,0.03 0.01,0 0.02,0 0.03,0 0.02,0 0.1,0 0.11,0 0,0 0,0.01 0,0.01l0.18 0.13c0.02,0.01 0.04,0.03 0.05,0.04 0.01,0.01 0.05,0.03 0.05,0.03 0.02,0 0.03,-0.01 0.03,-0.02l0 -0.71c0,-0.01 -0.01,-0.02 -0.03,-0.02 0,0 -0.04,0.03 -0.05,0.03l-0.19 0.15c-0.01,0.01 -0.02,0.01 -0.03,0.02 -0.02,0.01 -0.01,0.01 -0.03,0.01 -0.03,0 -0.06,0 -0.09,0 -0.01,0 -0.02,0 -0.03,0.01 -0.01,0 -0.02,0.01 -0.02,0.02z"/>
    <path fill="black" d="M0.54 0.19c0,0.03 0.03,0.02 0.09,0.05 0,0 0,0 0.01,0.01 0.01,0 0.02,0.02 0.03,0.03 0.04,0.05 0.05,0.11 0.02,0.17 -0.01,0.02 -0.03,0.04 -0.05,0.06 -0.06,0.04 -0.1,0.02 -0.1,0.05 0,0.01 0.01,0.03 0.02,0.03 0.03,0 0.08,-0.02 0.11,-0.04 0.02,-0.02 0.05,-0.05 0.06,-0.08 0.02,-0.03 0.02,-0.06 0.02,-0.09l0 -0.01c0,-0.03 0,-0.06 -0.02,-0.08 0,-0.02 -0.01,-0.03 -0.02,-0.05 -0.01,-0.01 -0.02,-0.01 -0.03,-0.02 -0.02,-0.02 -0.05,-0.04 -0.08,-0.05 -0.02,0 -0.06,-0.02 -0.06,0.02z"/>
    <path fill="black" d="M0.54 0.3c0,0.02 0.02,0.02 0.03,0.03 0.03,0.03 0.03,0.07 0,0.09 0,0.01 -0.01,0.01 -0.02,0.01 -0.02,0.01 -0.01,0.05 0.01,0.05 0.02,0 0.03,-0.01 0.04,-0.02 0.01,0 0.01,-0.01 0.02,-0.02 0.04,-0.05 0.03,-0.12 -0.02,-0.15 -0.01,0 -0.02,-0.01 -0.04,-0.01 -0.01,0 -0.02,0.01 -0.02,0.02z"/>
   </g>
  </g>
 </g>
</svg>
