<?xml version="1.0" encoding="UTF-8"?>
<!DOCTYPE svg PUBLIC "-//W3C//DTD SVG 1.0//EN" "http://www.w3.org/TR/2001/REC-SVG-20010904/DTD/svg10.dtd">
<!-- Creator: CorelDRAW 2018 (64 Bit Versão de avaliação) -->
<svg xmlns="http://www.w3.org/2000/svg" xml:space="preserve" width="47px" height="41px" version="1.0" shape-rendering="geometricPrecision" text-rendering="geometricPrecision" image-rendering="optimizeQuality" fill-rule="evenodd" clip-rule="evenodd"
viewBox="0 0 24.17 21.03"
 xmlns:xlink="http://www.w3.org/1999/xlink">
 <g id="Camada_x0020_1">
  <metadata id="CorelCorpID_0Corel-Layer"/>
  <path fill="black" d="M0 12.09c0,0.79 0.19,2.14 0.37,2.87 0.21,0.84 0.52,1.67 0.88,2.37 0.18,0.37 0.36,0.71 0.58,1.04 0.35,0.55 0.93,1.37 1.4,1.84 0.47,0.47 0.51,0.68 1.19,0.68 0.52,0 0.99,-0.53 0.99,-1.03 0,-0.57 -0.69,-1.06 -1.2,-1.75 -0.32,-0.42 -0.53,-0.72 -0.79,-1.19 -0.27,-0.49 -0.82,-1.56 -0.86,-2.08 0.25,-0.02 0.6,-0.15 0.85,-0.22 0.98,-0.28 1.9,-0.3 1.9,-1.4 0,-0.61 -0.51,-0.93 -1.13,-0.93 -0.23,0 -1.9,0.43 -2.02,0.49 0,-2.16 0.19,-3.75 1.33,-5.65 0.13,-0.21 0.28,-0.43 0.39,-0.65 1.33,0.89 1.53,1.75 2.77,1.05 0.48,-0.26 0.48,-0.98 0.14,-1.4 -0.17,-0.22 -1.31,-1.01 -1.48,-1.27 0.07,-0.1 0.43,-0.4 0.54,-0.49 1.47,-1.12 2.41,-1.59 4.23,-2.02 0.21,-0.05 0.69,-0.14 0.93,-0.14 0,1.12 -0.23,2.55 1.08,2.55 1.32,0 1.09,-1.43 1.09,-2.55 1.21,0 3.44,0.88 4.5,1.68 0.36,0.27 0.92,0.62 1.15,0.97l-1.39 1.12c-0.71,0.76 0.26,2.49 1.42,1.57 0.3,-0.25 1.11,-0.96 1.39,-1.11 0.55,1.02 0.88,1.25 1.34,2.74 0.43,1.41 0.43,2.21 0.43,3.69 -1.37,-0.31 -2.22,-0.87 -2.86,-0.21 -0.39,0.4 -0.46,1.02 -0.01,1.47 0.34,0.34 1.03,0.4 1.59,0.57 0.22,0.07 0.71,0.15 0.89,0.24 -0.06,0.77 -1.1,2.58 -1.64,3.27 -0.46,0.59 -1.21,1.19 -1.21,1.74 0,0.79 1.05,1.48 1.68,0.8 1.75,-1.86 2.76,-3.22 3.39,-5.9 0.14,-0.58 0.18,-1.01 0.27,-1.6 0.03,-0.22 0,-0.4 0.02,-0.62 0.23,-2.77 -0.75,-5.38 -2.24,-7.54 -0.8,-1.16 -2.01,-2.28 -3.15,-3.05 -1.72,-1.17 -3.4,-1.69 -5.46,-1.96 -2.7,-0.36 -5.87,0.52 -8.05,2.11 -1.29,0.94 -2.06,1.64 -3.03,3.02 -0.75,1.06 -1.06,1.79 -1.54,2.98 -0.39,1 -0.67,2.8 -0.67,3.9zm11.36 2.41c-0.92,0 -1.48,-1.29 -0.59,-1.86 0.16,-0.1 0.29,-0.15 0.45,-0.25 0.16,-0.09 0.27,-0.15 0.45,-0.24 0.3,-0.15 1.53,-0.77 1.85,-0.85 -0.5,1.05 -1.06,3.2 -2.16,3.2zm-3.1 -1.18c0,1.01 0.16,1.81 0.87,2.52 1.09,1.1 3.16,1.17 4.33,0.12l0.15 -0.14c0.54,-0.51 1.07,-1.84 1.4,-2.53 0.41,-0.86 0.97,-2.4 1.33,-3.34 0.07,-0.19 0.18,-0.39 0.18,-0.61 0,-0.57 -0.44,-0.99 -1.13,-0.99 -0.64,0 -3.72,1.49 -4.28,1.77 -0.69,0.35 -1.29,0.67 -1.86,1.14 -0.46,0.37 -0.99,1.24 -0.99,2.06z"/>
 </g>
</svg>
