<?xml version="1.0" encoding="UTF-8"?>
<!DOCTYPE svg PUBLIC "-//W3C//DTD SVG 1.0//EN" "http://www.w3.org/TR/2001/REC-SVG-20010904/DTD/svg10.dtd">
<!-- Creator: CorelDRAW 2018 (64 Bit Versão de avaliação) -->
<svg xmlns="http://www.w3.org/2000/svg" xml:space="preserve" width="41px" height="41px" version="1.0" shape-rendering="geometricPrecision" text-rendering="geometricPrecision" image-rendering="optimizeQuality" fill-rule="evenodd" clip-rule="evenodd"
viewBox="0 0 0.91 0.91"
 xmlns:xlink="http://www.w3.org/1999/xlink">
 <g id="Camada_x0020_1">
  <metadata id="CorelCorpID_0Corel-Layer"/>
  <path fill="black" d="M0.78 0.83l-0.45 0 0 -0.17 0.5 0 0 0.12c0,0.03 -0.02,0.05 -0.05,0.05zm-0.7 -0.05l0 -0.12 0.17 0 0 0.17 -0.12 0c-0.03,0 -0.05,-0.02 -0.05,-0.05zm0.25 -0.45l0.5 0 0 0.25 -0.5 0 0 -0.25zm-0.25 0l0.17 0 0 0.25 -0.17 0 0 -0.25zm0.25 -0.25l0.45 0c0.03,0 0.05,0.02 0.05,0.05l0 0.12 -0.5 0 0 -0.17zm-0.25 0.05c0,-0.03 0.02,-0.05 0.05,-0.05l0.12 0 0 0.17 -0.17 0 0 -0.12zm-0.08 -0.01l0 0.67c0,0.07 0.06,0.12 0.12,0.12l0.67 0c0.07,0 0.12,-0.05 0.12,-0.12l0 -0.67c0,-0.06 -0.05,-0.12 -0.12,-0.12l-0.67 0c-0.06,0 -0.12,0.06 -0.12,0.12z"/>
 </g>
</svg>
