<?xml version="1.0" encoding="UTF-8"?>
<!DOCTYPE svg PUBLIC "-//W3C//DTD SVG 1.0//EN" "http://www.w3.org/TR/2001/REC-SVG-20010904/DTD/svg10.dtd">
<!-- Creator: CorelDRAW 2018 (64 Bit Versão de avaliação) -->
<svg xmlns="http://www.w3.org/2000/svg" xml:space="preserve" width="41px" height="41px" version="1.0" shape-rendering="geometricPrecision" text-rendering="geometricPrecision" image-rendering="optimizeQuality" fill-rule="evenodd" clip-rule="evenodd"
viewBox="0 0 0.91 0.91"
 xmlns:xlink="http://www.w3.org/1999/xlink">
 <g id="Camada_x0020_1">
  <metadata id="CorelCorpID_0Corel-Layer"/>
  <path fill="black" d="M0.72 0.79c0,0 0.01,0 0.01,0 0.01,-0.01 0.05,-0.01 0.07,-0.01 0.04,0 0.03,0.03 0.03,0.07l-0.11 0 0 -0.06zm0.19 0.09l0 0c0,0.02 -0.01,0.03 -0.02,0.03l-0.86 0c-0.01,0 -0.02,-0.01 -0.02,-0.01 -0.01,0 -0.01,-0.01 -0.01,-0.02l0 -0.01c0,-0.01 0.01,-0.02 0.03,-0.02 0,-0.03 0,-0.07 0.02,-0.1 0.01,-0.02 0.03,-0.02 0.06,-0.02 0,-0.02 0,-0.04 0.01,-0.05 0,-0.02 0.02,-0.04 0.03,-0.05 0.01,0 0.01,0 0.01,0l0 0c0,0 0.01,0 0.01,0 -0.01,0 -0.03,0 -0.04,-0.01 -0.05,0 -0.02,0 -0.07,0.01 -0.01,0 -0.02,0 -0.03,0 -0.02,0 -0.03,-0.01 -0.03,-0.02l0 -0.59c0,-0.01 0.01,-0.02 0.02,-0.02l0.87 0c0.01,0 0.02,0.01 0.02,0.02l0 0.59c0,0 0,0.01 0,0.01 -0.02,0.02 -0.07,0 -0.1,0l-0.06 0.01c0,0.01 0.02,0.01 0.04,0.03 0.01,0.02 0.01,0.04 0.01,0.06 0.03,0.01 0.04,0 0.06,0.03 0.01,0.01 0.02,0.02 0.02,0.03 0.01,0.02 0,0.05 0,0.07l0.01 0c0.01,0 0.02,0.01 0.02,0.03zm-0.35 -0.08c0,-0.03 0.04,-0.02 0.08,-0.02 0.01,0 0.02,0 0.02,0.01 0.01,0.01 0.01,0.05 0.01,0.06l-0.11 0 0 -0.05zm-0.16 0c0,-0.03 0.05,-0.02 0.07,-0.02 0.05,0 0.04,0.02 0.04,0.07l-0.11 0 0 -0.05zm-0.16 0.02c0,-0.05 0.02,-0.04 0.08,-0.04 0.04,0 0.03,0.02 0.03,0.07l-0.11 0 0 -0.03zm-0.15 -0.01c0,-0.04 0.02,-0.03 0.07,-0.03 0.04,0 0.03,0.01 0.03,0.07l-0.1 0 0 -0.04zm0.57 -0.13l0.07 0c0.02,0 0.02,0.03 0.02,0.05 -0.02,0 -0.04,0 -0.05,0.01 -0.04,-0.02 -0.03,-0.01 -0.06,-0.02 0,-0.02 0,-0.04 0.02,-0.04zm-0.33 0.04c0,-0.04 -0.01,-0.04 0.08,-0.04 0.02,0 0.02,0.03 0.02,0.04 0,0.01 -0.01,0 -0.03,0.01 -0.01,0 -0.02,0.01 -0.02,0.01 -0.01,0 -0.02,-0.01 -0.03,-0.01 -0.02,-0.01 -0.02,0 -0.02,-0.01zm-0.16 0c0,-0.04 0,-0.04 0.08,-0.04 0.02,0 0.02,0.02 0.02,0.04 -0.02,0.01 -0.03,0.01 -0.04,0.02 0,0 0,0 -0.01,0l0 0c-0.01,0 -0.02,-0.01 -0.04,-0.01 -0.01,0 -0.01,0 -0.01,-0.01zm0.42 0.01c-0.02,0 -0.02,0 -0.04,0 0,0 -0.01,0.01 -0.02,0.01 0,0 0,-0.01 -0.01,-0.01 -0.02,0 -0.02,0 -0.03,0 0,-0.05 -0.01,-0.05 0.08,-0.05 0.02,0 0.02,0.02 0.02,0.03 0,0.01 0,0.01 0,0.02zm-0.39 -0.14l0.51 0c0,0.01 0.01,0.02 0.01,0.02 0,0.01 0,0.01 0.01,0.02 -0.03,0 -0.08,0 -0.09,0 -0.01,0.01 -0.02,0.01 -0.02,0.02 -0.02,-0.01 -0.03,-0.02 -0.05,-0.02 -0.03,0 -0.07,0 -0.09,0 -0.01,0.01 -0.01,0.01 -0.01,0.01l-0.01 0c0,0.01 0,0 0,0.01 -0.02,-0.01 -0.03,-0.02 -0.05,-0.02 -0.02,0 -0.07,0 -0.09,0 -0.01,0.01 -0.01,0.01 -0.01,0.01l-0.01 0.01c-0.02,-0.01 -0.02,-0.02 -0.05,-0.02 -0.02,0 -0.04,0 -0.06,0 0,-0.01 0.01,-0.01 0.01,-0.04zm0 -0.41c0.01,0 0.02,0.01 0.04,0.01 0.02,0 0.05,-0.01 0.06,-0.02 0.01,0 0.02,0 0.03,-0.01 0,-0.01 0.01,-0.01 0.02,-0.02 0.01,0.01 0.04,0.05 0.1,0.05 0.04,0 0.06,-0.01 0.1,-0.03 0,-0.01 0.01,-0.01 0.02,-0.02 0.01,0.01 0.02,0.02 0.04,0.03 0.03,0.02 0.04,0.02 0.08,0.02 0.01,0 0.01,-0.01 0.02,-0.01l0 0.36 -0.51 0 0 -0.36zm0.59 0l0 0.39c-0.01,0 -0.01,0 -0.02,0l0 -0.41c0,-0.01 0.01,-0.01 0.01,-0.01 0.01,-0.01 0.02,-0.02 0.03,-0.04 0.01,-0.01 0.02,-0.03 0.02,-0.06l0.03 0 0 0.52c-0.02,0 -0.02,0 -0.02,-0.01l0 -0.38c0,-0.04 -0.05,-0.04 -0.05,0zm-0.74 0.39l0 -0.52c0.05,0 0.01,0 0.05,0.06 0.01,0.01 0.01,0.02 0.02,0.03 0.01,0 0.02,0.01 0.03,0.02l0 0.41c-0.01,0 -0.01,0 -0.02,0l0 -0.39c0,-0.01 -0.01,-0.03 -0.03,-0.03 -0.04,0 -0.03,0.04 -0.03,0.09l0 0.32c0,0.01 0,0.01 0,0.01 0,0 -0.02,0 -0.02,0zm0.63 -0.44c-0.03,0 -0.07,-0.01 -0.08,-0.03 0,-0.01 0.01,-0.03 0.01,-0.05l0.17 0c0,0.02 -0.02,0.04 -0.04,0.06 -0.01,0.01 -0.03,0.02 -0.06,0.02zm-0.32 -0.08l0.2 0c0,0.02 -0.02,0.05 -0.04,0.06 -0.01,0.01 -0.04,0.02 -0.06,0.02 -0.01,0 -0.03,0 -0.04,-0.01 -0.03,-0.01 -0.06,-0.04 -0.06,-0.07zm-0.22 0l0.16 0c0,0.02 0.01,0.04 0.01,0.05 -0.01,0.01 -0.02,0.03 -0.07,0.03 -0.05,0 -0.1,-0.04 -0.1,-0.08z"/>
 </g>
</svg>
