<?xml version="1.0" encoding="UTF-8"?>
<!DOCTYPE svg PUBLIC "-//W3C//DTD SVG 1.0//EN" "http://www.w3.org/TR/2001/REC-SVG-20010904/DTD/svg10.dtd">
<!-- Creator: CorelDRAW 2018 (64 Bit Versão de avaliação) -->
<svg xmlns="http://www.w3.org/2000/svg" xml:space="preserve" width="41px" height="41px" version="1.0" shape-rendering="geometricPrecision" text-rendering="geometricPrecision" image-rendering="optimizeQuality" fill-rule="evenodd" clip-rule="evenodd"
viewBox="0 0 3.46 3.46"
 xmlns:xlink="http://www.w3.org/1999/xlink">
 <g id="Camada_x0020_1">
  <metadata id="CorelCorpID_0Corel-Layer"/>
  <path fill="black" d="M0.88 3.46c0.15,0 0.39,-0.18 0.54,-0.25 0.06,-0.03 0.28,-0.17 0.3,-0.17 0.03,0 0.08,0.04 0.1,0.05l0.41 0.22c0.02,0.02 0.03,0.02 0.05,0.03 0.03,0.01 0.03,0.02 0.05,0.03 0.12,0.06 0.21,0.13 0.38,0.06 0.08,-0.04 0.14,-0.09 0.18,-0.18 0.07,-0.14 0.02,-0.27 -0.01,-0.44 -0.01,-0.11 -0.03,-0.21 -0.05,-0.31 -0.01,-0.05 -0.01,-0.1 -0.02,-0.15 -0.01,-0.06 -0.03,-0.11 -0.01,-0.14 0.03,-0.03 0.07,-0.06 0.09,-0.09 0.02,-0.02 0.02,-0.03 0.04,-0.05 0.02,-0.02 0.03,-0.03 0.05,-0.04 0.06,-0.06 0.11,-0.12 0.17,-0.18l0.09 -0.09c0.09,-0.09 0.19,-0.18 0.21,-0.31 0.03,-0.2 -0.09,-0.37 -0.28,-0.4l-0.76 -0.12c-0.04,-0.01 -0.1,-0.18 -0.13,-0.23l-0.22 -0.48c-0.07,-0.15 -0.19,-0.22 -0.35,-0.22 -0.07,0 -0.11,0.02 -0.15,0.05 -0.11,0.05 -0.16,0.17 -0.21,0.28 -0.01,0.02 -0.02,0.04 -0.03,0.07 -0.02,0.05 -0.04,0.09 -0.06,0.13 -0.03,0.05 -0.04,0.09 -0.07,0.14l-0.09 0.2c-0.03,0.07 -0.04,0.06 -0.21,0.09l-0.52 0.07c-0.14,0.03 -0.19,0.04 -0.27,0.12 -0.07,0.07 -0.11,0.18 -0.1,0.29 0.03,0.15 0.14,0.23 0.25,0.34 0.02,0.02 0.02,0.04 0.04,0.06 0.02,0.02 0.03,0.03 0.05,0.05l0.15 0.14c0.04,0.05 0.07,0.09 0.14,0.16 0.05,0.05 0.04,0.04 0.02,0.15l-0.11 0.68c-0.02,0.16 0.01,0.26 0.11,0.34 0.06,0.06 0.15,0.1 0.23,0.1z"/>
 </g>
</svg>
