<?xml version="1.0" encoding="UTF-8"?>
<!DOCTYPE svg PUBLIC "-//W3C//DTD SVG 1.0//EN" "http://www.w3.org/TR/2001/REC-SVG-20010904/DTD/svg10.dtd">
<!-- Creator: CorelDRAW 2018 (64 Bit Versão de avaliação) -->
<svg xmlns="http://www.w3.org/2000/svg" xml:space="preserve" width="41px" height="41px" version="1.0" shape-rendering="geometricPrecision" text-rendering="geometricPrecision" image-rendering="optimizeQuality" fill-rule="evenodd" clip-rule="evenodd"
viewBox="0 0 0.75 0.75"
 xmlns:xlink="http://www.w3.org/1999/xlink">
 <g id="Camada_x0020_1">
  <metadata id="CorelCorpID_0Corel-Layer"/>
  <path fill="black" d="M0.37 0.08l0.06 0.11c0.02,0.04 0.03,0.08 0.08,0.09l0.17 0.02c-0.01,0.01 -0.03,0.03 -0.04,0.05l-0.03 0.02c-0.01,0.02 -0.06,0.06 -0.07,0.07 -0.02,0.04 -0.01,0.07 0,0.12 0,0.02 0.01,0.04 0.01,0.06l0.01 0.06c-0.04,-0.03 -0.11,-0.07 -0.15,-0.09 -0.02,-0.01 -0.02,0 -0.04,0 -0.02,0 -0.03,0.01 -0.05,0.01l-0.02 0.02c-0.01,0 -0.01,0 -0.02,0.01 -0.01,0 -0.01,0.01 -0.02,0.01 -0.01,0 -0.01,0 -0.01,0 -0.01,0.01 -0.05,0.03 -0.06,0.03l0.01 -0.05c0.01,-0.02 0.01,-0.04 0.01,-0.06 0.01,-0.05 0.02,-0.08 0,-0.11 -0.01,-0.02 -0.05,-0.06 -0.06,-0.07 -0.01,-0.01 -0.01,-0.01 -0.02,-0.02l-0.03 -0.03c-0.03,-0.03 -0.02,-0.03 -0.01,-0.03 0.02,0 0.02,0 0.03,0l0.12 -0.02c0.02,-0.01 0.03,-0.01 0.05,-0.02 0.01,-0.02 0.03,-0.07 0.04,-0.09 0.01,-0.01 0.04,-0.08 0.04,-0.09zm-0.18 0.67c0.03,0 0.09,-0.03 0.12,-0.05 0.01,-0.01 0.06,-0.04 0.07,-0.04 0,0 0.01,0.01 0.02,0.01l0.09 0.05c0,0 0,0.01 0.01,0.01 0,0 0,0 0.01,0 0.02,0.02 0.04,0.03 0.08,0.02 0.02,-0.01 0.03,-0.02 0.04,-0.04 0.01,-0.03 0,-0.06 0,-0.1 -0.01,-0.02 -0.01,-0.04 -0.01,-0.07 0,-0.01 -0.01,-0.02 -0.01,-0.03 0,-0.01 0,-0.02 0,-0.03 0.01,-0.01 0.01,-0.01 0.02,-0.02 0,0 0,0 0.01,-0.01 0,0 0.01,0 0.01,-0.01 0.01,-0.01 0.02,-0.02 0.04,-0.04l0.02 -0.02c0.02,-0.02 0.04,-0.03 0.04,-0.06 0.01,-0.05 -0.02,-0.08 -0.06,-0.09l-0.17 -0.03c0,0 -0.02,-0.04 -0.02,-0.05l-0.05 -0.1c-0.02,-0.04 -0.04,-0.05 -0.08,-0.05 -0.01,0 -0.02,0.01 -0.03,0.01 -0.02,0.01 -0.03,0.04 -0.05,0.06 0,0.01 0,0.01 0,0.02 -0.01,0.01 -0.01,0.02 -0.02,0.03 0,0.01 -0.01,0.02 -0.01,0.03l-0.02 0.04c-0.01,0.02 -0.01,0.01 -0.05,0.02l-0.11 0.02c-0.03,0 -0.04,0 -0.06,0.02 -0.01,0.01 -0.02,0.04 -0.02,0.06 0.01,0.04 0.03,0.05 0.05,0.08 0.01,0 0.01,0.01 0.01,0.01 0.01,0 0.01,0.01 0.01,0.01l0.04 0.03c0.01,0.01 0.01,0.02 0.03,0.04 0.01,0.01 0.01,0.01 0,0.03l-0.02 0.15c-0.01,0.03 0,0.05 0.02,0.07 0.01,0.01 0.03,0.02 0.05,0.02z"/>
 </g>
</svg>
