<?xml version="1.0" encoding="UTF-8"?>
<!DOCTYPE svg PUBLIC "-//W3C//DTD SVG 1.0//EN" "http://www.w3.org/TR/2001/REC-SVG-20010904/DTD/svg10.dtd">
<!-- Creator: CorelDRAW 2018 (64 Bit Versão de avaliação) -->
<svg xmlns="http://www.w3.org/2000/svg" xml:space="preserve" width="41px" height="41px" version="1.0" shape-rendering="geometricPrecision" text-rendering="geometricPrecision" image-rendering="optimizeQuality" fill-rule="evenodd" clip-rule="evenodd"
viewBox="0 0 1.33 1.33"
 xmlns:xlink="http://www.w3.org/1999/xlink">
 <g id="Camada_x0020_1">
  <metadata id="CorelCorpID_0Corel-Layer"/>
  <path fill="#292929" d="M0.12 1.16c0,-0.08 0.08,-0.06 0.08,-0.02l0 0.02c0,0.04 -0.08,0.05 -0.08,0zm0.03 -1.16l0.02 0c0.01,0 0.02,0.01 0.03,0.02 0.1,0.1 0.29,-0.02 0.42,-0.02l0 0 0.03 0c0.05,0 0.14,0 0.16,0.03 0.02,0.01 0.02,0.03 0.02,0.05 0,0.02 -0.05,0.1 -0.06,0.12 -0.03,0.05 -0.03,0.02 0.02,0.13 0.01,0.03 0.04,0.06 0.04,0.1 0,0.08 -0.1,0.04 -0.14,0.04l-0.08 0c-0.08,0 -0.18,0.06 -0.28,0.06 -0.08,0 -0.09,-0.01 -0.11,-0.01l0 0.48c0.03,0.01 0.08,0.05 0.09,0.09l0.82 0c-0.02,-0.02 -0.04,-0.04 -0.04,-0.07 0,-0.06 0.06,-0.09 0.12,-0.02 0.01,0.02 0.03,0.03 0.04,0.04 0.03,0.03 0.08,0.07 0.08,0.11 0,0.03 -0.06,0.08 -0.08,0.1 -0.01,0.02 -0.03,0.04 -0.05,0.05 0,0.01 -0.01,0.02 -0.02,0.02 -0.01,0.01 -0.02,0.01 -0.03,0.01l-0.01 0c-0.03,0 -0.06,-0.02 -0.05,-0.06 0,-0.01 0.01,-0.03 0.02,-0.04 0.01,-0.01 0.01,-0.01 0.02,-0.03l-0.82 0c-0.01,0.05 -0.08,0.11 -0.13,0.11l-0.04 0c-0.07,0 -0.14,-0.08 -0.14,-0.15l0 -0.03c0,-0.06 0.06,-0.12 0.1,-0.13l0 -0.92c0,-0.05 0.02,-0.07 0.05,-0.08zm0.47 0.23c0,0.03 0.04,0.1 0.05,0.12 -0.03,0 -0.03,0.01 -0.06,0.01 -0.05,0 -0.13,0.02 -0.17,0.03 -0.05,0.02 -0.12,0.03 -0.17,0.02 -0.02,-0.01 -0.04,-0.01 -0.05,-0.02l0 -0.23c0.04,0.01 0.02,0.01 0.1,0.01 0.1,0 0.18,-0.03 0.26,-0.05 0.03,0 0.06,0 0.1,0 -0.01,0.02 -0.06,0.09 -0.06,0.11z"/>
 </g>
</svg>
