<?xml version="1.0" encoding="UTF-8"?>
<!DOCTYPE svg PUBLIC "-//W3C//DTD SVG 1.0//EN" "http://www.w3.org/TR/2001/REC-SVG-20010904/DTD/svg10.dtd">
<!-- Creator: CorelDRAW 2018 (64 Bit Versão de avaliação) -->
<svg xmlns="http://www.w3.org/2000/svg" xml:space="preserve" width="42px" height="42px" version="1.0" shape-rendering="geometricPrecision" text-rendering="geometricPrecision" image-rendering="optimizeQuality" fill-rule="evenodd" clip-rule="evenodd"
viewBox="0 0 0.78 0.78"
 xmlns:xlink="http://www.w3.org/1999/xlink">
 <g id="Camada_x0020_1">
  <metadata id="CorelCorpID_0Corel-Layer"/>
  <g id="_2463139959088">
   <path fill="#292929" d="M0.33 0.05c0.01,-0.03 -0.02,-0.06 -0.07,-0.04 -0.07,0.03 -0.14,0.07 -0.18,0.13 -0.07,0.1 -0.1,0.24 -0.06,0.36 0.02,0.05 0.03,0.08 0.06,0.13 0.01,0 0.01,0.01 0.02,0.01 0.01,0.01 0.01,0.01 0.01,0.02 0.01,0 0.02,0.02 0.04,0.03 0,0.01 0.01,0.01 0.02,0.01 0,0.01 0.01,0.01 0.02,0.02 0.05,0.03 0.11,0.05 0.19,0.06 0.04,0 0.08,0 0.12,-0.01 0.05,-0.02 0.1,-0.04 0.15,-0.08 0,0 0.01,-0.01 0.01,-0.01 0.01,-0.01 0.01,-0.01 0.01,-0.01l0.03 -0.02c0.01,-0.02 0.01,-0.02 0.02,-0.04 0.02,-0.02 0.07,-0.1 0.06,-0.14 -0.01,-0.02 -0.04,-0.03 -0.07,-0.02 0,0.01 -0.01,0.01 -0.01,0.02 -0.02,0.03 -0.02,0.05 -0.04,0.09 -0.01,0 -0.01,0.01 -0.02,0.02 -0.01,0.01 -0.03,0.03 -0.04,0.04 -0.04,0.03 -0.08,0.06 -0.13,0.07 -0.09,0.01 -0.15,0 -0.22,-0.03 -0.02,-0.01 -0.03,-0.03 -0.05,-0.04 -0.01,-0.01 -0.02,-0.02 -0.03,-0.02 0,-0.01 0,-0.01 -0.01,-0.01 -0.06,-0.07 -0.09,-0.17 -0.07,-0.27 0.01,-0.03 0.02,-0.07 0.04,-0.09 0.01,-0.03 0.03,-0.06 0.05,-0.08 0.09,-0.07 0.14,-0.05 0.15,-0.1z"/>
   <path fill="#292929" d="M0.47 0.05c0,0.03 0.05,0.04 0.09,0.06 0.03,0.02 0.04,0.03 0.07,0.06 0.01,0.01 0.04,0.04 0.05,0.07 0.01,0.02 0.01,0.04 0.02,0.05 0.02,0.04 0.09,0.02 0.08,-0.03 -0.01,-0.03 -0.04,-0.08 -0.05,-0.11l-0.03 -0.03c0,0 0,0 -0.01,-0.01 -0.01,-0.01 -0.02,-0.02 -0.04,-0.04 -0.02,-0.02 -0.12,-0.08 -0.16,-0.07 -0.01,0.01 -0.03,0.03 -0.02,0.05z"/>
  </g>
 </g>
</svg>
