<?xml version="1.0" encoding="UTF-8"?>
<!DOCTYPE svg PUBLIC "-//W3C//DTD SVG 1.0//EN" "http://www.w3.org/TR/2001/REC-SVG-20010904/DTD/svg10.dtd">
<!-- Creator: CorelDRAW 2018 (64 Bit Versão de avaliação) -->
<svg xmlns="http://www.w3.org/2000/svg" xml:space="preserve" width="47px" height="41px" version="1.0" shape-rendering="geometricPrecision" text-rendering="geometricPrecision" image-rendering="optimizeQuality" fill-rule="evenodd" clip-rule="evenodd"
viewBox="0 0 1.19 1.03"
 xmlns:xlink="http://www.w3.org/1999/xlink">
 <g id="Camada_x0020_1">
  <metadata id="CorelCorpID_0Corel-Layer"/>
  <g id="_2751263686432">
   <g>
    <path fill="black" d="M0.2 0.56c0,0 0,0 0,0.01 0.03,0.01 0.05,0.02 0.08,0.04l0.03 0.02c0.01,0 0.01,0 0.02,0.01l0.07 0.04c0.02,0.01 0.05,0.03 0.06,0.03 0.02,0 0.04,-0.02 0.05,-0.03 0,-0.01 0,-0.01 0,-0.01l0.01 -0.01c0.01,-0.01 0.03,-0.04 0.03,-0.04l0 0.3c0,0 0,-0.01 -0.01,-0.01l-0.2 -0.1c-0.01,-0.01 -0.02,-0.02 -0.03,-0.02 -0.01,-0.01 -0.02,-0.01 -0.02,-0.01l-0.09 -0.05 0 -0.17zm-0.03 -0.24l0.06 0.03c0.01,0 0.01,0.01 0.01,0.01l0.05 0.02c0,0 0,0 0,0l0.04 0.02c0,0.01 0,0.01 0.01,0.01l0.04 0.02c0,0 0,0 0.01,0 0.01,0.01 0.03,0.02 0.05,0.03l0.01 0.01c0,0 0.01,0 0.01,0 0.02,0.02 0.05,0.03 0.07,0.04 0,0 -0.01,0.01 -0.01,0.01 0,0.01 -0.01,0.01 -0.01,0.01l-0.02 0.03c0,0.01 -0.04,0.04 -0.04,0.05l-0.02 -0.01c-0.01,-0.01 -0.02,-0.01 -0.02,-0.02 -0.01,0 -0.02,-0.01 -0.02,-0.01 -0.01,0 -0.01,0 -0.02,-0.01l-0.05 -0.03c-0.03,-0.01 -0.07,-0.04 -0.1,-0.05l-0.12 -0.07c0.03,-0.03 0.05,-0.06 0.07,-0.09zm0.57 0.29c0,-0.01 -0.03,-0.04 -0.04,-0.05 0,-0.01 -0.01,-0.02 -0.02,-0.03 0,0 -0.02,-0.02 -0.02,-0.02 0.01,0 0.01,-0.01 0.02,-0.01 0,0 0,0 0.01,0 0,-0.01 0,-0.01 0.01,-0.01 0,0 0.01,0 0.01,-0.01l0.09 -0.05c0.02,0 0.03,-0.01 0.04,-0.02l0.03 -0.01c0,0 0,-0.01 0,-0.01l0.16 -0.08c0,0 0,0.01 0,0.01 0.01,0.01 0.01,0.01 0.01,0.02l0.03 0.03c0,0.01 0.02,0.04 0.02,0.04 0,0 -0.02,0.01 -0.02,0.01 -0.03,0.01 -0.05,0.03 -0.07,0.04 -0.01,0 -0.01,0.01 -0.02,0.01l-0.02 0.01c-0.01,0.01 -0.02,0.01 -0.02,0.02 -0.03,0.01 -0.06,0.03 -0.08,0.04 0,0 -0.01,0 -0.01,0.01l-0.04 0.02c-0.01,0.01 -0.07,0.04 -0.07,0.04zm-0.15 -0.16l-0.17 -0.1c-0.01,0 -0.03,-0.02 -0.05,-0.02 -0.01,-0.01 -0.01,-0.01 -0.01,-0.01l-0.11 -0.06c0,0 0.1,-0.05 0.11,-0.05 0,0 0.01,-0.01 0.02,-0.01l0.13 -0.07c0.01,0 0.01,0 0.02,-0.01 0.01,0 0.02,0 0.02,-0.01 0,0 0.01,0 0.01,0l0.01 -0.01c0.01,0 0.02,-0.01 0.03,-0.01 0,0 0.03,0.02 0.04,0.02l0.04 0.02c0.01,0 0.02,0.01 0.02,0.01l0.06 0.03c0,0 0.01,0 0.01,0 0,0 0.01,0.01 0.01,0.01 0,0 0.01,0 0.01,0l0.11 0.05c0,0.01 0.01,0.01 0.01,0.01 0.01,0 0.03,0.01 0.03,0.01l-0.17 0.1c-0.03,0.01 -0.07,0.04 -0.1,0.05 -0.01,0.01 -0.02,0.02 -0.03,0.02l-0.02 0.01c-0.01,0.01 -0.01,0.01 -0.01,0.01 0,0 0,0 0,0 -0.01,0 -0.01,0.01 -0.02,0.01zm-0.48 0.06l0 0.19c0,0 0,0.01 0,0.01 0,0.01 0,0.04 0,0.05 0,0.02 0.01,0.02 0.02,0.03l0.03 0.02c0.03,0.02 0.08,0.04 0.12,0.06 0.01,0 0.01,0.01 0.02,0.01l0.02 0.01c0.03,0.02 0.05,0.03 0.08,0.04 0,0.01 0,0.01 0,0.01 0.01,0 0.01,0 0.01,0l0.03 0.02c0,0 0,0 0.01,0 0,0 0.01,0.01 0.01,0.01l0.05 0.03c0.03,0.01 0.05,0.02 0.07,0.03 0.01,0 0.02,0 0.02,0 0.01,0 0.03,-0.01 0.04,-0.01l0.02 -0.01c0,0 0,-0.01 0,-0.01 0,0 0.01,0 0.01,0 0,0 0,0 0,0 0.03,-0.01 0.05,-0.03 0.08,-0.04 0,0 0,0 0,0 0.02,-0.01 0.04,-0.03 0.06,-0.04l0.05 -0.03c0,0 0,0 0.01,0 0.01,-0.01 0.03,-0.02 0.05,-0.03l0.01 0c0,-0.01 0,-0.01 0.01,-0.01l0.03 -0.01c0,-0.01 0,-0.01 0.01,-0.01l0.06 -0.04c0.02,0 0.03,-0.01 0.04,-0.02 0,-0.02 0.01,-0.03 0,-0.04 0,-0.01 -0.01,-0.01 -0.01,-0.01 0,-0.01 -0.01,-0.01 -0.01,-0.01 -0.01,-0.01 -0.01,-0.01 -0.02,-0.01 -0.01,0 -0.02,0.01 -0.03,0.01 -0.02,0.01 -0.05,0.03 -0.07,0.04 -0.01,0.01 -0.01,0.01 -0.02,0.01l-0.08 0.05c-0.01,0 -0.01,0 -0.02,0l-0.04 0.03c-0.02,0.01 -0.03,0.02 -0.05,0.03l-0.02 0.01c-0.01,0 -0.03,0.01 -0.04,0.02 0,0 -0.01,0 -0.01,0 0,0.01 0,0.01 -0.01,0.01l-0.01 0.01 0 -0.3c0,0 0.01,0.01 0.01,0.01l0.01 0.02c0.02,0.02 0.04,0.06 0.07,0.06 0.02,0 0.03,-0.01 0.05,-0.02 0.02,-0.02 0.05,-0.03 0.07,-0.05l0.15 -0.08c0.02,-0.01 0.04,-0.02 0.06,-0.03 0.01,-0.01 0.02,-0.01 0.03,-0.02 0.02,-0.01 0.04,-0.02 0.06,-0.03 0.01,-0.01 0.04,-0.03 0.04,-0.05 0,-0.01 0,-0.02 -0.01,-0.03 0,-0.01 0,-0.01 0,-0.01l-0.06 -0.09c0,-0.01 -0.01,-0.01 -0.01,-0.02 0,0 0,0 0,-0.01 -0.01,-0.01 -0.03,-0.03 -0.04,-0.05 -0.01,-0.01 -0.06,-0.03 -0.08,-0.04 0,0 -0.01,0 -0.01,-0.01l-0.03 -0.01c-0.02,-0.01 -0.03,-0.01 -0.04,-0.02 0,0 0,0 -0.01,0l-0.02 -0.01c0,0 0,0 0,0 -0.03,-0.02 -0.06,-0.03 -0.09,-0.04 -0.01,-0.01 -0.02,-0.02 -0.04,-0.02 -0.02,-0.02 -0.05,-0.03 -0.07,-0.04l-0.04 -0.01c-0.02,-0.01 -0.04,-0.02 -0.06,-0.02 -0.02,0.01 -0.03,0.01 -0.04,0.02 -0.05,0.03 -0.1,0.05 -0.15,0.08l-0.23 0.11c-0.04,0.01 -0.04,0.02 -0.06,0.05 -0.01,0.02 -0.02,0.03 -0.03,0.05l-0.02 0.02c-0.01,0.02 -0.02,0.03 -0.03,0.05 0,0 0,0 0,0 -0.01,0.01 -0.02,0.02 -0.02,0.03 0,0.01 0,0.01 0,0.02 0,0.03 0.03,0.04 0.05,0.05 0.01,0.01 0.05,0.02 0.06,0.03z"/>
    <path fill="black" d="M1.04 0.68c0.01,0 0.01,0 0.02,-0.01 0.01,0 0.02,-0.01 0.02,-0.02 0.01,-0.02 0.01,-0.05 -0.02,-0.06 -0.01,-0.01 -0.04,-0.01 -0.05,0.01 -0.03,0.02 -0.01,0.08 0.03,0.08z"/>
   </g>
  </g>
 </g>
</svg>
