<?xml version="1.0" encoding="UTF-8"?>
<!DOCTYPE svg PUBLIC "-//W3C//DTD SVG 1.0//EN" "http://www.w3.org/TR/2001/REC-SVG-20010904/DTD/svg10.dtd">
<!-- Creator: CorelDRAW 2018 (64 Bit Versão de avaliação) -->
<svg xmlns="http://www.w3.org/2000/svg" xml:space="preserve" width="41px" height="41px" version="1.0" shape-rendering="geometricPrecision" text-rendering="geometricPrecision" image-rendering="optimizeQuality" fill-rule="evenodd" clip-rule="evenodd"
viewBox="0 0 3.97 3.97"
 xmlns:xlink="http://www.w3.org/1999/xlink">
 <g id="Camada_x0020_1">
  <metadata id="CorelCorpID_0Corel-Layer"/>
  <g id="_2751006491888">
   <path fill="black" d="M1.3 1.18c-0.09,0.01 -0.17,0.11 -0.23,0.18 -0.05,0.03 -0.09,0.08 -0.13,0.12 -0.07,0.06 -0.13,0.1 -0.23,0.1 -0.31,0.01 -0.47,-0.34 -0.28,-0.55l0.06 -0.07c0,0 0.01,-0.01 0.02,-0.02 0.03,-0.02 0.05,-0.05 0.08,-0.08 0.08,-0.07 0.15,-0.15 0.23,-0.22 0.01,-0.01 0.01,-0.02 0.02,-0.02l0.14 -0.15c0.04,-0.03 0.07,-0.06 0.12,-0.09 0.1,-0.05 0.17,-0.03 0.29,-0.03l0.99 0c0.11,0 0.23,0 0.34,0 0.06,0 0.08,0 0.14,0.02 0.04,0.02 0.11,0.08 0.14,0.11 0.03,0.04 0.21,0.22 0.29,0.29 0.08,0.09 0.27,0.24 0.31,0.35 0.03,0.09 0.03,0.19 -0.01,0.27 -0.08,0.16 -0.29,0.23 -0.45,0.16 -0.04,-0.02 -0.07,-0.04 -0.1,-0.06 -0.02,-0.02 -0.13,-0.13 -0.17,-0.16 -0.05,-0.05 -0.11,-0.13 -0.18,-0.15 -0.05,-0.01 -0.09,0 -0.13,0.02 -0.06,0.04 -0.07,0.11 -0.15,0.18 -0.06,0.05 -0.12,0.1 -0.21,0.13 -0.18,0.07 -0.38,0.04 -0.53,-0.05 -0.04,-0.02 -0.11,-0.08 -0.14,-0.11 -0.03,-0.04 -0.08,-0.12 -0.11,-0.14 -0.02,-0.02 -0.08,-0.04 -0.12,-0.03zm-0.01 0.44c0.05,0.01 0.08,0.06 0.14,0.1 0.05,0.03 0.1,0.06 0.15,0.09 0.24,0.12 0.56,0.12 0.8,0 0.11,-0.05 0.14,-0.08 0.23,-0.14 0.02,-0.02 0.04,-0.05 0.07,-0.05 0.02,0.03 0.14,0.14 0.18,0.17 0.36,0.28 0.95,0.12 1.08,-0.36 0.06,-0.2 0.02,-0.41 -0.08,-0.56 -0.07,-0.1 -0.2,-0.21 -0.29,-0.31 -0.01,0 -0.01,-0.01 -0.02,-0.02l-0.11 -0.11c-0.03,-0.02 -0.06,-0.05 -0.09,-0.08l-0.13 -0.13c-0.04,-0.04 -0.08,-0.08 -0.14,-0.12 -0.14,-0.09 -0.22,-0.1 -0.41,-0.1l-1.37 0c-0.18,0 -0.28,0.01 -0.42,0.11 -0.05,0.03 -0.09,0.07 -0.14,0.11 -0.05,0.05 -0.08,0.09 -0.13,0.13l-0.08 0.09c-0.09,0.08 -0.18,0.17 -0.26,0.25 -0.05,0.06 -0.12,0.11 -0.16,0.19 -0.1,0.15 -0.14,0.35 -0.08,0.55 0.1,0.36 0.49,0.57 0.85,0.47 0.12,-0.03 0.24,-0.1 0.32,-0.2 0.02,-0.01 0.03,-0.02 0.05,-0.04 0.01,-0.01 0.02,-0.03 0.04,-0.04z"/>
   <path fill="black" d="M1.65 3.62c-0.02,-0.06 -0.01,-0.14 -0.01,-0.2 0,-0.08 -0.01,-0.34 0,-0.4 0.01,-0.08 0.01,-0.11 0.04,-0.17 0.03,-0.04 0.06,-0.07 0.1,-0.11 0.14,-0.1 0.32,-0.09 0.45,0.04 0.09,0.09 0.1,0.17 0.1,0.3 0,0.05 0,0.49 0,0.51 -0.01,0.03 -0.04,0.03 -0.07,0.03 -0.13,0 -0.28,0 -0.41,0 -0.05,0 -0.16,0.01 -0.2,0zm1.71 -0.01c-0.08,0.02 -0.4,0.01 -0.52,0.01 -0.03,0 -0.06,0 -0.09,0 -0.04,0 -0.04,0.01 -0.07,-0.01l0 -0.49c0,-0.18 -0.01,-0.28 -0.08,-0.42 -0.1,-0.19 -0.32,-0.37 -0.62,-0.37 -0.29,0 -0.51,0.18 -0.61,0.37 -0.07,0.14 -0.08,0.25 -0.08,0.42 0,0.16 0,0.33 0.01,0.49 -0.04,0.01 -0.03,0.01 -0.08,0.01l-0.44 0c-0.07,0 -0.11,0.01 -0.17,-0.01 -0.01,-0.12 0,-0.47 0,-0.62l-0.01 -0.47c0,-0.06 0,-0.08 -0.03,-0.12 -0.06,-0.1 -0.23,-0.1 -0.29,0.03 -0.02,0.04 -0.02,0.09 -0.02,0.14l0 0.94c0,0.09 -0.01,0.21 0,0.31 0.01,0.08 0.08,0.14 0.16,0.15 0.1,0.01 0.21,0 0.31,0l2.5 0c0.1,0 0.22,0 0.31,0 0.09,-0.01 0.16,-0.07 0.17,-0.15 0,-0.04 0,-0.57 0,-0.63 0,-0.2 0,-0.41 0,-0.62 0,-0.1 0,-0.17 -0.09,-0.22 -0.07,-0.04 -0.17,-0.02 -0.22,0.05 -0.03,0.04 -0.03,0.07 -0.03,0.12l-0.01 0.78c0,0.1 0.01,0.22 0,0.31z"/>
  </g>
 </g>
</svg>
