<?xml version="1.0" encoding="UTF-8"?>
<!DOCTYPE svg PUBLIC "-//W3C//DTD SVG 1.0//EN" "http://www.w3.org/TR/2001/REC-SVG-20010904/DTD/svg10.dtd">
<!-- Creator: CorelDRAW 2018 (64 Bit Versão de avaliação) -->
<svg xmlns="http://www.w3.org/2000/svg" xml:space="preserve" width="44px" height="41px" version="1.0" shape-rendering="geometricPrecision" text-rendering="geometricPrecision" image-rendering="optimizeQuality" fill-rule="evenodd" clip-rule="evenodd"
viewBox="0 0 1.32 1.24"
 xmlns:xlink="http://www.w3.org/1999/xlink">
 <g id="Camada_x0020_1">
  <metadata id="CorelCorpID_0Corel-Layer"/>
  <path fill="black" d="M0.1 0.62l0.04 0.03c0.03,0.02 0.08,0.05 0.13,0.06 0.07,0.02 0.17,0.01 0.24,0.01 0.02,0.03 0.02,0.04 0.05,0.07 0.07,0.06 0.17,0.04 0.23,-0.03 0,0 0,-0.01 0.01,-0.02 0,0 0,-0.01 0.01,-0.02 0.15,0 0.25,0.02 0.37,-0.07 0.01,-0.01 0.03,-0.03 0.04,-0.03l0 0.43c0,0.03 0,0.08 -0.06,0.08l-1 0c-0.02,0 -0.04,0 -0.05,-0.02 -0.01,-0.01 -0.01,-0.03 -0.01,-0.06l0 -0.43zm0.51 0.05l0 -0.05 0.1 0 0 0.05c0,0.03 -0.02,0.05 -0.05,0.05 -0.03,0 -0.05,-0.02 -0.05,-0.05zm-0.45 -0.36l1 0c0.06,0 0.06,0.05 0.05,0.1 -0.02,0.12 -0.12,0.21 -0.26,0.21l-0.14 0 0 -0.06c0,-0.02 -0.02,-0.04 -0.04,-0.04l-0.22 0c-0.02,0 -0.04,0.02 -0.04,0.04l0 0.06c-0.14,0 -0.27,0.01 -0.35,-0.1 -0.03,-0.03 -0.04,-0.07 -0.05,-0.11 -0.01,-0.05 -0.01,-0.1 0.05,-0.1zm0.4 -0.21l0.2 0c0.04,0 0.07,0.02 0.09,0.03 0.02,0.01 0.02,0.02 0.03,0.03 0.01,0.01 0.02,0.03 0.03,0.05l-0.5 0c0.01,-0.03 0.03,-0.06 0.06,-0.08 0.02,-0.01 0.05,-0.03 0.09,-0.03zm-0.26 0.11l-0.16 0c-0.01,0 -0.04,0.01 -0.05,0.01 -0.01,0 -0.02,0.01 -0.03,0.01 0,0.01 0,0.01 -0.01,0.01 -0.01,0.01 -0.01,0.02 -0.02,0.03 -0.02,0.02 -0.03,0.05 -0.03,0.08l0 0.75c0,0.04 0.03,0.08 0.06,0.11 0.02,0.01 0.06,0.03 0.08,0.03l1.04 0c0.03,0 0.08,-0.03 0.1,-0.06 0.01,0 0.01,0 0.01,-0.01 0,0 0.01,-0.01 0.01,-0.02 0.01,-0.01 0.02,-0.04 0.02,-0.05l0 -0.75c0,-0.05 -0.04,-0.11 -0.09,-0.13 -0.04,-0.02 -0.06,-0.01 -0.1,-0.01 -0.04,0 -0.08,0 -0.11,0 -0.01,-0.06 -0.05,-0.11 -0.08,-0.14 -0.03,-0.03 -0.1,-0.07 -0.16,-0.07l-0.24 0c-0.06,0 -0.13,0.04 -0.16,0.07 -0.02,0.02 -0.03,0.02 -0.05,0.06 0,0.01 -0.03,0.05 -0.03,0.08z"/>
 </g>
</svg>
