<?xml version="1.0" encoding="UTF-8"?>
<!DOCTYPE svg PUBLIC "-//W3C//DTD SVG 1.0//EN" "http://www.w3.org/TR/2001/REC-SVG-20010904/DTD/svg10.dtd">
<!-- Creator: CorelDRAW 2018 (64 Bit Versão de avaliação) -->
<svg xmlns="http://www.w3.org/2000/svg" xml:space="preserve" width="41px" height="41px" version="1.0" shape-rendering="geometricPrecision" text-rendering="geometricPrecision" image-rendering="optimizeQuality" fill-rule="evenodd" clip-rule="evenodd"
viewBox="0 0 1.92 1.92"
 xmlns:xlink="http://www.w3.org/1999/xlink">
 <g id="Camada_x0020_1">
  <metadata id="CorelCorpID_0Corel-Layer"/>
  <path fill="black" d="M0.64 0.99c0,-0.07 0,-0.1 0.03,-0.16 0.03,-0.07 0.09,-0.12 0.15,-0.15 0.05,-0.03 0.08,-0.04 0.15,-0.04 0.07,0 0.14,0.03 0.2,0.07 0.02,0.02 0.03,0.04 0.05,0.06 0.02,0.03 0.04,0.07 0.05,0.11 0.02,0.09 0.01,0.19 -0.05,0.27 -0.01,0.02 -0.02,0.03 -0.04,0.04 -0.01,0.01 -0.02,0.03 -0.04,0.04 -0.01,0 -0.01,0.01 -0.02,0.01 -0.03,0.02 -0.05,0.02 -0.09,0.03 -0.01,0.01 -0.03,0.01 -0.05,0.01 -0.01,0 -0.01,0 -0.01,0l-0.04 0c-0.04,-0.01 -0.06,-0.01 -0.09,-0.02 -0.06,-0.03 -0.12,-0.08 -0.16,-0.14 -0.02,-0.03 -0.04,-0.09 -0.04,-0.13zm0.72 0.45c0,0.04 0.01,0.05 0.03,0.08 0.02,0.02 0.13,0.13 0.15,0.14 0.03,0.02 0.08,0.01 0.11,-0.02 0.02,-0.03 0.02,-0.07 0.01,-0.1 -0.02,-0.02 -0.12,-0.12 -0.14,-0.15 -0.03,-0.02 -0.04,-0.03 -0.08,-0.03 -0.04,0 -0.08,0.04 -0.08,0.08zm0.08 -0.87c0.06,0 0.1,-0.07 0.14,-0.1 0.01,-0.01 0.01,-0.01 0.02,-0.02 0.03,-0.03 0.07,-0.07 0.07,-0.11 0,-0.03 -0.02,-0.06 -0.05,-0.08 -0.03,-0.01 -0.07,0 -0.09,0.02 -0.02,0.01 -0.04,0.03 -0.05,0.04 -0.01,0.01 -0.01,0.01 -0.01,0.01l-0.06 0.06c0,0.01 -0.01,0.01 -0.01,0.01l-0.03 0.03c-0.01,0.02 -0.01,0.03 -0.01,0.06 0,0.03 0.02,0.04 0.03,0.06 0.01,0.01 0.03,0.02 0.05,0.02zm-1.19 -0.23c0,0.04 0.02,0.05 0.04,0.08 0.02,0.02 0.12,0.12 0.14,0.13 0.04,0.03 0.1,0.02 0.12,-0.02 0.02,-0.05 0.01,-0.08 -0.02,-0.12 -0.02,-0.02 -0.05,-0.05 -0.07,-0.08l-0.02 -0.02c-0.03,-0.02 -0.06,-0.05 -0.1,-0.05 -0.05,0 -0.09,0.04 -0.09,0.08zm0 1.24c0,0.06 0.07,0.12 0.15,0.07 0.01,-0.01 0.02,-0.03 0.04,-0.04 0.02,-0.02 0.06,-0.06 0.07,-0.08 0.01,-0.01 0.02,-0.02 0.04,-0.04 0.01,-0.02 0.01,-0.03 0.01,-0.06 0,-0.04 -0.04,-0.07 -0.08,-0.07 -0.06,0 -0.1,0.06 -0.13,0.09 -0.02,0.02 -0.04,0.03 -0.06,0.05 -0.02,0.02 -0.04,0.05 -0.04,0.08zm0.62 0.07l0 0.18c0,0.03 0.01,0.05 0.03,0.07 0.01,0.01 0.03,0.02 0.05,0.02 0.03,0 0.06,0 0.08,-0.02 0.01,-0.02 0.02,-0.04 0.02,-0.06l0 -0.19c0,-0.03 -0.01,-0.05 -0.02,-0.07 -0.03,-0.02 -0.07,-0.03 -0.11,-0.01 -0.03,0.01 -0.05,0.04 -0.05,0.08zm0.69 -0.7c0,0.03 0,0.03 0.01,0.05 0,0.01 0.01,0.02 0.01,0.03 0.02,0.01 0.04,0.02 0.07,0.02l0.18 0c0.04,0 0.07,-0.02 0.08,-0.05 0.01,-0.01 0.01,-0.02 0.01,-0.03l0 -0.02c0,-0.02 -0.01,-0.04 -0.02,-0.05 -0.02,-0.01 -0.04,-0.03 -0.06,-0.03l-0.19 0c-0.05,0 -0.09,0.04 -0.09,0.08zm-0.69 -0.86l0 0.19c0,0.05 0.04,0.09 0.08,0.09 0.03,0 0.03,0 0.05,-0.01 0.03,-0.01 0.05,-0.05 0.05,-0.08l0 -0.19c0,-0.03 -0.01,-0.05 -0.02,-0.06 -0.01,-0.01 -0.02,-0.02 -0.03,-0.02 -0.01,-0.01 -0.02,-0.01 -0.03,-0.01l-0.02 0c-0.02,0 -0.04,0.01 -0.05,0.03 -0.01,0.01 -0.03,0.03 -0.03,0.06zm-0.87 0.86c0,0.03 0,0.05 0.03,0.08 0,0 0.01,0.01 0.02,0.01 0.01,0.01 0.02,0.01 0.04,0.01l0.19 0c0.05,0 0.09,-0.04 0.09,-0.08 0,-0.02 0,-0.03 -0.01,-0.05 -0.01,-0.03 -0.05,-0.05 -0.08,-0.05l-0.19 0c-0.03,0 -0.05,0.01 -0.06,0.03 -0.01,0.01 -0.03,0.03 -0.03,0.05zm0.47 0c0,0.05 0,0.08 0.01,0.14 0.01,0.03 0.02,0.06 0.03,0.09 0.04,0.06 0.04,0.06 0.08,0.11 0.01,0.01 0.03,0.03 0.05,0.04l0.07 0.05c0,0.01 0.01,0.01 0.02,0.02l0.04 0.02c0.05,0.02 0.09,0.03 0.14,0.03 0.01,0.01 0.02,0.01 0.03,0.01 0.01,0 0.02,0 0.03,0 0.01,0 0.02,0 0.03,0 0.06,-0.01 0.11,-0.02 0.17,-0.05 0.04,-0.02 0.05,-0.03 0.09,-0.05l0.02 -0.02c0.05,-0.04 0.07,-0.07 0.1,-0.12 0,-0.01 0.01,-0.01 0.01,-0.02l0.02 -0.04c0.01,-0.01 0.01,-0.03 0.02,-0.04 0.04,-0.11 0.04,-0.26 -0.02,-0.36 -0.02,-0.04 -0.03,-0.06 -0.05,-0.1 -0.01,0 -0.01,-0.01 -0.02,-0.01 -0.01,-0.02 -0.02,-0.03 -0.03,-0.04 0,0 0,0 0,0l-0.03 -0.02c0,-0.01 0,-0.01 -0.01,-0.01 -0.02,-0.02 -0.04,-0.03 -0.06,-0.05l-0.06 -0.03c-0.14,-0.06 -0.3,-0.05 -0.43,0.03 -0.01,0.01 -0.02,0.01 -0.02,0.01 -0.03,0.02 -0.07,0.05 -0.09,0.07 -0.05,0.05 -0.09,0.11 -0.11,0.18 -0.02,0.04 -0.02,0.06 -0.03,0.1 0,0.02 0,0.04 0,0.06z"/>
 </g>
</svg>
