<?xml version="1.0" encoding="UTF-8"?>
<!DOCTYPE svg PUBLIC "-//W3C//DTD SVG 1.0//EN" "http://www.w3.org/TR/2001/REC-SVG-20010904/DTD/svg10.dtd">
<!-- Creator: CorelDRAW 2018 (64 Bit Versão de avaliação) -->
<svg xmlns="http://www.w3.org/2000/svg" xml:space="preserve" width="41px" height="41px" version="1.0" shape-rendering="geometricPrecision" text-rendering="geometricPrecision" image-rendering="optimizeQuality" fill-rule="evenodd" clip-rule="evenodd"
viewBox="0 0 1.33 1.33"
 xmlns:xlink="http://www.w3.org/1999/xlink">
 <g id="Camada_x0020_1">
  <metadata id="CorelCorpID_0Corel-Layer"/>
  <g id="_2751289321776">
   <g id="_1588138360240">
    <path fill="black" d="M0.13 0.89c0,-0.04 0,-0.15 0,-0.18 0.01,-0.01 0.01,-0.01 0.01,-0.02 0.02,-0.02 0.03,-0.03 0.06,-0.04l0.05 0 0 0.34c-0.03,0 -0.05,0.01 -0.08,-0.01 -0.03,-0.01 -0.04,-0.05 -0.04,-0.09l0 0zm0.51 -0.89l0.05 0c0.04,0 0.08,0.01 0.12,0.02 0.08,0.02 0.18,0.07 0.24,0.13 0.05,0.05 0.07,0.07 0.1,0.13 0.02,0.02 0.05,0.09 0.05,0.11 -0.01,0.08 -0.1,0.09 -0.13,0.03 -0.02,-0.05 -0.03,-0.07 -0.05,-0.11 -0.03,-0.03 -0.06,-0.06 -0.09,-0.09 -0.01,0 -0.02,-0.01 -0.03,-0.02l-0.04 -0.02c-0.01,-0.01 -0.01,-0.01 -0.02,-0.01 -0.08,-0.04 -0.18,-0.05 -0.28,-0.03 -0.07,0.02 -0.14,0.06 -0.19,0.11 -0.03,0.02 -0.05,0.05 -0.07,0.08 -0.03,0.05 -0.06,0.13 -0.06,0.19l0.08 0c0.04,0 0.06,0.03 0.06,0.05l0 0.5c0,0.02 -0.02,0.06 -0.06,0.06 -0.06,0 -0.13,0 -0.19,-0.02 -0.01,-0.01 -0.02,-0.01 -0.03,-0.02 -0.03,-0.02 -0.03,-0.02 -0.05,-0.04 0,0 0,-0.01 -0.01,-0.01 -0.01,-0.01 -0.01,-0.02 -0.02,-0.04l-0.01 -0.03c-0.01,-0.01 -0.01,-0.03 -0.01,-0.05l0 -0.2c0,-0.04 0.02,-0.08 0.03,-0.1 0.01,-0.02 0.05,-0.07 0.07,-0.07 0,-0.01 0,-0.02 0,-0.03 0,-0.01 0.01,-0.02 0.01,-0.03 0.01,-0.09 0.04,-0.18 0.09,-0.25 0.02,-0.02 0.04,-0.04 0.06,-0.06 0.02,-0.03 0.05,-0.05 0.08,-0.08 0.01,-0.01 0.02,-0.01 0.04,-0.02 0.08,-0.05 0.17,-0.08 0.26,-0.08l0 0z"/>
    <path fill="black" d="M1.11 0.99l-0.03 0 0 -0.34c0.04,0 0.07,0 0.09,0.02 0.02,0.02 0.03,0.04 0.03,0.08 0,0.04 0.01,0.15 0,0.18 -0.01,0.04 -0.05,0.06 -0.09,0.06zm-0.43 0.34l-0.02 0c-0.04,0 -0.08,-0.02 -0.1,-0.06 0,-0.01 -0.01,-0.02 -0.01,-0.04 0,-0.05 0,-0.06 0.04,-0.1 0.01,-0.01 0.01,-0.01 0.03,-0.02 0.01,-0.01 0.02,-0.01 0.04,-0.01 0.08,0 0.09,0.05 0.11,0.05l0.14 0c0.01,0 0.03,-0.01 0.03,-0.02 0.01,-0.01 0,-0.02 0.01,-0.04 0,-0.02 0,-0.43 0,-0.5 0,-0.02 0,-0.02 0,-0.04 0.01,-0.01 0.03,-0.03 0.06,-0.03l0.11 0c0.11,0 0.21,0.1 0.21,0.2l0 0.2c0,0.06 -0.03,0.12 -0.08,0.16 -0.02,0.02 -0.04,0.03 -0.07,0.04 -0.04,0.01 -0.06,0 -0.08,0.01 -0.02,0 -0.02,-0.01 -0.02,0 -0.01,0.02 0,0.02 -0.02,0.05 0,0.01 -0.01,0.02 -0.02,0.04 -0.01,0.02 -0.04,0.04 -0.06,0.05 -0.03,0.01 -0.06,0.01 -0.1,0.01 -0.04,0 -0.08,0 -0.12,0 -0.02,0.03 -0.05,0.05 -0.08,0.05l0 0z"/>
   </g>
  </g>
 </g>
</svg>
