<?xml version="1.0" encoding="UTF-8"?>
<!DOCTYPE svg PUBLIC "-//W3C//DTD SVG 1.0//EN" "http://www.w3.org/TR/2001/REC-SVG-20010904/DTD/svg10.dtd">
<!-- Creator: CorelDRAW 2018 (64 Bit Versão de avaliação) -->
<svg xmlns="http://www.w3.org/2000/svg" xml:space="preserve" width="41px" height="41px" version="1.0" shape-rendering="geometricPrecision" text-rendering="geometricPrecision" image-rendering="optimizeQuality" fill-rule="evenodd" clip-rule="evenodd"
viewBox="0 0 3.48 3.48"
 xmlns:xlink="http://www.w3.org/1999/xlink">
 <g id="Camada_x0020_1">
  <metadata id="CorelCorpID_0Corel-Layer"/>
  <path fill="black" d="M0.33 0.83c0,-0.1 -0.01,-0.25 0.02,-0.34 0.02,-0.1 0.09,-0.14 0.2,-0.15 0.1,-0.01 0.24,-0.01 0.35,-0.01 0.12,0 0.23,0 0.35,0 0.06,0 0.12,0 0.18,0 0.11,0 0.2,-0.04 0.3,0.03 0.04,0.03 0.06,0.06 0.09,0.09 0.07,0.05 0.13,0.11 0.18,0.18l0.18 0.18c0.24,0.24 0.47,0.47 0.71,0.71 0.06,0.06 0.12,0.12 0.18,0.18 0.06,0.05 0.13,0.12 0.09,0.25 -0.02,0.08 -0.1,0.14 -0.16,0.2l-0.53 0.53c-0.12,0.12 -0.24,0.24 -0.36,0.36 -0.14,0.13 -0.23,0.19 -0.4,0.04 -0.01,-0.01 -0.01,-0.01 -0.02,-0.02 -0.01,-0.01 -0.02,-0.02 -0.03,-0.03l-1.2 -1.2c-0.01,-0.01 -0.03,-0.03 -0.04,-0.04 -0.1,-0.1 -0.1,-0.12 -0.1,-0.26 0.01,-0.12 0.01,-0.23 0.01,-0.35 0,-0.06 -0.01,-0.12 0,-0.18 0,-0.06 0.01,-0.1 0,-0.17zm0.73 0.1c-0.18,0.03 -0.16,0.22 -0.07,0.29 0.03,0.03 0.08,0.03 0.13,0.03 0.04,-0.01 0.08,-0.05 0.1,-0.07 0.08,-0.1 0.01,-0.29 -0.16,-0.25zm0.79 0.27c-0.04,0.01 -0.07,0.04 -0.1,0.06l-0.08 0.08c-0.11,0.12 -0.25,0.25 -0.36,0.37 -0.04,0.03 -0.08,0.06 -0.1,0.11 -0.02,0.06 -0.01,0.13 0.02,0.17 0.03,0.03 0.09,0.06 0.16,0.05 0.05,0 0.09,-0.06 0.12,-0.09l0.11 -0.1c0.07,-0.08 0.24,-0.25 0.31,-0.32 0.03,-0.02 0.08,-0.07 0.1,-0.11 0.05,-0.14 -0.07,-0.25 -0.18,-0.22zm0.72 0.72c0.03,-0.12 -0.1,-0.23 -0.21,-0.18 -0.05,0.02 -0.09,0.07 -0.12,0.1l-0.32 0.32c-0.01,0.01 -0.04,0.03 -0.05,0.05 -0.03,0.04 -0.12,0.09 -0.14,0.18 -0.03,0.11 0.1,0.23 0.22,0.17 0.02,-0.01 0.04,-0.02 0.06,-0.04 0.01,-0.01 0.02,-0.01 0.03,-0.02 0,-0.01 0.01,-0.02 0.02,-0.03 0.01,-0.01 0.02,-0.02 0.03,-0.03 0.01,-0.01 0.01,-0.01 0.03,-0.02 0.11,-0.12 0.25,-0.26 0.37,-0.38 0.03,-0.03 0.07,-0.06 0.08,-0.12zm-1.31 -1.92c-0.2,0.01 -0.44,0.02 -0.63,0.02 -0.08,0 -0.14,0 -0.21,0.01 -0.21,0.05 -0.38,0.24 -0.4,0.48 0,0.07 0,0.14 0,0.21 -0.01,0.07 -0.01,0.14 -0.01,0.21 0,0.15 0,0.29 -0.01,0.43 0,0.18 -0.02,0.4 0.1,0.55 0.01,0.01 0.02,0.02 0.03,0.03 0.02,0.03 0.27,0.28 0.29,0.3 0.02,0.02 0.04,0.04 0.05,0.06l0.99 0.98c0.05,0.05 0.11,0.11 0.18,0.14 0.16,0.1 0.38,0.08 0.52,-0.01 0.05,-0.03 0.09,-0.06 0.12,-0.09 0.04,-0.04 0.17,-0.17 0.22,-0.22l0.11 -0.11c0.19,-0.19 0.4,-0.4 0.59,-0.6l0.06 -0.05c0.05,-0.06 0.11,-0.11 0.15,-0.18 0.12,-0.2 0.09,-0.48 -0.08,-0.64l-0.05 -0.06c-0.04,-0.05 -0.14,-0.14 -0.19,-0.19 -0.01,-0.01 -0.02,-0.02 -0.03,-0.03 -0.07,-0.07 -0.14,-0.14 -0.22,-0.22l-0.18 -0.19c-0.01,-0.01 -0.02,-0.01 -0.03,-0.02l-0.57 -0.57c-0.01,-0.01 -0.02,-0.02 -0.03,-0.03 -0.06,-0.05 -0.11,-0.11 -0.18,-0.15 -0.13,-0.06 -0.22,-0.06 -0.38,-0.06 -0.07,0 -0.14,0 -0.21,0z"/>
 </g>
</svg>
