<?xml version="1.0" encoding="UTF-8"?>
<!DOCTYPE svg PUBLIC "-//W3C//DTD SVG 1.0//EN" "http://www.w3.org/TR/2001/REC-SVG-20010904/DTD/svg10.dtd">
<!-- Creator: CorelDRAW 2018 (64 Bit Versão de avaliação) -->
<svg xmlns="http://www.w3.org/2000/svg" xml:space="preserve" width="41px" height="41px" version="1.0" shape-rendering="geometricPrecision" text-rendering="geometricPrecision" image-rendering="optimizeQuality" fill-rule="evenodd" clip-rule="evenodd"
viewBox="0 0 1.16 1.16"
 xmlns:xlink="http://www.w3.org/1999/xlink">
 <g id="Camada_x0020_1">
  <metadata id="CorelCorpID_0Corel-Layer"/>
  <g id="_2889405515376">
   <g>
    <path fill="black" d="M0 0.63c0,0.11 0.01,0.17 0.06,0.25 0.01,0.03 0.02,0.05 0.04,0.08l0.05 0.05c0,0 0.01,0.01 0.01,0.01 0.01,0.01 0.01,0.01 0.02,0.02 0.02,0.01 0.03,0.02 0.05,0.03 0.1,0.06 0.17,0.09 0.29,0.09 0.08,0 0.18,-0.04 0.24,-0.07l0.1 -0.08c0.02,-0.02 0.06,-0.06 0.07,-0.09 0.08,-0.13 0.1,-0.27 0.06,-0.43 -0.01,-0.02 -0.03,-0.06 -0.04,-0.08 -0.01,-0.01 -0.01,-0.02 -0.02,-0.03 0,0 0,0 -0.01,0.01 0,0 0,0 0,0l-0.04 0.04c-0.01,0.01 -0.04,0.05 -0.06,0.06 0.06,0.1 0.06,0.24 0,0.34 -0.02,0.03 -0.05,0.07 -0.08,0.1 -0.01,0 -0.02,0.01 -0.03,0.02 -0.01,0 -0.02,0.01 -0.03,0.01 -0.01,0.01 -0.02,0.01 -0.03,0.02 -0.06,0.03 -0.15,0.04 -0.22,0.02 -0.08,-0.02 -0.13,-0.04 -0.18,-0.1 -0.03,-0.03 -0.05,-0.06 -0.07,-0.1 -0.06,-0.11 -0.04,-0.26 0.03,-0.36 0.04,-0.05 0.09,-0.09 0.15,-0.12 0.02,-0.01 0.04,-0.01 0.07,-0.02 0.03,-0.01 0.08,-0.01 0.12,-0.01 0.08,0.02 0.1,0.04 0.12,0.04 0.02,-0.01 0.04,-0.04 0.06,-0.05 0.01,-0.01 0.05,-0.05 0.05,-0.06 -0.04,-0.02 -0.06,-0.03 -0.11,-0.05 -0.13,-0.04 -0.27,-0.03 -0.39,0.03 0,0 0,0 -0.01,0l-0.04 0.02c-0.02,0.02 -0.05,0.04 -0.07,0.06 0,0 -0.01,0.01 -0.01,0.01l-0.08 0.11c-0.01,0.01 -0.03,0.06 -0.04,0.08 -0.02,0.04 -0.03,0.1 -0.03,0.15z"/>
    <path fill="black" d="M0.22 0.64c0,0.06 0,0.08 0.02,0.13 0.03,0.06 0.09,0.12 0.14,0.14 0.12,0.05 0.24,0.03 0.33,-0.06 0.05,-0.04 0.08,-0.12 0.08,-0.19 0,-0.03 0.01,-0.04 0,-0.08 -0.01,-0.01 -0.02,-0.03 -0.02,-0.04 -0.01,0 -0.1,0.1 -0.11,0.11 -0.02,0.02 -0.01,0.03 -0.03,0.07 -0.05,0.08 -0.16,0.1 -0.23,0.03 -0.01,-0.01 -0.02,-0.02 -0.03,-0.04 -0.02,-0.05 -0.01,-0.12 0.03,-0.15 0.06,-0.07 0.09,-0.04 0.1,-0.06 0.02,-0.02 0.12,-0.11 0.12,-0.12 -0.04,-0.02 -0.08,-0.02 -0.13,-0.02 -0.04,0 -0.08,0.02 -0.11,0.03 -0.09,0.04 -0.16,0.14 -0.16,0.25z"/>
    <path fill="black" d="M0.47 0.65c0,0.02 0.01,0.04 0.04,0.04 0.02,0 0.03,-0.03 0.04,-0.03 0.02,-0.02 0.03,-0.03 0.04,-0.04 0.02,-0.03 0.05,-0.05 0.07,-0.08l0.23 -0.22c0.04,-0.04 0.01,-0.03 0.11,-0.03 0.03,0 0.03,0 0.05,-0.02l0.07 -0.08c0.03,-0.02 0.04,-0.02 0.04,-0.05 0,-0.01 -0.02,-0.03 -0.04,-0.03l-0.07 0 0 -0.08c0,-0.01 -0.02,-0.03 -0.04,-0.03l0 0c-0.01,0 -0.02,0 -0.03,0.01l-0.05 0.06c-0.01,0 -0.05,0.04 -0.06,0.05 -0.01,0.02 0,0.02 0,0.04 0,0.02 0,0.04 0,0.07 0,0.01 -0.02,0.02 -0.04,0.04l-0.31 0.31c0,0.01 0,0.01 -0.01,0.01 -0.01,0.01 -0.04,0.04 -0.04,0.06z"/>
   </g>
  </g>
 </g>
</svg>
