<?xml version="1.0" encoding="UTF-8"?>
<!DOCTYPE svg PUBLIC "-//W3C//DTD SVG 1.0//EN" "http://www.w3.org/TR/2001/REC-SVG-20010904/DTD/svg10.dtd">
<!-- Creator: CorelDRAW 2018 (64 Bit Versão de avaliação) -->
<svg xmlns="http://www.w3.org/2000/svg" xml:space="preserve" width="41px" height="41px" version="1.0" shape-rendering="geometricPrecision" text-rendering="geometricPrecision" image-rendering="optimizeQuality" fill-rule="evenodd" clip-rule="evenodd"
viewBox="0 0 0.91 0.91"
 xmlns:xlink="http://www.w3.org/1999/xlink">
 <g id="Camada_x0020_1">
  <metadata id="CorelCorpID_0Corel-Layer"/>
  <g id="_2039422128720">
   <path fill="#292929" d="M0.58 0.12c0.03,-0.06 -0.06,-0.07 -0.1,-0.07 -0.09,-0.01 -0.2,0.01 -0.28,0.06 -0.05,0.03 -0.05,0.05 -0.09,0.08 -0.02,0.02 -0.05,0.07 -0.07,0.11 -0.06,0.13 -0.05,0.29 0.03,0.41 0.03,0.05 0.08,0.1 0.13,0.13 0.18,0.12 0.42,0.08 0.56,-0.08 0.04,-0.05 0.1,-0.15 0.1,-0.24 0.01,-0.04 0.01,-0.21 -0.06,-0.2 -0.08,0.02 0.05,0.15 -0.06,0.34 -0.1,0.16 -0.31,0.22 -0.48,0.13 -0.08,-0.05 -0.13,-0.11 -0.16,-0.19 -0.03,-0.1 -0.02,-0.21 0.02,-0.29 0.04,-0.07 0.1,-0.13 0.19,-0.16 0.18,-0.07 0.24,0.03 0.27,-0.03z"/>
   <path fill="#292929" d="M0.48 0.29c0.01,-0.03 -0.01,-0.06 -0.03,-0.06 -0.03,0 -0.06,0 -0.08,0.01 -0.05,0.01 -0.08,0.04 -0.11,0.06 -0.15,0.14 -0.06,0.4 0.14,0.42 0.16,0.02 0.29,-0.12 0.28,-0.26 0,-0.02 -0.03,-0.04 -0.05,-0.03 -0.03,0.01 -0.03,0.03 -0.03,0.06 -0.01,0.09 -0.09,0.17 -0.2,0.15 -0.18,-0.03 -0.19,-0.3 0.02,-0.33 0.03,0 0.05,0 0.06,-0.02z"/>
   <path fill="#292929" d="M0.79 0.18c0.02,-0.04 0.11,-0.08 0.06,-0.12 -0.01,-0.01 -0.02,-0.02 -0.04,-0.01 -0.02,0 -0.05,0.06 -0.08,0.07 0,-0.03 0,-0.1 -0.02,-0.11 -0.01,-0.01 -0.03,-0.01 -0.05,0 -0.01,0 -0.01,0.02 -0.01,0.04 -0.01,0.04 0,0.09 0,0.13 0,0.03 0,0.03 -0.02,0.04 -0.01,0.01 -0.02,0.02 -0.03,0.04 -0.01,0.01 -0.15,0.15 -0.16,0.15 -0.02,0.01 -0.03,0 -0.05,0.02 -0.03,0.02 -0.03,0.06 0,0.09 0.02,0.03 0.06,0.02 0.09,0 0.01,-0.01 0.01,-0.02 0.02,-0.04 0,-0.02 0.01,-0.03 0.02,-0.04l0.16 -0.16c0.01,-0.01 0.02,-0.02 0.05,-0.02 0.04,0 0.08,0 0.12,0 0.03,0 0.04,0 0.05,-0.01 0.01,-0.01 0.01,-0.04 0,-0.05 -0.02,-0.02 -0.07,-0.02 -0.11,-0.02z"/>
  </g>
 </g>
</svg>
