<?xml version="1.0" encoding="UTF-8"?>
<!DOCTYPE svg PUBLIC "-//W3C//DTD SVG 1.0//EN" "http://www.w3.org/TR/2001/REC-SVG-20010904/DTD/svg10.dtd">
<!-- Creator: CorelDRAW 2018 (64 Bit Versão de avaliação) -->
<svg xmlns="http://www.w3.org/2000/svg" xml:space="preserve" width="36px" height="40px" version="1.0" shape-rendering="geometricPrecision" text-rendering="geometricPrecision" image-rendering="optimizeQuality" fill-rule="evenodd" clip-rule="evenodd"
viewBox="0 0 12.88 14.54"
 xmlns:xlink="http://www.w3.org/1999/xlink">
 <g id="Camada_x0020_1">
  <metadata id="CorelCorpID_0Corel-Layer"/>
  <path fill="black" d="M10.72 12.67c0,-0.65 1.05,-0.79 1.05,0.07 0,0.13 -0.09,0.24 -0.16,0.31 -0.33,0.33 -0.89,0.09 -0.89,-0.38zm-10.72 -6.23l0 5.79c0,1.11 0.94,2.28 1.96,2.28 1.81,0 2.52,0.26 2.52,-0.81 0,-1.55 -2.85,0.07 -2.85,-1.47l0 -5.71c0,-1.11 0.62,-1.54 1.08,-1.94 0.16,-0.14 0.17,-0.15 0.35,-0.29 0.27,-0.21 0.37,-0.35 0.66,-0.57l0.66 -0.56c0.24,-0.21 0.43,-0.36 0.66,-0.57 0.65,-0.62 1.48,-1.42 2.36,-0.61 0.23,0.21 0.42,0.36 0.65,0.57 0.78,0.69 2.72,2.12 3.21,2.91 0.73,1.18 2.84,0.05 0.38,-2.01l-2.28 -1.96c-1,-0.93 -1.78,-1.39 -2.49,-1.49l-0.57 0c-0.88,0.12 -1.71,0.79 -2.81,1.77 -1.6,1.43 -3.49,2.46 -3.49,4.67zm6.41 1.92c0,-0.16 0.06,-0.28 0.14,-0.36 0.53,-0.52 1.24,0.25 0.75,0.74 -0.33,0.33 -0.89,0.09 -0.89,-0.38zm0.41 1.62c0.57,0 0.87,-0.09 1.28,-0.5 1.07,-1.06 0.16,-2.74 -1.08,-2.74 -0.54,0 -0.91,0.13 -1.26,0.5 -0.42,0.45 -0.59,1.16 -0.32,1.75 0.25,0.53 0.76,0.99 1.38,0.99zm-0.98 4.31c0.33,0 0.36,-0.11 0.6,-0.35l6.11 -6.11c0.15,-0.15 0.33,-0.26 0.33,-0.55 0,-0.29 -0.21,-0.54 -0.57,-0.54 -0.28,0 -0.43,0.21 -0.58,0.37l-6.14 6.13c-0.29,0.29 -0.41,0.66 -0.1,0.92 0.09,0.08 0.19,0.13 0.35,0.13zm5.29 0c0.56,0 0.88,-0.09 1.29,-0.5 1.03,-1.02 0.2,-2.73 -1.09,-2.73 -0.77,0 -1.25,0.32 -1.56,0.96 -0.29,0.59 -0.13,1.31 0.29,1.76 0.21,0.23 0.64,0.51 1.07,0.51z"/>
 </g>
</svg>
