<?xml version="1.0" encoding="UTF-8"?>
<!DOCTYPE svg PUBLIC "-//W3C//DTD SVG 1.0//EN" "http://www.w3.org/TR/2001/REC-SVG-20010904/DTD/svg10.dtd">
<!-- Creator: CorelDRAW 2018 (64 Bit Versão de avaliação) -->
<svg xmlns="http://www.w3.org/2000/svg" xml:space="preserve" width="28px" height="13px" version="1.0" shape-rendering="geometricPrecision" text-rendering="geometricPrecision" image-rendering="optimizeQuality" fill-rule="evenodd" clip-rule="evenodd"
viewBox="0 0 0.76 0.35"
 xmlns:xlink="http://www.w3.org/1999/xlink">
 <g id="Camada_x0020_1">
  <metadata id="CorelCorpID_0Corel-Layer"/>
  <path fill="#373435" fill-rule="nonzero" d="M0.14 0.35c-0.02,0 -0.03,-0.01 -0.04,-0.01 -0.01,0 -0.02,-0.01 -0.03,-0.02 -0.02,-0.01 -0.02,-0.03 -0.02,-0.06l0 -0.13 -0.05 0 0 -0.05 0.05 0 0 -0.08 0.07 0 0 0.08 0.06 0 0 0.05 -0.06 0 0 0.11c0,0.02 0,0.03 0,0.03 0.01,0.01 0.02,0.01 0.03,0.01 0.01,0 0.01,0 0.02,0 0,0 0.01,0 0.01,-0.01l0 0.07c-0.01,0 -0.03,0.01 -0.04,0.01z"/>
  <path id="1" fill="#373435" fill-rule="nonzero" d="M0.31 0.35c-0.02,0 -0.05,-0.01 -0.07,-0.02 -0.01,-0.02 -0.02,-0.04 -0.02,-0.07 0,-0.02 0,-0.03 0.01,-0.05 0.01,-0.01 0.02,-0.02 0.04,-0.03 0.02,0 0.03,-0.01 0.05,-0.01 0.03,0 0.06,0.01 0.08,0.01l0 -0.01c0,-0.01 -0.01,-0.02 -0.02,-0.03 -0.01,-0.01 -0.03,-0.02 -0.05,-0.02 -0.01,0 -0.02,0.01 -0.03,0.01 -0.01,0.01 -0.02,0.01 -0.03,0.02l-0.04 -0.03c0.01,-0.02 0.02,-0.03 0.04,-0.04 0.02,-0.01 0.04,-0.01 0.07,-0.01 0.04,0 0.07,0.01 0.09,0.03 0.02,0.01 0.03,0.04 0.03,0.08l0 0.16 -0.06 0 0 -0.02 -0.01 0c-0.01,0.01 -0.02,0.01 -0.03,0.02 -0.01,0.01 -0.03,0.01 -0.05,0.01zm0.02 -0.05c0.02,0 0.04,-0.01 0.05,-0.02 0.01,-0.01 0.02,-0.03 0.02,-0.05 -0.02,0 -0.04,-0.01 -0.06,-0.01 -0.04,0 -0.05,0.01 -0.05,0.04 0,0.01 0,0.02 0.01,0.03 0.01,0 0.02,0.01 0.03,0.01z"/>
  <polygon id="2" fill="#373435" fill-rule="nonzero" points="0.59,0.21 0.5,0.08 0.58,0.08 0.63,0.15 0.63,0.15 0.68,0.08 0.76,0.08 0.67,0.21 0.76,0.34 0.68,0.34 0.63,0.26 0.63,0.26 0.58,0.34 0.5,0.34 "/>
 </g>
</svg>
