<?xml version="1.0" encoding="UTF-8"?>
<!DOCTYPE svg PUBLIC "-//W3C//DTD SVG 1.0//EN" "http://www.w3.org/TR/2001/REC-SVG-20010904/DTD/svg10.dtd">
<!-- Creator: CorelDRAW 2018 (64 Bit Versão de avaliação) -->
<svg xmlns="http://www.w3.org/2000/svg" xml:space="preserve" width="36px" height="41px" version="1.0" shape-rendering="geometricPrecision" text-rendering="geometricPrecision" image-rendering="optimizeQuality" fill-rule="evenodd" clip-rule="evenodd"
viewBox="0 0 0.78 0.89"
 xmlns:xlink="http://www.w3.org/1999/xlink">
 <g id="Camada_x0020_1">
  <metadata id="CorelCorpID_0Corel-Layer"/>
  <g id="_2039315544560">
   <g>
    <path fill="#292929" d="M0.35 0.24c-0.03,0 -0.06,0 -0.06,-0.02 0,-0.01 0,-0.02 0.01,-0.02 0.01,-0.01 0.06,0 0.06,0 0.01,0.01 0.02,0.04 -0.01,0.04zm-0.35 0.51l0 -0.01c0,-0.02 0.01,-0.05 0.01,-0.08 0.01,-0.02 0.01,-0.05 0.02,-0.07l0.02 -0.11c0,-0.02 0,-0.03 0.01,-0.04 0,-0.02 0.01,-0.03 0.01,-0.04 0.01,-0.01 0.03,-0.04 0.03,-0.05 0.01,0 0.01,-0.01 0.01,-0.01 0.01,0 0.01,0 0.01,-0.01 0.01,0 0.01,-0.01 0.02,-0.01 0.01,-0.01 0.02,-0.03 0.03,-0.03 0.01,-0.01 0.01,-0.01 0.01,-0.01 0,0 0,0 0.01,0 0,-0.01 0.04,-0.02 0.04,-0.02 -0.01,-0.02 -0.01,-0.03 -0.01,-0.05 0,-0.02 0.02,-0.06 0.04,-0.06 0,-0.01 -0.03,-0.06 -0.03,-0.06 0,0 0,0 0,-0.01l-0.01 -0.01c-0.01,-0.01 -0.02,-0.02 -0.02,-0.04 0,-0.01 0.02,-0.03 0.03,-0.03l0.2 0c0.01,0 0.01,0.01 0.02,0.01 0.02,0.02 0,0.04 -0.01,0.05l-0.01 0.04c-0.01,0.01 -0.03,0.04 -0.03,0.05 0.01,0 0.01,0 0.01,0 0.01,0.01 0.02,0.02 0.02,0.04 0.01,0.01 0.01,0.03 0.01,0.04 0,0.01 -0.01,0.02 -0.01,0.02 0.01,0 0.01,0.01 0.01,0.01 0.01,0.01 0.01,0.02 0.01,0.04 -0.01,0 -0.01,0 -0.01,0.01 -0.02,0.02 -0.05,-0.01 -0.08,-0.01 -0.05,0 -0.06,0 -0.11,0.02 -0.03,0.01 -0.06,0.03 -0.08,0.06 -0.03,0.03 -0.05,0.07 -0.06,0.11 0,0.01 0,0.01 0,0.02l-0.01 0.05c-0.01,0.05 -0.02,0.1 -0.03,0.15 0,0.02 -0.01,0.04 0.01,0.07 0.01,0.02 0.04,0.05 0.07,0.05 0.01,0 0.03,0 0.04,-0.01 0.01,0 0.07,0 0.08,0.01 0.01,0 0.01,0 0.02,0.01 0,0.01 0,0.01 0,0.02 0,0.02 -0.01,0.03 -0.03,0.03l-0.12 0c-0.03,0 -0.07,-0.01 -0.09,-0.03 0,-0.01 -0.01,-0.01 -0.01,-0.01 -0.01,-0.02 -0.01,-0.02 -0.03,-0.04 -0.01,-0.02 -0.01,-0.04 -0.01,-0.06zm0.29 -0.68l0.08 0c-0.01,0 -0.03,0.05 -0.03,0.05 -0.01,0 -0.01,0.01 -0.01,0.01 0,0 -0.01,-0.02 -0.01,-0.02l-0.01 -0.02c0,0 0,0 -0.01,-0.01l-0.01 -0.01z"/>
    <path fill="#292929" d="M0.5 0.83c-0.02,0 -0.05,-0.01 -0.07,-0.02 0,0 0,0 -0.01,0 -0.02,-0.01 -0.05,-0.03 -0.07,-0.04 -0.03,-0.04 -0.06,-0.09 -0.06,-0.15 0,-0.04 0,-0.06 0.02,-0.09 0.02,-0.07 0.11,-0.12 0.18,-0.12 0.06,0 0.09,0.01 0.14,0.04 0,0 0,0 0,0 0.01,0.01 0.02,0.02 0.03,0.03 0.03,0.03 0.04,0.07 0.05,0.11l0 0.02c0,0.04 -0.01,0.06 -0.02,0.09 -0.01,0.01 -0.01,0.02 -0.02,0.03 0,0.01 -0.01,0.01 -0.01,0.02l-0.03 0.03c-0.02,0.02 -0.05,0.03 -0.08,0.04 -0.01,0 -0.04,0.01 -0.05,0.01zm0.28 -0.22l0 0.01c0,0 0,0 0,0.01 0,0 -0.01,0.01 -0.01,0.01 0,0.04 0,0.05 -0.02,0.09 -0.01,0.02 -0.02,0.04 -0.04,0.06 0,0.01 -0.01,0.01 -0.01,0.02 0,0 -0.01,0 -0.01,0.01 0,0 -0.01,0 -0.01,0 0,0.01 0,0.01 -0.01,0.01 -0.02,0.02 -0.07,0.04 -0.1,0.05 -0.03,0.01 -0.05,0.01 -0.07,0.01l-0.01 0 0 0c-0.05,0 -0.1,-0.02 -0.13,-0.04 -0.02,-0.01 -0.04,-0.02 -0.05,-0.03 -0.03,-0.03 -0.05,-0.05 -0.06,-0.09 -0.02,-0.04 -0.03,-0.07 -0.03,-0.12 0,-0.03 0.01,-0.05 0.01,-0.06 0.01,-0.05 0.04,-0.1 0.08,-0.14l0.02 -0.01c0.01,-0.01 0.02,-0.02 0.04,-0.03l0.02 -0.01c0.06,-0.03 0.15,-0.03 0.22,0l0.02 0.01c0,0 0.01,0 0.01,0.01 0.02,0.01 0.02,0.01 0.04,0.02 0,0.01 0,0.01 0.01,0.01 0.01,0.01 0.01,0.01 0.02,0.02 0,0 0,0.01 0,0.01 0.01,0.01 0.02,0.02 0.02,0.03 0.02,0.02 0.03,0.04 0.03,0.06 0.01,0.02 0.02,0.05 0.02,0.07 0,0 0,0.01 0,0.01z"/>
    <path fill="#292929" d="M0.4 0.68c0,0.03 0.03,0.05 0.06,0.02l0.13 -0.13c0.01,-0.01 0.01,-0.01 0.01,-0.03 0,-0.01 -0.01,-0.03 -0.03,-0.03 -0.02,0 -0.02,0 -0.03,0.02l-0.11 0.1c-0.01,0.01 -0.03,0.04 -0.03,0.05z"/>
    <path fill="#292929" d="M0.4 0.54c0,0.02 0,0.03 0.01,0.03 0.01,0.02 0.02,0.02 0.03,0.02 0.02,0 0.04,-0.02 0.04,-0.04 0,-0.02 0,-0.03 -0.01,-0.04 -0.02,-0.01 -0.04,-0.01 -0.06,0l-0.01 0.02c0,0 0,0.01 0,0.01z"/>
    <path fill="#292929" d="M0.51 0.68c0,0.02 0.01,0.03 0.02,0.04 0.01,0.01 0.03,0.01 0.05,0 0.03,-0.01 0.03,-0.05 0,-0.07 -0.02,-0.01 -0.04,-0.01 -0.05,0 -0.01,0.01 -0.02,0.02 -0.02,0.03z"/>
   </g>
  </g>
 </g>
</svg>
