<?xml version="1.0" encoding="UTF-8"?>
<!DOCTYPE svg PUBLIC "-//W3C//DTD SVG 1.0//EN" "http://www.w3.org/TR/2001/REC-SVG-20010904/DTD/svg10.dtd">
<!-- Creator: CorelDRAW 2018 (64 Bit Versão de avaliação) -->
<svg xmlns="http://www.w3.org/2000/svg" xml:space="preserve" width="39px" height="39px" version="1.0" shape-rendering="geometricPrecision" text-rendering="geometricPrecision" image-rendering="optimizeQuality" fill-rule="evenodd" clip-rule="evenodd"
viewBox="0 0 0.73 0.73"
 xmlns:xlink="http://www.w3.org/1999/xlink">
 <g id="Camada_x0020_1">
  <metadata id="CorelCorpID_0Corel-Layer"/>
  <g id="_2039422117424">
   <g>
    <path fill="black" d="M0.43 0.43l0.04 0.04c-0.02,0 -0.01,0 -0.04,0 -0.01,0 -0.03,0 -0.04,0l0.04 -0.04zm0.07 -0.43l0.03 0c0.03,0 0.07,0.01 0.1,0.03 0.03,0.02 0.04,0.03 0.07,0.06l0.01 0.03c0.01,0.02 0.01,0.02 0.02,0.04 0,0.01 0,0.03 0,0.05l0 0.02c0,0 0,0.01 0,0.01 0,0.05 -0.02,0.09 -0.04,0.13l-0.04 0.05c-0.05,0.05 -0.09,0.07 -0.15,0.09 -0.02,0 -0.03,0.01 -0.05,0.02l-0.06 0.01c-0.06,0.02 -0.11,0.03 -0.16,0.06 -0.01,0.01 -0.01,0.01 -0.02,0.02 -0.01,0.01 -0.08,0.07 -0.09,0.09l-0.02 0.01c-0.02,0.01 -0.03,0.01 -0.04,0.01 -0.03,0 -0.06,-0.03 -0.06,-0.06l0 -0.01c0,-0.01 0,-0.02 0.01,-0.02 0.01,-0.02 0.07,-0.08 0.09,-0.1 0,0 0,0 0.01,-0.01 0.03,-0.03 0.05,-0.09 0.07,-0.13 0.01,-0.04 0.02,-0.11 0.04,-0.14l0.01 -0.06c0.01,0 0.01,-0.01 0.01,-0.01 0.02,-0.04 0.03,-0.06 0.07,-0.1 0.04,-0.04 0.08,-0.06 0.13,-0.08 0.02,-0.01 0.04,-0.01 0.06,-0.01zm-0.29 0.45l0.02 -0.07c0,0 0,0 0,0l0 0c0,0 0,0.01 0.01,0.02 0.01,0.03 0.04,0.06 0.07,0.08 0.02,0.01 0.03,0.02 0.05,0.02l-0.02 0.01c-0.01,0 -0.02,0.01 -0.03,0.01 -0.02,0.01 -0.02,0.01 -0.05,0 -0.03,-0.01 -0.05,-0.04 -0.05,-0.07zm0.25 -0.05l0.06 -0.07c0.01,0.02 0.07,0.07 0.07,0.08l-0.03 0.02c-0.02,0.02 -0.03,0.02 -0.04,0.03l-0.06 -0.06zm-0.18 -0.01l0.06 -0.06 0.06 0.06 -0.06 0.06c-0.02,-0.01 -0.04,-0.03 -0.06,-0.06zm0.33 -0.15l0.06 0.06c0,0.01 -0.01,0.03 -0.02,0.04 0,0.01 -0.02,0.03 -0.02,0.04l-0.08 -0.08 0.06 -0.06zm-0.24 0.06l0.06 -0.06 0.06 0.06 -0.06 0.06 -0.06 -0.06zm-0.11 -0.04l0.05 0.04 -0.04 0.05c-0.01,-0.02 -0.01,-0.05 -0.01,-0.07 0,0 0,-0.01 0,-0.02zm0.2 -0.05l0.06 -0.06 0.06 0.06c0,0.01 -0.05,0.06 -0.06,0.06 0,0 -0.05,-0.05 -0.06,-0.06zm0.22 -0.04c0.01,0.02 0.01,0.06 0.01,0.08 0,0 0,0.01 -0.01,0 0,0 -0.03,-0.03 -0.04,-0.04l0.04 -0.04zm-0.36 -0.03l0.08 0.07 -0.06 0.06 -0.06 -0.06c0.01,-0.02 0.02,-0.04 0.04,-0.06 0,-0.01 0,-0.01 0,-0.01zm0.29 -0.07c0.02,0.01 0.04,0.03 0.06,0.06l-0.06 0.05 -0.06 -0.06 0.06 -0.05zm-0.26 0.04c0.01,-0.01 0.01,-0.01 0.01,-0.01 0.02,-0.01 0.02,-0.01 0.05,-0.03 0,0 0.01,0 0.02,-0.01l0.06 0.06 -0.06 0.06 -0.08 -0.07zm0.16 -0.07c0.02,0 0.04,0.01 0.05,0.01l-0.04 0.04c-0.01,-0.01 -0.03,-0.03 -0.04,-0.04 0,0 0,0 0.01,0 0,-0.01 0.02,-0.01 0.02,-0.01z"/>
    <path fill="black" d="M0 0.1c0,0.03 0.01,0.06 0.03,0.08 0.01,0.02 0.04,0.03 0.07,0.03 0.04,0 0.06,0 0.08,-0.03 0.05,-0.04 0.05,-0.11 0,-0.15 -0.02,-0.02 -0.05,-0.03 -0.08,-0.03 -0.05,0 -0.1,0.05 -0.1,0.1z"/>
   </g>
  </g>
 </g>
</svg>
