<?xml version="1.0" encoding="UTF-8"?>
<!DOCTYPE svg PUBLIC "-//W3C//DTD SVG 1.0//EN" "http://www.w3.org/TR/2001/REC-SVG-20010904/DTD/svg10.dtd">
<!-- Creator: CorelDRAW 2018 (64 Bit Versão de avaliação) -->
<svg xmlns="http://www.w3.org/2000/svg" xml:space="preserve" width="41px" height="41px" version="1.0" shape-rendering="geometricPrecision" text-rendering="geometricPrecision" image-rendering="optimizeQuality" fill-rule="evenodd" clip-rule="evenodd"
viewBox="0 0 1.02 1.02"
 xmlns:xlink="http://www.w3.org/1999/xlink">
 <g id="Camada_x0020_1">
  <metadata id="CorelCorpID_0Corel-Layer"/>
  <g id="_2299934551936">
   <g>
    <path fill="black" d="M0.19 0.53c0,-0.02 0.01,-0.03 0.02,-0.04 0.01,-0.01 0.02,-0.02 0.04,-0.02l0.28 0c0.03,0 0.05,0.02 0.05,0.06 0,0.03 -0.02,0.05 -0.04,0.05l-0.3 0c-0.02,0 -0.05,-0.02 -0.05,-0.05zm0 -0.23c0,-0.04 0.02,-0.06 0.05,-0.06l0.49 0c0.04,0 0.08,0.06 0.04,0.09 -0.01,0.01 -0.03,0.02 -0.05,0.02l-0.47 0c-0.03,0 -0.06,-0.03 -0.06,-0.05zm-0.19 0.15l0 0.01c0,0.1 0,0.17 0.02,0.27 0,0.02 0,0.03 0.01,0.04 0,0.02 0.01,0.03 0.01,0.04 0.01,0.02 0.03,0.04 0.04,0.05 0.02,0.02 0.03,0.04 0.06,0.06 0.06,0.04 0.12,0.04 0.2,0.05 0.04,0 0.06,0 0.11,0 0.06,0 0.1,0.01 0.16,0 -0.02,-0.03 -0.02,-0.02 -0.04,-0.08 -0.01,-0.03 -0.01,-0.06 -0.01,-0.1 0,-0.04 0.02,-0.07 0.03,-0.11l0.06 -0.06c0,0 0.01,-0.01 0.01,-0.01 0.04,-0.03 0.09,-0.05 0.13,-0.05 0.07,0 0.11,0.01 0.16,0.04 0.01,0 0.01,0 0.02,0.01 0.01,-0.11 0.01,-0.37 -0.04,-0.45 -0.02,-0.03 -0.03,-0.05 -0.05,-0.07l-0.03 -0.02c-0.01,-0.01 -0.01,-0.01 -0.02,-0.02 -0.01,-0.01 -0.03,-0.02 -0.05,-0.02 -0.05,-0.02 -0.2,-0.03 -0.25,-0.03l-0.01 0c-0.11,0 -0.16,0 -0.28,0.02 -0.05,0 -0.1,0.03 -0.13,0.06 -0.01,0 -0.01,0.01 -0.02,0.01 -0.04,0.04 -0.06,0.09 -0.07,0.15 -0.01,0.07 -0.02,0.14 -0.02,0.21z"/>
    <path fill="black" d="M0.78 0.91l0 -0.09c0,-0.06 0.07,-0.05 0.07,0l0 0.09c0,0.05 -0.07,0.06 -0.07,0zm0.24 -0.11l0 0.03c0,0.02 -0.01,0.05 -0.02,0.07 -0.01,0.02 -0.03,0.05 -0.04,0.06 -0.04,0.03 -0.08,0.05 -0.13,0.06l-0.03 0c-0.03,0 -0.05,-0.01 -0.07,-0.02 -0.07,-0.04 -0.12,-0.1 -0.12,-0.19 0,-0.06 0.03,-0.11 0.06,-0.14 0.08,-0.08 0.21,-0.08 0.29,0 0.01,0.02 0.02,0.02 0.03,0.04 0,0.01 0.01,0.01 0.01,0.02 0.01,0.02 0.02,0.05 0.02,0.07zm-0.24 -0.08c0,-0.04 0,-0.04 0.04,-0.04 0.05,0 0.03,0.06 0.03,0.07 -0.01,0.01 -0.05,0 -0.06,0 -0.01,-0.01 -0.01,-0.02 -0.01,-0.03z"/>
   </g>
  </g>
 </g>
</svg>
