<?xml version="1.0" encoding="UTF-8"?>
<!DOCTYPE svg PUBLIC "-//W3C//DTD SVG 1.0//EN" "http://www.w3.org/TR/2001/REC-SVG-20010904/DTD/svg10.dtd">
<!-- Creator: CorelDRAW 2018 (64 Bit Versão de avaliação) -->
<svg xmlns="http://www.w3.org/2000/svg" xml:space="preserve" width="44px" height="41px" version="1.0" shape-rendering="geometricPrecision" text-rendering="geometricPrecision" image-rendering="optimizeQuality" fill-rule="evenodd" clip-rule="evenodd"
viewBox="0 0 3.97 3.73"
 xmlns:xlink="http://www.w3.org/1999/xlink">
 <g id="Camada_x0020_1">
  <metadata id="CorelCorpID_0Corel-Layer"/>
  <g id="_2933998671840">
   <g>
    <path fill="#292929" d="M1.79 1.46c0,0.28 0.02,0.38 0.15,0.62 0.05,0.1 0.1,0.16 0.18,0.24 0.04,0.04 0.12,0.1 0.17,0.13l0.07 0.04c0.06,0.03 0.21,0.1 0.26,0.1 0,0.01 -0.01,0.01 -0.01,0.02l-0.04 0.04c-0.03,0.03 -0.14,0.12 -0.18,0.15 -0.03,0.02 -0.06,0.04 -0.1,0.06 -0.12,0.07 -0.32,0.12 -0.47,0.12 -0.13,0 -0.22,-0.01 -0.34,-0.05 -0.02,0 -0.03,-0.01 -0.05,-0.01 -0.02,-0.01 -0.03,-0.02 -0.05,-0.02l-0.09 -0.04c-0.08,-0.05 -0.13,-0.08 -0.2,-0.14 0,0 -0.01,0 -0.01,-0.01 -0.02,-0.01 -0.03,-0.02 -0.04,-0.03 -0.02,-0.02 -0.01,-0.01 -0.03,-0.04l-0.07 -0.07c0,0 -0.01,-0.01 -0.01,-0.01 -0.01,-0.02 -0.02,-0.03 -0.03,-0.04 -0.06,-0.07 -0.13,-0.23 -0.16,-0.31 -0.03,-0.1 -0.05,-0.19 -0.05,-0.3 0,-0.29 0.04,-0.43 0.18,-0.66 0.06,-0.09 0.09,-0.11 0.13,-0.15 0.01,-0.02 0.02,-0.03 0.03,-0.04 0.01,-0.01 0.01,-0.01 0.02,-0.02l0.04 -0.03c0.06,-0.05 0.18,-0.13 0.26,-0.16 0.21,-0.09 0.44,-0.12 0.66,-0.07 0.01,0 0.04,0.01 0.05,0.01 -0.01,0.02 -0.05,0.05 -0.1,0.13 -0.03,0.05 -0.06,0.1 -0.08,0.16 -0.04,0.09 -0.09,0.24 -0.09,0.38zm0.91 -0.44c0,0.19 0.01,0.28 0.09,0.44 0.02,0.04 0.05,0.1 0.08,0.13l0.04 0.07c0.04,0.05 0.06,0.06 0.11,0.1 0.04,0.03 0.09,0.06 0.13,0.09 0.09,0.05 0.18,0.08 0.28,0.1 0.01,0 0.03,0 0.05,0 0.01,0.01 0.03,0 0.05,0 0.02,0.01 0.01,0.01 0.05,0.01 -0.02,0.03 -0.08,0.12 -0.11,0.14l-0.04 0.03c-0.15,0.12 -0.31,0.21 -0.51,0.21 -0.09,0 -0.14,0 -0.23,-0.02 -0.12,-0.04 -0.24,-0.09 -0.33,-0.17l-0.05 -0.05c-0.01,-0.01 -0.02,-0.02 -0.03,-0.03 -0.02,-0.02 -0.05,-0.05 -0.06,-0.08 -0.03,-0.04 -0.05,-0.08 -0.08,-0.13 -0.04,-0.09 -0.06,-0.23 -0.06,-0.33l0 -0.08c0,-0.09 0.04,-0.21 0.07,-0.27 0.04,-0.08 0.09,-0.15 0.15,-0.21 0.03,-0.03 0.06,-0.06 0.09,-0.09 0.02,-0.01 0.03,-0.02 0.05,-0.03 0.05,-0.03 0.07,-0.04 0.12,-0.06 0.05,-0.03 0.16,-0.06 0.21,-0.06 0,0.01 -0.01,0.02 -0.01,0.03 -0.03,0.08 -0.06,0.18 -0.06,0.26zm-2.31 0.81c0,0.19 0.02,0.33 0.08,0.5 0.01,0.05 0.03,0.08 0.05,0.13 0.03,0.07 0.08,0.15 0.13,0.22 0.03,0.05 0.07,0.09 0.12,0.14 0,0.01 0.01,0.01 0.02,0.02l0.11 0.11 0.1 0.07c0.01,0.02 0.03,0.03 0.05,0.04 0.09,0.05 0.19,0.11 0.29,0.14 0.33,0.11 0.71,0.1 1.02,-0.05l0.12 -0.05c0.01,-0.01 0.02,-0.02 0.03,-0.02l0.07 -0.04c0.05,-0.03 0.09,-0.07 0.13,-0.1l0.06 -0.06c0.04,-0.03 0.13,-0.13 0.16,-0.17l0.04 -0.07c0.13,0 0.27,-0.04 0.37,-0.09 0.06,-0.03 0.11,-0.05 0.16,-0.08 0.02,-0.02 0.04,-0.03 0.06,-0.05 0.01,-0.01 0.01,-0.01 0.02,-0.01l0.08 -0.07c0.03,-0.04 0.06,-0.07 0.09,-0.11l0.04 -0.05c0.02,-0.02 0.03,-0.04 0.05,-0.07 0.03,-0.05 0.06,-0.09 0.08,-0.15 0.03,-0.06 0.05,-0.13 0.05,-0.2 0,-0.02 0,-0.04 -0.01,-0.06 -0.03,-0.05 -0.08,-0.09 -0.14,-0.09 -0.08,0 -0.24,0.1 -0.48,-0.01 -0.13,-0.06 -0.22,-0.16 -0.29,-0.28 -0.01,-0.03 -0.03,-0.07 -0.04,-0.11 -0.01,-0.06 -0.02,-0.13 -0.01,-0.2 0.04,-0.22 0.2,-0.34 0.2,-0.39 0,-0.04 0,-0.09 -0.03,-0.12 -0.02,-0.02 -0.03,-0.03 -0.06,-0.04 -0.14,-0.06 -0.37,-0.03 -0.51,0.01 -0.09,0.02 -0.18,0.05 -0.25,0.1 -0.02,0.01 -0.03,0 -0.07,-0.01l-0.09 -0.04c-0.09,-0.02 -0.24,-0.05 -0.34,-0.05 -0.01,0 -0.02,0 -0.03,0 -0.01,0 -0.01,0 -0.03,0l-0.06 0c-0.14,0 -0.3,0.04 -0.43,0.08 -0.02,0.01 -0.03,0.02 -0.04,0.02 -0.02,0.01 -0.04,0.01 -0.05,0.02l-0.04 0.02c-0.02,0.01 -0.03,0.02 -0.05,0.02 -0.04,0.02 -0.08,0.05 -0.12,0.08l-0.14 0.11c-0.03,0.02 -0.08,0.07 -0.1,0.1 -0.01,0.01 -0.02,0.02 -0.03,0.03l-0.06 0.07c-0.02,0.04 -0.05,0.08 -0.07,0.12 -0.03,0.05 -0.07,0.1 -0.09,0.16 -0.02,0.03 -0.03,0.06 -0.04,0.09 -0.05,0.15 -0.08,0.28 -0.08,0.44z"/>
    <path fill="#292929" d="M0 1.33l0 0c0,0.04 0,0.06 0.03,0.1 0.04,0.05 0.17,0.09 0.23,0.09 0.08,0 0.15,-0.08 0.15,-0.14 0,-0.04 0,-0.06 -0.03,-0.1 -0.02,-0.02 -0.04,-0.03 -0.06,-0.04 -0.02,-0.02 -0.13,-0.05 -0.17,-0.05 -0.03,0 -0.08,0.03 -0.1,0.04 -0.01,0.02 -0.02,0.03 -0.03,0.04 -0.01,0.01 -0.02,0.04 -0.02,0.06z"/>
    <path fill="#292929" d="M0 2.38c0,0.05 0.01,0.1 0.05,0.13 0.08,0.06 0.18,0.04 0.26,-0.01 0.04,-0.02 0.08,-0.06 0.08,-0.12 0,-0.1 -0.06,-0.16 -0.15,-0.16 -0.11,0 -0.24,0.07 -0.24,0.16z"/>
    <path fill="#292929" d="M1.64 0.14c0,0.05 -0.01,0.14 0.01,0.18 0.02,0.05 0.08,0.08 0.12,0.08 0.06,0 0.09,-0.01 0.13,-0.05 0.04,-0.05 0.04,-0.11 0.04,-0.17 0,-0.07 -0.02,-0.13 -0.08,-0.16 -0.03,-0.02 -0.05,-0.02 -0.09,-0.02l0 0c-0.07,0 -0.13,0.07 -0.13,0.14z"/>
    <path fill="#292929" d="M1.77 3.73c0.06,0 0.1,-0.01 0.14,-0.06 0.03,-0.05 0.03,-0.11 0.03,-0.18 0,-0.17 -0.21,-0.2 -0.28,-0.09 -0.02,0.03 -0.02,0.05 -0.02,0.1 0,0.04 -0.01,0.06 0,0.11 0.02,0.07 0.06,0.12 0.13,0.12z"/>
    <path fill="#292929" d="M2.59 3.19c0,0.05 0.04,0.11 0.07,0.14 0.14,0.18 0.28,0.03 0.28,-0.05 0,-0.07 -0.02,-0.1 -0.05,-0.15 -0.03,-0.03 -0.05,-0.07 -0.1,-0.09 -0.1,-0.03 -0.2,0.02 -0.2,0.15z"/>
    <path fill="#292929" d="M0.62 3.24c0,0.14 0.11,0.22 0.22,0.14 0.04,-0.02 0.06,-0.05 0.08,-0.08 0.03,-0.04 0.05,-0.05 0.05,-0.13 0,-0.08 -0.07,-0.14 -0.13,-0.14 -0.07,0 -0.1,0.03 -0.14,0.08 -0.04,0.03 -0.08,0.08 -0.08,0.13z"/>
    <path fill="#292929" d="M0.62 0.46c0,0.1 0.02,0.09 0.07,0.16 0.04,0.06 0.08,0.08 0.15,0.08 0.08,0 0.13,-0.08 0.13,-0.16 0,-0.06 -0.08,-0.16 -0.12,-0.19 -0.05,-0.03 -0.12,-0.03 -0.17,0 0,0 -0.02,0.01 -0.02,0.02 -0.02,0.02 -0.04,0.06 -0.04,0.09z"/>
   </g>
  </g>
 </g>
</svg>
