<?xml version="1.0" encoding="UTF-8"?>
<!DOCTYPE svg PUBLIC "-//W3C//DTD SVG 1.0//EN" "http://www.w3.org/TR/2001/REC-SVG-20010904/DTD/svg10.dtd">
<!-- Creator: CorelDRAW 2018 (64 Bit Versão de avaliação) -->
<svg xmlns="http://www.w3.org/2000/svg" xml:space="preserve" width="41px" height="41px" version="1.0" shape-rendering="geometricPrecision" text-rendering="geometricPrecision" image-rendering="optimizeQuality" fill-rule="evenodd" clip-rule="evenodd"
viewBox="0 0 3.41 3.42"
 xmlns:xlink="http://www.w3.org/1999/xlink">
 <g id="Camada_x0020_1">
  <metadata id="CorelCorpID_0Corel-Layer"/>
  <path fill="black" d="M2.83 1.24c0.06,-0.03 0.18,-0.11 0.21,0.01 0.01,0.02 0.01,0.03 0.02,0.05 0.01,0.03 0.02,0.06 0.02,0.1l-0.2 -0.09c-0.04,-0.02 -0.04,-0.02 -0.06,-0.05 -0.09,0 -0.21,0.01 -0.31,0.01 -0.11,0 -0.21,0 -0.32,0 -0.21,-0.01 -0.43,-0.02 -0.64,-0.01 -0.45,0.02 -0.26,0.26 -0.19,0.28 0.14,0.05 0.47,0.02 0.63,0.01 0.18,0 0.76,-0.05 0.87,0.08 0.05,0.06 0.08,0.19 0.06,0.27 -0.04,0.14 -0.24,0.13 -0.26,0.41 -0.01,0.22 0.1,0.34 0.26,0.4 0,0.21 -0.01,0.36 -0.2,0.4 -0.16,0.02 -0.41,0 -0.58,0 -0.4,0 -0.79,0 -1.19,0 -0.23,0.01 -0.6,0.08 -0.66,-0.21 -0.05,-0.28 0.33,-0.26 0.26,-0.61 -0.02,-0.12 -0.07,-0.22 -0.16,-0.28 -0.03,-0.02 -0.08,-0.04 -0.1,-0.05 -0.01,-0.12 0.02,-0.24 0.07,-0.31 0.15,-0.21 0.56,0.02 0.53,-0.26 -0.02,-0.09 -0.13,-0.13 -0.18,-0.21 0.03,-0.03 0.12,-0.06 0.17,-0.08 0.16,-0.08 0.33,-0.19 0.48,-0.28 0.22,-0.12 0.43,-0.25 0.65,-0.37 0.08,-0.05 0.25,-0.15 0.36,-0.15 0.15,0 0.27,0.11 0.22,0.27 -0.04,0.13 -0.08,0.27 0,0.4 0.06,0.1 0.17,0.16 0.22,0.23 0.01,0.02 0.01,0.03 0.02,0.04zm-2.57 1.18c-0.1,0.07 -0.24,0 -0.26,0.21 -0.01,0.11 0,0.32 0.04,0.42 0.07,0.24 0.28,0.34 0.58,0.36 0.3,0.01 0.62,0 0.93,0 0.31,0 0.63,0 0.94,0 0.52,-0.01 0.73,-0.18 0.73,-0.67 0.01,-0.27 -0.07,-0.24 -0.18,-0.29 -0.05,-0.02 -0.1,-0.06 -0.08,-0.14 0.01,-0.07 0.07,-0.08 0.14,-0.09 0.08,-0.02 0.09,-0.05 0.1,-0.13 0.03,-0.2 -0.02,-0.18 0.12,-0.36 0.13,-0.18 0.11,-0.35 0.03,-0.55 -0.05,-0.1 -0.11,-0.23 -0.18,-0.28 -0.07,-0.05 -0.11,-0.03 -0.19,-0.01 -0.07,0.01 -0.14,-0.03 -0.15,-0.08 -0.04,-0.11 0.16,-0.15 0.12,-0.32 -0.02,-0.09 -0.13,-0.25 -0.18,-0.29 -0.07,-0.08 -0.14,-0.15 -0.28,-0.19 -0.23,-0.06 -0.51,0.11 -0.7,0.23 -0.1,0.06 -0.2,0.11 -0.3,0.16 -0.2,0.12 -0.4,0.23 -0.59,0.35 -0.15,0.08 -0.47,0.27 -0.59,0.35 -0.26,0.17 -0.31,0.22 -0.3,0.63 0,0.09 -0.02,0.39 0.03,0.44 0.03,0.04 0.11,0.05 0.17,0.07 0.05,0.01 0.04,0.01 0.04,0.07 0.01,0.04 0.01,0.07 0.01,0.11z"/>
 </g>
</svg>
