<?xml version="1.0" encoding="UTF-8"?>
<!DOCTYPE svg PUBLIC "-//W3C//DTD SVG 1.0//EN" "http://www.w3.org/TR/2001/REC-SVG-20010904/DTD/svg10.dtd">
<!-- Creator: CorelDRAW 2018 (64 Bit Versão de avaliação) -->
<svg xmlns="http://www.w3.org/2000/svg" xml:space="preserve" width="37px" height="41px" version="1.0" shape-rendering="geometricPrecision" text-rendering="geometricPrecision" image-rendering="optimizeQuality" fill-rule="evenodd" clip-rule="evenodd"
viewBox="0 0 0.68 0.74"
 xmlns:xlink="http://www.w3.org/1999/xlink">
 <g id="Camada_x0020_1">
  <metadata id="CorelCorpID_0Corel-Layer"/>
  <g id="_2751293004976">
   <g>
    <path fill="black" d="M0.06 0.4c0,-0.02 0.01,-0.05 0.01,-0.06 0.01,-0.07 0.05,-0.13 0.11,-0.16l0.03 -0.02c0.05,-0.03 0.08,-0.04 0.14,-0.04 0.05,0 0.11,0.02 0.15,0.05 0.03,0.03 0.06,0.06 0.08,0.09 0.04,0.08 0.05,0.19 0,0.26 -0.01,0.03 -0.02,0.04 -0.05,0.07 -0.02,0.02 -0.05,0.05 -0.08,0.06 -0.08,0.04 -0.17,0.03 -0.25,-0.01 -0.04,-0.02 -0.08,-0.07 -0.1,-0.11 -0.02,-0.04 -0.04,-0.08 -0.04,-0.13zm0.29 0.34l-0.03 0c-0.04,-0.01 -0.09,-0.02 -0.13,-0.04 -0.04,-0.02 -0.04,-0.02 -0.07,-0.05 -0.01,0 -0.02,-0.01 -0.02,-0.02 -0.03,-0.02 -0.04,-0.04 -0.06,-0.07 0,0 -0.01,-0.01 -0.01,-0.02 -0.05,-0.11 -0.04,-0.23 0.03,-0.33l0.02 -0.03c0.01,-0.01 0.01,-0.01 0.01,-0.01 0.01,-0.02 0.05,-0.05 0.07,-0.06 0.02,-0.01 0.05,-0.02 0.08,-0.03 0.02,-0.01 0.04,-0.02 0.06,-0.02l0 0c-0.01,0 -0.04,0.01 -0.05,-0.01 0,-0.01 0,-0.01 0,-0.02 0,-0.02 0.01,-0.03 0.02,-0.03l0.13 0c0.03,0 0.04,0.03 0.02,0.05 -0.01,0.02 -0.03,0.01 -0.05,0.01l0 0c0.05,0 0.11,0.03 0.15,0.05l0.03 0.03c0.02,-0.01 0.03,-0.03 0.05,-0.03 0,0 0.02,0 0.02,0.01 0.03,0.03 -0.01,0.05 -0.02,0.06 0,0.01 0.01,0.02 0.01,0.02 0.02,0.03 0.03,0.05 0.04,0.07 0.04,0.09 0.03,0.18 0,0.27 -0.01,0.01 -0.01,0.02 -0.02,0.02 -0.01,0.02 -0.02,0.04 -0.03,0.05 -0.01,0.01 -0.01,0.02 -0.02,0.02 -0.02,0.02 -0.04,0.04 -0.06,0.05 -0.05,0.03 -0.11,0.05 -0.17,0.06z"/>
    <path fill="black" d="M0.31 0.38c-0.03,0.02 -0.1,0.06 -0.13,0.07 -0.02,0.02 -0.03,0.02 -0.03,0.04 0,0.02 0.02,0.03 0.04,0.03 0.01,0 0.13,-0.08 0.15,-0.08 0.01,-0.01 0.03,-0.02 0.03,-0.05l0 -0.17c0,-0.01 0,-0.02 -0.01,-0.02 -0.01,-0.02 -0.05,-0.02 -0.05,0.01 -0.01,0.01 0,0.15 0,0.17z"/>
   </g>
  </g>
 </g>
</svg>
