<?xml version="1.0" encoding="UTF-8"?>
<!DOCTYPE svg PUBLIC "-//W3C//DTD SVG 1.0//EN" "http://www.w3.org/TR/2001/REC-SVG-20010904/DTD/svg10.dtd">
<!-- Creator: CorelDRAW 2018 (64 Bit Versão de avaliação) -->
<svg xmlns="http://www.w3.org/2000/svg" xml:space="preserve" width="41px" height="41px" version="1.0" shape-rendering="geometricPrecision" text-rendering="geometricPrecision" image-rendering="optimizeQuality" fill-rule="evenodd" clip-rule="evenodd"
viewBox="0 0 1.33 1.33"
 xmlns:xlink="http://www.w3.org/1999/xlink">
 <g id="Camada_x0020_1">
  <metadata id="CorelCorpID_0Corel-Layer"/>
  <g id="_2290010179040">
   <g>
    <path fill="#282828" d="M0.12 0.77c0,-0.05 0,-0.1 0.03,-0.13 0.03,-0.03 0.07,-0.06 0.12,-0.06l0.69 0c0.05,0 0.08,0.02 0.11,0.05 0.03,0.03 0.04,0.07 0.04,0.12l0 0.36 -0.99 0 0 -0.34zm0.72 -0.47l0 0.16 -0.47 0 0 -0.16c-0.02,0 -0.04,-0.01 -0.05,-0.02 -0.06,-0.03 -0.04,-0.08 0.01,-0.11 0.11,-0.07 0.42,-0.07 0.55,-0.01 0.14,0.07 0.03,0.14 -0.04,0.14zm-0.68 -0.07c0,0.05 0.01,0.1 0.06,0.13 0.01,0.01 0.02,0.02 0.03,0.02l0 0.08c-0.01,0 -0.04,0.01 -0.05,0.01 -0.1,0.02 -0.2,0.13 -0.2,0.23l0 0.53 0.1 0 0 0.1 0.12 0 0 -0.1 0.79 0 0 0.1 0.12 0 0 -0.1 0.09 0c0.01,0 0.01,0 0.01,-0.01l0 -0.36 0.1 0 0 -0.11 -0.1 0c0,-0.07 -0.01,-0.11 -0.04,-0.16 -0.05,-0.08 -0.13,-0.13 -0.23,-0.13l0 -0.07c0.02,-0.01 0.06,-0.04 0.07,-0.06 0.03,-0.04 0.04,-0.05 0.04,-0.1 0,-0.03 -0.02,-0.06 -0.03,-0.08 0,0 0,0 -0.01,-0.01 -0.07,-0.11 -0.25,-0.14 -0.37,-0.14l-0.01 0c-0.12,0 -0.25,0 -0.35,0.05 -0.06,0.03 -0.14,0.09 -0.14,0.18z"/>
    <path fill="#282828" d="M0.18 0.98c0,0.02 0,0.03 0.01,0.05 0.04,0.04 0.11,0.01 0.11,-0.03l0 -0.02c0,-0.02 -0.03,-0.05 -0.06,-0.05 -0.03,0 -0.06,0.03 -0.06,0.05z"/>
    <path fill="#282828" d="M0.36 0.99c0,0.02 0,0.03 0.01,0.04l0.02 0.01c0.03,0.02 0.09,0 0.09,-0.04 0,-0.03 0,-0.04 -0.02,-0.05 -0.03,-0.03 -0.06,-0.02 -0.08,0 -0.01,0.01 -0.02,0.02 -0.02,0.04z"/>
   </g>
  </g>
 </g>
</svg>
