<?xml version="1.0" encoding="UTF-8"?>
<!DOCTYPE svg PUBLIC "-//W3C//DTD SVG 1.0//EN" "http://www.w3.org/TR/2001/REC-SVG-20010904/DTD/svg10.dtd">
<!-- Creator: CorelDRAW 2018 (64 Bit Versão de avaliação) -->
<svg xmlns="http://www.w3.org/2000/svg" xml:space="preserve" width="29px" height="41px" version="1.0" shape-rendering="geometricPrecision" text-rendering="geometricPrecision" image-rendering="optimizeQuality" fill-rule="evenodd" clip-rule="evenodd"
viewBox="0 0 1.71 2.39"
 xmlns:xlink="http://www.w3.org/1999/xlink">
 <g id="Camada_x0020_1">
  <metadata id="CorelCorpID_0Corel-Layer"/>
  <path fill="black" d="M0.51 1.78c0,0.08 0.13,0.38 0.13,0.44l-0.47 0 0 -0.34 0.1 0c0.04,0 0.07,-0.04 0.07,-0.1 0,-0.03 -0.04,-0.07 -0.07,-0.07l-0.1 0 0 -0.51 1.35 0c0,0.12 -0.11,0.3 -0.21,0.38 -0.04,0.02 -0.08,0.06 -0.13,0.07 -0.17,0.07 -0.33,0.06 -0.54,0.06 -0.04,0 -0.06,-0.01 -0.09,0.01 -0.02,0.01 -0.04,0.04 -0.04,0.06zm-0.34 -1.51c0,-0.13 0.17,-0.13 0.17,0l0 0.75 -0.17 0 0 -0.75zm-0.17 -0.03l0 2.07c0,0.04 0.04,0.08 0.07,0.08l0.71 0c0.03,0 0.07,-0.04 0.07,-0.09 0,-0.04 -0.13,-0.38 -0.13,-0.42 0.14,0 0.29,0.01 0.4,-0.02 0.33,-0.09 0.59,-0.4 0.59,-0.72l0 -0.04c0,-0.03 -0.05,-0.08 -0.08,-0.08l-1.12 0 0 -0.78c0,-0.06 -0.03,-0.13 -0.07,-0.17 -0.02,-0.01 -0.05,-0.03 -0.07,-0.04 -0.18,-0.09 -0.37,0.05 -0.37,0.21z"/>
 </g>
</svg>
