<?xml version="1.0" encoding="UTF-8"?>
<!DOCTYPE svg PUBLIC "-//W3C//DTD SVG 1.0//EN" "http://www.w3.org/TR/2001/REC-SVG-20010904/DTD/svg10.dtd">
<!-- Creator: CorelDRAW 2018 (64 Bit Versão de avaliação) -->
<svg xmlns="http://www.w3.org/2000/svg" xml:space="preserve" width="41px" height="41px" version="1.0" shape-rendering="geometricPrecision" text-rendering="geometricPrecision" image-rendering="optimizeQuality" fill-rule="evenodd" clip-rule="evenodd"
viewBox="0 0 0.75 0.75"
 xmlns:xlink="http://www.w3.org/1999/xlink">
 <g id="Camada_x0020_1">
  <metadata id="CorelCorpID_0Corel-Layer"/>
  <path fill="#292929" d="M0.12 0.69c-0.01,0 -0.01,0 -0.01,0 0,-0.01 0.11,-0.12 0.12,-0.13 0.02,-0.03 -0.02,-0.06 -0.05,-0.03 0,0 0,0 0,0 -0.01,0.02 -0.07,0.07 -0.08,0.08 -0.01,0.01 -0.03,0.04 -0.04,0.04 0,-0.01 0,-0.01 0,-0.02 0,-0.01 0.01,-0.03 0.02,-0.04 0.02,-0.01 0.2,-0.2 0.2,-0.2l0.08 0.08c0,0 -0.12,0.12 -0.14,0.15 -0.02,0.01 -0.04,0.04 -0.06,0.05 -0.01,0.01 -0.03,0.02 -0.04,0.02zm0.02 -0.69l0.03 0c0.06,0.01 0.11,0.04 0.14,0.1 0.02,0.05 0,0.1 0,0.11 0.01,0 0.02,0.01 0.03,0.02 0,0.01 0.06,0.07 0.07,0.07 0,0 0.07,-0.07 0.08,-0.08 0,0 0.04,-0.03 0.04,-0.04l0.01 -0.07c0,-0.03 0,-0.04 0.03,-0.05l0.11 -0.06c0,0 0.01,0 0.01,0l0.01 0c0.01,0 0.02,0.01 0.03,0.02 0.01,0.01 0.02,0.02 0.02,0.04l0 0c0,0.01 0,0.01 0,0.02 -0.01,0.02 -0.03,0.06 -0.04,0.08 -0.01,0.01 -0.02,0.04 -0.03,0.05 -0.01,0 -0.06,0.01 -0.07,0.01 -0.03,0.01 -0.04,0 -0.05,0.01l-0.11 0.12c0,0 0.01,0.01 0.01,0.01l0.09 0.08c0,0 0.01,0 0.01,0 0.07,-0.01 0.12,0.01 0.16,0.06 0.02,0.02 0.03,0.05 0.03,0.08l0 0.03c0,0.01 0,0.03 -0.01,0.04 0,0.01 -0.01,0.02 -0.02,0.03 -0.01,0 -0.02,0 -0.03,-0.01 -0.01,0 -0.07,-0.07 -0.08,-0.07 0,-0.01 -0.01,-0.01 -0.02,-0.01 0,0.02 0,0.02 0.01,0.02 0.01,0.02 0.06,0.06 0.07,0.08 0.03,0.04 -0.02,0.06 -0.07,0.06l-0.02 0c0,0 0,0 -0.01,0 -0.04,0 -0.06,-0.01 -0.09,-0.04 0,-0.01 -0.01,-0.01 -0.02,-0.02 -0.03,-0.05 -0.03,-0.09 -0.02,-0.14l-0.03 -0.04c-0.01,0.01 -0.03,0.03 -0.04,0.04l-0.15 0.14c0,0.01 0,0.01 -0.01,0.02 0,0 0,0 0,0 0,0 0,0 -0.01,0 0,0.01 -0.01,0.02 -0.02,0.02 -0.01,0.01 -0.03,0.02 -0.05,0.02l-0.02 0c-0.04,0 -0.07,-0.01 -0.09,-0.04 -0.01,-0.02 -0.02,-0.04 -0.02,-0.07l0 -0.01c0,-0.02 0.01,-0.04 0.02,-0.06l0.22 -0.22c0,-0.01 -0.03,-0.03 -0.03,-0.04 -0.01,0 -0.02,0 -0.02,0.01 -0.01,0 -0.01,0 -0.02,0 -0.01,0 -0.01,0 -0.02,0 -0.02,0 -0.04,-0.01 -0.06,-0.02 -0.01,0 -0.01,0 -0.01,0l-0.01 -0.01c-0.04,-0.03 -0.07,-0.07 -0.07,-0.12l0 -0.02c0,-0.02 0,-0.03 0.01,-0.05 0,-0.01 0.01,-0.02 0.02,-0.02 0.01,-0.01 0.02,-0.01 0.03,0 0.01,0.01 0.07,0.07 0.08,0.08 0,0 0.01,0 0.02,0 0,-0.01 0,-0.01 0,-0.02 -0.02,-0.02 -0.07,-0.07 -0.08,-0.08 -0.01,-0.01 -0.01,-0.02 0,-0.03 0,-0.01 0.01,-0.02 0.02,-0.02 0.02,-0.01 0.03,-0.01 0.04,-0.01zm0.41 0.44l0 0zm-0.24 -0.23l0 0zm0.37 -0.14c0,0.01 -0.03,0.07 -0.04,0.08 0,0 0,0 0,0l-0.05 0.01 0.01 -0.04c0,-0.01 0,-0.01 0.02,-0.02 0.01,-0.01 0.05,-0.03 0.06,-0.03zm0 0l0 0zm-0.51 -0.01c0.03,0 0.07,0.03 0.08,0.06 0.02,0.06 -0.02,0.08 0,0.11 0,0.01 0.01,0.01 0.01,0.02l0.21 0.2c0,0.01 0.01,0.01 0.01,0.01l0.03 0.04c0.04,0.03 0.06,-0.02 0.13,0 0.01,0.01 0.03,0.02 0.03,0.04 0.01,0.01 0.02,0.03 0.02,0.05 -0.01,-0.01 -0.04,-0.05 -0.05,-0.05 -0.01,-0.01 -0.04,-0.01 -0.05,-0.01 -0.02,0 -0.04,0 -0.05,0.01 -0.01,0.01 -0.01,0.03 -0.01,0.05 0,0.05 0,0.04 0.04,0.08 0,0.01 0.01,0.01 0.02,0.02 -0.02,0 -0.04,-0.01 -0.06,-0.02 0,0 0,0 0,0 -0.01,-0.01 -0.01,-0.01 -0.01,-0.01 -0.01,-0.01 -0.01,-0.01 -0.01,-0.02 -0.02,-0.03 -0.02,-0.06 -0.01,-0.09 0.01,-0.03 0,-0.04 -0.03,-0.06l-0.24 -0.24c-0.03,-0.02 -0.05,0.02 -0.11,0 -0.02,-0.01 -0.03,-0.02 -0.04,-0.03 -0.01,-0.02 -0.01,-0.03 -0.02,-0.05 0.01,0 0.04,0.04 0.06,0.05 0.01,0 0.03,0 0.05,0 0.02,0 0.03,0 0.04,-0.01 0.01,-0.01 0.01,-0.04 0.01,-0.07 0,-0.03 0,-0.02 -0.01,-0.04 -0.01,-0.01 -0.04,-0.03 -0.04,-0.04zm0 0l0 0z"/>
 </g>
</svg>
