<?xml version="1.0" encoding="UTF-8"?>
<!DOCTYPE svg PUBLIC "-//W3C//DTD SVG 1.0//EN" "http://www.w3.org/TR/2001/REC-SVG-20010904/DTD/svg10.dtd">
<!-- Creator: CorelDRAW 2018 (64 Bit Versão de avaliação) -->
<svg xmlns="http://www.w3.org/2000/svg" xml:space="preserve" width="41px" height="41px" version="1.0" shape-rendering="geometricPrecision" text-rendering="geometricPrecision" image-rendering="optimizeQuality" fill-rule="evenodd" clip-rule="evenodd"
viewBox="0 0 2.45 2.46"
 xmlns:xlink="http://www.w3.org/1999/xlink">
 <g id="Camada_x0020_1">
  <metadata id="CorelCorpID_0Corel-Layer"/>
  <g id="_2751246690528">
   <g>
    <path fill="black" d="M1.23 2.25c-0.14,0 -0.14,-0.2 0.01,-0.2 0.02,0 0.05,0.02 0.06,0.03 0.06,0.06 0.02,0.17 -0.07,0.17zm-0.29 -0.21l-0.45 0c-0.08,-0.14 -0.23,-0.18 -0.35,-0.12 -0.22,0.11 -0.16,0.44 0.06,0.48 0.14,0.02 0.23,-0.04 0.29,-0.15l0.45 0c0.02,0.1 0.15,0.21 0.28,0.21 0.11,0 0.19,-0.05 0.25,-0.13 0.02,-0.02 0.04,-0.05 0.04,-0.08l0.45 0c0.06,0.11 0.16,0.17 0.29,0.15 0.22,-0.04 0.29,-0.36 0.07,-0.48 -0.12,-0.06 -0.28,-0.03 -0.36,0.12l-0.45 0c-0.01,-0.05 -0.06,-0.11 -0.1,-0.14 -0.11,-0.08 -0.26,-0.08 -0.37,0 -0.04,0.03 -0.09,0.09 -0.1,0.14z"/>
    <path fill="black" d="M0.72 0.72c0,-0.21 0.11,-0.38 0.28,-0.46 0.13,-0.07 0.32,-0.07 0.45,0 0.05,0.02 0.1,0.06 0.14,0.1 0.16,0.16 0.19,0.4 0.09,0.6 -0.06,0.11 -0.17,0.18 -0.26,0.27l-0.15 0.14c-0.02,0.01 -0.03,0.03 -0.04,0.04l-0.11 -0.11c-0.02,-0.01 -0.03,-0.02 -0.05,-0.03l-0.07 -0.07c-0.15,-0.14 -0.28,-0.25 -0.28,-0.48zm-0.21 -0.01c0,0.07 0.01,0.13 0.02,0.19 0.04,0.14 0.14,0.29 0.25,0.38 0.06,0.05 0.17,0.16 0.22,0.21l0.17 0.15c0.02,0.01 0.04,0.03 0.06,0.05l0.11 -0.1c0.02,-0.02 0.03,-0.03 0.05,-0.05 0.14,-0.14 0.39,-0.32 0.47,-0.48 0.05,-0.11 0.09,-0.21 0.09,-0.34 0,-0.4 -0.34,-0.72 -0.7,-0.72 -0.13,0 -0.23,0.02 -0.33,0.07 -0.24,0.12 -0.41,0.35 -0.41,0.64z"/>
    <path fill="black" d="M1.23 0.81c-0.15,0 -0.13,-0.19 0,-0.19 0.13,0 0.13,0.19 0,0.19zm-0.31 -0.12c0,0.1 0.01,0.17 0.09,0.25 0.12,0.11 0.31,0.11 0.43,0 0.27,-0.26 -0.08,-0.73 -0.42,-0.45 -0.05,0.04 -0.1,0.13 -0.1,0.2z"/>
   </g>
  </g>
 </g>
</svg>
