<?xml version="1.0" encoding="UTF-8"?>
<!DOCTYPE svg PUBLIC "-//W3C//DTD SVG 1.0//EN" "http://www.w3.org/TR/2001/REC-SVG-20010904/DTD/svg10.dtd">
<!-- Creator: CorelDRAW 2018 (64 Bit Versão de avaliação) -->
<svg xmlns="http://www.w3.org/2000/svg" xml:space="preserve" width="53px" height="41px" version="1.0" shape-rendering="geometricPrecision" text-rendering="geometricPrecision" image-rendering="optimizeQuality" fill-rule="evenodd" clip-rule="evenodd"
viewBox="0 0 9.21 7.23"
 xmlns:xlink="http://www.w3.org/1999/xlink">
 <g id="Camada_x0020_1">
  <metadata id="CorelCorpID_0Corel-Layer"/>
  <path fill="black" d="M6.24 0.36l0 0.95 -2.34 0c-0.13,0 -0.28,0.14 -0.28,0.35 0,0.18 0.16,0.32 0.34,0.32l2.59 0c0.1,0 0.16,-0.02 0.22,-0.06 0.21,-0.15 0.14,-0.48 0.14,-0.79l1.5 1.49 -1.5 1.5c0,-0.14 0.01,-0.52 -0.02,-0.62 -0.04,-0.15 -0.2,-0.23 -0.39,-0.23l-3.53 0 0 -0.97c0,-0.1 -0.04,-0.17 -0.09,-0.23 -0.23,-0.24 -0.46,-0.03 -0.64,0.14l-1.97 1.98c-0.14,0.13 -0.27,0.22 -0.27,0.43 0,0.18 0.17,0.29 0.27,0.39l1.95 1.95c0.18,0.18 0.2,0.27 0.46,0.27 0.17,0 0.29,-0.17 0.29,-0.37l0 -0.94 2.34 0c0.13,0 0.29,-0.14 0.29,-0.34 0,-0.18 -0.17,-0.33 -0.35,-0.33l-2.59 0c-0.47,0 -0.36,0.51 -0.36,0.85l-1.49 -1.49 1.49 -1.5c0,0.15 -0.01,0.52 0.02,0.62 0.05,0.15 0.2,0.23 0.4,0.23l3.52 0 0 0.97c0,0.2 0.18,0.34 0.33,0.34 0.22,0 0.54,-0.38 0.73,-0.58l1.65 -1.64c0.13,-0.14 0.26,-0.23 0.26,-0.44 0,-0.18 -0.17,-0.29 -0.26,-0.38l-1.96 -1.96c-0.17,-0.18 -0.19,-0.27 -0.46,-0.27 -0.14,0 -0.29,0.15 -0.29,0.36z"/>
 </g>
</svg>
