<?xml version="1.0" encoding="UTF-8"?>
<!DOCTYPE svg PUBLIC "-//W3C//DTD SVG 1.0//EN" "http://www.w3.org/TR/2001/REC-SVG-20010904/DTD/svg10.dtd">
<!-- Creator: CorelDRAW 2018 (64 Bit Versão de avaliação) -->
<svg xmlns="http://www.w3.org/2000/svg" xml:space="preserve" width="41px" height="41px" version="1.0" shape-rendering="geometricPrecision" text-rendering="geometricPrecision" image-rendering="optimizeQuality" fill-rule="evenodd" clip-rule="evenodd"
viewBox="0 0 17.2 17.2"
 xmlns:xlink="http://www.w3.org/1999/xlink">
 <g id="Camada_x0020_1">
  <metadata id="CorelCorpID_0Corel-Layer"/>
  <path fill="#292929" d="M8.61 15.47l0 -5.32c0.31,0 0.6,-0.16 0.82,-0.32 0.24,-0.18 0.4,-0.35 0.54,-0.63 0.08,-0.16 0.18,-0.36 0.18,-0.59l1.67 0c0.28,0 0.43,-0.07 0.57,-0.22 0.36,-0.36 0.3,-0.85 1.07,-1.37 0,0.32 -0.01,0.62 0.03,0.9 0.04,0.26 0.17,0.47 0.37,0.58 0.48,0.24 1.4,0 1.75,0.16 0.01,0.06 0.02,0.06 0.02,0.14l0 6.67c0,0.07 -0.09,0.16 -0.16,0.16l-6.7 0c-0.06,0 -0.16,-0.09 -0.16,-0.16zm3.55 -4.13l0.61 1.25 -1.24 0c0.05,-0.24 0.4,-0.82 0.52,-1.12 0.05,-0.11 0,-0.1 0.11,-0.13zm-2.09 3.23c0.3,0 0.44,-0.03 0.63,-0.4 0.06,-0.14 0.24,-0.45 0.27,-0.58l2.33 0c0.01,0.1 0.36,0.98 0.69,0.98l0.16 0c0.16,0 0.42,-0.16 0.42,-0.47 0,-0.16 -0.27,-0.74 -0.36,-0.91 -0.06,-0.12 -0.09,-0.19 -0.15,-0.3l-0.86 -1.72c-0.1,-0.21 -0.2,-0.38 -0.3,-0.57 -0.09,-0.19 -0.18,-0.37 -0.28,-0.57 -0.18,-0.35 -0.5,-0.52 -0.82,-0.25 -0.17,0.15 -0.44,0.74 -0.54,0.95 -0.19,0.38 -1.54,3.02 -1.6,3.3 -0.05,0.21 0.19,0.54 0.41,0.54zm-5.43 -10.15l0.87 0c-0.12,0.52 -0.03,0.38 -0.26,0.85 -0.05,0.09 -0.11,0.18 -0.14,0.27 -0.3,-0.08 -0.47,-1.12 -0.47,-1.12zm-0.08 -1.29l0 0.26 -1.49 0c-0.57,0 -0.67,1.03 0.11,1.03l0.45 0c0,0.47 0.19,1.04 0.42,1.42l0.24 0.39c-0.4,0.21 -0.78,0.23 -1.21,0.29 -0.18,0.03 -0.37,0.14 -0.44,0.31 -0.07,0.2 -0.01,0.42 0.12,0.56 0.17,0.18 0.28,0.15 0.55,0.14 0.91,-0.06 1.7,-0.56 1.75,-0.56 0,0 2.06,1.06 2.43,0.28 0.12,-0.25 0.02,-0.49 -0.14,-0.61 -0.14,-0.1 -0.3,-0.12 -0.49,-0.14 -0.43,-0.05 -0.67,-0.11 -0.98,-0.27 0.03,-0.11 0.16,-0.27 0.22,-0.37 0.21,-0.36 0.42,-0.99 0.42,-1.44 0.37,0 0.93,0.05 1.01,-0.41 0.06,-0.29 -0.18,-0.62 -0.48,-0.62l-1.46 0c0,-1.22 -1.03,-0.8 -1.03,-0.26zm-4.56 8.29c0,1.22 0.27,2.05 0.95,2.97 0.52,0.68 1.31,1.28 2.13,1.55 0.22,0.07 0.58,0.22 0.84,0.22 0,0.11 -0.03,0.12 -0.03,0.32 0,0.33 0.37,0.72 0.69,0.72 0.56,0 0.75,-0.31 1.16,-0.73 0.38,-0.38 0.93,-0.77 0.64,-1.36 -0.1,-0.2 -0.47,-0.55 -0.62,-0.7 -0.42,-0.42 -1.07,-1.15 -1.69,-0.45 -0.17,0.19 -0.18,0.39 -0.18,0.61 -0.13,-0.06 -0.28,-0.1 -0.59,-0.25 -0.2,-0.11 -0.36,-0.21 -0.53,-0.34 -0.31,-0.23 -0.63,-0.6 -0.82,-0.94 -0.21,-0.38 -0.34,-0.82 -0.38,-1.36 -0.03,-0.29 -0.04,-0.51 -0.2,-0.68 -0.29,-0.32 -0.78,-0.36 -1.12,-0.08 -0.12,0.1 -0.25,0.3 -0.25,0.5zm10.73 -9.7c0,0.46 0.46,0.82 0.71,1.07 0.34,0.34 0.57,0.71 1.15,0.71 0.43,0 0.71,-0.4 0.71,-0.85 0.4,0.03 1.06,0.46 1.36,0.76 0.36,0.37 0.66,0.76 0.82,1.32 0.21,0.71 -0.01,1.26 0.52,1.6 0.47,0.3 1.2,0.04 1.2,-0.69 0,-1 -0.29,-1.82 -0.8,-2.59 -0.56,-0.84 -1.35,-1.49 -2.32,-1.81l-0.81 -0.23c0.01,-0.23 0.12,-0.59 -0.34,-0.9 -0.13,-0.09 -0.21,-0.11 -0.32,-0.11l-0.12 0 -0.01 0c-0.43,0 -0.75,0.42 -1.03,0.7 -0.28,0.28 -0.72,0.62 -0.72,1.02zm-2.78 6.89c-0.58,0 -2.36,-0.05 -2.75,0.01 -0.42,0.07 -0.49,0.22 -0.64,0.56 -0.05,0.13 -0.13,0.28 -0.21,0.39 -0.2,0.27 -0.33,0.41 -0.61,0.6 0,-0.45 0.03,-0.78 -0.11,-1.11 -0.23,-0.52 -0.71,-0.48 -1.17,-0.48 -0.2,0.01 -0.9,0.15 -0.9,-0.18l0 -6.68c0,-0.06 0.1,-0.16 0.16,-0.16l6.71 0c0.06,0 0.15,0.1 0.15,0.16l0 6.65c0,0.26 -0.33,0.24 -0.63,0.24zm-7.95 -7.1l0 7.13c0,0.5 0.51,1.11 0.93,1.32 0.47,0.25 0.63,0.19 1.22,0.19l0 1.32c0,0.36 0.35,0.61 0.71,0.61 0.53,0 1.09,-0.17 1.52,-0.44 0.58,-0.37 0.8,-0.55 1.22,-1.11 0.08,-0.1 0.2,-0.25 0.23,-0.38 0.18,0 1.12,-0.05 1.19,0.02 0.07,0.07 0.03,3.39 0.03,3.63 0,0.41 0,0.82 0,1.22 0,0.93 -0.01,1.19 0.64,1.8 0.16,0.14 0.58,0.38 0.87,0.38l7.07 0c0.76,0 1.57,-0.88 1.57,-1.52l0 -7.12c0,-0.28 -0.21,-0.68 -0.38,-0.87 -0.08,-0.08 -0.12,-0.16 -0.2,-0.22 -0.53,-0.42 -0.88,-0.45 -1.57,-0.45l0 -1.27c0,-0.32 -0.38,-0.66 -0.69,-0.66 -0.4,0 -0.73,0.1 -1.02,0.22 -0.09,0.04 -0.13,0.06 -0.22,0.1 -0.69,0.34 -1.08,0.65 -1.55,1.28 -0.05,0.07 -0.09,0.11 -0.13,0.19 -0.15,0.25 0.04,0.17 -1.21,0.17 -0.13,0 -0.08,-0.22 -0.08,-0.45l0 -4.82c0,-0.57 -0.1,-0.81 -0.43,-1.19 -0.07,-0.08 -0.05,-0.07 -0.13,-0.14 -0.24,-0.2 -0.55,-0.45 -0.93,-0.45l-7.15 0c-0.66,0 -1.51,0.85 -1.51,1.51z"/>
 </g>
</svg>
