<?xml version="1.0" encoding="UTF-8"?>
<!DOCTYPE svg PUBLIC "-//W3C//DTD SVG 1.0//EN" "http://www.w3.org/TR/2001/REC-SVG-20010904/DTD/svg10.dtd">
<!-- Creator: CorelDRAW 2018 (64 Bit Versão de avaliação) -->
<svg xmlns="http://www.w3.org/2000/svg" xml:space="preserve" width="227px" height="227px" version="1.0" shape-rendering="geometricPrecision" text-rendering="geometricPrecision" image-rendering="optimizeQuality" fill-rule="evenodd" clip-rule="evenodd"
viewBox="0 0 42.34 42.33"
 xmlns:xlink="http://www.w3.org/1999/xlink">
 <g id="Camada_x0020_1">
  <metadata id="CorelCorpID_0Corel-Layer"/>
  <path fill="#282828" d="M38.42 20.44c-0.04,0.01 -0.06,-0.44 -0.06,-0.48 -0.09,-2.05 -0.65,-4.02 -1.45,-5.87 -0.29,-0.68 -1.07,-2.13 -1.54,-2.74 -0.16,-0.22 -0.32,-0.39 -0.49,-0.6l-1.46 -1.74c-0.1,-0.1 -0.17,-0.18 -0.28,-0.26 -0.13,-0.11 -0.17,-0.13 -0.29,-0.25 -1.34,-1.37 -2.8,-2.18 -4.5,-3.04 -0.47,-0.24 -1.02,-0.45 -1.54,-0.63 -1.53,-0.5 -2.84,-0.73 -4.47,-0.9 -1.05,-0.11 -1.01,-0.05 -1.94,0 -1.48,0.07 -3.2,0.35 -4.59,0.81 -0.26,0.09 -0.55,0.18 -0.82,0.28 -0.86,0.32 -2.11,0.92 -2.87,1.41 -0.22,0.15 -0.4,0.26 -0.63,0.41 -0.41,0.29 -1.35,1.09 -1.8,1.45l-0.56 0.48c-0.26,0.22 -0.35,0.38 -0.52,0.56l-1 1.16c-0.85,1.08 -1.45,1.96 -2.07,3.26 -0.27,0.56 -0.72,1.7 -0.9,2.35 -0.61,2.19 -0.76,3.41 -0.76,5.7 0,2.77 1.04,5.9 2.41,8.19 0.29,0.47 0.55,0.84 0.85,1.27 0.28,0.41 0.62,0.8 0.95,1.17 0.11,0.12 0.13,0.18 0.25,0.3 1.08,1.07 1.72,1.75 3.11,2.67 0.72,0.48 0.95,0.6 1.67,0.99 0.14,0.07 0.19,0.12 0.35,0.19 0.74,0.35 1.44,0.66 2.23,0.93 1.76,0.58 1.79,0.54 3.46,0.78l2.1 0.16c0.4,0 0.61,-0.09 1,-0.09 0.32,0 0.68,-0.07 0.99,-0.09 1.64,-0.14 3.68,-0.74 5.07,-1.39 0.27,-0.13 0.47,-0.21 0.74,-0.34 0.85,-0.43 1.87,-1.15 2.62,-1.72 0.22,-0.16 0.4,-0.29 0.61,-0.46 0.34,-0.28 0.61,-0.61 0.84,-0.79 0.32,-0.24 0.31,-0.33 0.51,-0.53l0.52 -0.56c0.41,-0.4 1.13,-1.33 1.43,-1.82l0.61 -1.02c0.07,-0.13 0.12,-0.23 0.19,-0.35l0.53 -1.05c0.82,-2.02 1.06,-2.97 1.38,-5.07l0.16 -1.96c0,-0.29 -0.03,-0.47 -0.06,-0.66 0,-0.03 -0.02,-0.1 0.02,-0.11l3.9 -0.27c0.03,-0.01 0,0.06 0,0.1 0.02,0.51 0.02,1.05 0.02,1.66 0,2.81 -0.82,5.84 -2,8.2 -0.57,1.15 -1.14,2.24 -1.87,3.22 -1.31,1.74 -1.51,1.91 -3,3.42 -0.46,0.46 -1.54,1.28 -2.11,1.68 -0.51,0.36 -1.02,0.67 -1.57,1 -0.55,0.33 -1.08,0.58 -1.64,0.88 -1.1,0.6 -2.46,0.99 -3.75,1.36 -1.98,0.58 -3.35,0.64 -5.5,0.64 -2.14,0 -4.73,-0.49 -6.64,-1.12l-0.96 -0.36c-2.06,-0.87 -4.62,-2.34 -6.32,-3.97l-1.28 -1.29c-0.86,-0.86 -1.04,-1.11 -1.75,-2.09 -0.45,-0.62 -1.13,-1.68 -1.48,-2.39 -0.08,-0.15 -0.14,-0.29 -0.22,-0.42 -0.09,-0.16 -0.11,-0.24 -0.2,-0.43 -0.29,-0.59 -0.56,-1.15 -0.79,-1.78 -0.23,-0.64 -0.45,-1.26 -0.62,-1.95 -0.61,-2.45 -0.64,-3.58 -0.64,-5.85l0 -0.35 0 -0.25c0,-0.79 0.11,-1.65 0.23,-2.35 0.26,-1.57 0.78,-3.45 1.44,-4.91 0.44,-0.98 0.81,-1.61 1.31,-2.53 0.64,-1.19 1.33,-1.98 2.13,-2.97 0.56,-0.7 1.03,-1.06 1.58,-1.62l1.02 -0.88c0.22,-0.2 0.46,-0.37 0.71,-0.56 1.55,-1.21 3.05,-2.07 4.87,-2.8 0.32,-0.13 0.6,-0.23 0.92,-0.34 2.03,-0.67 4.19,-1.05 6.35,-1.12l1.4 0c1.51,0.05 3.01,0.25 4.47,0.61 1.41,0.36 2.58,0.8 3.75,1.39 1.15,0.57 3.04,1.59 4,2.46 0.11,0.09 0.24,0.19 0.35,0.28l1.37 1.2 1.53 1.68c1.07,1.2 2.39,3.34 2.98,4.73 0.62,1.43 0.92,2.24 1.32,3.83 0.36,1.46 0.52,2.54 0.57,3.75 0.01,0.02 0.03,0.24 0.02,0.24l-3.9 0.27zm-28.08 -2.39c0,0.59 0.2,1.05 0.45,1.4 0.2,0.28 0.71,0.68 1.17,0.68l18.33 0c0.92,0 1.67,-1.01 1.67,-1.81 0,-0.76 -0.15,-1.29 -0.8,-1.72 -0.56,-0.37 -1.1,-0.35 -1.86,-0.35l-13.41 0c0.75,-1.13 1.26,-1.25 1.26,-2.85 0,-0.2 -0.11,-0.47 -0.19,-0.61 -0.4,-0.66 -1.07,-0.97 -1.88,-0.97 -0.76,0 -1.32,0.61 -1.64,1.08l-2.21 3.29c-0.24,0.35 -0.89,1.36 -0.89,1.86zm0 5.91c0,0.36 0.08,0.7 0.17,0.96 0.11,0.3 0.26,0.45 0.47,0.66 0.54,0.54 0.91,0.37 1.76,0.49 0.37,0.05 3.87,0.02 4.55,0.01l9.07 -0.04c-0.14,0.54 -1.22,1.28 -1.22,2.53 0,0.64 0.18,0.97 0.6,1.38 0.29,0.29 0.74,0.56 1.3,0.56 1.38,0 2.16,-1.6 2.92,-2.73 0.59,-0.9 2,-2.62 2,-3.68 0,-0.67 -0.15,-0.96 -0.66,-1.46 -0.34,-0.32 -0.78,-0.48 -1.42,-0.48l-17.51 0c-0.65,0 -1.03,0.21 -1.39,0.51 -0.14,0.11 -0.33,0.37 -0.42,0.53 -0.11,0.19 -0.22,0.46 -0.22,0.76z"/>
 </g>
</svg>
