<?xml version="1.0" encoding="UTF-8"?>
<!DOCTYPE svg PUBLIC "-//W3C//DTD SVG 1.0//EN" "http://www.w3.org/TR/2001/REC-SVG-20010904/DTD/svg10.dtd">
<!-- Creator: CorelDRAW 2018 (64 Bit Versão de avaliação) -->
<svg xmlns="http://www.w3.org/2000/svg" xml:space="preserve" width="36px" height="41px" version="1.0" shape-rendering="geometricPrecision" text-rendering="geometricPrecision" image-rendering="optimizeQuality" fill-rule="evenodd" clip-rule="evenodd"
viewBox="0 0 0.7 0.8"
 xmlns:xlink="http://www.w3.org/1999/xlink">
 <g id="Camada_x0020_1">
  <metadata id="CorelCorpID_0Corel-Layer"/>
  <g id="_2303720798880">
   <g>
    <path fill="black" d="M0.15 0.8l0.4 0c0.02,0 0.05,-0.01 0.06,-0.03 0,-0.01 0.01,-0.02 0.01,-0.03 0,-0.01 0.01,-0.1 0.01,-0.12 0,-0.02 0,-0.03 0,-0.05l0 -0.04c0,-0.02 0.01,-0.05 0.01,-0.08 0,-0.01 0,-0.01 0,-0.02 0,-0.02 0,-0.06 0,-0.08 0,-0.01 0.01,-0.01 0.01,-0.02 0,-0.02 0,-0.04 0,-0.05l0 -0.08 -0.6 0 0.02 0.29c0,0.03 0,0.1 0.01,0.12 0,0.01 0,0.02 0,0.02l0 0.11c0.01,0.03 0.04,0.06 0.07,0.06z"/>
    <path fill="black" d="M0.21 0.05l-0.17 0c-0.05,0 -0.04,0.02 -0.04,0.08 0,0.01 0.01,0.02 0.03,0.02l0.65 0c0.03,0 0.02,-0.04 0.02,-0.07 0,-0.03 -0.01,-0.03 -0.03,-0.03l-0.18 0c-0.01,-0.02 -0.02,-0.05 -0.04,-0.05l-0.19 0c-0.03,0 -0.04,0.03 -0.05,0.05z"/>
   </g>
  </g>
 </g>
</svg>
