<?xml version="1.0" encoding="UTF-8"?>
<!DOCTYPE svg PUBLIC "-//W3C//DTD SVG 1.0//EN" "http://www.w3.org/TR/2001/REC-SVG-20010904/DTD/svg10.dtd">
<!-- Creator: CorelDRAW 2018 (64 Bit Versão de avaliação) -->
<svg xmlns="http://www.w3.org/2000/svg" xml:space="preserve" width="39px" height="41px" version="1.0" shape-rendering="geometricPrecision" text-rendering="geometricPrecision" image-rendering="optimizeQuality" fill-rule="evenodd" clip-rule="evenodd"
viewBox="0 0 2.24 2.36"
 xmlns:xlink="http://www.w3.org/1999/xlink">
 <g id="Camada_x0020_1">
  <metadata id="CorelCorpID_0Corel-Layer"/>
  <g id="_2751226009488">
   <path fill="#292929" d="M1.85 0.83c-0.01,0.09 -0.01,0.18 -0.02,0.27 -0.02,0.24 -0.05,0.56 -0.06,0.81 0,0.07 -0.01,0.2 -0.06,0.23 -0.03,0.01 -0.51,0 -0.58,0 -0.07,0 -0.56,0.01 -0.59,0 -0.06,-0.02 -0.06,-0.15 -0.06,-0.22 -0.01,-0.09 -0.02,-0.19 -0.02,-0.28 -0.03,-0.26 -0.05,-0.54 -0.07,-0.81 0,-0.09 -0.02,-0.18 -0.01,-0.27l1.5 0 -0.03 0.27zm0.39 -0.35c0.01,-0.04 0,-0.08 -0.02,-0.1 -0.05,-0.06 -0.26,-0.04 -0.36,-0.04l-1.6 0c-0.09,0 -0.18,-0.01 -0.23,0.03 -0.04,0.04 -0.05,0.16 0.04,0.18 0.08,0.02 0.08,-0.02 0.09,0.05l0.1 1.35c0.01,0.14 0.03,0.29 0.16,0.37 0.08,0.04 0.14,0.03 0.24,0.03 0.26,0.01 0.54,0 0.8,0 0.2,0 0.31,0.03 0.43,-0.09 0.08,-0.1 0.09,-0.28 0.1,-0.43 0,-0.09 0.01,-0.17 0.02,-0.25 0.01,-0.14 0.06,-0.91 0.08,-0.99 0.01,-0.05 0.04,-0.02 0.09,-0.04 0.03,-0.01 0.05,-0.04 0.06,-0.07z"/>
   <path fill="#292929" d="M1.46 0.13c0.01,-0.06 -0.04,-0.12 -0.09,-0.13 -0.05,0 -0.38,0 -0.45,0 -0.06,0 -0.12,0.01 -0.14,0.09 -0.02,0.16 0.22,0.13 0.32,0.13 0.07,0 0.15,0 0.22,0 0.07,0 0.12,-0.03 0.14,-0.09z"/>
  </g>
 </g>
</svg>
