<?xml version="1.0" encoding="UTF-8"?>
<!DOCTYPE svg PUBLIC "-//W3C//DTD SVG 1.0//EN" "http://www.w3.org/TR/2001/REC-SVG-20010904/DTD/svg10.dtd">
<!-- Creator: CorelDRAW 2018 (64 Bit Versão de avaliação) -->
<svg xmlns="http://www.w3.org/2000/svg" xml:space="preserve" width="47px" height="28px" version="1.0" shape-rendering="geometricPrecision" text-rendering="geometricPrecision" image-rendering="optimizeQuality" fill-rule="evenodd" clip-rule="evenodd"
viewBox="0 0 2.05 1.2"
 xmlns:xlink="http://www.w3.org/1999/xlink">
 <g id="Camada_x0020_1">
  <metadata id="CorelCorpID_0Corel-Layer"/>
  <path fill="black" d="M1.36 0.09c0,0.03 0.02,0.06 0.05,0.07 0.02,0.02 0.06,0.02 0.1,0.02 0.08,0 0.16,0 0.24,0l-0.6 0.6c-0.02,-0.02 -0.31,-0.32 -0.35,-0.35 -0.08,-0.08 -0.12,-0.04 -0.18,0.02l-0.49 0.5c-0.03,0.02 -0.05,0.04 -0.07,0.07 -0.04,0.04 -0.06,0.04 -0.06,0.1 0,0.05 0.05,0.08 0.08,0.08 0.05,0 0.07,-0.04 0.1,-0.06 0.05,-0.05 0.52,-0.53 0.54,-0.54 0.02,0.01 0.31,0.3 0.36,0.35 0.03,0.03 0.04,0.03 0.08,0.03 0.04,0 0.08,-0.04 0.1,-0.07l0.53 -0.52c0.02,-0.02 0.06,-0.08 0.09,-0.09 0,0.08 0,0.16 0,0.24 0,0.03 -0.01,0.08 0.01,0.1 0.04,0.08 0.16,0.05 0.16,-0.03l0 -0.53c0,-0.05 -0.05,-0.08 -0.09,-0.08l-0.5 0c-0.05,0 -0.1,0.04 -0.1,0.09z"/>
 </g>
</svg>
