<?xml version="1.0" encoding="UTF-8"?>
<!DOCTYPE svg PUBLIC "-//W3C//DTD SVG 1.0//EN" "http://www.w3.org/TR/2001/REC-SVG-20010904/DTD/svg10.dtd">
<!-- Creator: CorelDRAW 2018 (64 Bit Versão de avaliação) -->
<svg xmlns="http://www.w3.org/2000/svg" xml:space="preserve" width="59px" height="41px" version="1.0" shape-rendering="geometricPrecision" text-rendering="geometricPrecision" image-rendering="optimizeQuality" fill-rule="evenodd" clip-rule="evenodd"
viewBox="0 0 4.98 3.47"
 xmlns:xlink="http://www.w3.org/1999/xlink">
 <g id="Camada_x0020_1">
  <metadata id="CorelCorpID_0Corel-Layer"/>
  <path fill="#292929" d="M4.18 2.76c0.12,-0.01 0.22,0.08 0.23,0.19 0.01,0.12 -0.07,0.22 -0.18,0.23 -0.12,0.01 -0.22,-0.07 -0.23,-0.18 -0.01,-0.13 0.06,-0.22 0.18,-0.24zm-2.94 0c0.12,-0.01 0.23,0.08 0.23,0.19 0.02,0.13 -0.07,0.22 -0.18,0.23 -0.27,0.03 -0.32,-0.38 -0.05,-0.42zm1.09 -0.35c0.01,0 0.63,0 0.65,0l0 0.43c-0.01,0 -1.01,0.01 -1.08,0 -0.1,-0.01 -0.13,0.03 -0.17,-0.06 -0.03,-0.06 -0.05,-0.09 -0.09,-0.14 -0.11,-0.11 -0.17,-0.11 -0.2,-0.14 -0.02,-0.01 -0.03,-0.06 -0.01,-0.08 0.02,-0.01 0.08,-0.01 0.11,-0.01 0.11,0 0.75,0 0.79,0zm1.43 -0.88l0.38 0c0.09,0 0.17,0.12 0.23,0.19 0.02,0.04 0.08,0.06 0.09,0.16l-0.7 0 0 -0.35zm-0.49 -0.32l0.34 0.01c-0.01,0.03 -0.04,0.07 -0.06,0.09 -0.1,0.1 -0.08,0.15 -0.08,0.35 0,0.09 -0.01,0.2 0,0.29 0.01,0.09 0.06,0.14 0.11,0.18 0.08,0.05 0.14,0.05 0.24,0.04 0.29,0 0.58,0 0.87,0 0,0.09 0,0.18 -0.01,0.26 0,0.05 0.01,0.21 -0.01,0.24 -0.06,0.07 -0.11,-0.1 -0.31,-0.17 -0.24,-0.08 -0.5,0.03 -0.6,0.25 -0.01,0.02 -0.03,0.07 -0.04,0.09l-0.45 0 0 -1.63zm-2.48 1.63c-0.15,0 -0.31,0 -0.47,0 -0.03,0 -0.02,0 -0.02,-0.03l-0.01 -0.18c0,-0.39 0,-0.79 0,-1.18 0,-0.32 0,-0.63 0.01,-0.95 0,-0.19 0.06,-0.22 0.25,-0.22 0.16,0.01 0.32,0.01 0.47,0.01 0.56,0 1.11,0 1.67,0 0.17,0 0.27,-0.03 0.28,0.18 0.02,0.2 0.01,0.51 0.01,0.7 -0.01,0.32 0,0.64 0,0.95 -0.6,0 -1.21,0 -1.81,0 -0.14,0 -0.3,-0.03 -0.38,0.07 -0.03,0.05 -0.03,0.12 0.01,0.17 0.04,0.05 0.09,0.05 0.17,0.05 0.04,0 0.13,-0.01 0.15,0.03 0,0.01 0,0.03 -0.01,0.04 -0.02,0.06 -0.11,0.02 -0.25,0.2 -0.06,0.08 -0.05,0.09 -0.07,0.16zm0 0.29c0,0.02 0.02,0.04 0.03,0.06 0.08,0.16 0.25,0.28 0.44,0.28 0.14,-0.01 0.22,-0.04 0.31,-0.1 0.03,-0.03 0.07,-0.07 0.1,-0.11 0.02,-0.02 0.04,-0.06 0.05,-0.1 0.01,-0.01 0.01,-0.02 0.02,-0.03l1.98 0c0.02,0.01 0.05,0.09 0.07,0.11 0.18,0.31 0.7,0.31 0.86,-0.06 0.01,-0.02 0.02,-0.04 0.04,-0.05 0.05,-0.02 0.16,0.01 0.24,-0.12 0.03,-0.04 0.04,-0.08 0.05,-0.14 0,-0.12 0,-0.25 0,-0.37 0,-0.12 0,-0.24 0,-0.36 -0.01,-0.12 -0.02,-0.19 -0.1,-0.27l-0.08 -0.1c-0.03,-0.03 -0.09,-0.09 -0.13,-0.14l-0.22 -0.25c-0.02,-0.01 -0.03,-0.02 -0.04,-0.04l-0.17 -0.19c-0.04,-0.04 -0.09,-0.11 -0.13,-0.15 -0.04,-0.03 -0.06,-0.05 -0.12,-0.07 -0.14,-0.03 -0.65,0.01 -0.72,-0.01 -0.01,-0.17 0.01,-0.33 -0.01,-0.49 -0.01,-0.15 -0.09,-0.28 -0.17,-0.34 -0.14,-0.1 -0.21,-0.09 -0.42,-0.09l-2.03 0c-0.23,0 -0.41,-0.02 -0.56,0.2 -0.11,0.19 -0.07,0.47 -0.07,0.68l0 1.52c0,0.15 -0.02,0.37 0,0.5 0.02,0.06 0.05,0.12 0.1,0.16 0.04,0.04 0.09,0.07 0.18,0.07 0.16,0.01 0.33,0 0.5,0z"/>
 </g>
</svg>
