<?xml version="1.0" encoding="UTF-8"?>
<!DOCTYPE svg PUBLIC "-//W3C//DTD SVG 1.0//EN" "http://www.w3.org/TR/2001/REC-SVG-20010904/DTD/svg10.dtd">
<!-- Creator: CorelDRAW 2018 (64 Bit Versão de avaliação) -->
<svg xmlns="http://www.w3.org/2000/svg" xml:space="preserve" width="48px" height="35px" version="1.0" shape-rendering="geometricPrecision" text-rendering="geometricPrecision" image-rendering="optimizeQuality" fill-rule="evenodd" clip-rule="evenodd"
viewBox="0 0 2.13 1.57"
 xmlns:xlink="http://www.w3.org/1999/xlink">
 <g id="Camada_x0020_1">
  <metadata id="CorelCorpID_0Corel-Layer"/>
  <path fill="black" d="M0.16 1.11l0 -0.86c0,-0.02 0.01,-0.03 0.01,-0.04 0,-0.01 0.01,-0.02 0.02,-0.03l0 -0.01c0.02,0 0.04,-0.01 0.06,-0.01l1.63 0c0.02,0 0.05,0.01 0.06,0.02 0.01,0.01 0.01,0.01 0.01,0.01 0.01,0.02 0.01,0.04 0.01,0.06l0 0.86c0,0.01 0,0.02 0,0.03 -0.01,0.03 -0.03,0.05 -0.07,0.05l-1.66 0c-0.03,0 -0.06,-0.02 -0.06,-0.05 0,-0.01 -0.01,-0.02 -0.01,-0.03zm1.61 0.46l-0.01 0c-0.02,0 -0.04,-0.01 -0.06,-0.03l-0.03 -0.03c0,0 0,0 0,0l-0.07 -0.07c-0.01,-0.01 -0.05,-0.05 -0.06,-0.06 0,0 0,0 -0.01,-0.01l-0.01 -0.01c0,0 -0.01,0 -0.01,0l-0.9 0c0,0 -0.02,0.02 -0.02,0.02 -0.02,0.01 -0.02,0.02 -0.04,0.03 0,0.01 -0.01,0.01 -0.01,0.02 0,0 0,0 -0.01,0l-0.02 0.02c0,0.01 0,0.01 -0.01,0.02l-0.07 0.06c-0.01,0.01 -0.01,0.01 -0.02,0.02 -0.02,0.01 -0.03,0.02 -0.05,0.02 -0.02,0 -0.04,-0.02 -0.06,-0.03 0,-0.01 -0.01,-0.01 -0.01,-0.02 -0.01,-0.02 -0.01,-0.06 0,-0.08 0.01,-0.02 0.07,-0.07 0.08,-0.08 -0.01,0 -0.01,0 -0.02,0 -0.01,0 -0.02,0 -0.02,0 -0.01,0 -0.01,0 -0.01,0 -0.05,0 -0.11,0 -0.15,-0.01 -0.05,-0.01 -0.08,-0.04 -0.12,-0.07 0,-0.01 -0.02,-0.02 -0.02,-0.03 -0.02,-0.03 -0.03,-0.07 -0.03,-0.09l0 -0.96c0,-0.03 0.01,-0.06 0.02,-0.08 0.02,-0.03 0.04,-0.06 0.07,-0.08 0.03,-0.02 0.07,-0.04 0.11,-0.04l1.73 0c0.01,0 0.03,0 0.04,0.01 0.01,0 0.01,0 0.02,0l0.02 0.02c0.03,0.01 0.06,0.04 0.08,0.06 0,0.01 0.01,0.02 0.01,0.03 0.01,0.02 0.03,0.06 0.03,0.08l0 0.96c0,0.03 -0.02,0.08 -0.04,0.1l-0.02 0.02c-0.01,0.01 -0.02,0.02 -0.03,0.03 -0.02,0.02 -0.05,0.03 -0.08,0.04 -0.04,0.01 -0.1,0.01 -0.15,0.01 -0.01,0 -0.01,0 -0.01,0 -0.01,0 -0.02,0 -0.02,0 -0.01,0 -0.02,0 -0.02,0 0,0 0.01,0.01 0.01,0.01l0.01 0.01c0.01,0.01 0.01,0.01 0.02,0.02 0,0 0,0 0,0 0.02,0.02 0.05,0.04 0.05,0.08 0,0.06 -0.04,0.08 -0.08,0.09z"/>
 </g>
</svg>
