<?xml version="1.0" encoding="UTF-8"?>
<!DOCTYPE svg PUBLIC "-//W3C//DTD SVG 1.0//EN" "http://www.w3.org/TR/2001/REC-SVG-20010904/DTD/svg10.dtd">
<!-- Creator: CorelDRAW 2018 (64 Bit Versão de avaliação) -->
<svg xmlns="http://www.w3.org/2000/svg" xml:space="preserve" width="41px" height="41px" version="1.0" shape-rendering="geometricPrecision" text-rendering="geometricPrecision" image-rendering="optimizeQuality" fill-rule="evenodd" clip-rule="evenodd"
viewBox="0 0 17.2 17.2"
 xmlns:xlink="http://www.w3.org/1999/xlink">
 <g id="Camada_x0020_1">
  <metadata id="CorelCorpID_0Corel-Layer"/>
  <path fill="#292929" d="M1.87 12.94l0 -8.69c0,-0.32 0.14,-0.72 0.24,-0.94 0.39,-0.79 1.26,-1.44 2.14,-1.44l8.69 0c0.6,0 1.25,0.35 1.64,0.74 0.4,0.4 0.74,1.05 0.74,1.64l0 8.69c0,0.6 -0.34,1.25 -0.74,1.64 -0.39,0.4 -1.04,0.74 -1.64,0.74l-8.69 0c-1.19,0 -2.38,-1.18 -2.38,-2.38zm-1.87 -8.93l0 9.2c0,0.55 0.25,1.17 0.44,1.55 0.4,0.8 1.19,1.59 1.99,2 0.38,0.18 1.02,0.44 1.56,0.44l9.19 0c0.68,0 1.63,-0.4 2.19,-0.82 0.53,-0.38 1.13,-1.04 1.39,-1.63 0.17,-0.39 0.44,-1.05 0.44,-1.59l0 -9.15c0,-0.69 -0.44,-1.68 -0.82,-2.19 -0.61,-0.8 -1.39,-1.39 -2.36,-1.67 -0.24,-0.07 -0.57,-0.15 -0.86,-0.15l-9.17 0c-0.56,0 -1.16,0.26 -1.55,0.45 -0.89,0.44 -1.55,1.11 -1.99,1.99 -0.19,0.37 -0.45,1.04 -0.45,1.57z"/>
 </g>
</svg>
