<?xml version="1.0" encoding="UTF-8"?>
<!DOCTYPE svg PUBLIC "-//W3C//DTD SVG 1.0//EN" "http://www.w3.org/TR/2001/REC-SVG-20010904/DTD/svg10.dtd">
<!-- Creator: CorelDRAW 2018 (64 Bit Versão de avaliação) -->
<svg xmlns="http://www.w3.org/2000/svg" xml:space="preserve" width="41px" height="42px" version="1.0" shape-rendering="geometricPrecision" text-rendering="geometricPrecision" image-rendering="optimizeQuality" fill-rule="evenodd" clip-rule="evenodd"
viewBox="0 0 0.91 0.92"
 xmlns:xlink="http://www.w3.org/1999/xlink">
 <g id="Camada_x0020_1">
  <metadata id="CorelCorpID_0Corel-Layer"/>
  <g id="_2038688929376">
   <path fill="#292929" d="M0.38 0.35c0.01,-0.01 0.02,-0.03 0.02,-0.05l0.04 -0.07c0,-0.01 0,-0.02 0,-0.03 0.03,0 0.02,-0.01 0.03,0.03l0.05 0.12c0.01,0.02 0.02,0.04 0.02,0.06l-0.18 0 0.02 -0.06zm-0.06 0.16l0.26 0c0.01,0 0.01,0 0.01,0.01 0,0.01 0.01,0.01 0.01,0.02 0.01,0.03 0.05,0.14 0.06,0.15 0.03,0.05 0.1,0.03 0.1,-0.02 0,-0.02 -0.02,-0.06 -0.03,-0.07 -0.05,-0.12 -0.1,-0.25 -0.15,-0.37 -0.02,-0.05 -0.06,-0.15 -0.08,-0.19 -0.01,-0.02 -0.02,-0.04 -0.05,-0.04 -0.03,0 -0.04,0.02 -0.05,0.04 -0.02,0.06 -0.05,0.12 -0.07,0.18 -0.02,0.04 -0.18,0.42 -0.18,0.44 -0.01,0.06 0.07,0.08 0.09,0.03 0.01,-0.01 0.06,-0.12 0.07,-0.15l0.01 -0.02c0,-0.01 0,-0.01 0,-0.01z"/>
   <path fill="#292929" d="M0.04 0.82c-0.05,0.01 -0.06,0.1 0.01,0.1l0.69 0c0.03,0 0.11,0 0.13,0 0.05,-0.01 0.05,-0.1 -0.02,-0.1l-0.69 0c-0.02,0 -0.11,0 -0.12,0z"/>
  </g>
 </g>
</svg>
