<?xml version="1.0" encoding="UTF-8"?>
<!DOCTYPE svg PUBLIC "-//W3C//DTD SVG 1.0//EN" "http://www.w3.org/TR/2001/REC-SVG-20010904/DTD/svg10.dtd">
<!-- Creator: CorelDRAW 2018 (64 Bit Versão de avaliação) -->
<svg xmlns="http://www.w3.org/2000/svg" xml:space="preserve" width="35px" height="41px" version="1.0" shape-rendering="geometricPrecision" text-rendering="geometricPrecision" image-rendering="optimizeQuality" fill-rule="evenodd" clip-rule="evenodd"
viewBox="0 0 1.14 1.35"
 xmlns:xlink="http://www.w3.org/1999/xlink">
 <g id="Camada_x0020_1">
  <metadata id="CorelCorpID_0Corel-Layer"/>
  <path fill="black" d="M0.2 0.15l0.29 0 -0.01 0.24c0.01,0 0.02,0 0.02,0.01 0.01,0 0.02,0.01 0.02,0.01 0.01,0.01 0.11,0.08 0.12,0.08l0 -0.34 0.35 0c0,0.03 0,0.08 0.01,0.1 0.03,0.06 0.13,0.04 0.14,-0.03 0,-0.02 0,-0.09 0,-0.11 0,-0.05 -0.01,-0.09 -0.05,-0.1 -0.03,-0.01 -0.11,-0.01 -0.15,-0.01 -0.31,0 -0.63,0 -0.94,0 0,0.01 0.03,0.05 0.03,0.06 0,0.01 0.01,0.02 0.02,0.03 0.04,0.07 0.08,0.06 0.15,0.06zm0.29 0.67c-0.01,0.04 0,0.08 0,0.12 0,0.04 0,0.08 0,0.12 0,0.04 0,0.08 0,0.12 -0.01,0 -0.01,0 -0.02,0.01 -0.01,0.01 0,0.01 -0.02,0.01 -0.03,0 -0.16,0 -0.18,0 -0.06,0.02 -0.07,0.11 -0.01,0.14 0.03,0.02 0.08,0.01 0.11,0.01l0.36 0c0.03,0 0.09,0.01 0.11,0 0.03,-0.01 0.06,-0.03 0.06,-0.06 0.01,-0.03 -0.01,-0.06 -0.03,-0.08 -0.02,-0.01 -0.03,-0.01 -0.05,-0.01l-0.18 0c0,-0.04 0,-0.09 0,-0.13 0,-0.05 0,-0.09 0,-0.14 0,-0.01 -0.01,-0.01 -0.02,-0.01l-0.06 -0.05c-0.01,-0.01 -0.02,-0.01 -0.04,-0.02 0,-0.01 -0.01,-0.01 -0.01,-0.02 -0.01,0 -0.02,-0.01 -0.02,-0.01zm-0.49 -0.49c0.01,0.02 0.01,0.03 0.02,0.04 0.01,0.01 0.01,0.01 0.01,0.01 0.01,0.01 0.09,0.06 0.1,0.07 0.03,0.02 0.05,0.03 0.07,0.05 0.03,0.02 0.05,0.04 0.08,0.05 0.06,0.05 0.13,0.1 0.2,0.14 0.04,0.03 0.08,0.06 0.12,0.09 0.04,0.02 0.08,0.05 0.11,0.08l0.22 0.15c0.03,0.02 0.05,0.03 0.08,0.05 0.02,0.02 0.05,0.03 0.09,0.01 0.04,-0.02 0.06,-0.08 0.02,-0.12 -0.01,-0.02 -0.09,-0.07 -0.11,-0.08 -0.04,-0.03 -0.1,-0.07 -0.14,-0.1 -0.03,-0.02 -0.05,-0.03 -0.08,-0.05 -0.04,-0.04 -0.1,-0.07 -0.14,-0.1 -0.03,-0.02 -0.05,-0.04 -0.07,-0.05 -0.07,-0.05 -0.14,-0.1 -0.21,-0.14 0,-0.01 -0.01,-0.01 -0.01,-0.02 -0.03,-0.01 -0.05,-0.03 -0.08,-0.05 -0.01,0 -0.02,-0.01 -0.03,-0.02 -0.04,-0.03 -0.08,-0.05 -0.11,-0.08 -0.01,-0.01 -0.03,-0.02 -0.04,-0.02 -0.06,-0.01 -0.11,0.04 -0.1,0.09z"/>
 </g>
</svg>
