<?xml version="1.0" encoding="UTF-8"?>
<!DOCTYPE svg PUBLIC "-//W3C//DTD SVG 1.0//EN" "http://www.w3.org/TR/2001/REC-SVG-20010904/DTD/svg10.dtd">
<!-- Creator: CorelDRAW 2018 (64 Bit Versão de avaliação) -->
<svg xmlns="http://www.w3.org/2000/svg" xml:space="preserve" width="41px" height="41px" version="1.0" shape-rendering="geometricPrecision" text-rendering="geometricPrecision" image-rendering="optimizeQuality" fill-rule="evenodd" clip-rule="evenodd"
viewBox="0 0 1.32 1.32"
 xmlns:xlink="http://www.w3.org/1999/xlink">
 <g id="Camada_x0020_1">
  <metadata id="CorelCorpID_0Corel-Layer"/>
  <g id="_2751333239664">
   <g>
    <path fill="#292929" d="M0.12 0.38c0.01,-0.01 0.03,-0.01 0.04,-0.02l0.07 -0.03c0.02,0 0.03,-0.01 0.04,-0.01l0.09 0.1c0.01,0.01 0.02,0.02 0.02,0.03l0.03 0.03c0.03,0.04 0.07,0.12 0.13,0.08 0.03,-0.02 0.1,-0.12 0.12,-0.13 0.02,0.02 0.1,0.14 0.14,0.14 0.05,0 0.06,-0.02 0.09,-0.07l0.16 -0.18c0.01,0 0.02,0.01 0.03,0.01l0.12 0.05 0 0.82 -1.08 0 0 -0.82zm0.25 -0.14c0.01,-0.02 0.05,-0.06 0.06,-0.08 0.01,0 0.03,0.03 0.04,0.04l0.11 0.13 -0.07 0.09c-0.01,-0.01 -0.14,-0.17 -0.14,-0.17 0,-0.01 0,-0.01 0,-0.01zm0.44 0.18c-0.01,-0.01 -0.06,-0.08 -0.07,-0.08l0.14 -0.17c0,-0.01 0,0 0.01,-0.01 0.01,0 0.04,0.05 0.05,0.06 0,0.01 0.01,0.02 0.01,0.02l-0.14 0.18zm-0.15 -0.18c-0.01,-0.01 -0.02,-0.02 -0.03,-0.03 -0.01,-0.01 -0.07,-0.08 -0.07,-0.09l0.2 0c-0.01,0.02 -0.06,0.07 -0.08,0.09l-0.02 0.03zm-0.66 0.08l0 0.95 0 0c0,0.01 0,0.01 0.01,0.02 0,0.01 0.02,0.03 0.04,0.03l1.22 0c0.02,0 0.05,-0.03 0.05,-0.05l0 -0.95c0,-0.04 -0.1,-0.07 -0.15,-0.08 -0.03,-0.02 -0.06,-0.03 -0.1,-0.04 -0.01,-0.01 -0.03,-0.04 -0.04,-0.05l-0.08 -0.11c-0.01,-0.02 -0.03,-0.04 -0.05,-0.04l-0.48 0c-0.03,0 -0.04,0.02 -0.05,0.04 -0.02,0.02 -0.03,0.03 -0.04,0.05l-0.07 0.1c-0.01,0 -0.01,0 -0.02,0.01 -0.05,0.02 -0.2,0.07 -0.22,0.09 -0.01,0.01 -0.02,0.02 -0.02,0.03z"/>
    <path fill="#292929" d="M0.55 0.7c0,0.03 0.01,0.06 0.03,0.08 0.01,0.01 0.02,0.01 0.03,0.02 0.01,0.01 0.03,0.01 0.04,0.01 0.02,0 0.04,0 0.05,-0.01 0.03,-0.01 0.07,-0.05 0.07,-0.09 0,-0.1 -0.12,-0.14 -0.19,-0.08 -0.01,0.01 -0.03,0.04 -0.03,0.07z"/>
    <path fill="#292929" d="M0.55 0.98c0,0.06 0.05,0.11 0.09,0.11l0.03 0c0.08,0 0.13,-0.12 0.07,-0.18 -0.03,-0.03 -0.06,-0.03 -0.09,-0.03 -0.05,0 -0.1,0.05 -0.1,0.1z"/>
   </g>
  </g>
 </g>
</svg>
