<?xml version="1.0" encoding="UTF-8"?>
<!DOCTYPE svg PUBLIC "-//W3C//DTD SVG 1.0//EN" "http://www.w3.org/TR/2001/REC-SVG-20010904/DTD/svg10.dtd">
<!-- Creator: CorelDRAW 2018 (64 Bit Versão de avaliação) -->
<svg xmlns="http://www.w3.org/2000/svg" xml:space="preserve" width="50px" height="41px" version="1.0" shape-rendering="geometricPrecision" text-rendering="geometricPrecision" image-rendering="optimizeQuality" fill-rule="evenodd" clip-rule="evenodd"
viewBox="0 0 2.87 2.37"
 xmlns:xlink="http://www.w3.org/1999/xlink">
 <g id="Camada_x0020_1">
  <metadata id="CorelCorpID_0Corel-Layer"/>
  <path fill="#282828" d="M1.48 2.14c-0.19,0 -0.24,-0.03 -0.37,-0.12l-0.05 -0.03c-0.02,-0.01 -0.04,-0.02 -0.06,-0.03l-0.15 -0.09c-0.05,-0.03 -0.17,-0.08 -0.18,-0.13 -0.01,-0.05 -0.01,-0.22 -0.01,-0.27 0,-0.04 0.01,-0.06 0.01,-0.09 0.02,0 0.27,0.15 0.29,0.17 0.01,0 0.01,0 0.02,0.01l0.1 0.05c0.11,0.07 0.23,0.16 0.36,0.16 0.09,0 0.15,-0.05 0.21,-0.08 0.02,-0.01 0.01,-0.01 0.03,-0.01l0.07 -0.04c0.11,-0.06 0.26,-0.16 0.37,-0.22 0.04,-0.02 0.04,-0.02 0.09,-0.05 0,0.11 0.01,0.27 -0.01,0.36 -0.01,0.05 -0.05,0.07 -0.09,0.09l-0.3 0.18c-0.02,0.01 -0.04,0.02 -0.06,0.03 -0.07,0.04 -0.17,0.11 -0.27,0.11zm-1.2 -1.26c0.09,-0.05 0.13,-0.08 0.21,-0.13l0.32 -0.18c0.02,-0.01 0.03,-0.01 0.04,-0.02l0.05 -0.03c0.01,-0.01 0.01,-0.01 0.02,-0.01 0.03,-0.02 0.05,-0.03 0.07,-0.04l0.25 -0.15c0.16,-0.09 0.17,-0.13 0.35,-0.02l0.21 0.12c0,0.01 0.01,0.01 0.02,0.01l0.32 0.19c0,0 0.01,0 0.02,0.01 0.04,0.03 0.09,0.05 0.14,0.08l0.21 0.12c0.02,0.02 0.05,0.04 0.08,0.05 -0.01,0.02 -0.04,0.02 -0.07,0.04l-0.36 0.21c-0.04,0.03 -0.09,0.05 -0.14,0.08l-0.39 0.23c-0.04,0.03 -0.15,0.1 -0.19,0.1 -0.05,0 -0.15,-0.06 -0.19,-0.09 -0.02,-0.01 -0.03,-0.01 -0.04,-0.02l-0.5 -0.3c-0.01,0 -0.02,-0.01 -0.03,-0.02 -0.02,-0.01 -0.03,-0.01 -0.04,-0.02l-0.34 -0.2c-0.02,-0.01 -0.01,0 -0.02,-0.01zm-0.28 -0.02c0,0.16 0.08,0.17 0.21,0.25l0.09 0.05c0.02,0.02 0.04,0.03 0.06,0.04 0.02,0.01 0.05,0.03 0.07,0.03 0,0.13 -0.01,0.4 0,0.52 0.02,0.12 0.1,0.2 0.2,0.26l0.49 0.28c0.02,0.01 0.03,0.02 0.05,0.03l0.04 0.01c0.02,0.01 0.04,0.01 0.06,0.02 0.13,0.03 0.27,0.02 0.4,-0.02 0.04,-0.02 0.15,-0.08 0.19,-0.1 0.01,0 0.01,-0.01 0.02,-0.01l0.07 -0.04c0.01,-0.01 0.01,-0.01 0.02,-0.01 0.01,-0.01 0.02,-0.02 0.04,-0.02 0,-0.01 0.01,-0.01 0.02,-0.01l0.09 -0.06c0.06,-0.03 0.16,-0.09 0.21,-0.13 0.13,-0.13 0.1,-0.27 0.1,-0.47l0 -0.24c0.04,-0.02 0.08,-0.04 0.11,-0.06 0,0.05 0,0.61 0,0.63 -0.02,0.04 -0.07,0.04 -0.07,0.15 0,0.1 0.09,0.18 0.18,0.18 0,0 0.03,0 0.04,-0.01 0.15,-0.03 0.18,-0.22 0.1,-0.29 -0.01,-0.01 -0.01,-0.02 -0.02,-0.02l0 -0.77c0.06,-0.04 0.1,-0.09 0.1,-0.17 0,-0.11 -0.09,-0.15 -0.16,-0.2l-0.32 -0.18c-0.18,-0.11 -0.36,-0.21 -0.54,-0.32l-0.21 -0.11c-0.1,-0.06 -0.1,-0.07 -0.25,-0.07 -0.04,0 -0.09,0.02 -0.13,0.04l-0.31 0.18c-0.09,0.05 -0.3,0.18 -0.38,0.22l-0.11 0.07c-0.08,0.05 -0.16,0.09 -0.24,0.14 -0.06,0.03 -0.12,0.07 -0.17,0.11 -0.02,0.01 -0.05,0.07 -0.05,0.1z"/>
 </g>
</svg>
