<?xml version="1.0" encoding="UTF-8"?>
<!DOCTYPE svg PUBLIC "-//W3C//DTD SVG 1.0//EN" "http://www.w3.org/TR/2001/REC-SVG-20010904/DTD/svg10.dtd">
<!-- Creator: CorelDRAW 2018 (64 Bit Versão de avaliação) -->
<svg xmlns="http://www.w3.org/2000/svg" xml:space="preserve" width="30px" height="41px" version="1.0" shape-rendering="geometricPrecision" text-rendering="geometricPrecision" image-rendering="optimizeQuality" fill-rule="evenodd" clip-rule="evenodd"
viewBox="0 0 1.33 1.84"
 xmlns:xlink="http://www.w3.org/1999/xlink">
 <g id="Camada_x0020_1">
  <metadata id="CorelCorpID_0Corel-Layer"/>
  <path fill="#292929" d="M0.75 1.22c0.09,-0.03 0.12,-0.21 -0.01,-0.28 -0.12,-0.06 -0.26,0.04 -0.24,0.17 0.01,0.04 0.04,0.08 0.06,0.1 0.02,0.02 0.02,0.01 0.02,0.02l0 0.03c0,0.06 0,0.17 0.02,0.21 0.03,0.04 0.15,0.07 0.15,-0.09 0,-0.05 0,-0.1 0,-0.16zm0.42 -0.01c0,0.12 -0.06,0.23 -0.13,0.31 -0.05,0.05 -0.13,0.1 -0.19,0.13 -0.16,0.06 -0.37,0.03 -0.5,-0.08 -0.13,-0.1 -0.2,-0.24 -0.19,-0.44 0.01,-0.15 0.09,-0.27 0.16,-0.34 0.1,-0.08 0.21,-0.14 0.38,-0.13 0.11,0.01 0.2,0.05 0.28,0.11 0.14,0.11 0.2,0.25 0.19,0.44zm-0.76 -0.66c0,-0.11 -0.01,-0.2 0.04,-0.28 0.1,-0.15 0.33,-0.15 0.43,0 0.01,0.01 0.01,0.03 0.02,0.04l0.17 0c-0.01,-0.03 -0.02,-0.05 -0.03,-0.08 -0.05,-0.09 -0.11,-0.15 -0.21,-0.19 -0.19,-0.09 -0.43,-0.01 -0.53,0.18 -0.09,0.17 -0.03,0.39 -0.06,0.44 -0.01,0.02 -0.05,0.02 -0.14,0.15 -0.04,0.07 -0.09,0.2 -0.1,0.3 -0.01,0.19 0.03,0.32 0.13,0.46 0.03,0.04 0.09,0.1 0.13,0.13 0.06,0.05 0.14,0.09 0.23,0.11 0.31,0.09 0.64,-0.06 0.78,-0.36 0.05,-0.11 0.06,-0.18 0.06,-0.33 -0.01,-0.39 -0.43,-0.69 -0.8,-0.6 -0.04,0.01 -0.09,0.03 -0.12,0.03z"/>
 </g>
</svg>
