<?xml version="1.0" encoding="UTF-8"?>
<!DOCTYPE svg PUBLIC "-//W3C//DTD SVG 1.0//EN" "http://www.w3.org/TR/2001/REC-SVG-20010904/DTD/svg10.dtd">
<!-- Creator: CorelDRAW 2018 (64 Bit Versão de avaliação) -->
<svg xmlns="http://www.w3.org/2000/svg" xml:space="preserve" width="41px" height="41px" version="1.0" shape-rendering="geometricPrecision" text-rendering="geometricPrecision" image-rendering="optimizeQuality" fill-rule="evenodd" clip-rule="evenodd"
viewBox="0 0 0.75 0.75"
 xmlns:xlink="http://www.w3.org/1999/xlink">
 <g id="Camada_x0020_1">
  <metadata id="CorelCorpID_0Corel-Layer"/>
  <g id="_2289596859296">
   <path fill="#292929" d="M0.63 0.1c-0.01,-0.01 -0.02,-0.02 -0.04,-0.03 -0.01,-0.01 -0.02,-0.02 -0.04,-0.03 -0.1,-0.05 -0.21,-0.05 -0.32,-0.01 -0.2,0.08 -0.25,0.31 -0.22,0.35 0.01,0.01 0.02,0.02 0.04,0.01 0.03,-0.01 0.02,-0.06 0.03,-0.1 0.04,-0.13 0.17,-0.22 0.31,-0.22 0.04,0.01 0.07,0.02 0.1,0.03l0.09 0.05c-0.01,0.02 -0.03,0.03 -0.04,0.04 -0.02,0.02 -0.02,0.05 0.02,0.05 0.02,0 0.05,0 0.08,0 0.02,0 0.06,0 0.07,-0.01 0.01,-0.01 0.01,-0.14 0.01,-0.16 0,-0.02 -0.01,-0.02 -0.02,-0.02 -0.03,0 -0.03,0.03 -0.07,0.05z"/>
   <path fill="#292929" d="M0.12 0.65c0.01,0.01 0.02,0.02 0.04,0.03 0.1,0.08 0.24,0.09 0.36,0.04 0.21,-0.08 0.25,-0.32 0.23,-0.35 -0.02,-0.02 -0.06,-0.02 -0.07,0 0,0.02 -0.01,0.06 -0.01,0.09 -0.07,0.21 -0.31,0.28 -0.48,0.16 -0.01,-0.01 -0.01,-0.01 -0.02,-0.02 0.01,-0.02 0.03,-0.03 0.04,-0.04 0.02,-0.02 0.02,-0.04 -0.02,-0.04 -0.02,0 -0.05,0 -0.08,0 -0.02,0 -0.06,-0.01 -0.07,0 -0.01,0.02 -0.01,0.14 -0.01,0.16 0,0.02 0.01,0.02 0.02,0.03 0.03,0 0.04,-0.04 0.07,-0.06z"/>
  </g>
 </g>
</svg>
