<?xml version="1.0" encoding="UTF-8"?>
<!DOCTYPE svg PUBLIC "-//W3C//DTD SVG 1.0//EN" "http://www.w3.org/TR/2001/REC-SVG-20010904/DTD/svg10.dtd">
<!-- Creator: CorelDRAW 2018 (64 Bit Versão de avaliação) -->
<svg xmlns="http://www.w3.org/2000/svg" xml:space="preserve" width="40px" height="40px" version="1.0" shape-rendering="geometricPrecision" text-rendering="geometricPrecision" image-rendering="optimizeQuality" fill-rule="evenodd" clip-rule="evenodd"
viewBox="0 0 0.78 0.77"
 xmlns:xlink="http://www.w3.org/1999/xlink">
 <g id="Camada_x0020_1">
  <metadata id="CorelCorpID_0Corel-Layer"/>
  <path fill="black" d="M0 0.46l0 -0.35c0,-0.03 0.02,-0.06 0.04,-0.08 0.02,-0.01 0.06,-0.03 0.09,-0.03l0.51 0c0.06,0 0.14,0.05 0.14,0.11l0 0.35c0,0.03 -0.03,0.06 -0.05,0.08 -0.02,0.01 -0.06,0.02 -0.1,0.02l-0.13 0 0 -0.07 0.13 0c0.01,0 0.03,-0.01 0.04,-0.01 0.01,0 0.03,-0.02 0.03,-0.03l0 -0.34c0,-0.02 -0.04,-0.03 -0.06,-0.03l-0.5 0c-0.02,0 -0.06,0.01 -0.06,0.03l0 0.34c0,0.03 0.04,0.04 0.07,0.04l0.12 0 0 0.07 -0.12 0c-0.06,0 -0.11,-0.02 -0.13,-0.06 -0.01,-0.01 -0.02,-0.03 -0.02,-0.04zm0.35 -0.11c-0.02,0.01 -0.05,0.05 -0.07,0.05 -0.01,0 -0.02,0 -0.03,-0.01 -0.01,-0.01 -0.01,-0.01 -0.01,-0.03 0,-0.02 0.02,-0.03 0.03,-0.04l0.09 -0.1c0.01,0 0.02,-0.01 0.03,-0.01 0.02,0 0.03,0.02 0.04,0.03l0.08 0.08c0.01,0.01 0.03,0.02 0.03,0.05 0,0.02 -0.01,0.03 -0.03,0.03 -0.03,0 -0.03,0 -0.05,-0.02 -0.01,-0.01 -0.02,-0.03 -0.03,-0.03l0 0.34c0,0.02 0,0.05 0,0.06 -0.02,0.03 -0.06,0.03 -0.08,0 0,-0.02 0,-0.04 0,-0.06l0 -0.34z"/>
 </g>
</svg>
