<?xml version="1.0" encoding="UTF-8"?>
<!DOCTYPE svg PUBLIC "-//W3C//DTD SVG 1.0//EN" "http://www.w3.org/TR/2001/REC-SVG-20010904/DTD/svg10.dtd">
<!-- Creator: CorelDRAW 2018 (64 Bit Versão de avaliação) -->
<svg xmlns="http://www.w3.org/2000/svg" xml:space="preserve" width="30px" height="37px" version="1.0" shape-rendering="geometricPrecision" text-rendering="geometricPrecision" image-rendering="optimizeQuality" fill-rule="evenodd" clip-rule="evenodd"
viewBox="0 0 0.84 1.05"
 xmlns:xlink="http://www.w3.org/1999/xlink">
 <g id="Camada_x0020_1">
  <metadata id="CorelCorpID_0Corel-Layer"/>
  <path fill="black" d="M0.16 0.25l0 0.02c0,0.07 0.04,0.14 0.07,0.18 0.05,0.04 0.11,0.08 0.18,0.08l0.03 0c0.13,0 0.24,-0.13 0.24,-0.25l0 -0.03c0,-0.1 -0.06,-0.18 -0.14,-0.22 -0.03,-0.02 -0.06,-0.03 -0.09,-0.03l-0.05 0c-0.09,0.01 -0.17,0.06 -0.22,0.15 -0.01,0.02 -0.02,0.07 -0.02,0.1zm0.68 0.64c0,0.03 0,0.06 -0.01,0.08 -0.04,0.07 -0.1,0.08 -0.17,0.08l-0.15 0 0 0 -0.18 0 0 0 -0.14 0c-0.08,0 -0.14,-0.01 -0.17,-0.08 -0.01,-0.02 -0.02,-0.05 -0.02,-0.08 0,-0.09 0.05,-0.17 0.12,-0.22 0,0 0.01,0 0.01,0l0 0 0.01 -0.01 0 0 0 0 0 0 0 0 0.01 0 0 0c0.03,-0.02 0.07,-0.03 0.12,-0.03l0 0 0.3 0 0.01 0c0.05,0 0.08,0.01 0.12,0.03l0 0 0 0 0 0 0 0 0.01 0 0 0 0 0.01 0.01 0c0,0 0,0 0,0 0.08,0.05 0.12,0.13 0.12,0.22z"/>
 </g>
</svg>
