<?xml version="1.0" encoding="UTF-8"?>
<!DOCTYPE svg PUBLIC "-//W3C//DTD SVG 1.0//EN" "http://www.w3.org/TR/2001/REC-SVG-20010904/DTD/svg10.dtd">
<!-- Creator: CorelDRAW 2018 (64 Bit Versão de avaliação) -->
<svg xmlns="http://www.w3.org/2000/svg" xml:space="preserve" width="36px" height="41px" version="1.0" shape-rendering="geometricPrecision" text-rendering="geometricPrecision" image-rendering="optimizeQuality" fill-rule="evenodd" clip-rule="evenodd"
viewBox="0 0 0.63 0.72"
 xmlns:xlink="http://www.w3.org/1999/xlink">
 <g id="Camada_x0020_1">
  <metadata id="CorelCorpID_0Corel-Layer"/>
  <g id="_2039390642400">
   <g>
    <path fill="#292929" d="M0.28 0.07c0.09,0 0.11,0.1 0.06,0.15 -0.04,0.04 -0.1,0.03 -0.13,0 -0.03,-0.03 -0.03,-0.09 0.01,-0.13 0.01,-0.01 0.03,-0.02 0.06,-0.02zm-0.11 0.2c-0.06,0.01 -0.13,0.09 -0.15,0.16 -0.01,0.02 -0.02,0.06 -0.02,0.09 0,0.06 0.05,0.11 0.11,0.11l0.14 0c0.05,0 0.06,-0.06 0,-0.06 -0.06,0 -0.15,0.01 -0.17,-0.02 -0.04,-0.03 0.01,-0.14 0.05,-0.18 0.12,-0.12 0.26,-0.02 0.27,-0.02 0.02,0 0.02,-0.01 0.03,-0.01 0.03,-0.03 -0.01,-0.06 -0.04,-0.07 0.03,-0.05 0.04,-0.05 0.04,-0.13 0,-0.07 -0.07,-0.14 -0.15,-0.14 -0.07,0 -0.12,0.04 -0.14,0.09 -0.02,0.03 -0.02,0.06 -0.01,0.1 0.01,0.04 0.03,0.06 0.04,0.08z"/>
    <path fill="#292929" d="M0.42 0.52c0,0.06 0.03,0.04 0.14,0.04 0,0.02 -0.01,0.03 -0.02,0.05 -0.02,0.06 -0.03,0.05 -0.15,0.05 0,-0.03 0,-0.06 0,-0.08 0,-0.04 0,-0.05 0.03,-0.06zm0 0l0 0zm-0.09 0.01l0 0.16c0,0.02 0.02,0.03 0.03,0.03l0.13 0c0.05,0 0.08,-0.02 0.1,-0.05l0.02 -0.05c0.01,-0.03 0.02,-0.03 0.02,-0.07 0,-0.02 -0.02,-0.04 -0.04,-0.05 -0.03,-0.01 -0.06,0 -0.09,0 0.02,-0.11 -0.08,-0.16 -0.1,-0.1 -0.01,0.02 -0.01,0.04 -0.02,0.06 -0.01,0.02 -0.05,0.04 -0.05,0.07z"/>
   </g>
  </g>
 </g>
</svg>
