<?xml version="1.0" encoding="UTF-8"?>
<!DOCTYPE svg PUBLIC "-//W3C//DTD SVG 1.0//EN" "http://www.w3.org/TR/2001/REC-SVG-20010904/DTD/svg10.dtd">
<!-- Creator: CorelDRAW 2018 (64 Bit Versão de avaliação) -->
<svg xmlns="http://www.w3.org/2000/svg" xml:space="preserve" width="55px" height="33px" version="1.0" shape-rendering="geometricPrecision" text-rendering="geometricPrecision" image-rendering="optimizeQuality" fill-rule="evenodd" clip-rule="evenodd"
viewBox="0 0 2.49 1.48"
 xmlns:xlink="http://www.w3.org/1999/xlink">
 <g id="Camada_x0020_1">
  <metadata id="CorelCorpID_0Corel-Layer"/>
  <path fill="black" d="M1.17 1.14c0.13,0 0.31,-0.02 0.41,0.09 0.11,0.11 0.06,0.21 0.13,0.24 0.07,0.04 0.16,-0.03 0.09,-0.2 -0.01,-0.01 -0.01,-0.03 -0.02,-0.04 -0.06,-0.11 -0.22,-0.24 -0.35,-0.25 -0.03,0 -0.05,0 -0.09,0 -0.08,0 -0.17,0 -0.25,0 -0.13,0 -0.27,0.09 -0.33,0.17 -0.04,0.06 -0.12,0.2 -0.09,0.28 0.02,0.02 0.05,0.04 0.08,0.04 0.11,-0.01 0.05,-0.11 0.15,-0.23l0.07 -0.06c0.05,-0.03 0.13,-0.04 0.2,-0.04zm0.89 -0.72c0.09,-0.02 0.17,0.05 0.18,0.14 0.01,0.09 -0.05,0.18 -0.14,0.19 -0.09,0.01 -0.18,-0.07 -0.18,-0.14 -0.01,-0.11 0.04,-0.18 0.14,-0.19zm-0.03 -0.17c-0.08,0.01 -0.16,0.06 -0.21,0.12 -0.05,0.07 -0.08,0.13 -0.07,0.26 0.02,0.17 0.19,0.3 0.38,0.28 0.29,-0.04 0.38,-0.41 0.16,-0.59 -0.07,-0.05 -0.15,-0.09 -0.26,-0.07zm-0.21 0.9c0.01,0.03 0.04,0.06 0.07,0.06 0.04,0.01 0.05,-0.01 0.12,-0.01 0.08,0 0.19,-0.01 0.25,0.02 0.07,0.05 0.06,0.15 0.09,0.18 0.03,0.02 0.07,0.03 0.1,0.01 0.09,-0.04 0.01,-0.21 -0.04,-0.27 -0.04,-0.04 -0.12,-0.09 -0.18,-0.1 -0.05,-0.01 -0.31,-0.02 -0.37,0.02 -0.02,0.02 -0.05,0.05 -0.04,0.09zm-0.59 -0.98c0.15,-0.02 0.25,0.09 0.27,0.22 0.01,0.15 -0.1,0.26 -0.23,0.27 -0.15,0.01 -0.26,-0.09 -0.27,-0.23 -0.01,-0.15 0.09,-0.25 0.23,-0.26zm-0.4 0.28c0.01,0.15 0.14,0.31 0.27,0.36 0.06,0.02 0.11,0.02 0.18,0.01 0.15,-0.01 0.21,-0.06 0.28,-0.13 0.11,-0.12 0.13,-0.32 0.05,-0.48 -0.02,-0.05 -0.06,-0.08 -0.09,-0.11 -0.11,-0.1 -0.32,-0.14 -0.47,-0.05 -0.14,0.07 -0.23,0.22 -0.22,0.4zm-0.45 -0.03c0.11,-0.02 0.18,0.05 0.2,0.13 0.01,0.1 -0.06,0.18 -0.13,0.19 -0.1,0.02 -0.18,-0.05 -0.2,-0.13 -0.02,-0.1 0.05,-0.18 0.13,-0.19zm0.02 -0.17c-0.1,0 -0.16,0.04 -0.23,0.1 -0.05,0.05 -0.1,0.14 -0.09,0.24 0.01,0.06 0.01,0.09 0.03,0.14 0.08,0.16 0.29,0.23 0.45,0.15 0.11,-0.06 0.19,-0.17 0.19,-0.31 -0.01,-0.1 -0.04,-0.17 -0.11,-0.23 -0.05,-0.05 -0.14,-0.1 -0.24,-0.09zm-0.11 0.79c-0.09,0.01 -0.17,0.06 -0.21,0.11 -0.15,0.19 -0.06,0.31 0.04,0.26 0.06,-0.03 0.03,-0.1 0.1,-0.17 0.05,-0.05 0.13,-0.04 0.22,-0.04 0.02,0 0.05,0 0.07,0 0.04,0 0.1,0.05 0.15,-0.02 0.02,-0.03 0.02,-0.08 -0.01,-0.1 -0.02,-0.03 -0.05,-0.03 -0.1,-0.04 -0.05,-0.01 -0.2,-0.01 -0.26,0z"/>
 </g>
</svg>
