<?xml version="1.0" encoding="UTF-8"?>
<!DOCTYPE svg PUBLIC "-//W3C//DTD SVG 1.0//EN" "http://www.w3.org/TR/2001/REC-SVG-20010904/DTD/svg10.dtd">
<!-- Creator: CorelDRAW 2018 (64 Bit Versão de avaliação) -->
<svg xmlns="http://www.w3.org/2000/svg" xml:space="preserve" width="32px" height="41px" version="1.0" shape-rendering="geometricPrecision" text-rendering="geometricPrecision" image-rendering="optimizeQuality" fill-rule="evenodd" clip-rule="evenodd"
viewBox="0 0 0.7 0.91"
 xmlns:xlink="http://www.w3.org/1999/xlink">
 <g id="Camada_x0020_1">
  <metadata id="CorelCorpID_0Corel-Layer"/>
  <g id="_2751226045200">
   <path fill="#292929" d="M0.34 0.09c0.09,-0.01 0.17,0.06 0.17,0.15 0.01,0.09 -0.06,0.17 -0.14,0.17 -0.1,0.01 -0.17,-0.06 -0.18,-0.15 -0.01,-0.07 0.03,-0.12 0.09,-0.15 0.02,-0.01 0.03,-0.02 0.06,-0.02zm-0.24 0.18c0.01,0.03 0.02,0.07 0.03,0.09 0.02,0.03 0.04,0.06 0.05,0.07 0.05,0.05 0.1,0.07 0.19,0.07 0.09,-0.01 0.12,-0.04 0.17,-0.08 0.04,-0.05 0.07,-0.12 0.06,-0.19 -0.01,-0.12 -0.13,-0.24 -0.27,-0.23 -0.05,0.01 -0.09,0.02 -0.13,0.05 -0.06,0.05 -0.11,0.14 -0.1,0.22z"/>
   <path fill="#292929" d="M0.34 0.69c0.08,0 0.18,0.01 0.24,0.07 0.05,0.06 0.02,0.13 0.08,0.14 0.02,0.01 0.04,-0.01 0.04,-0.02 0.01,-0.04 -0.01,-0.1 -0.03,-0.12 -0.01,-0.04 -0.04,-0.06 -0.06,-0.09 -0.09,-0.06 -0.15,-0.06 -0.25,-0.06 -0.04,0 -0.1,0 -0.14,0.01 -0.08,0.01 -0.14,0.06 -0.18,0.12 -0.02,0.03 -0.07,0.14 -0.01,0.16 0.02,0.01 0.03,0 0.04,-0.02 0.01,-0.02 0.02,-0.04 0.02,-0.06 0.03,-0.1 0.13,-0.12 0.25,-0.13z"/>
  </g>
 </g>
</svg>
