<?xml version="1.0" encoding="UTF-8"?>
<!DOCTYPE svg PUBLIC "-//W3C//DTD SVG 1.0//EN" "http://www.w3.org/TR/2001/REC-SVG-20010904/DTD/svg10.dtd">
<!-- Creator: CorelDRAW 2018 (64 Bit Versão de avaliação) -->
<svg xmlns="http://www.w3.org/2000/svg" xml:space="preserve" width="41px" height="41px" version="1.0" shape-rendering="geometricPrecision" text-rendering="geometricPrecision" image-rendering="optimizeQuality" fill-rule="evenodd" clip-rule="evenodd"
viewBox="0 0 0.91 0.91"
 xmlns:xlink="http://www.w3.org/1999/xlink">
 <g id="Camada_x0020_1">
  <metadata id="CorelCorpID_0Corel-Layer"/>
  <path fill="#292929" d="M0.25 0.59l0.19 0c0.04,0 0.04,0.01 0.04,0.04l-0.2 0c0,0 -0.01,-0.02 -0.02,-0.03 0,0 0,0 -0.01,-0.01zm0.36 -0.59l0.01 0c0.01,0 0.01,0 0.02,0.01 0,0 0,0 0,0 0.01,0.01 0.01,0.03 0.01,0.04 0.02,0 0.08,0.02 0.1,0.04 0.04,0.01 0.05,0.03 0.08,0.05 0.04,0.05 0.08,0.12 0.08,0.19l0 0.02c0,0.01 0,0.02 -0.01,0.03 -0.02,0 -0.03,0 -0.04,0 -0.08,-0.05 -0.11,0 -0.14,0 -0.01,0 -0.02,-0.01 -0.04,-0.01 -0.02,-0.02 -0.02,-0.02 -0.03,-0.02l0 0.28 0.12 0c0.01,0 0.03,0.01 0.04,0.01 0.01,0.01 0.02,0.02 0.03,0.03 0.02,0.02 0.02,0.03 0.02,0.05 0,0.03 -0.02,0.07 -0.04,0.07 0,0.01 0.02,0.04 0.03,0.05 0,0.01 0,0.01 0,0.02 0,0 0.01,0.01 0.01,0.02 0,0.01 -0.01,0.03 -0.03,0.03l0 0 0 0c-0.01,0 -0.02,0 -0.03,-0.02 -0.01,-0.01 -0.04,-0.08 -0.04,-0.09l-0.5 0 -0.01 0.03c-0.01,0.02 -0.01,0.02 -0.02,0.03 0,0.01 -0.01,0.03 -0.01,0.03 -0.01,0.02 -0.02,0.02 -0.03,0.02l0 0c-0.02,0 -0.03,-0.01 -0.03,-0.02 0,-0.04 0.04,-0.08 0.04,-0.1 -0.02,0 -0.05,-0.05 -0.06,-0.06l-0.13 -0.17c0,-0.02 -0.01,-0.03 -0.01,-0.05l0 -0.01c0,-0.01 0,-0.02 0.01,-0.03 0.01,-0.02 0.04,-0.05 0.07,-0.05 0.04,0 0.06,0.02 0.08,0.04 0.01,0.02 0.03,0.05 0.04,0.06 0,0.01 0,0.01 0.01,0.01l0.19 0c0.04,0 0.07,-0.01 0.1,0.01 0.04,0.03 0.04,0.05 0.04,0.09l0.04 0 0 -0.28 -0.02 0.01c0,0 -0.01,0 -0.01,0.01 -0.05,0.02 -0.04,0.01 -0.08,0 -0.04,-0.02 -0.07,-0.01 -0.1,0.01 -0.02,0 -0.05,0 -0.05,-0.03 0,-0.05 0.01,-0.09 0.03,-0.12 0.01,-0.03 0.02,-0.05 0.04,-0.07 0,0 0,0 0,-0.01 0.01,-0.01 0.02,-0.01 0.03,-0.02l0.02 -0.02c0.01,0 0.01,-0.01 0.02,-0.01 0.03,-0.02 0.09,-0.05 0.12,-0.05l0 -0.02c0,-0.02 0.02,-0.03 0.03,-0.03zm-0.55 0.51c0,-0.01 0.02,-0.02 0.02,-0.02 0.02,0 0.03,0.02 0.04,0.03 0,0.01 0.01,0.01 0.01,0.02 0.03,0.04 0.07,0.09 0.1,0.13l0.02 0.03 0.5 0c0.01,0 0.02,0 0.03,0 0.03,0.01 0.02,0.04 -0.01,0.04l-0.52 0c-0.02,0 -0.04,-0.02 -0.04,-0.04 -0.05,-0.05 -0.09,-0.12 -0.14,-0.17 0,-0.01 -0.01,-0.01 -0.01,-0.02zm0.48 -0.22c0,-0.04 0.02,-0.11 0.04,-0.14 0.03,-0.04 0.05,-0.04 0.07,0 0.02,0.03 0.04,0.09 0.04,0.13 0,0.01 0,0.01 0,0.02 -0.03,-0.02 -0.08,-0.02 -0.11,-0.02l-0.04 0.01zm-0.06 0.01c-0.01,0 -0.03,-0.01 -0.07,-0.01 -0.01,0 -0.01,0.01 -0.02,0.01 0,-0.03 0.03,-0.08 0.05,-0.1 0.01,-0.01 0.01,-0.01 0.01,-0.01l0.02 -0.02c0.01,-0.01 0.03,-0.03 0.04,-0.03l-0.01 0.04c-0.01,0.02 -0.01,0.05 -0.02,0.07l0 0.05zm0.24 -0.16c0.01,0 0.03,0.02 0.03,0.02 0.01,0 0.01,0.01 0.01,0.01 0.02,0.01 0.04,0.03 0.05,0.05l0.01 0.03c0.01,0 0.02,0.04 0.02,0.05 -0.01,0 -0.02,-0.01 -0.04,-0.01 -0.01,0 -0.03,0 -0.04,0.01 0,0 0,0 -0.01,0 0,-0.04 -0.01,-0.12 -0.03,-0.16z"/>
 </g>
</svg>
