<?xml version="1.0" encoding="UTF-8"?>
<!DOCTYPE svg PUBLIC "-//W3C//DTD SVG 1.0//EN" "http://www.w3.org/TR/2001/REC-SVG-20010904/DTD/svg10.dtd">
<!-- Creator: CorelDRAW 2018 (64 Bit Versão de avaliação) -->
<svg xmlns="http://www.w3.org/2000/svg" xml:space="preserve" width="41px" height="41px" version="1.0" shape-rendering="geometricPrecision" text-rendering="geometricPrecision" image-rendering="optimizeQuality" fill-rule="evenodd" clip-rule="evenodd"
viewBox="0 0 1.02 1.02"
 xmlns:xlink="http://www.w3.org/1999/xlink">
 <g id="Camada_x0020_1">
  <metadata id="CorelCorpID_0Corel-Layer"/>
  <g id="_2751258191152">
   <g>
    <path fill="black" d="M0.31 0.66c0,-0.02 0.02,-0.04 0.04,-0.04l0.31 0c0.06,0 0.06,0.08 0,0.08l-0.31 0c-0.02,0 -0.04,-0.02 -0.04,-0.04zm0.44 0.36l-0.01 0c-0.01,0 -0.02,-0.01 -0.02,-0.02 -0.02,-0.02 0,-0.06 -0.06,-0.06l-0.11 0 0 0.04c0,0.02 -0.02,0.04 -0.03,0.04l-0.02 0c-0.01,0 -0.03,-0.02 -0.03,-0.04l0 -0.04 -0.12 0c-0.05,0 -0.03,0.05 -0.05,0.07 -0.01,0.01 -0.02,0.01 -0.03,0.01l-0.01 0c-0.01,0 -0.03,-0.02 -0.03,-0.04 0,-0.03 0.01,-0.06 0.03,-0.09 0.02,-0.01 0.05,-0.03 0.08,-0.03l0.13 0 0 -0.08 -0.13 0c-0.03,0 -0.07,-0.02 -0.09,-0.05 -0.02,-0.03 0,-0.03 -0.03,-0.04 -0.05,-0.01 -0.09,-0.04 -0.11,-0.08 -0.02,-0.02 -0.04,-0.06 -0.04,-0.1l0 -0.13 -0.04 0c-0.01,0 -0.03,-0.02 -0.03,-0.03l0 -0.01c0,-0.02 0.02,-0.04 0.03,-0.04l0.09 0c0.01,0 0.02,0.02 0.03,0.03 0,0.01 0,0.14 0,0.16 0,0.04 0.01,0.06 0.03,0.08 0,0.01 0.01,0.02 0.02,0.03 0.01,0 0.03,0.01 0.04,0.01 0,0 0.01,-0.01 0.01,-0.01 0,-0.01 0.01,-0.01 0.01,-0.02 -0.01,-0.01 -0.01,-0.01 -0.02,-0.03 0,-0.01 -0.01,-0.03 -0.01,-0.04l0 -0.4c0,-0.02 0.01,-0.05 0.02,-0.06 0.02,-0.02 0.03,-0.03 0.05,-0.04 0.01,0 0.03,-0.01 0.04,-0.01l0.19 0c0.04,0 0.05,0.08 -0.01,0.08 -0.03,0 -0.06,0 -0.09,0 -0.05,0 -0.12,-0.01 -0.12,0.04l0 0.38c0,0.02 0.02,0.04 0.04,0.04l0.31 0c0.06,0 0.04,-0.05 0.06,-0.07 0.01,-0.01 0.02,-0.01 0.03,-0.01 0.02,0 0.04,0.02 0.04,0.04 0,0.04 -0.01,0.05 -0.03,0.08 0,0.01 0.02,0.02 0.02,0.03 0.01,0 0.03,-0.01 0.04,-0.01 0.03,-0.03 0.05,-0.06 0.05,-0.11 0,-0.03 -0.01,-0.15 0,-0.16 0.01,-0.01 0.02,-0.03 0.03,-0.03l0.08 0c0.02,0 0.04,0.02 0.04,0.04l0 0.01c0,0.01 -0.02,0.03 -0.04,0.03l-0.03 0 0 0.13c0,0.04 -0.02,0.08 -0.04,0.1 -0.03,0.05 -0.07,0.07 -0.12,0.09 -0.01,0 -0.01,0 -0.01,0.01 -0.02,0.04 -0.06,0.07 -0.1,0.07l-0.13 0 0 0.08 0.13 0c0.03,0 0.07,0.02 0.09,0.05 0.01,0.02 0.02,0.04 0.02,0.07 0,0.02 -0.02,0.04 -0.04,0.04z"/>
    <path fill="black" d="M0.63 0.11l0 0.02c0,0.01 0.02,0.03 0.03,0.03 0.03,0 0.05,-0.01 0.05,-0.04 0,-0.05 0.06,-0.05 0.08,-0.01 0.01,0.04 -0.04,0.04 -0.06,0.07 -0.02,0.02 -0.02,0.04 -0.02,0.06 0,0.02 0.02,0.04 0.03,0.04 0.02,0 0.03,0 0.04,-0.02 0.01,-0.01 0.01,-0.01 0.01,-0.03 0.01,0 0.01,0 0.03,-0.01 0.01,-0.01 0.01,-0.02 0.02,-0.03 0.04,-0.04 0.04,-0.1 0,-0.15 -0.02,-0.02 -0.05,-0.04 -0.08,-0.04 -0.03,0 -0.05,0 -0.08,0.02 -0.03,0.02 -0.05,0.06 -0.05,0.09z"/>
    <path fill="black" d="M0.71 0.35l0 0.01c0,0.02 0.02,0.04 0.03,0.04l0.01 0c0.02,0 0.04,-0.02 0.04,-0.04l0 -0.01c0,-0.01 -0.02,-0.03 -0.04,-0.03l-0.01 0c-0.01,0 -0.03,0.02 -0.03,0.03z"/>
   </g>
  </g>
 </g>
</svg>
