<?xml version="1.0" encoding="UTF-8"?>
<!DOCTYPE svg PUBLIC "-//W3C//DTD SVG 1.0//EN" "http://www.w3.org/TR/2001/REC-SVG-20010904/DTD/svg10.dtd">
<!-- Creator: CorelDRAW 2018 (64 Bit Versão de avaliação) -->
<svg xmlns="http://www.w3.org/2000/svg" xml:space="preserve" width="33px" height="41px" version="1.0" shape-rendering="geometricPrecision" text-rendering="geometricPrecision" image-rendering="optimizeQuality" fill-rule="evenodd" clip-rule="evenodd"
viewBox="0 0 3.83 4.79"
 xmlns:xlink="http://www.w3.org/1999/xlink">
 <g id="Camada_x0020_1">
  <metadata id="CorelCorpID_0Corel-Layer"/>
  <g id="_2889897915312">
   <g>
    <path fill="black" d="M0.48 1.68l0.75 0c0.07,0 0.13,-0.02 0.18,-0.05 0.05,-0.02 0.09,-0.05 0.13,-0.1 0.08,-0.07 0.14,-0.19 0.14,-0.33l0 -0.71 1.67 0 0 3.81 -2.87 0 0 -2.62zm0.72 -1.09l0 0.61 -0.61 0 0.61 -0.61zm-1.2 0.8l0 2.92c0,0.15 0.06,0.25 0.15,0.35 0.08,0.08 0.2,0.13 0.37,0.13l2.8 0c0.28,0 0.51,-0.19 0.51,-0.48l0 -3.83c0,-0.27 -0.21,-0.48 -0.51,-0.48l-1.86 0c-0.25,0 -0.39,0.07 -0.53,0.18 -0.06,0.04 -0.13,0.12 -0.18,0.18l-0.53 0.53c-0.11,0.11 -0.22,0.28 -0.22,0.5z"/>
    <path fill="black" d="M1.68 3.01c-0.17,-0.11 -0.4,-0.56 -0.65,-0.31 -0.21,0.22 0.07,0.42 0.23,0.58 0.21,0.21 0.37,0.46 0.61,0.22l0.88 -0.88c0.06,-0.06 0.1,-0.09 0.12,-0.19 0.03,-0.15 -0.12,-0.3 -0.27,-0.27 -0.12,0.02 -0.23,0.15 -0.33,0.26 -0.09,0.09 -0.55,0.54 -0.59,0.59z"/>
   </g>
  </g>
 </g>
</svg>
