<?xml version="1.0" encoding="UTF-8"?>
<!DOCTYPE svg PUBLIC "-//W3C//DTD SVG 1.0//EN" "http://www.w3.org/TR/2001/REC-SVG-20010904/DTD/svg10.dtd">
<!-- Creator: CorelDRAW 2018 (64 Bit Versão de avaliação) -->
<svg xmlns="http://www.w3.org/2000/svg" xml:space="preserve" width="46px" height="29px" version="1.0" shape-rendering="geometricPrecision" text-rendering="geometricPrecision" image-rendering="optimizeQuality" fill-rule="evenodd" clip-rule="evenodd"
viewBox="0 0 7.16 4.5"
 xmlns:xlink="http://www.w3.org/1999/xlink">
 <g id="Camada_x0020_1">
  <metadata id="CorelCorpID_0Corel-Layer"/>
  <path fill="#292929" d="M0.49 3.62l0 -2.74c0,-0.12 0.08,-0.23 0.14,-0.28 0.08,-0.06 0.16,-0.11 0.31,-0.11l3.28 0c0.25,0 0.44,0.21 0.44,0.35l0 2.82c0,0.16 -0.21,0.35 -0.43,0.35l-3.29 0c-0.25,0 -0.45,-0.19 -0.45,-0.39zm4.67 -0.86l0 -1.02c0,-0.05 0.3,-0.25 0.34,-0.28l0.18 -0.13c0.16,-0.11 0.85,-0.63 0.92,-0.63 0.04,0 0.07,0.04 0.07,0.07l0 2.92c0,0.26 -0.31,-0.05 -0.46,-0.14l-0.35 -0.26c-0.06,-0.05 -0.12,-0.08 -0.18,-0.13 -0.06,-0.04 -0.52,-0.34 -0.52,-0.4zm-5.16 -1.92l0 2.82c0,0.22 0.13,0.44 0.27,0.58 0.14,0.14 0.39,0.26 0.6,0.26l3.42 0c0.24,0 0.43,-0.12 0.6,-0.25 0.07,-0.07 0.2,-0.26 0.23,-0.39 0.04,-0.13 0.04,-0.29 0.04,-0.46 0.1,0.06 0.54,0.39 0.67,0.48l0.33 0.24c0.15,0.11 0.23,0.18 0.45,0.18 0.27,0 0.55,-0.27 0.55,-0.52l0 -3.05c0,-0.28 -0.28,-0.53 -0.57,-0.53 -0.19,0 -0.3,0.08 -0.41,0.17l-1.02 0.73c0,-0.17 0,-0.32 -0.03,-0.45 -0.05,-0.17 -0.12,-0.24 -0.21,-0.35 -0.14,-0.17 -0.4,-0.3 -0.63,-0.3l-3.42 0c-0.12,0 -0.27,0.04 -0.34,0.08 -0.09,0.05 -0.19,0.11 -0.26,0.17l-0.09 0.12c-0.1,0.12 -0.18,0.3 -0.18,0.47z"/>
 </g>
</svg>
