<?xml version="1.0" encoding="UTF-8"?>
<!DOCTYPE svg PUBLIC "-//W3C//DTD SVG 1.0//EN" "http://www.w3.org/TR/2001/REC-SVG-20010904/DTD/svg10.dtd">
<!-- Creator: CorelDRAW 2018 (64 Bit Versão de avaliação) -->
<svg xmlns="http://www.w3.org/2000/svg" xml:space="preserve" width="37px" height="21px" version="1.0" shape-rendering="geometricPrecision" text-rendering="geometricPrecision" image-rendering="optimizeQuality" fill-rule="evenodd" clip-rule="evenodd"
viewBox="0 0 2 1.12"
 xmlns:xlink="http://www.w3.org/1999/xlink">
 <g id="Camada_x0020_1">
  <metadata id="CorelCorpID_0Corel-Layer"/>
  <g id="_2069079539520">
   <g>
    <path fill="#373435" d="M0 0.11l0 0.69c0,0.05 0.02,0.1 0.03,0.13 0.01,0.02 0.02,0.04 0.03,0.05 0.02,0.02 0.02,0.03 0.04,0.05 0.05,0.05 0.14,0.09 0.24,0.09l0.97 0c0.07,0 0.13,-0.06 0.13,-0.12l0 -0.66c0,-0.19 -0.15,-0.34 -0.33,-0.34l-0.98 0c-0.07,0 -0.13,0.05 -0.13,0.11z"/>
    <path fill="#373435" d="M1.52 0.35l0 0.42c0,0.08 0.05,0.1 0.09,0.14 0.01,0.01 0.01,0.01 0.02,0.02 0.01,0.01 0.01,0.01 0.02,0.02l0.13 0.11c0.02,0.01 0.1,0.11 0.19,0.04 0.01,-0.02 0.03,-0.05 0.03,-0.08l0 -0.92c0,-0.08 -0.11,-0.14 -0.17,-0.07 -0.07,0.05 -0.17,0.13 -0.22,0.19 -0.02,0.01 -0.06,0.04 -0.07,0.06 -0.02,0.02 -0.02,0.04 -0.02,0.07z"/>
   </g>
  </g>
 </g>
</svg>
