<?xml version="1.0" encoding="UTF-8"?>
<!DOCTYPE svg PUBLIC "-//W3C//DTD SVG 1.0//EN" "http://www.w3.org/TR/2001/REC-SVG-20010904/DTD/svg10.dtd">
<!-- Creator: CorelDRAW 2018 (64 Bit Versão de avaliação) -->
<svg xmlns="http://www.w3.org/2000/svg" xml:space="preserve" width="61px" height="19px" version="1.0" shape-rendering="geometricPrecision" text-rendering="geometricPrecision" image-rendering="optimizeQuality" fill-rule="evenodd" clip-rule="evenodd"
viewBox="0 0 2.52 0.78"
 xmlns:xlink="http://www.w3.org/1999/xlink">
 <g id="Camada_x0020_1">
  <metadata id="CorelCorpID_0Corel-Layer"/>
  <g id="_2639565102384">
   <g>
    <path fill="black" d="M2.21 0.23l0 0c0,0.03 0.02,0.1 0.03,0.13l0.03 0.14 -0.16 0c0,-0.03 0.08,-0.22 0.1,-0.27zm-0.42 0.54l0.21 0c0.01,-0.03 0.04,-0.09 0.04,-0.12l0.26 0c0.01,0.04 0.03,0.09 0.03,0.12l0.19 0c0,-0.03 -0.01,-0.07 -0.02,-0.1l-0.14 -0.66 -0.18 0c-0.05,0 -0.07,0.03 -0.09,0.06 -0.02,0.04 -0.03,0.07 -0.04,0.1l-0.16 0.35c-0.02,0.04 -0.1,0.22 -0.1,0.25z"/>
    <path fill="black" d="M1.3 0.23c0,0.06 0,0.08 0.04,0.13 0.06,0.08 0.2,0.11 0.23,0.15 0.05,0.08 -0.06,0.11 -0.12,0.11 -0.04,0 -0.08,-0.01 -0.11,-0.02 -0.03,0 -0.08,-0.02 -0.1,-0.03 0,0.01 -0.03,0.16 -0.03,0.17 0.11,0.02 0.1,0.04 0.25,0.04 0.09,0 0.18,-0.03 0.23,-0.07 0.12,-0.08 0.16,-0.24 0.02,-0.35 -0.06,-0.05 -0.23,-0.09 -0.19,-0.16 0.03,-0.05 0.14,-0.04 0.19,-0.03 0.04,0 0.07,0.02 0.08,0.02 0.01,0 0,0.01 0.01,0 0,0 0.03,-0.15 0.03,-0.16 -0.03,0 -0.06,-0.03 -0.2,-0.03 -0.08,0 -0.17,0.02 -0.22,0.06 -0.05,0.03 -0.11,0.09 -0.11,0.17z"/>
    <path fill="black" d="M0.51 0.52c-0.01,-0.14 -0.2,-0.33 -0.31,-0.38l0.09 0.31c0.02,0.06 0.03,0.11 0.05,0.16 0.01,0.03 0.04,0.14 0.05,0.16l0.22 0 0.3 -0.71c0,-0.01 0.01,-0.03 0.02,-0.05l-0.22 0 -0.2 0.5c0,0 0,0 0,0.01l0 0z"/>
    <path fill="black" d="M0.88 0.77l0.21 0 0.12 -0.7c0.01,-0.08 0.04,-0.06 -0.2,-0.06 -0.01,0.03 -0.01,0.06 -0.02,0.09 0,0.03 -0.01,0.07 -0.01,0.1 -0.01,0.06 -0.1,0.53 -0.1,0.57z"/>
    <path fill="black" d="M0 0.02c0.2,0.05 0.37,0.16 0.46,0.34l0.02 0.03c0,-0.02 -0.07,-0.33 -0.07,-0.34 -0.02,-0.03 -0.05,-0.05 -0.09,-0.05l-0.32 0 0 0.02z"/>
   </g>
  </g>
 </g>
</svg>
