<?xml version="1.0" encoding="UTF-8"?>
<!DOCTYPE svg PUBLIC "-//W3C//DTD SVG 1.0//EN" "http://www.w3.org/TR/2001/REC-SVG-20010904/DTD/svg10.dtd">
<!-- Creator: CorelDRAW 2018 (64 Bit Versão de avaliação) -->
<svg xmlns="http://www.w3.org/2000/svg" xml:space="preserve" width="45px" height="41px" version="1.0" shape-rendering="geometricPrecision" text-rendering="geometricPrecision" image-rendering="optimizeQuality" fill-rule="evenodd" clip-rule="evenodd"
viewBox="0 0 1.1 1"
 xmlns:xlink="http://www.w3.org/1999/xlink">
 <g id="Camada_x0020_1">
  <metadata id="CorelCorpID_0Corel-Layer"/>
  <g id="_2307470508032">
   <g>
    <path fill="black" d="M0 0.4l0 0.19c0,0.06 0.03,0.11 0.08,0.13 0.03,0 0.09,0 0.13,0 0.02,0 0.02,0.01 0.05,0.03 0.02,0.02 0.04,0.03 0.05,0.05l0.12 0.09c0.02,0.02 0.04,0.04 0.06,0.04 0.04,0 0.06,-0.02 0.06,-0.05l0 -0.76c0,-0.05 -0.05,-0.07 -0.09,-0.04 -0.01,0.01 -0.02,0.02 -0.03,0.02 -0.06,0.06 -0.13,0.12 -0.2,0.17 -0.01,0.01 -0.02,0.01 -0.04,0.01 -0.07,0 -0.12,-0.01 -0.17,0.04 -0.01,0.02 -0.02,0.05 -0.02,0.08z"/>
    <path fill="black" d="M0.72 0.05c0,0.05 0.03,0.05 0.09,0.09 0.03,0.03 0.06,0.06 0.09,0.09 0.05,0.06 0.09,0.16 0.09,0.25 0,0.07 0,0.12 -0.03,0.18 -0.08,0.19 -0.21,0.22 -0.23,0.25 -0.04,0.04 0,0.1 0.05,0.09 0.02,-0.01 0.03,-0.01 0.04,-0.02 0.06,-0.03 0.07,-0.05 0.12,-0.09 0.01,-0.01 0.05,-0.06 0.06,-0.08 0.03,-0.04 0.04,-0.06 0.07,-0.11 0.02,-0.06 0.03,-0.11 0.03,-0.17 0,-0.04 0,-0.01 0,-0.06 0,-0.04 0,-0.03 -0.01,-0.08 -0.01,-0.07 -0.04,-0.14 -0.09,-0.2l-0.06 -0.08c-0.02,-0.02 -0.06,-0.05 -0.08,-0.07 -0.02,-0.01 -0.03,-0.01 -0.04,-0.02 -0.01,-0.01 -0.02,-0.01 -0.04,-0.02 -0.03,-0.01 -0.06,0.02 -0.06,0.05z"/>
    <path fill="black" d="M0.72 0.33c0,0.04 0.01,0.03 0.03,0.08 0.03,0.07 0.02,0.15 -0.02,0.21 -0.01,0.02 -0.01,0.02 -0.01,0.05 0,0.01 0,0.03 0.01,0.03 0.01,0.01 0.03,0.02 0.04,0.02 0.07,0 0.11,-0.15 0.11,-0.21 0,-0.08 -0.01,-0.12 -0.05,-0.19 -0.03,-0.06 -0.08,-0.05 -0.11,-0.01 0,0 0,0.01 0,0.02z"/>
   </g>
  </g>
 </g>
</svg>
