<?xml version="1.0" encoding="UTF-8"?>
<!DOCTYPE svg PUBLIC "-//W3C//DTD SVG 1.0//EN" "http://www.w3.org/TR/2001/REC-SVG-20010904/DTD/svg10.dtd">
<!-- Creator: CorelDRAW 2018 (64 Bit Versão de avaliação) -->
<svg xmlns="http://www.w3.org/2000/svg" xml:space="preserve" width="41px" height="41px" version="1.0" shape-rendering="geometricPrecision" text-rendering="geometricPrecision" image-rendering="optimizeQuality" fill-rule="evenodd" clip-rule="evenodd"
viewBox="0 0 0.75 0.75"
 xmlns:xlink="http://www.w3.org/1999/xlink">
 <g id="Camada_x0020_1">
  <metadata id="CorelCorpID_0Corel-Layer"/>
  <g id="_2787230939056">
   <g>
    <path fill="#29292A" d="M0.05 0.48l0.07 0 0 0.2 -0.07 0 0 -0.2zm0.38 0.21c-0.11,0 -0.12,0.01 -0.22,-0.03 -0.01,-0.01 -0.02,-0.02 -0.04,-0.02l0 -0.12c0.03,-0.02 0.04,-0.03 0.07,-0.03 0.04,-0.01 0.08,0.01 0.11,0.03 0.01,0.01 0.02,0.01 0.04,0.01 0.01,0 0.03,0 0.05,0 0,0 0.02,0 0.02,0 0.01,0.01 0.02,0.04 -0.02,0.04 -0.02,0 -0.07,-0.01 -0.09,0 -0.02,0.01 -0.01,0.05 0.02,0.05l0.09 0c0.08,0 0.11,-0.03 0.16,-0.08 0.02,-0.01 0.04,-0.03 0.06,-0.03 0.01,0 0.03,0.01 -0.01,0.04l-0.09 0.07c-0.05,0.04 -0.08,0.07 -0.15,0.07zm0.1 -0.14c0,-0.02 -0.01,-0.03 -0.01,-0.04 0.01,0 0.01,-0.01 0.02,-0.01 0.01,-0.01 0.07,-0.07 0.07,-0.03 0,0.02 -0.02,0.03 -0.04,0.04l-0.04 0.04zm-0.26 -0.12c-0.04,0 -0.07,0.01 -0.1,0.02 0,-0.01 -0.01,-0.02 -0.02,-0.02l-0.13 0c-0.01,0 -0.02,0.01 -0.02,0.02l0 0.26c0,0.02 0.02,0.03 0.04,0.03 0.02,0 0.1,0 0.12,-0.01 0.02,-0.01 0.01,-0.03 0.02,-0.03 0.01,0 0.08,0.05 0.15,0.05l0.12 0c0.04,0 0.08,-0.02 0.1,-0.04 0.04,-0.03 0.08,-0.06 0.12,-0.09 0.03,-0.03 0.08,-0.05 0.08,-0.09 0,-0.02 -0.01,-0.04 -0.03,-0.06 -0.02,-0.01 -0.03,-0.02 -0.06,-0.02 0,-0.02 -0.03,-0.05 -0.07,-0.05 -0.03,0 -0.07,0.04 -0.1,0.06 -0.02,0.02 -0.01,0.02 -0.04,0.02 -0.03,0 -0.06,0 -0.08,-0.01 -0.02,-0.02 -0.06,-0.04 -0.1,-0.04z"/>
    <path fill="#29292A" d="M0.56 0.26l0 0.03 -0.03 0c0.01,-0.02 0.02,-0.02 0.03,-0.03zm-0.38 0c0.02,0.01 0.02,0.01 0.03,0.03l-0.03 0 0 -0.03zm0 -0.12c0.03,-0.01 0.05,-0.01 0.08,-0.05 0,-0.01 0.01,-0.03 0.01,-0.04l0.21 0c0,0.04 0.04,0.07 0.07,0.09 0,0 0.01,0 0.01,0l0 0.06c-0.01,0 -0.03,0.01 -0.04,0.02 -0.01,0 -0.01,0.01 -0.01,0.01 -0.01,0.01 -0.03,0.04 -0.03,0.06l-0.21 0c0,-0.04 -0.05,-0.09 -0.09,-0.09l0 -0.06zm0.35 -0.09l0.03 0 0 0.03c-0.01,0 -0.02,-0.02 -0.03,-0.03zm-0.35 0.03l0 -0.03 0.03 0c0,0.02 -0.02,0.03 -0.03,0.03zm-0.05 -0.05l0 0.28c0,0.02 0.01,0.03 0.03,0.03l0.43 0c0.02,0 0.03,-0.01 0.03,-0.03l0 -0.28c0,-0.02 -0.01,-0.03 -0.02,-0.03l-0.45 0c-0.01,0 -0.02,0.01 -0.02,0.03z"/>
    <path fill="#29292A" d="M0.37 0.14c0.06,0 0.03,0.08 -0.02,0.05 -0.02,-0.01 -0.01,-0.05 0.02,-0.05zm-0.08 0.03c0,0.05 0.04,0.09 0.08,0.09 0.03,0 0.04,-0.01 0.06,-0.03 0.06,-0.05 0.02,-0.14 -0.06,-0.14 -0.02,0 -0.04,0.01 -0.06,0.02 -0.01,0.02 -0.02,0.04 -0.02,0.06z"/>
   </g>
  </g>
 </g>
</svg>
