<?xml version="1.0" encoding="UTF-8"?>
<!DOCTYPE svg PUBLIC "-//W3C//DTD SVG 1.0//EN" "http://www.w3.org/TR/2001/REC-SVG-20010904/DTD/svg10.dtd">
<!-- Creator: CorelDRAW 2018 (64 Bit Versão de avaliação) -->
<svg xmlns="http://www.w3.org/2000/svg" xml:space="preserve" width="41px" height="41px" version="1.0" shape-rendering="geometricPrecision" text-rendering="geometricPrecision" image-rendering="optimizeQuality" fill-rule="evenodd" clip-rule="evenodd"
viewBox="0 0 1.93 1.92"
 xmlns:xlink="http://www.w3.org/1999/xlink">
 <g id="Camada_x0020_1">
  <metadata id="CorelCorpID_0Corel-Layer"/>
  <g id="_2039354292400">
   <path fill="#292929" d="M0.89 0.16c0.11,-0.01 0.25,0.01 0.35,0.05 0.12,0.04 0.16,0.08 0.25,0.15 0.06,0.04 0.14,0.14 0.18,0.22 0.05,0.09 0.08,0.19 0.09,0.31 0.02,0.12 -0.01,0.24 -0.04,0.35 -0.06,0.17 -0.21,0.34 -0.37,0.43 -0.1,0.05 -0.19,0.08 -0.31,0.09 -0.23,0.03 -0.44,-0.05 -0.6,-0.19 -0.05,-0.04 -0.07,-0.06 -0.1,-0.11 -0.1,-0.12 -0.16,-0.26 -0.18,-0.42 -0.03,-0.31 0.14,-0.64 0.42,-0.78 0.09,-0.05 0.18,-0.08 0.31,-0.1zm-0.89 0.86c0.01,0.29 0.17,0.53 0.31,0.65 0.02,0.02 0.04,0.04 0.07,0.06 0.05,0.03 0.18,0.11 0.23,0.13 0.14,0.06 0.24,0.07 0.41,0.06 0.2,0 0.39,-0.08 0.53,-0.19 0.23,-0.18 0.39,-0.46 0.38,-0.83 -0.01,-0.07 -0.02,-0.14 -0.04,-0.21 -0.04,-0.15 -0.17,-0.35 -0.27,-0.44 -0.06,-0.04 -0.08,-0.06 -0.14,-0.1 -0.19,-0.12 -0.35,-0.16 -0.58,-0.15 -0.15,0.01 -0.26,0.05 -0.38,0.1 -0.1,0.05 -0.19,0.13 -0.27,0.21 -0.18,0.2 -0.26,0.43 -0.25,0.71z"/>
   <path fill="#292929" d="M0.95 0.48c-0.08,0.02 -0.06,0.1 -0.06,0.14l0 0.4c0,0.04 -0.01,0.06 0.02,0.08 0.04,0.04 0.11,0.02 0.13,-0.02 0.01,-0.03 0,-0.44 0,-0.5 0,-0.03 0,-0.06 -0.02,-0.08 -0.02,-0.01 -0.05,-0.02 -0.07,-0.02z"/>
   <path fill="#292929" d="M0.94 1.21c-0.05,0.01 -0.09,0.05 -0.08,0.12 0.03,0.14 0.24,0.1 0.21,-0.05 -0.01,-0.04 -0.07,-0.08 -0.13,-0.07z"/>
  </g>
 </g>
</svg>
