<?xml version="1.0" encoding="UTF-8"?>
<!DOCTYPE svg PUBLIC "-//W3C//DTD SVG 1.0//EN" "http://www.w3.org/TR/2001/REC-SVG-20010904/DTD/svg10.dtd">
<!-- Creator: CorelDRAW 2018 (64 Bit Versão de avaliação) -->
<svg xmlns="http://www.w3.org/2000/svg" xml:space="preserve" width="45px" height="41px" version="1.0" shape-rendering="geometricPrecision" text-rendering="geometricPrecision" image-rendering="optimizeQuality" fill-rule="evenodd" clip-rule="evenodd"
viewBox="0 0 1.37 1.25"
 xmlns:xlink="http://www.w3.org/1999/xlink">
 <g id="Camada_x0020_1">
  <metadata id="CorelCorpID_0Corel-Layer"/>
  <g id="_2751233079024">
   <g>
    <path fill="#292929" d="M1.13 1.13l-0.89 0c-0.02,0 -0.04,-0.01 -0.05,-0.02 0,0 -0.01,0 -0.01,-0.01 -0.01,0 -0.01,0 -0.02,-0.01 -0.01,-0.02 -0.03,-0.05 -0.03,-0.07 0,-0.04 0,-0.06 0.02,-0.09l0.23 -0.39c0.03,-0.06 0.06,-0.12 0.1,-0.17 0.01,-0.02 0.02,-0.04 0.03,-0.06l0.06 -0.11c0.03,-0.05 0.06,-0.07 0.13,-0.07 0.02,0 0.04,0.01 0.06,0.02 0.03,0.03 0.06,0.09 0.09,0.13l0.08 0.14c0.04,0.08 0.09,0.16 0.13,0.23l0.14 0.25c0.02,0.03 0.04,0.06 0.04,0.09 0,0.03 0,0.04 -0.01,0.07 -0.01,0.02 -0.03,0.04 -0.06,0.05 -0.01,0.01 -0.02,0.02 -0.04,0.02zm-1.13 -0.15l0 0.01c0,0.04 0,0.07 0.02,0.11 0,0.01 0,0.01 0,0.01l0.02 0.03c0.01,0.01 0.01,0.01 0.01,0.02 0.02,0.02 0.05,0.04 0.06,0.06 0.03,0.01 0.07,0.03 0.11,0.03l0.92 0c0.04,0 0.11,-0.03 0.13,-0.04 0.04,-0.04 0.05,-0.05 0.07,-0.1 0.03,-0.05 0.03,-0.07 0.03,-0.12l0 -0.01 0 0 0 0c0,-0.03 -0.01,-0.06 -0.02,-0.08l-0.19 -0.33c-0.02,-0.03 -0.1,-0.16 -0.11,-0.19 -0.01,-0.02 -0.02,-0.03 -0.02,-0.04 -0.03,-0.04 -0.14,-0.24 -0.16,-0.26 -0.03,-0.02 -0.05,-0.05 -0.09,-0.06 -0.04,-0.02 -0.06,-0.02 -0.11,-0.02l0 0c-0.07,0 -0.13,0.04 -0.17,0.08 -0.01,0.01 -0.01,0.01 -0.01,0.02 -0.03,0.03 -0.1,0.17 -0.13,0.21l-0.09 0.16c-0.04,0.07 -0.1,0.17 -0.14,0.23l-0.09 0.17c-0.01,0.01 -0.01,0.02 -0.02,0.03 -0.01,0.02 -0.02,0.06 -0.02,0.08z"/>
    <path fill="#292929" d="M0.61 0.45c0,0.02 0,0.04 0,0.06 0,0.01 0,0.03 0,0.05 0,0.01 0,0.02 0,0.03 0.01,0.04 0.01,0.1 0.01,0.14 0.01,0.03 0,0.06 0.02,0.09 0.03,0.03 0.1,0.03 0.1,-0.04 0.01,-0.03 0.01,-0.07 0.01,-0.08l0.01 -0.12c0,0 0,0 0,-0.01 0,-0.04 0,-0.07 0,-0.11 0,-0.07 -0.07,-0.11 -0.13,-0.06l0 0c-0.01,0.02 -0.02,0.03 -0.02,0.05z"/>
    <path fill="#292929" d="M0.68 1.03c0.02,0 0.05,-0.02 0.06,-0.03 0.04,-0.04 0.03,-0.1 -0.02,-0.12 -0.07,-0.03 -0.14,0.03 -0.11,0.1 0.01,0.02 0.03,0.04 0.06,0.04 0,0 0.01,0.01 0.01,0.01z"/>
   </g>
  </g>
 </g>
</svg>
