<?xml version="1.0" encoding="UTF-8"?>
<!DOCTYPE svg PUBLIC "-//W3C//DTD SVG 1.0//EN" "http://www.w3.org/TR/2001/REC-SVG-20010904/DTD/svg10.dtd">
<!-- Creator: CorelDRAW 2018 (64 Bit Versão de avaliação) -->
<svg xmlns="http://www.w3.org/2000/svg" xml:space="preserve" width="39px" height="41px" version="1.0" shape-rendering="geometricPrecision" text-rendering="geometricPrecision" image-rendering="optimizeQuality" fill-rule="evenodd" clip-rule="evenodd"
viewBox="0 0 5.23 5.56"
 xmlns:xlink="http://www.w3.org/1999/xlink">
 <g id="Camada_x0020_1">
  <metadata id="CorelCorpID_0Corel-Layer"/>
  <g id="_2289856265424">
   <g>
    <path fill="#292929" d="M0 1.02l0 3.52c0,0.28 0.18,0.55 0.32,0.69 0.14,0.14 0.42,0.33 0.69,0.33l2.34 0c0.51,0 1.03,-0.52 1.03,-1.06l0 -1.28c0,-0.22 -0.38,-0.36 -0.51,-0.07 -0.04,0.1 -0.02,0.98 -0.02,1.13 0,0.29 -0.02,0.43 -0.17,0.59 -0.14,0.13 -0.31,0.18 -0.58,0.18l-1.86 0c-0.41,0 -0.71,-0.21 -0.71,-0.6l0 -3.34c0,-0.23 0.12,-0.4 0.26,-0.49 0.18,-0.12 0.37,-0.11 0.66,-0.11 0.12,0 1.06,0.02 1.13,-0.01 0.25,-0.07 0.21,-0.5 -0.03,-0.5l-1.55 0c-0.46,0 -1,0.53 -1,1.02z"/>
    <path fill="#292929" d="M3.51 0.82c0,-0.04 0.02,-0.03 0.05,-0.06 0.35,-0.29 0.65,-0.33 1.03,-0.05 0.13,0.09 0.12,0.06 0.12,0.14 0,0.14 -0.01,0.29 -0.03,0.42 -0.02,0.12 -0.07,0.26 -0.12,0.34 -0.03,0.05 -0.06,0.09 -0.09,0.14 -0.03,0.04 -0.07,0.09 -0.1,0.13 -0.08,0.08 -0.17,0.16 -0.26,0.21 -0.1,-0.08 -0.11,-0.07 -0.25,-0.21 -0.06,-0.07 -0.14,-0.19 -0.19,-0.28 -0.12,-0.23 -0.16,-0.45 -0.16,-0.78zm-0.51 -0.18c0,0.81 -0.03,0.96 0.51,1.64 0.05,0.07 0.43,0.37 0.59,0.37 0.13,0 0.17,-0.03 0.26,-0.08 0.45,-0.28 0.87,-0.88 0.87,-1.4l0 -0.54c0,-0.18 -0.64,-0.63 -1.03,-0.63 -0.34,0 -0.48,0.02 -0.79,0.22 -0.11,0.07 -0.41,0.27 -0.41,0.42z"/>
    <path fill="#292929" d="M2.4 4.07c-0.18,-0.12 -0.19,-0.31 -0.47,-0.31 -0.09,0 -0.22,0.1 -0.22,0.28 0,0.11 0.07,0.16 0.12,0.22l0.34 0.33c0.24,0.25 0.38,0.08 0.57,-0.11 0.1,-0.09 0.18,-0.17 0.27,-0.27 0.1,-0.09 0.18,-0.17 0.27,-0.27 0.17,-0.16 0.23,-0.17 0.23,-0.4 0,-0.09 -0.11,-0.2 -0.2,-0.2 -0.2,0 -0.17,0 -0.33,0.16 -0.12,0.11 -0.51,0.52 -0.58,0.57z"/>
    <path fill="#292929" d="M1.08 1.8l0.91 0c0.33,0 0.33,-0.53 -0.01,-0.53l-0.87 0c-0.19,0 -0.35,0.25 -0.2,0.44 0.03,0.03 0.12,0.09 0.17,0.09z"/>
    <path fill="#292929" d="M0.85 2.39c0,0.12 0.1,0.26 0.22,0.26l0.95 0c0.12,0 0.22,-0.12 0.22,-0.28 0,-0.09 -0.12,-0.23 -0.22,-0.23l-0.95 0c-0.11,0 -0.22,0.14 -0.22,0.25z"/>
   </g>
  </g>
 </g>
</svg>
