<?xml version="1.0" encoding="UTF-8"?>
<!DOCTYPE svg PUBLIC "-//W3C//DTD SVG 1.0//EN" "http://www.w3.org/TR/2001/REC-SVG-20010904/DTD/svg10.dtd">
<!-- Creator: CorelDRAW 2018 (64 Bit Versão de avaliação) -->
<svg xmlns="http://www.w3.org/2000/svg" xml:space="preserve" width="39px" height="41px" version="1.0" shape-rendering="geometricPrecision" text-rendering="geometricPrecision" image-rendering="optimizeQuality" fill-rule="evenodd" clip-rule="evenodd"
viewBox="0 0 1.73 1.82"
 xmlns:xlink="http://www.w3.org/1999/xlink">
 <g id="Camada_x0020_1">
  <metadata id="CorelCorpID_0Corel-Layer"/>
  <path fill="black" d="M0.17 1.58c0,-0.03 0.11,-0.45 0.12,-0.49 0.02,-0.1 0.06,-0.26 0.09,-0.36 0.01,-0.04 0.04,-0.07 0.09,-0.07l0.8 0c0.09,0 0.09,0.1 0.11,0.19 0.02,0.08 0.04,0.16 0.06,0.24 0.01,0.03 0.12,0.46 0.12,0.49 0,0.04 -0.04,0.08 -0.09,0.08l-1.21 0c-0.04,0 -0.06,-0.01 -0.08,-0.04 0,-0.01 -0.01,-0.03 -0.01,-0.04zm0.53 -1.23c0,-0.06 0.01,-0.1 0.05,-0.14 0.12,-0.1 0.28,0 0.28,0.11 0,0.05 -0.01,0.09 -0.05,0.13 -0.11,0.11 -0.28,0.02 -0.28,-0.1zm-0.13 0.15c-0.06,0 -0.14,-0.01 -0.19,0.01 -0.12,0.04 -0.15,0.13 -0.18,0.23l-0.12 0.49c-0.02,0.07 -0.08,0.29 -0.08,0.35 0,0.04 0.01,0.07 0.02,0.1 0.02,0.03 0.04,0.06 0.07,0.09 0.05,0.03 0.09,0.05 0.16,0.05l1.23 0c0.14,0 0.25,-0.11 0.25,-0.25 0,-0.03 -0.01,-0.06 -0.01,-0.08l-0.19 -0.75c-0.01,-0.06 -0.02,-0.1 -0.06,-0.14 -0.08,-0.12 -0.19,-0.1 -0.31,-0.1 0,-0.02 0.01,-0.03 0.01,-0.04 0.12,-0.3 -0.2,-0.58 -0.48,-0.41 -0.1,0.06 -0.14,0.15 -0.16,0.27 0,0.02 0.01,0.08 0.01,0.1 0.01,0.03 0.03,0.06 0.03,0.08z"/>
 </g>
</svg>
