<?xml version="1.0" encoding="UTF-8"?>
<!DOCTYPE svg PUBLIC "-//W3C//DTD SVG 1.0//EN" "http://www.w3.org/TR/2001/REC-SVG-20010904/DTD/svg10.dtd">
<!-- Creator: CorelDRAW 2018 (64 Bit Versão de avaliação) -->
<svg xmlns="http://www.w3.org/2000/svg" xml:space="preserve" width="46px" height="34px" version="1.0" shape-rendering="geometricPrecision" text-rendering="geometricPrecision" image-rendering="optimizeQuality" fill-rule="evenodd" clip-rule="evenodd"
viewBox="0 0 3.06 2.31"
 xmlns:xlink="http://www.w3.org/1999/xlink">
 <g id="Camada_x0020_1">
  <metadata id="CorelCorpID_0Corel-Layer"/>
  <path fill="black" d="M1.39 0.01c-0.54,0.04 -0.86,0.2 -1.24,0.51l-0.11 0.1c-0.12,0.14 0.07,0.33 0.21,0.2 0.04,-0.05 0.09,-0.09 0.15,-0.13 0.05,-0.04 0.1,-0.08 0.16,-0.12 0.59,-0.38 1.36,-0.37 1.95,0.01 0.06,0.03 0.12,0.08 0.17,0.12 0.01,0.01 0.02,0.02 0.03,0.03l0.04 0.03c0.06,0.06 0.11,0.11 0.18,0.1 0.13,-0.01 0.17,-0.17 0.09,-0.25 -0.02,-0.01 -0.03,-0.02 -0.04,-0.03 -0.03,-0.03 -0.08,-0.08 -0.11,-0.1 -0.17,-0.13 -0.32,-0.23 -0.53,-0.32 -0.25,-0.11 -0.63,-0.18 -0.95,-0.15zm-0.09 2.09c0,0.12 0.12,0.23 0.25,0.21 0.07,-0.01 0.13,-0.04 0.16,-0.08 0.03,-0.05 0.06,-0.09 0.05,-0.18 -0.01,-0.11 -0.12,-0.22 -0.25,-0.2 -0.12,0.01 -0.22,0.11 -0.21,0.25zm0.19 -0.61c0.08,-0.01 0.16,0.01 0.23,0.03 0.19,0.07 0.24,0.18 0.33,0.19 0.08,0.01 0.14,-0.04 0.15,-0.11 0.03,-0.09 -0.03,-0.14 -0.07,-0.17 -0.16,-0.13 -0.34,-0.22 -0.56,-0.23 -0.23,0 -0.42,0.06 -0.59,0.19 -0.04,0.03 -0.11,0.08 -0.12,0.14 -0.02,0.08 0.03,0.15 0.08,0.17 0.16,0.07 0.2,-0.17 0.55,-0.21zm-0.05 -0.58c0.12,-0.01 0.26,0 0.38,0.03 0.16,0.04 0.41,0.17 0.52,0.28 0.03,0.03 0.08,0.07 0.13,0.08 0.06,0 0.11,-0.04 0.14,-0.07 0.07,-0.13 -0.07,-0.21 -0.12,-0.26 -0.2,-0.19 -0.59,-0.35 -0.87,-0.35 -0.03,0 -0.07,0 -0.1,0 -0.03,0 -0.06,0 -0.1,0 -0.15,0 -0.35,0.07 -0.49,0.12 -0.09,0.04 -0.19,0.1 -0.26,0.15 -0.05,0.04 -0.18,0.13 -0.21,0.19 -0.05,0.09 -0.01,0.22 0.14,0.21 0.04,0 0.05,-0.01 0.08,-0.03l0.1 -0.09c0.17,-0.15 0.39,-0.23 0.66,-0.26z"/>
 </g>
</svg>
