<?xml version="1.0" encoding="UTF-8"?>
<!DOCTYPE svg PUBLIC "-//W3C//DTD SVG 1.0//EN" "http://www.w3.org/TR/2001/REC-SVG-20010904/DTD/svg10.dtd">
<!-- Creator: CorelDRAW 2018 (64 Bit Versão de avaliação) -->
<svg xmlns="http://www.w3.org/2000/svg" xml:space="preserve" width="41px" height="41px" version="1.0" shape-rendering="geometricPrecision" text-rendering="geometricPrecision" image-rendering="optimizeQuality" fill-rule="evenodd" clip-rule="evenodd"
viewBox="0 0 2.49 2.48"
 xmlns:xlink="http://www.w3.org/1999/xlink">
 <g id="Camada_x0020_1">
  <metadata id="CorelCorpID_0Corel-Layer"/>
  <g id="_2289604029328">
   <g>
    <path fill="#292929" d="M1.52 1.41l0.8 0 0 0.51 -0.8 0 0 -0.51zm-1.08 1.07l-0.03 0c-0.03,-0.01 -0.06,-0.04 -0.06,-0.11 0,-0.18 -0.01,-0.17 0.13,-0.22 0.04,-0.01 0.17,-0.05 0.21,-0.05l0 -0.16c-0.06,-0.01 -0.11,-0.05 -0.13,-0.09 -0.02,-0.05 -0.02,-0.13 -0.02,-0.2 -0.01,0 -0.03,0 -0.04,-0.01 -0.12,-0.04 -0.17,-0.12 -0.19,-0.23l-0.14 0 0 0.9c0,0.09 -0.17,0.1 -0.17,-0.02l0 -1.24c0,-0.04 0.02,-0.07 0.05,-0.08 0.03,-0.02 0.23,-0.01 0.28,-0.01 0,-0.09 0.01,-0.21 0.01,-0.27 0,-0.08 0.02,-0.15 0.08,-0.2 0.03,-0.03 0.08,-0.06 0.13,-0.06l0.45 0c0.09,0 0.19,0.1 0.2,0.23l0.01 0.27c0,0.03 0,0.03 0.04,0.03l0.34 0c0.01,-0.02 0.03,-0.11 0.03,-0.12 -0.08,0 -0.18,0.01 -0.24,-0.01 -0.06,-0.02 -0.11,-0.09 -0.11,-0.14l0 -0.54c0,-0.07 0.08,-0.15 0.15,-0.15l0.91 0c0.08,0 0.16,0.09 0.16,0.16l0 0.51c0,0.07 -0.07,0.14 -0.11,0.16 -0.06,0.02 -0.17,0.01 -0.25,0.01 0,0.04 0.02,0.08 0.02,0.12 0.05,0 0.26,-0.01 0.29,0.01 0.03,0.01 0.05,0.04 0.05,0.07l0 1.27c0,0.06 -0.1,0.09 -0.15,0.04 -0.03,-0.03 -0.02,-0.18 -0.02,-0.26l-0.8 0 0 0.22c0,0.09 -0.16,0.1 -0.16,-0.01l0 -0.89 -0.13 0c-0.01,0.05 -0.01,0.06 -0.03,0.1 -0.02,0.02 -0.03,0.04 -0.05,0.07 -0.04,0.03 -0.1,0.06 -0.16,0.07 0,0.08 0.01,0.15 -0.01,0.2 -0.02,0.04 -0.08,0.09 -0.13,0.09l0 0.16c0.03,0 0.08,0.02 0.11,0.02 0.13,0.04 0.23,0.05 0.23,0.15 0,0.06 0.01,0.15 -0.02,0.18 -0.01,0.02 -0.04,0.03 -0.07,0.03 -0.11,0 -0.08,-0.13 -0.08,-0.16 -0.01,-0.01 -0.06,-0.02 -0.08,-0.02 -0.03,-0.01 -0.06,-0.02 -0.09,-0.03 0,0.04 0,0.09 0,0.11 -0.03,0.07 -0.14,0.07 -0.16,0 -0.01,-0.03 0,-0.07 0,-0.11l-0.18 0.05c0,0.03 0.01,0.09 0,0.12 -0.01,0.02 -0.03,0.04 -0.07,0.04zm0.37 -0.7c-0.12,0 -0.1,0.02 -0.1,-0.13l0.12 0c0,0.03 0.02,0.13 -0.02,0.13zm-0.24 -1.18c0.56,0 0.44,-0.04 0.46,0.21l0.01 0.26c0.02,0.07 0.01,0.17 0.02,0.26 0,0.05 0.01,0.06 -0.02,0.11 -0.01,0.02 -0.05,0.05 -0.09,0.05l-0.36 0c-0.04,0 -0.08,-0.02 -0.09,-0.05 -0.03,-0.03 -0.02,-0.06 -0.02,-0.11 0.01,-0.04 0,-0.09 0.01,-0.13 0.01,-0.09 0,-0.25 0.02,-0.39 0,-0.08 -0.03,-0.21 0.06,-0.21zm0.65 0.52l1.1 0 0 0.13 -1.1 0 0 -0.05c0,-0.03 0,-0.04 0,-0.08zm-0.91 0.08l0 0.05 -0.14 0 0 -0.13 0.15 0c0,0.04 -0.01,0.05 -0.01,0.08zm1.49 -0.36l0.16 0c0,0.04 0.02,0.08 0.02,0.12l-0.21 0c0,-0.04 0.02,-0.08 0.03,-0.12zm-0.37 -0.19l0 -0.48 0.87 0c0.03,0 0.02,0.05 0.02,0.11l0 0.39c-0.07,0.01 -0.74,0 -0.87,0 -0.01,0 -0.02,0 -0.02,-0.02z"/>
    <path fill="#292929" d="M1.7 1.6c0,0.04 0.01,0.1 0.07,0.1l0.31 0c0.09,0 0.09,-0.16 0,-0.16l-0.31 0c-0.04,0 -0.07,0.04 -0.07,0.06z"/>
   </g>
  </g>
 </g>
</svg>
