<?xml version="1.0" encoding="UTF-8"?>
<!DOCTYPE svg PUBLIC "-//W3C//DTD SVG 1.0//EN" "http://www.w3.org/TR/2001/REC-SVG-20010904/DTD/svg10.dtd">
<!-- Creator: CorelDRAW 2018 (64 Bit Versão de avaliação) -->
<svg xmlns="http://www.w3.org/2000/svg" xml:space="preserve" width="36px" height="41px" version="1.0" shape-rendering="geometricPrecision" text-rendering="geometricPrecision" image-rendering="optimizeQuality" fill-rule="evenodd" clip-rule="evenodd"
viewBox="0 0 2.68 3.01"
 xmlns:xlink="http://www.w3.org/1999/xlink">
 <g id="Camada_x0020_1">
  <metadata id="CorelCorpID_0Corel-Layer"/>
  <g id="_2751258542304">
   <g>
    <path fill="#292929" d="M0 0.49l0 2.03c0,0.1 0.03,0.19 0.08,0.27 0.02,0.03 0.03,0.04 0.06,0.07l0.13 0.1c0.04,0.02 0.12,0.05 0.18,0.05l0.44 0c0.12,0 0.2,-0.19 0.06,-0.27 -0.1,-0.06 -0.45,0.02 -0.57,-0.05 -0.02,-0.02 -0.04,-0.04 -0.06,-0.07 -0.02,-0.04 -0.03,-0.06 -0.03,-0.12l0 -2c0,-0.13 0.09,-0.21 0.22,-0.21l1.39 0c0.13,0 0.21,0.09 0.21,0.23 0,0.1 0,0.2 0,0.31 -0.01,0.06 0,0.16 0,0.23 0,0.04 0,0.05 0,0.08 0,0.06 0,0.09 0.02,0.14 0.08,0.12 0.27,0.06 0.27,-0.08l0 -0.71c0,-0.11 -0.04,-0.23 -0.11,-0.3 -0.04,-0.06 -0.1,-0.11 -0.16,-0.14 -0.04,-0.02 -0.12,-0.05 -0.18,-0.05l-1.5 0c-0.03,0 -0.07,0.01 -0.1,0.02 -0.04,0.01 -0.08,0.03 -0.12,0.05 -0.03,0.02 -0.04,0.03 -0.06,0.05 -0.04,0.03 -0.02,0.01 -0.05,0.05 -0.01,0.02 -0.02,0.02 -0.04,0.05 -0.05,0.07 -0.08,0.17 -0.08,0.27z"/>
    <path fill="#292929" d="M1.57 2.69c0.01,-0.02 0.03,-0.09 0.03,-0.11 0.03,-0.07 0.03,-0.1 0.07,-0.14l0.04 -0.04c0.02,-0.02 0.05,-0.04 0.07,-0.07 0.03,-0.03 0.25,-0.26 0.28,-0.28 0.02,0.03 0.15,0.15 0.16,0.16 -0.02,0.02 -0.4,0.41 -0.42,0.42 -0.01,0 -0.04,0.01 -0.06,0.01l-0.11 0.03c-0.01,0.01 -0.04,0.02 -0.06,0.02zm1.11 -0.77l0 0.05c-0.01,0.05 -0.02,0.1 -0.05,0.14 0,0.01 -0.01,0.02 -0.01,0.03 -0.03,0.04 -0.51,0.51 -0.59,0.59 -0.08,0.08 -0.07,0.1 -0.18,0.13 -0.05,0.01 -0.09,0.02 -0.13,0.04 -0.08,0.02 -0.16,0.04 -0.24,0.06 -0.05,0.02 -0.09,0.03 -0.13,0.01 -0.02,-0.01 -0.03,-0.02 -0.05,-0.03 -0.02,-0.03 -0.02,-0.05 -0.02,-0.08 0,-0.02 0.01,-0.05 0.01,-0.06l0.12 -0.39c0.01,-0.05 0.02,-0.06 0.05,-0.09l0.5 -0.5c0.08,-0.08 0.19,-0.23 0.34,-0.23 0.13,0 0.2,0.03 0.27,0.1 0.02,0.02 0.03,0.03 0.04,0.05 0.04,0.05 0.06,0.11 0.07,0.18zm-0.45 -0.04c0.01,-0.01 0.06,-0.05 0.08,-0.05 0.04,0 0.07,0 0.1,0.03 0.01,0.01 0.02,0.02 0.02,0.03 0.03,0.06 0,0.12 -0.04,0.15l-0.16 -0.16z"/>
    <path fill="#292929" d="M0.59 0.95l1.22 0c0.03,0 0.05,-0.02 0.07,-0.04 0.08,-0.08 -0.01,-0.19 -0.07,-0.19l-1.22 0c-0.05,0 -0.1,0.06 -0.1,0.11 0,0.06 0.05,0.12 0.1,0.12z"/>
    <path fill="#292929" d="M0.59 1.41l1.22 0c0.04,0 0.08,-0.04 0.09,-0.07 0.04,-0.08 -0.04,-0.16 -0.09,-0.16l-1.22 0c-0.04,0 -0.1,0.05 -0.1,0.11 -0.01,0.06 0.05,0.12 0.1,0.12z"/>
    <path fill="#292929" d="M0.59 1.87l0.76 0c0.12,0 0.14,-0.23 -0.01,-0.23l-0.74 0c-0.06,0 -0.1,0.05 -0.11,0.11 -0.01,0.06 0.05,0.12 0.1,0.12z"/>
   </g>
  </g>
 </g>
</svg>
