<?xml version="1.0" encoding="UTF-8"?>
<!DOCTYPE svg PUBLIC "-//W3C//DTD SVG 1.0//EN" "http://www.w3.org/TR/2001/REC-SVG-20010904/DTD/svg10.dtd">
<!-- Creator: CorelDRAW 2018 (64 Bit Versão de avaliação) -->
<svg xmlns="http://www.w3.org/2000/svg" xml:space="preserve" width="53px" height="33px" version="1.0" shape-rendering="geometricPrecision" text-rendering="geometricPrecision" image-rendering="optimizeQuality" fill-rule="evenodd" clip-rule="evenodd"
viewBox="0 0 1.91 1.17"
 xmlns:xlink="http://www.w3.org/1999/xlink">
 <g id="Camada_x0020_1">
  <metadata id="CorelCorpID_0Corel-Layer"/>
  <path fill="black" d="M1.36 1.05c-0.06,0 -0.08,0.01 -0.14,-0.01 -0.02,0 -0.02,0 -0.04,-0.01 -0.01,0 -0.03,0 -0.04,-0.01 0.01,-0.01 0.02,-0.01 0.03,-0.01 0.01,0 0.02,-0.01 0.04,-0.01 0.1,-0.05 0.19,-0.11 0.26,-0.2 0.02,-0.03 0.06,-0.1 0.06,-0.13 0.03,0.01 0.04,0.01 0.07,0.01 0.05,0.02 0.12,0.04 0.16,0.06l-0.03 0.06c-0.08,0.13 -0.22,0.25 -0.37,0.25zm-1.21 -0.31c0.04,-0.02 0.1,-0.04 0.16,-0.06 0.02,0 0.04,-0.01 0.06,-0.01 0.01,0.06 0.1,0.18 0.15,0.22 0.02,0.02 0.03,0.03 0.06,0.04 0.04,0.03 0.07,0.04 0.12,0.07 0.02,0 0.06,0.02 0.07,0.02 -0.02,0.01 -0.1,0.03 -0.15,0.03 -0.01,0 -0.02,0 -0.03,0.01 -0.03,0 -0.1,-0.01 -0.13,-0.02 -0.04,-0.01 -0.09,-0.04 -0.12,-0.06 -0.01,-0.01 -0.02,-0.02 -0.03,-0.03 -0.06,-0.04 -0.11,-0.11 -0.14,-0.17 -0.01,-0.01 -0.02,-0.02 -0.02,-0.04zm0.62 -0.19c0,-0.15 0.06,-0.26 0.15,-0.36 0.01,-0.01 0.02,-0.02 0.03,-0.03 0.02,0.01 0.03,0.02 0.04,0.03 0,0.01 0.01,0.01 0.01,0.02 0.11,0.12 0.18,0.29 0.12,0.45 -0.02,0.06 -0.02,0.06 -0.05,0.1 -0.01,0.04 -0.09,0.14 -0.12,0.16 -0.01,-0.01 -0.02,-0.02 -0.03,-0.03 -0.01,-0.02 -0.02,-0.03 -0.03,-0.04 -0.03,-0.04 -0.06,-0.09 -0.08,-0.13 -0.02,-0.05 -0.04,-0.12 -0.04,-0.17zm0.46 -0.17c0.03,0 0.03,-0.01 0.05,-0.02 0.02,0 0.04,-0.01 0.05,-0.02 0.03,0 0.09,-0.02 0.12,-0.02 0,0.03 0.01,0.07 0.01,0.11 0,0.19 -0.05,0.31 -0.2,0.41 -0.02,0.02 -0.11,0.06 -0.14,0.07 0.05,-0.08 0.09,-0.14 0.11,-0.23 0.01,-0.02 0.01,-0.04 0.02,-0.07 0,-0.01 0,-0.02 0,-0.04 0,-0.02 0.01,-0.02 0.01,-0.04l-0.01 -0.07c-0.01,-0.03 -0.02,-0.05 -0.02,-0.08zm-0.44 0.53c-0.06,-0.01 -0.17,-0.08 -0.22,-0.13 -0.08,-0.08 -0.12,-0.21 -0.12,-0.35 0,-0.04 0,-0.08 0,-0.11 0.03,0 0.1,0.02 0.12,0.02 0.02,0.01 0.03,0.02 0.05,0.02 0.02,0.01 0.04,0.02 0.05,0.02 0,0.06 -0.05,0.12 0,0.3 0.03,0.09 0.07,0.15 0.12,0.23zm-0.07 -0.63l-0.16 -0.06c-0.05,-0.01 -0.13,-0.03 -0.19,-0.03 -0.02,0.05 -0.03,0.12 -0.03,0.17 -0.01,0.02 0,0.04 0,0.06 -0.01,0.02 -0.01,0.02 0,0.04 0,0.02 -0.01,0.03 0,0.05 0,0.02 0,0.04 0,0.05 -0.01,0 -0.03,0.01 -0.05,0.01 -0.03,0.01 -0.1,0.03 -0.13,0.04l-0.08 0.04c-0.01,0 -0.01,0.01 -0.02,0.01l-0.06 0.04c0.01,0.04 0.06,0.13 0.09,0.17 0.01,0.02 0.03,0.05 0.05,0.07 0.1,0.12 0.25,0.23 0.42,0.23 0.24,0 0.35,-0.1 0.4,-0.1 0.01,0 0.11,0.05 0.16,0.07 0.22,0.06 0.41,0.04 0.58,-0.13 0.03,-0.03 0.07,-0.07 0.09,-0.1 0.04,-0.06 0.07,-0.09 0.1,-0.17 0,-0.01 0.01,-0.03 0.02,-0.04 -0.06,-0.04 -0.06,-0.04 -0.12,-0.07 -0.1,-0.05 -0.22,-0.07 -0.23,-0.07l0.01 -0.09c0.01,-0.11 0,-0.17 -0.03,-0.28 -0.1,0 -0.19,0.03 -0.27,0.06 -0.02,0 -0.03,0.01 -0.04,0.01 -0.01,0.01 -0.03,0.02 -0.05,0.02 0,-0.02 -0.01,-0.03 -0.02,-0.04 -0.02,-0.05 -0.07,-0.11 -0.11,-0.15l-0.1 -0.09 -0.06 0.06c-0.07,0.07 -0.12,0.14 -0.17,0.22z"/>
 </g>
</svg>
